<svg width="378" height="345" viewBox="0 0 378 345" fill="none" xmlns="http://www.w3.org/2000/svg">
<g clip-path="url(#clip0_522_3945)">
<path d="M177.437 125.009C181.316 125.009 184.461 122.147 184.461 118.617C184.461 115.087 181.316 112.226 177.437 112.226C173.558 112.226 170.414 115.087 170.414 118.617C170.414 122.147 173.558 125.009 177.437 125.009Z" fill="#D7E8F0"/>
<path d="M195.635 124.441C199.513 124.441 202.658 121.579 202.658 118.049C202.658 114.52 199.513 111.658 195.635 111.658C191.756 111.658 188.611 114.52 188.611 118.049C188.611 121.579 191.756 124.441 195.635 124.441Z" fill="#D7E8F0"/>
<path d="M57.9477 221.119C54.57 218.32 51.4675 215.258 48.6754 211.968C39.8505 201.219 35.8895 187.799 37.6075 174.472C39.5316 160.072 48.4448 145.105 62.9676 138.445C78.4656 131.342 97.6642 132.81 111.438 122.277C122.926 113.467 126.971 99.157 135.377 88.1042C142.559 78.689 151.253 70.0993 161.796 63.7353C190.301 46.5353 225.3 50.8628 255.43 62.1632C270.21 67.7119 281.44 74.8155 289.93 82.7206" stroke="#CCDDE2" stroke-width="2.55" stroke-miterlimit="10"/>
<path d="M300.328 94.5303C324.482 128.493 310.855 169.522 310.855 169.522" stroke="#CCDDE2" stroke-width="2.55" stroke-miterlimit="10"/>
<path d="M89.9913 255.87C101.169 291.69 86.6309 306.833 86.6309 306.833" stroke="#CCDDE2" stroke-width="2.55" stroke-miterlimit="10"/>
<path d="M270.913 154.857C269.664 150.701 267.288 146.897 264.003 143.794C257.577 137.578 248.078 133.932 238.677 134.197C232.043 134.389 223.421 135.786 217.997 131.366C215.158 129.068 214.557 125.328 213.461 122.215C212.252 118.7 211.242 115.13 210.437 111.52C209.719 108.086 208.356 104.791 206.407 101.778C204.303 98.5172 201.325 95.795 197.751 93.8662C191.038 90.3368 181.667 90.01 174.92 93.6289C173.959 94.1523 173.049 94.7484 172.198 95.4108C171.999 95.5599 171.808 95.7184 171.627 95.8855C165.776 100.794 162.956 108.73 163.103 115.82C163.103 115.82 163.103 116.264 163.103 117.035C163.103 117.451 163.103 117.822 163.103 118.149C163.122 118.786 163.137 119.556 163.122 120.402C163.432 124.568 164.166 142.515 155.672 152.126C159.796 150.956 163.988 149.904 168.206 149.03C168.217 149.033 168.229 149.033 168.24 149.03C168.679 148.806 172.886 146.777 175.706 147.654C176.241 147.818 176.723 148.098 177.112 148.471C177.501 148.843 177.783 149.296 177.936 149.79C177.936 149.818 177.936 149.835 177.97 149.849C178.004 149.969 178.053 150.1 178.083 150.234C178.114 150.36 178.152 150.484 178.197 150.606C178.551 151.596 179.039 152.542 179.648 153.423C179.731 153.561 179.829 153.69 179.943 153.808C180.541 154.524 181.243 155.163 182.03 155.707C181.735 155.442 181.425 155.143 181.1 154.847C180.014 153.866 179.188 152.672 178.685 151.356C178.182 150.041 178.015 148.638 178.197 147.255C178.197 147.255 178.9 148.026 180.333 147.283C181.765 146.539 179.599 140.12 179.063 138.204C178.866 137.492 180.023 137.582 181.818 137.984C180.509 137.172 179.316 136.215 178.265 135.136C177.533 134.4 176.868 133.61 176.277 132.776C173.699 129.13 172.723 126.326 172.202 122.855C170.997 121.632 170.362 120.029 170.433 118.387C170.503 116.745 171.273 115.193 172.58 114.059C172.608 114.021 172.641 113.986 172.678 113.956C173.491 113.006 175.154 112.649 176.231 111.954C177.382 111.166 178.4 110.231 179.255 109.178C180.249 107.991 181.901 106.243 181.75 104.64C182.189 108.985 186.328 111.864 190.909 111.981C192.014 111.979 193.118 111.925 194.217 111.82C194.217 111.82 194.217 111.82 194.251 111.82C194.717 111.729 195.192 111.684 195.668 111.685C196.794 111.683 197.904 111.929 198.903 112.402C199.902 112.874 200.761 113.56 201.406 114.4C201.471 114.475 201.531 114.554 201.584 114.637C201.667 114.754 201.746 114.888 201.829 115.022C202.099 115.395 202.324 115.792 202.499 116.209C203.542 118.641 203.459 121.369 203.296 123.935C203.05 127.719 202.09 131.692 199.777 134.926C199.882 134.841 200.006 134.777 200.14 134.738C200.274 134.7 200.416 134.687 200.556 134.702C202.351 134.985 201.081 145.545 203.066 146.096C205.05 146.646 204.956 148.053 204.956 148.053C204.956 148.304 204.925 148.542 204.891 148.779C205.072 147.91 205.138 147.024 205.088 146.14C205.674 146.168 206.26 146.226 206.846 146.302C210.172 145.27 216.674 148.511 216.674 148.511C216.682 148.52 216.694 148.526 216.708 148.528C232.319 154.001 242.963 167.72 246.57 183.024C247.882 188.532 248.565 194.148 248.607 199.784V171.61C248.606 171.26 248.682 170.912 248.829 170.588C248.976 170.264 249.192 169.97 249.465 169.722C249.737 169.474 250.061 169.277 250.417 169.143C250.773 169.009 251.155 168.94 251.54 168.941H271.635C271.302 164.173 272.281 159.532 270.913 154.857ZM190.157 159.013C190.694 159.144 191.249 159.264 191.805 159.357C192.16 159.357 192.519 159.326 192.878 159.298C195.578 159.028 198.125 158.02 200.181 156.405C198.174 157.695 195.645 158.497 192.701 158.813C191.737 158.923 190.89 158.982 190.157 159.013ZM198.129 136.794C196.207 138.591 193.678 139.75 190.947 140.086C191.459 140.165 191.977 140.21 192.497 140.22C195.211 140.265 196.874 138.38 198.129 136.794Z" fill="#3FBDF1"/>
<path d="M240.241 232.653C239.262 235.023 238.593 236.361 238.593 236.361C238.854 247.634 231.275 273.434 231.275 273.434C221.156 274.25 212.189 274.074 204.236 273.169C224.497 259.33 234.488 244.311 240.241 232.653Z" fill="#2E2E2E"/>
<path d="M247.655 201.817C222.492 193.217 207.073 205.701 207.073 205.701C207.043 239.313 175.408 257.927 168.366 261.632C150.441 250.689 145.501 236.361 145.501 236.361L147.115 234.641C148.249 231.765 151.155 222.821 152.104 214.204C153 206.062 151.987 198.201 151.923 195.989C151.775 191.438 149.511 192.477 146.854 193.351C144.196 194.225 131.893 194.493 131.893 194.493C145.531 187.503 138.462 157.85 138.462 157.85L168.188 149.054C168.188 149.054 176.599 144.74 178.065 150.241C179.532 155.741 185.383 158.153 191.787 159.391C198.19 160.63 204.109 153.918 204.907 148.49C205.705 143.062 216.625 148.49 216.625 148.49C243.535 160.674 248.944 182.818 247.655 201.817Z" fill="#2E2E2E"/>
<path d="M45.0347 310.796C45.0347 310.796 68.1834 308.488 72.1789 310.796C72.1789 310.796 72.9122 315.578 69.3779 321.508C65.8436 327.439 61.5004 323.362 38.1438 324.725C38.1438 324.725 19.1568 326.101 18.9376 319.785C18.7184 313.469 27.5673 312.588 32.7195 312.537C37.8716 312.485 45.0347 310.796 45.0347 310.796Z" fill="#3FBDF1"/>
<path d="M132.3 304.69H132.039" stroke="#191924" stroke-width="2.55" stroke-miterlimit="10"/>
<path d="M120.877 169.498C129.14 166.265 135.071 158.047 140.155 151.669C143.557 147.427 147.715 141.927 151.117 137.713C154.443 133.619 161.077 126.361 162.854 121.545C162.933 121.338 162.998 121.132 163.066 120.936" stroke="#191924" stroke-width="2.55" stroke-miterlimit="10"/>
<path d="M151.237 192.622C141.768 194.4 99.8027 200.661 94.9756 172.804C89.5173 141.376 144.913 129.422 149.461 119.914C154.008 110.406 149.309 100.058 161.277 95.2422C166.569 93.106 170.288 93.5532 171.562 95.8958" stroke="#191924" stroke-width="2.55" stroke-miterlimit="10"/>
<path d="M72.1973 312.846C76.6766 293.538 87.0262 254.366 101.092 235.381" stroke="#191924" stroke-width="2.55" stroke-miterlimit="10"/>
<path d="M149.593 187.149C153.468 197.916 155.433 214.91 145.771 238.02" stroke="#191924" stroke-width="2.55" stroke-miterlimit="10"/>
<path d="M76.5799 330.408H63.2478C61.2048 330.391 59.2504 329.646 57.8054 328.332C56.3604 327.017 55.5402 325.239 55.5215 323.38C55.5242 323.056 55.552 322.733 55.6046 322.413C55.8615 321.846 56.0466 321.254 56.1565 320.648C56.3871 319.493 56.4362 318.808 58.7156 317.728C60.1699 317.054 61.6669 316.459 63.1987 315.946C63.4897 315.856 63.7846 315.739 64.1096 315.636C65.3344 315.22 66.9787 314.656 68.9178 313.989C69.4092 313.827 69.9119 313.645 70.4298 313.469C70.9477 313.294 71.5865 313.07 72.1913 312.86C81.1234 309.836 93.8016 305.533 102.114 302.702H102.163C102.576 302.629 102.997 302.595 103.418 302.599C105.34 302.6 107.184 303.295 108.543 304.532C109.903 305.769 110.667 307.447 110.668 309.197C110.668 309.197 60.2805 322.251 76.5799 330.408Z" fill="#3FBDF1"/>
<path d="M96.7676 242C102.732 256.31 106.596 274.115 124.214 295.873" stroke="#191924" stroke-width="2.55" stroke-miterlimit="10"/>
<path d="M206.732 199.681C209.453 223.664 195.83 249.292 160.397 265.622C149.219 270.782 138.786 277.662 130.977 286.654C128.817 289.166 126.85 291.809 125.088 294.566C123.75 296.63 120.669 300.414 122.117 302.929C122.873 304.246 124.12 304.711 125.674 304.711C129.915 304.711 134.22 294.924 137.547 290.559" stroke="#191924" stroke-width="2.55" stroke-miterlimit="10"/>
<path d="M145.232 293.235C145.232 293.235 137.593 304.566 132.301 304.697C127.009 304.828 130.751 300.975 130.751 300.975" stroke="#191924" stroke-width="2.55" stroke-miterlimit="10"/>
<path d="M181.486 146.818C164.733 148.865 148.01 153.863 133.166 159.918" stroke="#191924" stroke-width="2.55" stroke-miterlimit="10"/>
<path d="M150.667 297.022C150.636 297.071 150.598 297.116 150.554 297.157C149.919 297.941 149.235 298.773 148.482 299.565C146.691 301.539 144.623 303.393 141.996 304.178C139.894 304.817 135.627 304.329 138.053 301.611" stroke="#191924" stroke-width="2.55" stroke-miterlimit="10"/>
<path d="M137.679 302.11C137.596 302.11 137.497 302.155 137.418 302.169" stroke="#191924" stroke-width="2.55" stroke-miterlimit="10"/>
<path d="M202.072 294.442C193.597 294.47 185.644 294.855 178.258 295.474C171.491 296.039 168.052 296.396 162.227 297.301" stroke="#191924" stroke-width="2.55" stroke-miterlimit="10"/>
<path d="M148.553 299.661C148.322 299.692 148.094 299.737 147.869 299.795V299.795" stroke="#191924" stroke-width="2.55" stroke-miterlimit="10"/>
<path d="M129.904 304.229C124.015 305.911 118.256 307.948 112.664 310.325C112.476 310.411 112.269 310.457 112.059 310.459C111.69 310.456 111.337 310.32 111.077 310.081C110.818 309.842 110.673 309.519 110.675 309.183C110.673 307.433 109.908 305.755 108.548 304.518C107.188 303.281 105.344 302.586 103.422 302.585C103 302.581 102.58 302.615 102.167 302.688H102.117C101.688 302.765 101.268 302.881 100.862 303.032L72.1987 312.846C71.5939 313.056 71.008 313.263 70.4372 313.455C69.8665 313.648 69.4129 313.799 68.9252 313.975C66.9861 314.642 65.3418 315.206 64.1171 315.622C63.792 315.726 63.4972 315.843 63.2061 315.932L61.2367 316.599C60.3237 316.819 59.4662 317.197 58.7117 317.714C57.5697 318.445 56.6817 319.459 56.1526 320.634C55.8678 321.193 55.6815 321.788 55.6007 322.399V322.399C55.5481 322.719 55.5203 323.042 55.5176 323.366C55.5363 325.225 56.3565 327.003 57.8015 328.318C59.2465 329.632 61.2009 330.378 63.2439 330.394H244.306C248.368 330.385 252.325 329.215 255.617 327.048C258.909 324.882 261.37 321.829 262.652 318.321C263.935 314.813 263.973 311.027 262.763 307.497C261.552 303.968 259.154 300.874 255.907 298.653L236.304 284.728C232.879 282.292 229.897 277.16 231.265 273.424C235.634 261.45 238.102 248.97 238.594 236.361" stroke="#191924" stroke-width="2.55" stroke-miterlimit="10"/>
<path d="M55.5664 324.133H24.3096C23.5999 324.135 22.8969 324.009 22.2407 323.763C21.5845 323.517 20.9881 323.156 20.4856 322.7C19.9831 322.244 19.5845 321.702 19.3124 321.106C19.0404 320.509 18.9004 319.87 18.9004 319.224C18.9004 316.816 21.622 314.136 24.2302 313.72L46.8724 310.535C45.4057 259.096 55.5664 218.429 67.05 200.438C70.5276 194.982 76.0956 191.15 82.4044 189.034C96.5794 184.304 112.459 189.791 120.469 201.435L130.32 215.759L142.711 233.771C142.816 233.919 142.926 234.067 143.039 234.208L148.101 240.379" stroke="#191924" stroke-width="2.55" stroke-miterlimit="10"/>
<path d="M155.688 152.116C164.325 146.268 163.04 115.838 163.04 115.838C162.892 108.524 165.89 100.306 172.134 95.4281C172.985 94.7657 173.895 94.1696 174.856 93.6462C181.603 90.0273 190.974 90.3541 197.687 93.8835C201.261 95.8123 204.239 98.5345 206.343 101.796C208.298 104.803 209.67 108.094 210.399 111.524C211.203 115.134 212.213 118.704 213.423 122.219C214.501 125.315 215.102 129.071 217.937 131.369C223.365 135.79 231.987 134.393 238.621 134.2C248.014 133.929 257.494 137.589 263.947 143.798C267.225 146.904 269.6 150.705 270.857 154.858C272.217 159.539 271.235 164.183 271.586 168.937" stroke="#191924" stroke-width="2.55" stroke-miterlimit="10"/>
<path d="M183.077 153.11L181.043 145.095L178.242 135.126" stroke="#191924" stroke-width="2.55" stroke-miterlimit="10"/>
<path d="M188.613 133.794C190.096 133.794 191.297 132.701 191.297 131.352C191.297 130.003 190.096 128.91 188.613 128.91C187.131 128.91 185.93 130.003 185.93 131.352C185.93 132.701 187.131 133.794 188.613 133.794Z" stroke="#191924" stroke-width="2.55" stroke-miterlimit="10"/>
<path d="M311.873 241.325C311.876 242.289 311.67 243.243 311.267 244.134C310.864 245.025 310.272 245.834 309.524 246.516C308.776 247.198 307.888 247.739 306.91 248.108C305.932 248.477 304.884 248.667 303.826 248.666C302.85 248.67 301.883 248.509 300.972 248.192C299.848 247.166 299.084 245.859 298.776 244.438C298.467 243.017 298.628 241.545 299.239 240.207C299.849 238.87 300.881 237.726 302.205 236.922C303.528 236.117 305.084 235.688 306.676 235.687C307.645 235.685 308.606 235.846 309.511 236.162C310.26 236.838 310.855 237.642 311.26 238.528C311.666 239.415 311.874 240.365 311.873 241.325Z" fill="#D7E8F0"/>
<path d="M311.872 194.486C311.873 195.448 311.666 196.401 311.262 197.291C310.858 198.18 310.265 198.988 309.518 199.668C308.77 200.349 307.883 200.888 306.906 201.257C305.929 201.625 304.882 201.814 303.825 201.813C303.025 201.903 302.214 201.81 301.464 201.541C300.715 201.272 300.051 200.837 299.534 200.275C299.016 199.714 298.662 199.043 298.502 198.324C298.342 197.606 298.383 196.862 298.62 196.162C298.619 195.199 298.827 194.246 299.232 193.357C299.636 192.468 300.229 191.66 300.977 190.979C301.725 190.299 302.612 189.759 303.589 189.391C304.567 189.023 305.614 188.834 306.671 188.834C307.653 188.83 308.627 188.996 309.54 189.323C311.037 190.696 311.876 192.552 311.872 194.486Z" fill="#D7E8F0"/>
<path d="M311.873 290.713C311.874 291.676 311.667 292.629 311.263 293.518C310.859 294.407 310.266 295.215 309.519 295.895C308.771 296.576 307.884 297.116 306.907 297.484C305.93 297.852 304.883 298.041 303.826 298.041C302.85 298.046 301.882 297.885 300.972 297.566C299.85 296.54 299.087 295.234 298.779 293.813C298.471 292.393 298.633 290.921 299.243 289.584C299.853 288.247 300.884 287.105 302.207 286.3C303.53 285.496 305.085 285.066 306.676 285.065C307.645 285.061 308.607 285.222 309.511 285.54C310.262 286.216 310.858 287.022 311.263 287.911C311.669 288.799 311.876 289.752 311.873 290.713Z" fill="#D7E8F0"/>
<path d="M311.873 241.325C311.876 242.289 311.67 243.243 311.267 244.134C310.864 245.025 310.272 245.834 309.524 246.516C308.776 247.198 307.888 247.739 306.91 248.108C305.932 248.477 304.884 248.667 303.826 248.666C302.85 248.67 301.883 248.509 300.972 248.192C299.848 247.166 299.084 245.859 298.776 244.438C298.467 243.017 298.628 241.545 299.239 240.207C299.849 238.87 300.881 237.726 302.205 236.922C303.528 236.117 305.084 235.688 306.676 235.687C307.645 235.685 308.606 235.846 309.511 236.162C310.26 236.838 310.855 237.642 311.26 238.528C311.666 239.415 311.874 240.365 311.873 241.325Z" fill="#D7E8F0"/>
<path d="M311.872 194.486C311.873 195.448 311.666 196.401 311.262 197.291C310.858 198.18 310.265 198.988 309.518 199.668C308.77 200.349 307.883 200.888 306.906 201.257C305.929 201.625 304.882 201.814 303.825 201.813C303.025 201.903 302.214 201.81 301.464 201.541C300.715 201.272 300.051 200.837 299.534 200.275C299.016 199.714 298.662 199.043 298.502 198.324C298.342 197.606 298.383 196.862 298.62 196.162C298.619 195.199 298.827 194.246 299.232 193.357C299.636 192.468 300.229 191.66 300.977 190.979C301.725 190.299 302.612 189.759 303.589 189.391C304.567 189.023 305.614 188.834 306.671 188.834C307.653 188.83 308.627 188.996 309.54 189.323C311.037 190.696 311.876 192.552 311.872 194.486Z" fill="#D7E8F0"/>
<path d="M311.873 290.713C311.874 291.676 311.667 292.629 311.263 293.518C310.859 294.407 310.266 295.215 309.519 295.895C308.771 296.576 307.884 297.116 306.907 297.484C305.93 297.852 304.883 298.041 303.826 298.041C302.85 298.046 301.882 297.885 300.972 297.566C299.85 296.54 299.087 295.234 298.779 293.813C298.471 292.393 298.633 290.921 299.243 289.584C299.853 288.247 300.884 287.105 302.207 286.3C303.53 285.496 305.085 285.066 306.676 285.065C307.645 285.061 308.607 285.222 309.511 285.54C310.262 286.216 310.858 287.022 311.263 287.911C311.669 288.799 311.876 289.752 311.873 290.713Z" fill="#D7E8F0"/>
<path d="M177.437 125.009C181.316 125.009 184.461 122.147 184.461 118.617C184.461 115.087 181.316 112.226 177.437 112.226C173.558 112.226 170.414 115.087 170.414 118.617C170.414 122.147 173.558 125.009 177.437 125.009Z" stroke="#191924" stroke-width="2.55" stroke-miterlimit="10"/>
<path d="M195.635 124.441C199.513 124.441 202.658 121.579 202.658 118.049C202.658 114.52 199.513 111.658 195.635 111.658C191.756 111.658 188.611 114.52 188.611 118.049C188.611 121.579 191.756 124.441 195.635 124.441Z" stroke="#191924" stroke-width="2.55" stroke-miterlimit="10"/>
<path d="M174.5 117.778C174.5 117.778 177.331 120.733 180.242 117.778" stroke="#191924" stroke-width="2.55" stroke-miterlimit="10"/>
<path d="M192.779 117.778C192.779 117.778 195.607 120.733 198.521 117.778" stroke="#191924" stroke-width="2.55" stroke-miterlimit="10"/>
<path d="M184.465 118.634C184.465 118.634 186.06 116.278 188.623 118.067" stroke="#191924" stroke-width="2.55" stroke-miterlimit="10"/>
<path d="M172.18 122.838C172.701 126.309 173.692 129.126 176.255 132.773C178.946 136.557 183.784 140.189 188.872 140.22C191.034 140.258 193.17 139.788 195.074 138.856C196.978 137.924 198.586 136.561 199.743 134.899C202.057 131.669 203.024 127.706 203.27 123.891C203.433 121.328 203.501 118.6 202.473 116.165C201.339 113.502 198.693 111.693 195.533 111.727C193.979 111.748 192.437 112.009 190.883 111.964C186.294 111.837 182.159 108.968 181.717 104.62C181.879 106.213 180.205 107.964 179.233 109.161C178.374 110.204 177.355 111.13 176.209 111.913C175.113 112.645 173.348 112.996 172.565 114.018" stroke="#191924" stroke-width="2.55" stroke-miterlimit="10"/>
<path d="M263.644 313.724H356.152C356.932 313.725 357.68 313.444 358.233 312.944C358.786 312.443 359.098 311.764 359.101 311.054V171.61C359.101 171.259 359.024 170.91 358.876 170.586C358.728 170.261 358.51 169.966 358.236 169.718C357.962 169.47 357.637 169.274 357.28 169.14C356.922 169.007 356.539 168.939 356.152 168.941H251.488C251.103 168.941 250.721 169.009 250.365 169.143C250.009 169.277 249.685 169.474 249.413 169.722C249.14 169.97 248.924 170.264 248.777 170.588C248.63 170.912 248.554 171.26 248.555 171.61V293.417" stroke="#191924" stroke-width="2.55" stroke-miterlimit="10"/>
<path d="M359.093 216.912H248.559V265.739H359.093V216.912Z" stroke="#191924" stroke-width="2.55" stroke-miterlimit="10"/>
<path d="M204.966 145.122C205.836 152.195 200.396 158.538 192.821 159.319C185.246 160.1 178.416 154.974 177.531 147.902" stroke="#191924" stroke-width="2.55" stroke-miterlimit="10"/>
<path d="M201.096 132.639L202.661 145.958C203.417 145.989 204.173 146.034 204.929 146.093C226.913 147.665 242.037 164.128 246.509 182.993C247.822 188.502 248.504 194.12 248.546 199.757C248.587 206.958 247.505 214.129 245.333 221.054C243.173 227.812 240.097 234.299 236.174 240.366C232.177 246.527 227.505 252.305 222.23 257.61C216.799 263.054 210.902 268.098 204.596 272.695C199.463 276.444 194.069 279.857 188.626 283.211C183.753 286.204 178.42 288.474 173.339 291.123C168.047 293.875 162.891 296.82 157.887 299.964C155.214 301.653 151.922 303.225 148.762 301.594C147.881 301.151 148.006 300.377 148.482 299.575C149.038 298.643 150.081 297.68 150.553 297.167" stroke="#191924" stroke-width="2.55" stroke-miterlimit="10"/>
<path d="M303.825 248.656C308.273 248.656 311.88 245.374 311.88 241.325C311.88 237.277 308.273 233.995 303.825 233.995C299.376 233.995 295.77 237.277 295.77 241.325C295.77 245.374 299.376 248.656 303.825 248.656Z" stroke="#191924" stroke-width="2.55" stroke-miterlimit="10"/>
<path d="M303.825 201.81C308.273 201.81 311.88 198.528 311.88 194.48C311.88 190.431 308.273 187.149 303.825 187.149C299.376 187.149 295.77 190.431 295.77 194.48C295.77 198.528 299.376 201.81 303.825 201.81Z" stroke="#191924" stroke-width="2.55" stroke-miterlimit="10"/>
<path d="M303.825 298.044C308.273 298.044 311.88 294.762 311.88 290.713C311.88 286.665 308.273 283.383 303.825 283.383C299.376 283.383 295.77 286.665 295.77 290.713C295.77 294.762 299.376 298.044 303.825 298.044Z" stroke="#191924" stroke-width="2.55" stroke-miterlimit="10"/>
<path d="M245.602 220.149C244.268 223.53 242.62 227.803 240.242 232.653C242.586 226.912 246.778 215.137 247.655 201.817C247.655 201.817 250.444 208.03 245.602 220.149Z" fill="#191924"/>
<path d="M329.994 94.9466L305.424 98.2937L309.703 101.046L317.706 106.876C318.961 107.678 318.647 109.573 319.342 110.722C319.604 112.457 319.303 114.223 318.476 115.804C317.65 117.385 316.334 118.712 314.69 119.621C313.046 120.531 311.146 120.984 309.223 120.924C307.3 120.864 305.439 120.294 303.867 119.285L284.559 106.918C282.427 105.578 280.716 103.756 279.596 101.63C278.016 94.4718 282.865 86.5151 292.179 85.2492L319.017 81.5856L315.086 78.7992L302.896 70.1648C301.851 69.4305 300.979 68.512 300.333 67.4644C300.063 65.6928 300.38 63.8882 301.244 62.2817C302.108 60.6752 303.479 59.3397 305.181 58.4464C306.884 57.5531 308.841 57.1425 310.801 57.2672C312.762 57.3919 314.637 58.0463 316.186 59.1465L337.932 74.5439C339.71 75.7877 341.148 77.3889 342.132 79.2223C343.602 86.1229 338.874 93.7357 329.994 94.9466Z" fill="#3FBDF1"/>
<path d="M329.995 94.9464L305.425 98.2936L309.704 101.046L315.253 104.575C316.326 105.25 317.241 106.111 317.946 107.109C318.652 108.108 319.133 109.223 319.362 110.392C319.591 111.56 319.563 112.758 319.281 113.917C318.998 115.075 318.467 116.172 317.716 117.142C316.966 118.113 316.012 118.939 314.909 119.572C313.806 120.205 312.576 120.634 311.29 120.832C310.004 121.031 308.688 120.995 307.418 120.729C306.147 120.462 304.947 119.969 303.887 119.278L284.559 106.918C282.428 105.578 280.717 103.756 279.596 101.63C275.487 93.8663 280.292 83.5463 291.019 82.0808L312.312 79.1775L315.087 78.7991L302.896 70.1647C301.851 69.4469 300.973 68.5472 300.313 67.5178C299.654 66.4884 299.225 65.3499 299.054 64.1686C298.882 62.9873 298.97 61.7866 299.313 60.6365C299.655 59.4864 300.246 58.4098 301.05 57.4694C301.854 56.5289 302.856 55.7433 303.997 55.1583C305.138 54.5734 306.395 54.2007 307.695 54.0619C308.996 53.9231 310.314 54.0211 311.572 54.35C312.831 54.679 314.005 55.2324 315.026 55.9781L336.773 71.379C339.555 73.3073 341.462 76.0984 342.133 79.2222C343.603 86.1228 338.874 93.7356 329.995 94.9464Z" stroke="#191924" stroke-width="3.55" stroke-miterlimit="10"/>
<path d="M252.541 122.418L252.22 114.396L248.308 118.05C247.979 118.356 247.588 118.601 247.156 118.769C246.724 118.938 246.26 119.027 245.789 119.032C245.319 119.037 244.853 118.958 244.416 118.799C243.98 118.64 243.582 118.404 243.246 118.105C242.909 117.806 242.641 117.45 242.455 117.057C242.27 116.663 242.172 116.241 242.166 115.813C242.161 115.385 242.248 114.96 242.423 114.563C242.598 114.166 242.857 113.804 243.186 113.498L250.164 106.993C250.887 106.32 251.811 105.855 252.822 105.654C253.834 105.454 254.887 105.528 255.852 105.867C256.818 106.206 257.653 106.795 258.254 107.562C258.855 108.328 259.197 109.238 259.236 110.179L259.564 118.363L262.449 115.401C262.761 115.081 263.139 114.82 263.562 114.633C263.984 114.446 264.444 114.336 264.913 114.311C265.382 114.285 265.852 114.344 266.297 114.484C266.741 114.624 267.151 114.842 267.502 115.126C267.854 115.409 268.142 115.753 268.347 116.138C268.553 116.523 268.674 116.94 268.702 117.368C268.731 117.795 268.667 118.223 268.513 118.627C268.36 119.032 268.12 119.405 267.809 119.725L262.139 125.552C261.415 126.308 260.457 126.847 259.392 127.1C258.326 127.352 257.201 127.306 256.164 126.968C255.127 126.629 254.227 126.014 253.58 125.202C252.934 124.391 252.572 123.42 252.541 122.418Z" fill="#D7E8F0"/>
<path d="M220.893 118.349L225.051 117.503L222.783 116.127C222.402 115.893 222.138 115.532 222.049 115.122C221.96 114.712 222.052 114.287 222.306 113.939C222.562 113.591 222.959 113.351 223.41 113.27C223.861 113.188 224.328 113.273 224.711 113.505L228.729 115.955C229.144 116.208 229.468 116.567 229.661 116.986C229.855 117.405 229.908 117.867 229.816 118.314C229.724 118.761 229.49 119.174 229.143 119.501C228.796 119.828 228.351 120.055 227.863 120.155L223.611 121.018L225.414 122.005C225.807 122.222 226.091 122.571 226.202 122.978C226.313 123.384 226.243 123.813 226.007 124.173C225.769 124.531 225.385 124.789 224.939 124.89C224.492 124.99 224.02 124.925 223.626 124.709L220.107 122.762C219.653 122.514 219.292 122.148 219.07 121.712C218.847 121.275 218.774 120.788 218.858 120.313C218.943 119.838 219.182 119.397 219.545 119.047C219.907 118.697 220.377 118.454 220.893 118.349Z" fill="#D7E8F0"/>
<path d="M12.8856 339.235L10.9805 344.002" stroke="#CCDDE2" stroke-width="1.69" stroke-miterlimit="10"/>
</g>
<defs>
<clipPath id="clip0_522_3945">
<rect width="378" height="344" fill="white" transform="translate(0 0.986328)"/>
</clipPath>
</defs>
</svg>
