<svg width="378" height="345" viewBox="0 0 378 345" fill="none" xmlns="http://www.w3.org/2000/svg">
<path d="M114.701 107.282C114.701 107.282 150.233 53.4429 221.259 74.5129C292.172 95.5863 275.415 175.584 275.37 175.793C275.68 174.328 287.965 172.931 289.265 172.759C325.504 167.885 352.459 198.559 355.132 228.79C358.451 266.286 326.581 292.843 290.286 304.277" stroke="#CCDDE2" stroke-width="2.5" stroke-miterlimit="10"/>
<path d="M285.605 321.869C284.531 325.306 283.753 327.27 283.753 327.27H283.193C284.078 325.518 284.882 323.718 285.605 321.869Z" fill="#353642"/>
<path d="M186.732 186.234C186.732 186.234 185.454 193.293 184.131 199.684C180.351 199.722 176.571 199.749 172.833 199.777C170.943 190.097 172.995 182.515 175.433 177.462C178.506 183.839 183.148 185.78 186.732 186.234Z" fill="#3FBDF1"/>
<path d="M248.859 211.704C241.174 207.937 232.981 205.099 224.49 203.258L221.708 202.821C221.708 202.821 219.636 198.535 219.625 198.521C218.653 196.275 217.043 193.293 216.544 190.926C215.936 188.13 215.789 185.268 216.106 182.433C216.65 178.222 218.805 169.316 222.698 166.509C225.945 164.183 227.283 164.672 229.124 161.036C230.447 158.442 230.984 154.084 228.413 152.171C225.563 150.073 224.346 151.139 220.937 151.462C207.979 152.632 200.574 144.145 195.811 134.338C195.055 132.745 194.269 131.063 193.033 129.708C191.615 128.146 189.653 127.795 188.047 126.533C187.363 125.989 186.894 125.102 187.223 124.331C187.417 123.963 187.698 123.639 188.047 123.382C191.083 120.836 194.729 118.97 198.695 117.929C204.969 116.278 211.598 116.09 217.973 117.382C224.626 119.388 230.606 123.186 234.631 128.989C240.184 137.007 241.522 145.325 238.411 153.616C235.225 162.106 231.668 172.078 237.655 180.248C245.627 191.101 250.432 198.735 248.859 211.704Z" fill="#3FBDF1"/>
<path d="M184.146 199.684C180.366 199.722 176.586 199.749 172.848 199.777C144.361 199.911 117.096 199.55 88.5195 204.215" stroke="#191924" stroke-width="2.5" stroke-miterlimit="10"/>
<path d="M221.258 202.57C222.343 202.787 223.416 203.014 224.49 203.258C228.674 204.179 232.795 205.328 236.828 206.698C240.965 208.099 244.986 209.771 248.859 211.7C248.864 211.697 248.869 211.695 248.874 211.695C248.88 211.695 248.885 211.697 248.89 211.7C254.983 214.705 260.614 218.427 265.639 222.77C269.84 226.495 273.472 230.717 276.438 235.323C276.464 235.34 276.484 235.364 276.495 235.391C278.901 239.067 280.99 242.907 282.743 246.878C287.975 258.604 290.942 272.106 291.396 285.543C291.808 298.233 289.971 310.868 285.624 321.87C284.9 323.718 284.097 325.518 283.212 327.27C283.155 327.404 283.08 327.525 283.023 327.659" stroke="#191924" stroke-width="2.5" stroke-miterlimit="10"/>
<path d="M237.684 327.487C237.684 327.487 237.684 327.459 237.684 327.446C237.708 327.389 237.727 327.33 237.741 327.27" stroke="#191924" stroke-width="5.5" stroke-miterlimit="10"/>
<path d="M227.707 250.128C227.707 250.128 235.932 253.765 241.338 265.116C244.056 270.823 246.07 278.498 245.953 288.646C245.953 288.646 245.953 288.646 245.953 288.674C245.893 295.144 244.955 302.616 242.778 311.226V311.274" stroke="#191924" stroke-width="2.5" stroke-miterlimit="10"/>
<path d="M72.043 106.013C73.4945 101.015 75.823 95.8616 77.5731 93.6944C80.325 90.3232 83.916 87.1103 88.5351 87.3992C91.5024 87.5747 94.4168 89.0676 94.5491 92.026C94.6738 95.2355 90.9543 98.7994 89.7598 101.816C88.6258 104.727 88.108 108.115 88.7052 111.177C89.3025 114.238 92.3227 116.629 95.581 117.286C96.817 117.582 98.1315 117.42 99.2363 116.835C102.427 114.998 101.758 110.107 101.629 107.221C101.478 103.983 101.482 100.323 104.517 98.1079C106.747 96.4808 110.13 97.561 111.775 99.3498C114.632 102.446 114.772 107.107 114.916 110.919C115.343 122.401 113.101 133.409 105.753 143.076C101.973 148.067 98.0796 152.546 96.5487 158.669C91.7859 177.699 91.2567 190.892 88.52 210.218" stroke="#191924" stroke-width="2.5" stroke-miterlimit="10"/>
<path d="M146.218 327.786C131.612 290.008 138.53 248.735 138.53 248.735L60.0718 250.999C56.7314 251.095 53.4071 250.538 50.3229 249.367C47.2387 248.195 44.4663 246.435 42.1925 244.206C39.9186 241.977 38.1962 239.331 37.1411 236.445C36.0861 233.559 35.723 230.501 36.0764 227.476L55.2939 163.698L59.4519 150.093C60.7778 145.812 60.4741 141.249 58.5901 137.145L56.632 132.893C56.632 132.893 53.0826 126.306 61.0395 126.925C65.3185 127.269 69.5634 128.923 73.1544 131.001C75.9743 132.635 80.2759 135.797 78.9454 139.302C77.3729 143.43 71.2077 144.462 67.5865 142.14" stroke="#191924" stroke-width="2.5" stroke-miterlimit="10"/>
<path d="M58.394 126.89C58.394 126.89 51.6731 113.13 70.112 116.691C88.5508 120.251 92.9659 138.586 78.8929 136.522" stroke="#191924" stroke-width="2.5" stroke-miterlimit="10"/>
<path d="M64.4722 115.903C64.4722 115.903 58.5754 109.384 67.3903 106.271C76.2053 103.158 108.214 117.86 87.6814 132.343" stroke="#191924" stroke-width="2.5" stroke-miterlimit="10"/>
<path d="M192.025 185.924C190.313 186.351 188.524 186.457 186.767 186.234C183.168 185.78 178.526 183.826 175.468 177.462C174.833 176.161 174.317 174.815 173.926 173.437C172.369 168.17 171.688 160.843 172.599 150.626C172.777 148.662 173.041 146.667 173.408 144.675C174.015 141.21 174.994 137.808 176.33 134.517C176.33 134.517 176.33 134.489 176.36 134.476C179.694 126.453 185.557 119.684 195.415 117.079C202.808 115.139 210.668 115.242 217.997 117.375C224.65 119.381 230.63 123.179 234.655 128.982C240.208 137 241.546 145.318 238.435 153.609C235.249 162.099 231.692 172.071 237.679 180.241C245.64 191.112 250.444 198.745 248.902 211.714" stroke="#191924" stroke-width="2.5" stroke-miterlimit="10"/>
<path d="M169.824 200.18C166.929 187.544 170.837 178.332 173.906 173.437" stroke="#191924" stroke-width="2.5" stroke-miterlimit="10"/>
<path d="M173.408 144.661C173.408 144.661 179.747 138.631 187.092 148.156" stroke="#191924" stroke-width="5.5" stroke-miterlimit="10"/>
<path d="M189.548 175.026C192.228 176.605 195.856 175.625 197.83 173.193C199.973 170.554 200.831 167.032 201.296 163.836C201.326 163.605 201.36 163.378 201.383 163.148C198.113 167.823 191.767 168.944 186.18 169.433C186.391 170.962 187.016 172.419 187.998 173.674C188.418 174.208 188.944 174.667 189.548 175.026Z" stroke="#191924" stroke-width="2.5" stroke-linecap="round" stroke-linejoin="round"/>
<path d="M218.659 196.073L218.643 196.058" stroke="#191924" stroke-width="5.5" stroke-miterlimit="10"/>
<path d="M193.721 142.807C193.721 142.807 195.875 139.632 203.239 141.971C210.602 144.311 210.689 148.132 210.689 148.132" stroke="#191924" stroke-width="5.5" stroke-miterlimit="10"/>
<path d="M176.982 150.702C176.982 150.702 180.384 149.137 183.049 150.702" stroke="#191924" stroke-width="5.5" stroke-miterlimit="10"/>
<path d="M195.316 152.143C195.316 152.143 198.718 150.578 201.364 152.143" stroke="#191924" stroke-width="5.5" stroke-miterlimit="10"/>
<path d="M186.733 186.234C186.733 186.234 185.455 193.293 184.132 199.684C183.939 200.592 183.754 201.487 183.588 202.371C182.722 206.674 182.03 210.499 182 211.659C181.781 221.291 191.786 226.846 201.452 226.753C215.015 226.619 222.945 215.137 221.667 203.637C220.832 201.538 219.978 199.44 219.142 197.341C218.069 194.651 216.674 192.034 216.069 189.199C215.535 186.406 215.477 183.556 215.895 180.747C216.44 176.55 217.336 170.293 221.229 167.486C224.476 165.16 227.867 163.633 229.719 159.997C231.042 157.403 230.981 154.063 228.411 152.15C225.561 150.052 221.051 150.306 217.642 150.613C195.65 152.659 191.991 132.401 186.041 129.556C181.165 127.214 177.506 132.47 176.36 134.42L176.315 134.503C176.313 134.523 176.304 134.541 176.288 134.555C176.081 134.899 175.979 135.129 175.979 135.129" stroke="#191924" stroke-width="2.5" stroke-miterlimit="10"/>
<path d="M186.169 153.034C186.169 153.034 183.871 159.88 184.049 160.905C184.227 161.93 186.907 161.215 186.907 161.215" stroke="#191924" stroke-width="2.5" stroke-miterlimit="10"/>
<path d="M204.178 160.259C207.699 157.06 207.635 151.807 204.034 148.525C200.434 145.243 194.661 145.175 191.141 148.373C187.62 151.572 187.684 156.825 191.284 160.108C194.885 163.39 200.657 163.457 204.178 160.259Z" stroke="#191924" stroke-width="2.5" stroke-miterlimit="10"/>
<path d="M181.202 157.717C184.722 154.518 184.658 149.265 181.058 145.983C177.458 142.701 171.685 142.633 168.164 145.831C164.643 149.03 164.708 154.283 168.308 157.566C171.908 160.848 177.681 160.915 181.202 157.717Z" stroke="#191924" stroke-width="2.5" stroke-miterlimit="10"/>
<path d="M174.481 145.401C175.485 145.397 176.478 145.584 177.397 145.951C178.317 146.317 179.141 146.855 179.818 147.53C180.494 148.204 181.008 149 181.326 149.867C181.644 150.733 181.759 151.65 181.663 152.56C181.504 154.088 180.722 155.508 179.472 156.539C178.221 157.57 176.592 158.138 174.905 158.132C173.901 158.136 172.908 157.949 171.988 157.582C171.069 157.216 170.245 156.678 169.568 156.003C168.891 155.329 168.378 154.533 168.06 153.666C167.742 152.8 167.627 151.883 167.723 150.974C167.882 149.445 168.664 148.025 169.914 146.994C171.165 145.963 172.794 145.395 174.481 145.401ZM174.481 144.451C172.537 144.447 170.66 145.104 169.221 146.293C167.781 147.483 166.881 149.119 166.698 150.881C166.503 152.825 167.147 154.763 168.494 156.283C169.841 157.803 171.785 158.787 173.914 159.027C174.24 159.062 174.569 159.08 174.897 159.082C176.844 159.089 178.723 158.433 180.165 157.243C181.607 156.054 182.508 154.416 182.691 152.652C182.886 150.708 182.242 148.77 180.895 147.25C179.549 145.73 177.605 144.746 175.475 144.506C175.149 144.471 174.821 144.453 174.493 144.451H174.481Z" fill="white"/>
<path d="M188.581 153.306L183.758 152.773" stroke="#191924" stroke-width="5.5" stroke-miterlimit="10"/>
<path d="M203.437 159.585C206.559 156.749 206.503 152.091 203.311 149.181C200.119 146.271 195.001 146.212 191.879 149.048C188.757 151.884 188.814 156.542 192.006 159.452C195.197 162.361 200.315 162.421 203.437 159.585Z" fill="#3FBDF1"/>
<path d="M180.463 157.045C183.586 154.207 183.53 149.547 180.337 146.636C177.143 143.725 172.023 143.666 168.899 146.503C165.776 149.341 165.833 154.001 169.026 156.912C172.219 159.823 177.34 159.882 180.463 157.045Z" fill="#3FBDF1"/>
<path d="M100.979 37.5053C90.0173 38.0144 80.9453 46.009 80.0722 55.9575C79.8116 58.7332 80.1893 61.528 81.1811 64.1636C82.173 66.7991 83.7572 69.2178 85.8329 71.2655C87.3634 72.7977 89.1492 74.1014 91.1249 75.1286C91.6404 75.3994 92.1275 75.7126 92.5802 76.0643C95.5385 77.4235 98.8052 78.1339 102.119 78.1387C105.433 78.1435 108.702 77.4425 111.665 76.0918C112.096 75.7277 112.575 75.4134 113.09 75.1561C115.147 74.0859 117.006 72.7277 118.598 71.1313C118.638 71.0794 118.683 71.0299 118.73 70.9834C121.618 68.0083 123.477 64.3235 124.073 60.3909C124.669 56.4583 123.976 52.4531 122.08 48.8777C120.185 45.3022 117.172 42.3156 113.419 40.2925C109.665 38.2694 105.339 37.2998 100.983 37.5053H100.979ZM114.701 69.0191C114.659 69.0479 114.624 69.0842 114.599 69.1258C113.365 70.3537 111.927 71.3983 110.339 72.2218C109.943 72.4191 109.577 72.6619 109.25 72.9442C106.965 73.9849 104.445 74.5268 101.89 74.5268C99.3353 74.5268 96.8155 73.9849 94.5307 72.9442C94.1767 72.6695 93.7973 72.4232 93.3967 72.208C90.3435 70.61 87.9084 68.1915 86.4253 65.2843C84.9422 62.377 84.4839 59.1233 85.1131 55.9696C85.7423 52.8159 87.4283 49.9166 89.9397 47.6693C92.4512 45.4221 95.6651 43.937 99.1407 43.4178C102.616 42.8986 106.183 43.3707 109.352 44.7693C112.521 46.168 115.137 48.4246 116.841 51.2298C118.546 54.0349 119.254 57.2512 118.87 60.4374C118.486 63.6236 117.029 66.6236 114.697 69.026L114.701 69.0191Z" fill="#3FBDF1"/>
<path d="M111.658 76.0954C110.788 76.814 110.094 77.6908 109.62 78.6692C109.146 79.6475 108.903 80.7056 108.906 81.7748V82.6967C108.906 85.9166 106.344 88.8027 102.858 89.1261C101.917 89.214 100.965 89.1214 100.065 88.8544C99.1647 88.5873 98.3359 88.1517 97.632 87.5756C96.928 86.9994 96.3644 86.2955 95.9775 85.5091C95.5906 84.7228 95.3888 83.8714 95.3853 83.0098V81.7748C95.3833 80.6996 95.1341 79.6367 94.6537 78.6544C94.1732 77.6721 93.4722 76.7922 92.5957 76.0713C95.5541 77.4265 98.8193 78.1344 102.131 78.1386C105.443 78.1428 108.711 77.4431 111.673 76.0954H111.658Z" fill="#353642"/>
<path d="M111.658 76.0954C110.788 76.814 110.094 77.6908 109.62 78.6692C109.146 79.6475 108.903 80.7056 108.906 81.7748V82.6967C108.906 85.9166 106.344 88.8027 102.858 89.1261C101.917 89.214 100.965 89.1214 100.065 88.8544C99.1647 88.5873 98.3359 88.1517 97.632 87.5756C96.928 86.9994 96.3644 86.2955 95.9775 85.5091C95.5906 84.7228 95.3888 83.8714 95.3853 83.0098V81.7748C95.3833 80.6996 95.1341 79.6367 94.6537 78.6544C94.1732 77.6721 93.4722 76.7922 92.5957 76.0713C95.5541 77.4265 98.8193 78.1344 102.131 78.1386C105.443 78.1428 108.711 77.4431 111.673 76.0954H111.658Z" stroke="#191924" stroke-width="2.5" stroke-miterlimit="10"/>
<path d="M124.279 57.6328C124.29 62.5549 122.313 67.309 118.722 70.9903C118.677 71.0348 118.636 71.0819 118.598 71.1313C117.003 72.7304 115.14 74.0899 113.079 75.1596C112.567 75.4202 112.09 75.7342 111.658 76.0952C108.695 77.443 105.428 78.1426 102.116 78.1385C98.8035 78.1343 95.5383 77.4264 92.5799 76.0712C92.1281 75.7139 91.6394 75.3971 91.1208 75.1252C87.4697 73.2151 84.4917 70.3985 82.5351 67.0047C80.5785 63.611 79.7241 59.7804 80.0719 55.9609C80.5322 50.7702 83.1831 45.9433 87.4686 42.4924C91.7541 39.0415 97.3414 37.2348 103.059 37.451C108.776 37.6672 114.179 39.8896 118.136 43.6522C122.092 47.4148 124.293 52.4252 124.279 57.6328V57.6328Z" stroke="#191924" stroke-width="2.5" stroke-miterlimit="10"/>
<path d="M95.8799 78.1386L90.8072 62.8375L89.5371 58.5031C89.537 58.3728 89.5842 58.2461 89.6714 58.1427C89.7585 58.0393 89.8807 57.965 90.019 57.9313C90.1573 57.8976 90.304 57.9063 90.4362 57.9562C90.5685 58.0061 90.679 58.0943 90.7505 58.2072C91.8845 60.0304 93.6762 62.318 95.4604 62.2595C98.4201 62.1632 95.9896 53.9863 93.5704 54.8429C91.1512 55.6995 95.7892 61.1037 100.567 61.7779C105.345 62.4522 104.037 55.1422 100.567 54.8532C97.0971 54.5643 99.4899 60.7219 105.727 61.7779C111.964 62.834 110.8 56.5835 109.11 55.3348C107.42 54.0861 107.946 61.2963 111.862 62.4522C113.102 62.8203 114.088 62.0325 114.572 61.0521C114.852 60.4811 114.708 57.5915 114.134 58.4824C112.962 60.3091 112.731 62.5898 112.157 64.6056C110.936 68.8712 109.068 72.9545 107.999 77.2579" stroke="#191924" stroke-width="2.5" stroke-miterlimit="10"/>
<path d="M62.541 327.786C65.2173 326.644 312.021 327.786 312.021 327.786" stroke="#191924" stroke-width="2.5" stroke-miterlimit="10"/>
<path d="M102.12 30.3054L101.9 18.1863" stroke="#191924" stroke-width="4.34" stroke-miterlimit="10"/>
<path d="M76.7233 41.5782L67.5039 32.8303" stroke="#191924" stroke-width="4.34" stroke-miterlimit="10"/>
<path d="M127.613 42.1218L137.037 33.5562" stroke="#191924" stroke-width="4.34" stroke-miterlimit="10"/>
<path d="M268.887 311.254L269.208 311.281C269.035 311.309 268.83 311.336 268.653 311.374H268.381L242.786 311.254H239.895L196.893 311.054C196.731 311.054 196.568 311.054 196.406 311.054C196.367 311.061 196.327 311.061 196.289 311.054C196.289 311.054 196.289 311.054 196.262 311.054C195.991 311.056 195.721 311.039 195.453 311.002C197.753 310.766 199.932 309.942 201.739 308.625C202.023 308.409 202.314 308.202 202.578 307.968L202.609 307.941C202.67 307.895 202.728 307.846 202.783 307.793C204.968 305.826 206.277 303.193 206.457 300.4C206.457 300.266 206.457 300.118 206.457 299.984V299.771C206.444 297.164 205.445 294.64 203.628 292.624C201.812 290.609 199.288 289.223 196.481 288.701C196.477 288.698 196.472 288.696 196.466 288.696C196.461 288.696 196.455 288.698 196.451 288.701C196.171 288.636 195.85 288.594 195.555 288.553L196.186 288.515C196.29 288.508 196.393 288.508 196.496 288.515C196.67 288.515 196.833 288.515 196.995 288.515L233.325 288.687L240.012 288.715L245.946 288.742H248.71H249.046C249.091 288.742 249.118 288.742 249.163 288.742C252.227 289.023 255.068 290.328 257.136 292.405C259.204 294.481 260.353 297.182 260.36 299.984C260.359 300.517 260.315 301.05 260.227 301.577C259.799 304.196 258.376 306.595 256.205 308.359C254.035 310.122 251.254 311.138 248.347 311.23C248.214 311.23 248.082 311.23 247.969 311.23H269.552C269.239 311.24 269.035 311.24 268.887 311.254Z" fill="white"/>
<path d="M211.086 324.924C211.902 325.671 212.873 326.264 213.942 326.668C215.011 327.071 216.158 327.279 217.315 327.277H196.23C192.193 327.277 190.001 326.383 188.402 324.924C186.75 323.42 185.82 321.382 185.816 319.255C185.816 314.859 189.782 311.247 196.23 311.247H217.315C215.573 311.244 213.869 311.713 212.419 312.592C210.969 313.472 209.839 314.724 209.172 316.189C208.505 317.654 208.33 319.266 208.671 320.821C209.012 322.376 209.852 323.804 211.086 324.924Z" fill="#D7E8F0"/>
<path d="M268.974 311.279C268.99 311.275 269.008 311.276 269.023 311.281C269.007 311.281 268.991 311.28 268.974 311.279C268.917 311.275 268.86 311.267 268.804 311.254H248.347C251.007 311.124 253.55 310.218 255.601 308.67C255.91 308.44 256.205 308.196 256.485 307.937C256.719 307.73 256.94 307.511 257.147 307.28C257.304 307.121 257.451 306.952 257.585 306.775C257.672 306.678 257.748 306.586 257.819 306.493C257.959 306.322 258.086 306.143 258.197 305.956C258.369 305.738 258.522 305.508 258.655 305.268C258.796 305.039 258.922 304.802 259.033 304.559C259.09 304.453 259.135 304.332 259.21 304.215C259.313 303.975 259.399 303.734 259.486 303.493L259.486 303.493C259.607 303.149 259.725 302.784 259.811 302.427C259.864 302.233 259.903 302.036 259.929 301.838C259.946 301.79 259.956 301.741 259.959 301.69C259.976 301.652 259.986 301.611 259.989 301.57C259.989 301.436 260.031 301.315 260.046 301.181V301.102C260.101 300.729 260.126 300.353 260.121 299.977C260.126 299.804 260.116 299.63 260.091 299.458V299.337C260.091 299.167 260.076 298.997 260.046 298.828C259.946 297.9 259.713 296.988 259.354 296.114C259.155 295.59 258.902 295.084 258.598 294.604C258.321 294.12 257.997 293.66 257.63 293.228C257.535 293.102 257.432 292.981 257.32 292.867C257.275 292.826 257.234 292.77 257.173 292.719C256.977 292.485 256.761 292.265 256.527 292.062C256.353 291.904 256.149 291.742 255.971 291.57C255.793 291.398 255.499 291.195 255.249 291.033C255 290.872 254.837 290.755 254.618 290.62C254.292 290.405 253.948 290.213 253.59 290.046C253.256 289.869 252.907 289.716 252.546 289.588C252.129 289.426 251.703 289.283 251.269 289.162C251.121 289.112 250.967 289.076 250.811 289.055C250.407 288.95 249.995 288.87 249.579 288.814C249.371 288.773 249.167 288.759 248.948 288.735H248.918C248.889 288.742 248.859 288.742 248.831 288.735H248.918H248.948C249.167 288.759 249.371 288.773 249.579 288.814C249.995 288.87 250.407 288.95 250.811 289.055C250.967 289.076 251.121 289.112 251.269 289.162C251.703 289.283 252.129 289.426 252.546 289.588C252.907 289.716 253.256 289.869 253.59 290.046C253.948 290.213 254.292 290.405 254.618 290.62C254.837 290.755 255 290.872 255.249 291.033C255.499 291.195 255.793 291.398 255.971 291.57C256.149 291.742 256.353 291.904 256.527 292.062C256.761 292.265 256.977 292.485 257.173 292.719C257.234 292.77 257.275 292.826 257.32 292.867C257.432 292.981 257.535 293.102 257.63 293.228C257.997 293.66 258.321 294.12 258.598 294.604C258.902 295.084 259.155 295.59 259.354 296.114C259.713 296.988 259.946 297.9 260.046 298.828C260.076 298.997 260.091 299.167 260.091 299.337V299.458C260.116 299.63 260.126 299.804 260.121 299.977C260.126 300.353 260.101 300.729 260.046 301.102V301.181C260.031 301.315 259.989 301.436 259.989 301.57C259.986 301.611 259.976 301.652 259.959 301.69C259.956 301.741 259.946 301.79 259.929 301.838C259.903 302.036 259.864 302.233 259.811 302.427C259.725 302.784 259.607 303.149 259.486 303.493L259.486 303.493C259.399 303.734 259.313 303.975 259.21 304.215C259.135 304.332 259.09 304.453 259.033 304.559C258.922 304.802 258.796 305.039 258.655 305.268C258.522 305.508 258.369 305.738 258.197 305.956C258.086 306.143 257.959 306.322 257.819 306.493C257.748 306.586 257.672 306.678 257.585 306.775C257.451 306.952 257.304 307.121 257.147 307.28C256.94 307.511 256.719 307.73 256.485 307.937C256.205 308.196 255.91 308.44 255.601 308.67C253.55 310.218 251.007 311.124 248.347 311.254H268.804C268.853 311.247 268.903 311.247 268.952 311.254H268.804C268.86 311.267 268.917 311.275 268.974 311.279Z" fill="#3FBDF1"/>
<path d="M280.785 300.146C280.785 300.359 280.785 300.586 280.755 300.799C280.725 301.161 280.683 301.508 280.623 301.856C280.593 302.041 280.551 302.23 280.506 302.416C280.419 302.76 280.317 303.139 280.199 303.486C280.067 303.869 279.909 304.245 279.727 304.611C279.668 304.755 279.595 304.893 279.508 305.024C279.508 305.065 279.477 305.093 279.447 305.13C279.36 305.306 279.258 305.474 279.156 305.64C278.994 305.908 278.816 306.173 278.627 306.427C278.404 306.737 278.154 307.016 277.905 307.298C277.651 307.578 277.381 307.845 277.096 308.099C276.797 308.376 276.479 308.636 276.144 308.877L275.766 309.155C275.336 309.451 274.883 309.719 274.412 309.957C274.193 310.063 273.959 310.173 273.724 310.28C273.702 310.295 273.676 310.303 273.649 310.304C273.384 310.425 273.12 310.521 272.855 310.614C272.59 310.707 272.326 310.8 272.05 310.879C271.77 310.947 271.49 311.027 271.211 311.082L270.98 311.119C270.761 311.164 270.542 311.202 270.319 311.233C269.923 311.295 269.524 311.337 269.124 311.36C268.88 311.383 268.636 311.393 268.391 311.388C268.391 311.388 268.345 311.388 268.33 311.388L242.777 311.274L236.756 311.247L196.62 311.061C196.472 311.059 196.324 311.049 196.178 311.033C195.841 311.033 195.516 311.006 195.18 310.982C198.087 310.666 200.781 309.432 202.792 307.495C204.803 305.558 206.003 303.04 206.183 300.38C206.183 300.246 206.183 300.098 206.183 299.95V299.805C206.187 297.184 205.194 294.643 203.373 292.613C201.552 290.583 199.015 289.188 196.193 288.667C195.898 288.612 195.603 288.574 195.297 288.532C195.589 288.502 195.883 288.484 196.178 288.481C196.281 288.474 196.384 288.474 196.488 288.481H196.737L236.873 288.667L245.945 288.708H248.912H249.162L268.44 288.801C269.073 288.803 269.704 288.848 270.33 288.935V288.935C271.927 289.173 273.458 289.691 274.839 290.459C275.017 290.552 275.176 290.658 275.338 290.751C275.828 291.056 276.294 291.392 276.733 291.756C276.881 291.876 277.013 291.996 277.16 292.131C278.28 293.164 279.178 294.378 279.806 295.712L280.029 296.235C280.104 296.404 280.167 296.578 280.218 296.754C280.595 297.852 280.786 298.996 280.785 300.146V300.146Z" stroke="#191924" stroke-width="2.5" stroke-linecap="square" stroke-linejoin="round"/>
<path d="M260.103 299.943C260.105 300.319 260.085 300.694 260.042 301.068C260.042 301.095 260.042 301.12 260.042 301.147C260.012 301.323 259.985 301.491 259.955 301.656C259.952 301.706 259.942 301.756 259.925 301.804C259.9 302.002 259.861 302.199 259.808 302.392C259.721 302.736 259.604 303.111 259.483 303.459C259.396 303.7 259.309 303.94 259.207 304.181C259.131 304.302 259.086 304.422 259.029 304.525C258.918 304.768 258.792 305.004 258.651 305.234C258.518 305.474 258.366 305.704 258.194 305.922C258.082 306.109 257.956 306.288 257.816 306.458C257.744 306.551 257.668 306.644 257.581 306.741C257.447 306.917 257.301 307.086 257.143 307.246C256.936 307.477 256.715 307.696 256.481 307.903C256.2 308.156 255.905 308.396 255.597 308.622C253.551 310.178 251.009 311.093 248.347 311.23C248.214 311.23 248.082 311.23 247.969 311.23H196.678C196.209 311.23 195.725 311.206 195.238 311.164C195.554 311.13 195.868 311.081 196.179 311.016C196.203 311.024 196.23 311.024 196.255 311.016C196.255 311.016 196.281 311.016 196.281 311.016C198.664 310.564 200.85 309.488 202.571 307.92L202.601 307.893C204.789 305.881 206.068 303.195 206.185 300.366C206.185 300.232 206.185 300.084 206.185 299.936V299.922C206.161 297.165 205.036 294.51 203.018 292.453C201.001 290.395 198.23 289.077 195.223 288.742C195.548 288.705 195.869 288.691 196.194 288.677C196.277 288.663 196.361 288.663 196.444 288.677C196.448 288.674 196.453 288.672 196.459 288.672C196.464 288.672 196.47 288.674 196.474 288.677C196.537 288.67 196.6 288.67 196.663 288.677H247.685C248.041 288.677 248.377 288.677 248.717 288.718H248.834C248.863 288.725 248.893 288.725 248.921 288.718H248.982L249.583 288.797C249.999 288.853 250.411 288.933 250.815 289.038C250.963 289.066 251.125 289.104 251.272 289.145C251.706 289.266 252.133 289.409 252.55 289.571C252.902 289.706 253.257 289.867 253.593 290.029C253.949 290.201 254.292 290.393 254.622 290.603C254.841 290.738 255.049 290.868 255.253 291.016C255.457 291.164 255.737 291.36 255.975 291.553C256.213 291.746 256.353 291.897 256.53 292.045C256.753 292.262 256.973 292.475 257.177 292.702C257.237 292.753 257.279 292.809 257.324 292.85L257.634 293.211C257.988 293.651 258.311 294.11 258.602 294.587C258.887 295.076 259.14 295.58 259.358 296.097C259.705 296.974 259.937 297.885 260.05 298.811C260.05 298.987 260.08 299.155 260.095 299.32V299.441C260.103 299.596 260.103 299.771 260.103 299.943Z" stroke="#191924" stroke-width="2.5" stroke-linecap="square" stroke-linejoin="round"/>
<path d="M269.532 327.27H196.223C194.589 327.31 192.959 327.099 191.403 326.644C191.093 326.538 190.802 326.431 190.522 326.3C190.243 326.166 189.993 326.032 189.744 325.898C189.494 325.764 189.275 325.592 189.052 325.43C188.833 325.255 188.629 325.086 188.436 324.907C187.43 323.992 186.684 322.868 186.262 321.632C185.995 320.862 185.861 320.059 185.865 319.252C185.863 318.939 185.883 318.626 185.926 318.316C185.982 317.88 186.084 317.451 186.232 317.033C186.437 316.373 186.754 315.746 187.173 315.175C187.413 314.803 187.698 314.457 188.024 314.143C188.224 313.941 188.436 313.748 188.659 313.565C190.451 312.11 193.051 311.212 196.268 311.212H269.532C269.237 311.212 269.033 311.212 268.886 311.212C268.837 311.206 268.787 311.206 268.738 311.212C268.591 311.212 268.621 311.212 268.693 311.212C268.697 311.216 268.702 311.218 268.708 311.218C268.714 311.218 268.719 311.216 268.723 311.212C268.757 311.219 268.791 311.219 268.825 311.212C268.855 311.212 268.871 311.212 268.901 311.212C268.738 311.24 268.576 311.254 268.413 311.292H268.379C268.379 311.292 268.334 311.292 268.319 311.292C266.315 311.654 264.511 312.637 263.212 314.072C261.914 315.507 261.2 317.307 261.193 319.166C261.205 321.126 262 323.016 263.43 324.483C264.86 325.949 266.827 326.892 268.965 327.136C268.606 327.26 268.269 327.27 269.532 327.27Z" stroke="#191924" stroke-width="5.5" stroke-linecap="square" stroke-linejoin="round"/>
<path d="M268.944 327.233C268.608 327.26 268.271 327.27 267.931 327.27H217.306C216.15 327.27 215.007 327.062 213.941 326.658C212.874 326.254 211.906 325.663 211.091 324.917V324.917C210.085 324.003 209.339 322.879 208.918 321.643C208.657 320.872 208.529 320.069 208.54 319.262C208.544 317.138 209.472 315.102 211.121 313.598C212.77 312.095 215.005 311.247 217.34 311.24H267.931C268.181 311.24 268.445 311.24 268.687 311.267C268.731 311.274 268.776 311.274 268.819 311.267C268.85 311.267 268.865 311.267 268.895 311.267C268.732 311.295 268.57 311.309 268.407 311.347H268.381C268.381 311.347 268.336 311.347 268.32 311.347C266.317 311.709 264.513 312.692 263.214 314.127C261.915 315.562 261.202 317.362 261.195 319.221C261.207 321.181 262.002 323.071 263.432 324.538C264.862 326.004 266.829 326.947 268.967 327.191L268.944 327.233Z" stroke="#191924" stroke-width="2.5" stroke-linecap="square" stroke-linejoin="round"/>
<path d="M208.504 319.262C208.504 321.386 209.431 323.423 211.082 324.925C212.732 326.427 214.97 327.27 217.304 327.27H196.223C192.197 327.27 189.993 326.376 188.391 324.917C187.574 324.175 186.926 323.294 186.485 322.323C186.044 321.353 185.818 320.312 185.82 319.262C185.82 314.852 189.774 311.24 196.223 311.24H217.304C214.97 311.247 212.734 312.095 211.085 313.598C209.436 315.102 208.508 317.138 208.504 319.262V319.262Z" stroke="#191924" stroke-width="2.5" stroke-linecap="square" stroke-linejoin="round"/>
<path d="M269.532 327.27H267.93C268.27 327.27 268.606 327.27 268.943 327.232C268.606 327.26 268.27 327.27 269.532 327.27Z" stroke="#191924" stroke-width="5.5" stroke-linecap="square" stroke-linejoin="round"/>
<path d="M268.826 311.274C268.534 311.274 268.225 311.233 267.93 311.233H269.532C268.414 311.24 268.546 311.274 268.826 311.274Z" stroke="#191924" stroke-width="5.5" stroke-linecap="square" stroke-linejoin="round"/>
<path opacity="0.54" d="M49.1408 297.095L22.9001 235.918C22.575 234.734 22.5505 233.499 22.8286 232.305C23.1067 231.112 23.68 229.992 24.505 229.03C25.33 228.068 26.3849 227.29 27.5897 226.755C28.7944 226.22 30.1174 225.942 31.458 225.942H135.703C138.043 225.941 140.315 226.658 142.154 227.976C143.992 229.294 145.289 231.136 145.837 233.207L174.565 294.377C174.876 295.557 174.89 296.787 174.604 297.973C174.318 299.158 173.74 300.27 172.914 301.223C172.088 302.176 171.036 302.947 169.835 303.476C168.635 304.006 167.318 304.281 165.984 304.281H59.2448C56.921 304.281 54.6641 303.573 52.8332 302.271C51.0023 300.969 49.7026 299.147 49.1408 297.095Z" fill="white"/>
<path d="M49.1408 297.095L22.9001 235.918C22.575 234.734 22.5505 233.499 22.8286 232.305C23.1067 231.112 23.68 229.992 24.505 229.03C25.33 228.068 26.3849 227.29 27.5897 226.755C28.7944 226.22 30.1174 225.942 31.458 225.942H135.703C138.043 225.941 140.315 226.658 142.154 227.976C143.992 229.294 145.289 231.136 145.837 233.207L174.565 294.377C174.876 295.557 174.89 296.787 174.604 297.973C174.318 299.158 173.74 300.27 172.914 301.223C172.088 302.176 171.036 302.947 169.835 303.476C168.635 304.006 167.318 304.281 165.984 304.281H59.2448C56.921 304.281 54.6641 303.573 52.8332 302.271C51.0023 300.969 49.7026 299.147 49.1408 297.095Z" fill="#3FBDF1"/>
<path d="M49.1408 297.095L22.9001 235.918C22.575 234.734 22.5505 233.499 22.8286 232.305C23.1067 231.112 23.68 229.992 24.505 229.03C25.33 228.068 26.3849 227.29 27.5897 226.755C28.7944 226.22 30.1174 225.942 31.458 225.942H135.703C138.043 225.941 140.315 226.658 142.154 227.976C143.992 229.294 145.289 231.136 145.837 233.207L174.565 294.377C174.876 295.557 174.89 296.787 174.604 297.973C174.318 299.158 173.74 300.27 172.914 301.223C172.088 302.176 171.036 302.947 169.835 303.476C168.635 304.006 167.318 304.281 165.984 304.281H59.2448C56.921 304.281 54.6641 303.573 52.8332 302.271C51.0023 300.969 49.7026 299.147 49.1408 297.095Z" stroke="#191924" stroke-width="2.5" stroke-linecap="square" stroke-linejoin="round"/>
<path d="M52.9729 294.618L28.7809 238.178C28.4806 237.087 28.4574 235.947 28.7132 234.847C28.9689 233.746 29.4968 232.713 30.2569 231.825C31.0169 230.938 31.9891 230.22 33.0996 229.726C34.2101 229.231 35.4297 228.974 36.666 228.972H132.822C134.981 228.973 137.077 229.634 138.772 230.85C140.468 232.067 141.665 233.767 142.17 235.677L168.671 292.093C168.959 293.182 168.971 294.316 168.707 295.41C168.444 296.505 167.911 297.53 167.149 298.41C166.387 299.29 165.416 300.001 164.309 300.49C163.201 300.979 161.987 301.233 160.756 301.233H62.3019C60.1594 301.234 58.0779 300.583 56.3879 299.385C54.6978 298.187 53.4959 296.509 52.9729 294.618Z" fill="#3FBDF1"/>
<path d="M125.874 239.351C124.6 237.607 122.517 236.833 121.217 237.631C119.917 238.429 119.898 240.469 121.172 242.213C121.372 242.479 121.597 242.728 121.844 242.959L112.394 261.112C110.882 260.197 109.231 259.97 108.044 260.693C107.66 260.946 107.343 261.273 107.114 261.651C106.885 262.028 106.749 262.447 106.717 262.877L100.261 260.892L94.6171 259.172L92.7725 258.622C92.5413 257.991 92.2197 257.391 91.8161 256.836C90.0244 254.387 87.0987 253.3 85.273 254.404C83.4472 255.509 83.4283 258.333 85.1709 260.765L74.4319 274.122C72.0883 272.371 69.3252 271.831 67.4125 272.987C64.8118 274.566 64.7665 278.677 67.3255 282.172C67.4276 282.31 67.5448 282.427 67.6506 282.557L60.48 291.474L60.4157 291.56C60.2136 291.808 60.0692 292.09 59.991 292.391C59.9129 292.691 59.9028 293.003 59.9613 293.307C60.0198 293.611 60.1456 293.901 60.3312 294.159C60.5168 294.417 60.7583 294.638 61.0408 294.809C61.3234 294.98 61.6412 295.096 61.9748 295.152C62.3084 295.207 62.651 295.2 62.9815 295.131C63.312 295.062 63.6236 294.932 63.8974 294.75C64.1711 294.568 64.4012 294.337 64.5737 294.071L70.9506 285.337C72.9615 286.4 75.1086 286.603 76.6697 285.653C79.1569 284.147 79.2741 280.335 77.0477 276.95L87.3482 262.801C88.8602 263.741 90.5461 263.981 91.7481 263.255C92.4203 262.824 92.8781 262.169 93.022 261.432L93.778 261.628L99.5198 263.056L106.868 264.859C107.091 265.659 107.462 266.42 107.964 267.108C109.752 269.554 112.682 270.645 114.507 269.54C116.333 268.436 116.356 265.557 114.568 263.111C114.304 262.756 114.008 262.421 113.683 262.11L122.676 243.606C123.761 244.294 124.944 244.449 125.817 243.93C127.136 243.162 127.155 241.098 125.874 239.351Z" fill="white"/>
<path d="M57.4569 240.352H43.5276C42.8869 240.354 42.2594 240.186 41.7222 239.868C41.1849 239.551 40.7614 239.097 40.5036 238.563C40.4242 238.399 40.3818 238.223 40.3789 238.044C40.3829 237.698 40.5362 237.368 40.8058 237.125C41.0753 236.881 41.4394 236.744 41.8191 236.743H56.6329C55.9449 237.813 56.3229 239.299 57.4569 240.352Z" fill="#D7E8F0"/>
<path d="M66.4745 239.051C66.4725 239.396 66.3208 239.727 66.0525 239.97C65.7842 240.214 65.4209 240.351 65.0419 240.352H57.4555C56.2988 239.299 55.9435 237.813 56.6428 236.743H63.3334C63.9728 236.74 64.5995 236.906 65.1366 237.222C65.6737 237.538 66.0979 237.99 66.3574 238.522C66.4355 238.689 66.4754 238.869 66.4745 239.051Z" fill="#3FBDF1"/>
<path d="M62.9896 240.352C62.9489 240.421 62.9035 240.487 62.8535 240.551C61.8556 241.786 59.701 241.903 58.0265 240.789C57.826 240.657 57.6376 240.511 57.4633 240.352C56.3066 239.299 55.9513 237.813 56.6506 236.743C56.6885 236.673 56.734 236.606 56.7866 236.544C57.7732 235.302 59.9278 235.195 61.6024 236.299C61.8059 236.433 61.9968 236.581 62.1731 236.743C63.3223 237.799 63.6776 239.272 62.9896 240.352Z" fill="white"/>
<path d="M69.9795 247.012C69.9765 247.357 69.8235 247.688 69.5537 247.932C69.2839 248.175 68.9193 248.312 68.5393 248.312H53.9145C54.6214 247.232 54.2698 245.759 53.1094 244.703H66.8459C67.4866 244.701 68.1142 244.869 68.6514 245.187C69.1886 245.505 69.6121 245.958 69.8699 246.492C69.9441 246.657 69.9814 246.834 69.9795 247.012Z" fill="#3FBDF1"/>
<path d="M53.9151 248.322H47.0355C46.396 248.326 45.7694 248.159 45.2323 247.843C44.6952 247.527 44.2709 247.076 44.0115 246.544C43.9322 246.378 43.8898 246.199 43.8867 246.018C43.8857 245.846 43.922 245.677 43.9934 245.518C44.0648 245.36 44.17 245.216 44.3028 245.095C44.4356 244.974 44.5935 244.878 44.7673 244.812C44.9411 244.747 45.1275 244.713 45.3156 244.714H53.1099C54.2704 245.76 54.6219 247.232 53.9151 248.322Z" fill="#D7E8F0"/>
<path d="M53.9139 248.322C53.8825 248.394 53.8406 248.461 53.7892 248.522C52.8026 249.767 50.6442 249.874 48.9697 248.77C48.7625 248.634 48.5667 248.484 48.3838 248.322C47.2498 247.27 46.8718 245.794 47.5711 244.714C47.6082 244.644 47.6538 244.578 47.7071 244.518C48.7013 243.279 50.8559 243.166 52.5342 244.277C52.7326 244.409 52.9196 244.555 53.0937 244.714C54.2692 245.76 54.6208 247.232 53.9139 248.322Z" fill="white"/>
<path d="M58.786 256.234H50.0316C49.392 256.236 48.7657 256.068 48.2288 255.752C47.6919 255.436 47.2676 254.984 47.0076 254.452C46.9281 254.289 46.8857 254.112 46.8828 253.933C46.8838 253.586 47.0359 253.253 47.3057 253.007C47.5756 252.762 47.9413 252.623 48.323 252.622H57.9544C57.2816 253.685 57.6369 255.161 58.786 256.234Z" fill="#3FBDF1"/>
<path d="M72.9773 254.924C72.9753 255.268 72.8234 255.598 72.5548 255.84C72.2863 256.082 71.923 256.218 71.5447 256.217H58.7872C57.6532 255.161 57.2752 253.685 57.9707 252.605H69.8437C70.4815 252.605 71.1056 252.774 71.6394 253.092C72.1732 253.409 72.5935 253.862 72.8488 254.394C72.9308 254.561 72.9746 254.741 72.9773 254.924Z" fill="#D7E8F0"/>
<path d="M64.3098 256.234C64.2727 256.304 64.227 256.37 64.1737 256.431C63.1871 257.676 61.0325 257.782 59.358 256.678C59.157 256.542 58.9663 256.394 58.7872 256.234C57.6532 255.178 57.2752 253.703 57.9707 252.622C58.0106 252.554 58.0561 252.489 58.1068 252.426C59.1047 251.191 61.2593 251.081 62.9339 252.186C63.1326 252.319 63.3208 252.465 63.4971 252.622C64.6386 253.661 65.0166 255.144 64.3098 256.234Z" fill="white"/>
<path d="M115.391 293.503H106.633C105.993 293.505 105.367 293.337 104.83 293.021C104.293 292.705 103.869 292.253 103.609 291.721C103.527 291.558 103.483 291.381 103.48 291.202C103.481 290.855 103.634 290.522 103.903 290.276C104.173 290.031 104.539 289.892 104.921 289.891H114.556C113.887 290.978 114.242 292.447 115.391 293.503Z" fill="#3FBDF1"/>
<path d="M150.15 292.21C150.149 292.38 150.112 292.549 150.04 292.706C149.968 292.863 149.862 293.006 149.73 293.126C149.597 293.246 149.44 293.341 149.267 293.406C149.093 293.471 148.908 293.504 148.721 293.503H115.393C114.259 292.447 113.881 290.972 114.576 289.891H147.016C147.654 289.891 148.278 290.06 148.812 290.378C149.346 290.696 149.766 291.148 150.021 291.68C150.103 291.847 150.147 292.027 150.15 292.21Z" fill="#D7E8F0"/>
<path d="M120.915 293.503C120.878 293.573 120.832 293.639 120.779 293.699C119.793 294.945 117.638 295.051 115.963 293.947C115.762 293.812 115.571 293.663 115.393 293.503C114.259 292.447 113.881 290.971 114.576 289.891C114.616 289.823 114.662 289.757 114.712 289.695C115.71 288.46 117.865 288.35 119.539 289.454C119.738 289.588 119.926 289.734 120.103 289.891C121.259 290.947 121.615 292.43 120.915 293.503Z" fill="white"/>
</svg>
