<svg width="40" height="40" viewBox="0 0 40 40" fill="none" xmlns="http://www.w3.org/2000/svg">
<rect width="40" height="40" rx="8" fill="#0065FF"/>
<path d="M31.4 18.2H29V15.8C29 15.47 28.73 15.2 28.4 15.2H27.2C26.87 15.2 26.6 15.47 26.6 15.8V18.2H24.2C23.87 18.2 23.6 18.47 23.6 18.8V20C23.6 20.33 23.87 20.6 24.2 20.6H26.6V23C26.6 23.33 26.87 23.6 27.2 23.6H28.4C28.73 23.6 29 23.33 29 23V20.6H31.4C31.73 20.6 32 20.33 32 20V18.8C32 18.47 31.73 18.2 31.4 18.2ZM16.4 20C19.0513 20 21.2 17.8513 21.2 15.2C21.2 12.5488 19.0513 10.4 16.4 10.4C13.7488 10.4 11.6 12.5488 11.6 15.2C11.6 17.8513 13.7488 20 16.4 20ZM19.76 21.2H19.1337C18.3013 21.5825 17.375 21.8 16.4 21.8C15.425 21.8 14.5025 21.5825 13.6663 21.2H13.04C10.2575 21.2 8 23.4575 8 26.24V27.8C8 28.7938 8.80625 29.6 9.8 29.6H23C23.9938 29.6 24.8 28.7938 24.8 27.8V26.24C24.8 23.4575 22.5425 21.2 19.76 21.2Z" fill="white"/>
</svg>
