<svg width="733" height="347" viewBox="0 0 733 347" fill="none" xmlns="http://www.w3.org/2000/svg">
<path d="M1.62647 6.132L4.66247 0.672H5.93447L2.83847 6.132H1.62647ZM1.62647 6.828V6.132L2.10647 5.82H8.01047V6.828H1.62647ZM5.69447 9V3.492H6.81047V9H5.69447ZM11.7023 9.12C11.1503 9.12 10.6623 9.016 10.2383 8.808C9.82234 8.6 9.49834 8.312 9.26634 7.944C9.03434 7.576 8.91834 7.16 8.91834 6.696C8.91834 6.32 8.99034 5.976 9.13434 5.664C9.27834 5.352 9.49034 5.088 9.77034 4.872C10.0503 4.648 10.3783 4.488 10.7543 4.392L10.7903 4.716C10.4703 4.628 10.1983 4.488 9.97434 4.296C9.75034 4.096 9.57834 3.864 9.45834 3.6C9.34634 3.328 9.29034 3.04 9.29034 2.736C9.29034 2.304 9.39434 1.924 9.60234 1.596C9.81034 1.268 10.0943 1.012 10.4543 0.827999C10.8223 0.635999 11.2383 0.539999 11.7023 0.539999C12.1743 0.539999 12.5903 0.635999 12.9503 0.827999C13.3103 1.012 13.5943 1.268 13.8023 1.596C14.0103 1.924 14.1143 2.304 14.1143 2.736C14.1143 3.04 14.0543 3.328 13.9343 3.6C13.8223 3.864 13.6543 4.096 13.4303 4.296C13.2143 4.488 12.9463 4.628 12.6263 4.716L12.6503 4.392C13.0343 4.488 13.3623 4.648 13.6343 4.872C13.9143 5.088 14.1263 5.352 14.2703 5.664C14.4223 5.976 14.4983 6.32 14.4983 6.696C14.4983 7.16 14.3823 7.576 14.1503 7.944C13.9183 8.312 13.5903 8.6 13.1663 8.808C12.7503 9.016 12.2623 9.12 11.7023 9.12ZM11.7023 8.1C12.0383 8.1 12.3303 8.036 12.5783 7.908C12.8343 7.772 13.0343 7.588 13.1783 7.356C13.3303 7.124 13.4063 6.856 13.4063 6.552C13.4063 6.256 13.3303 5.992 13.1783 5.76C13.0343 5.528 12.8343 5.348 12.5783 5.22C12.3303 5.084 12.0383 5.016 11.7023 5.016C11.3743 5.016 11.0823 5.084 10.8263 5.22C10.5703 5.348 10.3663 5.528 10.2143 5.76C10.0703 5.992 9.99834 6.256 9.99834 6.552C9.99834 6.856 10.0703 7.124 10.2143 7.356C10.3663 7.588 10.5703 7.772 10.8263 7.908C11.0823 8.036 11.3743 8.1 11.7023 8.1ZM11.7023 4.14C12.1023 4.14 12.4303 4.016 12.6863 3.768C12.9423 3.52 13.0703 3.2 13.0703 2.808C13.0703 2.424 12.9423 2.112 12.6863 1.872C12.4303 1.624 12.1023 1.5 11.7023 1.5C11.3103 1.5 10.9863 1.624 10.7303 1.872C10.4743 2.112 10.3463 2.424 10.3463 2.808C10.3463 3.2 10.4743 3.52 10.7303 3.768C10.9863 4.016 11.3103 4.14 11.7023 4.14Z" fill="#6F6F9A"/>
<rect x="20" y="6" width="3" height="1" fill="#F0F0F4"/>
<path d="M23 6.5H723" stroke="#F0F0F4" stroke-dasharray="2 2"/>
<path d="M0.349125 59.2986L3.38513 53.8386H4.65713L1.56113 59.2986H0.349125ZM0.349125 59.9946V59.2986L0.829125 58.9866H6.73312V59.9946H0.349125ZM4.41713 62.1666V56.6586H5.53313V62.1666H4.41713ZM11.085 62.2866C10.461 62.2866 9.889 62.1106 9.369 61.7586C8.857 61.4066 8.449 60.9106 8.145 60.2706C7.841 59.6226 7.689 58.8626 7.689 57.9906C7.689 57.1186 7.837 56.3626 8.133 55.7226C8.437 55.0826 8.845 54.5906 9.357 54.2466C9.869 53.8946 10.433 53.7186 11.049 53.7186C11.681 53.7186 12.253 53.8946 12.765 54.2466C13.277 54.5906 13.681 55.0826 13.977 55.7226C14.281 56.3626 14.433 57.1226 14.433 58.0026C14.433 58.8746 14.281 59.6346 13.977 60.2826C13.681 60.9226 13.277 61.4186 12.765 61.7706C12.261 62.1146 11.701 62.2866 11.085 62.2866ZM11.061 61.2186C11.501 61.2186 11.885 61.0986 12.213 60.8586C12.549 60.6106 12.813 60.2466 13.005 59.7666C13.197 59.2866 13.293 58.6946 13.293 57.9906C13.293 57.2866 13.197 56.6986 13.005 56.2266C12.813 55.7466 12.549 55.3866 12.213 55.1466C11.877 54.8986 11.489 54.7746 11.049 54.7746C10.617 54.7746 10.233 54.8986 9.897 55.1466C9.561 55.3866 9.297 55.7466 9.105 56.2266C8.921 56.6986 8.829 57.2866 8.829 57.9906C8.829 58.6946 8.921 59.2866 9.105 59.7666C9.297 60.2466 9.561 60.6106 9.897 60.8586C10.233 61.0986 10.621 61.2186 11.061 61.2186Z" fill="#6F6F9A"/>
<rect x="20" y="59.1666" width="3" height="1" fill="#F0F0F4"/>
<path d="M23 59.6666H723" stroke="#F0F0F4" stroke-dasharray="2 2"/>
<path d="M5.01478 115.453C4.47078 115.453 3.97478 115.353 3.52678 115.153C3.08678 114.945 2.71478 114.645 2.41078 114.253L3.17878 113.485C3.36278 113.765 3.61478 113.989 3.93478 114.157C4.25478 114.317 4.61078 114.397 5.00278 114.397C5.37078 114.397 5.68678 114.329 5.95078 114.193C6.22278 114.049 6.43478 113.849 6.58678 113.593C6.74678 113.337 6.82678 113.041 6.82678 112.705C6.82678 112.361 6.74678 112.065 6.58678 111.817C6.43478 111.561 6.21878 111.365 5.93878 111.229C5.65878 111.093 5.32678 111.025 4.94278 111.025C4.79878 111.025 4.65478 111.037 4.51078 111.061C4.36678 111.077 4.22678 111.105 4.09078 111.145L4.57078 110.497C4.72278 110.425 4.88678 110.369 5.06278 110.329C5.23878 110.289 5.41478 110.269 5.59078 110.269C6.03878 110.269 6.43878 110.373 6.79078 110.581C7.15078 110.789 7.43478 111.081 7.64278 111.457C7.85878 111.833 7.96678 112.269 7.96678 112.765C7.96678 113.293 7.83878 113.761 7.58278 114.169C7.33478 114.569 6.99078 114.885 6.55078 115.117C6.11078 115.341 5.59878 115.453 5.01478 115.453ZM4.09078 111.145V110.461L6.52678 107.689L7.87078 107.677L5.36278 110.521L4.09078 111.145ZM2.80678 108.013V107.005H7.87078V107.677L6.88678 108.013H2.80678ZM8.90381 114.649L11.9758 111.409C12.2878 111.089 12.5318 110.813 12.7078 110.581C12.8838 110.341 13.0078 110.121 13.0798 109.921C13.1598 109.721 13.1998 109.513 13.1998 109.297C13.1998 108.873 13.0638 108.541 12.7918 108.301C12.5198 108.061 12.1678 107.941 11.7358 107.941C11.3118 107.941 10.9398 108.045 10.6198 108.253C10.2998 108.453 10.0158 108.765 9.76781 109.189L8.97581 108.529C9.30381 107.985 9.69981 107.577 10.1638 107.305C10.6278 107.025 11.1638 106.885 11.7718 106.885C12.2838 106.885 12.7278 106.985 13.1038 107.185C13.4878 107.385 13.7838 107.665 13.9918 108.025C14.1998 108.385 14.3038 108.805 14.3038 109.285C14.3038 109.629 14.2598 109.937 14.1718 110.209C14.0918 110.481 13.9438 110.761 13.7278 111.049C13.5198 111.329 13.2278 111.665 12.8518 112.057L10.3678 114.613L8.90381 114.649ZM8.90381 115.333V114.649L9.86381 114.325H14.4958V115.333H8.90381Z" fill="#6F6F9A"/>
<rect x="20" y="112.333" width="3" height="1" fill="#F0F0F4"/>
<path d="M23 112.833H723" stroke="#F0F0F4" stroke-dasharray="2 2"/>
<path d="M1.73194 167.816L4.80394 164.576C5.11594 164.256 5.35994 163.98 5.53594 163.748C5.71194 163.508 5.83594 163.288 5.90794 163.088C5.98794 162.888 6.02794 162.68 6.02794 162.464C6.02794 162.04 5.89194 161.708 5.61994 161.468C5.34794 161.228 4.99594 161.108 4.56394 161.108C4.13994 161.108 3.76794 161.212 3.44794 161.42C3.12794 161.62 2.84394 161.932 2.59594 162.356L1.80394 161.696C2.13194 161.152 2.52794 160.744 2.99194 160.472C3.45594 160.192 3.99194 160.052 4.59994 160.052C5.11194 160.052 5.55594 160.152 5.93194 160.352C6.31594 160.552 6.61194 160.832 6.81994 161.192C7.02794 161.552 7.13194 161.972 7.13194 162.452C7.13194 162.796 7.08794 163.104 6.99994 163.376C6.91994 163.648 6.77194 163.928 6.55594 164.216C6.34794 164.496 6.05594 164.832 5.67994 165.224L3.19594 167.78L1.73194 167.816ZM1.73194 168.5V167.816L2.69194 167.492H7.32394V168.5H1.73194ZM8.22412 165.632L11.2601 160.172H12.5321L9.43613 165.632H8.22412ZM8.22412 166.328V165.632L8.70413 165.32H14.6081V166.328H8.22412ZM12.2921 168.5V162.992H13.4081V168.5H12.2921Z" fill="#6F6F9A"/>
<rect x="20" y="165.5" width="3" height="1" fill="#F0F0F4"/>
<path d="M23 166H723" stroke="#F0F0F4" stroke-dasharray="2 2"/>
<path d="M6.14241 221.667V213.339H7.25841V221.667H6.14241ZM4.43841 214.347V213.339H7.13841V214.347H4.43841ZM11.6106 221.787C11.0586 221.787 10.5626 221.659 10.1226 221.403C9.69056 221.147 9.34656 220.803 9.09056 220.371C8.83456 219.939 8.70656 219.459 8.70656 218.931C8.70656 218.195 8.96256 217.463 9.47456 216.735L11.9226 213.339H13.2306L10.7226 216.759L10.3146 216.975C10.4106 216.807 10.5266 216.667 10.6626 216.555C10.7986 216.435 10.9666 216.343 11.1666 216.279C11.3666 216.215 11.6026 216.183 11.8746 216.183C12.3626 216.183 12.8026 216.299 13.1946 216.531C13.5946 216.763 13.9146 217.083 14.1546 217.491C14.4026 217.891 14.5266 218.359 14.5266 218.895C14.5266 219.423 14.3946 219.907 14.1306 220.347C13.8746 220.787 13.5226 221.139 13.0746 221.403C12.6346 221.659 12.1466 221.787 11.6106 221.787ZM11.6106 220.731C11.9466 220.731 12.2466 220.651 12.5106 220.491C12.7826 220.323 12.9946 220.103 13.1466 219.831C13.3066 219.551 13.3866 219.239 13.3866 218.895C13.3866 218.551 13.3066 218.243 13.1466 217.971C12.9946 217.691 12.7826 217.471 12.5106 217.311C12.2466 217.151 11.9466 217.071 11.6106 217.071C11.2746 217.071 10.9706 217.151 10.6986 217.311C10.4346 217.471 10.2226 217.691 10.0626 217.971C9.91056 218.243 9.83456 218.551 9.83456 218.895C9.83456 219.239 9.91056 219.551 10.0626 219.831C10.2226 220.111 10.4346 220.331 10.6986 220.491C10.9706 220.651 11.2746 220.731 11.6106 220.731Z" fill="#6F6F9A"/>
<rect x="20" y="218.667" width="3" height="1" fill="#F0F0F4"/>
<path d="M23 219.167H723" stroke="#F0F0F4" stroke-dasharray="2 2"/>
<path d="M11.7023 274.953C11.1503 274.953 10.6623 274.849 10.2383 274.641C9.82234 274.433 9.49834 274.145 9.26634 273.777C9.03434 273.409 8.91834 272.993 8.91834 272.529C8.91834 272.153 8.99034 271.809 9.13434 271.497C9.27834 271.185 9.49034 270.921 9.77034 270.705C10.0503 270.481 10.3783 270.321 10.7543 270.225L10.7903 270.549C10.4703 270.461 10.1983 270.321 9.97434 270.129C9.75034 269.929 9.57834 269.697 9.45834 269.433C9.34634 269.161 9.29034 268.873 9.29034 268.569C9.29034 268.137 9.39434 267.757 9.60234 267.429C9.81034 267.101 10.0943 266.845 10.4543 266.661C10.8223 266.469 11.2383 266.373 11.7023 266.373C12.1743 266.373 12.5903 266.469 12.9503 266.661C13.3103 266.845 13.5943 267.101 13.8023 267.429C14.0103 267.757 14.1143 268.137 14.1143 268.569C14.1143 268.873 14.0543 269.161 13.9343 269.433C13.8223 269.697 13.6543 269.929 13.4303 270.129C13.2143 270.321 12.9463 270.461 12.6263 270.549L12.6503 270.225C13.0343 270.321 13.3623 270.481 13.6343 270.705C13.9143 270.921 14.1263 271.185 14.2703 271.497C14.4223 271.809 14.4983 272.153 14.4983 272.529C14.4983 272.993 14.3823 273.409 14.1503 273.777C13.9183 274.145 13.5903 274.433 13.1663 274.641C12.7503 274.849 12.2623 274.953 11.7023 274.953ZM11.7023 273.933C12.0383 273.933 12.3303 273.869 12.5783 273.741C12.8343 273.605 13.0343 273.421 13.1783 273.189C13.3303 272.957 13.4063 272.689 13.4063 272.385C13.4063 272.089 13.3303 271.825 13.1783 271.593C13.0343 271.361 12.8343 271.181 12.5783 271.053C12.3303 270.917 12.0383 270.849 11.7023 270.849C11.3743 270.849 11.0823 270.917 10.8263 271.053C10.5703 271.181 10.3663 271.361 10.2143 271.593C10.0703 271.825 9.99834 272.089 9.99834 272.385C9.99834 272.689 10.0703 272.957 10.2143 273.189C10.3663 273.421 10.5703 273.605 10.8263 273.741C11.0823 273.869 11.3743 273.933 11.7023 273.933ZM11.7023 269.973C12.1023 269.973 12.4303 269.849 12.6863 269.601C12.9423 269.353 13.0703 269.033 13.0703 268.641C13.0703 268.257 12.9423 267.945 12.6863 267.705C12.4303 267.457 12.1023 267.333 11.7023 267.333C11.3103 267.333 10.9863 267.457 10.7303 267.705C10.4743 267.945 10.3463 268.257 10.3463 268.641C10.3463 269.033 10.4743 269.353 10.7303 269.601C10.9863 269.849 11.3103 269.973 11.7023 269.973Z" fill="#6F6F9A"/>
<rect x="20" y="271.833" width="3" height="1" fill="#F0F0F4"/>
<path d="M23 272.333H723" stroke="#F0F0F4" stroke-dasharray="2 2"/>
<path d="M11.085 328.12C10.461 328.12 9.889 327.944 9.369 327.592C8.857 327.24 8.449 326.744 8.145 326.104C7.841 325.456 7.689 324.696 7.689 323.824C7.689 322.952 7.837 322.196 8.133 321.556C8.437 320.916 8.845 320.424 9.357 320.08C9.869 319.728 10.433 319.552 11.049 319.552C11.681 319.552 12.253 319.728 12.765 320.08C13.277 320.424 13.681 320.916 13.977 321.556C14.281 322.196 14.433 322.956 14.433 323.836C14.433 324.708 14.281 325.468 13.977 326.116C13.681 326.756 13.277 327.252 12.765 327.604C12.261 327.948 11.701 328.12 11.085 328.12ZM11.061 327.052C11.501 327.052 11.885 326.932 12.213 326.692C12.549 326.444 12.813 326.08 13.005 325.6C13.197 325.12 13.293 324.528 13.293 323.824C13.293 323.12 13.197 322.532 13.005 322.06C12.813 321.58 12.549 321.22 12.213 320.98C11.877 320.732 11.489 320.608 11.049 320.608C10.617 320.608 10.233 320.732 9.897 320.98C9.561 321.22 9.297 321.58 9.105 322.06C8.921 322.532 8.829 323.12 8.829 323.824C8.829 324.528 8.921 325.12 9.105 325.6C9.297 326.08 9.561 326.444 9.897 326.692C10.233 326.932 10.621 327.052 11.061 327.052Z" fill="#6F6F9A"/>
<rect x="23" y="325" width="700" height="1" fill="#6F6F9A"/>
<rect x="20" y="325" width="3" height="1" fill="#6F6F9A"/>
<path d="M15.77 344.12C15.29 344.12 14.866 344.028 14.498 343.844C14.138 343.652 13.842 343.396 13.61 343.076L14.402 342.344C14.554 342.568 14.742 342.74 14.966 342.86C15.198 342.98 15.454 343.04 15.734 343.04C16.014 343.04 16.262 342.98 16.478 342.86C16.694 342.74 16.862 342.564 16.982 342.332C17.11 342.092 17.174 341.8 17.174 341.456V335.672H18.302V341.396C18.302 341.948 18.19 342.428 17.966 342.836C17.75 343.244 17.45 343.56 17.066 343.784C16.69 344.008 16.258 344.12 15.77 344.12ZM22.4074 344.12C21.8874 344.12 21.4154 343.992 20.9914 343.736C20.5674 343.472 20.2314 343.116 19.9834 342.668C19.7434 342.22 19.6234 341.716 19.6234 341.156C19.6234 340.596 19.7434 340.092 19.9834 339.644C20.2314 339.196 20.5634 338.84 20.9794 338.576C21.4034 338.312 21.8794 338.18 22.4074 338.18C22.8394 338.18 23.2234 338.272 23.5594 338.456C23.9034 338.632 24.1794 338.88 24.3874 339.2C24.5954 339.512 24.7114 339.876 24.7354 340.292V342.008C24.7114 342.416 24.5954 342.78 24.3874 343.1C24.1874 343.42 23.9154 343.672 23.5714 343.856C23.2354 344.032 22.8474 344.12 22.4074 344.12ZM22.5874 343.1C23.1234 343.1 23.5554 342.92 23.8834 342.56C24.2114 342.192 24.3754 341.724 24.3754 341.156C24.3754 340.764 24.2994 340.424 24.1474 340.136C24.0034 339.84 23.7954 339.612 23.5234 339.452C23.2514 339.284 22.9354 339.2 22.5754 339.2C22.2154 339.2 21.8954 339.284 21.6154 339.452C21.3434 339.62 21.1274 339.852 20.9674 340.148C20.8154 340.436 20.7394 340.768 20.7394 341.144C20.7394 341.528 20.8154 341.868 20.9674 342.164C21.1274 342.452 21.3474 342.68 21.6274 342.848C21.9074 343.016 22.2274 343.1 22.5874 343.1ZM24.3034 344V342.464L24.5074 341.072L24.3034 339.692V338.3H25.3954V344H24.3034ZM30.9998 344V340.676C30.9998 340.244 30.8638 339.888 30.5918 339.608C30.3198 339.328 29.9678 339.188 29.5358 339.188C29.2478 339.188 28.9918 339.252 28.7678 339.38C28.5438 339.508 28.3678 339.684 28.2398 339.908C28.1118 340.132 28.0478 340.388 28.0478 340.676L27.6038 340.424C27.6038 339.992 27.6998 339.608 27.8918 339.272C28.0838 338.936 28.3518 338.672 28.6958 338.48C29.0398 338.28 29.4278 338.18 29.8598 338.18C30.2918 338.18 30.6718 338.288 30.9998 338.504C31.3358 338.72 31.5998 339.004 31.7918 339.356C31.9838 339.7 32.0798 340.068 32.0798 340.46V344H30.9998ZM26.9678 344V338.3H28.0478V344H26.9678Z" fill="#6F6F9A"/>
<rect x="23" y="6" width="1" height="320" fill="#6F6F9A"/>
<rect x="23" y="326" width="1" height="3" fill="#6F6F9A"/>
<path d="M91.9938 344V335.672H93.1218V344H91.9938ZM92.7618 340.34V339.308H97.1058V340.34H92.7618ZM92.7618 336.704V335.672H97.3098V336.704H92.7618ZM101.004 344.12C100.436 344.12 99.9243 343.992 99.4683 343.736C99.0123 343.472 98.6523 343.116 98.3883 342.668C98.1243 342.22 97.9923 341.712 97.9923 341.144C97.9923 340.584 98.1203 340.08 98.3763 339.632C98.6403 339.184 98.9923 338.832 99.4323 338.576C99.8803 338.312 100.38 338.18 100.932 338.18C101.46 338.18 101.924 338.3 102.324 338.54C102.732 338.78 103.048 339.112 103.272 339.536C103.504 339.96 103.62 340.44 103.62 340.976C103.62 341.056 103.616 341.144 103.608 341.24C103.6 341.328 103.584 341.432 103.56 341.552H98.7483V340.652H102.984L102.588 341C102.588 340.616 102.52 340.292 102.384 340.028C102.248 339.756 102.056 339.548 101.808 339.404C101.56 339.252 101.26 339.176 100.908 339.176C100.54 339.176 100.216 339.256 99.9363 339.416C99.6563 339.576 99.4403 339.8 99.2883 340.088C99.1363 340.376 99.0603 340.716 99.0603 341.108C99.0603 341.508 99.1403 341.86 99.3003 342.164C99.4603 342.46 99.6883 342.692 99.9843 342.86C100.28 343.02 100.62 343.1 101.004 343.1C101.324 343.1 101.616 343.044 101.88 342.932C102.152 342.82 102.384 342.652 102.576 342.428L103.272 343.136C103 343.456 102.664 343.7 102.264 343.868C101.872 344.036 101.452 344.12 101.004 344.12ZM107.798 344.12C107.366 344.12 106.974 344.032 106.622 343.856C106.278 343.672 106.002 343.42 105.794 343.1C105.586 342.78 105.47 342.416 105.446 342.008V340.292C105.47 339.876 105.586 339.512 105.794 339.2C106.01 338.88 106.29 338.632 106.634 338.456C106.986 338.272 107.374 338.18 107.798 338.18C108.318 338.18 108.786 338.312 109.202 338.576C109.626 338.84 109.958 339.196 110.198 339.644C110.438 340.092 110.558 340.596 110.558 341.156C110.558 341.716 110.438 342.22 110.198 342.668C109.958 343.116 109.626 343.472 109.202 343.736C108.786 343.992 108.318 344.12 107.798 344.12ZM107.618 343.1C107.978 343.1 108.294 343.016 108.566 342.848C108.838 342.68 109.054 342.452 109.214 342.164C109.374 341.868 109.454 341.528 109.454 341.144C109.454 340.768 109.374 340.432 109.214 340.136C109.054 339.84 108.838 339.612 108.566 339.452C108.294 339.284 107.982 339.2 107.63 339.2C107.27 339.2 106.954 339.284 106.682 339.452C106.41 339.612 106.198 339.84 106.046 340.136C105.894 340.432 105.818 340.772 105.818 341.156C105.818 341.532 105.89 341.868 106.034 342.164C106.186 342.452 106.398 342.68 106.67 342.848C106.95 343.016 107.266 343.1 107.618 343.1ZM104.798 344V335.432H105.878V339.692L105.674 341.072L105.878 342.464V344H104.798Z" fill="#6F6F9A"/>
<path d="M101.5 6V326" stroke="#F0F0F4" stroke-dasharray="2 2"/>
<rect x="101" y="326" width="1" height="3" fill="#F0F0F4"/>
<path d="M169.111 344V335.672H169.903L173.431 341.468H172.891L176.419 335.672H177.211V344H176.083V337.652L176.347 337.724L173.563 342.296H172.771L169.987 337.724L170.239 337.652V344H169.111ZM181.41 344.12C180.89 344.12 180.418 343.992 179.994 343.736C179.57 343.472 179.234 343.116 178.986 342.668C178.746 342.22 178.626 341.716 178.626 341.156C178.626 340.596 178.746 340.092 178.986 339.644C179.234 339.196 179.566 338.84 179.982 338.576C180.406 338.312 180.882 338.18 181.41 338.18C181.842 338.18 182.226 338.272 182.562 338.456C182.906 338.632 183.182 338.88 183.39 339.2C183.598 339.512 183.714 339.876 183.738 340.292V342.008C183.714 342.416 183.598 342.78 183.39 343.1C183.19 343.42 182.918 343.672 182.574 343.856C182.238 344.032 181.85 344.12 181.41 344.12ZM181.59 343.1C182.126 343.1 182.558 342.92 182.886 342.56C183.214 342.192 183.378 341.724 183.378 341.156C183.378 340.764 183.302 340.424 183.15 340.136C183.006 339.84 182.798 339.612 182.526 339.452C182.254 339.284 181.938 339.2 181.578 339.2C181.218 339.2 180.898 339.284 180.618 339.452C180.346 339.62 180.13 339.852 179.97 340.148C179.818 340.436 179.742 340.768 179.742 341.144C179.742 341.528 179.818 341.868 179.97 342.164C180.13 342.452 180.35 342.68 180.63 342.848C180.91 343.016 181.23 343.1 181.59 343.1ZM183.306 344V342.464L183.51 341.072L183.306 339.692V338.3H184.398V344H183.306ZM185.97 344V338.3H187.05V344H185.97ZM187.05 340.748L186.642 340.568C186.642 339.84 186.81 339.26 187.146 338.828C187.482 338.396 187.966 338.18 188.598 338.18C188.886 338.18 189.146 338.232 189.378 338.336C189.61 338.432 189.826 338.596 190.026 338.828L189.318 339.56C189.198 339.432 189.066 339.34 188.922 339.284C188.778 339.228 188.61 339.2 188.418 339.2C188.018 339.2 187.69 339.328 187.434 339.584C187.178 339.84 187.05 340.228 187.05 340.748Z" fill="#6F6F9A"/>
<path d="M179.167 6V326" stroke="#F0F0F4" stroke-dasharray="2 2"/>
<rect x="178.667" y="326" width="1" height="3" fill="#F0F0F4"/>
<path d="M247.022 344L250.43 335.672H251.246L254.642 344H253.418L250.622 336.956H251.042L248.222 344H247.022ZM248.642 342.116V341.132H253.022V342.116H248.642ZM258.797 344.12C258.365 344.12 257.973 344.032 257.621 343.856C257.277 343.672 257.001 343.42 256.793 343.1C256.585 342.78 256.469 342.416 256.445 342.008V340.292C256.469 339.876 256.585 339.512 256.793 339.2C257.009 338.88 257.289 338.632 257.633 338.456C257.985 338.272 258.373 338.18 258.797 338.18C259.317 338.18 259.785 338.312 260.201 338.576C260.625 338.84 260.957 339.196 261.197 339.644C261.437 340.092 261.557 340.596 261.557 341.156C261.557 341.716 261.437 342.22 261.197 342.668C260.957 343.116 260.625 343.472 260.201 343.736C259.785 343.992 259.317 344.12 258.797 344.12ZM258.617 343.1C258.977 343.1 259.293 343.016 259.565 342.848C259.837 342.68 260.053 342.452 260.213 342.164C260.373 341.868 260.453 341.528 260.453 341.144C260.453 340.768 260.373 340.432 260.213 340.136C260.053 339.84 259.837 339.612 259.565 339.452C259.293 339.284 258.981 339.2 258.629 339.2C258.269 339.2 257.953 339.284 257.681 339.452C257.409 339.612 257.197 339.84 257.045 340.136C256.893 340.432 256.817 340.772 256.817 341.156C256.817 341.532 256.889 341.868 257.033 342.164C257.185 342.452 257.397 342.68 257.669 342.848C257.949 343.016 258.265 343.1 258.617 343.1ZM255.797 346.388V338.3H256.877V339.8L256.673 341.18L256.877 342.572V346.388H255.797ZM262.782 344V338.3H263.862V344H262.782ZM263.862 340.748L263.454 340.568C263.454 339.84 263.622 339.26 263.958 338.828C264.294 338.396 264.778 338.18 265.41 338.18C265.698 338.18 265.958 338.232 266.19 338.336C266.422 338.432 266.638 338.596 266.838 338.828L266.13 339.56C266.01 339.432 265.878 339.34 265.734 339.284C265.59 339.228 265.422 339.2 265.23 339.2C264.83 339.2 264.502 339.328 264.246 339.584C263.99 339.84 263.862 340.228 263.862 340.748Z" fill="#6F6F9A"/>
<path d="M256.833 6V326" stroke="#F0F0F4" stroke-dasharray="2 2"/>
<rect x="256.333" y="326" width="1" height="3" fill="#F0F0F4"/>
<path d="M323.377 344V335.672H324.169L327.697 341.468H327.157L330.685 335.672H331.477V344H330.349V337.652L330.613 337.724L327.829 342.296H327.037L324.253 337.724L324.505 337.652V344H323.377ZM335.675 344.12C335.155 344.12 334.683 343.992 334.259 343.736C333.835 343.472 333.499 343.116 333.251 342.668C333.011 342.22 332.891 341.716 332.891 341.156C332.891 340.596 333.011 340.092 333.251 339.644C333.499 339.196 333.831 338.84 334.247 338.576C334.671 338.312 335.147 338.18 335.675 338.18C336.107 338.18 336.491 338.272 336.827 338.456C337.171 338.632 337.447 338.88 337.655 339.2C337.863 339.512 337.979 339.876 338.003 340.292V342.008C337.979 342.416 337.863 342.78 337.655 343.1C337.455 343.42 337.183 343.672 336.839 343.856C336.503 344.032 336.115 344.12 335.675 344.12ZM335.855 343.1C336.391 343.1 336.823 342.92 337.151 342.56C337.479 342.192 337.643 341.724 337.643 341.156C337.643 340.764 337.567 340.424 337.415 340.136C337.271 339.84 337.063 339.612 336.791 339.452C336.519 339.284 336.203 339.2 335.843 339.2C335.483 339.2 335.163 339.284 334.883 339.452C334.611 339.62 334.395 339.852 334.235 340.148C334.083 340.436 334.007 340.768 334.007 341.144C334.007 341.528 334.083 341.868 334.235 342.164C334.395 342.452 334.615 342.68 334.895 342.848C335.175 343.016 335.495 343.1 335.855 343.1ZM337.571 344V342.464L337.775 341.072L337.571 339.692V338.3H338.663V344H337.571ZM342.107 344.048L339.635 338.3H340.835L342.671 342.8H342.287L344.219 338.3H345.419L342.755 344.048H342.107ZM340.475 346.388L342.155 342.944L342.755 344.048L341.675 346.388H340.475Z" fill="#6F6F9A"/>
<path d="M334.5 6V326" stroke="#F0F0F4" stroke-dasharray="2 2"/>
<rect x="334" y="326" width="1" height="3" fill="#F0F0F4"/>
<path d="M405.335 344.12C404.855 344.12 404.431 344.028 404.063 343.844C403.703 343.652 403.407 343.396 403.175 343.076L403.967 342.344C404.119 342.568 404.307 342.74 404.531 342.86C404.763 342.98 405.019 343.04 405.299 343.04C405.579 343.04 405.827 342.98 406.043 342.86C406.259 342.74 406.427 342.564 406.547 342.332C406.675 342.092 406.739 341.8 406.739 341.456V335.672H407.867V341.396C407.867 341.948 407.755 342.428 407.531 342.836C407.315 343.244 407.015 343.56 406.631 343.784C406.255 344.008 405.823 344.12 405.335 344.12ZM411.84 344.12C411.376 344.12 410.956 344.016 410.58 343.808C410.212 343.592 409.924 343.296 409.716 342.92C409.508 342.544 409.404 342.108 409.404 341.612V338.3H410.484V341.564C410.484 341.876 410.536 342.148 410.64 342.38C410.752 342.604 410.912 342.776 411.12 342.896C411.328 343.016 411.572 343.076 411.852 343.076C412.276 343.076 412.608 342.944 412.848 342.68C413.088 342.408 413.208 342.036 413.208 341.564V338.3H414.288V341.612C414.288 342.108 414.184 342.544 413.976 342.92C413.768 343.296 413.48 343.592 413.112 343.808C412.752 344.016 412.328 344.12 411.84 344.12ZM419.768 344V340.676C419.768 340.244 419.632 339.888 419.36 339.608C419.088 339.328 418.736 339.188 418.304 339.188C418.016 339.188 417.76 339.252 417.536 339.38C417.312 339.508 417.136 339.684 417.008 339.908C416.88 340.132 416.816 340.388 416.816 340.676L416.372 340.424C416.372 339.992 416.468 339.608 416.66 339.272C416.852 338.936 417.12 338.672 417.464 338.48C417.808 338.28 418.196 338.18 418.628 338.18C419.06 338.18 419.44 338.288 419.768 338.504C420.104 338.72 420.368 339.004 420.56 339.356C420.752 339.7 420.848 340.068 420.848 340.46V344H419.768ZM415.736 344V338.3H416.816V344H415.736Z" fill="#6F6F9A"/>
<path d="M412.167 6V326" stroke="#F0F0F4" stroke-dasharray="2 2"/>
<rect x="411.667" y="326" width="1" height="3" fill="#F0F0F4"/>
<path d="M484.959 344.12C484.479 344.12 484.055 344.028 483.687 343.844C483.327 343.652 483.031 343.396 482.799 343.076L483.591 342.344C483.743 342.568 483.931 342.74 484.155 342.86C484.387 342.98 484.643 343.04 484.923 343.04C485.203 343.04 485.451 342.98 485.667 342.86C485.883 342.74 486.051 342.564 486.171 342.332C486.299 342.092 486.363 341.8 486.363 341.456V335.672H487.491V341.396C487.491 341.948 487.379 342.428 487.155 342.836C486.939 343.244 486.639 343.56 486.255 343.784C485.879 344.008 485.447 344.12 484.959 344.12ZM491.464 344.12C491 344.12 490.58 344.016 490.204 343.808C489.836 343.592 489.548 343.296 489.34 342.92C489.132 342.544 489.028 342.108 489.028 341.612V338.3H490.108V341.564C490.108 341.876 490.16 342.148 490.264 342.38C490.376 342.604 490.536 342.776 490.744 342.896C490.952 343.016 491.196 343.076 491.476 343.076C491.9 343.076 492.232 342.944 492.472 342.68C492.712 342.408 492.832 342.036 492.832 341.564V338.3H493.912V341.612C493.912 342.108 493.808 342.544 493.6 342.92C493.392 343.296 493.104 343.592 492.736 343.808C492.376 344.016 491.952 344.12 491.464 344.12ZM495.36 344V335.432H496.44V344H495.36Z" fill="#6F6F9A"/>
<path d="M489.833 6V326" stroke="#F0F0F4" stroke-dasharray="2 2"/>
<rect x="489.333" y="326" width="1" height="3" fill="#F0F0F4"/>
<path d="M556.731 344L560.139 335.672H560.955L564.351 344H563.127L560.331 336.956H560.751L557.931 344H556.731ZM558.351 342.116V341.132H562.731V342.116H558.351ZM567.588 344.12C567.124 344.12 566.704 344.016 566.328 343.808C565.96 343.592 565.672 343.296 565.464 342.92C565.256 342.544 565.152 342.108 565.152 341.612V338.3H566.232V341.564C566.232 341.876 566.284 342.148 566.388 342.38C566.5 342.604 566.66 342.776 566.868 342.896C567.076 343.016 567.32 343.076 567.6 343.076C568.024 343.076 568.356 342.944 568.596 342.68C568.836 342.408 568.956 342.036 568.956 341.564V338.3H570.036V341.612C570.036 342.108 569.932 342.544 569.724 342.92C569.516 343.296 569.228 343.592 568.86 343.808C568.5 344.016 568.076 344.12 567.588 344.12ZM573.847 346.508C573.263 346.508 572.743 346.4 572.287 346.184C571.839 345.968 571.479 345.664 571.207 345.272L571.903 344.564C572.135 344.86 572.411 345.084 572.731 345.236C573.051 345.396 573.431 345.476 573.871 345.476C574.455 345.476 574.915 345.32 575.251 345.008C575.595 344.704 575.767 344.292 575.767 343.772V342.356L575.959 341.072L575.767 339.8V338.3H576.847V343.772C576.847 344.316 576.719 344.792 576.463 345.2C576.215 345.608 575.863 345.928 575.407 346.16C574.959 346.392 574.439 346.508 573.847 346.508ZM573.847 343.904C573.327 343.904 572.859 343.78 572.443 343.532C572.035 343.284 571.711 342.944 571.471 342.512C571.231 342.072 571.111 341.58 571.111 341.036C571.111 340.492 571.231 340.008 571.471 339.584C571.711 339.152 572.035 338.812 572.443 338.564C572.859 338.308 573.327 338.18 573.847 338.18C574.295 338.18 574.691 338.268 575.035 338.444C575.379 338.62 575.651 338.868 575.851 339.188C576.059 339.5 576.171 339.868 576.187 340.292V341.804C576.163 342.22 576.047 342.588 575.839 342.908C575.639 343.22 575.367 343.464 575.023 343.64C574.679 343.816 574.287 343.904 573.847 343.904ZM574.063 342.884C574.415 342.884 574.723 342.808 574.987 342.656C575.259 342.504 575.467 342.292 575.611 342.02C575.755 341.74 575.827 341.416 575.827 341.048C575.827 340.68 575.751 340.36 575.599 340.088C575.455 339.808 575.251 339.592 574.987 339.44C574.723 339.28 574.411 339.2 574.051 339.2C573.691 339.2 573.375 339.28 573.103 339.44C572.831 339.592 572.615 339.808 572.455 340.088C572.303 340.36 572.227 340.676 572.227 341.036C572.227 341.396 572.303 341.716 572.455 341.996C572.615 342.276 572.831 342.496 573.103 342.656C573.383 342.808 573.703 342.884 574.063 342.884Z" fill="#6F6F9A"/>
<path d="M567.5 6V326" stroke="#F0F0F4" stroke-dasharray="2 2"/>
<rect x="567" y="326" width="1" height="3" fill="#F0F0F4"/>
<path d="M637.97 344.12C637.314 344.12 636.754 344 636.29 343.76C635.826 343.52 635.414 343.172 635.054 342.716L635.822 341.948C636.086 342.316 636.39 342.596 636.734 342.788C637.078 342.972 637.502 343.064 638.006 343.064C638.502 343.064 638.898 342.956 639.194 342.74C639.498 342.524 639.65 342.228 639.65 341.852C639.65 341.54 639.578 341.288 639.434 341.096C639.29 340.904 639.094 340.748 638.846 340.628C638.606 340.5 638.342 340.388 638.054 340.292C637.766 340.188 637.478 340.08 637.19 339.968C636.902 339.848 636.638 339.704 636.398 339.536C636.158 339.36 635.962 339.132 635.81 338.852C635.666 338.572 635.594 338.22 635.594 337.796C635.594 337.324 635.706 336.924 635.93 336.596C636.162 336.26 636.474 336.004 636.866 335.828C637.266 335.644 637.714 335.552 638.21 335.552C638.754 335.552 639.242 335.66 639.674 335.876C640.106 336.084 640.458 336.36 640.73 336.704L639.962 337.472C639.714 337.184 639.446 336.968 639.158 336.824C638.878 336.68 638.554 336.608 638.186 336.608C637.738 336.608 637.382 336.708 637.118 336.908C636.854 337.1 636.722 337.372 636.722 337.724C636.722 338.004 636.794 338.232 636.938 338.408C637.09 338.576 637.286 338.72 637.526 338.84C637.766 338.96 638.03 339.072 638.318 339.176C638.614 339.272 638.906 339.38 639.194 339.5C639.482 339.62 639.746 339.772 639.986 339.956C640.226 340.14 640.418 340.38 640.562 340.676C640.714 340.964 640.79 341.328 640.79 341.768C640.79 342.504 640.534 343.08 640.022 343.496C639.518 343.912 638.834 344.12 637.97 344.12ZM644.677 344.12C644.109 344.12 643.597 343.992 643.141 343.736C642.685 343.472 642.325 343.116 642.061 342.668C641.797 342.22 641.665 341.712 641.665 341.144C641.665 340.584 641.793 340.08 642.049 339.632C642.313 339.184 642.665 338.832 643.105 338.576C643.553 338.312 644.053 338.18 644.605 338.18C645.133 338.18 645.597 338.3 645.997 338.54C646.405 338.78 646.721 339.112 646.945 339.536C647.177 339.96 647.293 340.44 647.293 340.976C647.293 341.056 647.289 341.144 647.281 341.24C647.273 341.328 647.257 341.432 647.233 341.552H642.421V340.652H646.657L646.261 341C646.261 340.616 646.193 340.292 646.057 340.028C645.921 339.756 645.729 339.548 645.481 339.404C645.233 339.252 644.933 339.176 644.581 339.176C644.213 339.176 643.889 339.256 643.609 339.416C643.329 339.576 643.113 339.8 642.961 340.088C642.809 340.376 642.733 340.716 642.733 341.108C642.733 341.508 642.813 341.86 642.973 342.164C643.133 342.46 643.361 342.692 643.657 342.86C643.953 343.02 644.293 343.1 644.677 343.1C644.997 343.1 645.289 343.044 645.553 342.932C645.825 342.82 646.057 342.652 646.249 342.428L646.945 343.136C646.673 343.456 646.337 343.7 645.937 343.868C645.545 344.036 645.125 344.12 644.677 344.12ZM651.47 344.12C651.038 344.12 650.646 344.032 650.294 343.856C649.95 343.672 649.674 343.42 649.466 343.1C649.258 342.78 649.142 342.416 649.118 342.008V340.292C649.142 339.876 649.258 339.512 649.466 339.2C649.682 338.88 649.962 338.632 650.306 338.456C650.658 338.272 651.046 338.18 651.47 338.18C651.99 338.18 652.458 338.312 652.874 338.576C653.298 338.84 653.63 339.196 653.87 339.644C654.11 340.092 654.23 340.596 654.23 341.156C654.23 341.716 654.11 342.22 653.87 342.668C653.63 343.116 653.298 343.472 652.874 343.736C652.458 343.992 651.99 344.12 651.47 344.12ZM651.29 343.1C651.65 343.1 651.966 343.016 652.238 342.848C652.51 342.68 652.726 342.452 652.886 342.164C653.046 341.868 653.126 341.528 653.126 341.144C653.126 340.768 653.046 340.432 652.886 340.136C652.726 339.84 652.51 339.612 652.238 339.452C651.966 339.284 651.654 339.2 651.302 339.2C650.942 339.2 650.626 339.284 650.354 339.452C650.082 339.612 649.87 339.84 649.718 340.136C649.566 340.432 649.49 340.772 649.49 341.156C649.49 341.532 649.562 341.868 649.706 342.164C649.858 342.452 650.07 342.68 650.342 342.848C650.622 343.016 650.938 343.1 651.29 343.1ZM648.47 346.388V338.3H649.55V339.8L649.346 341.18L649.55 342.572V346.388H648.47Z" fill="#6F6F9A"/>
<path d="M645.167 6V326" stroke="#F0F0F4" stroke-dasharray="2 2"/>
<rect x="644.667" y="326" width="1" height="3" fill="#F0F0F4"/>
<path d="M717.236 344.12C716.644 344.12 716.092 344.012 715.58 343.796C715.068 343.572 714.62 343.264 714.236 342.872C713.852 342.472 713.552 342.012 713.336 341.492C713.128 340.972 713.024 340.416 713.024 339.824C713.024 339.224 713.128 338.668 713.336 338.156C713.552 337.636 713.848 337.18 714.224 336.788C714.608 336.396 715.052 336.092 715.556 335.876C716.068 335.66 716.62 335.552 717.212 335.552C717.804 335.552 718.352 335.66 718.856 335.876C719.368 336.092 719.816 336.396 720.2 336.788C720.584 337.18 720.884 337.636 721.1 338.156C721.316 338.676 721.424 339.236 721.424 339.836C721.424 340.428 721.316 340.984 721.1 341.504C720.884 342.024 720.584 342.48 720.2 342.872C719.824 343.264 719.38 343.572 718.868 343.796C718.364 344.012 717.82 344.12 717.236 344.12ZM717.212 343.04C717.812 343.04 718.336 342.904 718.784 342.632C719.24 342.352 719.6 341.972 719.864 341.492C720.128 341.004 720.26 340.448 720.26 339.824C720.26 339.36 720.184 338.936 720.032 338.552C719.88 338.16 719.668 337.82 719.396 337.532C719.124 337.244 718.804 337.024 718.436 336.872C718.068 336.712 717.66 336.632 717.212 336.632C716.62 336.632 716.096 336.768 715.64 337.04C715.192 337.312 714.836 337.688 714.572 338.168C714.316 338.648 714.188 339.2 714.188 339.824C714.188 340.288 714.26 340.72 714.404 341.12C714.556 341.512 714.764 341.852 715.028 342.14C715.3 342.42 715.62 342.64 715.988 342.8C716.364 342.96 716.772 343.04 717.212 343.04ZM725.384 344.12C724.824 344.12 724.316 343.988 723.86 343.724C723.412 343.46 723.056 343.104 722.792 342.656C722.536 342.2 722.408 341.696 722.408 341.144C722.408 340.584 722.536 340.08 722.792 339.632C723.056 339.184 723.412 338.832 723.86 338.576C724.316 338.312 724.824 338.18 725.384 338.18C725.824 338.18 726.232 338.264 726.608 338.432C726.984 338.592 727.308 338.828 727.58 339.14L726.86 339.86C726.684 339.652 726.468 339.496 726.212 339.392C725.964 339.28 725.688 339.224 725.384 339.224C725.024 339.224 724.704 339.308 724.424 339.476C724.144 339.636 723.924 339.86 723.764 340.148C723.604 340.436 723.524 340.768 723.524 341.144C723.524 341.52 723.604 341.852 723.764 342.14C723.924 342.428 724.144 342.656 724.424 342.824C724.704 342.992 725.024 343.076 725.384 343.076C725.688 343.076 725.964 343.024 726.212 342.92C726.468 342.808 726.688 342.648 726.872 342.44L727.58 343.16C727.316 343.464 726.992 343.7 726.608 343.868C726.232 344.036 725.824 344.12 725.384 344.12ZM729.457 344V335.912H730.537V344H729.457ZM728.053 339.284V338.3H731.941V339.284H728.053Z" fill="#6F6F9A"/>
<path d="M722.833 6V326" stroke="#F0F0F4" stroke-dasharray="2 2"/>
<rect x="722.333" y="326" width="1" height="3" fill="#F0F0F4"/>
<path d="M32.8828 243.5C46.6984 239.393 56.4727 238 71.4844 238C86.4962 238 94.3595 234 110.086 234C125.274 234 132.071 241.889 147.258 242C162.98 242.115 170.848 234 185.86 234C206.216 234 204.109 258.768 224.461 258.5C244.404 258.238 244.477 238 261.633 234C278.257 230.124 282.712 218 300.235 218C318.106 218 320.366 234.269 337.407 234C357.205 233.687 356.205 211 376.008 211C395.811 211 394.807 234 414.61 234C441.059 234 433.594 200.806 451.782 182C468.223 165 464.649 130.5 490.384 130.5C510.399 130.5 506.11 138 527.556 142.5C552.051 147.64 545.427 170.5 566.157 179.5C583.939 187.22 584.743 205.5 604.759 205.5C627.136 205.5 623.155 178.127 641.931 175C656.943 172.5 660.402 178 680.532 178C701.263 178 712.285 164.707 717.704 150" stroke="url(#paint0_linear_336_2846)" stroke-width="2"/>
<circle opacity="0.2" cx="337.829" cy="234" r="6" fill="url(#paint1_linear_336_2846)"/>
<circle cx="337.829" cy="234" r="3" fill="url(#paint2_linear_336_2846)"/>
<path d="M32.8828 64.9998C46.4649 85.5 54.3282 99 71.4844 102C88.6407 105 90.7853 111.5 110.086 111.5C129.387 111.5 132.071 119.389 147.258 119.5C162.98 119.615 170.848 111.5 185.86 111.5C206.216 111.5 213.17 124.153 224.461 136C243.047 155.5 249.481 194 263.063 194C280.934 194 284.508 153 300.235 144.5C314.376 136.857 320.366 119.769 337.407 119.5C357.205 119.187 356.205 144.5 376.008 144.5C395.811 144.5 394.807 119.5 414.61 119.5C441.059 119.5 434.626 155.5 451.782 155.5C468.938 155.5 476.087 168 490.384 168C504.681 168 505.395 177.5 527.556 180C552.803 182.848 548.376 209.28 566.157 217C583.939 224.719 590.462 243 604.759 243C621.915 243 626.919 212.5 641.931 212.5C656.943 212.5 666.95 239.5 680.532 239.5C695.544 239.5 696.974 220 717.704 220" stroke="url(#paint3_linear_336_2846)" stroke-width="2"/>
<circle opacity="0.2" cx="337.829" cy="119" r="6" fill="url(#paint4_linear_336_2846)"/>
<circle cx="337.829" cy="119" r="3" fill="url(#paint5_linear_336_2846)"/>
<path d="M337.407 7V325" stroke="#434360" stroke-dasharray="2 2"/>
<g filter="url(#filter0_d_336_2846)">
<rect x="382" y="143.5" width="95" height="80" rx="4" fill="#434360" shape-rendering="crispEdges"/>
<path d="M397.154 165.5L392.254 160.432L397.056 155.784H398.764L393.584 160.768V160.04L398.904 165.5H397.154ZM391.148 165.5V155.784H392.464V165.5H391.148ZM403.967 165.64C403.276 165.64 402.632 165.514 402.035 165.262C401.437 165.001 400.915 164.641 400.467 164.184C400.019 163.717 399.669 163.181 399.417 162.574C399.174 161.967 399.053 161.319 399.053 160.628C399.053 159.928 399.174 159.279 399.417 158.682C399.669 158.075 400.014 157.543 400.453 157.086C400.901 156.629 401.419 156.274 402.007 156.022C402.604 155.77 403.248 155.644 403.939 155.644C404.629 155.644 405.269 155.77 405.857 156.022C406.454 156.274 406.977 156.629 407.425 157.086C407.873 157.543 408.223 158.075 408.475 158.682C408.727 159.289 408.853 159.942 408.853 160.642C408.853 161.333 408.727 161.981 408.475 162.588C408.223 163.195 407.873 163.727 407.425 164.184C406.986 164.641 406.468 165.001 405.871 165.262C405.283 165.514 404.648 165.64 403.967 165.64ZM403.939 164.38C404.639 164.38 405.25 164.221 405.773 163.904C406.305 163.577 406.725 163.134 407.033 162.574C407.341 162.005 407.495 161.356 407.495 160.628C407.495 160.087 407.406 159.592 407.229 159.144C407.051 158.687 406.804 158.29 406.487 157.954C406.169 157.618 405.796 157.361 405.367 157.184C404.937 156.997 404.461 156.904 403.939 156.904C403.248 156.904 402.637 157.063 402.105 157.38C401.582 157.697 401.167 158.136 400.859 158.696C400.56 159.256 400.411 159.9 400.411 160.628C400.411 161.169 400.495 161.673 400.663 162.14C400.84 162.597 401.083 162.994 401.391 163.33C401.708 163.657 402.081 163.913 402.511 164.1C402.949 164.287 403.425 164.38 403.939 164.38ZM412.982 165.64C412.319 165.64 411.726 165.523 411.204 165.29C410.69 165.047 410.256 164.697 409.902 164.24L410.798 163.344C411.012 163.671 411.306 163.932 411.68 164.128C412.062 164.315 412.487 164.408 412.954 164.408C413.392 164.408 413.775 164.324 414.102 164.156C414.438 163.988 414.699 163.755 414.886 163.456C415.082 163.148 415.18 162.784 415.18 162.364C415.18 161.935 415.086 161.571 414.9 161.272C414.713 160.973 414.461 160.749 414.144 160.6C413.836 160.441 413.495 160.362 413.122 160.362C412.739 160.362 412.389 160.409 412.072 160.502C411.764 160.595 411.47 160.754 411.19 160.978L411.204 160.138C411.362 159.942 411.544 159.783 411.75 159.662C411.955 159.541 412.188 159.447 412.45 159.382C412.711 159.317 413.014 159.284 413.36 159.284C414.032 159.284 414.601 159.424 415.068 159.704C415.534 159.984 415.889 160.362 416.132 160.838C416.384 161.314 416.51 161.846 416.51 162.434C416.51 163.05 416.356 163.601 416.048 164.086C415.749 164.571 415.334 164.954 414.802 165.234C414.27 165.505 413.663 165.64 412.982 165.64ZM411.19 160.978L410.476 160.264L410.91 155.784H412.114L411.624 160.39L411.19 160.978ZM411.176 156.96L410.91 155.784H416.02V156.96H411.176Z" fill="white"/>
<rect x="392" y="181" width="8" height="8" rx="1" fill="#50D1B2"/>
<path d="M410.984 189.5V181.172H412.112V189.5H410.984ZM411.752 189.5V188.468H416.216V189.5H411.752ZM419.807 189.62C419.239 189.62 418.727 189.492 418.271 189.236C417.815 188.972 417.455 188.616 417.191 188.168C416.927 187.72 416.795 187.212 416.795 186.644C416.795 186.084 416.923 185.58 417.179 185.132C417.443 184.684 417.795 184.332 418.235 184.076C418.683 183.812 419.183 183.68 419.735 183.68C420.263 183.68 420.727 183.8 421.127 184.04C421.535 184.28 421.851 184.612 422.075 185.036C422.307 185.46 422.423 185.94 422.423 186.476C422.423 186.556 422.419 186.644 422.411 186.74C422.403 186.828 422.387 186.932 422.363 187.052H417.551V186.152H421.787L421.391 186.5C421.391 186.116 421.323 185.792 421.187 185.528C421.051 185.256 420.859 185.048 420.611 184.904C420.363 184.752 420.063 184.676 419.711 184.676C419.343 184.676 419.019 184.756 418.739 184.916C418.459 185.076 418.243 185.3 418.091 185.588C417.939 185.876 417.863 186.216 417.863 186.608C417.863 187.008 417.943 187.36 418.103 187.664C418.263 187.96 418.491 188.192 418.787 188.36C419.083 188.52 419.423 188.6 419.807 188.6C420.127 188.6 420.419 188.544 420.683 188.432C420.955 188.32 421.187 188.152 421.379 187.928L422.075 188.636C421.803 188.956 421.467 189.2 421.067 189.368C420.675 189.536 420.255 189.62 419.807 189.62ZM425.965 192.008C425.381 192.008 424.861 191.9 424.405 191.684C423.957 191.468 423.597 191.164 423.325 190.772L424.021 190.064C424.253 190.36 424.529 190.584 424.849 190.736C425.169 190.896 425.549 190.976 425.989 190.976C426.573 190.976 427.033 190.82 427.369 190.508C427.713 190.204 427.885 189.792 427.885 189.272V187.856L428.077 186.572L427.885 185.3V183.8H428.965V189.272C428.965 189.816 428.837 190.292 428.581 190.7C428.333 191.108 427.981 191.428 427.525 191.66C427.077 191.892 426.557 192.008 425.965 192.008ZM425.965 189.404C425.445 189.404 424.977 189.28 424.561 189.032C424.153 188.784 423.829 188.444 423.589 188.012C423.349 187.572 423.229 187.08 423.229 186.536C423.229 185.992 423.349 185.508 423.589 185.084C423.829 184.652 424.153 184.312 424.561 184.064C424.977 183.808 425.445 183.68 425.965 183.68C426.413 183.68 426.809 183.768 427.153 183.944C427.497 184.12 427.769 184.368 427.969 184.688C428.177 185 428.289 185.368 428.305 185.792V187.304C428.281 187.72 428.165 188.088 427.957 188.408C427.757 188.72 427.485 188.964 427.141 189.14C426.797 189.316 426.405 189.404 425.965 189.404ZM426.181 188.384C426.533 188.384 426.841 188.308 427.105 188.156C427.377 188.004 427.585 187.792 427.729 187.52C427.873 187.24 427.945 186.916 427.945 186.548C427.945 186.18 427.869 185.86 427.717 185.588C427.573 185.308 427.369 185.092 427.105 184.94C426.841 184.78 426.529 184.7 426.169 184.7C425.809 184.7 425.493 184.78 425.221 184.94C424.949 185.092 424.733 185.308 424.573 185.588C424.421 185.86 424.345 186.176 424.345 186.536C424.345 186.896 424.421 187.216 424.573 187.496C424.733 187.776 424.949 187.996 425.221 188.156C425.501 188.308 425.821 188.384 426.181 188.384ZM433.19 189.62C432.622 189.62 432.11 189.492 431.654 189.236C431.198 188.972 430.838 188.616 430.574 188.168C430.31 187.72 430.178 187.212 430.178 186.644C430.178 186.084 430.306 185.58 430.562 185.132C430.826 184.684 431.178 184.332 431.618 184.076C432.066 183.812 432.566 183.68 433.118 183.68C433.646 183.68 434.11 183.8 434.51 184.04C434.918 184.28 435.234 184.612 435.458 185.036C435.69 185.46 435.806 185.94 435.806 186.476C435.806 186.556 435.802 186.644 435.794 186.74C435.786 186.828 435.77 186.932 435.746 187.052H430.934V186.152H435.17L434.774 186.5C434.774 186.116 434.706 185.792 434.57 185.528C434.434 185.256 434.242 185.048 433.994 184.904C433.746 184.752 433.446 184.676 433.094 184.676C432.726 184.676 432.402 184.756 432.122 184.916C431.842 185.076 431.626 185.3 431.474 185.588C431.322 185.876 431.246 186.216 431.246 186.608C431.246 187.008 431.326 187.36 431.486 187.664C431.646 187.96 431.874 188.192 432.17 188.36C432.466 188.52 432.806 188.6 433.19 188.6C433.51 188.6 433.802 188.544 434.066 188.432C434.338 188.32 434.57 188.152 434.762 187.928L435.458 188.636C435.186 188.956 434.85 189.2 434.45 189.368C434.058 189.536 433.638 189.62 433.19 189.62ZM441.015 189.5V186.176C441.015 185.744 440.879 185.388 440.607 185.108C440.335 184.828 439.983 184.688 439.551 184.688C439.263 184.688 439.007 184.752 438.783 184.88C438.559 185.008 438.383 185.184 438.255 185.408C438.127 185.632 438.063 185.888 438.063 186.176L437.619 185.924C437.619 185.492 437.715 185.108 437.907 184.772C438.099 184.436 438.367 184.172 438.711 183.98C439.055 183.78 439.443 183.68 439.875 183.68C440.307 183.68 440.687 183.788 441.015 184.004C441.351 184.22 441.615 184.504 441.807 184.856C441.999 185.2 442.095 185.568 442.095 185.96V189.5H441.015ZM436.983 189.5V183.8H438.063V189.5H436.983ZM445.97 189.62C445.442 189.62 444.97 189.492 444.554 189.236C444.138 188.972 443.806 188.616 443.558 188.168C443.318 187.72 443.198 187.216 443.198 186.656C443.198 186.096 443.318 185.592 443.558 185.144C443.806 184.696 444.138 184.34 444.554 184.076C444.97 183.812 445.442 183.68 445.97 183.68C446.394 183.68 446.778 183.772 447.122 183.956C447.466 184.132 447.742 184.38 447.95 184.7C448.166 185.012 448.286 185.376 448.31 185.792V187.508C448.286 187.916 448.17 188.28 447.962 188.6C447.754 188.92 447.478 189.172 447.134 189.356C446.79 189.532 446.402 189.62 445.97 189.62ZM446.15 188.6C446.51 188.6 446.822 188.516 447.086 188.348C447.358 188.18 447.57 187.952 447.722 187.664C447.874 187.368 447.95 187.032 447.95 186.656C447.95 186.264 447.87 185.924 447.71 185.636C447.558 185.348 447.346 185.12 447.074 184.952C446.81 184.784 446.498 184.7 446.138 184.7C445.778 184.7 445.462 184.784 445.19 184.952C444.918 185.12 444.702 185.352 444.542 185.648C444.39 185.936 444.314 186.268 444.314 186.644C444.314 187.028 444.39 187.368 444.542 187.664C444.702 187.952 444.918 188.18 445.19 188.348C445.47 188.516 445.79 188.6 446.15 188.6ZM448.97 189.5H447.878V187.964L448.082 186.572L447.878 185.192V180.932H448.97V189.5ZM451.826 189.5V181.172H452.942V189.5H451.826ZM450.122 182.18V181.172H452.822V182.18H450.122Z" fill="white"/>
<path d="M456.964 189.62C456.42 189.62 455.924 189.52 455.476 189.32C455.036 189.112 454.664 188.812 454.36 188.42L455.128 187.652C455.312 187.932 455.564 188.156 455.884 188.324C456.204 188.484 456.56 188.564 456.952 188.564C457.32 188.564 457.636 188.496 457.9 188.36C458.172 188.216 458.384 188.016 458.536 187.76C458.696 187.504 458.776 187.208 458.776 186.872C458.776 186.528 458.696 186.232 458.536 185.984C458.384 185.728 458.168 185.532 457.888 185.396C457.608 185.26 457.276 185.192 456.892 185.192C456.748 185.192 456.604 185.204 456.46 185.228C456.316 185.244 456.176 185.272 456.04 185.312L456.52 184.664C456.672 184.592 456.836 184.536 457.012 184.496C457.188 184.456 457.364 184.436 457.54 184.436C457.988 184.436 458.388 184.54 458.74 184.748C459.1 184.956 459.384 185.248 459.592 185.624C459.808 186 459.916 186.436 459.916 186.932C459.916 187.46 459.788 187.928 459.532 188.336C459.284 188.736 458.94 189.052 458.5 189.284C458.06 189.508 457.548 189.62 456.964 189.62ZM456.04 185.312V184.628L458.476 181.856L459.82 181.844L457.312 184.688L456.04 185.312ZM454.756 182.18V181.172H459.82V181.844L458.836 182.18H454.756ZM464.417 189.62C463.793 189.62 463.221 189.444 462.701 189.092C462.189 188.74 461.781 188.244 461.477 187.604C461.173 186.956 461.021 186.196 461.021 185.324C461.021 184.452 461.169 183.696 461.465 183.056C461.769 182.416 462.177 181.924 462.689 181.58C463.201 181.228 463.765 181.052 464.381 181.052C465.013 181.052 465.585 181.228 466.097 181.58C466.609 181.924 467.013 182.416 467.309 183.056C467.613 183.696 467.765 184.456 467.765 185.336C467.765 186.208 467.613 186.968 467.309 187.616C467.013 188.256 466.609 188.752 466.097 189.104C465.593 189.448 465.033 189.62 464.417 189.62ZM464.393 188.552C464.833 188.552 465.217 188.432 465.545 188.192C465.881 187.944 466.145 187.58 466.337 187.1C466.529 186.62 466.625 186.028 466.625 185.324C466.625 184.62 466.529 184.032 466.337 183.56C466.145 183.08 465.881 182.72 465.545 182.48C465.209 182.232 464.821 182.108 464.381 182.108C463.949 182.108 463.565 182.232 463.229 182.48C462.893 182.72 462.629 183.08 462.437 183.56C462.253 184.032 462.161 184.62 462.161 185.324C462.161 186.028 462.253 186.62 462.437 187.1C462.629 187.58 462.893 187.944 463.229 188.192C463.565 188.432 463.953 188.552 464.393 188.552Z" fill="white"/>
<rect x="392" y="204" width="8" height="8" rx="1" fill="#E23738"/>
<path d="M410.792 212.5V203.932H411.872V212.5H410.792ZM416.092 212.62C415.524 212.62 415.012 212.492 414.556 212.236C414.1 211.972 413.74 211.616 413.476 211.168C413.212 210.72 413.08 210.212 413.08 209.644C413.08 209.084 413.208 208.58 413.464 208.132C413.728 207.684 414.08 207.332 414.52 207.076C414.968 206.812 415.468 206.68 416.02 206.68C416.548 206.68 417.012 206.8 417.412 207.04C417.82 207.28 418.136 207.612 418.36 208.036C418.592 208.46 418.708 208.94 418.708 209.476C418.708 209.556 418.704 209.644 418.696 209.74C418.688 209.828 418.672 209.932 418.648 210.052H413.836V209.152H418.072L417.676 209.5C417.676 209.116 417.608 208.792 417.472 208.528C417.336 208.256 417.144 208.048 416.896 207.904C416.648 207.752 416.348 207.676 415.996 207.676C415.628 207.676 415.304 207.756 415.024 207.916C414.744 208.076 414.528 208.3 414.376 208.588C414.224 208.876 414.148 209.216 414.148 209.608C414.148 210.008 414.228 210.36 414.388 210.664C414.548 210.96 414.776 211.192 415.072 211.36C415.368 211.52 415.708 211.6 416.092 211.6C416.412 211.6 416.704 211.544 416.968 211.432C417.24 211.32 417.472 211.152 417.664 210.928L418.36 211.636C418.088 211.956 417.752 212.2 417.352 212.368C416.96 212.536 416.54 212.62 416.092 212.62ZM422.25 215.008C421.666 215.008 421.146 214.9 420.69 214.684C420.242 214.468 419.882 214.164 419.61 213.772L420.306 213.064C420.538 213.36 420.814 213.584 421.134 213.736C421.454 213.896 421.834 213.976 422.274 213.976C422.858 213.976 423.318 213.82 423.654 213.508C423.998 213.204 424.17 212.792 424.17 212.272V210.856L424.362 209.572L424.17 208.3V206.8H425.25V212.272C425.25 212.816 425.122 213.292 424.866 213.7C424.618 214.108 424.266 214.428 423.81 214.66C423.362 214.892 422.842 215.008 422.25 215.008ZM422.25 212.404C421.73 212.404 421.262 212.28 420.846 212.032C420.438 211.784 420.114 211.444 419.874 211.012C419.634 210.572 419.514 210.08 419.514 209.536C419.514 208.992 419.634 208.508 419.874 208.084C420.114 207.652 420.438 207.312 420.846 207.064C421.262 206.808 421.73 206.68 422.25 206.68C422.698 206.68 423.094 206.768 423.438 206.944C423.782 207.12 424.054 207.368 424.254 207.688C424.462 208 424.574 208.368 424.59 208.792V210.304C424.566 210.72 424.45 211.088 424.242 211.408C424.042 211.72 423.77 211.964 423.426 212.14C423.082 212.316 422.69 212.404 422.25 212.404ZM422.466 211.384C422.818 211.384 423.126 211.308 423.39 211.156C423.662 211.004 423.87 210.792 424.014 210.52C424.158 210.24 424.23 209.916 424.23 209.548C424.23 209.18 424.154 208.86 424.002 208.588C423.858 208.308 423.654 208.092 423.39 207.94C423.126 207.78 422.814 207.7 422.454 207.7C422.094 207.7 421.778 207.78 421.506 207.94C421.234 208.092 421.018 208.308 420.858 208.588C420.706 208.86 420.63 209.176 420.63 209.536C420.63 209.896 420.706 210.216 420.858 210.496C421.018 210.776 421.234 210.996 421.506 211.156C421.786 211.308 422.106 211.384 422.466 211.384ZM429.475 212.62C428.907 212.62 428.395 212.492 427.939 212.236C427.483 211.972 427.123 211.616 426.859 211.168C426.595 210.72 426.463 210.212 426.463 209.644C426.463 209.084 426.591 208.58 426.847 208.132C427.111 207.684 427.463 207.332 427.903 207.076C428.351 206.812 428.851 206.68 429.403 206.68C429.931 206.68 430.395 206.8 430.795 207.04C431.203 207.28 431.519 207.612 431.743 208.036C431.975 208.46 432.091 208.94 432.091 209.476C432.091 209.556 432.087 209.644 432.079 209.74C432.071 209.828 432.055 209.932 432.031 210.052H427.219V209.152H431.455L431.059 209.5C431.059 209.116 430.991 208.792 430.855 208.528C430.719 208.256 430.527 208.048 430.279 207.904C430.031 207.752 429.731 207.676 429.379 207.676C429.011 207.676 428.687 207.756 428.407 207.916C428.127 208.076 427.911 208.3 427.759 208.588C427.607 208.876 427.531 209.216 427.531 209.608C427.531 210.008 427.611 210.36 427.771 210.664C427.931 210.96 428.159 211.192 428.455 211.36C428.751 211.52 429.091 211.6 429.475 211.6C429.795 211.6 430.087 211.544 430.351 211.432C430.623 211.32 430.855 211.152 431.047 210.928L431.743 211.636C431.471 211.956 431.135 212.2 430.735 212.368C430.343 212.536 429.923 212.62 429.475 212.62ZM437.301 212.5V209.176C437.301 208.744 437.165 208.388 436.893 208.108C436.621 207.828 436.269 207.688 435.837 207.688C435.549 207.688 435.293 207.752 435.069 207.88C434.845 208.008 434.669 208.184 434.541 208.408C434.413 208.632 434.349 208.888 434.349 209.176L433.905 208.924C433.905 208.492 434.001 208.108 434.193 207.772C434.385 207.436 434.653 207.172 434.997 206.98C435.341 206.78 435.729 206.68 436.161 206.68C436.593 206.68 436.973 206.788 437.301 207.004C437.637 207.22 437.901 207.504 438.093 207.856C438.285 208.2 438.381 208.568 438.381 208.96V212.5H437.301ZM433.269 212.5V206.8H434.349V212.5H433.269ZM442.255 212.62C441.727 212.62 441.255 212.492 440.839 212.236C440.423 211.972 440.091 211.616 439.843 211.168C439.603 210.72 439.483 210.216 439.483 209.656C439.483 209.096 439.603 208.592 439.843 208.144C440.091 207.696 440.423 207.34 440.839 207.076C441.255 206.812 441.727 206.68 442.255 206.68C442.679 206.68 443.063 206.772 443.407 206.956C443.751 207.132 444.027 207.38 444.235 207.7C444.451 208.012 444.571 208.376 444.595 208.792V210.508C444.571 210.916 444.455 211.28 444.247 211.6C444.039 211.92 443.763 212.172 443.419 212.356C443.075 212.532 442.687 212.62 442.255 212.62ZM442.435 211.6C442.795 211.6 443.107 211.516 443.371 211.348C443.643 211.18 443.855 210.952 444.007 210.664C444.159 210.368 444.235 210.032 444.235 209.656C444.235 209.264 444.155 208.924 443.995 208.636C443.843 208.348 443.631 208.12 443.359 207.952C443.095 207.784 442.783 207.7 442.423 207.7C442.063 207.7 441.747 207.784 441.475 207.952C441.203 208.12 440.987 208.352 440.827 208.648C440.675 208.936 440.599 209.268 440.599 209.644C440.599 210.028 440.675 210.368 440.827 210.664C440.987 210.952 441.203 211.18 441.475 211.348C441.755 211.516 442.075 211.6 442.435 211.6ZM445.255 212.5H444.163V210.964L444.367 209.572L444.163 208.192V203.932H445.255V212.5ZM446.431 211.816L449.503 208.576C449.815 208.256 450.059 207.98 450.235 207.748C450.411 207.508 450.535 207.288 450.607 207.088C450.687 206.888 450.727 206.68 450.727 206.464C450.727 206.04 450.591 205.708 450.319 205.468C450.047 205.228 449.695 205.108 449.263 205.108C448.839 205.108 448.467 205.212 448.147 205.42C447.827 205.62 447.543 205.932 447.295 206.356L446.503 205.696C446.831 205.152 447.227 204.744 447.691 204.472C448.155 204.192 448.691 204.052 449.299 204.052C449.811 204.052 450.255 204.152 450.631 204.352C451.015 204.552 451.311 204.832 451.519 205.192C451.727 205.552 451.831 205.972 451.831 206.452C451.831 206.796 451.787 207.104 451.699 207.376C451.619 207.648 451.471 207.928 451.255 208.216C451.047 208.496 450.755 208.832 450.379 209.224L447.895 211.78L446.431 211.816ZM446.431 212.5V211.816L447.391 211.492H452.023V212.5H446.431Z" fill="white"/>
<path d="M460.076 212.5V204.172H461.192V212.5H460.076ZM458.372 205.18V204.172H461.072V205.18H458.372ZM465.124 212.62C464.58 212.62 464.084 212.52 463.636 212.32C463.196 212.112 462.824 211.812 462.52 211.42L463.288 210.652C463.472 210.932 463.724 211.156 464.044 211.324C464.364 211.484 464.72 211.564 465.112 211.564C465.48 211.564 465.796 211.496 466.06 211.36C466.332 211.216 466.544 211.016 466.696 210.76C466.856 210.504 466.936 210.208 466.936 209.872C466.936 209.528 466.856 209.232 466.696 208.984C466.544 208.728 466.328 208.532 466.048 208.396C465.768 208.26 465.436 208.192 465.052 208.192C464.908 208.192 464.764 208.204 464.62 208.228C464.476 208.244 464.336 208.272 464.2 208.312L464.68 207.664C464.832 207.592 464.996 207.536 465.172 207.496C465.348 207.456 465.524 207.436 465.7 207.436C466.148 207.436 466.548 207.54 466.9 207.748C467.26 207.956 467.544 208.248 467.752 208.624C467.968 209 468.076 209.436 468.076 209.932C468.076 210.46 467.948 210.928 467.692 211.336C467.444 211.736 467.1 212.052 466.66 212.284C466.22 212.508 465.708 212.62 465.124 212.62ZM464.2 208.312V207.628L466.636 204.856L467.98 204.844L465.472 207.688L464.2 208.312ZM462.916 205.18V204.172H467.98V204.844L466.996 205.18H462.916Z" fill="white"/>
</g>
<defs>
<filter id="filter0_d_336_2846" x="370" y="131.5" width="119" height="104" filterUnits="userSpaceOnUse" color-interpolation-filters="sRGB">
<feFlood flood-opacity="0" result="BackgroundImageFix"/>
<feColorMatrix in="SourceAlpha" type="matrix" values="0 0 0 0 0 0 0 0 0 0 0 0 0 0 0 0 0 0 127 0" result="hardAlpha"/>
<feOffset/>
<feGaussianBlur stdDeviation="6"/>
<feComposite in2="hardAlpha" operator="out"/>
<feColorMatrix type="matrix" values="0 0 0 0 0 0 0 0 0 0 0 0 0 0 0 0 0 0 0.2 0"/>
<feBlend mode="normal" in2="BackgroundImageFix" result="effect1_dropShadow_336_2846"/>
<feBlend mode="normal" in="SourceGraphic" in2="effect1_dropShadow_336_2846" result="shape"/>
</filter>
<linearGradient id="paint0_linear_336_2846" x1="717.704" y1="181.565" x2="32.8828" y2="181.565" gradientUnits="userSpaceOnUse">
<stop stop-color="#E23738"/>
<stop offset="1" stop-color="#E23738" stop-opacity="0.2"/>
</linearGradient>
<linearGradient id="paint1_linear_336_2846" x1="343.829" y1="232.787" x2="331.829" y2="232.787" gradientUnits="userSpaceOnUse">
<stop stop-color="#E23738"/>
<stop offset="1" stop-color="#E23738" stop-opacity="0.2"/>
</linearGradient>
<linearGradient id="paint2_linear_336_2846" x1="340.829" y1="233.394" x2="334.829" y2="233.394" gradientUnits="userSpaceOnUse">
<stop stop-color="#E23738"/>
<stop offset="1" stop-color="#E23738" stop-opacity="0.2"/>
</linearGradient>
<linearGradient id="paint3_linear_336_2846" x1="717.704" y1="134.117" x2="32.8828" y2="134.117" gradientUnits="userSpaceOnUse">
<stop stop-color="#50D1B2"/>
<stop offset="1" stop-color="#50D1B2" stop-opacity="0.2"/>
</linearGradient>
<linearGradient id="paint4_linear_336_2846" x1="343.829" y1="117.66" x2="331.829" y2="117.66" gradientUnits="userSpaceOnUse">
<stop stop-color="#50D1B2"/>
<stop offset="1" stop-color="#50D1B2" stop-opacity="0.2"/>
</linearGradient>
<linearGradient id="paint5_linear_336_2846" x1="340.829" y1="118.33" x2="334.829" y2="118.33" gradientUnits="userSpaceOnUse">
<stop stop-color="#50D1B2"/>
<stop offset="1" stop-color="#50D1B2" stop-opacity="0.2"/>
</linearGradient>
</defs>
</svg>
