<svg width="139" height="84" viewBox="0 0 139 84" fill="none" xmlns="http://www.w3.org/2000/svg">
<path d="M0.0169568 9.35191C2.112 10.7354 4.08259 10.3603 6.23987 9.28161C10.5337 7.14772 14.9105 5.3186 19.7643 5.69379C21.6727 5.83449 23.6225 5.62344 25.5101 5.2248C27.2318 4.84961 28.7461 5.34203 30.364 5.78757C33.4132 6.65519 36.3587 7.99183 39.5947 8.15598C40.5696 8.20287 41.6275 9.07052 42.4572 9.8209C43.9092 11.181 45.5894 11.6499 47.3526 12.1658C49.738 12.8693 52.3309 13.3617 54.3637 14.8156C56.9566 16.6915 59.7569 17.9344 62.4742 19.4117C67.5563 22.2021 72.7213 24.8051 77.7411 27.6894C79.9191 28.9556 81.8275 30.7612 83.8603 32.3323C84.9804 33.1999 86.1213 34.0676 87.2414 34.9352C89.938 37.0925 92.5309 39.4843 95.3727 41.3603C98.7745 43.6114 101.16 47.0584 104.085 49.8724C105.972 51.6545 107.756 53.5774 109.519 55.5237C111.573 57.8217 113.523 60.237 115.556 62.535C116.427 63.5199 117.381 64.4344 118.418 65.2317C120.472 66.8028 122.069 68.8898 124.662 71.2113C121.032 71.0002 118.335 70.7189 115.805 69.523C114.228 68.7726 112.652 68.4209 110.971 68.6788C110.121 68.8195 109.353 69.1947 109.063 70.203C108.773 71.2113 109.188 72.0087 109.831 72.7121C110.847 73.8143 111.946 74.6115 113.357 74.9867C118.19 76.2529 122.982 77.613 127.856 78.973C128.271 79.6062 128.665 80.2393 129.08 80.849C131.092 83.8036 133.851 84.343 136.88 83.8271C138.456 83.5692 139.244 82.1622 138.933 80.427C138.809 79.8173 138.643 79.2076 138.394 78.6682C136.9 75.315 136.734 71.4224 135.054 68.1395C134.722 67.4829 134.598 66.6387 134.577 65.8883C134.411 61.7613 133.727 57.8921 131.113 54.7264C130.719 54.234 130.802 53.2726 130.574 52.5457C130.345 51.8657 130.014 51.2325 129.536 50.1538C127.006 54.8671 129.059 59.6507 128.167 64.411C127.379 64.0358 126.715 63.8717 126.218 63.4496C124.351 61.8785 122.525 60.2136 120.7 58.5721C120.493 58.3845 120.244 58.1735 120.119 57.9156C117.817 53.2726 113.606 50.8104 110.474 47.1054C109.167 45.5577 107.653 44.268 105.848 43.2597C103.794 42.1576 102.01 40.3051 100.31 38.5464C96.8247 34.9821 93.2984 31.4881 88.9009 29.3776C88.2786 29.0728 87.677 28.6038 87.1792 28.0879C83.7566 24.5705 79.4835 22.718 75.4179 20.4669C71.5804 18.333 67.7222 16.2929 63.8433 14.2293C61.3748 12.9162 58.5745 12.3299 56.4795 10.1257C50.7337 8.78909 45.942 4.68549 40.3207 3.02058C34.7201 1.37913 29.0987 -0.191933 23.2492 0.0191116C21.1749 0.0894623 19.1005 0.112816 17.047 0.159714C15.3875 0.206619 13.7696 0.394211 12.2139 1.21494C11.1145 1.80117 9.84915 2.01224 8.62532 2.29363C5.99095 2.92677 3.7507 4.47446 1.61417 6.20972C0.680734 6.9601 -0.128244 7.89805 0.0169568 9.35191Z" fill="#ABABC4"/>
</svg>
