<svg width="139" height="84" viewBox="0 0 139 84" fill="none" xmlns="http://www.w3.org/2000/svg">
<path d="M0.0169568 74.6481C2.112 73.2646 4.08259 73.6397 6.23987 74.7184C10.5337 76.8523 14.9105 78.6814 19.7643 78.3062C21.6727 78.1655 23.6225 78.3766 25.5101 78.7752C27.2318 79.1504 28.7461 78.658 30.364 78.2124C33.4132 77.3448 36.3587 76.0082 39.5947 75.844C40.5696 75.7971 41.6275 74.9295 42.4572 74.1791C43.9092 72.819 45.5894 72.3501 47.3526 71.8342C49.738 71.1307 52.3309 70.6383 54.3637 69.1844C56.9566 67.3085 59.7569 66.0656 62.4742 64.5883C67.5563 61.7979 72.7213 59.1949 77.7411 56.3106C79.9191 55.0444 81.8275 53.2388 83.8603 51.6677C84.9804 50.8001 86.1213 49.9324 87.2414 49.0648C89.938 46.9075 92.5309 44.5157 95.3727 42.6397C98.7745 40.3886 101.16 36.9416 104.085 34.1276C105.972 32.3455 107.756 30.4226 109.519 28.4763C111.573 26.1783 113.523 23.763 115.556 21.465C116.427 20.4801 117.381 19.5656 118.418 18.7683C120.472 17.1972 122.069 15.1102 124.662 12.7887C121.032 12.9998 118.335 13.2811 115.805 14.477C114.228 15.2274 112.652 15.5791 110.971 15.3212C110.121 15.1805 109.353 14.8053 109.063 13.797C108.773 12.7887 109.188 11.9913 109.831 11.2879C110.847 10.1857 111.946 9.38854 113.357 9.01335C118.19 7.74708 122.982 6.38702 127.856 5.02696C128.271 4.39382 128.665 3.76069 129.08 3.15101C131.092 0.196387 133.851 -0.342994 136.88 0.172892C138.456 0.430835 139.244 1.8378 138.933 3.57305C138.809 4.18273 138.643 4.79242 138.394 5.33175C136.9 8.68501 136.734 12.5776 135.054 15.8605C134.722 16.5171 134.598 17.3613 134.577 18.1117C134.411 22.2387 133.727 26.1079 131.113 29.2736C130.719 29.766 130.802 30.7274 130.574 31.4543C130.345 32.1343 130.014 32.7675 129.536 33.8462C127.006 29.1329 129.059 24.3493 128.167 19.589C127.379 19.9642 126.715 20.1283 126.218 20.5504C124.351 22.1215 122.525 23.7864 120.7 25.4279C120.493 25.6155 120.244 25.8265 120.119 26.0844C117.817 30.7274 113.606 33.1896 110.474 36.8946C109.167 38.4423 107.653 39.732 105.848 40.7403C103.794 41.8424 102.01 43.6949 100.31 45.4536C96.8247 49.0179 93.2984 52.5119 88.9009 54.6224C88.2786 54.9272 87.677 55.3962 87.1792 55.9121C83.7566 59.4295 79.4835 61.282 75.4179 63.5331C71.5804 65.667 67.7222 67.7071 63.8433 69.7707C61.3748 71.0838 58.5745 71.6701 56.4795 73.8743C50.7337 75.2109 45.942 79.3145 40.3207 80.9794C34.7201 82.6209 29.0987 84.1919 23.2492 83.9809C21.1749 83.9105 19.1005 83.8872 17.047 83.8403C15.3875 83.7934 13.7696 83.6058 12.2139 82.7851C11.1145 82.1988 9.84915 81.9878 8.62532 81.7064C5.99095 81.0732 3.7507 79.5255 1.61417 77.7903C0.680734 77.0399 -0.128244 76.102 0.0169568 74.6481Z" fill="#ABABC4"/>
</svg>
