<svg width="85" height="85" viewBox="0 0 85 85" fill="none" xmlns="http://www.w3.org/2000/svg">
<path fill-rule="evenodd" clip-rule="evenodd" d="M42.6667 0.848145C65.8628 0.848145 84.6667 19.6522 84.6667 42.8481C84.6667 66.0442 65.8627 84.8481 42.6667 84.8481C19.4707 84.8481 0.666748 66.0441 0.666748 42.8481C0.666748 19.6521 19.4708 0.848145 42.6667 0.848145Z" fill="#FF9800"/>
<mask id="mask0_48_1746" style="mask-type:luminance" maskUnits="userSpaceOnUse" x="0" y="0" width="85" height="85">
<path d="M42.6667 0.848145C65.8628 0.848145 84.6667 19.6522 84.6667 42.8481C84.6667 66.0442 65.8627 84.8481 42.6667 84.8481C19.4707 84.8481 0.666748 66.0441 0.666748 42.8481C0.666748 19.6521 19.4708 0.848145 42.6667 0.848145Z" fill="white"/>
</mask>
<g mask="url(#mask0_48_1746)">
<path fill-rule="evenodd" clip-rule="evenodd" d="M98.281 69.1639L98.3826 69.2526L98.6028 69.4534L98.8182 69.6588L99.0288 69.8687L99.2346 70.083L99.4354 70.3014L99.5583 70.4412L113.911 84.7937L113.703 84.5863L113.705 84.5879L113.911 84.7937L113.97 84.8551L114.028 84.9176L114.085 84.9811L114.14 85.0457L114.194 85.1113L114.246 85.1779L114.297 85.2454L114.347 85.3139L114.396 85.3834L114.443 85.4537L114.489 85.5249L114.533 85.5969L114.576 85.6699L114.618 85.7436L114.659 85.818L114.698 85.8933L114.737 85.9693L114.774 86.0461L114.809 86.1235L114.844 86.2016L114.877 86.2803L114.909 86.3597L114.94 86.4397L114.969 86.5202L114.998 86.6014L115.025 86.683L115.051 86.7652L115.076 86.8479L115.099 86.931L115.122 87.0146L115.143 87.0986L115.164 87.1831L115.19 87.275L115.215 87.3678L115.238 87.4611L115.26 87.555L115.28 87.6496L115.298 87.7448L115.315 87.8405L115.33 87.9368L115.343 88.0337L115.355 88.1311L115.365 88.229L115.373 88.3275L115.379 88.4264L115.383 88.5258L115.386 88.6257L115.387 88.7259H115.382L115.382 88.7574V88.7621L115.381 88.8314L115.38 88.9006L115.378 88.9697L115.375 89.0387L115.371 89.1076L115.367 89.1763L115.362 89.245L115.356 89.3135L115.35 89.3818L115.343 89.4501L115.335 89.5181L115.326 89.5861L115.317 89.6539L115.308 89.7215L115.297 89.7889L115.286 89.8562L115.278 89.9235L115.269 89.9906L115.259 90.0575L115.249 90.1242L115.239 90.1906L115.227 90.2568L115.216 90.3227L115.204 90.3883L115.191 90.4536L115.178 90.5187L115.165 90.5834L115.151 90.6478L115.136 90.7119L115.121 90.7756L115.106 90.839L115.09 90.902L111.246 87.0582L111.202 87.0636L111.116 87.0736L111.03 87.0831L110.943 87.0919L110.857 87.0997L110.77 87.1065L110.682 87.1118L110.594 87.1156L110.506 87.1175L110.418 87.1174L110.33 87.1151L110.241 87.1104L110.152 87.103L110.062 87.0927V88.8847L116.475 95.297L115.996 94.8188L116.053 94.8706L116.164 94.9762L116.271 95.0826L116.375 95.1895L116.475 95.297L116.571 95.4052L116.664 95.514L116.754 95.6235L116.84 95.7337L116.923 95.8445L117.003 95.956L117.079 96.0682L117.153 96.1812L117.223 96.2948L117.291 96.4091L117.355 96.5242L117.417 96.64L117.476 96.7566L117.533 96.8739L117.587 96.992L117.638 97.1108L117.686 97.2305L117.733 97.351L117.777 97.4722L117.818 97.5943L117.856 97.7125L117.892 97.831L117.925 97.95L117.957 98.0695L117.986 98.1896L118.014 98.3101L118.04 98.4311L118.064 98.5527L118.086 98.6749L118.106 98.7976L118.125 98.9209L118.143 99.0449L118.159 99.1695L118.173 99.2948L118.187 99.4207L118.199 99.5473L118.209 99.6746L118.219 99.8027L118.227 99.9315L118.235 100.061L118.241 100.191L118.247 100.323L118.252 100.455L118.256 100.587L118.259 100.721L118.262 100.856L118.264 100.991L118.265 101.127L118.266 101.265L118.267 101.403L118.267 101.542L118.267 101.682L118.267 102.082L117.953 102.324L117.744 102.482L117.532 102.634L117.317 102.782L117.1 102.925L116.88 103.063L116.657 103.197L116.432 103.325L116.204 103.448L115.975 103.567L115.743 103.681L115.509 103.79L115.273 103.894L115.035 103.993L114.796 104.087L114.554 104.176L114.311 104.261L114.067 104.341L113.821 104.415L113.574 104.485L113.325 104.55L113.076 104.61L112.825 104.666L112.573 104.716L112.321 104.762L112.067 104.802L111.813 104.838L111.559 104.869L111.303 104.895L111.048 104.916L110.792 104.932L110.536 104.944L110.279 104.95L110.279 104.95L110.278 104.951H110.277H110.277H110.276H110.275L110.274 104.95L110.274 104.95L110.248 104.951L110.222 104.951L110.197 104.952L110.171 104.952L110.145 104.952L110.12 104.952L110.094 104.952L110.068 104.952L110.063 104.952H110.038L110.013 104.952L109.988 104.952L109.963 104.952L109.938 104.952L109.913 104.951L109.888 104.951L109.863 104.95L109.862 104.951L109.862 104.951L109.861 104.951H109.86L109.86 104.951H109.859L109.858 104.951L109.857 104.95L109.67 104.946L109.482 104.94L109.294 104.93L109.106 104.918L108.919 104.904L108.732 104.886L108.545 104.866L108.358 104.844L108.172 104.819L107.986 104.791L107.8 104.761L107.615 104.728L107.43 104.692L107.246 104.654L107.062 104.613L106.879 104.57L106.697 104.524L106.515 104.475L106.333 104.424L106.153 104.37L105.973 104.313L105.794 104.254L105.616 104.192L105.439 104.128L105.262 104.061L105.087 103.991L104.913 103.919L104.739 103.844L104.567 103.766L104.395 103.686L104.225 103.603L104.056 103.518L101.005 105.256L100.973 105.274L100.94 105.29L100.908 105.305L100.875 105.32L100.841 105.333L100.808 105.345L100.774 105.355L100.74 105.365L100.749 105.459L100.758 105.553L100.766 105.647L100.774 105.742L100.781 105.837L100.788 105.932L100.794 106.027L100.8 106.123L100.806 106.219L100.811 106.315L100.816 106.412L100.82 106.509L100.824 106.606L100.828 106.704L100.831 106.802L100.834 106.9L100.837 106.999L100.84 107.098L100.842 107.197L100.844 107.296L100.846 107.396L100.847 107.497L100.849 107.597L100.85 107.699L100.851 107.8L100.852 107.902L100.852 108.004L100.853 108.106L100.853 108.209L100.853 108.313L100.853 108.416L100.854 108.52L100.853 109.075L100.417 109.412L100.126 109.631L99.832 109.843L99.5337 110.048L99.2316 110.247L98.9259 110.439L98.6167 110.624L98.3041 110.802L97.9882 110.974L97.6692 111.138L97.3471 111.296L97.0222 111.448L96.6945 111.592L96.3642 111.73L96.0314 111.861L95.6962 111.985L95.3588 112.102L95.0193 112.213L94.6778 112.317L94.3344 112.414L93.9893 112.504L93.6425 112.588L93.2943 112.664L92.9448 112.734L92.594 112.798L92.2421 112.854L91.8893 112.904L91.5356 112.947L91.1812 112.983L90.8262 113.012L90.4708 113.035L90.115 113.051L89.759 113.06L89.758 113.06L89.757 113.06H89.756L89.7551 113.06H89.7541L89.7531 113.06L89.7521 113.06L89.7511 113.06L89.7154 113.06L89.6798 113.061L89.6442 113.061L89.6086 113.062L89.5729 113.062L89.5372 113.062L89.5016 113.062L89.466 113.062L89.4581 113.062L89.4235 113.062L89.3888 113.062L89.3542 113.062L89.3195 113.062L89.2849 113.061L89.2502 113.061L89.2155 113.06L89.1809 113.06L89.1799 113.06L89.1789 113.06L89.1779 113.06L89.1769 113.06L89.176 113.06H89.1749L89.174 113.06H89.173L88.8166 113.051L88.4603 113.036L88.1045 113.013L87.7491 112.984L87.3942 112.948L87.0401 112.905L86.6868 112.856L86.3345 112.8L85.9833 112.736L85.6333 112.667L85.2847 112.59L84.9375 112.506L84.592 112.416L84.2482 112.319L83.9062 112.215L83.5662 112.105L83.2284 111.987L82.8928 111.863L82.5596 111.732L82.2289 111.594L81.9008 111.45L81.5755 111.299L81.2531 111.14L80.9337 110.976L80.6174 110.804L80.3044 110.625L79.9949 110.44L79.6888 110.248L79.3864 110.049L79.0878 109.843L78.793 109.631L78.5024 109.412L78.0613 109.072L73.1054 104.116L73.0584 104.134L72.8745 104.2L72.6896 104.264L72.5038 104.325L72.3172 104.383L72.1298 104.438L71.9417 104.49L71.7528 104.54L71.5632 104.587L71.373 104.631L71.1822 104.672L70.9908 104.71L70.799 104.746L70.6066 104.778L70.4139 104.808L70.2207 104.835L70.0272 104.86L69.8333 104.881L69.6392 104.9L69.4449 104.915L69.2504 104.928L69.0557 104.939L68.8609 104.946L68.666 104.95L68.6653 104.951L68.6646 104.951H68.6639H68.6631H68.6624H68.6617L68.661 104.951L68.6603 104.95L68.6346 104.951L68.609 104.951L68.5833 104.952L68.5577 104.952L68.532 104.952L68.5064 104.952L68.4807 104.952L68.455 104.952L68.4493 104.952H68.4244L68.3994 104.952L68.3745 104.952L68.3496 104.952L68.3246 104.952L68.2997 104.951L68.2747 104.951L68.2498 104.95L68.249 104.951L68.2484 104.951L68.2476 104.951L68.2469 104.951H68.2462H68.2454H68.2448H68.244L67.9874 104.944L67.731 104.933L67.4748 104.917L67.2188 104.896L66.9634 104.87L66.7084 104.839L66.4541 104.804L66.2003 104.763L65.9475 104.718L65.6955 104.667L65.4445 104.612L65.1945 104.552L64.9458 104.487L64.6982 104.417L64.452 104.342L64.2072 104.263L63.9639 104.178L63.7224 104.089L63.4824 103.995L63.2443 103.895L63.0081 103.791L62.7739 103.682L62.5417 103.569L62.3118 103.45L62.084 103.326L61.8587 103.198L61.6358 103.064L61.4154 102.926L61.1977 102.783L60.9827 102.635L60.7705 102.482L60.5612 102.324L60.2436 102.079L13.6548 55.4902V55.0931L13.6549 54.9505L13.6554 54.8088L13.6562 54.668L13.6575 54.5282L13.6593 54.3893L13.6617 54.2513C13.6625 54.2055 13.6636 54.1598 13.6647 54.1142L13.6684 53.9779C13.6698 53.9326 13.6713 53.8874 13.673 53.8424C13.6746 53.7974 13.6763 53.7526 13.6783 53.7078C13.6802 53.663 13.6823 53.6185 13.6845 53.574C13.6868 53.5295 13.6892 53.4851 13.6918 53.4409C13.6944 53.3967 13.6971 53.3526 13.7 53.3087C13.7029 53.2647 13.7061 53.2208 13.7094 53.1771C13.7127 53.1334 13.7162 53.0898 13.7199 53.0463C13.7237 53.0028 13.7275 52.9595 13.7317 52.9162C13.7358 52.873 13.7402 52.8298 13.7447 52.7868C13.7493 52.7438 13.7541 52.7009 13.7591 52.6582C13.7642 52.6154 13.7695 52.5727 13.775 52.5301C13.7805 52.4875 13.7863 52.4451 13.7923 52.4027C13.7984 52.3603 13.8047 52.3181 13.8112 52.2759C13.8178 52.2338 13.8246 52.1917 13.8317 52.1498C13.8388 52.1078 13.8462 52.066 13.8539 52.0242C13.8616 51.9825 13.8696 51.9408 13.8779 51.8992C13.8862 51.8577 13.8947 51.8162 13.9036 51.7748C13.9126 51.7335 13.9218 51.6921 13.9313 51.6509C13.9408 51.6097 13.9507 51.5686 13.9609 51.5276C13.9711 51.4866 13.9816 51.4456 13.9925 51.4047C14.0034 51.3638 14.0146 51.3231 14.0262 51.2824C14.0378 51.2417 14.0497 51.201 14.0621 51.1605C14.0744 51.1199 14.087 51.0795 14.1001 51.0391C14.1132 50.9987 14.1266 50.9583 14.1404 50.9181C14.1547 50.8765 14.1694 50.8352 14.1844 50.794C14.1994 50.7528 14.2149 50.7117 14.2307 50.6709C14.2466 50.63 14.2628 50.5892 14.2795 50.5486C14.2962 50.508 14.3133 50.4674 14.3309 50.4271C14.3484 50.3868 14.3664 50.3467 14.3848 50.3066C14.4032 50.2665 14.4221 50.2266 14.4414 50.1869C14.4607 50.1471 14.4805 50.1075 14.5008 50.068C14.521 50.0285 14.5417 49.9892 14.5629 49.95C14.5841 49.9108 14.6057 49.8717 14.6279 49.8328C14.65 49.7939 14.6727 49.7551 14.6958 49.7164C14.7189 49.6778 14.7426 49.6392 14.7667 49.6009C14.7908 49.5625 14.8155 49.5242 14.8407 49.4861C14.8659 49.448 14.8916 49.41 14.9178 49.3722C14.944 49.3343 14.9708 49.2966 14.9981 49.259C15.0254 49.2215 15.0532 49.184 15.0816 49.1467C15.11 49.1094 15.139 49.0722 15.1685 49.0351C15.198 48.998 15.228 48.9611 15.2587 48.9243C15.2893 48.8875 15.3205 48.8508 15.3523 48.8143C15.3841 48.7777 15.4166 48.7413 15.4496 48.705C15.4826 48.6687 15.5161 48.6325 15.5503 48.5965C15.5845 48.5605 15.6194 48.5245 15.6548 48.4887C15.6902 48.4529 15.7262 48.4173 15.7629 48.3817C15.7996 48.3461 15.8369 48.3107 15.8748 48.2754C15.9128 48.2401 15.9514 48.2049 15.9906 48.1699C16.0298 48.1348 16.0697 48.0998 16.1103 48.065C16.1508 48.0301 16.192 47.9955 16.2339 47.9609C16.2758 47.9263 16.3183 47.8918 16.3616 47.8574C16.4048 47.823 16.4487 47.7888 16.4933 47.7547C16.538 47.7206 16.5833 47.6866 16.6293 47.6527C16.6753 47.6188 16.7221 47.585 16.7695 47.5513C16.817 47.5177 16.8651 47.484 16.914 47.4506C16.9629 47.4172 17.0125 47.3839 17.0628 47.3506L17.6786 46.9301L17.6781 46.9122L17.689 46.923L17.7575 46.8763L17.766 46.8847V46.8834L17.7724 46.8807L17.7788 46.878L17.7916 46.8726L17.798 46.8699L17.8173 46.8619L17.8237 46.8592L17.8301 46.8565L17.8365 46.8538L17.8429 46.8512L17.8493 46.8485L17.8557 46.8458L17.8622 46.8432L17.8686 46.8405L17.875 46.8379L17.8814 46.8352L17.8878 46.8326L17.8942 46.8299L17.9006 46.8273L17.907 46.8247L17.9135 46.8221L17.9199 46.8195L17.9263 46.8169L17.9327 46.8143L17.9391 46.8116L17.9455 46.809L17.9519 46.8065L17.9583 46.8038L17.9647 46.8013L17.9711 46.7987H17.9712L17.9776 46.7961L17.984 46.7935L17.9904 46.7909L17.9968 46.7884L18.0032 46.7858L18.0096 46.7832L18.016 46.7807L18.0224 46.7781L18.0288 46.7756L18.0352 46.773L18.0417 46.7705L18.048 46.7679L18.0544 46.7654L18.0608 46.7629L18.0673 46.7604L18.0737 46.7579L18.0801 46.7553L18.0865 46.7528L18.0929 46.7503L18.0993 46.7478L18.1057 46.7453L18.1121 46.7428L18.1185 46.7403L18.1249 46.7379L18.1378 46.7329L18.1442 46.7304L18.1506 46.7279L18.1634 46.723L18.1698 46.7206L18.1762 46.7181L18.1894 46.706L18.1869 46.703L18.1844 46.6999L18.1818 46.6969L18.1793 46.6938L18.1768 46.6908L18.1743 46.6877L18.1718 46.6847L18.1693 46.6816L18.1667 46.6786L18.1642 46.6755L18.1617 46.6725L18.1567 46.6663L18.1542 46.6633L18.1517 46.6602L18.1492 46.6571L18.1467 46.654L18.1442 46.6509L18.1417 46.6479L18.1392 46.6448L18.1367 46.6417L18.1342 46.6386L18.1317 46.6355L18.1292 46.6325L18.1267 46.6294L18.1242 46.6263L18.1217 46.6232L18.1193 46.6201L18.1168 46.617L18.1143 46.6139L18.1118 46.6108L18.1093 46.6077V46.6077L18.1069 46.6046L18.1044 46.6015L18.1019 46.5984L18.0994 46.5953L18.097 46.5922L18.0945 46.5891L18.092 46.5859L18.0896 46.5828L18.0871 46.5797L18.0846 46.5766L18.0822 46.5735L18.0797 46.5703L18.0773 46.5672L18.0748 46.5641L18.0724 46.561L18.0699 46.5578L18.0674 46.5547L18.065 46.5516L18.0625 46.5484L18.0601 46.5453L18.0576 46.5421L18.0552 46.539L18.0527 46.5359L18.0503 46.5327L18.0479 46.5296L18.0454 46.5265L18.043 46.5233L18.0406 46.5202L18.0381 46.517L18.0357 46.5138L18.0333 46.5107L18.0308 46.5075C18.0155 46.4876 18.0004 46.4676 17.9853 46.4475L17.9403 46.3868L17.8958 46.3255C17.8811 46.3049 17.8664 46.2842 17.8519 46.2634C17.8374 46.2427 17.8229 46.2218 17.8085 46.2008C17.7942 46.1798 17.7799 46.1587 17.7658 46.1375C17.7516 46.1163 17.7375 46.095 17.7236 46.0736C17.7096 46.0522 17.6957 46.0306 17.682 46.009L17.641 45.9439C17.6274 45.9221 17.6139 45.9001 17.6006 45.8781L17.5608 45.8118C17.5476 45.7896 17.5345 45.7673 17.5216 45.7449C17.5086 45.7225 17.4958 45.7 17.483 45.6774L17.4451 45.6094C17.4326 45.5866 17.4202 45.5638 17.4079 45.5408L17.3712 45.4717C17.3591 45.4486 17.3472 45.4254 17.3353 45.4021C17.3235 45.3788 17.3117 45.3554 17.3 45.3319L17.2654 45.2612C17.254 45.2376 17.2428 45.2139 17.2316 45.1901C17.2204 45.1663 17.2093 45.1425 17.1983 45.1185C17.1874 45.0945 17.1765 45.0705 17.1658 45.0463C17.1551 45.0222 17.1445 44.9981 17.1341 44.9738C17.1236 44.9495 17.1132 44.9252 17.103 44.9008C17.0928 44.8764 17.0826 44.8518 17.0726 44.8273C17.0627 44.8027 17.0528 44.7781 17.043 44.7534L17.0142 44.6791L16.9861 44.6043C16.9769 44.5794 16.9677 44.5543 16.9587 44.5292L16.9322 44.4537L16.9064 44.3778C16.8979 44.3524 16.8896 44.327 16.8814 44.3015L16.8489 44.2223L16.8178 44.1455L16.7881 44.0711L16.7598 43.9989L16.7329 43.9286L16.7073 43.8601L16.683 43.7932C16.6751 43.7711 16.6675 43.7493 16.66 43.7276C16.6525 43.706 16.6453 43.6845 16.6382 43.6633C16.6312 43.642 16.6243 43.6209 16.6177 43.6C16.6111 43.579 16.6047 43.5582 16.5984 43.5374C16.5922 43.5167 16.5861 43.4961 16.5803 43.4756C16.5744 43.455 16.5687 43.4346 16.5632 43.4141C16.5578 43.3937 16.5525 43.3733 16.5474 43.353C16.5423 43.3326 16.5373 43.3123 16.5326 43.2919C16.5278 43.2715 16.5233 43.2511 16.5189 43.2306C16.5145 43.2101 16.5103 43.1897 16.5062 43.1691C16.5022 43.1485 16.4983 43.1278 16.4946 43.1071C16.4909 43.0863 16.4873 43.0653 16.4839 43.0443C16.4805 43.0232 16.4773 43.002 16.4742 42.9807C16.4711 42.9592 16.4682 42.9377 16.4654 42.9159C16.4626 42.8941 16.46 42.8722 16.4575 42.85C16.455 42.8278 16.4527 42.8053 16.4505 42.7826C16.4483 42.7598 16.4463 42.7368 16.4444 42.7135C16.4425 42.6902 16.4407 42.6666 16.439 42.6426C16.4374 42.6187 16.4358 42.5944 16.4345 42.5697C16.4331 42.5451 16.4319 42.52 16.4308 42.4946C16.4296 42.4691 16.4286 42.4433 16.4277 42.4171L16.4254 42.337L16.4238 42.2541L16.4229 42.1682L16.4226 42.0792C16.4226 42.032 16.4231 41.9849 16.4239 41.9378C16.4248 41.8907 16.4262 41.8435 16.428 41.7966C16.4298 41.7496 16.432 41.7026 16.4347 41.6557C16.4374 41.6088 16.4406 41.562 16.4442 41.5153C16.4479 41.4686 16.4519 41.422 16.4565 41.3755C16.461 41.329 16.4661 41.2825 16.4715 41.2362C16.477 41.1899 16.4828 41.1437 16.4892 41.0976C16.4956 41.0515 16.5025 41.0056 16.5098 40.9598C16.5171 40.914 16.5248 40.8684 16.5331 40.8229C16.5413 40.7774 16.55 40.732 16.5592 40.6869C16.5683 40.6417 16.578 40.5967 16.5881 40.5519C16.5982 40.5071 16.6088 40.4624 16.6198 40.418C16.6309 40.3736 16.6424 40.3293 16.6544 40.2853C16.6664 40.2413 16.6788 40.1974 16.6918 40.1538C16.7047 40.1102 16.7181 40.0669 16.732 40.0238C16.7459 39.9806 16.7603 39.9377 16.7751 39.8951C16.79 39.8525 16.8053 39.81 16.8211 39.7679C16.837 39.7258 16.8532 39.6839 16.87 39.6424C16.8868 39.6008 16.9041 39.5595 16.9218 39.5185C16.9395 39.4775 16.9577 39.4368 16.9764 39.3964C16.9951 39.356 17.0144 39.3158 17.034 39.2761C17.0537 39.2363 17.0739 39.1969 17.0946 39.1577C17.1152 39.1186 17.1364 39.0798 17.158 39.0414C17.1797 39.0029 17.2018 38.9649 17.2245 38.9271C17.2471 38.8894 17.2702 38.852 17.2938 38.815C17.3175 38.7781 17.3416 38.7414 17.3662 38.7052C17.3908 38.6689 17.4159 38.6331 17.4415 38.5977C17.4672 38.5623 17.4933 38.5272 17.5199 38.4926C17.5465 38.458 17.5736 38.4238 17.6012 38.39C17.6288 38.3562 17.657 38.3229 17.6856 38.29C17.7142 38.2571 17.7433 38.2247 17.773 38.1927C17.8026 38.1607 17.8328 38.1291 17.8634 38.0981C17.9209 38.04 17.9803 37.9835 18.0415 37.9285L18.0439 37.9262L18.05 37.921C18.109 37.8683 18.1695 37.8169 18.2317 37.767L18.2353 37.764L18.2434 37.7579C18.3046 37.7091 18.3671 37.6617 18.431 37.6158L18.4369 37.6114L18.4481 37.6038C18.5111 37.5591 18.5753 37.5156 18.6409 37.4736L18.648 37.4687L18.6602 37.4614C18.725 37.4203 18.791 37.3804 18.8582 37.3421L18.868 37.3361L18.8827 37.3282C18.9488 37.2909 19.016 37.2549 19.0842 37.2202L19.0963 37.2137L19.1121 37.2062C19.1801 37.1722 19.2489 37.1394 19.3188 37.1081L19.332 37.1018L19.3471 37.0955C19.4173 37.0644 19.4885 37.0346 19.5605 37.0063L19.5747 37.0004L19.5892 36.9952C19.6614 36.9672 19.7344 36.9406 19.8081 36.9155L19.8235 36.9098L19.8373 36.9055C19.9118 36.8805 19.9869 36.857 20.0627 36.835L20.0778 36.8302L20.0894 36.8272C20.1655 36.8054 20.2423 36.7851 20.3196 36.7663L20.337 36.7617L20.3484 36.7592C20.4266 36.7405 20.5055 36.7234 20.5847 36.7078L20.6003 36.7044L20.6092 36.7029C20.6907 36.6872 20.7727 36.6732 20.8551 36.6608L20.8672 36.6587L20.8732 36.6579C20.9577 36.6454 21.0426 36.6348 21.1278 36.6258L21.1369 36.6246L21.1408 36.6243C21.2283 36.6152 21.3161 36.6081 21.4041 36.6028L21.4087 36.6024L21.4104 36.6023C21.5004 36.597 21.5907 36.5936 21.6812 36.5921L21.682 36.5921H21.6842C21.7736 36.5908 21.8632 36.5915 21.9528 36.594H21.9561L21.9637 36.5944C22.0503 36.5971 22.1369 36.6016 22.2235 36.608L22.2304 36.6083L22.2437 36.6096C22.3274 36.6161 22.4111 36.6242 22.4947 36.6342L22.5042 36.6351L22.5208 36.6375C22.6022 36.6477 22.6835 36.6593 22.7646 36.6729L22.7767 36.6747L22.7943 36.678C22.8746 36.6919 22.9547 36.7073 23.0345 36.7246L23.0474 36.7271L23.0639 36.7311C23.143 36.7487 23.2216 36.7679 23.2999 36.7888L23.3155 36.7926L23.3332 36.7978C23.4111 36.8192 23.4886 36.8422 23.5656 36.8669L23.5804 36.8713L23.5951 36.8765C23.6725 36.9019 23.7492 36.929 23.8254 36.9579L23.8414 36.9635L23.855 36.9691C23.9313 36.9985 24.0069 37.0297 24.0819 37.0626L24.0978 37.0692L24.1103 37.0751C24.1856 37.1088 24.2603 37.1444 24.3341 37.1817L24.349 37.1887L24.359 37.1942C24.4334 37.2322 24.5068 37.2723 24.5795 37.3141L24.5943 37.3222L24.6034 37.3278C24.6768 37.3706 24.7493 37.4155 24.8208 37.4622L24.833 37.4698L24.8394 37.4742C24.9122 37.5222 24.9838 37.5724 25.0543 37.6245L25.0645 37.6317L25.0691 37.6353C25.1416 37.6893 25.2128 37.7455 25.2827 37.8039L25.288 37.808L25.29 37.8098C25.3624 37.8705 25.4335 37.9336 25.503 37.9991C25.5709 38.0631 25.6374 38.1297 25.7023 38.1984L37.6978 50.1939L37.6973 50.1933L37.6938 50.189L37.6904 50.1847L37.6869 50.1805L37.6834 50.1761L37.68 50.1719L37.6766 50.1676L37.6731 50.1633L37.6662 50.1547L37.6628 50.1504L37.6593 50.1461L37.6559 50.1417L37.6524 50.1374L37.649 50.1331L37.6456 50.1288L37.6422 50.1245L37.6387 50.1201L37.6353 50.1158L37.6318 50.1115L37.6285 50.1072L37.625 50.1029L37.6216 50.0985L37.6182 50.0942L37.6148 50.0898L37.6113 50.0855L37.608 50.0811L37.6045 50.0768L37.6011 50.0724L37.5977 50.0681L37.5943 50.0638L37.5875 50.055L37.5841 50.0507L37.5807 50.0463L37.5773 50.0419L37.574 50.0375L37.5706 50.0332L37.5672 50.0288L37.5638 50.0244L37.5604 50.0201L37.557 50.0157L37.5537 50.0113L37.5503 50.0069L37.4997 49.9404L37.4496 49.8734L37.4 49.8057C37.3836 49.7831 37.3672 49.7603 37.3509 49.7375L37.3023 49.6687L37.2541 49.5993L37.2065 49.5293L37.1594 49.4588L37.1128 49.3877L37.0667 49.3161L37.0212 49.2439L36.9761 49.1713L36.9316 49.098L36.8877 49.0243C36.8731 48.9996 36.8587 48.9749 36.8443 48.9501L36.8015 48.8753L36.7592 48.8001L36.7175 48.7244L36.6764 48.6482L36.6359 48.5715L36.5959 48.4944L36.5566 48.4168L36.5178 48.3388C36.505 48.3127 36.4923 48.2865 36.4797 48.2602L36.4421 48.1813L36.4052 48.102L36.3689 48.0222L36.3452 47.9693L36.1021 47.7262C36.0889 47.6941 36.0758 47.6621 36.0629 47.6299C36.05 47.5978 36.0372 47.5655 36.0246 47.5332C36.0119 47.5009 35.9994 47.4685 35.9871 47.436C35.9748 47.4035 35.9627 47.3709 35.9507 47.3383C35.9386 47.3056 35.9268 47.2728 35.915 47.24C35.9033 47.2072 35.8918 47.1743 35.8804 47.1414C35.869 47.1084 35.8578 47.0754 35.8467 47.0422C35.8356 47.0091 35.8246 46.976 35.8139 46.9427C35.8031 46.9094 35.7926 46.8761 35.7821 46.8426C35.7717 46.8092 35.7614 46.7757 35.7513 46.7422C35.7411 46.7087 35.7312 46.675 35.7214 46.6414C35.7115 46.6077 35.7019 46.5739 35.6925 46.5401C35.683 46.5063 35.6737 46.4724 35.6646 46.4385C35.6555 46.4045 35.6465 46.3705 35.6377 46.3364C35.6289 46.3024 35.6203 46.2683 35.6118 46.2341C35.6034 46.1999 35.5951 46.1656 35.587 46.1313C35.5788 46.097 35.571 46.0626 35.5632 46.0282C35.5554 45.9939 35.5478 45.9594 35.5404 45.9249C35.5329 45.8904 35.5258 45.8558 35.5187 45.8212C35.5116 45.7866 35.5047 45.7518 35.498 45.7171C35.4913 45.6824 35.4847 45.6476 35.4784 45.6128C35.472 45.5779 35.4659 45.5431 35.4599 45.5082C35.4539 45.4732 35.448 45.4383 35.4424 45.4032C35.4368 45.3682 35.4313 45.3331 35.4261 45.2981C35.4208 45.263 35.4157 45.2278 35.4108 45.1926C35.406 45.1575 35.4012 45.1223 35.3967 45.087C35.3922 45.0518 35.3879 45.0165 35.3837 44.9811L35.3813 44.9607L33.2877 42.8671C33.1878 42.7733 33.0895 42.6779 32.9926 42.5812L32.9797 42.5688L32.9667 42.5554C32.8724 42.4608 32.7794 42.365 32.6881 42.2679L32.6819 42.2614L32.6789 42.2581C32.5858 42.1588 32.4941 42.0581 32.4041 41.9561L32.3942 41.9451L32.3826 41.9317C32.2951 41.8321 32.2091 41.7314 32.1246 41.6295L32.1168 41.6203L32.1126 41.615C32.0263 41.5105 31.9415 41.4046 31.8584 41.2976L31.85 41.2872L31.8391 41.2726C31.759 41.169 31.6803 41.0643 31.6033 40.9585L31.594 40.9461L31.5883 40.938C31.5087 40.8283 31.4308 40.7174 31.3546 40.6054L31.3488 40.5972L31.3406 40.5846C31.267 40.4762 31.1951 40.3667 31.1248 40.2562L31.1148 40.241L31.1077 40.2295C31.0355 40.1156 30.9649 40.0005 30.8961 39.8844L30.892 39.8776L30.8851 39.8655C30.8183 39.7524 30.7531 39.6381 30.6896 39.523L30.6806 39.5073L30.6733 39.4937C30.6081 39.3749 30.5445 39.2552 30.4829 39.1344L30.4808 39.1305L30.4768 39.1224C30.4164 39.0039 30.3579 38.8844 30.301 38.764L30.2929 38.7474L30.2856 38.7315C30.2282 38.6093 30.1725 38.4864 30.1188 38.3625L30.1169 38.3583H30.1169L30.1151 38.354C30.0614 38.23 30.0097 38.105 29.9596 37.9794L29.953 37.9635L29.9465 37.9464C29.8974 37.8221 29.8499 37.6971 29.8045 37.5712L29.8015 37.5632L29.8001 37.5592C29.7542 37.4317 29.7103 37.3034 29.6681 37.1743L29.6625 37.1578L29.6563 37.1378C29.6158 37.0126 29.577 36.8868 29.5401 36.7603L29.5361 36.7476L29.5341 36.7404C29.496 36.6091 29.4599 36.477 29.4258 36.3443L29.4226 36.3327L29.4187 36.3166C29.3862 36.1891 29.3554 36.0609 29.3266 35.9322L29.3221 35.9136L29.3197 35.9018C29.29 35.7683 29.2624 35.6343 29.2367 35.4997L29.2349 35.4905L29.2323 35.4761C29.2077 35.3453 29.1849 35.2139 29.1641 35.082L29.1609 35.0637L29.159 35.0503C29.1378 34.9138 29.1185 34.7769 29.1014 34.6395L29.1006 34.6334L29.0995 34.6225C29.0829 34.4882 29.0685 34.3534 29.056 34.2182L29.054 34.2L29.0529 34.1854C29.0404 34.0467 29.0299 33.9077 29.0217 33.7683L29.0213 33.7638L29.0209 33.7546C29.013 33.6177 29.0073 33.4803 29.0035 33.3427L29.0027 33.3249L29.0026 33.3086C28.999 33.1673 28.9974 33.0257 28.9984 32.8838L28.9993 32.7884C28.9997 32.7566 29.0002 32.7248 29.0009 32.693L29.0032 32.5974L29.0062 32.5018L29.0098 32.406L29.0142 32.3103L29.0192 32.2143C29.0209 32.1824 29.0229 32.1504 29.0249 32.1184L29.0313 32.0224L29.0384 31.9263L29.0461 31.8302L29.0545 31.734L29.0637 31.6377L29.0735 31.5414L29.0841 31.445L29.0953 31.3486C29.0991 31.3164 29.1032 31.2842 29.1073 31.2521L29.1199 31.1556L29.1332 31.059L29.1472 30.9624L29.162 30.8657L29.1774 30.7691L29.1936 30.6724C29.1991 30.6401 29.2047 30.6079 29.2105 30.5756L29.2281 30.4789L29.2464 30.3821L29.2654 30.2853L29.2851 30.1885L29.3056 30.0917L29.3268 29.9948L29.3487 29.898L29.3714 29.8012C29.3854 29.7422 29.3998 29.6834 29.4145 29.6248C29.4292 29.5662 29.4443 29.5076 29.4597 29.4494C29.4752 29.3911 29.491 29.3331 29.5072 29.2752C29.5233 29.2173 29.5398 29.1596 29.5567 29.1021C29.5735 29.0445 29.5908 28.9872 29.6083 28.9301C29.6258 28.8729 29.6438 28.816 29.662 28.7592C29.6803 28.7024 29.6989 28.6458 29.7178 28.5894C29.7367 28.533 29.756 28.4768 29.7756 28.4208C29.7952 28.3648 29.8152 28.309 29.8355 28.2534C29.8558 28.1978 29.8764 28.1423 29.8974 28.0871C29.9184 28.0319 29.9397 27.9768 29.9613 27.922C29.9829 27.8671 30.0049 27.8126 30.0272 27.7581C30.0494 27.7037 30.0721 27.6494 30.095 27.5954C30.1179 27.5413 30.1412 27.4875 30.1648 27.4339C30.1884 27.3803 30.2123 27.3269 30.2365 27.2736C30.2607 27.2204 30.2853 27.1674 30.3101 27.1146C30.335 27.0618 30.3601 27.0092 30.3856 26.9568C30.4111 26.9044 30.4369 26.8523 30.463 26.8003C30.4891 26.7483 30.5155 26.6966 30.5423 26.645C30.569 26.5935 30.596 26.5421 30.6233 26.491C30.6507 26.4399 30.6783 26.389 30.7062 26.3383C30.7342 26.2876 30.7624 26.2372 30.791 26.1869C30.8195 26.1367 30.8484 26.0867 30.8775 26.0369C30.9066 25.9871 30.936 25.9374 30.9657 25.8881C30.9955 25.8387 31.0255 25.7896 31.0558 25.7407C31.0861 25.6917 31.1167 25.6431 31.1476 25.5946C31.1784 25.5461 31.2096 25.4978 31.2411 25.4498C31.2725 25.4018 31.3042 25.354 31.3362 25.3065C31.3683 25.2589 31.4006 25.2116 31.4331 25.1645C31.4657 25.1174 31.4985 25.0705 31.5317 25.0238C31.5648 24.9772 31.5982 24.9308 31.6319 24.8847C31.6655 24.8385 31.6995 24.7925 31.7337 24.7468L31.7489 24.7114L31.7636 24.6773L31.7777 24.6445L31.7914 24.6128L31.8412 24.4977C31.8567 24.4623 31.8711 24.4295 31.8847 24.3992C31.8983 24.3688 31.9111 24.3407 31.9234 24.3146C31.9356 24.2885 31.9473 24.2643 31.9587 24.2417C31.9701 24.2191 31.9811 24.198 31.9921 24.1781C32.0031 24.1581 32.0141 24.1393 32.0252 24.1212C32.0364 24.1031 32.0476 24.0858 32.0594 24.0688C32.0711 24.0518 32.0833 24.0351 32.0962 24.0183C32.1091 24.0016 32.1226 23.9847 32.1371 23.9674C32.1516 23.9501 32.167 23.9323 32.1836 23.9137C32.2002 23.895 32.218 23.8755 32.2373 23.8547L32.2995 23.7879L32.3166 23.7697L32.3343 23.7509L32.3527 23.7314L32.3718 23.7111L32.3916 23.69L32.4122 23.6681L32.4557 23.6217L32.5526 23.5174C32.5931 23.4736 32.6338 23.43 32.6749 23.3867C32.7161 23.3434 32.7575 23.3003 32.7993 23.2575C32.8411 23.2147 32.8832 23.1722 32.9256 23.1298C32.968 23.0875 33.0108 23.0455 33.054 23.0036C33.0971 22.9618 33.1405 22.9202 33.1843 22.8789C33.2281 22.8375 33.2722 22.7965 33.3166 22.7557C33.361 22.7149 33.4059 22.6744 33.451 22.6341C33.4961 22.5938 33.5415 22.5538 33.5872 22.514C33.633 22.4743 33.6791 22.4348 33.7255 22.3956C33.7719 22.3564 33.8187 22.3175 33.8658 22.2788C33.9129 22.2402 33.9603 22.2018 34.0081 22.1637C34.0559 22.1256 34.104 22.0878 34.1524 22.0502C34.2008 22.0127 34.2495 21.9755 34.2986 21.9385C34.3477 21.9015 34.3971 21.8649 34.4468 21.8285C34.4965 21.7921 34.5466 21.756 34.597 21.7202C34.6474 21.6844 34.698 21.649 34.7491 21.6137C34.8002 21.5786 34.8516 21.5436 34.9033 21.5091C34.9549 21.4745 35.0069 21.4402 35.0593 21.4062C35.1116 21.3723 35.1644 21.3386 35.2174 21.3052C35.2704 21.2719 35.3237 21.2388 35.3774 21.206C35.431 21.1733 35.485 21.1409 35.5393 21.1088C35.5937 21.0767 35.6482 21.0449 35.7032 21.0135C35.7582 20.982 35.8135 20.9509 35.8691 20.9201C35.9247 20.8893 35.9806 20.8588 36.0369 20.8287C36.0931 20.7986 36.1497 20.7687 36.2066 20.7393C36.2635 20.7098 36.3208 20.6806 36.3783 20.6518C36.4359 20.6231 36.4938 20.5946 36.552 20.5665C36.6102 20.5383 36.6687 20.5106 36.7275 20.4832C36.7864 20.4557 36.8456 20.4287 36.905 20.402C36.9645 20.3752 37.0244 20.3489 37.0845 20.3229C37.1446 20.2969 37.2051 20.2712 37.2659 20.2459C37.3266 20.2206 37.3877 20.1956 37.4492 20.171L37.6075 20.2064L37.6209 20.2198L37.6848 20.1941C37.7361 20.1737 37.7875 20.1536 37.839 20.1338C37.8906 20.1141 37.9422 20.0946 37.994 20.0754C38.0458 20.0562 38.0977 20.0373 38.1497 20.0188C38.2017 20.0002 38.2539 19.9819 38.3062 19.964C38.3584 19.9461 38.4109 19.9285 38.4634 19.9111C38.5159 19.8939 38.5685 19.8768 38.6213 19.8601C38.674 19.8435 38.7269 19.827 38.7799 19.811C38.8329 19.7949 38.8859 19.7792 38.9391 19.7637C38.9923 19.7483 39.0456 19.7332 39.0991 19.7184C39.1525 19.7037 39.206 19.6891 39.2596 19.675C39.3132 19.6608 39.367 19.647 39.4208 19.6335C39.4746 19.62 39.5286 19.6069 39.5826 19.594C39.6367 19.5811 39.6907 19.5686 39.745 19.5563C39.7993 19.5441 39.8536 19.5323 39.908 19.5207C39.9624 19.5092 40.017 19.4979 40.0716 19.487C40.1262 19.4761 40.1809 19.4655 40.2356 19.4553C40.2904 19.445 40.3453 19.4352 40.4003 19.4256C40.4552 19.416 40.5103 19.4068 40.5654 19.3978C40.6205 19.3889 40.6758 19.3803 40.731 19.3721C40.7863 19.3639 40.8417 19.356 40.8971 19.3484C40.9526 19.3408 41.0081 19.3336 41.0637 19.3268C41.1193 19.3198 41.175 19.3133 41.2307 19.3071C41.2865 19.3009 41.3422 19.295 41.3981 19.2895C41.454 19.284 41.51 19.2788 41.566 19.274C41.622 19.2691 41.6782 19.2647 41.7343 19.2605C41.7904 19.2564 41.8466 19.2526 41.9029 19.2491C41.9592 19.2457 42.0156 19.2426 42.0719 19.2398C42.1283 19.2371 42.1848 19.2346 42.2413 19.2326C42.2978 19.2306 42.3544 19.2289 42.411 19.2275C42.4676 19.2262 42.5243 19.2252 42.581 19.2246C42.6377 19.2239 42.6945 19.2236 42.7513 19.2237H42.752H42.7526L42.7533 19.2236H42.754H42.7546H42.7553H42.756H42.7567H42.7573H42.758H42.7586H42.7593H42.7599H42.7606H42.7613H42.7619H42.7626L42.7632 19.2237H42.7639H42.7646H42.7652L42.7659 19.2237H42.7666H42.7673L42.7679 19.2238H42.7686L42.7692 19.2238H42.7699L42.7706 19.2239L42.7712 19.2239H42.7719L42.7725 19.224L42.8671 19.2246L42.9616 19.2258L43.0563 19.2277L43.151 19.2302C43.1827 19.2311 43.2142 19.2323 43.2458 19.2334L43.3407 19.2373L43.4357 19.2418L43.5307 19.2471L43.6258 19.253L43.721 19.2596L43.8162 19.2668L43.9114 19.2747L44.0067 19.2834L44.1021 19.2926L44.1975 19.3026L44.293 19.3133L44.3885 19.3246L44.484 19.3366L44.5796 19.3493L44.6752 19.3627L44.7708 19.3769L44.8665 19.3916L44.9622 19.4071L45.0579 19.4233L45.1536 19.4402L45.2494 19.4578L45.3452 19.4761L45.441 19.4951L45.5367 19.5147L45.6325 19.5352C45.6644 19.5421 45.6964 19.5491 45.7283 19.5562L45.8241 19.5781L45.8723 19.5898C45.9726 19.6134 46.0724 19.6382 46.1716 19.6639L46.1817 19.6664L46.1962 19.6703C46.2894 19.6946 46.3822 19.7198 46.4745 19.746L46.4876 19.7496L46.4996 19.7531C46.5942 19.7801 46.6883 19.808 46.7819 19.8369L46.79 19.8394L46.7943 19.8408C46.8911 19.8707 46.9873 19.9017 47.083 19.9337L47.0889 19.9356L47.1002 19.9395C47.1922 19.9703 47.2836 20.0021 47.3744 20.0348L47.3842 20.0382L47.3953 20.0423C47.4854 20.0749 47.5751 20.1084 47.6641 20.1427L47.6758 20.147L47.6833 20.15C47.7773 20.1864 47.8709 20.2237 47.9637 20.262C48.0554 20.2999 48.1465 20.3388 48.2371 20.3786L48.2477 20.3831L48.263 20.3901C48.3474 20.4274 48.4314 20.4655 48.5149 20.5043L48.5279 20.5102L48.5388 20.5155C48.6242 20.5555 48.709 20.5963 48.7932 20.6379L48.8043 20.6432L48.81 20.6461C48.8974 20.6894 48.9843 20.7338 49.0705 20.7789L49.0766 20.782L49.0879 20.7881C49.1712 20.8319 49.254 20.8764 49.3362 20.9218L49.3449 20.9265L49.3548 20.9321C49.4366 20.9775 49.518 21.0237 49.5987 21.0706L49.6092 21.0766L49.6165 21.081C49.7014 21.1306 49.7857 21.1809 49.8693 21.2322C49.9519 21.2829 50.0338 21.3345 50.1151 21.3868L50.1252 21.3932L50.1396 21.4026C50.2148 21.4512 50.2894 21.5006 50.3634 21.5506L50.3768 21.5595L50.3884 21.5675C50.4658 21.62 50.5426 21.6733 50.6188 21.7273L50.6241 21.7311L50.6269 21.7331C50.7061 21.7894 50.7845 21.8464 50.8623 21.9043L50.8671 21.9077L50.8763 21.9147C50.9496 21.9694 51.0224 22.0248 51.0945 22.081L51.1056 22.0894L51.1182 22.0994C51.1893 22.1551 51.2599 22.2114 51.3299 22.2684L51.3396 22.2761L51.3461 22.2815C51.4211 22.3428 51.4954 22.4047 51.569 22.4675C51.6424 22.5302 51.715 22.5936 51.7869 22.6577L51.7938 22.6638L51.8038 22.6729C51.871 22.7329 51.9375 22.7936 52.0033 22.855L52.014 22.8646L52.0235 22.8738C52.0899 22.9358 52.1557 22.9985 52.2208 23.0618L52.2294 23.07L52.2339 23.0745C52.3028 23.1418 52.3709 23.2097 52.4383 23.2783L52.44 23.2799L52.4433 23.2834C52.5085 23.3498 52.5729 23.4169 52.6366 23.4846L52.6458 23.4941L52.6557 23.5049C52.7163 23.5696 52.7762 23.6348 52.8355 23.7006L52.8466 23.7126L52.8536 23.7206C52.9173 23.7915 52.9803 23.8631 53.0425 23.9353L66.9995 37.8923C67.0388 37.9271 67.0778 37.9627 67.1163 37.999C67.1864 38.0652 67.2551 38.1338 67.322 38.2049L98.281 69.164L98.281 69.1639Z" fill="#F57C00"/>
</g>
<path fill-rule="evenodd" clip-rule="evenodd" d="M45.8967 19.3693C45.8773 19.3643 45.8625 19.3594 45.848 19.3546C44.8091 19.1135 43.7698 18.9975 42.7459 18.9966H42.7381C36.475 18.995 30.7873 23.3042 29.274 29.6784C29.0301 30.72 28.9081 31.7617 28.8985 32.7888C28.8594 39.0633 33.1286 44.7363 39.4858 46.2132C39.5003 46.2132 39.515 46.2181 39.5295 46.2229C46.9115 47.9053 54.2983 43.2888 56.0546 35.8894C57.8063 28.49 53.259 21.1053 45.8967 19.3693Z" fill="#6CC2E0"/>
<path fill-rule="evenodd" clip-rule="evenodd" d="M42.7496 18.9978C36.4849 18.988 30.7863 23.3015 29.2737 29.6786C29.0299 30.7202 28.9079 31.7619 28.8982 32.789C28.8592 39.0635 33.1283 44.7365 39.4855 46.2134C39.5001 46.2134 39.5148 46.2184 39.5343 46.2231C40.554 46.453 41.5737 46.5655 42.5788 46.5704L42.7496 18.9978Z" fill="#6CC2E0"/>
<path fill-rule="evenodd" clip-rule="evenodd" d="M45.8968 19.3695C45.8773 19.3645 45.8626 19.3596 45.848 19.3548C44.8184 19.1151 43.7891 19.0026 42.7741 18.9978C42.7645 18.9978 42.7596 18.9978 42.7498 18.9978L42.5791 46.5704C48.8485 46.5754 54.5424 42.2668 56.0546 35.8896C57.8063 28.4902 53.2591 21.1055 45.8968 19.3695Z" fill="#5FB3CF"/>
<path fill-rule="evenodd" clip-rule="evenodd" d="M56.2987 30.6909C55.9963 28.4901 55.162 26.4166 53.9032 24.6414L53.6981 24.8615L53.025 24.9641L52.698 25.189L52.6785 25.5314L52.9858 25.6487L53.0639 26.177L53.6641 26.084L53.6055 26.749L53.4397 26.71L53.0005 26.5388L52.4834 26.5046L51.8345 27.0817L51.1174 27.0278L50.8733 27.6001L51.1514 27.7371L50.9759 28.1039L50.317 27.8055L49.6535 27.7958L49.4388 28.1186L49.3706 28.8813L49.7023 29.1455L50.3218 29.2825L50.7513 29.3411L50.9612 29.0379L51.8198 28.3335L52.2298 28.5245L52.7469 28.2357L52.7517 28.5539L53.6299 29.5075L53.464 29.6492L52.9957 29.5172L53.1177 29.8156L53.3958 29.9476L53.7666 29.884L53.8593 29.4682L54.025 29.429L53.9374 29.2726L53.3324 28.7201L53.269 28.1576L53.8495 28.2945L53.9909 28.5195L54.3911 29.0672L54.2886 29.5954L54.6739 30.2703L55.0448 29.5562L55.4498 29.4437L55.3717 30.0796L55.6303 30.5442L56.2987 30.6909Z" fill="#A67D6E"/>
<path fill-rule="evenodd" clip-rule="evenodd" d="M51.1414 43.5922C53.5613 41.7191 55.3178 39.0047 56.079 35.7918C56.3912 34.4811 56.4791 33.1411 56.4107 31.8648L56.3473 31.8988L55.2787 31.6494L54.7422 31.0138L54.0444 30.9208L53.9467 31.3414L53.7272 31.2876L53.5321 31.0675L52.4197 30.4905L52.6002 29.7178L51.0683 29.4878L50.5414 29.6297L49.946 29.4929L49.6583 29.395L48.8385 29.6297L48.6581 30.3927L46.926 31.1214L46.9358 31.6054L47.2381 31.674L47.0577 32.0945L46.8284 32.1238L46.5454 33.2585L47.4773 35.024L48.0384 35.1512L48.0921 35.0679L49.0921 35.3027L49.4484 35.1021L50.0145 35.2343L50.2534 35.6205L51.078 35.9042L50.6974 37.0047L51.2439 38.8923C49.8339 40.5259 51.078 41.5527 50.629 43.4404L51.1414 43.5922Z" fill="#9ECF7C"/>
<path fill-rule="evenodd" clip-rule="evenodd" d="M35.0995 23.3406L35.0312 23.2233L35.0507 23.1938L35.1385 23.2917L35.0995 23.3406Z" fill="#FEFEFE"/>
<path fill-rule="evenodd" clip-rule="evenodd" d="M37.4854 20.103L37.5391 20.2105C37.5438 20.2202 37.539 20.23 37.5341 20.2349L37.5 20.2839L37.5098 20.3719V20.5429L37.5194 20.6361C37.5292 20.6507 37.5538 20.6995 37.5538 20.7093L37.578 20.8951C37.5926 20.9049 37.6219 20.9196 37.6025 20.9442L37.456 21.1347C37.4512 21.1397 37.4464 21.1398 37.4413 21.1446L37.3487 21.1545C37.334 21.1593 37.2853 21.1885 37.2756 21.1885L37.1877 21.1983C37.1829 21.2082 37.173 21.2229 37.1633 21.2277L37.0951 21.2619C37.0804 21.2669 37.0705 21.2424 37.0609 21.2523L36.8023 21.5847L36.7924 21.6531C36.7924 21.6678 36.8023 21.7022 36.7924 21.7169L36.7584 21.7608L36.7876 21.8147C36.7924 21.8294 36.7828 21.844 36.7682 21.8487L36.729 21.8537L36.6316 21.9857C36.6217 21.9956 36.5926 21.9956 36.5779 21.9956C36.5682 22.0053 36.5583 22.025 36.5485 22.025L36.5094 22.0298L36.2071 22.421L36.2852 22.5188C36.29 22.5287 36.29 22.5383 36.2852 22.5482L36.2266 22.6214L36.2608 22.8562C36.2608 22.8611 36.2608 22.8661 36.2558 22.871L36.1973 22.9492L36.1874 23.0666C36.1874 23.0714 36.1874 23.0764 36.1826 23.0812L36.1241 23.1545C36.129 23.1692 36.1339 23.1986 36.129 23.2084L36.002 23.3746C35.9924 23.3893 35.963 23.3893 35.9485 23.3893L35.6363 23.7954C35.6265 23.805 35.5678 23.8147 35.5582 23.805L35.2557 23.5704C35.2557 23.5704 35.2557 23.5704 35.2508 23.5704L35.0995 23.4139L34.6505 23.9956C34.641 24.0153 34.6263 24.0057 34.6116 23.9956L34.5629 24.0594C34.5579 24.0642 34.5482 24.0691 34.5384 24.0691L34.4702 24.0544L34.1579 24.1914L34.0945 24.2697C34.0945 24.2745 34.0895 24.2745 34.0797 24.2745L33.9921 24.2892L33.753 24.6071L33.7432 24.7245L33.7286 24.7977L33.7675 24.9102C33.7725 24.9152 33.7675 24.9249 33.7627 24.9299L33.5773 25.1744C33.5628 25.1939 33.5481 25.1842 33.5334 25.1744C33.5236 25.1842 33.5139 25.199 33.4944 25.1889L33.4602 25.1597L33.2212 25.4727C33.2112 25.4825 33.182 25.4825 33.1676 25.4825L33.1089 25.5607C33.0991 25.5704 33.0697 25.5704 33.0552 25.5704L32.9771 25.6732C32.9674 25.688 32.9332 25.688 32.9185 25.688L32.582 26.1329L32.5283 26.8468L33.0113 28.1038L32.738 28.407L33.0357 29.2432L34.1383 29.8008L34.1823 29.6149L34.6312 29.7862L34.509 30.1138L35.3923 30.5539L35.9778 31.6592L36.9828 31.9721L36.8852 32.833L36.0656 33.1654L35.8559 33.9039L35.6459 34.3392L36.3582 35.8504L36.3339 36.3051C36.3339 36.3051 36.6753 36.4909 36.7194 36.5008C36.7634 36.5105 37.4023 37.2833 37.4023 37.2833L36.8609 39.5867L37.1195 39.7285L36.6753 40.7458L36.9975 41.4794L36.6608 42.5161L37.0218 43.7484L37.6513 44.6287L38.4417 44.8292L38.5831 44.5898L38.1147 43.9586L38.2075 43.7192L38.383 43.4403L38.4758 43.1421L38.0856 43.0394L37.9441 42.7362L38.349 42.4966L38.4513 42.2667L38.1099 42.0759L38.183 41.8559L38.7246 41.9L39.6126 41.6994L39.9979 41.2691L41.0859 40.3887L41.0958 39.5035L41.4567 39.1171L42.2179 39.3227L42.8327 39.0293L43.3842 37.4496L44.1305 36.8528L44.3453 36.403L43.8622 36.1144L43.6523 35.464L42.4717 35.1803L41.6227 34.608L41.7348 33.9234L41.5545 33.3073L40.7103 33.097L40.403 32.2118L40.0176 31.8987L39.9395 32.1287L39.1394 31.9918L38.9441 31.5222L38.1635 31.1604L37.2952 31.7912L36.2705 31.361L36.4804 30.1333L35.7289 29.8204L36.1826 29.2972L36.1729 28.9352L34.9874 29.3851L34.3629 29.1602L34.2506 28.5977L34.514 28.1085L35.0264 27.5364L35.9437 27.3066L37.5246 27.6735L37.4023 28.1576L37.9099 28.5538L38.061 27.7174L38.5686 27.3996L39.5249 27.0474L39.671 26.6758L40.7007 26.0057L41.6913 25.7221L41.6275 25.6388L42.3545 25.2183L42.5596 25.3259L42.6278 25.4727L42.9742 25.2674L42.5057 25.0326L42.5596 24.788L42.7205 24.7098L43.0133 24.7782L43.1353 24.8662L43.1938 25.1303L43.3401 25.1402L43.345 25.1205L43.8085 25.1744L43.9158 24.9886L44.1354 25.101L44.0818 25.3161L43.828 25.4189H43.8329L43.8037 25.6634L44.4965 26.0695V26.0791L44.672 26.1035L44.7601 25.7807L44.4087 25.5117L44.4866 25.1842L44.7649 25.1597L44.8964 24.6951L44.4622 24.2598L44.6136 23.4626L43.8329 23.6436L43.5744 23.5849L43.7842 22.9981L42.8814 22.5482L42.4179 22.7536L42.2034 23.6682L41.4373 23.7316L41.0129 24.2598L40.6908 24.2403L40.8714 23.4773L40.2273 23.2279L39.9445 22.9345L39.9248 22.4063L41.286 21.9857L41.9155 21.9418L41.8814 22.3477L42.2082 22.4063L42.2813 22.2156L42.6327 22.2449L42.6572 22.1765L42.5252 22.0835L42.5399 21.8634L42.9694 21.9272L43.3011 21.707H43.3061L43.3987 21.6434L44.3061 21.7362L44.6184 22.1618L43.4669 22.4699L44.6915 23.0764L44.9648 22.6802L45.5308 22.8123L45.8236 22.4797L45.4479 22.284L45.56 21.8048L44.4329 20.9538L43.5402 20.8512L42.9889 20.9979L42.8766 21.6288L42.3837 21.4331V21.0663L42.9839 20.7339L42.1009 20.4844L41.8276 20.5039L41.6422 20.7777L41.9641 20.9098L41.818 21.2325L41.2423 21.1347L41.1006 21.3353L40.2712 21.1691C40.2712 21.1691 40.3591 20.6947 40.3249 20.6848C40.2955 20.6751 40.9738 20.8218 40.9738 20.8218L41.5788 20.455L41.3446 20.2594L40.9055 20.5236L40.32 20.3524L40.081 19.7802L39.3248 19.604L38.3929 20.0099L39.1199 20.1811L39.1344 20.4061L38.9051 20.5429L39.7005 20.7532L39.7543 21.0713L38.8613 20.8267L38.8661 20.592L38.3295 20.3377L38.066 20.103L37.6707 20.0099L37.6659 20.0149C37.6609 20.0197 37.6609 20.0197 37.6513 20.0246C37.6464 20.0296 37.6219 20.0344 37.6122 20.0344C37.6073 20.0344 37.5926 20.0344 37.5926 20.0344C37.578 20.0296 37.5733 20.0344 37.5633 20.0443C37.5586 20.0491 37.5538 20.0539 37.5488 20.0539L37.5292 20.0686C37.5146 20.0883 37.5146 20.0932 37.4854 20.103Z" fill="#FEFEFE"/>
<path fill-rule="evenodd" clip-rule="evenodd" d="M37.4121 19.9563C35.4314 20.7487 33.7822 21.9174 32.4796 23.3309C31.9232 23.9372 31.9866 23.7955 31.655 24.5729L31.4209 25.2919L31.9136 25.6929L31.6648 26.7542L31.982 27.791L32.4015 27.9622L32.5283 27.6589L32.2064 26.7492L32.2893 25.9521L32.5868 26.0255V26.0549L32.8894 25.6537C32.8992 25.644 32.9332 25.644 32.9479 25.639L33.026 25.5364C33.0309 25.5265 33.0651 25.5265 33.0797 25.5265L33.1331 25.4484C33.1431 25.4386 33.1772 25.4386 33.1919 25.4337L33.4358 25.1158C33.4456 25.106 33.4602 25.1011 33.47 25.111L33.504 25.1404C33.5236 25.111 33.5334 25.1158 33.5529 25.1305L33.7236 24.9103C33.714 24.8957 33.6846 24.8077 33.6846 24.7931L33.6993 24.7198L33.7089 24.5974C33.7089 24.5926 33.7089 24.5876 33.714 24.5828L33.9627 24.2551C33.9676 24.2502 33.9724 24.2453 33.9774 24.2453L34.065 24.2354C34.075 24.2207 34.1237 24.1573 34.1335 24.1523L34.4116 24.0154C34.4164 24.0154 34.4653 24.0058 34.475 24.0105L34.5336 24.0203L34.5921 23.947C34.6019 23.9324 34.6165 23.9421 34.6312 23.9519L35.0701 23.3796L34.9824 23.2331C34.9775 23.2232 34.9775 23.2134 34.9874 23.2037L35.0264 23.1498C35.0361 23.14 35.0508 23.14 35.0605 23.145L35.168 23.2331C35.1825 23.2427 35.1825 23.277 35.1825 23.2965C35.1825 23.3015 35.1825 23.3064 35.1776 23.3112L35.1289 23.3796L35.5777 23.7661L35.6069 23.7611L35.9193 23.3553C35.9239 23.3456 35.9583 23.3456 35.973 23.3406L36.0852 23.189C36.0852 23.1743 36.0753 23.145 36.0852 23.1353L36.1437 23.0568L36.1533 22.9395C36.1533 22.9347 36.1533 22.9297 36.1584 22.9297L36.212 22.8516L36.1826 22.6216C36.1826 22.6119 36.1826 22.6069 36.1874 22.6022L36.2413 22.5336L36.1631 22.4358C36.1584 22.426 36.1584 22.4163 36.1631 22.4065V22.4064L36.4804 21.9957C36.4851 21.9859 36.5193 21.9859 36.534 21.9811C36.5388 21.9712 36.5485 21.9565 36.5632 21.9565L36.6022 21.9516L36.6998 21.8197C36.7097 21.8098 36.7242 21.8099 36.7341 21.8099L36.7143 21.7658C36.7097 21.7609 36.7097 21.7511 36.7143 21.7414L36.7534 21.6973C36.7534 21.6876 36.7437 21.6583 36.7487 21.6484C36.7487 21.6338 36.7584 21.5702 36.7682 21.5653L37.0414 21.2083C37.056 21.1886 37.0756 21.2033 37.0852 21.2132L37.139 21.1886C37.1486 21.179 37.1585 21.1594 37.173 21.1594L37.2658 21.1447C37.2805 21.1399 37.3292 21.1106 37.3389 21.1106L37.4266 21.1007L37.5538 20.9345C37.5488 20.9246 37.539 20.9198 37.539 20.9099L37.5098 20.7193C37.5047 20.7047 37.4804 20.6556 37.4757 20.6459L37.4657 20.5481V20.372L37.456 20.2791C37.4512 20.2742 37.456 20.2694 37.456 20.2644L37.4902 20.2203L37.4317 20.0933C37.422 20.0688 37.4464 20.0541 37.4611 20.0639C37.4707 20.0591 37.4657 20.0639 37.4804 20.0591C37.4902 20.0541 37.4902 20.0394 37.4999 20.0346C37.5146 20.0247 37.5246 20.0199 37.5341 20.0101C37.5488 20.0004 37.5538 19.9953 37.5732 19.9907L37.4121 19.9563Z" fill="#CECDCC"/>
<path fill-rule="evenodd" clip-rule="evenodd" d="M42.1643 32.114L42.33 31.9526L42.7935 31.9673L42.7792 32.5297L42.9207 32.965L43.0326 33.1802L43.2914 33.3562L42.9498 33.6154L42.4178 33.542L42.0273 33.454L42.1836 32.9992L42.5253 33.0089L42.5495 32.7839L42.2911 32.5199L42.1155 32.3293L42.1643 32.114Z" fill="#FEFEFE"/>
<path fill-rule="evenodd" clip-rule="evenodd" d="M42.2081 32.7938L42.5789 32.4221H42.9596L43.1888 32.5934L43.0961 32.8817L42.4522 33.1459L42.1396 33.0727L42.2081 32.7938Z" fill="#FEFEFE"/>
<path fill-rule="evenodd" clip-rule="evenodd" d="M42.2715 32.6569L42.657 32.745L42.7838 32.5591L42.9399 32.5884L43.1058 32.6669L42.9937 32.8037L42.7984 32.7744L42.7155 32.9505L42.5447 33.009L42.3057 32.975C42.3106 32.9162 42.3154 32.8772 42.3154 32.8772L42.2275 32.8527L42.2715 32.6569Z" fill="#FEFEFE"/>
<path fill-rule="evenodd" clip-rule="evenodd" d="M42.4863 32.9209L42.545 32.7302L42.7058 32.603L42.8428 32.7742L42.7693 32.965L42.4863 32.9209Z" fill="#FEFEFE"/>
<path fill-rule="evenodd" clip-rule="evenodd" d="M42.5401 32.647L42.5352 32.8084L42.7156 32.9455L42.7936 32.6177L42.5401 32.647Z" fill="#FEFEFE"/>
<path fill-rule="evenodd" clip-rule="evenodd" d="M56.8154 54.8546C57.3667 54.5417 58.0645 54.7374 58.3767 55.2851C58.689 55.8376 58.494 56.537 57.9474 56.8501L54.498 58.8161C53.9517 59.129 53.2489 58.9383 52.9417 58.3856C52.6292 57.833 52.8196 57.1336 53.3709 56.8207L56.8154 54.8546Z" fill="#5091CD"/>
<path fill-rule="evenodd" clip-rule="evenodd" d="M27.7957 56.8501C27.2444 56.537 27.0493 55.8376 27.3614 55.2851C27.6738 54.7374 28.3765 54.5417 28.9229 54.8546L32.3674 56.8207C32.9185 57.1336 33.1139 57.833 32.8016 58.3856C32.4894 58.9383 31.7867 59.129 31.2403 58.8161L27.7957 56.8501Z" fill="#5091CD"/>
<path fill-rule="evenodd" clip-rule="evenodd" d="M59.4992 46.9222C62.2313 45.7632 64.9245 45.6996 67.764 46.9174L67.7982 57.1533H59.4453L59.4992 46.9222Z" fill="#FEFEFE"/>
<path fill-rule="evenodd" clip-rule="evenodd" d="M62.7582 49.5732H64.4075L65.359 55.4319L63.661 57.6131L62.0068 55.4319L62.7582 49.5732Z" fill="#D53439"/>
<path fill-rule="evenodd" clip-rule="evenodd" d="M63.6221 49.5732H63.6512H64.4075L65.3591 55.4319L63.661 57.6131L63.627 57.5643L63.6221 57.5594V49.5732Z" fill="#4589C7"/>
<path fill-rule="evenodd" clip-rule="evenodd" d="M62.7582 49.5732H63.622V57.5594L62.0068 55.4319L62.7582 49.5732Z" fill="#377CBE"/>
<path fill-rule="evenodd" clip-rule="evenodd" d="M63.5974 45.9592C64.6561 45.9592 65.5149 46.9277 65.5149 48.1257C65.5149 49.3191 64.6561 49.9451 63.5974 49.9451C62.5389 49.9451 61.6799 49.3191 61.6799 48.1257C61.6799 46.9277 62.5388 45.9592 63.5974 45.9592Z" fill="#4589C7"/>
<path fill-rule="evenodd" clip-rule="evenodd" d="M67.7545 46.9128L68.618 47.4995C70.1793 48.5853 70.9991 49.7638 71.4332 51.0843C71.8529 52.351 71.8869 53.6958 71.8869 55.2119L71.8869 55.613L71.5699 55.8576C69.2816 57.6279 66.4469 58.5131 63.622 58.5131C60.797 58.5131 57.9672 57.6279 55.679 55.8576L55.3569 55.6082V55.2071C55.3569 53.6664 55.4008 52.297 55.8448 50.9963C56.3085 49.6563 57.1671 48.4679 58.7918 47.3919L59.4894 46.9129L63.6221 53.7642L67.7545 46.9128Z" fill="#353636"/>
<path fill-rule="evenodd" clip-rule="evenodd" d="M63.8414 58.508C63.7683 58.508 63.6999 58.5129 63.6267 58.5129L63.6268 53.7592L67.8469 46.9517L67.7249 51.3484L65.9833 51.9057L66.603 53.5588C65.8223 53.6516 64.4171 56.8696 63.8414 58.508L63.8414 58.508Z" fill="#323132"/>
<path fill-rule="evenodd" clip-rule="evenodd" d="M63.4169 58.508C63.4853 58.508 63.5586 58.5129 63.6267 58.5129L63.6268 53.7592L59.4114 46.9517L59.5285 51.3484L61.2703 51.9057L60.6506 53.5588C61.4362 53.6516 62.8363 56.8696 63.4169 58.508Z" fill="#323132"/>
<path fill-rule="evenodd" clip-rule="evenodd" d="M63.8366 58.508C63.7633 58.508 63.6949 58.5129 63.6267 58.5129L63.6268 53.7592L67.73 46.9517L67.5981 51.2649L65.9052 51.8226L66.5101 53.4755C65.7442 53.5685 64.3976 56.8696 63.8366 58.508L63.8366 58.508Z" fill="#424242"/>
<path fill-rule="evenodd" clip-rule="evenodd" d="M63.4218 58.508C63.49 58.508 63.5585 58.5129 63.6267 58.5129L63.6267 53.7592L59.5234 46.9517L59.6552 51.2649L61.3531 51.8226L60.7481 53.4755C61.5091 53.5685 62.8557 56.8696 63.4218 58.508L63.4218 58.508Z" fill="#424242"/>
<path fill-rule="evenodd" clip-rule="evenodd" d="M66.8811 46.4287C67.2567 46.6048 67.7249 46.8589 67.5347 47.2306C66.925 48.4091 66.2907 49.4851 65.3636 50.517L63.6658 48.6488L66.8811 46.4287Z" fill="#E5E6E5"/>
<path fill-rule="evenodd" clip-rule="evenodd" d="M60.4459 46.4287C60.075 46.6048 59.6018 46.8589 59.797 47.2306C60.4068 48.4091 61.0411 49.4851 61.9633 50.517L63.666 48.6488L60.4459 46.4287Z" fill="#E5E6E5"/>
<path fill-rule="evenodd" clip-rule="evenodd" d="M63.6221 36.7012C65.1004 36.7012 66.4469 37.3127 67.418 38.3003C68.3839 39.2833 68.984 40.6382 68.984 42.1296H68.9791V42.164V42.1689C68.9694 43.8413 68.3302 45.4405 67.3836 46.6144C66.3688 47.8663 64.9833 48.6781 63.5733 48.6781V48.6732H63.5587H63.5536C62.1143 48.6634 60.7483 47.8223 59.7627 46.541C58.8552 45.3574 58.26 43.7681 58.26 42.1296C58.26 40.6382 58.8552 39.2833 59.8261 38.3003C60.797 37.3127 62.1387 36.7012 63.6221 36.7012Z" fill="#F9D2AA"/>
<path fill-rule="evenodd" clip-rule="evenodd" d="M63.6221 48.6781C63.6025 48.6781 63.5877 48.6781 63.5733 48.6781V48.6731H63.5587H63.5536C62.1143 48.6634 60.7483 47.8222 59.7627 46.541C58.8552 45.3574 58.26 43.768 58.26 42.1296C58.26 40.6381 58.8552 39.2833 59.8261 38.3002C60.797 37.3126 62.1387 36.7012 63.6221 36.7012V48.6781Z" fill="#EABE92"/>
<path fill-rule="evenodd" clip-rule="evenodd" d="M63.6221 36.7012H63.6464C65.1199 36.7062 66.4517 37.3173 67.4179 38.3003C68.3839 39.2833 68.984 40.6382 68.984 42.1296H68.9791V42.164V42.1689C68.9693 43.8413 68.3302 45.4405 67.3836 46.6144C66.3835 47.8465 65.0223 48.6537 63.6317 48.6781H63.6221L63.6221 36.7012Z" fill="#EAC49E"/>
<path fill-rule="evenodd" clip-rule="evenodd" d="M67.4959 38.1587C69.0182 39.7039 69.2035 42.3059 68.6863 44.3255C68.618 42.0613 67.6034 40.8387 66.3396 40.4573C65.481 40.198 64.5441 40.6283 63.5587 40.4718C61.2265 40.1052 58.5136 39.8605 58.6112 44.3208C58.2503 43.4502 58.1477 43.0491 58.1477 42.0712C58.1477 40.5453 58.6064 39.0537 59.5968 38.051C61.4753 36.1535 65.3393 35.8651 67.4959 38.1587Z" fill="#353636"/>
<path fill-rule="evenodd" clip-rule="evenodd" d="M17.5889 46.9222C20.3211 45.7632 23.0143 45.6996 25.854 46.9174L25.888 57.1533H17.5352L17.5889 46.9222Z" fill="#FEFEFE"/>
<path fill-rule="evenodd" clip-rule="evenodd" d="M20.8478 49.5732H22.4969L23.4435 55.4319L21.7506 57.6131L20.0964 55.4319L20.8478 49.5732Z" fill="#D53439"/>
<path fill-rule="evenodd" clip-rule="evenodd" d="M21.7117 49.5732H21.7409H22.4971L23.4437 55.4319L21.7508 57.6131L21.7165 57.5643L21.7117 57.5594V49.5732Z" fill="#8EC352"/>
<path fill-rule="evenodd" clip-rule="evenodd" d="M20.8478 49.5732H21.7115V57.5594L20.0964 55.4319L20.8478 49.5732Z" fill="#7BB24D"/>
<path fill-rule="evenodd" clip-rule="evenodd" d="M21.6871 45.9592C22.7459 45.9592 23.6044 46.9277 23.6044 48.1257C23.6044 49.3191 22.7459 49.9451 21.6871 49.9451C20.6284 49.9451 19.7695 49.3191 19.7695 48.1257C19.7695 46.9277 20.6284 45.9592 21.6871 45.9592Z" fill="#A1CE67"/>
<path fill-rule="evenodd" clip-rule="evenodd" d="M25.8441 46.9128L26.7077 47.4995C28.2688 48.5853 29.0886 49.7638 29.5229 51.0843C29.9424 52.351 29.9764 53.6958 29.9764 55.2119V55.613L29.6594 55.8576C27.3711 57.6279 24.5364 58.5131 21.7116 58.5131C18.8866 58.5131 16.057 57.6279 13.7685 55.8576L13.4465 55.6082V55.2071C13.4465 53.6664 13.4904 52.297 13.9344 50.9963C14.398 49.6563 15.2567 48.4679 16.8813 47.3919L17.579 46.9129L21.7115 53.7642L25.8441 46.9128Z" fill="#353636"/>
<path fill-rule="evenodd" clip-rule="evenodd" d="M21.931 58.508C21.8577 58.508 21.7896 58.5129 21.7163 58.5129V53.7592L25.9366 46.9517L25.8147 51.3484L24.0728 51.9057L24.6925 53.5588C23.907 53.6516 22.5067 56.8696 21.931 58.508Z" fill="#323132"/>
<path fill-rule="evenodd" clip-rule="evenodd" d="M21.5067 58.508C21.575 58.508 21.6482 58.5129 21.7165 58.5129V53.7592L17.501 46.9517L17.6181 51.3484L19.36 51.9057L18.7403 53.5588C19.5259 53.6516 20.9261 56.8696 21.5067 58.508L21.5067 58.508Z" fill="#323132"/>
<path fill-rule="evenodd" clip-rule="evenodd" d="M21.9264 58.508C21.8533 58.508 21.7848 58.5129 21.7166 58.5129V53.7592L25.8198 46.9517L25.6881 51.2649L23.995 51.8226L24.6 53.4755C23.8339 53.5685 22.4874 56.8696 21.9264 58.508L21.9264 58.508Z" fill="#424242"/>
<path fill-rule="evenodd" clip-rule="evenodd" d="M21.5116 58.508C21.5799 58.508 21.6483 58.5129 21.7165 58.5129V53.7592L17.6133 46.9517L17.745 51.2649L19.443 51.8226L18.838 53.4755C19.5992 53.5685 20.9457 56.8696 21.5116 58.508L21.5116 58.508Z" fill="#424242"/>
<path fill-rule="evenodd" clip-rule="evenodd" d="M24.9707 46.4287C25.3464 46.6048 25.8149 46.8589 25.6246 47.2306C25.0147 48.4091 24.3802 49.4851 23.4533 50.517L21.7554 48.6488L24.9707 46.4287Z" fill="#E5E6E5"/>
<path fill-rule="evenodd" clip-rule="evenodd" d="M18.5353 46.4287C18.1596 46.6048 17.6912 46.8589 17.8864 47.2306C18.4962 48.4091 19.1306 49.4851 20.0527 50.517L21.7553 48.6488L18.5353 46.4287Z" fill="#E5E6E5"/>
<path fill-rule="evenodd" clip-rule="evenodd" d="M21.7116 36.7012C23.1899 36.7012 24.5364 37.3127 25.5074 38.3003C26.4734 39.2833 27.0735 40.6382 27.0735 42.1296H27.0685V42.164V42.1689C27.0588 43.8413 26.4196 45.4405 25.4732 46.6144C24.4583 47.8663 23.0727 48.6781 21.6628 48.6781V48.6732H21.6481H21.6431C20.2038 48.6634 18.8378 47.8223 17.8523 46.541C16.9448 45.3574 16.3496 43.7681 16.3496 42.1296C16.3496 40.6382 16.9448 39.2833 17.9157 38.3003C18.8866 37.3127 20.2282 36.7012 21.7116 36.7012Z" fill="#F9D2AA"/>
<path fill-rule="evenodd" clip-rule="evenodd" d="M21.7116 48.6781C21.6919 48.6781 21.6774 48.6781 21.6628 48.6781V48.6731H21.6481H21.6431C20.2038 48.6634 18.8378 47.8222 17.8523 46.541C16.9448 45.3574 16.3496 43.768 16.3496 42.1296C16.3496 40.6381 16.9448 39.2833 17.9157 38.3002C18.8866 37.3126 20.2282 36.7012 21.7116 36.7012V48.6781Z" fill="#EABE92"/>
<path fill-rule="evenodd" clip-rule="evenodd" d="M21.7117 36.7012H21.7361C23.2094 36.7062 24.5416 37.3173 25.5075 38.3003C26.4735 39.2833 27.0736 40.6382 27.0736 42.1296H27.0686V42.164V42.1689C27.0589 43.8413 26.4198 45.4405 25.4733 46.6144C24.4731 47.8465 23.1119 48.6537 21.7214 48.6781H21.7117V36.7012Z" fill="#EAC49E"/>
<path fill-rule="evenodd" clip-rule="evenodd" d="M25.5854 38.1587C27.1075 39.7039 27.2931 42.3059 26.7757 44.3255C26.7076 42.0613 25.6926 40.8387 24.429 40.4573C23.5704 40.198 22.6336 40.6283 21.6481 40.4718C19.3159 40.1052 16.6032 39.8605 16.7007 44.3208C16.3397 43.4502 16.2324 43.0491 16.2324 42.0712C16.2324 40.5453 16.6959 39.0537 17.6864 38.051C19.5646 36.1535 23.4288 35.8651 25.5854 38.1587Z" fill="#353636"/>
<path fill-rule="evenodd" clip-rule="evenodd" d="M37.1437 50.6001C40.9347 48.9911 44.6769 48.9079 48.6192 50.5951L48.6679 64.8119H37.0703L37.1437 50.6001Z" fill="#FEFEFE"/>
<path fill-rule="evenodd" clip-rule="evenodd" d="M41.6715 54.283L43.9646 54.2875L45.2771 62.4205L42.9257 65.4527L40.6274 62.4205L41.6715 54.283Z" fill="#D53439"/>
<path fill-rule="evenodd" clip-rule="evenodd" d="M42.8718 54.2876H42.9108H43.9645L45.277 62.4206L42.9256 65.4529L42.8718 65.3844V65.3794V54.2876Z" fill="#E0413F"/>
<path fill-rule="evenodd" clip-rule="evenodd" d="M41.6715 54.283L42.8719 54.2875V65.3793L40.6274 62.4205L41.6715 54.283Z" fill="#D53439"/>
<path fill-rule="evenodd" clip-rule="evenodd" d="M42.8374 49.27C44.3059 49.27 45.4964 50.6148 45.4964 52.2727C45.4964 53.9306 44.3059 54.8012 42.8374 54.8012C41.3637 54.8011 40.1736 53.9306 40.1736 52.2727C40.1736 50.6148 41.3637 49.27 42.8374 49.27Z" fill="#EE3F3E"/>
<path fill-rule="evenodd" clip-rule="evenodd" d="M48.6095 50.5904L49.8097 51.4069C51.976 52.9134 53.1177 54.5517 53.7178 56.3808C54.2983 58.1462 54.3472 60.0095 54.3472 62.1124V62.6748L53.9081 63.0123C50.727 65.4673 46.7945 66.6996 42.8719 66.6996C38.9441 66.6996 35.0167 65.4721 31.8356 63.0123L31.3916 62.67V62.1123C31.3916 59.9703 31.4502 58.0631 32.0699 56.2584C32.7091 54.3953 33.9043 52.747 36.1585 51.2555L37.1294 50.5903L42.8719 60.1074L48.6095 50.5903L48.6095 50.5904Z" fill="#353636"/>
<path fill-rule="evenodd" clip-rule="evenodd" d="M43.1743 66.6951C43.0768 66.6951 42.9793 66.6999 42.8767 66.6999L42.8815 60.0978L48.7363 50.6445L48.5704 56.7478L46.1504 57.5254L47.0142 59.8191C45.9211 59.9462 43.9793 64.4162 43.1743 66.6951Z" fill="#323132"/>
<path fill-rule="evenodd" clip-rule="evenodd" d="M42.5838 66.6951C42.6814 66.6951 42.779 66.6999 42.8765 66.6999V60.0978L37.0217 50.6445L37.1876 56.7478L39.6076 57.5254L38.744 59.8191C39.8321 59.9462 41.7789 64.4162 42.5838 66.6951Z" fill="#323132"/>
<path fill-rule="evenodd" clip-rule="evenodd" d="M43.1647 66.6951C43.0721 66.6951 42.9743 66.6999 42.8767 66.6999L42.8815 60.0978L48.5803 50.6445L48.3949 56.6352L46.0383 57.4129L46.8775 59.7066C45.8187 59.8337 43.9452 64.4162 43.1646 66.6951H43.1647Z" fill="#424242"/>
<path fill-rule="evenodd" clip-rule="evenodd" d="M42.5884 66.6951C42.6862 66.6951 42.7837 66.6999 42.8764 66.6999V60.0978L37.1777 50.6445L37.363 56.6352L39.7149 57.4129L38.8756 59.7066C39.9393 59.8337 41.8079 64.4162 42.5884 66.6951Z" fill="#424242"/>
<path fill-rule="evenodd" clip-rule="evenodd" d="M47.3996 49.9204C47.9217 50.1602 48.5704 50.5171 48.307 51.0306C47.4533 52.6688 46.5752 54.1654 45.2919 55.5936L42.9304 53.0063L47.3996 49.9204Z" fill="#E5E6E5"/>
<path fill-rule="evenodd" clip-rule="evenodd" d="M38.4612 49.9204C37.9391 50.1602 37.2903 50.5171 37.5539 51.0306C38.4027 52.6688 39.2857 54.1654 40.569 55.5936L42.9303 53.0063L38.4612 49.9204Z" fill="#E5E6E5"/>
<path fill-rule="evenodd" clip-rule="evenodd" d="M42.8718 36.4031C44.9258 36.4031 46.7897 37.254 48.1411 38.6282C49.4876 39.9927 50.317 41.8756 50.317 43.9491H50.3122V43.9932V43.998C50.2975 46.3258 49.4097 48.5461 48.0922 50.1748C46.6871 51.9157 44.7601 53.0404 42.7985 53.0404V53.0307H42.779H42.7741C40.7786 53.021 38.8759 51.8522 37.5146 50.0769C36.251 48.4289 35.4216 46.2231 35.4216 43.9492C35.4216 41.8756 36.251 39.9927 37.5975 38.6282C38.9492 37.254 40.8128 36.4031 42.8718 36.4031L42.8718 36.4031Z" fill="#FDCD9C"/>
<path fill-rule="evenodd" clip-rule="evenodd" d="M42.8718 53.0406C42.8474 53.0406 42.8231 53.0406 42.7985 53.0406V53.0309H42.779H42.7741C40.7786 53.0212 38.8759 51.8523 37.5146 50.0771C36.251 48.4291 35.4216 46.2233 35.4216 43.9493C35.4216 41.8709 36.251 39.9929 37.5975 38.6284C38.9492 37.2542 40.8128 36.4033 42.8718 36.4033L42.8718 53.0406Z" fill="#FDCD9C"/>
<path fill-rule="evenodd" clip-rule="evenodd" d="M42.8718 36.4031H42.906C44.9503 36.4128 46.7993 37.2638 48.1411 38.6282C49.4877 39.9927 50.317 41.8707 50.317 43.9492H50.3122V43.9932V43.998C50.2976 46.3258 49.4097 48.5461 48.0923 50.1748C46.7066 51.8911 44.8184 53.0062 42.8866 53.0404H42.8718L42.8718 36.4031Z" fill="#FDD4A8"/>
<path fill-rule="evenodd" clip-rule="evenodd" d="M48.2529 38.4328C50.3655 40.5796 50.8095 43.5139 50.0923 46.3259C50.2192 40.9219 41.837 44.0763 40.383 38.819C40.3538 43.1422 36.2214 41.1176 36.3678 47.4116L36.0555 47.7736C35.5529 46.5607 35.2651 45.2257 35.2651 43.8661C35.2651 41.7485 35.9091 39.6796 37.2802 38.2858C38.6023 36.946 38.9926 37.3371 39.7148 37.1122C39.9929 37.0292 39.9831 36.7944 40.4027 36.54C43.1398 34.8723 46.2964 36.3492 48.2529 38.4328L48.2529 38.4328Z" fill="#353636"/>
</svg>
