<svg width="64" height="64" viewBox="0 0 64 64" fill="none" xmlns="http://www.w3.org/2000/svg">
<path d="M0.337158 60.0719H63.6628V61.3667C63.6628 61.64 63.6089 61.9105 63.5044 62.1629C63.3998 62.4153 63.2466 62.6447 63.0534 62.8379C62.8602 63.0311 62.6309 63.1843 62.3784 63.2889C62.126 63.3934 61.8555 63.4472 61.5823 63.4472H2.41766C1.86588 63.4472 1.3367 63.228 0.946525 62.8379C0.556354 62.4477 0.337158 61.9185 0.337158 61.3667V60.0719Z" fill="#093F68"/>
<path d="M61.5823 63.7811H2.4177C1.77707 63.7811 1.16263 63.5268 0.70932 63.0742C0.256009 62.6215 0.000893488 62.0074 0 61.3668V60.0719C0 59.9825 0.0355258 59.8967 0.0987625 59.8335C0.161999 59.7703 0.247767 59.7347 0.337197 59.7347H63.6628C63.7522 59.7347 63.838 59.7703 63.9012 59.8335C63.9645 59.8967 64 59.9825 64 60.0719V61.3668C63.9991 62.0074 63.744 62.6215 63.2907 63.0742C62.8374 63.5268 62.2229 63.7811 61.5823 63.7811ZM0.674394 60.4091V61.3668C0.675287 61.8285 0.859352 62.2711 1.18619 62.5973C1.51303 62.9235 1.95593 63.1067 2.4177 63.1067H61.5823C62.0441 63.1067 62.487 62.9235 62.8138 62.5973C63.1406 62.2711 63.3247 61.8285 63.3256 61.3668V60.4091H0.674394Z" fill="#093F68"/>
<path d="M55.3543 7.41516H8.64577C7.09448 7.41516 5.83691 8.67273 5.83691 10.224V39.7692C5.83691 41.3205 7.09448 42.5781 8.64577 42.5781H55.3543C56.9056 42.5781 58.1632 41.3205 58.1632 39.7692V10.224C58.1632 8.67273 56.9056 7.41516 55.3543 7.41516Z" fill="#68E1FD"/>
<path d="M55.3543 42.9119H8.64581C7.81201 42.9119 7.0123 42.5809 6.4224 41.9917C5.8325 41.4024 5.50065 40.6031 5.49976 39.7693V10.2207C5.50065 9.38688 5.8325 8.58754 6.4224 7.99827C7.0123 7.409 7.81201 7.078 8.64581 7.078H55.3543C56.1881 7.078 56.9878 7.409 57.5777 7.99827C58.1676 8.58754 58.4995 9.38688 58.5004 10.2207V39.7558C58.5017 40.1698 58.4213 40.58 58.2638 40.9628C58.1063 41.3457 57.8748 41.6937 57.5825 41.9869C57.2903 42.2801 56.943 42.5128 56.5606 42.6715C56.1783 42.8302 55.7683 42.9119 55.3543 42.9119ZM8.64581 7.7524C7.99114 7.75329 7.36349 8.01352 6.90025 8.47612C6.43702 8.93872 6.17593 9.56602 6.17415 10.2207V39.7558C6.17504 40.4107 6.43584 41.0385 6.89927 41.5013C7.3627 41.9641 7.99087 42.2241 8.64581 42.2241H55.3543C56.0093 42.2241 56.6375 41.9641 57.1009 41.5013C57.5643 41.0385 57.8251 40.4107 57.826 39.7558V10.2207C57.8242 9.56602 57.5631 8.93872 57.0999 8.47612C56.6367 8.01352 56.009 7.75329 55.3543 7.7524H8.64581Z" fill="#093F68"/>
<path d="M56.4199 42.5747H7.58024C7.10075 42.5585 6.62828 42.6933 6.22956 42.9601C5.83083 43.2269 5.526 43.6123 5.35811 44.0617L0.42829 59.3131C0.0067938 60.6248 1.10268 61.9298 2.65379 61.9298H61.3362C62.8738 61.9298 63.9832 60.6248 63.5617 59.3131L58.6386 44.0617C58.4709 43.6128 58.1666 43.2279 57.7686 42.9611C57.3705 42.6943 56.8988 42.5592 56.4199 42.5747Z" fill="white"/>
<path d="M61.3362 62.2501H2.66394C2.23506 62.2568 1.81063 62.1623 1.42512 61.9743C1.03961 61.7862 0.703876 61.5099 0.445186 61.1677C0.23563 60.889 0.0956981 60.5643 0.0370445 60.2206C-0.021609 59.8769 0.00271423 59.5241 0.107989 59.1917L5.02432 43.9572C5.21664 43.441 5.56537 42.9979 6.02179 42.6895C6.47822 42.3812 7.01955 42.2232 7.57016 42.2375H56.4199C56.9705 42.2232 57.5119 42.3812 57.9683 42.6895C58.4247 42.9979 58.7734 43.441 58.9657 43.9572L63.8922 59.1917C63.9975 59.5241 64.0218 59.8769 63.9631 60.2206C63.9045 60.5643 63.7645 60.889 63.555 61.1677C63.2963 61.5099 62.9606 61.7862 62.5751 61.9743C62.1895 62.1623 61.7651 62.2568 61.3362 62.2501ZM7.58028 42.9119C7.17217 42.8971 6.76963 43.01 6.42873 43.2348C6.08783 43.4597 5.82557 43.7853 5.67849 44.1662L0.752037 59.4008C0.67603 59.631 0.657187 59.8762 0.697135 60.1153C0.737083 60.3544 0.834622 60.5802 0.981331 60.7732C1.17894 61.0307 1.43476 61.2377 1.72783 61.3772C2.0209 61.5167 2.34286 61.5847 2.66732 61.5757H61.3362C61.6607 61.5847 61.9827 61.5167 62.2757 61.3772C62.5688 61.2377 62.8246 61.0307 63.0222 60.7732C63.1689 60.5802 63.2665 60.3544 63.3064 60.1153C63.3464 59.8762 63.3275 59.631 63.2515 59.4008L58.3251 44.1662C58.178 43.7853 57.9157 43.4597 57.5748 43.2348C57.2339 43.01 56.8314 42.8971 56.4233 42.9119H7.58028Z" fill="#093F68"/>
<path d="M9.37744 10.6219H54.6192V39.368H9.37744V10.6219Z" fill="#093F68"/>
<path d="M54.6226 39.7052H9.37748C9.28805 39.7052 9.20228 39.6697 9.13905 39.6065C9.07581 39.5432 9.04028 39.4575 9.04028 39.368V10.622C9.04028 10.5326 9.07581 10.4468 9.13905 10.3836C9.20228 10.3203 9.28805 10.2848 9.37748 10.2848H54.6226C54.712 10.2848 54.7978 10.3203 54.861 10.3836C54.9243 10.4468 54.9598 10.5326 54.9598 10.622V39.368C54.9598 39.4575 54.9243 39.5432 54.861 39.6065C54.7978 39.6697 54.712 39.7052 54.6226 39.7052ZM9.71468 39.0308H54.2854V10.9592H9.71468V39.0308Z" fill="#093F68"/>
<path d="M55.7554 54.1709H8.24434C7.97724 54.1783 7.71213 54.123 7.47028 54.0094C7.22843 53.8958 7.01658 53.7271 6.85172 53.5168C6.73296 53.3629 6.6529 53.1827 6.61828 52.9914C6.58366 52.8001 6.59549 52.6033 6.65277 52.4175L8.80746 45.4106C8.92923 45.0914 9.14866 44.8189 9.43445 44.6318C9.72025 44.4447 10.0578 44.3526 10.399 44.3686H53.6007C53.9419 44.3526 54.2795 44.4447 54.5653 44.6318C54.8511 44.8189 55.0705 45.0914 55.1923 45.4106L57.347 52.4175C57.4043 52.6033 57.4161 52.8001 57.3815 52.9914C57.3468 53.1827 57.2668 53.3629 57.148 53.5168C56.9832 53.7271 56.7713 53.8958 56.5295 54.0094C56.2876 54.123 56.0225 54.1783 55.7554 54.1709ZM10.399 45.043C10.2025 45.0288 10.0064 45.0756 9.8374 45.177C9.66843 45.2784 9.53485 45.4294 9.45488 45.6095L7.30019 52.6165C7.27405 52.701 7.26898 52.7907 7.28544 52.8777C7.3019 52.9647 7.33937 53.0463 7.39461 53.1155C7.4975 53.24 7.62766 53.3391 7.77502 53.4052C7.92237 53.4712 8.08296 53.5025 8.24434 53.4965H55.7554C55.9168 53.5025 56.0774 53.4712 56.2247 53.4052C56.3721 53.3391 56.5023 53.24 56.6051 53.1155C56.6604 53.0463 56.6979 52.9647 56.7143 52.8777C56.7308 52.7907 56.7257 52.701 56.6996 52.6165L54.5449 45.6095C54.4649 45.4294 54.3313 45.2784 54.1623 45.177C53.9934 45.0756 53.7973 45.0288 53.6007 45.043H10.399Z" fill="#DFEAEF"/>
<path d="M39.4791 60.4091H24.521C24.4705 60.4102 24.4203 60.3998 24.3743 60.3788C24.3282 60.3578 24.2875 60.3267 24.2552 60.2879C24.2228 60.249 24.1995 60.2034 24.1872 60.1543C24.1749 60.1053 24.1737 60.0541 24.1838 60.0045L25.0808 55.4625C25.0965 55.3851 25.1389 55.3158 25.2005 55.2665C25.2621 55.2172 25.3391 55.1911 25.418 55.1927H38.5687C38.6475 55.1911 38.7245 55.2172 38.7861 55.2665C38.8477 55.3158 38.8901 55.3851 38.9059 55.4625L39.8028 60.0045C39.8129 60.0541 39.8118 60.1053 39.7994 60.1543C39.7871 60.2034 39.7639 60.249 39.7315 60.2879C39.6991 60.3267 39.6584 60.3578 39.6124 60.3788C39.5663 60.3998 39.5162 60.4102 39.4656 60.4091H39.4791ZM24.9324 59.7347H39.0812L38.3191 55.8671H25.6945L24.9324 59.7347Z" fill="#DFEAEF"/>
<path d="M47.5853 0.556641V39.3647H16.4148V0.556641L19.0112 2.83609L21.611 0.556641L24.2074 2.83609L26.8038 0.556641L29.4036 2.83609L32.0034 0.556641L34.6032 2.83609L37.1963 0.556641L39.796 2.83609L42.3958 0.556641L44.9956 2.83609L47.5853 0.556641Z" fill="white"/>
<path d="M47.5853 39.7018H16.4148C16.3254 39.7018 16.2396 39.6663 16.1764 39.603C16.1132 39.5398 16.0776 39.454 16.0776 39.3646V0.556593C16.0775 0.492098 16.0958 0.42891 16.1305 0.374523C16.1651 0.320136 16.2147 0.276831 16.2732 0.249744C16.3326 0.222475 16.3987 0.213056 16.4633 0.222635C16.528 0.232213 16.5884 0.260375 16.6374 0.303695L18.9978 2.38757L21.3885 0.303695C21.45 0.249636 21.5291 0.219823 21.611 0.219823C21.693 0.219823 21.7721 0.249636 21.8336 0.303695L24.194 2.38757L26.5847 0.303695C26.6462 0.249636 26.7253 0.219823 26.8073 0.219823C26.8892 0.219823 26.9683 0.249636 27.0298 0.303695L29.3902 2.38757L31.7506 0.303695C31.8121 0.249636 31.8912 0.219823 31.9731 0.219823C32.055 0.219823 32.1341 0.249636 32.1957 0.303695L34.5729 2.38757L36.9333 0.303695C36.9948 0.249636 37.0739 0.219823 37.1558 0.219823C37.2377 0.219823 37.3168 0.249636 37.3784 0.303695L39.7556 2.38757L42.116 0.303695C42.1775 0.249636 42.2566 0.219823 42.3385 0.219823C42.4205 0.219823 42.4996 0.249636 42.5611 0.303695L44.9215 2.38757L47.2819 0.303695C47.3305 0.260926 47.3905 0.23309 47.4546 0.22352C47.5187 0.213949 47.5842 0.22305 47.6432 0.249731C47.7023 0.276412 47.7524 0.319543 47.7876 0.373965C47.8228 0.428386 47.8415 0.491792 47.8416 0.556593V39.3646C47.8438 39.4416 47.8196 39.5171 47.773 39.5785C47.7264 39.6398 47.6602 39.6833 47.5853 39.7018ZM16.752 39.0274H47.2481V1.31529L45.225 3.10243C45.1634 3.15649 45.0843 3.1863 45.0024 3.1863C44.9205 3.1863 44.8414 3.15649 44.7799 3.10243L42.4195 1.01855L40.0422 3.10243C39.9807 3.15649 39.9016 3.1863 39.8197 3.1863C39.7378 3.1863 39.6587 3.15649 39.5971 3.10243L37.2368 1.01855L34.8764 3.10243C34.8148 3.15649 34.7357 3.1863 34.6538 3.1863C34.5719 3.1863 34.4928 3.15649 34.4313 3.10243L32.0001 1.00507L29.6397 3.08894C29.5782 3.143 29.4991 3.17282 29.4172 3.17282C29.3352 3.17282 29.2561 3.143 29.1946 3.08894L26.8342 1.00507L24.4738 3.08894C24.4123 3.143 24.3332 3.17282 24.2513 3.17282C24.1694 3.17282 24.0903 3.143 24.0287 3.08894L21.6684 1.00507L19.2911 3.08894C19.2296 3.143 19.1505 3.17282 19.0686 3.17282C18.9867 3.17282 18.9076 3.143 18.846 3.08894L16.8228 1.3018L16.752 39.0274Z" fill="#093F68"/>
<path d="M40.1163 28.0786H24.1366C21.8869 28.0786 20.0632 29.9023 20.0632 32.152C20.0632 34.4016 21.8869 36.2253 24.1366 36.2253H40.1163C42.366 36.2253 44.1897 34.4016 44.1897 32.152C44.1897 29.9023 42.366 28.0786 40.1163 28.0786Z" fill="#70CC40"/>
<path d="M40.1162 36.5591H24.1331C22.9849 36.5274 21.8944 36.0489 21.0935 35.2256C20.2926 34.4022 19.8445 33.2989 19.8445 32.1503C19.8445 31.0017 20.2926 29.8983 21.0935 29.075C21.8944 28.2516 22.9849 27.7732 24.1331 27.7414H40.1162C40.7055 27.7251 41.292 27.8271 41.8411 28.0414C42.3903 28.2556 42.8909 28.5777 43.3135 28.9887C43.736 29.3998 44.0719 29.8913 44.3012 30.4343C44.5305 30.9773 44.6487 31.5608 44.6487 32.1503C44.6487 32.7398 44.5305 33.3232 44.3012 33.8663C44.0719 34.4093 43.736 34.9008 43.3135 35.3118C42.8909 35.7228 42.3903 36.045 41.8411 36.2592C41.292 36.4734 40.7055 36.5754 40.1162 36.5591ZM24.1331 28.4158C23.1621 28.445 22.2406 28.8513 21.5641 29.5484C20.8875 30.2456 20.5092 31.1788 20.5092 32.1503C20.5092 33.1217 20.8875 34.055 21.5641 34.7522C22.2406 35.4493 23.1621 35.8556 24.1331 35.8847H40.1162C40.6161 35.8998 41.1139 35.8143 41.5801 35.6334C42.0463 35.4525 42.4714 35.1798 42.8303 34.8315C43.1892 34.4833 43.4745 34.0665 43.6694 33.6059C43.8642 33.1454 43.9646 32.6504 43.9646 32.1503C43.9646 31.6502 43.8642 31.1552 43.6694 30.6946C43.4745 30.2341 43.1892 29.8173 42.8303 29.469C42.4714 29.1208 42.0463 28.8481 41.5801 28.6672C41.1139 28.4863 40.6161 28.4008 40.1162 28.4158H24.1331Z" fill="#093F68"/>
<path d="M27.7244 30.2333H29.1271C29.3127 30.2335 29.4979 30.2516 29.6801 30.2872C29.8426 30.3185 29.9973 30.3815 30.1353 30.4727C30.2647 30.5581 30.3712 30.6739 30.4455 30.8099C30.5264 30.9839 30.5656 31.1744 30.5602 31.3663C30.5657 31.5563 30.5288 31.7452 30.4523 31.9193C30.3881 32.0624 30.2868 32.1858 30.1589 32.2767C30.026 32.3689 29.8757 32.4332 29.7172 32.4655C29.5354 32.5043 29.35 32.5235 29.1642 32.5228H28.5572V34.0234H27.7244V30.2333ZM28.5572 31.8316H29.1102C29.1827 31.8317 29.2549 31.8249 29.3261 31.8114C29.3916 31.799 29.4544 31.775 29.5115 31.7405C29.5677 31.7069 29.6142 31.6593 29.6464 31.6023C29.682 31.5337 29.6994 31.457 29.697 31.3797C29.6999 31.297 29.6763 31.2154 29.6295 31.1471C29.5839 31.0889 29.5249 31.0426 29.4576 31.0122C29.3857 30.9775 29.3079 30.9569 29.2283 30.9515C29.1463 30.9467 29.0641 30.9467 28.9821 30.9515H28.5572V31.8316Z" fill="#093F68"/>
<path d="M31.9291 30.2333H32.6035L34.2558 34.0234H33.3184L32.9812 33.2242H31.5279L31.2143 34.0234H30.314L31.9291 30.2333ZM32.2461 31.3325L31.7909 32.5026H32.7114L32.2461 31.3325Z" fill="#093F68"/>
<path d="M35.1662 32.3981L33.75 30.2333H34.7818L35.581 31.6461L36.4273 30.2333H37.4153L35.9991 32.3981V34.0234H35.1662V32.3981Z" fill="#093F68"/>
<path d="M39.1251 6.23165H25.9744C25.885 6.23165 25.7992 6.19612 25.736 6.13288C25.6727 6.06965 25.6372 5.98388 25.6372 5.89445C25.6372 5.80502 25.6727 5.71925 25.736 5.65601C25.7992 5.59278 25.885 5.55725 25.9744 5.55725H39.1251C39.2145 5.55725 39.3003 5.59278 39.3635 5.65601C39.4268 5.71925 39.4623 5.80502 39.4623 5.89445C39.4623 5.98388 39.4268 6.06965 39.3635 6.13288C39.3003 6.19612 39.2145 6.23165 39.1251 6.23165Z" fill="#DFEAEF"/>
<path d="M31.9124 10.713H21.9617C21.8723 10.713 21.7865 10.6774 21.7233 10.6142C21.66 10.551 21.6245 10.4652 21.6245 10.3758C21.6245 10.2863 21.66 10.2006 21.7233 10.1373C21.7865 10.0741 21.8723 10.0386 21.9617 10.0386H31.9124C32.0018 10.0386 32.0876 10.0741 32.1508 10.1373C32.2141 10.2006 32.2496 10.2863 32.2496 10.3758C32.2496 10.4652 32.2141 10.551 32.1508 10.6142C32.0876 10.6774 32.0018 10.713 31.9124 10.713Z" fill="#DFEAEF"/>
<path d="M42.2912 10.713H37.793C37.7036 10.713 37.6178 10.6774 37.5546 10.6142C37.4913 10.551 37.4558 10.4652 37.4558 10.3758C37.4558 10.2863 37.4913 10.2006 37.5546 10.1373C37.6178 10.0741 37.7036 10.0386 37.793 10.0386H42.2912C42.3807 10.0386 42.4664 10.0741 42.5297 10.1373C42.5929 10.2006 42.6284 10.2863 42.6284 10.3758C42.6284 10.4652 42.5929 10.551 42.5297 10.6142C42.4664 10.6774 42.3807 10.713 42.2912 10.713Z" fill="#DFEAEF"/>
<path d="M30.9412 14.1085H27.7344C27.645 14.1085 27.5592 14.073 27.496 14.0097C27.4327 13.9465 27.3972 13.8607 27.3972 13.7713C27.3972 13.6818 27.4327 13.5961 27.496 13.5328C27.5592 13.4696 27.645 13.4341 27.7344 13.4341H30.9412C31.0306 13.4341 31.1164 13.4696 31.1796 13.5328C31.2428 13.5961 31.2784 13.6818 31.2784 13.7713C31.2784 13.8607 31.2428 13.9465 31.1796 14.0097C31.1164 14.073 31.0306 14.1085 30.9412 14.1085Z" fill="#DFEAEF"/>
<path d="M25.9609 14.1085H21.9617C21.8723 14.1085 21.7865 14.073 21.7233 14.0097C21.66 13.9465 21.6245 13.8607 21.6245 13.7713C21.6245 13.6818 21.66 13.5961 21.7233 13.5328C21.7865 13.4696 21.8723 13.4341 21.9617 13.4341H25.9609C26.0503 13.4341 26.1361 13.4696 26.1993 13.5328C26.2625 13.5961 26.2981 13.6818 26.2981 13.7713C26.2981 13.8607 26.2625 13.9465 26.1993 14.0097C26.1361 14.073 26.0503 14.1085 25.9609 14.1085Z" fill="#DFEAEF"/>
<path d="M42.2913 14.1085H38.7979C38.7085 14.1085 38.6227 14.073 38.5595 14.0097C38.4962 13.9465 38.4607 13.8607 38.4607 13.7713C38.4607 13.6818 38.4962 13.5961 38.5595 13.5328C38.6227 13.4696 38.7085 13.4341 38.7979 13.4341H42.2913C42.3807 13.4341 42.4665 13.4696 42.5297 13.5328C42.5929 13.5961 42.6284 13.6818 42.6284 13.7713C42.6284 13.8607 42.5929 13.9465 42.5297 14.0097C42.4665 14.073 42.3807 14.1085 42.2913 14.1085Z" fill="#DFEAEF"/>
<path d="M29.7038 17.5008H21.9483C21.8589 17.5008 21.7731 17.4653 21.7098 17.402C21.6466 17.3388 21.6111 17.253 21.6111 17.1636C21.6111 17.0742 21.6466 16.9884 21.7098 16.9252C21.7731 16.8619 21.8589 16.8264 21.9483 16.8264H29.7038C29.7932 16.8264 29.879 16.8619 29.9422 16.9252C30.0055 16.9884 30.041 17.0742 30.041 17.1636C30.041 17.253 30.0055 17.3388 29.9422 17.402C29.879 17.4653 29.7932 17.5008 29.7038 17.5008Z" fill="#DFEAEF"/>
<path d="M42.2912 17.5008H37.793C37.7036 17.5008 37.6178 17.4653 37.5546 17.402C37.4913 17.3388 37.4558 17.253 37.4558 17.1636C37.4558 17.0742 37.4913 16.9884 37.5546 16.9252C37.6178 16.8619 37.7036 16.8264 37.793 16.8264H42.2912C42.3807 16.8264 42.4664 16.8619 42.5297 16.9252C42.5929 16.9884 42.6284 17.0742 42.6284 17.1636C42.6284 17.253 42.5929 17.3388 42.5297 17.402C42.4664 17.4653 42.3807 17.5008 42.2912 17.5008Z" fill="#DFEAEF"/>
<path d="M42.2913 21.3549H21.9617C21.8723 21.3549 21.7865 21.3194 21.7233 21.2562C21.66 21.1929 21.6245 21.1072 21.6245 21.0177C21.6245 20.9283 21.66 20.8425 21.7233 20.7793C21.7865 20.7161 21.8723 20.6805 21.9617 20.6805H42.2913C42.3808 20.6805 42.4665 20.7161 42.5298 20.7793C42.593 20.8425 42.6285 20.9283 42.6285 21.0177C42.6285 21.1072 42.593 21.1929 42.5298 21.2562C42.4665 21.3194 42.3808 21.3549 42.2913 21.3549Z" fill="#DFEAEF"/>
<path d="M42.2913 24.8618H37.4222C37.3327 24.8618 37.247 24.8262 37.1837 24.763C37.1205 24.6998 37.085 24.614 37.085 24.5246C37.085 24.4351 37.1205 24.3494 37.1837 24.2861C37.247 24.2229 37.3327 24.1874 37.4222 24.1874H42.2913C42.3807 24.1874 42.4665 24.2229 42.5297 24.2861C42.593 24.3494 42.6285 24.4351 42.6285 24.5246C42.6285 24.614 42.593 24.6998 42.5297 24.763C42.4665 24.8262 42.3807 24.8618 42.2913 24.8618Z" fill="#DFEAEF"/>
<path d="M18.9774 14.3278H4.00252C3.40287 14.3278 2.91675 14.8139 2.91675 15.4135V24.5077C2.91675 25.1074 3.40287 25.5935 4.00252 25.5935H18.9774C19.5771 25.5935 20.0632 25.1074 20.0632 24.5077V15.4135C20.0632 14.8139 19.5771 14.3278 18.9774 14.3278Z" fill="#F56132"/>
<path d="M18.974 25.9306H4.01257C3.63518 25.9306 3.27324 25.7807 3.00638 25.5138C2.73952 25.247 2.5896 24.8851 2.5896 24.5077V15.4033C2.59315 15.028 2.74453 14.6691 3.01091 14.4047C3.27729 14.1402 3.63719 13.9913 4.01257 13.9905H18.9841C19.3616 13.9914 19.7233 14.1415 19.9905 14.408C20.2577 14.6746 20.4087 15.036 20.4105 15.4135V24.5178C20.4069 24.8955 20.2537 25.2563 19.9844 25.5212C19.7151 25.7861 19.3517 25.9333 18.974 25.9306ZM4.01257 14.6649C3.81404 14.6649 3.62363 14.7437 3.48325 14.8841C3.34286 15.0245 3.26399 15.2149 3.26399 15.4135V24.5178C3.26665 24.7145 3.34669 24.9024 3.48679 25.0406C3.62689 25.1788 3.81578 25.2563 4.01257 25.2562H18.9841C19.183 25.2562 19.3737 25.1775 19.5146 25.0372C19.6556 24.8969 19.7352 24.7065 19.7361 24.5077V15.4033C19.7352 15.2045 19.6556 15.0141 19.5146 14.8738C19.3737 14.7335 19.183 14.6548 18.9841 14.6548L4.01257 14.6649Z" fill="#093F68"/>
<path d="M2.91675 16.597H20.0632V18.9068H2.91675V16.597Z" fill="white"/>
<path d="M20.0633 19.2441H2.91679C2.82736 19.2441 2.74159 19.2086 2.67835 19.1453C2.61512 19.0821 2.57959 18.9963 2.57959 18.9069V16.5971C2.57959 16.5077 2.61512 16.4219 2.67835 16.3587C2.74159 16.2954 2.82736 16.2599 2.91679 16.2599H20.0633C20.1527 16.2599 20.2385 16.2954 20.3017 16.3587C20.3649 16.4219 20.4005 16.5077 20.4005 16.5971V18.9069C20.4005 18.9963 20.3649 19.0821 20.3017 19.1453C20.2385 19.2086 20.1527 19.2441 20.0633 19.2441ZM3.25398 18.5697H19.7261V16.9343H3.25398V18.5697Z" fill="#093F68"/>
<path d="M14.5939 24.2379C15.4264 24.2379 16.1012 23.5631 16.1012 22.7307C16.1012 21.8982 15.4264 21.2234 14.5939 21.2234C13.7615 21.2234 13.0867 21.8982 13.0867 22.7307C13.0867 23.5631 13.7615 24.2379 14.5939 24.2379Z" fill="white"/>
<path d="M17.2509 24.2379C18.0834 24.2379 18.7582 23.5631 18.7582 22.7307C18.7582 21.8982 18.0834 21.2234 17.2509 21.2234C16.4185 21.2234 15.7437 21.8982 15.7437 22.7307C15.7437 23.5631 16.4185 24.2379 17.2509 24.2379Z" fill="white"/>
<path d="M53.675 35.5678L51.3079 37.9316L55.1452 41.7689L52.6331 44.281L48.7958 40.4471L46.4287 42.8142L44.8674 34.0066L53.675 35.5678Z" fill="#FFBC0E"/>
<path d="M52.6331 44.6181C52.5887 44.6184 52.5447 44.6099 52.5036 44.5931C52.4625 44.5763 52.4252 44.5516 52.3936 44.5203L48.7958 40.9224L46.668 43.0501C46.6246 43.0945 46.5697 43.126 46.5095 43.1412C46.4493 43.1564 46.386 43.1546 46.3268 43.1361C46.2675 43.1177 46.2144 43.0832 46.1735 43.0364C46.1326 42.9897 46.1053 42.9326 46.0948 42.8714L44.537 34.0638C44.5277 34.0104 44.5314 33.9556 44.5479 33.9039C44.5643 33.8523 44.5929 33.8053 44.6314 33.7671C44.6696 33.7287 44.7165 33.7 44.7682 33.6836C44.8198 33.6672 44.8747 33.6634 44.9281 33.6727L53.7323 35.2339C53.7935 35.2444 53.8506 35.2717 53.8973 35.3126C53.944 35.3535 53.9785 35.4066 53.997 35.4659C54.0155 35.5252 54.0173 35.5884 54.0021 35.6486C53.9869 35.7088 53.9554 35.7637 53.911 35.8071L51.7867 37.9315L55.3812 41.5294C55.4128 41.5607 55.4379 41.598 55.455 41.6391C55.4721 41.6802 55.481 41.7243 55.481 41.7688C55.481 41.8133 55.4721 41.8574 55.455 41.8985C55.4379 41.9396 55.4128 41.9769 55.3812 42.0082L52.8691 44.5203C52.8063 44.5826 52.7215 44.6177 52.6331 44.6181ZM48.7958 40.1098C48.8401 40.1095 48.8841 40.118 48.9252 40.1348C48.9663 40.1516 49.0037 40.1763 49.0352 40.2076L52.6331 43.8021L54.6562 41.7789L51.0718 38.1709C51.009 38.1077 50.9738 38.0223 50.9738 37.9332C50.9738 37.8441 51.009 37.7586 51.0718 37.6955L52.977 35.7869L45.2855 34.4381L46.6343 42.133L48.5429 40.2244C48.5745 40.1885 48.6133 40.1596 48.657 40.1399C48.7006 40.1201 48.7479 40.1098 48.7958 40.1098Z" fill="#093F68"/>
</svg>
