<svg width="85" height="64" viewBox="0 0 85 64" fill="none" xmlns="http://www.w3.org/2000/svg">
<path d="M73.2275 1.20288H45.6178C42.5599 1.20288 40.0809 3.68182 40.0809 6.73976V57.5536C40.0809 60.6115 42.5599 63.0905 45.6178 63.0905H73.2275C76.2855 63.0905 78.7644 60.6115 78.7644 57.5536V6.73976C78.7644 3.68182 76.2855 1.20288 73.2275 1.20288Z" fill="#68E1FD"/>
<path d="M73.2275 63.4638H45.6178C44.8407 63.4648 44.071 63.3127 43.3526 63.0162C42.6343 62.7197 41.9814 62.2846 41.4312 61.7358C40.881 61.187 40.4442 60.5352 40.1459 59.8176C39.8476 59.1 39.6936 58.3307 39.6926 57.5536V6.75838C39.6946 5.1915 40.3179 3.68936 41.4259 2.5814C42.5338 1.47344 44.036 0.850125 45.6029 0.848149H73.2126C73.9897 0.847168 74.7594 0.999263 75.4778 1.29575C76.1961 1.59223 76.849 2.02731 77.3992 2.57612C77.9494 3.12494 78.3861 3.77675 78.6844 4.49435C78.9827 5.21194 79.1368 5.98126 79.1377 6.75838V57.5722C79.1308 59.1359 78.5054 60.6332 77.3979 61.7371C76.2905 62.8411 74.7912 63.4618 73.2275 63.4638ZM45.6178 1.5762C44.9372 1.57521 44.263 1.70861 43.6341 1.96873C43.0051 2.22886 42.4337 2.6106 41.9526 3.09205C41.4714 3.57351 41.0901 4.14521 40.8304 4.77437C40.5708 5.40352 40.4379 6.07775 40.4393 6.75838V57.5722C40.4413 58.9411 40.986 60.2533 41.9539 61.2212C42.9218 62.1891 44.234 62.7338 45.6029 62.7357H73.2126C74.5817 62.7347 75.8945 62.1904 76.8627 61.2223C77.8308 60.2542 78.3751 58.9414 78.3761 57.5722V6.75838C78.3751 5.38924 77.8308 4.07645 76.8627 3.10832C75.8945 2.14018 74.5817 1.59585 73.2126 1.59486L45.6178 1.5762Z" fill="#093F68"/>
<path d="M74.7807 5.896H44.0684C43.5116 5.896 43.0603 6.34732 43.0603 6.90406V53.8686C43.0603 54.4253 43.5116 54.8766 44.0684 54.8766H74.7807C75.3374 54.8766 75.7887 54.4253 75.7887 53.8686V6.90406C75.7887 6.34732 75.3374 5.896 74.7807 5.896Z" fill="white"/>
<path d="M74.7881 55.2501H44.0646C43.6988 55.2491 43.3484 55.1031 43.0902 54.8441C42.8319 54.5852 42.6869 54.2344 42.6869 53.8686V6.90412C42.6869 6.53839 42.8319 6.18759 43.0902 5.92863C43.3484 5.66967 43.6988 5.52369 44.0646 5.52271H74.7881C75.1545 5.52271 75.5058 5.66825 75.7649 5.92731C76.024 6.18638 76.1695 6.53775 76.1695 6.90412V53.8686C76.1695 54.235 76.024 54.5864 75.7649 54.8455C75.5058 55.1045 75.1545 55.2501 74.7881 55.2501ZM44.0646 6.26942C43.8969 6.2704 43.7364 6.33771 43.6182 6.45663C43.5 6.57556 43.4336 6.73643 43.4336 6.90412V53.8686C43.4336 54.0363 43.5 54.1972 43.6182 54.3161C43.7364 54.4351 43.8969 54.5024 44.0646 54.5034H74.7881C74.9564 54.5034 75.1179 54.4365 75.2369 54.3175C75.3559 54.1984 75.4228 54.037 75.4228 53.8686V6.90412C75.4228 6.73579 75.3559 6.57435 75.2369 6.45532C75.1179 6.33629 74.9564 6.26942 74.7881 6.26942H44.0646Z" fill="#093F68"/>
<path d="M73.093 37.4819H45.7521C45.6531 37.4819 45.5582 37.4425 45.4881 37.3725C45.4181 37.3025 45.3788 37.2075 45.3788 37.1085V25.6763C45.3788 25.5773 45.4181 25.4823 45.4881 25.4123C45.5582 25.3423 45.6531 25.303 45.7521 25.303H73.093C73.1921 25.303 73.287 25.3423 73.3571 25.4123C73.4271 25.4823 73.4664 25.5773 73.4664 25.6763V37.1085C73.4664 37.2075 73.4271 37.3025 73.3571 37.3725C73.287 37.4425 73.1921 37.4819 73.093 37.4819ZM46.1255 36.7352H72.7197V26.0497H46.1255V36.7352Z" fill="#DFEAEF"/>
<path d="M59.2341 60.5776C60.1146 60.5776 60.8284 59.8639 60.8284 58.9834C60.8284 58.1029 60.1146 57.3892 59.2341 57.3892C58.3537 57.3892 57.6399 58.1029 57.6399 58.9834C57.6399 59.8639 58.3537 60.5776 59.2341 60.5776Z" fill="white"/>
<path d="M59.2342 60.951C58.845 60.951 58.4646 60.8357 58.1411 60.6194C57.8175 60.4032 57.5653 60.096 57.4164 59.7364C57.2675 59.3769 57.2285 58.9813 57.3044 58.5996C57.3803 58.2179 57.5677 57.8673 57.8429 57.5922C58.1181 57.317 58.4687 57.1296 58.8503 57.0537C59.232 56.9778 59.6276 57.0167 59.9872 57.1656C60.3467 57.3146 60.654 57.5668 60.8702 57.8903C61.0864 58.2139 61.2018 58.5943 61.2018 58.9835C61.2008 59.505 60.9932 60.0049 60.6244 60.3737C60.2556 60.7424 59.7557 60.9501 59.2342 60.951ZM59.2342 57.7626C58.9927 57.7626 58.7567 57.8342 58.5559 57.9683C58.3551 58.1025 58.1987 58.2932 58.1062 58.5163C58.0138 58.7393 57.9897 58.9848 58.0368 59.2216C58.0839 59.4585 58.2002 59.676 58.3709 59.8468C58.5416 60.0175 58.7592 60.1338 58.996 60.1809C59.2328 60.228 59.4783 60.2038 59.7014 60.1114C59.9245 60.019 60.1152 59.8625 60.2493 59.6617C60.3835 59.461 60.4551 59.2249 60.4551 58.9835C60.4541 58.66 60.3251 58.35 60.0964 58.1213C59.8676 57.8925 59.5577 57.7636 59.2342 57.7626Z" fill="#093F68"/>
<path d="M45.7522 12.4373H73.0968V23.8694H45.7522V12.4373Z" fill="#F56132"/>
<path d="M73.093 24.2426H45.7521C45.6531 24.2426 45.5582 24.2033 45.4881 24.1333C45.4181 24.0632 45.3788 23.9683 45.3788 23.8693V12.4371C45.3788 12.3381 45.4181 12.2431 45.4881 12.1731C45.5582 12.1031 45.6531 12.0637 45.7521 12.0637H73.093C73.1921 12.0637 73.287 12.1031 73.3571 12.1731C73.4271 12.2431 73.4664 12.3381 73.4664 12.4371V23.8693C73.4664 23.9683 73.4271 24.0632 73.3571 24.1333C73.287 24.2033 73.1921 24.2426 73.093 24.2426ZM46.1255 23.4959H72.7197V12.8104H46.1255V23.4959Z" fill="#093F68"/>
<path d="M45.7522 38.9155H73.0968V50.3477H45.7522V38.9155Z" fill="#FFBC0E"/>
<path d="M73.093 50.7211H45.7521C45.6531 50.7211 45.5582 50.6818 45.4881 50.6118C45.4181 50.5418 45.3788 50.4468 45.3788 50.3478V38.9156C45.3788 38.8166 45.4181 38.7216 45.4881 38.6516C45.5582 38.5816 45.6531 38.5422 45.7521 38.5422H73.093C73.1921 38.5422 73.287 38.5816 73.3571 38.6516C73.4271 38.7216 73.4664 38.8166 73.4664 38.9156V50.3478C73.4664 50.4468 73.4271 50.5418 73.3571 50.6118C73.287 50.6818 73.1921 50.7211 73.093 50.7211ZM46.1255 49.9744H72.7197V39.2889H46.1255V49.9744Z" fill="#093F68"/>
<path d="M48.1753 8.49452H46.2152C46.1161 8.49452 46.0212 8.45518 45.9512 8.38516C45.8811 8.31514 45.8418 8.22018 45.8418 8.12116C45.8418 8.02214 45.8811 7.92717 45.9512 7.85716C46.0212 7.78714 46.1161 7.7478 46.2152 7.7478H48.1753C48.2743 7.7478 48.3693 7.78714 48.4393 7.85716C48.5093 7.92717 48.5486 8.02214 48.5486 8.12116C48.5486 8.22018 48.5093 8.31514 48.4393 8.38516C48.3693 8.45518 48.2743 8.49452 48.1753 8.49452Z" fill="#093F68"/>
<path d="M48.1753 9.58827H46.2152C46.1161 9.58827 46.0212 9.54893 45.9512 9.47891C45.8811 9.40889 45.8418 9.31393 45.8418 9.21491C45.8418 9.11589 45.8811 9.02092 45.9512 8.95091C46.0212 8.88089 46.1161 8.84155 46.2152 8.84155H48.1753C48.2743 8.84155 48.3693 8.88089 48.4393 8.95091C48.5093 9.02092 48.5486 9.11589 48.5486 9.21491C48.5486 9.31393 48.5093 9.40889 48.4393 9.47891C48.3693 9.54893 48.2743 9.58827 48.1753 9.58827Z" fill="#093F68"/>
<path d="M48.1753 10.6862H46.2152C46.1161 10.6862 46.0212 10.6468 45.9512 10.5768C45.8811 10.5068 45.8418 10.4118 45.8418 10.3128C45.8418 10.2138 45.8811 10.1188 45.9512 10.0488C46.0212 9.97879 46.1161 9.93945 46.2152 9.93945H48.1753C48.2743 9.93945 48.3693 9.97879 48.4393 10.0488C48.5093 10.1188 48.5486 10.2138 48.5486 10.3128C48.5486 10.4118 48.5093 10.5068 48.4393 10.5768C48.3693 10.6468 48.2743 10.6862 48.1753 10.6862Z" fill="#093F68"/>
<path d="M73.0931 9.58827H63.8189C63.7199 9.58827 63.6249 9.54893 63.5549 9.47891C63.4849 9.40889 63.4456 9.31393 63.4456 9.21491C63.4456 9.11589 63.4849 9.02092 63.5549 8.95091C63.6249 8.88089 63.7199 8.84155 63.8189 8.84155H73.0931C73.1921 8.84155 73.2871 8.88089 73.3571 8.95091C73.4271 9.02092 73.4664 9.11589 73.4664 9.21491C73.4664 9.31393 73.4271 9.40889 73.3571 9.47891C73.2871 9.54893 73.1921 9.58827 73.0931 9.58827Z" fill="#093F68"/>
<path d="M40.3049 34.9093C38.9011 34.2261 38.2851 34.9803 37.5981 36.4028C35.862 39.9534 32.4532 44.1536 31.322 45.0684C29.9406 44.7174 21.4579 37.3809 20.0578 37.3809H11.3175C10.834 37.3805 10.355 37.4753 9.90818 37.6602C9.46132 37.845 9.0553 38.1161 8.71336 38.4581C8.37143 38.8 8.10028 39.206 7.91546 39.6529C7.73063 40.0997 7.63574 40.5787 7.63623 41.0622V56.8515H23.754V46.5655L23.9183 46.6738C27.3569 48.9363 29.7389 49.9668 31.602 49.9668C31.931 49.9689 32.2591 49.9339 32.5802 49.8623C35.9105 49.1155 39.3342 43.3845 41.6192 38.6952C41.7819 38.3604 41.8771 37.9968 41.8991 37.6252C41.9211 37.2535 41.8696 36.8812 41.7476 36.5296C41.6255 36.1779 41.4352 35.8538 41.1877 35.5757C40.9401 35.2977 40.6401 35.0712 40.3049 34.9093Z" fill="#68E1FD"/>
<path d="M23.7391 57.21H7.62128C7.52226 57.21 7.4273 57.1707 7.35728 57.1006C7.28726 57.0306 7.24792 56.9357 7.24792 56.8366V41.0474C7.24939 40.5144 7.35582 39.987 7.56113 39.4952C7.76644 39.0033 8.06662 38.5568 8.44451 38.1809C8.82241 37.8051 9.27063 37.5074 9.76358 37.3048C10.2565 37.1022 10.7846 36.9987 11.3175 37.0002H20.0727C20.9128 37.0002 23.1417 38.6542 26.711 41.3797C28.5068 42.7462 30.5192 44.2844 31.2622 44.6353C32.4308 43.5675 35.582 39.7033 37.2807 36.2311C37.9192 34.9169 38.6958 33.7109 40.4804 34.5846C41.2398 34.9611 41.819 35.6231 42.0912 36.4258C42.3634 37.2284 42.3064 38.1062 41.9328 38.867C39.6105 43.6273 36.1121 49.4666 32.6399 50.2357C30.5976 50.6912 28.0663 49.8175 24.105 47.2488V56.8254C24.1065 56.8748 24.0982 56.9239 24.0805 56.97C24.0629 57.0161 24.0363 57.0583 24.0023 57.0941C23.9683 57.1298 23.9275 57.1585 23.8823 57.1784C23.8371 57.1983 23.7884 57.209 23.7391 57.21ZM7.99464 56.4633H23.3657V46.5656C23.3656 46.4978 23.384 46.4312 23.4189 46.373C23.4538 46.3149 23.5038 46.2673 23.5637 46.2354C23.6236 46.2036 23.691 46.1886 23.7588 46.1922C23.8265 46.1958 23.892 46.2177 23.9482 46.2557L24.105 46.364C28.1036 48.9775 30.5827 49.9221 32.4868 49.5002C35.0033 48.9401 38.0424 45.1468 41.2719 38.531C41.5575 37.9465 41.5999 37.2727 41.39 36.657C41.1801 36.0413 40.7349 35.5338 40.1518 35.2454C39.1475 34.7563 38.692 35.0251 37.9453 36.5484C36.2204 40.0804 32.7781 44.3665 31.5684 45.3447C31.523 45.3814 31.4696 45.4069 31.4125 45.4193C31.3555 45.4316 31.2963 45.4303 31.2398 45.4157C30.5827 45.2476 28.9175 43.9969 26.2555 41.9658C24.049 40.282 20.7186 37.7394 20.069 37.7394H11.3175C10.4402 37.7394 9.5988 38.088 8.97844 38.7083C8.35809 39.3287 8.00957 40.1701 8.00957 41.0474L7.99464 56.4633Z" fill="#093F68"/>
<path d="M16.0442 39.5129L18.766 43.8588L19.5836 38.7214L16.0442 39.5129Z" fill="#093F68"/>
<path d="M18.7847 44.2321C18.7219 44.2316 18.6602 44.2153 18.6054 44.1846C18.5506 44.154 18.5044 44.1099 18.4711 44.0567L15.7456 39.7108C15.7144 39.6602 15.6958 39.603 15.6912 39.5437C15.6866 39.4845 15.6962 39.4251 15.7192 39.3703C15.7422 39.3155 15.7779 39.267 15.8234 39.2289C15.8689 39.1907 15.9229 39.1639 15.9808 39.1508L19.5202 38.3555C19.5796 38.3426 19.6413 38.3443 19.6998 38.3605C19.7584 38.3768 19.8121 38.4071 19.8563 38.4489C19.9014 38.4905 19.9355 38.5426 19.9557 38.6005C19.9759 38.6585 19.9815 38.7205 19.972 38.7811L19.1544 43.9185C19.1422 43.9935 19.1074 44.063 19.0547 44.1177C19.002 44.1724 18.9339 44.2097 18.8594 44.2247C18.835 44.231 18.8099 44.2335 18.7847 44.2321ZM16.6603 39.7519L18.5719 42.8059L19.1469 39.1956L16.6603 39.7519Z" fill="#093F68"/>
<path d="M23.7391 46.939C23.6401 46.939 23.5451 46.8997 23.4751 46.8297C23.4051 46.7597 23.3657 46.6647 23.3657 46.5657V42.1937C23.3657 42.0946 23.4051 41.9997 23.4751 41.9297C23.5451 41.8596 23.6401 41.8203 23.7391 41.8203C23.8381 41.8203 23.9331 41.8596 24.0031 41.9297C24.0731 41.9997 24.1124 42.0946 24.1124 42.1937V46.5657C24.1124 46.6647 24.0731 46.7597 24.0031 46.8297C23.9331 46.8997 23.8381 46.939 23.7391 46.939Z" fill="#093F68"/>
<path d="M7.62134 56.8367H23.7429V63.0941H7.62134V56.8367Z" fill="#093F68"/>
<path d="M23.7391 63.4638H7.62128C7.52226 63.4638 7.4273 63.4245 7.35728 63.3545C7.28726 63.2844 7.24792 63.1895 7.24792 63.0905V56.8367C7.24792 56.7377 7.28726 56.6428 7.35728 56.5727C7.4273 56.5027 7.52226 56.4634 7.62128 56.4634H23.7391C23.8381 56.4634 23.9331 56.5027 24.0031 56.5727C24.0731 56.6428 24.1124 56.7377 24.1124 56.8367V63.0905C24.1124 63.1895 24.0731 63.2844 24.0031 63.3545C23.9331 63.4245 23.8381 63.4638 23.7391 63.4638ZM7.99464 62.7171H23.3657V57.2101H7.99464V62.7171Z" fill="#093F68"/>
<path d="M27.4315 28.8311H54.7762V40.2632H27.4315V28.8311Z" fill="#70CC40"/>
<path d="M54.7762 40.6367H27.4316C27.3326 40.6367 27.2376 40.5973 27.1676 40.5273C27.0976 40.4573 27.0582 40.3623 27.0582 40.2633V28.8311C27.0582 28.7321 27.0976 28.6371 27.1676 28.5671C27.2376 28.4971 27.3326 28.4578 27.4316 28.4578H54.7762C54.8752 28.4578 54.9702 28.4971 55.0402 28.5671C55.1102 28.6371 55.1496 28.7321 55.1496 28.8311V40.2633C55.1496 40.3623 55.1102 40.4573 55.0402 40.5273C54.9702 40.5973 54.8752 40.6367 54.7762 40.6367ZM27.8049 39.8899H54.4029V29.2045H27.8049V39.8899Z" fill="#093F68"/>
<path d="M8.74133 43.5826C10.4303 45.5747 12.2567 47.4461 14.2073 49.1829C17.4965 52.0727 20.3453 53.5213 22.731 53.5213C23.9809 53.5301 25.1922 53.0888 26.1435 52.278C27.6817 51.0086 30.0227 48.2122 31.3219 46.5097C30.8627 45.468 28.9362 43.2764 28.7084 42.8022C26.6999 44.3726 24.5896 45.8082 22.3913 47.0996C20.7485 46.6964 16.7237 43.2279 13.6248 39.498" fill="#68E1FD"/>
<path d="M22.7309 53.9095C20.2556 53.9095 17.3061 52.4161 13.9608 49.4815C11.9941 47.7269 10.1538 45.8355 8.45377 43.8214C8.42239 43.7837 8.39875 43.7401 8.38421 43.6932C8.36967 43.6463 8.3645 43.597 8.36901 43.5481C8.37352 43.4993 8.38761 43.4517 8.41048 43.4083C8.43335 43.3649 8.46455 43.3264 8.50231 43.295C8.54006 43.2636 8.58362 43.24 8.63051 43.2254C8.6774 43.2109 8.72669 43.2057 8.77557 43.2102C8.82446 43.2147 8.87197 43.2288 8.91541 43.2517C8.95885 43.2746 8.99736 43.3058 9.02874 43.3435C10.7031 45.3274 12.5159 47.1901 14.4536 48.9177C19.3072 53.1889 23.1827 54.2567 25.9082 52.0054C27.2709 50.8853 29.4065 48.3913 30.885 46.4797C30.4108 45.7109 29.887 44.9739 29.3169 44.2732C29.0183 43.8998 28.7905 43.5862 28.63 43.3622C26.707 44.8518 24.6918 46.2186 22.5965 47.4542C22.5132 47.5031 22.4142 47.5178 22.3202 47.4952C20.5879 47.0696 16.4809 43.5339 13.3597 39.7705C13.2963 39.6942 13.2658 39.5959 13.2749 39.4972C13.284 39.3985 13.332 39.3074 13.4082 39.2441C13.4845 39.1807 13.5828 39.1502 13.6815 39.1593C13.7802 39.1684 13.8713 39.2163 13.9346 39.2926C17.1343 43.1456 20.8604 46.2296 22.365 46.7299C24.4948 45.4591 26.5412 44.0537 28.4918 42.5221C28.5367 42.4872 28.5889 42.463 28.6446 42.4514C28.7002 42.4397 28.7578 42.4409 28.8129 42.4549C28.8681 42.469 28.9193 42.4955 28.9626 42.5323C29.006 42.5692 29.0403 42.6155 29.0631 42.6677C29.3198 43.0654 29.599 43.4481 29.8994 43.8139C30.564 44.6111 31.1527 45.4686 31.6579 46.3752C31.6841 46.4358 31.6938 46.5023 31.6859 46.5679C31.678 46.6335 31.6529 46.6958 31.6131 46.7485C30.5303 48.1598 28.0475 51.1915 26.3861 52.5766C25.3661 53.4434 24.0695 53.9163 22.7309 53.9095Z" fill="#093F68"/>
<path d="M31.3219 46.5246C33.0953 44.1799 34.0847 42.6304 34.0847 42.6304C34.0847 42.6304 37.654 42.1525 38.1543 41.025C38.6546 39.8975 36.9782 40.1663 35.8059 40.1738C34.8949 40.1738 32.8489 40.0393 32.8489 40.0393C32.8489 40.0393 33.745 37.6163 32.371 37.8813C30.9971 38.1464 30.6909 41.2005 30.6909 41.2005C30.0938 41.8057 29.4357 42.3474 28.7271 42.8171L31.3219 46.5246Z" fill="#FFC9B0"/>
<path d="M31.322 46.8978C31.2631 46.8965 31.2053 46.8813 31.1534 46.8534C31.1015 46.8255 31.0569 46.7857 31.0233 46.7373L28.4285 43.0298C28.4001 42.9889 28.3802 42.9427 28.3699 42.894C28.3597 42.8453 28.3593 42.795 28.3688 42.7461C28.3784 42.6976 28.3975 42.6515 28.4251 42.6105C28.4526 42.5695 28.4881 42.5344 28.5293 42.5071C29.1795 42.0741 29.787 41.5803 30.3438 41.0324C30.4259 40.3566 30.8329 37.7991 32.3077 37.5154C32.4764 37.4657 32.6558 37.4649 32.825 37.5132C32.9942 37.5614 33.1463 37.6567 33.2635 37.7879C33.6592 38.2509 33.5099 39.132 33.3568 39.6958C34.0139 39.7368 35.1974 39.8078 35.8098 39.8003L36.3772 39.7816C37.2882 39.748 38.147 39.7144 38.4942 40.2259C38.5785 40.3697 38.623 40.5334 38.623 40.7001C38.623 40.8668 38.5785 41.0305 38.4942 41.1742C37.9789 42.3428 35.2049 42.8431 34.3051 42.9738C34.0176 43.4144 33.0768 44.8406 31.6207 46.7485C31.5859 46.7948 31.5408 46.8325 31.489 46.8584C31.4371 46.8843 31.38 46.8978 31.322 46.8978ZM29.2387 42.9104L31.322 45.8972C32.8714 43.8213 33.7526 42.4511 33.76 42.4362C33.7894 42.3906 33.8283 42.352 33.8741 42.323C33.9198 42.294 33.9714 42.2753 34.0251 42.2682C35.4215 42.0815 37.516 41.5215 37.7997 40.8793C37.8744 40.7113 37.8557 40.6515 37.8557 40.6515C37.7437 40.4835 36.829 40.5209 36.3884 40.5358L35.7986 40.5545C34.895 40.5545 32.8976 40.4238 32.8117 40.4201C32.7537 40.4158 32.6975 40.3981 32.6476 40.3682C32.5977 40.3384 32.5554 40.2974 32.5242 40.2483C32.4926 40.1996 32.4727 40.1443 32.4663 40.0866C32.4598 40.0289 32.4668 39.9705 32.4869 39.916C32.7146 39.3037 32.8602 38.4786 32.6773 38.277C32.6325 38.2247 32.5018 38.2397 32.4309 38.2546C31.5311 38.4301 31.1241 40.5246 31.0532 41.2414C31.0434 41.32 31.011 41.3939 30.9598 41.4543C30.4314 41.9907 29.8553 42.4781 29.2387 42.9104Z" fill="#093F68"/>
<path d="M15.328 36.7766L19.0796 35.9661L19.5486 38.1375C19.6404 38.5624 19.5597 39.0064 19.3241 39.3717C19.0886 39.7371 18.7175 39.9939 18.2926 40.0857L17.7416 40.2047C17.3167 40.2965 16.8727 40.2157 16.5074 39.9802C16.142 39.7447 15.8852 39.3736 15.7934 38.9487L15.3243 36.7773L15.328 36.7766Z" fill="#FFC9B0"/>
<path d="M17.3957 40.6032C16.9368 40.6034 16.4916 40.4464 16.1343 40.1584C15.777 39.8704 15.5291 39.4687 15.4319 39.0202L14.9614 36.8472C14.9415 36.7507 14.9606 36.6502 15.0144 36.5677C15.0683 36.4852 15.1526 36.4273 15.2489 36.4067L19.0198 35.589C19.1164 35.5687 19.2171 35.5875 19.2999 35.6413C19.3414 35.6677 19.3773 35.7021 19.4055 35.7425C19.4337 35.7828 19.4536 35.8284 19.4641 35.8765L19.9308 38.0457C19.9868 38.3036 19.9915 38.57 19.9444 38.8297C19.8974 39.0894 19.7997 39.3373 19.6569 39.5592C19.514 39.7811 19.3288 39.9727 19.1119 40.123C18.895 40.2733 18.6505 40.3794 18.3926 40.4352L17.8251 40.5584C17.6839 40.5883 17.54 40.6033 17.3957 40.6032ZM15.7716 37.0563L16.145 38.8596C16.2158 39.1856 16.4124 39.4704 16.692 39.6522C16.9717 39.8339 17.3118 39.898 17.6384 39.8303L18.2059 39.7071C18.5314 39.6355 18.8156 39.4387 18.9972 39.1593C19.1788 38.8799 19.2433 38.5402 19.1766 38.2137L18.7846 36.4104L15.7716 37.0563Z" fill="#093F68"/>
<path d="M25.4695 27.2924C27.0295 26.9554 27.9888 25.2689 27.6122 23.5254C27.2356 21.782 25.6656 20.6419 24.1056 20.9789C22.5456 21.3159 21.5863 23.0024 21.9629 24.7458C22.3396 26.4892 23.9095 27.6294 25.4695 27.2924Z" fill="#FFC9B0"/>
<path d="M24.9114 27.7186C24.2387 27.7146 23.5847 27.4962 23.0446 27.0951C22.3011 26.5361 21.7839 25.728 21.5878 24.8188C21.3917 23.9095 21.5298 22.9601 21.9768 22.1444C22.1872 21.7585 22.4776 21.422 22.8285 21.1574C23.1794 20.8928 23.5828 20.7061 24.0116 20.6099C25.7701 20.2365 27.5436 21.4985 27.9617 23.4399C28.1716 24.3477 28.0387 25.3011 27.5884 26.1169C27.3283 26.6014 26.9416 27.0063 26.4695 27.2884C25.9974 27.5704 25.4576 27.7191 24.9077 27.7186H24.9114ZM24.6575 21.2894C24.4982 21.2889 24.3393 21.3051 24.1834 21.3379C23.8561 21.4132 23.5485 21.5569 23.2808 21.7596C23.0131 21.9623 22.7914 22.2194 22.6302 22.514C22.277 23.1709 22.1699 23.9323 22.328 24.6612C22.4861 25.3901 22.8991 26.0386 23.4927 26.4902C23.7585 26.6964 24.0663 26.8418 24.3944 26.9163C24.7225 26.9908 25.0629 26.9925 25.3917 26.9213C25.7205 26.8502 26.0297 26.7078 26.2977 26.5044C26.5656 26.3009 26.7857 26.0412 26.9425 25.7435C27.3039 25.0882 27.4129 24.3231 27.2486 23.593C26.9537 22.2377 25.8448 21.2894 24.6575 21.2894Z" fill="#093F68"/>
<path d="M1.0912 18.5266C1.58776 21.7225 2.58463 27.3228 4.18633 29.9923C6.96037 34.5921 12.43 38.3257 17.2911 37.2765C19.218 36.8956 20.993 35.9637 22.4006 34.5939C23.8082 33.224 24.7881 31.4751 25.2212 29.5592C25.6524 27.7297 25.6614 25.826 25.2474 23.9925C25.2474 23.9925 25.2996 22.6223 23.9444 17.6454C22.5891 12.6686 21.8312 10.0551 11.8103 10.5927C4.07805 10.9922 0.594636 15.3456 1.0912 18.5266Z" fill="#FFC9B0"/>
<path d="M15.6783 37.8141C11.8626 37.8141 7.01267 35.4023 3.86527 30.1865C2.6556 28.1853 1.62513 24.392 0.721612 18.5863C0.501332 17.1713 0.986693 15.648 2.08436 14.2927C3.18203 12.9374 5.97474 10.5181 11.7916 10.1858C22.1709 9.6332 22.9923 12.5976 24.3065 17.5148C25.5349 22.0398 25.617 23.6341 25.6208 23.9328C26.0347 25.8095 26.022 27.7553 25.5834 29.6264C25.1295 31.6087 24.1129 33.4178 22.6559 34.8364C21.1989 36.2551 19.3633 37.2229 17.3696 37.6237C16.8139 37.7454 16.2471 37.8092 15.6783 37.8141ZM14.2334 10.8653C13.4867 10.8653 12.7026 10.8914 11.829 10.9362C7.79299 11.1528 4.45144 12.5416 2.6668 14.7482C1.69981 15.9355 1.27418 17.2534 1.46086 18.4556C1.78941 20.5539 2.78254 26.9383 4.50371 29.7833C7.05747 34.0134 12.3778 37.9411 17.1978 36.877C19.0534 36.5044 20.7619 35.6041 22.1183 34.2841C23.4747 32.9642 24.4212 31.2808 24.8442 29.436C25.2571 27.661 25.2648 25.8157 24.8666 24.0373C24.8647 24.0062 24.8647 23.975 24.8666 23.944C24.8666 23.944 24.8852 22.5177 23.5785 17.694C22.3838 13.2996 21.7267 10.8653 14.2334 10.8653Z" fill="#093F68"/>
<path d="M20.5469 27.9501C19.1991 27.7858 17.3696 28.2898 15.7493 29.5779C13.6137 31.2804 14.4164 33.3675 12.3891 33.1248C10.9462 32.9703 9.59331 32.3489 8.53602 31.3551C7.21061 30.0409 7.08367 27.9351 6.64684 26.1953C6.5299 25.5696 6.29826 24.9708 5.9636 24.4293C5.66085 24.0138 5.24366 23.6955 4.76298 23.5131C4.28229 23.3308 3.75892 23.2924 3.25676 23.4026C-0.249055 24.2314 2.09189 28.7229 2.79007 30.7577L4.31336 30.4292L4.53737 31.6799C5.80079 33.8366 7.713 35.5392 10.0012 36.5449C12.2895 37.5505 14.8369 37.8079 17.28 37.2803C19.2069 36.8994 20.9819 35.9674 22.3895 34.5976C23.7971 33.2277 24.777 31.4788 25.2101 29.563C24.7609 29.7478 24.3009 29.9049 23.8324 30.0334C22.4958 30.3732 22.9401 29.0627 21.6483 28.3048C21.3083 28.1146 20.9339 27.994 20.5469 27.9501Z" fill="#725858"/>
<path d="M14.7374 37.9262C12.6099 37.9193 10.521 37.3574 8.6771 36.296C6.83322 35.2346 5.2982 33.7104 4.22372 31.8741C4.19896 31.8356 4.18244 31.7924 4.17518 31.7472L4.01837 30.8773L2.87216 31.1237C2.78278 31.1433 2.68928 31.1295 2.60944 31.0847C2.5296 31.04 2.46897 30.9675 2.43907 30.881C2.34573 30.6084 2.22252 30.2911 2.09185 29.9476C1.42354 28.2339 0.516285 25.8892 1.34514 24.3473C1.53554 24.0048 1.80049 23.7096 2.12039 23.4834C2.44029 23.2572 2.80695 23.1059 3.19325 23.0405C3.76783 22.9122 4.36739 22.9549 4.91803 23.1632C5.46867 23.3715 5.94632 23.7364 6.29211 24.2128C6.65652 24.7919 6.90975 25.4339 7.03882 26.1058C7.1359 26.4978 7.22177 26.9122 7.30391 27.3117C7.58392 28.7081 7.87888 30.1492 8.8272 31.0901C9.82641 32.0252 11.1029 32.6098 12.4637 32.7552C13.3 32.8523 13.4494 32.5163 13.8078 31.7024C14.1603 30.7585 14.7567 29.925 15.5364 29.2868C17.1195 28.0248 19.0161 27.3864 20.6103 27.5805C21.0513 27.6272 21.4781 27.7631 21.8648 27.98C22.3538 28.2784 22.7436 28.7149 22.9849 29.2345C23.2313 29.6937 23.2836 29.7908 23.7652 29.6676C24.217 29.5428 24.6609 29.3906 25.0943 29.2121C25.1578 29.1871 25.2269 29.1799 25.2941 29.1914C25.3613 29.2029 25.4241 29.2325 25.4756 29.2772C25.5272 29.3218 25.5655 29.3797 25.5865 29.4446C25.6075 29.5094 25.6103 29.5788 25.5947 29.6452C25.1407 31.6275 24.1242 33.4365 22.6671 34.8552C21.2101 36.2738 19.3745 37.2416 17.3808 37.6425C16.5123 37.8311 15.6262 37.9262 14.7374 37.9262ZM4.90322 31.5456C6.12954 33.6241 7.9812 35.262 10.1938 36.2255C12.4065 37.189 14.867 37.4288 17.224 36.9107C18.9615 36.5659 20.5733 35.7569 21.888 34.5697C23.2027 33.3825 24.1714 31.8614 24.6911 30.1679C24.4186 30.265 24.1722 30.3396 23.9631 30.3919C22.9214 30.657 22.6003 30.0671 22.3427 29.5929C22.1645 29.1913 21.869 28.853 21.4952 28.6222C21.1966 28.4577 20.8675 28.356 20.5282 28.3235C19.1505 28.1555 17.4181 28.7491 16.0068 29.8692C15.3298 30.4357 14.8146 31.1712 14.5134 32.0011C14.1401 32.8561 13.7891 33.6625 12.3965 33.4945C10.8717 33.3323 9.44146 32.6769 8.32317 31.6277C7.2031 30.5076 6.89695 28.9731 6.59453 27.4685C6.50866 27.0578 6.43025 26.6695 6.33692 26.2924C6.2284 25.7116 6.01591 25.1551 5.70968 24.6497C5.44828 24.2972 5.09121 24.0272 4.68088 23.8717C4.27056 23.7161 3.82421 23.6816 3.39486 23.7723C3.10636 23.807 2.82949 23.9067 2.58505 24.0639C2.34061 24.221 2.13497 24.4315 1.98358 24.6795C1.3302 25.9228 2.20386 28.1742 2.78256 29.6601C2.87216 29.8916 2.95804 30.1081 3.02898 30.3098L4.23492 30.0484C4.33438 30.0292 4.43741 30.0493 4.5224 30.1044C4.56335 30.1324 4.59831 30.1683 4.62523 30.21C4.65216 30.2516 4.67051 30.2983 4.67921 30.3471L4.90322 31.5456Z" fill="#093F68"/>
<path d="M13.509 24.8849C14.0733 24.763 14.432 24.2067 14.31 23.6424C14.1881 23.078 13.6318 22.7194 13.0675 22.8413C12.5031 22.9632 12.1445 23.5195 12.2664 24.0838C12.3883 24.6482 12.9446 25.0068 13.509 24.8849Z" fill="#093F68"/>
<path d="M21.4355 22.7043C22.0129 22.7043 22.4809 22.2363 22.4809 21.6589C22.4809 21.0816 22.0129 20.6135 21.4355 20.6135C20.8582 20.6135 20.3901 21.0816 20.3901 21.6589C20.3901 22.2363 20.8582 22.7043 21.4355 22.7043Z" fill="#093F68"/>
<path d="M16.9364 26.4306C16.8374 26.4351 16.7407 26.4 16.6675 26.3332C16.5943 26.2663 16.5507 26.1731 16.5463 26.0741C16.5418 25.9751 16.5769 25.8783 16.6438 25.8051C16.7106 25.732 16.8038 25.6884 16.9028 25.6839C17.6882 25.6081 18.4623 25.4427 19.2102 25.1911C19.1766 24.8775 18.3888 23.9366 17.4965 23.1638C17.4577 23.1322 17.4257 23.0931 17.4023 23.0489C17.3789 23.0047 17.3647 22.9563 17.3604 22.9065C17.3561 22.8567 17.3618 22.8065 17.3772 22.7589C17.3927 22.7114 17.4175 22.6674 17.4503 22.6297C17.4831 22.5919 17.5231 22.5611 17.568 22.5391C17.6129 22.5171 17.6617 22.5043 17.7117 22.5015C17.7616 22.4988 17.8115 22.5061 17.8586 22.523C17.9057 22.5399 17.9488 22.5661 17.9856 22.6C18.6203 23.1526 20.0838 24.5265 19.9457 25.3479C19.9263 25.4671 19.8752 25.579 19.7977 25.6716C19.7202 25.7642 19.6191 25.8343 19.5051 25.8743C18.6856 26.1604 17.8343 26.3459 16.97 26.4269L16.9364 26.4306Z" fill="#093F68"/>
<path d="M9.42459 22.1891C9.3836 22.1928 9.34237 22.1928 9.30138 22.1891C9.11018 22.156 8.93934 22.0499 8.82505 21.8931C8.71076 21.7363 8.66199 21.5412 8.68908 21.349C8.68908 21.2669 9.01763 19.3553 11.3436 18.8774C13.5539 18.4219 14.5993 19.3404 14.7039 19.4486C14.8469 19.5858 14.9297 19.7741 14.9339 19.9723C14.9381 20.1704 14.8634 20.3621 14.7263 20.5052C14.5891 20.6483 14.4007 20.7311 14.2026 20.7353C14.0044 20.7395 13.8127 20.6648 13.6697 20.5276C13.6697 20.5276 13.0685 20.0423 11.6349 20.3372C10.3766 20.5986 10.175 21.4834 10.1414 21.5842C10.109 21.7518 10.0203 21.9032 9.88982 22.0132C9.75939 22.1233 9.5952 22.1853 9.42459 22.1891Z" fill="#093F68"/>
<path d="M19.5836 19.6616C19.4462 19.6615 19.3114 19.6234 19.1943 19.5516C19.0771 19.4798 18.982 19.3771 18.9194 19.2547C18.8569 19.1324 18.8294 18.9951 18.8398 18.8581C18.8503 18.721 18.8984 18.5896 18.9788 18.4781C19.664 17.6088 20.642 17.0183 21.7304 16.8167C23.3284 16.5441 24.1609 17.317 24.3999 17.8135L23.0558 18.4632C23.0597 18.4755 23.0661 18.4869 23.0745 18.4968C23.0745 18.4968 22.8318 18.1458 21.9805 18.2914C21.2755 18.4264 20.64 18.8042 20.1847 19.3592C20.1152 19.4532 20.0245 19.5295 19.9201 19.582C19.8157 19.6345 19.7005 19.6618 19.5836 19.6616Z" fill="#093F68"/>
<path d="M4.97045 26.3597C4.97045 26.3597 1.86786 25.0753 0.934467 27.7971C0.00107569 30.5189 2.27482 34.3122 6.46388 32.1467L4.97045 26.3597Z" fill="#FFC9B0"/>
<path d="M4.13411 33.1696C3.25862 33.1771 2.41043 32.8651 1.74837 32.2922C1.12289 31.7196 0.678093 30.977 0.468525 30.1553C0.258956 29.3336 0.293721 28.4686 0.568558 27.6664C0.680741 27.2893 0.871949 26.9404 1.12945 26.643C1.38696 26.3456 1.70485 26.1064 2.06198 25.9414C3.42474 25.3254 5.04884 25.9788 5.11231 26.0086C5.1652 26.0309 5.21225 26.065 5.2498 26.1084C5.28736 26.1518 5.31441 26.2033 5.32885 26.2588L6.83722 32.057C6.85943 32.1396 6.85264 32.2273 6.81798 32.3054C6.78333 32.3835 6.7229 32.4474 6.6468 32.4864C5.8759 32.9117 5.01425 33.146 4.13411 33.1696ZM3.365 26.4305C3.01756 26.4245 2.67278 26.492 2.3532 26.6284C2.09324 26.7557 1.86288 26.9361 1.67701 27.158C1.49115 27.3798 1.35392 27.6383 1.2742 27.9165C1.05298 28.5774 1.02616 29.288 1.19691 29.9637C1.36767 30.6395 1.72882 31.252 2.23746 31.7285C3.20072 32.5611 4.54481 32.6395 6.04197 31.9525L4.64561 26.6471C4.23233 26.5098 3.80043 26.4368 3.365 26.4305Z" fill="#093F68"/>
<path d="M17.153 31.5455L20.95 30.6755C20.95 30.6755 21.2823 33.8603 19.7515 34.4091C18.2208 34.9579 17.153 31.5455 17.153 31.5455Z" fill="white"/>
<path d="M19.4231 34.8274C19.1998 34.826 18.9798 34.7723 18.7809 34.6706C17.5862 34.0732 16.8768 31.9003 16.7984 31.6576C16.783 31.6082 16.778 31.5562 16.7838 31.5047C16.7896 31.4533 16.806 31.4037 16.832 31.3589C16.8574 31.3142 16.8917 31.2752 16.9328 31.2444C16.9739 31.2136 17.021 31.1915 17.071 31.1797L20.868 30.3098C20.9198 30.299 20.9733 30.2988 21.0253 30.309C21.0772 30.3193 21.1266 30.3399 21.1704 30.3695C21.2132 30.4004 21.249 30.44 21.2754 30.4857C21.3018 30.5314 21.3182 30.5821 21.3235 30.6346C21.3608 31.008 21.6334 34.133 19.8749 34.7415C19.7303 34.7957 19.5775 34.8247 19.4231 34.8274ZM17.6646 31.8144C17.9409 32.535 18.4935 33.6812 19.1356 34.0023C19.213 34.0453 19.2987 34.0712 19.3869 34.0783C19.4752 34.0853 19.5639 34.0734 19.6471 34.0434C20.5245 33.7372 20.6589 32.1056 20.6253 31.1349L17.6646 31.8144Z" fill="#093F68"/>
<path d="M1.19581 19.9751C1.19581 19.9751 21.2376 15.1215 23.2238 11.7202C25.2101 8.31895 23.2238 4.8094 23.2238 4.8094C23.2238 4.8094 22.5219 7.69918 21.0808 8.79685C21.0808 8.79685 22.0851 5.39557 19.1692 4.25684C19.1692 4.25684 17.728 7.10181 11.6573 8.49817C5.58648 9.89452 -0.0138687 13.2211 1.19581 19.9751Z" fill="#725858"/>
<path d="M1.19573 20.3486C1.12292 20.3492 1.05154 20.3284 0.990382 20.2889C0.947641 20.2612 0.911018 20.2251 0.882766 20.1827C0.854515 20.1403 0.835234 20.0926 0.826107 20.0425C-0.219291 14.1957 3.60014 9.96185 11.5788 8.13241C17.3695 6.80326 18.8256 4.11136 18.8406 4.08522C18.8831 4.0036 18.9542 3.94055 19.0403 3.90816C19.1265 3.87578 19.2215 3.87634 19.3073 3.90975C21.174 4.65646 21.6631 6.29923 21.6333 7.64331C22.1858 6.73755 22.601 5.7549 22.8653 4.72739C22.8826 4.65446 22.9213 4.5884 22.9766 4.53779C23.0318 4.48718 23.1011 4.45438 23.1752 4.44365C23.249 4.43404 23.3239 4.44667 23.3904 4.47993C23.457 4.51319 23.512 4.56556 23.5486 4.63032C23.6345 4.77967 25.6244 8.34522 23.5486 11.9108C21.4727 15.4763 2.10299 20.1246 1.27787 20.3412L1.19573 20.3486ZM19.3147 4.72739C18.7547 5.52638 16.8207 7.71425 11.7468 8.86045C7.46439 9.84611 0.51622 12.5343 1.49815 19.5161C7.30011 18.0936 21.3719 14.1621 22.9064 11.53C24.1796 9.34582 23.7129 7.09821 23.2798 5.89227C22.9325 6.87793 22.2829 8.34522 21.301 9.09193C21.237 9.13866 21.1599 9.16384 21.0807 9.16384C21.0015 9.16384 20.9244 9.13866 20.8604 9.09193C20.7962 9.04734 20.7476 8.98372 20.7215 8.91003C20.6954 8.83635 20.693 8.75632 20.7148 8.68124C20.7596 8.56924 21.5287 5.8288 19.3147 4.72739Z" fill="#093F68"/>
<path d="M29.0482 10.9512H37.9229V17.5073H29.0482V10.9512Z" fill="white"/>
<path d="M37.9228 17.8807H29.0482C28.9491 17.8807 28.8542 17.8414 28.7842 17.7714C28.7141 17.7014 28.6748 17.6064 28.6748 17.5074V10.9512C28.6748 10.8522 28.7141 10.7573 28.7842 10.6872C28.8542 10.6172 28.9491 10.5779 29.0482 10.5779H37.9228C38.0219 10.5779 38.1168 10.6172 38.1868 10.6872C38.2569 10.7573 38.2962 10.8522 38.2962 10.9512V17.5074C38.2962 17.6064 38.2569 17.7014 38.1868 17.7714C38.1168 17.8414 38.0219 17.8807 37.9228 17.8807ZM29.4215 17.134H37.5495V11.3246H29.4215V17.134Z" fill="#093F68"/>
<path d="M70.5505 43.6909H83.9578V52.1474H70.5505V43.6909Z" fill="white"/>
<path d="M83.9577 52.5206H70.5505C70.4515 52.5206 70.3565 52.4813 70.2865 52.4113C70.2165 52.3412 70.1771 52.2463 70.1771 52.1473V43.6907C70.1771 43.5917 70.2165 43.4968 70.2865 43.4267C70.3565 43.3567 70.4515 43.3174 70.5505 43.3174H83.9577C84.0567 43.3174 84.1517 43.3567 84.2217 43.4267C84.2917 43.4968 84.3311 43.5917 84.3311 43.6907V52.1473C84.3311 52.2463 84.2917 52.3412 84.2217 52.4113C84.1517 52.4813 84.0567 52.5206 83.9577 52.5206ZM70.9238 51.7739H83.5844V44.0641H70.9238V51.7739Z" fill="#093F68"/>
<path d="M70.5504 52.5206C70.4808 52.5205 70.4126 52.5008 70.3535 52.4639C70.2944 52.427 70.2468 52.3743 70.2162 52.3117C70.1855 52.2492 70.1729 52.1793 70.1798 52.11C70.1868 52.0407 70.213 51.9747 70.2555 51.9195L75.2323 45.5165C75.2655 45.4738 75.3074 45.4388 75.3554 45.414C75.4033 45.3891 75.4561 45.375 75.5101 45.3725C75.564 45.37 75.6179 45.3792 75.6679 45.3996C75.7179 45.4199 75.7629 45.4509 75.7998 45.4903L80.0748 50.0938C80.1121 50.1288 80.1419 50.1711 80.1623 50.218C80.1826 50.265 80.1931 50.3157 80.193 50.3668C80.193 50.418 80.1824 50.4687 80.1619 50.5156C80.1415 50.5625 80.1116 50.6047 80.0741 50.6396C80.0367 50.6745 79.9925 50.7013 79.9442 50.7184C79.896 50.7355 79.8447 50.7424 79.7936 50.7389C79.7426 50.7353 79.6928 50.7213 79.6474 50.6977C79.602 50.674 79.5619 50.6413 79.5297 50.6016L75.5348 46.3341L70.8305 52.3899C70.7958 52.4305 70.7529 52.4631 70.7046 52.4856C70.6563 52.5082 70.6037 52.5201 70.5504 52.5206Z" fill="#093F68"/>
<path d="M78.7644 49.6047C78.693 49.6048 78.6231 49.5843 78.563 49.5458C78.5029 49.5073 78.4551 49.4524 78.4252 49.3876C78.3954 49.3228 78.3847 49.2507 78.3945 49.18C78.4044 49.1093 78.4342 49.0429 78.4806 48.9887L80.7768 46.2819C80.8097 46.2432 80.8502 46.2117 80.8958 46.1892C80.9414 46.1667 80.9911 46.1538 81.0419 46.1512C81.0923 46.1484 81.1428 46.1559 81.1903 46.1733C81.2378 46.1906 81.2813 46.2174 81.3181 46.252L84.2154 48.9588C84.2877 49.0267 84.33 49.1204 84.3332 49.2195C84.3363 49.3186 84.3 49.4149 84.2322 49.4871C84.1644 49.5594 84.0706 49.6018 83.9715 49.605C83.8724 49.6081 83.7762 49.5718 83.7039 49.5039L81.0904 47.0659L79.0444 49.4741C79.0098 49.5146 78.9668 49.5472 78.9185 49.5697C78.8702 49.5923 78.8177 49.6042 78.7644 49.6047Z" fill="#093F68"/>
<path d="M35.7538 13.2584H31.2175C31.1185 13.2584 31.0235 13.2191 30.9535 13.1491C30.8835 13.0791 30.8441 12.9841 30.8441 12.8851C30.8441 12.7861 30.8835 12.6911 30.9535 12.6211C31.0235 12.5511 31.1185 12.5117 31.2175 12.5117H35.7538C35.8528 12.5117 35.9477 12.5511 36.0178 12.6211C36.0878 12.6911 36.1271 12.7861 36.1271 12.8851C36.1271 12.9841 36.0878 13.0791 36.0178 13.1491C35.9477 13.2191 35.8528 13.2584 35.7538 13.2584Z" fill="#DFEAEF"/>
<path d="M34.335 15.256H31.2175C31.1185 15.256 31.0235 15.2167 30.9535 15.1466C30.8835 15.0766 30.8441 14.9817 30.8441 14.8826C30.8441 14.7836 30.8835 14.6886 30.9535 14.6186C31.0235 14.5486 31.1185 14.5093 31.2175 14.5093H34.335C34.434 14.5093 34.529 14.5486 34.599 14.6186C34.669 14.6886 34.7084 14.7836 34.7084 14.8826C34.7084 14.9817 34.669 15.0766 34.599 15.1466C34.529 15.2167 34.434 15.256 34.335 15.256Z" fill="#DFEAEF"/>
</svg>
