<svg width="74" height="20" viewBox="0 0 74 20" fill="none" xmlns="http://www.w3.org/2000/svg">
<path d="M74 8.32166C72.4323 10.7605 70.354 11.5514 68.2757 12.0128C67.2543 12.2435 66.0905 11.7327 65.0572 11.2548C63.9527 10.744 62.8839 9.98597 61.8744 9.16204C60.9362 8.38755 60.093 7.38237 59.1191 6.37718C58.5491 6.60788 57.7771 6.62435 57.3971 7.15166C56.3995 8.5853 55.1762 8.68415 53.9173 8.78302C53.2285 9.83765 52.6109 10.9417 51.8627 11.881C51.4827 12.3589 50.9126 12.6555 50.3901 12.8038C49.7131 12.9851 49.0006 12.9521 48.3355 13.0015C48.0386 13.7431 47.7892 14.3857 47.5636 14.9625C46.0434 15.0613 44.9745 14.2869 44.357 12.5401C44.1313 11.914 43.9175 11.4361 43.4187 11.2219C43.1218 11.09 42.7893 10.8758 42.623 10.5463C41.7086 8.73362 40.4378 8.60178 39.0364 8.93135C38.6326 9.42571 38.2526 9.96949 37.8132 10.3979C36.2218 12.0128 35.0698 14.188 33.8821 16.2973C32.8845 18.0605 31.8394 18.5713 30.6518 17.1377C29.6304 15.9018 28.3716 15.0614 27.6709 13.1663C26.9702 11.2548 25.8063 9.67287 24.9275 8.09093C24.5712 8.07445 24.3337 7.95911 24.2743 8.05798C23.0154 10.1013 21.1508 10.8923 19.6663 12.5072C17.5048 14.8471 15.2127 16.9729 12.9681 19.1481C11.828 20.2521 10.5334 20.1697 9.33394 19.5435C7.46938 18.5713 5.74735 17.1706 4.54785 14.8801C2.98018 11.881 1.50751 8.78302 0.011105 5.73449C-0.0245237 5.66858 0.0349038 5.52029 0.0586563 5.25663C1.27003 5.04241 2.33889 5.38847 3.20586 6.70675C3.74029 7.5142 4.26282 8.32164 4.78537 9.12909C5.62858 10.4309 6.42431 11.7986 7.30315 13.0345C8.13449 14.2045 9.23893 14.5176 10.0465 13.4135C10.9016 12.2435 12.1605 12.1117 12.9206 10.6781C13.5975 9.39273 14.6189 8.45346 15.5215 7.43179C16.8635 5.91577 18.2293 4.4327 19.595 2.94964C20.0226 2.48824 20.4976 2.07627 20.8895 1.54896C22.0653 -0.0494594 23.4667 0.395461 24.2862 1.54896C25.7232 3.57582 27.0652 5.73453 28.4428 7.8273C28.906 8.53588 29.3573 9.27739 29.9155 10.1508C31.0793 8.68416 32.1719 7.44826 33.1577 6.06406C34.5947 4.07016 36.4711 3.60879 38.3119 3.04852C39.167 2.78487 40.0578 3.01555 40.8297 3.69117C41.9698 4.67988 43.1099 5.63562 44.2026 6.72321C45.5921 8.09092 46.079 8.32164 47.3616 6.90449C48.6086 5.53677 49.9507 4.4327 51.3283 3.39455C52.7059 2.3564 54.1074 1.33475 55.5681 0.527298C56.9339 -0.230715 58.3353 -0.280151 59.6179 1.10405C60.1167 1.63136 60.8174 1.81262 61.2449 2.42233C63.1689 5.14129 65.7223 5.96522 68.2044 6.92098C69.3208 7.34942 70.5322 7.38236 71.7079 7.51418C72.4917 7.67897 73.2874 7.54717 74 8.32166Z" fill="#E95F10"/>
</svg>
