<svg width="157" height="18" viewBox="0 0 157 18" fill="none" xmlns="http://www.w3.org/2000/svg">
<path d="M116.205 10.0567C116.56 9.80992 116.891 9.56318 117.234 9.34545C117.442 9.21481 117.749 8.98257 117.896 9.05515C119.194 9.7809 120.468 9.08421 121.742 9.08421C122.943 9.08421 124.156 9.41805 125.332 9.59223C125.479 10.1874 125.589 10.6228 125.699 11.0437C126.888 11.6969 127.917 11.3776 128.872 10.3325C129.877 11.247 131.004 11.2614 132.156 11.2179C132.878 11.1889 133.601 11.363 134.324 11.305C134.961 11.2614 135.586 11.0437 136.211 10.8986C137.227 10.6518 138.158 10.7825 138.906 11.755C139.273 12.2195 139.457 12.8 139.187 13.3371C139.004 13.7 138.599 14.0194 138.244 14.1064C137.779 14.208 137.264 14.1354 136.799 14.0048C135.659 13.7 134.532 13.671 133.405 14.0048C131.923 14.4548 130.453 13.7145 129.032 13.9903C127.684 14.237 126.3 14.9773 125.001 14.687C123.323 14.3242 121.779 14.4257 120.187 14.9192C119.954 14.9918 119.697 14.9773 119.452 14.9628C116.438 14.8467 113.436 14.7015 110.423 14.5999C109.773 14.5854 109.124 14.7161 108.475 14.7596C107.985 14.8032 107.409 15.0209 107.029 14.8031C105.571 13.9467 104.138 14.5564 102.705 14.7886C100.683 15.1225 98.6865 15.7031 96.6406 15.0789C96.3343 14.9918 95.9791 14.9918 95.6728 15.0934C94.313 15.5289 92.9041 15.2676 91.5443 15.4418C87.8936 15.9063 84.2061 15.3838 80.5554 15.9789C78.289 16.3563 76.0226 16.2401 73.7317 16.0804C71.4776 15.9208 69.1867 16.2982 66.9203 16.3998C64.6417 16.5014 62.363 16.5595 60.0722 16.6321C59.6679 16.6466 59.2514 16.5885 58.8593 16.6901C56.1764 17.3578 53.4935 16.9659 50.8351 16.5595C48.2379 16.1676 46.5596 14.208 46.0206 11.2034C45.8736 10.4051 46.3758 9.57772 47.0496 9.59223C47.5274 9.60675 48.0052 9.75186 48.4952 9.83895C49.3773 9.9841 50.2716 10.2309 51.1536 10.2309C54.4123 10.2454 57.6833 10.2019 60.942 10.1003C62.3998 10.0567 63.8576 9.79546 65.3277 9.60676C65.732 9.56322 66.1363 9.4035 66.5406 9.4035C68.6599 9.35995 70.7793 9.37448 72.8987 9.34545C75.0916 9.3019 77.2844 9.21486 79.4773 9.17131C81.4374 9.12777 83.3976 9.09871 85.3577 9.14225C87.1585 9.1858 88.9226 9.17127 90.7113 8.69227C92.9654 8.08264 95.2685 8.34394 97.5349 8.72133C98.4415 8.86648 99.299 9.0261 100.193 8.75032C100.843 8.56162 101.48 8.46002 102.08 8.96804C102.141 9.0261 102.251 9.09871 102.3 9.06968C103.967 8.09717 105.633 9.44704 107.299 9.04062C108.487 8.75032 109.7 8.4165 110.913 9.06968C111.097 9.17128 111.44 9.12772 111.599 8.98257C112.42 8.25682 113.302 8.61974 114.184 8.59071C115.115 8.56168 115.544 9.37447 116.205 10.0567ZM124.438 12.9452C124.438 13.0178 124.438 13.0904 124.438 13.163C124.523 13.1194 124.621 13.0614 124.707 13.0178C124.67 12.9598 124.634 12.8727 124.597 12.8727C124.548 12.8436 124.487 12.9162 124.438 12.9452Z" fill="#F27E3B"/>
<path d="M34.5906 3.03134C34.4069 2.40719 34.2966 1.9863 34.1618 1.55085C35.7544 1.07185 37.298 0.549247 38.8661 0.18637C39.5644 0.0267041 40.3485 -0.0168412 41.0223 0.18637C42.0758 0.505702 43.0681 0.752459 44.1339 0.331521C44.5015 0.18637 44.967 0.215429 45.3345 0.36058C45.6898 0.491215 46.0941 0.781489 46.2901 1.12985C47.0374 2.47975 46.8291 4.62799 45.9103 5.91983C45.5428 6.42786 45.1753 6.93592 44.7832 7.47297C43.9502 7.47297 43.1294 7.48749 42.3208 7.47297C39.6134 7.4004 37.0163 8.34387 34.3578 8.69223C32.9123 8.88092 31.4789 9.46153 30.0333 9.56313C27.8037 9.7228 25.7088 10.3615 23.6262 11.2324C23.0872 11.4501 22.5236 11.6969 21.9724 11.7114C19.0199 11.842 16.2023 12.8871 13.2988 13.3225C11.694 13.5693 10.1504 14.2951 8.54555 14.5419C6.85494 14.8031 5.13985 14.7596 3.43699 14.8176C3.03272 14.8321 2.61619 14.745 2.22417 14.6579C0.2763 14.1644 -0.176986 13.337 0.0557777 10.6372C1.44011 9.89697 3.02046 9.70831 4.5028 9.73734C7.16121 9.78089 9.64812 8.82291 12.2085 8.30036C13.5561 8.02458 14.8669 7.47299 16.2023 7.05205C16.435 6.97948 16.7045 6.83431 16.9128 6.89237C18.7504 7.45846 20.4165 6.51498 22.1561 6.16662C23.908 5.81825 25.7211 5.77474 27.4974 5.68765C29.8251 5.57153 31.9077 4.49738 34.0148 3.48132C34.2353 3.37972 34.4191 3.16198 34.5906 3.03134ZM40.4465 2.84267C40.177 2.63946 39.9687 2.43624 39.9442 2.46527C39.7482 2.68299 39.5767 2.9588 39.3929 3.20555C39.5154 3.29264 39.6747 3.49581 39.7359 3.45227C39.9809 3.30711 40.1892 3.07492 40.4465 2.84267ZM42.2106 4.0474C42.1371 4.0474 42.0758 4.0474 42.0146 4.0474C42.0146 4.11997 42.0146 4.17802 42.0146 4.2506C42.0758 4.2506 42.1493 4.26517 42.2106 4.23614C42.2351 4.22162 42.2106 4.10546 42.2106 4.0474Z" fill="#F27E3B"/>
<path d="M146.979 14.208C145.141 15.3547 143.561 13.8887 142.017 14.3677C141.576 13.0468 141.576 13.0468 142.52 11.334C142.765 11.842 142.985 12.263 143.267 12.8436C144.59 12.4226 145.693 13.1919 146.979 14.208Z" fill="#F27E3B"/>
<path d="M157 13.1484C156.522 13.3661 156.118 13.5984 155.689 13.7145C155.53 13.758 155.211 13.5403 155.162 13.3516C155.113 13.2064 155.285 12.8146 155.432 12.7275C155.946 12.4372 156.461 12.4081 157 13.1484Z" fill="#F27E3B"/>
</svg>
