<svg width="125" height="92" viewBox="0 0 125 92" fill="none" xmlns="http://www.w3.org/2000/svg">
<path opacity="0.18" d="M8.52001 78.8726C-1.78962 71.4056 0.768744 53.5733 1.43984 47.8294C1.81201 44.6674 2.58861 41.5053 4.18868 38.7975C8.79842 30.9906 18.6157 29.0183 25.8717 23.9045C33.9454 18.2456 39.0855 8.48402 47.7746 3.94169C52.5572 1.44194 58.0051 0.764986 63.3416 0.466071C73.0299 -0.0790088 83.6326 0.838249 90.8329 7.67812C96.0405 12.6249 98.637 19.9248 103.264 25.4723C107.344 30.3663 112.853 33.7218 117.123 38.4341C123.464 45.4264 126.706 56.1258 123.277 65.0873C120.091 73.3896 115.215 78.8374 112.686 79.658C104.568 82.2955 86.8269 82.6149 78.3371 83.2186C69.2378 83.8633 61.047 82.4508 51.9301 82.4801C37.8635 82.527 18.6714 83.3036 8.53174 78.8609" fill="#68E1FD"/>
<path d="M87.3632 52.3805C87.3632 52.3805 88.6819 55.7008 81.7571 57.7581C74.8322 59.8153 71.0313 67.9534 71.1808 74.7992V79.2126C71.1808 79.2126 92.7144 87.125 110.975 79.8221C110.975 79.8221 112.733 61.3333 100.249 56.9961C100.249 56.9961 97.6611 56.2342 98.4201 53.1864C98.4201 53.1864 104.357 49.8368 103.291 41.0101C102.224 32.1833 98.8333 29.4432 95.3284 29.244C81.1739 28.4381 81.1241 47.003 87.3632 52.3805Z" fill="#F7AF87"/>
<path d="M112.686 79.6697C112.686 79.6697 112.95 66.7753 110.808 62.3971C108.999 58.6958 104.334 57.7463 100.395 56.536C100.177 56.4545 99.9423 56.4224 99.7096 56.4422C99.4218 56.5161 99.1562 56.659 98.9359 56.8584C96.7947 58.4698 94.1357 59.2375 91.4651 59.0154C88.7945 58.7933 86.2988 57.5969 84.4532 55.6539C79.7292 57.0928 76.0338 57.0635 73.5546 61.3362C71.0753 65.609 69.8474 73.9522 70.3134 78.8696C70.3017 78.8726 91.5862 87.4972 112.686 79.6697Z" fill="#68E1FD"/>
<path d="M75.3042 61.4564C75.3042 61.4564 78.8795 57.7903 80.3183 57.7727C81.7572 57.7551 90.5752 82.7673 90.5752 82.7673L77.4142 82.1401L75.3042 61.4564Z" fill="url(#paint0_linear_48_761)"/>
<path d="M83.0142 30.6096C83.8377 27.8725 85.8832 25.3346 88.6701 24.6987C89.5024 24.5082 90.361 24.4935 91.1992 24.3324C91.7091 24.2327 92.2073 24.0833 92.7113 23.9573C94.7779 23.4122 96.953 23.4324 99.009 24.0159C101.073 24.6143 102.843 25.9558 103.976 27.7816C105.008 29.5399 105.298 31.6382 105.149 33.6661C104.999 35.6941 103.824 39.2869 103.27 41.2416C102.285 39.9521 102.942 36.2948 101.564 35.4332C100.586 34.8208 99.3255 35.0992 98.1856 35.2926C95.5417 35.7469 92.8324 35.6471 90.2292 34.9995C88.9954 34.6889 87.7294 34.2552 86.4839 34.5072C85.4026 34.7241 85.0187 35.5534 84.4326 36.4736C84.0164 37.1095 83.7673 40.2833 83.4127 40.9016C82.5863 40.6086 82.4251 35.5798 82.4339 34.8559C82.4274 33.4203 82.6227 31.9908 83.0142 30.6096Z" fill="#404040"/>
<path d="M104.038 40.3976C104.169 40.2728 104.324 40.176 104.494 40.113C104.664 40.05 104.845 40.0222 105.026 40.0313C105.164 40.0612 105.293 40.1217 105.405 40.2085C105.517 40.2952 105.607 40.4059 105.67 40.5324C105.795 40.7863 105.863 41.0643 105.87 41.3471C105.937 42.4774 105.568 43.5904 104.838 44.4564C104.437 44.9253 103.839 45.3355 103.238 45.1919C103.118 45.1706 103.007 45.1122 102.922 45.0249C102.856 44.9428 102.808 44.848 102.781 44.7465C102.547 43.8599 102.531 42.9299 102.734 42.0358C102.801 41.646 102.839 41.265 103.168 41.013C103.44 40.802 103.757 40.6086 104.038 40.3976Z" fill="#F7AF87"/>
<path d="M44.1115 53.8107C44.5745 53.7345 45.0786 53.6319 45.3804 53.2744C45.601 52.9566 45.726 52.5824 45.7409 52.1959C46.3065 47.9437 47.8802 35.4157 43.6895 28.2359C43.1034 27.2102 41.5912 26.9728 40.7765 26.1845C38.8658 24.3089 36.4188 22.0348 33.037 22.0583C24.9311 22.114 21.2416 26.1259 17.9213 33.5226C15.9051 38.0092 15.2838 51.5981 16.9542 52.9139C18.7125 54.3001 23.3428 54.1887 25.5231 54.4056C31.7187 55.0166 37.9676 54.8166 44.1115 53.8107Z" fill="#404040"/>
<path d="M40.6681 32.9365C40.8224 32.7251 41.0228 32.5517 41.2542 32.4295C41.937 32.0954 42.7635 32.4881 43.3056 33.0156C43.9896 33.737 44.4656 34.6302 44.683 35.6003C44.8911 36.5629 44.9894 37.5461 44.976 38.5308C44.9936 39.7402 44.9565 40.9495 44.8647 42.1588C44.771 43.9377 44.3992 45.6909 43.7628 47.3547C43.08 48.9987 41.9634 50.5021 40.4337 51.4076C39.2966 47.34 39.1911 43.0673 39.0944 38.8473C39.0768 38.1763 39.0622 37.5081 39.0768 36.8399C39.0768 36.5762 39.0036 36.0663 39.1296 35.8318C39.2556 35.5974 39.4813 35.6443 39.6864 35.4889C40.0117 35.2457 39.956 34.7944 40.0293 34.4252C40.1426 33.8918 40.3596 33.386 40.6681 32.9365Z" fill="url(#paint1_linear_48_761)"/>
<path d="M19.2018 41.6049C18.9034 41.646 18.6191 41.7575 18.3724 41.9302C18.1623 42.1187 17.9987 42.3535 17.8948 42.616C17.4322 43.6326 17.2176 44.7445 17.2686 45.8602C17.3195 46.9759 17.6346 48.0636 18.1878 49.0339C18.1878 49.0339 19.5681 47.5539 19.6883 47.4015C20.1636 46.7843 20.5852 46.1274 20.9484 45.4381C21.2795 44.808 23.0173 41.8863 22.1411 41.5258C21.5872 41.3002 19.8699 41.4643 19.2018 41.6049Z" fill="url(#paint2_linear_48_761)"/>
<path d="M21.1858 52.3805C20.544 50.8948 20.6729 49.198 20.8927 47.595C21.0891 46.2 21.3733 44.7641 22.1909 43.6182C22.9522 42.6126 23.9991 41.8599 25.1947 41.4584C26.3834 41.064 27.6213 40.8371 28.8726 40.7844C30.6702 40.6613 32.475 40.6907 34.2677 40.8723C35.5294 40.958 36.7677 41.2552 37.9309 41.7515C39.5135 42.5255 40.7745 43.8301 41.4944 45.4381C42.2039 47.045 42.4447 48.8198 42.1889 50.5577C42.1312 51.3056 41.863 52.0219 41.4153 52.6238C40.8908 53.1612 40.2289 53.5444 39.5016 53.7315C36.8641 54.5755 34.0684 54.511 31.3371 54.4026C29.0718 54.3147 26.7831 54.4436 24.553 54.0041C23.2459 53.7491 21.7836 53.7696 21.1858 52.3805Z" fill="url(#paint3_linear_48_761)"/>
<path d="M49.1958 79.8191C30.9239 87.125 9.40206 79.2096 9.40206 79.2096V74.8138C9.23795 67.9505 13.0477 59.8094 19.9784 57.7581C26.9091 55.7067 26.4256 53.3066 26.4256 53.3066C20.1894 47.932 19.3923 28.441 33.5556 29.2498C37.0722 29.4491 40.457 32.1803 41.5178 41.0188C42.5787 49.8573 35.6567 53.7168 35.6567 53.7168C35.5635 54.1508 35.5967 54.6024 35.7526 55.018C35.9084 55.4336 36.1803 55.7957 36.5359 56.0613C37.1096 56.5036 37.7679 56.8238 38.4701 57.002C50.9395 61.3304 49.1958 79.8191 49.1958 79.8191Z" fill="#F7AF87"/>
<path d="M25.8571 42.1383C28.6177 42.1383 31.4076 41.7427 33.9366 40.6408C36.4657 39.5389 38.7193 37.678 40.0087 35.2428C40.4438 34.4786 40.6956 33.6239 40.7443 32.7459C40.7765 31.0873 39.7244 29.537 38.3266 28.6432C36.9287 27.7494 35.2378 27.427 33.582 27.3567C30.0156 27.2072 26.3319 28.2124 23.6182 30.5305C22.4937 31.4852 21.5758 32.6594 20.9208 33.9811C20.2657 35.3028 19.8872 36.7442 19.8085 38.2173C19.6766 41.435 23.2255 42.1354 25.8571 42.1383Z" fill="#404040"/>
<path d="M50.8926 79.6697C50.8926 79.6697 49.5006 69.1461 47.3584 64.7591C45.5503 61.0578 42.5377 57.7463 38.599 56.539C38.3802 56.4572 38.146 56.4252 37.9133 56.4452C37.6261 56.5185 37.3614 56.6614 37.1425 56.8613C35.0013 58.4727 32.3423 59.2405 29.6717 59.0184C27.0011 58.7963 24.5054 57.5998 22.6598 55.6569C17.9395 57.1188 13.9474 60.3132 11.4857 64.5979C9.00646 68.8677 8.06576 73.9551 8.51999 78.8726C8.51999 78.8726 29.7898 87.4971 50.8926 79.6697Z" fill="#68E1FD"/>
<path d="M35.7006 82.4537C35.7006 82.4537 27.5918 83.3534 25.9448 82.5299C25.9448 82.5299 30.0476 60.4776 39.8121 57.3038C39.8121 57.3038 44.0438 58.0072 47.3583 64.7591C48.3224 66.7197 35.7006 82.4537 35.7006 82.4537Z" fill="url(#paint4_linear_48_761)"/>
<path d="M35.7241 87.0752V73.7236C35.7241 73.7236 38.9213 61.7084 50.031 60.3311C61.1407 58.9537 73.1617 60.7882 73.1617 60.7882C73.1617 60.7882 84.8839 62.3092 87.0085 76.7655V88.18C87.0085 88.18 57.4863 96.7137 35.7241 87.0752Z" fill="#68E1FD"/>
<path d="M50.4355 44.8285C49.9608 44.5355 49.3776 44.3333 48.856 44.5355C48.64 44.6202 48.4465 44.7536 48.2904 44.9252C47.4669 45.8044 47.5138 47.173 47.7746 48.3452C47.9198 49.0031 48.1157 49.6488 48.3607 50.2764C48.4628 50.5673 48.6102 50.8403 48.7974 51.0852C49.3835 51.7798 50.4092 51.8735 51.3118 51.768C51.8451 51.7065 52.44 51.5453 52.6833 51.0647C52.767 50.8801 52.8147 50.6811 52.8239 50.4786C53.0672 48.1078 52.5104 46.0828 50.4355 44.8285Z" fill="#F7AF87"/>
<path d="M72.7838 45.7898C73.4491 45.3268 74.3136 44.9692 75.0609 45.2916C75.3532 45.4394 75.6019 45.661 75.7823 45.9345C75.9627 46.2079 76.0686 46.5237 76.0895 46.8506C76.1233 47.5046 76.0091 48.1577 75.7554 48.7613C75.4981 49.5366 75.0953 50.2558 74.5685 50.8801C74.0338 51.506 73.2778 51.9009 72.4585 51.982C72.0511 52.0137 71.643 51.9286 71.2822 51.7365C70.9215 51.5445 70.623 51.2535 70.4218 50.8977C70.2229 50.4224 70.1309 49.9092 70.1522 49.3943C70.1157 48.9987 70.1606 48.5998 70.2841 48.2221C70.6064 47.4162 72.101 46.2645 72.7838 45.7898Z" fill="#F7AF87"/>
<path d="M54.5177 61.6235C54.2575 62.0707 54.105 62.5724 54.0723 63.0887C54.0916 63.3924 54.165 63.6901 54.2891 63.9679C55.3617 66.6054 57.583 67.9358 59.7253 68.5513C60.3682 68.7516 61.036 68.8611 61.7092 68.8765C63.7313 68.8765 65.7299 67.4875 66.9461 65.2456C67.0172 65.1308 67.0622 65.0017 67.078 64.8676C67.0712 64.6932 67.0219 64.5232 66.9344 64.3723C66.1783 62.7429 66.316 60.6417 66.5153 58.7281C66.5457 58.5699 66.5357 58.4066 66.486 58.2534C66.456 58.1952 66.4146 58.1437 66.3643 58.1019C66.3139 58.0601 66.2557 58.0289 66.193 58.0101C64.883 57.4592 63.4764 57.8021 62.0902 57.7493C60.1854 57.679 58.3391 56.8027 56.4313 56.7998C55.5815 56.7998 55.517 57.1163 55.3969 58.1801C55.2911 59.3677 54.9943 60.5305 54.5177 61.6235Z" fill="#F7AF87"/>
<path d="M54.5413 56.1404C54.5413 56.1404 55.6402 60.4483 58.3041 63.2704C60.9679 66.0925 67.2744 65.5533 66.5301 63.0331C65.903 60.9201 67.0781 56.1404 67.0781 56.1404H54.5413Z" fill="url(#paint5_linear_48_761)"/>
<path d="M82.9967 40.2364C82.7037 39.9433 82.3608 39.6503 81.9476 39.6239C81.7861 39.6242 81.6267 39.6607 81.4812 39.7307C81.3357 39.8007 81.2076 39.9024 81.1065 40.0283C80.9048 40.2839 80.7707 40.5863 80.7168 40.9075C80.5782 41.6857 80.6397 42.4864 80.8955 43.2343C81.1886 44.1487 81.7132 45.0747 82.6041 45.4234C82.7574 45.4974 82.9272 45.5306 83.0971 45.5198C83.267 45.509 83.4313 45.4546 83.5741 45.3619C83.7658 45.1698 83.8849 44.917 83.9111 44.6468C84.2598 42.9208 84.3155 41.52 82.9967 40.2364Z" fill="#F7AF87"/>
<path d="M72.0951 48.017C71.254 55.0825 67.3271 60.9113 61.4425 60.9113C55.558 60.9113 50.79 55.1411 50.79 48.017C50.79 40.8928 54.5734 32.8602 60.4608 32.8602C66.3483 32.8602 73.8153 33.5753 72.0951 48.017Z" fill="#F7AF87"/>
<path d="M49.184 45.6872C48.7933 42.8914 48.5364 40.0801 48.4133 37.2531C48.3605 36.0076 48.3811 34.6156 49.2163 33.6984C49.4364 33.4975 49.633 33.2724 49.8024 33.0273C49.9412 32.7128 50.0179 32.3745 50.028 32.0309C50.3445 29.3612 52.2757 27.131 54.4912 25.6101C56.9189 23.9477 59.7337 22.9385 62.6645 22.6795C63.6069 22.5771 64.5593 22.6176 65.4895 22.7997C66.4247 23.0279 67.3226 23.3881 68.1563 23.8693C69.4809 24.5873 70.7557 25.4548 71.6964 26.6299C72.6371 27.805 73.2144 29.3319 73.0152 30.8235C73.6609 31.0997 74.2409 31.5094 74.7172 32.0255C75.1934 32.5417 75.5552 33.1527 75.7787 33.8185C76.2105 35.1999 76.3482 36.6563 76.1831 38.0942C75.89 41.517 74.5889 45.0307 71.8576 47.1114C71.9016 44.7184 71.3709 42.3497 70.3103 40.2041C69.9046 39.4729 69.5358 38.7217 69.2055 37.9535C68.8943 37.131 68.7431 36.2567 68.76 35.3775C67.6171 35.9871 66.946 37.2355 65.8676 37.9564C65.1779 38.3743 64.4135 38.654 63.6169 38.7799C61.0536 39.2861 58.408 39.1939 55.8862 38.5103C54.8898 38.2407 53.6209 37.9594 52.9937 38.7799C52.604 39.2869 52.6714 39.9902 52.6186 40.6291C52.5319 41.3253 52.3637 42.0088 52.1175 42.6658L50.5643 47.3547C50.0368 46.9063 49.2837 46.3759 49.184 45.6872Z" fill="#404040"/>
<path d="M36.5828 56.1873C31.6566 59.3435 28.2249 53.9923 28.0667 53.7256C29.2236 54.373 30.5272 54.7129 31.8529 54.7129C33.1786 54.7129 34.4822 54.373 35.6392 53.7256C35.5459 54.1596 35.5791 54.6112 35.735 55.0268C35.8908 55.4424 36.1627 55.8045 36.5183 56.0701L36.5828 56.1873Z" fill="url(#paint6_linear_48_761)"/>
<path d="M82.9527 43.4102C82.7475 43.1435 82.5307 42.8241 82.6303 42.4958C82.7299 42.1676 83.0758 41.9976 83.0787 41.6811C83.072 41.5912 83.0463 41.5037 83.0034 41.4244C82.9605 41.3451 82.9012 41.2758 82.8296 41.221C82.6612 41.0659 82.4454 40.972 82.2171 40.9544C82.1386 40.9485 82.0602 40.9658 81.9915 41.0042C81.9138 41.0603 81.8554 41.1391 81.8244 41.2298C81.4815 41.9976 81.5958 42.9002 81.8977 43.6856C81.9484 43.8348 82.0269 43.9731 82.1292 44.093C82.2737 44.225 82.449 44.3187 82.6391 44.3655C82.9322 44.4593 83.278 44.4622 83.3454 44.0959C83.3952 43.8322 83.0875 43.5977 82.9527 43.4102Z" fill="url(#paint7_linear_48_761)"/>
<path d="M103.821 43.4688C104.026 43.2021 104.243 42.8827 104.144 42.5545C104.044 42.2262 103.698 42.0563 103.692 41.7398C103.7 41.6497 103.726 41.5622 103.769 41.4829C103.813 41.4037 103.872 41.3344 103.944 41.2797C104.112 41.1236 104.328 41.0295 104.557 41.013C104.634 41.007 104.712 41.0244 104.78 41.0628C104.858 41.1188 104.917 41.1976 104.95 41.2885C105.289 42.0563 105.175 42.9589 104.873 43.7443C104.828 43.9162 104.734 44.0717 104.603 44.1921C104.473 44.3126 104.31 44.3931 104.135 44.4241C103.842 44.5179 103.496 44.5209 103.426 44.1545C103.379 43.8966 103.675 43.6563 103.821 43.4688Z" fill="url(#paint8_linear_48_761)"/>
<path d="M72.1128 49.0338C72.4372 49.0711 72.7642 48.9922 73.0359 48.8111C73.178 48.7441 73.3017 48.6435 73.3964 48.518C73.6367 48.14 73.3729 47.6154 73.5458 47.2052C73.6311 47.0559 73.7498 46.9284 73.8927 46.8328C74.0356 46.7372 74.1988 46.6761 74.3693 46.6542C74.4892 46.6144 74.6187 46.6144 74.7386 46.6542C74.828 46.7143 74.9 46.7968 74.9473 46.8935C74.9946 46.9902 75.0156 47.0977 75.0082 47.2052C75.0678 48.1339 74.7701 49.0502 74.1759 49.7665C73.8786 50.1187 73.5127 50.4068 73.1007 50.6133C72.6886 50.8199 72.2388 50.9405 71.7787 50.968C71.7318 50.9745 71.684 50.9674 71.641 50.9475C71.5939 50.9159 71.5604 50.8678 71.5472 50.8127C71.4542 50.5476 71.4323 50.2628 71.4837 49.9867C71.5351 49.7106 71.6581 49.4527 71.8403 49.239" fill="url(#paint9_linear_48_761)"/>
<path d="M49.1402 47.8235C49.275 48.0492 49.5475 48.1371 49.7732 48.269C49.999 48.4049 50.1868 48.5958 50.319 48.8238C50.4512 49.0518 50.5235 49.3096 50.5293 49.5731C50.5464 49.7469 50.5072 49.9216 50.4175 50.0714C50.3278 50.2213 50.1924 50.3383 50.0311 50.4053C49.7058 50.4962 49.3805 50.2647 49.1519 50.0156C48.8567 49.6867 48.6292 49.3029 48.4823 48.886C48.3355 48.4692 48.2723 48.0275 48.2962 47.5862C48.3138 47.2931 48.4398 46.5546 48.9087 46.707C49.2838 46.8389 48.9585 47.5188 49.1402 47.8235Z" fill="url(#paint10_linear_48_761)"/>
<path d="M50.1982 38.8649C49.8845 39.2995 49.6988 39.8131 49.6619 40.3478C49.6027 41.1201 49.6303 41.8966 49.7439 42.6629L50.1864 46.6455C50.7374 44.7406 52.0385 43.079 52.3345 41.1185C52.4283 40.4943 52.4107 39.8437 52.61 39.24C52.6979 38.9763 53.2195 38.3257 53.0261 38.0678C52.8327 37.8099 51.722 38.015 51.4319 38.0971C50.951 38.219 50.5199 38.4873 50.1982 38.8649Z" fill="url(#paint11_linear_48_761)"/>
<path d="M72.0804 32.2155C72.1248 32.1903 72.1762 32.18 72.2269 32.1862C72.2914 32.2009 72.3295 32.2624 72.3646 32.321C73.0387 33.4727 73.7244 34.6479 74.0204 35.952C74.1741 36.6729 74.2361 37.4104 74.205 38.147C74.1296 40.624 73.3633 43.0307 71.9925 45.0953C71.717 44.1839 71.7463 43.2051 71.5265 42.2761C71.2335 41.0159 70.4979 39.9111 69.8561 38.7858C69.27 37.7601 68.2472 36.0282 68.9916 34.9087C69.731 33.7243 70.8063 32.7868 72.0804 32.2155Z" fill="url(#paint12_linear_48_761)"/>
<path d="M87.3632 52.3806C87.3632 52.3806 89.0307 54.4143 92.6587 54.5228C96.5739 54.64 98.4201 53.1923 98.4201 53.1923C98.4201 53.1923 96.694 57.002 92.3832 57.8519C89.6549 58.3969 86.5866 57.2247 86.0386 55.8005C86.0386 55.8151 87.8262 54.1535 87.3632 52.3806Z" fill="url(#paint13_linear_48_761)"/>
<path d="M54.6203 60.5157C54.6203 60.5157 55.6783 65.568 59.4381 66.7431C63.198 67.9183 66.3718 64.1584 66.489 61.6909C66.6062 59.2234 67.1953 59.9326 67.1953 59.9326L68.136 60.5187V69.8026L60.9679 68.7418L53.917 70.7404C53.917 70.7404 52.0356 62.277 53.0935 59.9267" fill="#68E1FD"/>
<defs>
<linearGradient id="paint0_linear_48_761" x1="63.8692" y1="62.2301" x2="127.89" y2="95.1576" gradientUnits="userSpaceOnUse">
<stop stop-opacity="0"/>
<stop offset="0.99"/>
</linearGradient>
<linearGradient id="paint1_linear_48_761" x1="38.2211" y1="44.2571" x2="48.1234" y2="35.6208" gradientUnits="userSpaceOnUse">
<stop stop-opacity="0"/>
<stop offset="0.6" stop-opacity="0.36"/>
<stop offset="0.99"/>
</linearGradient>
<linearGradient id="paint2_linear_48_761" x1="19.4304" y1="48.6646" x2="20.2832" y2="37.5784" gradientUnits="userSpaceOnUse">
<stop stop-opacity="0"/>
<stop offset="0.99"/>
</linearGradient>
<linearGradient id="paint3_linear_48_761" x1="31.6771" y1="41.6812" x2="31.3254" y2="57.5471" gradientUnits="userSpaceOnUse">
<stop stop-opacity="0"/>
<stop offset="0.99"/>
</linearGradient>
<linearGradient id="paint4_linear_48_761" x1="24.9895" y1="65.7584" x2="63.3824" y2="85.5044" gradientUnits="userSpaceOnUse">
<stop stop-opacity="0"/>
<stop offset="0.99"/>
</linearGradient>
<linearGradient id="paint5_linear_48_761" x1="56.7157" y1="65.4215" x2="68.7104" y2="48.4097" gradientUnits="userSpaceOnUse">
<stop stop-opacity="0"/>
<stop offset="0.99"/>
</linearGradient>
<linearGradient id="paint6_linear_48_761" x1="31.3694" y1="59.3992" x2="33.7197" y2="48.4712" gradientUnits="userSpaceOnUse">
<stop stop-opacity="0"/>
<stop offset="0.99"/>
</linearGradient>
<linearGradient id="paint7_linear_48_761" x1="81.0742" y1="42.6131" x2="86.3638" y2="42.8768" gradientUnits="userSpaceOnUse">
<stop stop-opacity="0"/>
<stop offset="0.99"/>
</linearGradient>
<linearGradient id="paint8_linear_48_761" x1="105.697" y1="42.6717" x2="100.407" y2="42.9354" gradientUnits="userSpaceOnUse">
<stop stop-opacity="0"/>
<stop offset="0.99"/>
</linearGradient>
<linearGradient id="paint9_linear_48_761" x1="75.6119" y1="49.8749" x2="67.4239" y2="46.2293" gradientUnits="userSpaceOnUse">
<stop stop-opacity="0"/>
<stop offset="0.99"/>
</linearGradient>
<linearGradient id="paint10_linear_48_761" x1="48.1702" y1="49.1599" x2="52.8415" y2="46.8096" gradientUnits="userSpaceOnUse">
<stop stop-opacity="0"/>
<stop offset="0.99"/>
</linearGradient>
<linearGradient id="paint11_linear_48_761" x1="52.4752" y1="46.0857" x2="50.3593" y2="36.919" gradientUnits="userSpaceOnUse">
<stop stop-opacity="0"/>
<stop offset="0.6" stop-opacity="0.36"/>
<stop offset="0.99"/>
</linearGradient>
<linearGradient id="paint12_linear_48_761" x1="76.3678" y1="33.3555" x2="67.9659" y2="42.7596" gradientUnits="userSpaceOnUse">
<stop stop-opacity="0"/>
<stop offset="0.6" stop-opacity="0.36"/>
<stop offset="0.99"/>
</linearGradient>
<linearGradient id="paint13_linear_48_761" x1="93.8602" y1="61.8696" x2="88.4621" y2="37.4758" gradientUnits="userSpaceOnUse">
<stop stop-opacity="0"/>
<stop offset="0.99"/>
</linearGradient>
</defs>
</svg>
