<svg width="680" height="552" viewBox="0 0 680 552" fill="none" xmlns="http://www.w3.org/2000/svg">
<path d="M489.926 287.46V278.9C490.005 278.22 490.613 277.72 491.28 277.8C491.849 277.86 492.3 278.32 492.359 278.9V284.98H498.323C498.99 284.9 499.598 285.4 499.676 286.08C499.755 286.76 499.264 287.38 498.597 287.46C498.499 287.48 498.401 287.48 498.303 287.46H489.926Z" fill="#110580"/>
<path d="M490.691 265.56C490.24 265.36 489.966 264.9 489.966 264.4V249.94C489.887 249.26 490.378 248.64 491.045 248.56C491.712 248.48 492.32 248.98 492.398 249.66C492.418 249.76 492.418 249.86 492.398 249.96V264.4C492.398 265.1 491.849 265.66 491.162 265.66C491.005 265.66 490.848 265.62 490.691 265.56ZM490.691 236.6C490.24 236.42 489.946 236.02 489.907 235.54V221C489.985 220.32 490.593 219.82 491.26 219.9C491.829 219.96 492.28 220.42 492.339 221V235.54C492.339 236.22 491.79 236.78 491.123 236.78H491.103C490.986 236.74 490.848 236.68 490.691 236.6ZM490.691 207.68C490.24 207.48 489.966 207.04 489.966 206.54V192.06C490.044 191.38 490.652 190.88 491.319 190.96C491.888 191.02 492.339 191.48 492.398 192.06V206.54C492.398 207.22 491.849 207.78 491.162 207.78C491.005 207.78 490.848 207.74 490.711 207.68H490.691Z" fill="#110580"/>
<path d="M490.75 178.74C490.299 178.54 490.024 178.08 490.024 177.58V169.02H498.421C499.088 169.1 499.578 169.72 499.5 170.4C499.441 170.98 498.99 171.44 498.421 171.5H492.457V177.56C492.457 178.26 491.908 178.82 491.221 178.82C491.064 178.84 490.907 178.8 490.75 178.74Z" fill="#110580"/>
<path d="M256.479 128.62C256.283 128.84 256.008 128.96 255.733 128.98C253.615 129.2 251.515 129.72 249.515 130.5C248.906 130.7 248.259 130.34 248.082 129.74C247.906 129.16 248.2 128.54 248.749 128.3C250.947 127.44 253.242 126.86 255.576 126.6C256.204 126.56 256.734 127.02 256.793 127.66V127.68C256.851 128.04 256.734 128.38 256.479 128.62Z" fill="#404BF2"/>
<path d="M600.726 78H196.312C191.328 78 187.328 82.106 187.328 87.14V352.28C187.328 357.314 191.328 361.42 196.312 361.42H600.726C605.71 361.42 609.71 357.314 609.71 352.28V87.14C609.71 82.106 605.71 78 600.726 78Z" fill="#D6D7F0" stroke="#111B2B" stroke-width="2"/>
<path d="M208.239 135.2H286.258C289.181 135.2 291.555 137.62 291.555 140.6V215.78C291.555 218.76 289.181 221.18 286.258 221.18H208.239C205.316 221.18 202.943 218.76 202.943 215.78V140.6C202.943 137.62 205.316 135.2 208.239 135.2Z" fill="#E8E8F7"/>
<path d="M309.093 135.2H387.111C390.034 135.2 392.408 137.62 392.408 140.6V280C392.408 282.98 390.034 285.4 387.111 285.4H309.093C306.17 285.4 303.796 282.98 303.796 280V140.6C303.796 137.62 306.17 135.2 309.093 135.2Z" fill="#E8E8F7"/>
<path d="M409.946 135.2H487.965C490.888 135.2 493.261 137.62 493.261 140.6V318.98C493.261 321.96 490.888 324.38 487.965 324.38H409.946C407.023 324.38 404.649 321.96 404.649 318.98V140.6C404.63 137.62 407.003 135.2 409.946 135.2Z" fill="#E8E8F7"/>
<path d="M510.799 135.2H588.818C591.741 135.2 594.115 137.62 594.115 140.6V244.4C594.115 247.38 591.741 249.8 588.818 249.8H510.799C507.876 249.8 505.503 247.38 505.503 244.4V140.6C505.503 137.62 507.876 135.2 510.799 135.2Z" fill="#E8E8F7"/>
<path d="M213.615 141.88H252.83C254.635 141.88 256.106 143.38 256.106 145.22V145.24C256.106 147.08 254.635 148.58 252.83 148.58H213.615C211.81 148.58 210.338 147.08 210.338 145.24V145.22C210.358 143.38 211.81 141.88 213.615 141.88Z" fill="#C3C6E6"/>
<path d="M600.745 79H196.312C191.898 79 188.328 82.64 188.328 87.14V114.08H608.73V87.14C608.73 82.64 605.159 79 600.745 79Z" fill="#007AC0"/>
<path d="M390.152 86.0195H406.866C407.945 86.0195 408.808 86.8995 408.808 87.9995V105.04C408.808 106.14 407.945 107.02 406.866 107.02H390.152C389.073 107.02 388.21 106.14 388.21 105.04V87.9995C388.21 86.9195 389.093 86.0195 390.152 86.0195Z" fill="#D5D6F0"/>
<path d="M391.623 88.54H396.351C396.881 88.54 397.293 88.98 397.293 89.5V103.7C397.293 104.24 396.861 104.66 396.351 104.66H391.623C391.094 104.66 390.682 104.22 390.682 103.7V89.5C390.682 88.96 391.094 88.54 391.623 88.54Z" fill="#007AC0"/>
<path d="M400.706 88.54H405.434C405.964 88.54 406.376 88.98 406.376 89.5V97.72C406.376 98.26 405.944 98.68 405.434 98.68H400.706C400.177 98.68 399.765 98.24 399.765 97.72V89.5C399.765 88.96 400.177 88.54 400.706 88.54Z" fill="#007AC0"/>
<path d="M214.752 155.26H279.745C282.177 155.26 284.139 157.26 284.139 159.74V203.2C284.139 205.68 282.177 207.68 279.745 207.68H214.752C212.32 207.68 210.358 205.68 210.358 203.2V159.74C210.358 157.26 212.32 155.26 214.752 155.26Z" fill="white"/>
<path d="M314.468 141.9H345.365C347.17 141.9 348.642 143.4 348.642 145.24V145.26C348.642 147.1 347.17 148.6 345.365 148.6H314.468C312.663 148.6 311.192 147.1 311.192 145.26V145.24C311.212 143.4 312.663 141.9 314.468 141.9Z" fill="#C3C6E6"/>
<path d="M315.606 155.26H380.598C383.031 155.26 384.993 157.26 384.993 159.74V186.26C384.993 188.74 383.031 190.74 380.598 190.74H315.606C313.173 190.74 311.211 188.74 311.211 186.26V159.74C311.211 157.26 313.173 155.26 315.606 155.26Z" fill="white"/>
<path d="M415.341 141.88H464.541C466.346 141.88 467.818 143.38 467.818 145.22V145.24C467.818 147.08 466.346 148.58 464.541 148.58H415.341C413.536 148.58 412.065 147.08 412.065 145.24V145.22C412.065 143.38 413.536 141.88 415.341 141.88Z" fill="#C3C6E6"/>
<path d="M416.459 216.08H481.452C483.884 216.08 485.846 218.08 485.846 220.56V306.38C485.846 308.86 483.884 310.86 481.452 310.86H416.459C414.026 310.86 412.065 308.86 412.065 306.38V220.56C412.065 218.08 414.026 216.08 416.459 216.08Z" fill="white"/>
<path d="M416.459 155.26H481.452C483.884 155.26 485.846 157.26 485.846 159.74V204.9C485.846 207.38 483.884 209.38 481.452 209.38H416.459C414.026 209.38 412.065 207.38 412.065 204.9V159.74C412.065 157.26 414.026 155.26 416.459 155.26Z" fill="white"/>
<path d="M316.175 197.48H381.167C383.6 197.48 385.562 199.48 385.562 201.96V267.42C385.562 269.9 383.6 271.9 381.167 271.9H316.175C313.742 271.9 311.78 269.9 311.78 267.42V201.98C311.761 199.5 313.742 197.48 316.175 197.48Z" fill="white"/>
<path d="M516.194 141.88H540.441C542.246 141.88 543.718 143.38 543.718 145.22V145.24C543.718 147.08 542.246 148.58 540.441 148.58H516.194C514.39 148.58 512.918 147.08 512.918 145.24V145.22C512.918 143.38 514.39 141.88 516.194 141.88Z" fill="#C3C6E6"/>
<path d="M517.313 155.26H582.305C584.738 155.26 586.699 157.26 586.699 159.74V189.64C586.699 192.12 584.738 194.12 582.305 194.12H517.313C514.88 194.12 512.918 192.12 512.918 189.64V159.74C512.918 157.26 514.88 155.26 517.313 155.26Z" fill="white"/>
<path d="M517.313 200.82H582.305C584.738 200.82 586.699 202.82 586.699 205.3V232.02C586.699 234.5 584.738 236.5 582.305 236.5H517.313C514.88 236.5 512.918 234.5 512.918 232.02V205.3C512.918 202.82 514.88 200.82 517.313 200.82Z" fill="white"/>
<path d="M222.109 164.84H249.691C251.496 164.84 252.967 166.34 252.967 168.18V168.2C252.967 170.04 251.496 171.54 249.691 171.54H222.109C220.304 171.54 218.833 170.04 218.833 168.2V168.18C218.833 166.34 220.304 164.84 222.109 164.84Z" fill="#E8E8F7"/>
<path d="M222.109 179.72H261.324C263.129 179.72 264.6 181.22 264.6 183.06V183.08C264.6 184.92 263.129 186.42 261.324 186.42H222.109C220.304 186.42 218.833 184.92 218.833 183.08V183.06C218.833 181.22 220.304 179.72 222.109 179.72Z" fill="#E8E8F7"/>
<path d="M423.816 263.1H451.398C453.203 263.1 454.674 264.6 454.674 266.44V266.46C454.674 268.3 453.203 269.8 451.398 269.8H423.816C422.011 269.8 420.54 268.3 420.54 266.46V266.44C420.54 264.58 422.011 263.1 423.816 263.1Z" fill="#E8E8F7"/>
<path d="M423.816 277.98H463.031C464.836 277.98 466.307 279.48 466.307 281.32V281.34C466.307 283.18 464.836 284.68 463.031 284.68H423.816C422.011 284.68 420.54 283.18 420.54 281.34V281.32C420.54 279.46 422.011 277.98 423.816 277.98Z" fill="#E8E8F7"/>
<path d="M423.816 292.86H444.748C446.552 292.86 448.024 294.36 448.024 296.2V296.22C448.024 298.06 446.552 299.56 444.748 299.56H423.816C422.011 299.56 420.54 298.06 420.54 296.22V296.2C420.54 294.36 422.011 292.86 423.816 292.86Z" fill="#E8E8F7"/>
<path d="M322.962 207.7H350.544C352.349 207.7 353.82 209.2 353.82 211.04V211.06C353.82 212.9 352.349 214.4 350.544 214.4H322.962C321.157 214.4 319.686 212.9 319.686 211.06V211.04C319.686 209.18 321.157 207.7 322.962 207.7Z" fill="#E8E8F7"/>
<path d="M322.962 237.46H372.163C373.968 237.46 375.439 238.96 375.439 240.8V240.82C375.439 242.66 373.968 244.16 372.163 244.16H322.962C321.157 244.16 319.686 242.66 319.686 240.82V240.8C319.686 238.96 321.157 237.46 322.962 237.46Z" fill="#E8E8F7"/>
<path d="M322.962 252.34H350.544C352.349 252.34 353.82 253.84 353.82 255.68V255.7C353.82 257.54 352.349 259.04 350.544 259.04H322.962C321.157 259.04 319.686 257.54 319.686 255.7V255.68C319.686 253.84 321.157 252.34 322.962 252.34Z" fill="#E8E8F7"/>
<path d="M322.962 222.58H362.177C363.982 222.58 365.454 224.08 365.454 225.92V225.94C365.454 227.78 363.982 229.28 362.177 229.28H322.962C321.157 229.28 319.686 227.78 319.686 225.94V225.92C319.686 224.08 321.157 222.58 322.962 222.58Z" fill="#E8E8F7"/>
<path d="M423.816 179.72H451.398C453.203 179.72 454.674 181.22 454.674 183.06V183.08C454.674 184.92 453.203 186.42 451.398 186.42H423.816C422.011 186.42 420.54 184.92 420.54 183.08V183.06C420.54 181.22 422.011 179.72 423.816 179.72Z" fill="#E8E8F7"/>
<path d="M433.409 164.84H472.624C474.429 164.84 475.9 166.34 475.9 168.18V168.2C475.9 170.04 474.429 171.54 472.624 171.54H433.409C431.604 171.54 430.133 170.04 430.133 168.2V168.18C430.133 166.34 431.604 164.84 433.409 164.84Z" fill="#E8E8F7"/>
<path d="M524.669 179.72H552.251C554.056 179.72 555.527 181.22 555.527 183.06V183.08C555.527 184.92 554.056 186.42 552.251 186.42H524.669C522.864 186.42 521.393 184.92 521.393 183.08V183.06C521.412 181.22 522.864 179.72 524.669 179.72Z" fill="#E8E8F7"/>
<path d="M524.669 164.84H563.884C565.689 164.84 567.16 166.34 567.16 168.18V168.2C567.16 170.04 565.689 171.54 563.884 171.54H524.669C522.864 171.54 521.393 170.04 521.393 168.2V168.18C521.412 166.34 522.864 164.84 524.669 164.84Z" fill="#E8E8F7"/>
<path d="M534.262 210.44H570.142C571.947 210.44 573.418 211.94 573.418 213.78V213.8C573.418 215.64 571.947 217.14 570.142 217.14H534.262C532.457 217.14 530.986 215.64 530.986 213.8V213.78C530.986 211.94 532.457 210.44 534.262 210.44Z" fill="#E8E8F7"/>
<path d="M322.962 164.84H362.177C363.982 164.84 365.454 166.34 365.454 168.18V168.2C365.454 170.04 363.982 171.54 362.177 171.54H322.962C321.157 171.54 319.686 170.04 319.686 168.2V168.18C319.686 166.34 321.157 164.84 322.962 164.84Z" fill="#E8E8F7"/>
<path d="M481.432 216.14H416.459C414.026 216.14 412.065 218.16 412.065 220.64V253.58H485.846V220.58C485.807 218.12 483.845 216.14 481.432 216.14Z" fill="#ACAFE0"/>
<path d="M426.909 168.713C427.191 166.936 426.008 165.261 424.264 164.973C422.521 164.685 420.879 165.892 420.596 167.669C420.313 169.446 421.497 171.121 423.24 171.409C424.983 171.697 426.626 170.49 426.909 168.713Z" fill="#FF7A82"/>
<path d="M524.59 217.04C526.356 217.04 527.788 215.58 527.788 213.78C527.788 211.979 526.356 210.52 524.59 210.52C522.824 210.52 521.393 211.979 521.393 213.78C521.393 215.58 522.824 217.04 524.59 217.04Z" fill="#FF7A82"/>
<path d="M483.531 337.12H671.8C675.761 337.12 679 340.394 679 344.48V437.62C679 441.706 675.761 444.98 671.8 444.98H483.531C479.57 444.98 476.331 441.706 476.331 437.62V344.48C476.331 340.414 479.59 337.12 483.531 337.12Z" fill="white" stroke="#111B2B" stroke-width="2"/>
<path d="M526.003 368.62H633.369C635.174 368.62 636.645 370.12 636.645 371.96V371.98C636.645 373.82 635.174 375.32 633.369 375.32H526.003C524.198 375.32 522.727 373.82 522.727 371.98V371.96C522.727 370.12 524.198 368.62 526.003 368.62Z" fill="#E8E8F7"/>
<path d="M526.003 383.5H593.487C595.292 383.5 596.763 385 596.763 386.84V386.86C596.763 388.7 595.292 390.2 593.487 390.2H526.003C524.198 390.2 522.727 388.7 522.727 386.86V386.84C522.727 385 524.198 383.5 526.003 383.5Z" fill="#E8E8F7"/>
<path d="M494.831 353.74H530.711C532.516 353.74 533.987 355.24 533.987 357.08V357.1C533.987 358.94 532.516 360.44 530.711 360.44H494.831C493.026 360.44 491.555 358.94 491.555 357.1V357.08C491.555 355.22 493.026 353.74 494.831 353.74Z" fill="#AAAAE3"/>
<path d="M494.988 403.96H515.527V428.4H494.988C493.105 428.4 491.574 426.84 491.574 424.92V407.46C491.555 405.52 493.085 403.96 494.988 403.96Z" fill="#E8E8F7"/>
<path d="M506.955 415.561H504.13V412.661C504.13 412.341 503.875 412.061 503.541 412.061C503.227 412.061 502.953 412.321 502.953 412.661V415.561H500.108C499.794 415.561 499.52 415.821 499.52 416.161C499.52 416.481 499.775 416.761 500.108 416.761H502.953V419.661C502.953 419.981 503.208 420.261 503.541 420.261C503.855 420.261 504.13 420.001 504.13 419.661V416.721H506.955C507.268 416.721 507.543 416.461 507.543 416.121C507.543 415.801 507.288 415.521 506.955 415.521V415.561Z" fill="#AAAAE3"/>
<path d="M493.928 368.62H510.368C511.663 368.62 512.722 369.7 512.722 371.02V387.78C512.722 389.1 511.663 390.18 510.368 390.18H493.928C492.634 390.18 491.574 389.1 491.574 387.78V371.02C491.555 369.7 492.614 368.62 493.928 368.62Z" fill="#FF7A82"/>
<path d="M660.971 405.24C661.834 405.24 662.54 405.96 662.54 406.84V425.46C662.54 426.34 661.834 427.06 660.971 427.06H494.38C493.516 427.06 492.81 426.34 492.81 425.46V406.84C492.81 405.96 493.516 405.24 494.38 405.24H660.971ZM660.971 403.98H494.38C492.83 403.98 491.574 405.26 491.555 406.84V425.46C491.555 427.04 492.83 428.32 494.38 428.32H660.971C662.521 428.32 663.776 427.04 663.776 425.46V406.84C663.776 405.26 662.521 403.98 660.971 403.98Z" fill="#E8E8F7"/>
<path opacity="0.3" d="M436.7 184.32C436.72 179.82 433.15 176.16 428.736 176.14C428.716 176.14 428.716 176.14 428.696 176.14H196.328V179.52H420.418C424.812 179.52 428.383 183.16 428.383 187.64V187.66V342.4H436.681L436.7 184.32Z" fill="#96C0FF"/>
<path d="M61.5988 221.14C61.5008 221.26 61.3634 221.36 61.2261 221.42C60.6376 221.66 59.9706 221.38 59.7352 220.8C58.8328 218.62 58.1658 216.34 57.7342 214.02C57.5969 213.38 58.0088 212.76 58.6366 212.64C59.2644 212.5 59.8725 212.92 59.9902 213.56C60.3826 215.72 60.9907 217.84 61.8343 219.88C62.0304 220.28 61.9323 220.8 61.5988 221.14Z" fill="#110580"/>
<path d="M422.398 180.56H17.9843C13 180.56 9 184.666 9 189.7V454.84C9 459.874 13 463.98 17.9843 463.98H422.398C427.383 463.98 431.383 459.874 431.383 454.84V189.7C431.383 184.666 427.383 180.56 422.398 180.56Z" fill="white" stroke="#111B2B" stroke-width="2"/>
<path d="M197.739 252.56H314.797C317.622 252.56 319.897 254.88 319.897 257.76V314.76C319.897 317.64 317.622 319.96 314.797 319.96H197.739C194.914 319.96 192.639 317.64 192.639 314.76V257.76C192.639 254.88 194.934 252.56 197.739 252.56Z" fill="#E8E8F7"/>
<path d="M353.051 294.34H413.924C415.748 294.34 417.219 295.84 417.219 297.7V343.76C417.219 345.62 415.748 347.12 413.924 347.12H353.051C351.226 347.12 349.755 345.62 349.755 343.76V297.7C349.775 295.84 351.246 294.34 353.051 294.34Z" fill="#E8E8F7"/>
<path d="M17.9843 463H46.3512V181.52H17.9843C13.5704 181.52 10 185.16 10 189.66C10 189.68 10 189.68 10 189.7V454.86C10 459.36 13.5704 463 17.9843 463Z" fill="#003E9C"/>
<path d="M145.949 181.56H46.3511V463H145.949V181.56Z" fill="#EEF5EC"/>
<path d="M19.9657 203.539H36.4051C37.6999 203.539 38.7592 204.619 38.7592 205.939V222.699C38.7592 224.019 37.6999 225.099 36.4051 225.099H19.9657C18.6709 225.099 17.6116 224.019 17.6116 222.699V205.939C17.6116 204.619 18.6709 203.539 19.9657 203.539Z" fill="#FF7A82"/>
<path d="M165.076 218.279H181.515C182.81 218.279 183.87 219.359 183.87 220.679V237.439C183.87 238.759 182.81 239.839 181.515 239.839H165.076C163.781 239.839 162.722 238.759 162.722 237.439V220.679C162.722 219.359 163.781 218.279 165.076 218.279Z" fill="#868AE0"/>
<path d="M19.9657 236.079H36.4051C37.6999 236.079 38.7592 237.159 38.7592 238.479V255.239C38.7592 256.559 37.6999 257.639 36.4051 257.639H19.9657C18.6709 257.639 17.6116 256.559 17.6116 255.239V238.479C17.6116 237.139 18.6709 236.079 19.9657 236.079Z" fill="#868AE0"/>
<path d="M36.3462 269.839C36.9544 269.839 37.4644 270.339 37.4644 270.979V287.739C37.4644 288.359 36.974 288.879 36.3462 288.879H19.9657C19.3575 288.879 18.8671 288.359 18.8475 287.739V270.979C18.8475 270.359 19.3575 269.859 19.9657 269.839H36.4051H36.3462ZM36.4051 268.579H19.9657C18.6709 268.579 17.6116 269.659 17.6116 270.979V287.739C17.6116 289.059 18.6709 290.139 19.9657 290.139H36.4051C37.6999 290.139 38.7592 289.059 38.7592 287.739V270.979C38.7592 269.659 37.6999 268.579 36.4051 268.579Z" fill="#6BA6FF"/>
<path d="M28.1265 275.3C27.793 275.3 27.538 275.58 27.538 275.9V278.78H24.7327C24.4188 278.78 24.1442 279.04 24.1442 279.38C24.1442 279.7 24.3992 279.96 24.7327 279.98H27.5576V282.88C27.5576 283.2 27.8126 283.48 28.1461 283.48C28.46 283.48 28.7347 283.22 28.7347 282.88V279.98H31.5988C31.9127 279.98 32.1873 279.72 32.1873 279.38C32.1873 279.06 31.9323 278.8 31.5988 278.78H28.715V275.9C28.7347 275.58 28.4796 275.32 28.1265 275.3C28.1461 275.3 28.1461 275.3 28.1265 275.3Z" fill="#E8E8F7"/>
<path d="M60.2991 239.46H114.522C116.327 239.46 117.798 240.96 117.798 242.8V242.82C117.798 244.66 116.327 246.16 114.522 246.16H60.2991C58.4943 246.16 57.0229 244.66 57.0229 242.82V242.8C57.0229 240.96 58.4943 239.46 60.2991 239.46Z" fill="#C0AFDB"/>
<path d="M60.2991 203.539H96.2383C98.0431 203.539 99.5144 205.039 99.5144 206.879V206.899C99.5144 208.739 98.0431 210.239 96.2383 210.239H60.2991C58.4943 210.239 57.0229 208.739 57.0229 206.899V206.879C57.0229 205.039 58.4943 203.539 60.2991 203.539Z" fill="white"/>
<path d="M60.2991 255.06H101.162C102.967 255.06 104.438 256.56 104.438 258.4V258.42C104.438 260.26 102.967 261.76 101.162 261.76H60.2991C58.4943 261.76 57.0229 260.26 57.0229 258.42V258.4C57.0229 256.54 58.4943 255.06 60.2991 255.06Z" fill="#6BA6FF"/>
<path d="M195.915 218.279H286.665C288.47 218.279 289.941 219.779 289.941 221.619V221.639C289.941 223.479 288.47 224.979 286.665 224.979H195.915C194.11 224.979 192.639 223.479 192.639 221.639V221.619C192.639 219.759 194.11 218.279 195.915 218.279Z" fill="#E8E8F7"/>
<path d="M195.915 233.159H253.414C255.218 233.159 256.69 234.659 256.69 236.499V236.519C256.69 238.359 255.218 239.859 253.414 239.859H195.915C194.11 239.859 192.639 238.359 192.639 236.519V236.499C192.639 234.659 194.11 233.159 195.915 233.159Z" fill="#E8E8F7"/>
<path d="M165.076 339.96H181.515C182.81 339.96 183.87 341.04 183.87 342.36V359.12C183.87 360.44 182.81 361.52 181.515 361.52H165.076C163.781 361.52 162.722 360.44 162.722 359.12V342.36C162.722 341.04 163.781 339.96 165.076 339.96Z" fill="#868AE0"/>
<path d="M351.226 356.92H361.349C362.153 356.92 362.8 357.58 362.8 358.4V368.72C362.8 369.54 362.153 370.2 361.349 370.2H351.226C350.422 370.2 349.774 369.54 349.774 368.72V358.4C349.774 357.6 350.422 356.92 351.226 356.92Z" fill="#868AE0"/>
<path d="M351.226 213.239H361.349C362.153 213.239 362.8 213.899 362.8 214.719V225.039C362.8 225.859 362.153 226.519 361.349 226.519H351.226C350.422 226.519 349.774 225.859 349.774 225.039V214.719C349.774 213.919 350.422 213.239 351.226 213.239Z" fill="#FF7A82"/>
<path d="M195.915 339.96H303.281C305.086 339.96 306.557 341.46 306.557 343.3V343.32C306.557 345.16 305.086 346.66 303.281 346.66H195.915C194.11 346.66 192.639 345.16 192.639 343.32V343.3C192.639 341.46 194.11 339.96 195.915 339.96Z" fill="#E8E8F7"/>
<path d="M195.915 354.84H270.03C271.834 354.84 273.306 356.34 273.306 358.18V358.2C273.306 360.04 271.834 361.54 270.03 361.54H195.915C194.11 361.54 192.639 360.04 192.639 358.2V358.18C192.639 356.34 194.11 354.84 195.915 354.84Z" fill="#E8E8F7"/>
<path d="M195.915 369.72H286.665C288.47 369.72 289.941 371.22 289.941 373.06V373.08C289.941 374.92 288.47 376.42 286.665 376.42H195.915C194.11 376.42 192.639 374.92 192.639 373.08V373.06C192.639 371.22 194.11 369.72 195.915 369.72Z" fill="#E8E8F7"/>
<path d="M195.915 384.6H303.281C305.086 384.6 306.557 386.1 306.557 387.94V387.96C306.557 389.8 305.086 391.3 303.281 391.3H195.915C194.11 391.3 192.639 389.8 192.639 387.96V387.94C192.639 386.1 194.11 384.6 195.915 384.6Z" fill="#E8E8F7"/>
<path d="M353.051 233.279H410.549C412.354 233.279 413.825 234.779 413.825 236.619V236.639C413.825 238.479 412.354 239.979 410.549 239.979H353.051C351.246 239.979 349.774 238.479 349.774 236.639V236.619C349.774 234.779 351.226 233.279 353.051 233.279Z" fill="#E8E8F7"/>
<path d="M353.051 248.159H393.914C395.719 248.159 397.19 249.659 397.19 251.499V251.519C397.19 253.359 395.719 254.859 393.914 254.859H353.051C351.246 254.859 349.774 253.359 349.774 251.519V251.499C349.774 249.659 351.226 248.159 353.051 248.159Z" fill="#E8E8F7"/>
<path d="M353.051 263.039H403.899C405.704 263.039 407.175 264.539 407.175 266.379V266.399C407.175 268.239 405.704 269.739 403.899 269.739H353.051C351.246 269.739 349.774 268.239 349.774 266.399V266.379C349.774 264.539 351.226 263.039 353.051 263.039Z" fill="#E8E8F7"/>
<path d="M353.051 277.92H377.298C379.103 277.92 380.574 279.42 380.574 281.26V281.28C380.574 283.12 379.103 284.62 377.298 284.62H353.051C351.246 284.62 349.774 283.12 349.774 281.28V281.26C349.774 279.42 351.226 277.92 353.051 277.92Z" fill="#E8E8F7"/>
<path d="M353.051 377.72H393.914C395.719 377.72 397.19 379.22 397.19 381.06V381.08C397.19 382.92 395.719 384.42 393.914 384.42H353.051C351.246 384.42 349.774 382.92 349.774 381.08V381.06C349.774 379.22 351.226 377.72 353.051 377.72Z" fill="#E8E8F7"/>
<path d="M353.051 392.6H410.549C412.354 392.6 413.825 394.1 413.825 395.94V395.96C413.825 397.8 412.354 399.3 410.549 399.3H353.051C351.246 399.3 349.774 397.8 349.774 395.96V395.94C349.774 394.1 351.226 392.6 353.051 392.6Z" fill="#E8E8F7"/>
<path d="M195.915 399.5H253.414C255.218 399.5 256.69 401 256.69 402.84V402.86C256.69 404.7 255.218 406.2 253.414 406.2H195.915C194.11 406.2 192.639 404.7 192.639 402.86V402.84C192.639 400.98 194.11 399.5 195.915 399.5Z" fill="#E8E8F7"/>
<path d="M60.2991 270.659H101.162C102.967 270.659 104.438 272.159 104.438 273.999V274.019C104.438 275.859 102.967 277.359 101.162 277.359H60.2991C58.4943 277.359 57.0229 275.859 57.0229 274.019V273.999C57.0229 272.159 58.4943 270.659 60.2991 270.659Z" fill="#6BA6FF"/>
<path d="M60.2991 286.26H101.162C102.967 286.26 104.438 287.76 104.438 289.6V289.62C104.438 291.46 102.967 292.96 101.162 292.96H60.2991C58.4943 292.96 57.0229 291.46 57.0229 289.62V289.6C57.0229 287.74 58.4943 286.26 60.2991 286.26Z" fill="#6BA6FF"/>
<path d="M60.2991 327H121.172C122.977 327 124.448 328.5 124.448 330.34V330.36C124.448 332.2 122.977 333.7 121.172 333.7H60.2991C58.4943 333.7 57.0229 332.2 57.0229 330.36V330.34C57.0229 328.48 58.4943 327 60.2991 327Z" fill="#C0AFDB"/>
<path d="M60.2991 342.579H101.162C102.967 342.579 104.438 344.079 104.438 345.919V345.939C104.438 347.779 102.967 349.279 101.162 349.279H60.2991C58.4943 349.279 57.0229 347.779 57.0229 345.939V345.919C57.0229 344.079 58.4943 342.579 60.2991 342.579Z" fill="#6BA6FF"/>
<path d="M60.2991 399.439H121.172C122.977 399.439 124.448 400.939 124.448 402.779V402.799C124.448 404.639 122.977 406.139 121.172 406.139H60.2991C58.4943 406.139 57.0229 404.639 57.0229 402.799V402.779C57.0229 400.939 58.4943 399.439 60.2991 399.439Z" fill="#C0AFDB"/>
<path d="M60.2991 415.06H101.162C102.967 415.06 104.438 416.56 104.438 418.4V418.42C104.438 420.26 102.967 421.76 101.162 421.76H60.2991C58.4943 421.76 57.0229 420.26 57.0229 418.42V418.4C57.0229 416.54 58.4943 415.06 60.2991 415.06Z" fill="#6BA6FF"/>
<path d="M60.2991 358.199H101.162C102.967 358.199 104.438 359.699 104.438 361.539V361.559C104.438 363.399 102.967 364.899 101.162 364.899H60.2991C58.4943 364.899 57.0229 363.399 57.0229 361.559V361.539C57.0229 359.679 58.4943 358.199 60.2991 358.199Z" fill="#6BA6FF"/>
<path d="M135.061 333.659C136.871 333.659 138.337 332.164 138.337 330.319C138.337 328.475 136.871 326.979 135.061 326.979C133.252 326.979 131.785 328.475 131.785 330.319C131.785 332.164 133.252 333.659 135.061 333.659Z" fill="#FF7A82"/>
<path d="M338.181 189.84C338.416 189.84 338.592 190.02 338.592 190.26V454.28C338.592 454.52 338.416 454.7 338.181 454.7C337.945 454.7 337.769 454.52 337.769 454.28V190.26C337.769 190.02 337.945 189.84 338.181 189.84Z" fill="#E8E8F7"/>
<path d="M318.308 423.859C319.171 423.839 319.877 424.559 319.897 425.439C319.897 425.479 319.897 425.519 319.897 425.559V444.179C319.897 445.059 319.191 445.779 318.328 445.779H318.308H165.527C164.664 445.779 163.958 445.059 163.958 444.179V425.559C163.899 424.679 164.546 423.919 165.41 423.879C165.449 423.879 165.468 423.879 165.508 423.879H318.308V423.859ZM318.308 422.579H165.527C163.977 422.579 162.722 423.859 162.722 425.439V425.459V444.079C162.722 445.659 163.958 446.939 165.508 446.959H165.527H318.308C319.858 446.959 321.133 445.679 321.133 444.079V425.459C321.133 423.879 319.877 422.579 318.308 422.579Z" fill="#E8E8F7"/>
<path d="M414.414 413.599C415.297 413.639 415.983 414.399 415.983 415.299V433.919C415.944 434.799 415.258 435.479 414.414 435.519H352.58C351.736 435.459 351.069 434.779 351.01 433.919V415.179C351.01 414.279 351.697 413.539 352.58 413.479H414.414V413.599ZM414.414 412.199H352.58C351.03 412.199 349.755 413.479 349.755 415.079V433.699C349.755 435.279 351.01 436.579 352.58 436.579H414.414C415.964 436.579 417.239 435.299 417.239 433.699V415.159C417.239 413.579 415.983 412.279 414.414 412.279V412.199Z" fill="#E8E8F7"/>
<path d="M668 43.4107C666.432 46.1032 664.354 46.9764 662.276 47.4858C661.254 47.7405 660.09 47.1765 659.057 46.6489C657.953 46.085 656.884 45.2481 655.874 44.3385C654.936 43.4835 654.093 42.3738 653.119 41.264C652.549 41.5187 651.777 41.5369 651.397 42.1191C650.399 43.7018 649.176 43.8109 647.917 43.9201C647.229 45.0844 646.611 46.3033 645.863 47.3403C645.483 47.8678 644.913 48.1953 644.39 48.359C643.713 48.5592 643.001 48.5228 642.336 48.5773C642.039 49.396 641.789 50.1055 641.564 50.7422C640.043 50.8514 638.975 49.9963 638.357 48.0679C638.131 47.3766 637.918 46.8491 637.419 46.6126C637.122 46.467 636.789 46.2305 636.623 45.8667C635.709 43.8655 634.438 43.72 633.036 44.0838C632.633 44.6296 632.253 45.2299 631.813 45.7029C630.222 47.4858 629.07 49.8872 627.882 52.2158C626.885 54.1624 625.839 54.7264 624.652 53.1436C623.63 51.7792 622.372 50.8514 621.671 48.7593C620.97 46.649 619.806 44.9025 618.927 43.156C618.571 43.1378 618.334 43.0105 618.274 43.1196C617.015 45.3755 615.151 46.2487 613.666 48.0316C611.505 50.6149 609.213 52.9617 606.968 55.3631C605.828 56.582 604.533 56.491 603.334 55.7997C601.469 54.7263 599.747 53.18 598.548 50.6512C596.98 47.3402 595.508 43.9201 594.011 40.5545C593.975 40.4817 594.035 40.318 594.059 40.027C595.27 39.7905 596.339 40.1725 597.206 41.6279C597.74 42.5193 598.263 43.4107 598.785 44.3021C599.629 45.7393 600.424 47.2493 601.303 48.6137C602.134 49.9054 603.239 50.251 604.047 49.0321C604.902 47.7405 606.161 47.5949 606.921 46.0122C607.598 44.5932 608.619 43.5563 609.521 42.4283C610.863 40.7546 612.229 39.1173 613.595 37.48C614.023 36.9706 614.498 36.5158 614.89 35.9337C616.065 34.169 617.467 34.6602 618.286 35.9337C619.723 38.1713 621.065 40.5545 622.443 42.865C622.906 43.6472 623.357 44.4659 623.915 45.4301C625.079 43.8109 626.172 42.4465 627.158 40.9184C628.595 38.7171 630.471 38.2077 632.312 37.5892C633.167 37.2981 634.058 37.5528 634.83 38.2987C635.97 39.3902 637.11 40.4454 638.203 41.6461C639.592 43.156 640.079 43.4107 641.362 41.8462C642.609 40.3362 643.951 39.1173 645.328 37.9712C646.706 36.8251 648.107 35.6972 649.568 34.8058C650.934 33.9689 652.335 33.9143 653.618 35.4425C654.117 36.0247 654.817 36.2248 655.245 36.8979C657.169 39.8996 659.722 40.8092 662.204 41.8644C663.321 42.3374 664.532 42.3738 665.708 42.5193C666.492 42.7012 667.287 42.5557 668 43.4107Z" fill="#FBDCCB"/>
</svg>
