<svg width="680" height="506" viewBox="0 0 680 506" fill="none" xmlns="http://www.w3.org/2000/svg">
<path d="M489.926 287.46V278.9C490.005 278.22 490.613 277.72 491.28 277.8C491.849 277.86 492.3 278.32 492.359 278.9V284.98H498.323C498.99 284.9 499.598 285.4 499.676 286.08C499.755 286.76 499.264 287.38 498.597 287.46C498.499 287.48 498.401 287.48 498.303 287.46H489.926Z" fill="#110580"/>
<path d="M490.691 265.56C490.24 265.36 489.966 264.9 489.966 264.4V249.94C489.887 249.26 490.378 248.64 491.045 248.56C491.712 248.48 492.32 248.98 492.398 249.66C492.418 249.76 492.418 249.86 492.398 249.96V264.4C492.398 265.1 491.849 265.66 491.162 265.66C491.005 265.66 490.848 265.62 490.691 265.56ZM490.691 236.6C490.24 236.42 489.946 236.02 489.907 235.54V221C489.985 220.32 490.593 219.82 491.26 219.9C491.829 219.96 492.28 220.42 492.339 221V235.54C492.339 236.22 491.79 236.78 491.123 236.78H491.103C490.986 236.74 490.848 236.68 490.691 236.6ZM490.691 207.68C490.24 207.48 489.966 207.04 489.966 206.54V192.06C490.044 191.38 490.652 190.88 491.319 190.96C491.888 191.02 492.339 191.48 492.398 192.06V206.54C492.398 207.22 491.849 207.78 491.162 207.78C491.005 207.78 490.848 207.74 490.711 207.68H490.691Z" fill="#110580"/>
<path d="M490.75 178.74C490.299 178.54 490.024 178.08 490.024 177.58V169.02H498.421C499.088 169.1 499.578 169.72 499.5 170.4C499.441 170.98 498.99 171.44 498.421 171.5H492.457V177.56C492.457 178.26 491.908 178.82 491.221 178.82C491.064 178.84 490.907 178.8 490.75 178.74Z" fill="#110580"/>
<path d="M256.479 128.62C256.283 128.84 256.008 128.96 255.733 128.98C253.615 129.2 251.515 129.72 249.515 130.5C248.906 130.7 248.259 130.34 248.082 129.74C247.906 129.16 248.2 128.54 248.749 128.3C250.947 127.44 253.242 126.86 255.576 126.6C256.204 126.56 256.734 127.02 256.793 127.66V127.68C256.851 128.04 256.734 128.38 256.479 128.62Z" fill="#404BF2"/>
<path d="M600.726 78H196.312C191.328 78 187.328 82.106 187.328 87.14V352.28C187.328 357.314 191.328 361.42 196.312 361.42H600.726C605.71 361.42 609.71 357.314 609.71 352.28V87.14C609.71 82.106 605.71 78 600.726 78Z" fill="#D6D7F0" stroke="#111B2B" stroke-width="2"/>
<path d="M208.239 135.2H286.258C289.181 135.2 291.555 137.62 291.555 140.6V215.78C291.555 218.76 289.181 221.18 286.258 221.18H208.239C205.316 221.18 202.943 218.76 202.943 215.78V140.6C202.943 137.62 205.316 135.2 208.239 135.2Z" fill="#E8E8F7"/>
<path d="M309.093 135.2H387.111C390.034 135.2 392.408 137.62 392.408 140.6V280C392.408 282.98 390.034 285.4 387.111 285.4H309.093C306.17 285.4 303.796 282.98 303.796 280V140.6C303.796 137.62 306.17 135.2 309.093 135.2Z" fill="#E8E8F7"/>
<path d="M409.946 135.2H487.965C490.888 135.2 493.261 137.62 493.261 140.6V318.98C493.261 321.96 490.888 324.38 487.965 324.38H409.946C407.023 324.38 404.649 321.96 404.649 318.98V140.6C404.63 137.62 407.003 135.2 409.946 135.2Z" fill="#E8E8F7"/>
<path d="M510.799 135.2H588.818C591.741 135.2 594.115 137.62 594.115 140.6V244.4C594.115 247.38 591.741 249.8 588.818 249.8H510.799C507.876 249.8 505.503 247.38 505.503 244.4V140.6C505.503 137.62 507.876 135.2 510.799 135.2Z" fill="#E8E8F7"/>
<path d="M213.615 141.88H252.83C254.635 141.88 256.106 143.38 256.106 145.22V145.24C256.106 147.08 254.635 148.58 252.83 148.58H213.615C211.81 148.58 210.338 147.08 210.338 145.24V145.22C210.358 143.38 211.81 141.88 213.615 141.88Z" fill="#C3C6E6"/>
<path d="M600.745 79H196.312C191.898 79 188.328 82.64 188.328 87.14V114.08H608.73V87.14C608.73 82.64 605.159 79 600.745 79Z" fill="#007AC0"/>
<path d="M390.152 86.02H406.866C407.945 86.02 408.808 86.9 408.808 88V105.04C408.808 106.14 407.945 107.02 406.866 107.02H390.152C389.073 107.02 388.21 106.14 388.21 105.04V88C388.21 86.92 389.093 86.02 390.152 86.02Z" fill="#D5D6F0"/>
<path d="M391.623 88.54H396.351C396.881 88.54 397.293 88.98 397.293 89.5V103.7C397.293 104.24 396.861 104.66 396.351 104.66H391.623C391.094 104.66 390.682 104.22 390.682 103.7V89.5C390.682 88.96 391.094 88.54 391.623 88.54Z" fill="#007AC0"/>
<path d="M400.706 88.54H405.434C405.964 88.54 406.376 88.98 406.376 89.5V97.72C406.376 98.26 405.944 98.68 405.434 98.68H400.706C400.177 98.68 399.765 98.24 399.765 97.72V89.5C399.765 88.96 400.177 88.54 400.706 88.54Z" fill="#007AC0"/>
<path d="M214.752 155.26H279.745C282.177 155.26 284.139 157.26 284.139 159.74V203.2C284.139 205.68 282.177 207.68 279.745 207.68H214.752C212.32 207.68 210.358 205.68 210.358 203.2V159.74C210.358 157.26 212.32 155.26 214.752 155.26Z" fill="white"/>
<path d="M314.468 141.9H345.365C347.17 141.9 348.642 143.4 348.642 145.24V145.26C348.642 147.1 347.17 148.6 345.365 148.6H314.468C312.663 148.6 311.192 147.1 311.192 145.26V145.24C311.212 143.4 312.663 141.9 314.468 141.9Z" fill="#C3C6E6"/>
<path d="M315.606 155.26H380.598C383.031 155.26 384.993 157.26 384.993 159.74V186.26C384.993 188.74 383.031 190.74 380.598 190.74H315.606C313.173 190.74 311.211 188.74 311.211 186.26V159.74C311.211 157.26 313.173 155.26 315.606 155.26Z" fill="white"/>
<path d="M415.341 141.88H464.541C466.346 141.88 467.818 143.38 467.818 145.22V145.24C467.818 147.08 466.346 148.58 464.541 148.58H415.341C413.536 148.58 412.065 147.08 412.065 145.24V145.22C412.065 143.38 413.536 141.88 415.341 141.88Z" fill="#C3C6E6"/>
<path d="M416.459 216.08H481.452C483.884 216.08 485.846 218.08 485.846 220.56V306.38C485.846 308.86 483.884 310.86 481.452 310.86H416.459C414.026 310.86 412.065 308.86 412.065 306.38V220.56C412.065 218.08 414.026 216.08 416.459 216.08Z" fill="white"/>
<path d="M416.459 155.26H481.452C483.884 155.26 485.846 157.26 485.846 159.74V204.9C485.846 207.38 483.884 209.38 481.452 209.38H416.459C414.026 209.38 412.065 207.38 412.065 204.9V159.74C412.065 157.26 414.026 155.26 416.459 155.26Z" fill="white"/>
<path d="M316.175 197.48H381.167C383.6 197.48 385.562 199.48 385.562 201.96V267.42C385.562 269.9 383.6 271.9 381.167 271.9H316.175C313.742 271.9 311.78 269.9 311.78 267.42V201.98C311.761 199.5 313.742 197.48 316.175 197.48Z" fill="white"/>
<path d="M516.194 141.88H540.441C542.246 141.88 543.718 143.38 543.718 145.22V145.24C543.718 147.08 542.246 148.58 540.441 148.58H516.194C514.39 148.58 512.918 147.08 512.918 145.24V145.22C512.918 143.38 514.39 141.88 516.194 141.88Z" fill="#C3C6E6"/>
<path d="M517.313 155.26H582.305C584.738 155.26 586.699 157.26 586.699 159.74V189.64C586.699 192.12 584.738 194.12 582.305 194.12H517.313C514.88 194.12 512.918 192.12 512.918 189.64V159.74C512.918 157.26 514.88 155.26 517.313 155.26Z" fill="white"/>
<path d="M517.313 200.82H582.305C584.738 200.82 586.699 202.82 586.699 205.3V232.02C586.699 234.5 584.738 236.5 582.305 236.5H517.313C514.88 236.5 512.918 234.5 512.918 232.02V205.3C512.918 202.82 514.88 200.82 517.313 200.82Z" fill="white"/>
<path d="M222.109 164.84H249.691C251.496 164.84 252.967 166.34 252.967 168.18V168.2C252.967 170.04 251.496 171.54 249.691 171.54H222.109C220.304 171.54 218.833 170.04 218.833 168.2V168.18C218.833 166.34 220.304 164.84 222.109 164.84Z" fill="#E8E8F7"/>
<path d="M222.109 179.72H261.324C263.129 179.72 264.6 181.22 264.6 183.06V183.08C264.6 184.92 263.129 186.42 261.324 186.42H222.109C220.304 186.42 218.833 184.92 218.833 183.08V183.06C218.833 181.22 220.304 179.72 222.109 179.72Z" fill="#E8E8F7"/>
<path d="M423.816 263.1H451.398C453.203 263.1 454.674 264.6 454.674 266.44V266.46C454.674 268.3 453.203 269.8 451.398 269.8H423.816C422.011 269.8 420.54 268.3 420.54 266.46V266.44C420.54 264.58 422.011 263.1 423.816 263.1Z" fill="#E8E8F7"/>
<path d="M423.816 277.98H463.031C464.836 277.98 466.307 279.48 466.307 281.32V281.34C466.307 283.18 464.836 284.68 463.031 284.68H423.816C422.011 284.68 420.54 283.18 420.54 281.34V281.32C420.54 279.46 422.011 277.98 423.816 277.98Z" fill="#E8E8F7"/>
<path d="M423.816 292.86H444.748C446.552 292.86 448.024 294.36 448.024 296.2V296.22C448.024 298.06 446.552 299.56 444.748 299.56H423.816C422.011 299.56 420.54 298.06 420.54 296.22V296.2C420.54 294.36 422.011 292.86 423.816 292.86Z" fill="#E8E8F7"/>
<path d="M322.962 207.7H350.544C352.349 207.7 353.82 209.2 353.82 211.04V211.06C353.82 212.9 352.349 214.4 350.544 214.4H322.962C321.157 214.4 319.686 212.9 319.686 211.06V211.04C319.686 209.18 321.157 207.7 322.962 207.7Z" fill="#E8E8F7"/>
<path d="M322.962 237.46H372.163C373.968 237.46 375.439 238.96 375.439 240.8V240.82C375.439 242.66 373.968 244.16 372.163 244.16H322.962C321.157 244.16 319.686 242.66 319.686 240.82V240.8C319.686 238.96 321.157 237.46 322.962 237.46Z" fill="#E8E8F7"/>
<path d="M322.962 252.34H350.544C352.349 252.34 353.82 253.84 353.82 255.68V255.7C353.82 257.54 352.349 259.04 350.544 259.04H322.962C321.157 259.04 319.686 257.54 319.686 255.7V255.68C319.686 253.84 321.157 252.34 322.962 252.34Z" fill="#E8E8F7"/>
<path d="M322.962 222.58H362.177C363.982 222.58 365.454 224.08 365.454 225.92V225.94C365.454 227.78 363.982 229.28 362.177 229.28H322.962C321.157 229.28 319.686 227.78 319.686 225.94V225.92C319.686 224.08 321.157 222.58 322.962 222.58Z" fill="#E8E8F7"/>
<path d="M423.816 179.72H451.398C453.203 179.72 454.674 181.22 454.674 183.06V183.08C454.674 184.92 453.203 186.42 451.398 186.42H423.816C422.011 186.42 420.54 184.92 420.54 183.08V183.06C420.54 181.22 422.011 179.72 423.816 179.72Z" fill="#E8E8F7"/>
<path d="M433.409 164.84H472.624C474.429 164.84 475.9 166.34 475.9 168.18V168.2C475.9 170.04 474.429 171.54 472.624 171.54H433.409C431.604 171.54 430.133 170.04 430.133 168.2V168.18C430.133 166.34 431.604 164.84 433.409 164.84Z" fill="#E8E8F7"/>
<path d="M524.669 179.72H552.251C554.056 179.72 555.527 181.22 555.527 183.06V183.08C555.527 184.92 554.056 186.42 552.251 186.42H524.669C522.864 186.42 521.393 184.92 521.393 183.08V183.06C521.412 181.22 522.864 179.72 524.669 179.72Z" fill="#E8E8F7"/>
<path d="M524.669 164.84H563.884C565.689 164.84 567.16 166.34 567.16 168.18V168.2C567.16 170.04 565.689 171.54 563.884 171.54H524.669C522.864 171.54 521.393 170.04 521.393 168.2V168.18C521.412 166.34 522.864 164.84 524.669 164.84Z" fill="#E8E8F7"/>
<path d="M534.262 210.44H570.142C571.947 210.44 573.418 211.94 573.418 213.78V213.8C573.418 215.64 571.947 217.14 570.142 217.14H534.262C532.457 217.14 530.986 215.64 530.986 213.8V213.78C530.986 211.94 532.457 210.44 534.262 210.44Z" fill="#E8E8F7"/>
<path d="M322.962 164.84H362.177C363.982 164.84 365.454 166.34 365.454 168.18V168.2C365.454 170.04 363.982 171.54 362.177 171.54H322.962C321.157 171.54 319.686 170.04 319.686 168.2V168.18C319.686 166.34 321.157 164.84 322.962 164.84Z" fill="#E8E8F7"/>
<path d="M481.432 216.14H416.459C414.026 216.14 412.065 218.16 412.065 220.64V253.58H485.846V220.58C485.807 218.12 483.845 216.14 481.432 216.14Z" fill="#ACAFE0"/>
<path d="M426.909 168.713C427.191 166.936 426.008 165.261 424.264 164.973C422.521 164.685 420.879 165.891 420.596 167.669C420.313 169.446 421.497 171.12 423.24 171.409C424.983 171.697 426.626 170.49 426.909 168.713Z" fill="#FF7A82"/>
<path d="M524.59 217.04C526.356 217.04 527.788 215.58 527.788 213.78C527.788 211.98 526.356 210.52 524.59 210.52C522.824 210.52 521.393 211.98 521.393 213.78C521.393 215.58 522.824 217.04 524.59 217.04Z" fill="#FF7A82"/>
<path d="M483.531 337.12H671.8C675.761 337.12 679 340.394 679 344.48V437.62C679 441.706 675.761 444.98 671.8 444.98H483.531C479.57 444.98 476.331 441.706 476.331 437.62V344.48C476.331 340.414 479.59 337.12 483.531 337.12Z" fill="white" stroke="#111B2B" stroke-width="2"/>
<path d="M526.003 368.62H633.369C635.174 368.62 636.645 370.12 636.645 371.96V371.98C636.645 373.82 635.174 375.32 633.369 375.32H526.003C524.198 375.32 522.727 373.82 522.727 371.98V371.96C522.727 370.12 524.198 368.62 526.003 368.62Z" fill="#E8E8F7"/>
<path d="M526.003 383.5H593.487C595.292 383.5 596.763 385 596.763 386.84V386.86C596.763 388.7 595.292 390.2 593.487 390.2H526.003C524.198 390.2 522.727 388.7 522.727 386.86V386.84C522.727 385 524.198 383.5 526.003 383.5Z" fill="#E8E8F7"/>
<path d="M494.831 353.74H530.711C532.516 353.74 533.987 355.24 533.987 357.08V357.1C533.987 358.94 532.516 360.44 530.711 360.44H494.831C493.026 360.44 491.555 358.94 491.555 357.1V357.08C491.555 355.22 493.026 353.74 494.831 353.74Z" fill="#AAAAE3"/>
<path d="M494.988 403.96H515.527V428.4H494.988C493.105 428.4 491.574 426.84 491.574 424.92V407.46C491.555 405.52 493.085 403.96 494.988 403.96Z" fill="#E8E8F7"/>
<path d="M506.955 415.56H504.13V412.66C504.13 412.34 503.875 412.06 503.541 412.06C503.227 412.06 502.953 412.32 502.953 412.66V415.56H500.108C499.794 415.56 499.52 415.82 499.52 416.16C499.52 416.48 499.775 416.76 500.108 416.76H502.953V419.66C502.953 419.98 503.208 420.26 503.541 420.26C503.855 420.26 504.13 420 504.13 419.66V416.72H506.955C507.268 416.72 507.543 416.46 507.543 416.12C507.543 415.8 507.288 415.52 506.955 415.52V415.56Z" fill="#AAAAE3"/>
<path d="M493.928 368.62H510.368C511.663 368.62 512.722 369.7 512.722 371.02V387.78C512.722 389.1 511.663 390.18 510.368 390.18H493.928C492.634 390.18 491.574 389.1 491.574 387.78V371.02C491.555 369.7 492.614 368.62 493.928 368.62Z" fill="#FF7A82"/>
<path d="M660.971 405.24C661.834 405.24 662.54 405.96 662.54 406.84V425.46C662.54 426.34 661.834 427.06 660.971 427.06H494.38C493.516 427.06 492.81 426.34 492.81 425.46V406.84C492.81 405.96 493.516 405.24 494.38 405.24H660.971ZM660.971 403.98H494.38C492.83 403.98 491.574 405.26 491.555 406.84V425.46C491.555 427.04 492.83 428.32 494.38 428.32H660.971C662.521 428.32 663.776 427.04 663.776 425.46V406.84C663.776 405.26 662.521 403.98 660.971 403.98Z" fill="#E8E8F7"/>
<path opacity="0.3" d="M436.7 184.32C436.72 179.82 433.15 176.16 428.736 176.14C428.716 176.14 428.716 176.14 428.696 176.14H196.328V179.52H420.418C424.812 179.52 428.383 183.16 428.383 187.64V187.66V342.4H436.681L436.7 184.32Z" fill="#3B3FAD"/>
<path d="M61.5988 221.14C61.5008 221.26 61.3634 221.36 61.2261 221.42C60.6376 221.66 59.9706 221.38 59.7352 220.8C58.8328 218.62 58.1658 216.34 57.7342 214.02C57.5969 213.38 58.0088 212.76 58.6366 212.64C59.2644 212.5 59.8725 212.92 59.9902 213.56C60.3826 215.72 60.9907 217.84 61.8343 219.88C62.0304 220.28 61.9323 220.8 61.5988 221.14Z" fill="#110580"/>
<path d="M422.398 180.56H17.9843C13 180.56 9 184.666 9 189.7V454.84C9 459.874 13 463.98 17.9843 463.98H422.398C427.383 463.98 431.383 459.874 431.383 454.84V189.7C431.383 184.666 427.383 180.56 422.398 180.56Z" fill="white" stroke="#111B2B" stroke-width="2"/>
<path d="M197.739 252.56H314.797C317.622 252.56 319.897 254.88 319.897 257.76V314.76C319.897 317.64 317.622 319.96 314.797 319.96H197.739C194.914 319.96 192.639 317.64 192.639 314.76V257.76C192.639 254.88 194.934 252.56 197.739 252.56Z" fill="#E8E8F7"/>
<path d="M353.051 294.34H413.924C415.748 294.34 417.219 295.84 417.219 297.7V343.76C417.219 345.62 415.748 347.12 413.924 347.12H353.051C351.226 347.12 349.755 345.62 349.755 343.76V297.7C349.775 295.84 351.246 294.34 353.051 294.34Z" fill="#E8E8F7"/>
<path d="M17.9843 463H46.3512V181.52H17.9843C13.5704 181.52 10 185.16 10 189.66C10 189.68 10 189.68 10 189.7V454.86C10 459.36 13.5704 463 17.9843 463Z" fill="#453069"/>
<path d="M145.949 181.56H46.3511V463H145.949V181.56Z" fill="#573E82"/>
<path d="M19.9657 203.54H36.4051C37.6999 203.54 38.7592 204.62 38.7592 205.94V222.7C38.7592 224.02 37.6999 225.1 36.4051 225.1H19.9657C18.6709 225.1 17.6116 224.02 17.6116 222.7V205.94C17.6116 204.62 18.6709 203.54 19.9657 203.54Z" fill="#FF7A82"/>
<path d="M165.076 218.28H181.515C182.81 218.28 183.87 219.36 183.87 220.68V237.44C183.87 238.76 182.81 239.84 181.515 239.84H165.076C163.781 239.84 162.722 238.76 162.722 237.44V220.68C162.722 219.36 163.781 218.28 165.076 218.28Z" fill="#868AE0"/>
<path d="M19.9657 236.08H36.4051C37.6999 236.08 38.7592 237.16 38.7592 238.48V255.24C38.7592 256.56 37.6999 257.64 36.4051 257.64H19.9657C18.6709 257.64 17.6116 256.56 17.6116 255.24V238.48C17.6116 237.14 18.6709 236.08 19.9657 236.08Z" fill="#868AE0"/>
<path d="M36.3462 269.84C36.9544 269.84 37.4644 270.34 37.4644 270.98V287.74C37.4644 288.36 36.974 288.88 36.3462 288.88H19.9657C19.3575 288.88 18.8671 288.36 18.8475 287.74V270.98C18.8475 270.36 19.3575 269.86 19.9657 269.84H36.4051H36.3462ZM36.4051 268.58H19.9657C18.6709 268.58 17.6116 269.66 17.6116 270.98V287.74C17.6116 289.06 18.6709 290.14 19.9657 290.14H36.4051C37.6999 290.14 38.7592 289.06 38.7592 287.74V270.98C38.7592 269.66 37.6999 268.58 36.4051 268.58Z" fill="#745CA1"/>
<path d="M28.1265 275.3C27.793 275.3 27.538 275.58 27.538 275.9V278.78H24.7327C24.4188 278.78 24.1442 279.04 24.1442 279.38C24.1442 279.7 24.3992 279.96 24.7327 279.98H27.5576V282.88C27.5576 283.2 27.8126 283.48 28.1461 283.48C28.46 283.48 28.7347 283.22 28.7347 282.88V279.98H31.5988C31.9127 279.98 32.1873 279.72 32.1873 279.38C32.1873 279.06 31.9323 278.8 31.5988 278.78H28.715V275.9C28.7347 275.58 28.4796 275.32 28.1265 275.3C28.1461 275.3 28.1461 275.3 28.1265 275.3Z" fill="#E8E8F7"/>
<path d="M60.2991 239.46H114.522C116.327 239.46 117.798 240.96 117.798 242.8V242.82C117.798 244.66 116.327 246.16 114.522 246.16H60.2991C58.4943 246.16 57.0229 244.66 57.0229 242.82V242.8C57.0229 240.96 58.4943 239.46 60.2991 239.46Z" fill="#C0AFDB"/>
<path d="M60.2991 203.54H96.2383C98.0431 203.54 99.5144 205.04 99.5144 206.88V206.9C99.5144 208.74 98.0431 210.24 96.2383 210.24H60.2991C58.4943 210.24 57.0229 208.74 57.0229 206.9V206.88C57.0229 205.04 58.4943 203.54 60.2991 203.54Z" fill="white"/>
<path d="M60.2991 255.06H101.162C102.967 255.06 104.438 256.56 104.438 258.4V258.42C104.438 260.26 102.967 261.76 101.162 261.76H60.2991C58.4943 261.76 57.0229 260.26 57.0229 258.42V258.4C57.0229 256.54 58.4943 255.06 60.2991 255.06Z" fill="#745CA1"/>
<path d="M195.915 218.28H286.665C288.47 218.28 289.941 219.78 289.941 221.62V221.64C289.941 223.48 288.47 224.98 286.665 224.98H195.915C194.11 224.98 192.639 223.48 192.639 221.64V221.62C192.639 219.76 194.11 218.28 195.915 218.28Z" fill="#E8E8F7"/>
<path d="M195.915 233.16H253.414C255.218 233.16 256.69 234.66 256.69 236.5V236.52C256.69 238.36 255.218 239.86 253.414 239.86H195.915C194.11 239.86 192.639 238.36 192.639 236.52V236.5C192.639 234.66 194.11 233.16 195.915 233.16Z" fill="#E8E8F7"/>
<path d="M165.076 339.96H181.515C182.81 339.96 183.87 341.04 183.87 342.36V359.12C183.87 360.44 182.81 361.52 181.515 361.52H165.076C163.781 361.52 162.722 360.44 162.722 359.12V342.36C162.722 341.04 163.781 339.96 165.076 339.96Z" fill="#868AE0"/>
<path d="M351.226 356.92H361.349C362.153 356.92 362.8 357.58 362.8 358.4V368.72C362.8 369.54 362.153 370.2 361.349 370.2H351.226C350.422 370.2 349.774 369.54 349.774 368.72V358.4C349.774 357.6 350.422 356.92 351.226 356.92Z" fill="#868AE0"/>
<path d="M351.226 213.24H361.349C362.153 213.24 362.8 213.9 362.8 214.72V225.04C362.8 225.86 362.153 226.52 361.349 226.52H351.226C350.422 226.52 349.774 225.86 349.774 225.04V214.72C349.774 213.92 350.422 213.24 351.226 213.24Z" fill="#FF7A82"/>
<path d="M195.915 339.96H303.281C305.086 339.96 306.557 341.46 306.557 343.3V343.32C306.557 345.16 305.086 346.66 303.281 346.66H195.915C194.11 346.66 192.639 345.16 192.639 343.32V343.3C192.639 341.46 194.11 339.96 195.915 339.96Z" fill="#E8E8F7"/>
<path d="M195.915 354.84H270.03C271.834 354.84 273.306 356.34 273.306 358.18V358.2C273.306 360.04 271.834 361.54 270.03 361.54H195.915C194.11 361.54 192.639 360.04 192.639 358.2V358.18C192.639 356.34 194.11 354.84 195.915 354.84Z" fill="#E8E8F7"/>
<path d="M195.915 369.72H286.665C288.47 369.72 289.941 371.22 289.941 373.06V373.08C289.941 374.92 288.47 376.42 286.665 376.42H195.915C194.11 376.42 192.639 374.92 192.639 373.08V373.06C192.639 371.22 194.11 369.72 195.915 369.72Z" fill="#E8E8F7"/>
<path d="M195.915 384.6H303.281C305.086 384.6 306.557 386.1 306.557 387.94V387.96C306.557 389.8 305.086 391.3 303.281 391.3H195.915C194.11 391.3 192.639 389.8 192.639 387.96V387.94C192.639 386.1 194.11 384.6 195.915 384.6Z" fill="#E8E8F7"/>
<path d="M353.051 233.28H410.549C412.354 233.28 413.825 234.78 413.825 236.62V236.64C413.825 238.48 412.354 239.98 410.549 239.98H353.051C351.246 239.98 349.774 238.48 349.774 236.64V236.62C349.774 234.78 351.226 233.28 353.051 233.28Z" fill="#E8E8F7"/>
<path d="M353.051 248.16H393.914C395.719 248.16 397.19 249.66 397.19 251.5V251.52C397.19 253.36 395.719 254.86 393.914 254.86H353.051C351.246 254.86 349.774 253.36 349.774 251.52V251.5C349.774 249.66 351.226 248.16 353.051 248.16Z" fill="#E8E8F7"/>
<path d="M353.051 263.04H403.899C405.704 263.04 407.175 264.54 407.175 266.38V266.4C407.175 268.24 405.704 269.74 403.899 269.74H353.051C351.246 269.74 349.774 268.24 349.774 266.4V266.38C349.774 264.54 351.226 263.04 353.051 263.04Z" fill="#E8E8F7"/>
<path d="M353.051 277.92H377.298C379.103 277.92 380.574 279.42 380.574 281.26V281.28C380.574 283.12 379.103 284.62 377.298 284.62H353.051C351.246 284.62 349.774 283.12 349.774 281.28V281.26C349.774 279.42 351.226 277.92 353.051 277.92Z" fill="#E8E8F7"/>
<path d="M353.051 377.72H393.914C395.719 377.72 397.19 379.22 397.19 381.06V381.08C397.19 382.92 395.719 384.42 393.914 384.42H353.051C351.246 384.42 349.774 382.92 349.774 381.08V381.06C349.774 379.22 351.226 377.72 353.051 377.72Z" fill="#E8E8F7"/>
<path d="M353.051 392.6H410.549C412.354 392.6 413.825 394.1 413.825 395.94V395.96C413.825 397.8 412.354 399.3 410.549 399.3H353.051C351.246 399.3 349.774 397.8 349.774 395.96V395.94C349.774 394.1 351.226 392.6 353.051 392.6Z" fill="#E8E8F7"/>
<path d="M195.915 399.5H253.414C255.218 399.5 256.69 401 256.69 402.84V402.86C256.69 404.7 255.218 406.2 253.414 406.2H195.915C194.11 406.2 192.639 404.7 192.639 402.86V402.84C192.639 400.98 194.11 399.5 195.915 399.5Z" fill="#E8E8F7"/>
<path d="M60.2991 270.66H101.162C102.967 270.66 104.438 272.16 104.438 274V274.02C104.438 275.86 102.967 277.36 101.162 277.36H60.2991C58.4943 277.36 57.0229 275.86 57.0229 274.02V274C57.0229 272.16 58.4943 270.66 60.2991 270.66Z" fill="#745CA1"/>
<path d="M60.2991 286.26H101.162C102.967 286.26 104.438 287.76 104.438 289.6V289.62C104.438 291.46 102.967 292.96 101.162 292.96H60.2991C58.4943 292.96 57.0229 291.46 57.0229 289.62V289.6C57.0229 287.74 58.4943 286.26 60.2991 286.26Z" fill="#745CA1"/>
<path d="M60.2991 327H121.172C122.977 327 124.448 328.5 124.448 330.34V330.36C124.448 332.2 122.977 333.7 121.172 333.7H60.2991C58.4943 333.7 57.0229 332.2 57.0229 330.36V330.34C57.0229 328.48 58.4943 327 60.2991 327Z" fill="#C0AFDB"/>
<path d="M60.2991 342.58H101.162C102.967 342.58 104.438 344.08 104.438 345.92V345.94C104.438 347.78 102.967 349.28 101.162 349.28H60.2991C58.4943 349.28 57.0229 347.78 57.0229 345.94V345.92C57.0229 344.08 58.4943 342.58 60.2991 342.58Z" fill="#745CA1"/>
<path d="M60.2991 399.44H121.172C122.977 399.44 124.448 400.94 124.448 402.78V402.8C124.448 404.64 122.977 406.14 121.172 406.14H60.2991C58.4943 406.14 57.0229 404.64 57.0229 402.8V402.78C57.0229 400.94 58.4943 399.44 60.2991 399.44Z" fill="#C0AFDB"/>
<path d="M60.2991 415.06H101.162C102.967 415.06 104.438 416.56 104.438 418.4V418.42C104.438 420.26 102.967 421.76 101.162 421.76H60.2991C58.4943 421.76 57.0229 420.26 57.0229 418.42V418.4C57.0229 416.54 58.4943 415.06 60.2991 415.06Z" fill="#745CA1"/>
<path d="M60.2991 358.2H101.162C102.967 358.2 104.438 359.7 104.438 361.54V361.56C104.438 363.4 102.967 364.9 101.162 364.9H60.2991C58.4943 364.9 57.0229 363.4 57.0229 361.56V361.54C57.0229 359.68 58.4943 358.2 60.2991 358.2Z" fill="#745CA1"/>
<path d="M135.061 333.66C136.871 333.66 138.337 332.165 138.337 330.32C138.337 328.475 136.871 326.98 135.061 326.98C133.252 326.98 131.785 328.475 131.785 330.32C131.785 332.165 133.252 333.66 135.061 333.66Z" fill="#FF7A82"/>
<path d="M338.181 189.84C338.416 189.84 338.592 190.02 338.592 190.26V454.28C338.592 454.52 338.416 454.7 338.181 454.7C337.945 454.7 337.769 454.52 337.769 454.28V190.26C337.769 190.02 337.945 189.84 338.181 189.84Z" fill="#E8E8F7"/>
<path d="M318.308 423.86C319.171 423.84 319.877 424.56 319.897 425.44C319.897 425.48 319.897 425.52 319.897 425.56V444.18C319.897 445.06 319.191 445.78 318.328 445.78H318.308H165.527C164.664 445.78 163.958 445.06 163.958 444.18V425.56C163.899 424.68 164.546 423.92 165.41 423.88C165.449 423.88 165.468 423.88 165.508 423.88H318.308V423.86ZM318.308 422.58H165.527C163.977 422.58 162.722 423.86 162.722 425.44V425.46V444.08C162.722 445.66 163.958 446.94 165.508 446.96H165.527H318.308C319.858 446.96 321.133 445.68 321.133 444.08V425.46C321.133 423.88 319.877 422.58 318.308 422.58Z" fill="#E8E8F7"/>
<path d="M414.414 413.6C415.297 413.64 415.983 414.4 415.983 415.3V433.92C415.944 434.8 415.258 435.48 414.414 435.52H352.58C351.736 435.46 351.069 434.78 351.01 433.92V415.18C351.01 414.28 351.697 413.54 352.58 413.48H414.414V413.6ZM414.414 412.2H352.58C351.03 412.2 349.755 413.48 349.755 415.08V433.7C349.755 435.28 351.01 436.58 352.58 436.58H414.414C415.964 436.58 417.239 435.3 417.239 433.7V415.16C417.239 413.58 415.983 412.28 414.414 412.28V412.2Z" fill="#E8E8F7"/>
<path d="M668 39.7935C666.432 42.2616 664.354 43.0621 662.276 43.529C661.254 43.7625 660.09 43.2455 659.057 42.7619C657.953 42.2449 656.884 41.4778 655.874 40.644C654.936 39.8602 654.093 38.843 653.119 37.8257C652.549 38.0592 651.777 38.0759 651.397 38.6095C650.399 40.0603 649.176 40.1604 647.917 40.2604C647.229 41.3277 646.611 42.445 645.863 43.3956C645.483 43.8792 644.913 44.1794 644.39 44.3295C643.713 44.5129 643.001 44.4795 642.336 44.5296C642.039 45.28 641.789 45.9304 641.564 46.514C640.043 46.6141 638.975 45.8303 638.357 44.0626C638.131 43.4289 637.918 42.9453 637.419 42.7285C637.122 42.5951 636.789 42.3784 636.623 42.0448C635.709 40.2104 634.438 40.077 633.036 40.4105C632.633 40.9108 632.253 41.4611 631.813 41.8947C630.222 43.529 629.07 45.7303 627.882 47.8648C626.885 49.6492 625.839 50.1662 624.652 48.7153C623.63 47.4646 622.372 46.6141 621.671 44.6963C620.97 42.7619 619.806 41.161 618.927 39.56C618.571 39.5434 618.334 39.4266 618.274 39.5267C617.015 41.5945 615.151 42.395 613.666 44.0293C611.505 46.3973 609.213 48.5486 606.968 50.7498C605.828 51.8671 604.533 51.7838 603.334 51.1501C601.469 50.1662 599.747 48.7487 598.548 46.4307C596.98 43.3956 595.508 40.2604 594.011 37.1753C593.975 37.1086 594.035 36.9585 594.059 36.6917C595.27 36.4749 596.339 36.8251 597.206 38.1592C597.74 38.9764 598.263 39.7935 598.785 40.6106C599.629 41.9281 600.424 43.3122 601.303 44.5629C602.134 45.7469 603.239 46.0638 604.047 44.9465C604.902 43.7625 606.161 43.629 606.921 42.1782C607.598 40.8775 608.619 39.9269 609.521 38.893C610.863 37.3588 612.229 35.8579 613.595 34.357C614.023 33.8901 614.498 33.4732 614.89 32.9396C616.065 31.322 617.467 31.7722 618.286 32.9396C619.723 34.9907 621.065 37.1753 622.443 39.2932C622.906 40.0103 623.357 40.7607 623.915 41.6446C625.079 40.1604 626.172 38.9097 627.158 37.5088C628.595 35.491 630.471 35.0241 632.312 34.4571C633.167 34.1903 634.058 34.4237 634.83 35.1075C635.97 36.1081 637.11 37.0753 638.203 38.1759C639.592 39.56 640.079 39.7935 641.362 38.3593C642.609 36.9752 643.951 35.8579 645.328 34.8073C646.706 33.7567 648.107 32.7228 649.568 31.9056C650.934 31.1385 652.335 31.0885 653.618 32.4893C654.117 33.0229 654.817 33.2064 655.245 33.8234C657.169 36.575 659.722 37.4088 662.204 38.376C663.321 38.8096 664.532 38.843 665.708 38.9764C666.492 39.1431 667.287 39.0097 668 39.7935Z" fill="#E95F10"/>
</svg>
