<svg width="64" height="78" viewBox="0 0 64 78" fill="none" xmlns="http://www.w3.org/2000/svg">
<g id="&#240;&#159;&#166;&#134; icon &#34;foreigner friendly&#34;">
<g id="Group">
<g id="Group_2">
<path id="Vector" d="M57.17 59.2433L55.6424 58.0369C56.0316 57.5407 56.4111 57.0347 56.7613 56.5191L58.3667 57.6282C57.9872 58.1731 57.5883 58.7179 57.17 59.2433ZM6.57707 58.9125C6.16844 58.3871 5.77926 57.8326 5.40955 57.278L7.02463 56.198C7.37489 56.7137 7.7446 57.2391 8.12405 57.7353L6.57707 58.9125ZM59.4564 55.9256L57.7829 54.9235C58.104 54.3883 58.4153 53.8338 58.7072 53.2792L60.439 54.1743C60.1277 54.7678 59.7969 55.3613 59.4564 55.9256ZM4.33931 55.5753C3.99878 55.0013 3.67771 54.4078 3.38583 53.8046L5.12739 52.9289C5.40955 53.4932 5.71116 54.0478 6.0225 54.5927L4.33931 55.5753ZM61.305 52.3646L59.5245 51.5765C59.7774 51.0025 60.0109 50.409 60.2347 49.8253L62.0638 50.4966C61.8206 51.1193 61.5676 51.7517 61.305 52.3646ZM2.52964 51.9852C2.26695 51.3722 2.02372 50.7398 1.79994 50.1074L3.6388 49.4653C3.84311 50.0588 4.07662 50.6523 4.31985 51.2263L2.52964 51.9852ZM62.6865 48.5896L60.8185 48.0351C60.9936 47.4318 61.159 46.8189 61.2952 46.2059L63.1925 46.6437C63.0465 47.2859 62.8811 47.9475 62.6865 48.5896ZM1.19671 48.1907C1.01186 47.5486 0.856186 46.8967 0.710245 46.2448L2.61721 45.8362C2.75342 46.4492 2.89936 47.0621 3.07449 47.6653L1.19671 48.1907ZM63.5816 44.6687L61.6649 44.3573C61.7622 43.7347 61.8498 43.112 61.9082 42.4796L63.8443 42.6741C63.7762 43.3357 63.6887 44.0071 63.5816 44.6687ZM0.350258 44.26C0.252964 43.5984 0.175129 42.9271 0.116753 42.2655L2.0529 42.1001C2.11128 42.7228 2.17939 43.3552 2.27668 43.9779L0.350258 44.26ZM63.9805 40.6602L62.0347 40.5921C62.0444 40.2223 62.0541 39.8526 62.0541 39.4829C62.0541 39.2591 62.0541 39.0256 62.0444 38.8018V38.7046L63.9903 38.6559V38.7629C64 39.0062 64 39.2494 64 39.4926C64 39.8818 64 40.271 63.9805 40.6602ZM0.00972851 40.2613V40.1834C-8.90898e-07 39.9402 0 39.697 0 39.4537C0 39.0548 0.0097291 38.6462 0.0194585 38.2473L1.96534 38.3154C1.95561 38.6948 1.94588 39.0743 1.94588 39.4537C1.94588 39.6775 1.94588 39.911 1.95561 40.1348V40.2029L0.00972851 40.2613ZM61.9374 36.8171C61.879 36.1944 61.8109 35.562 61.7136 34.9393L63.64 34.6474C63.7373 35.309 63.8151 35.9803 63.8735 36.6419L61.9374 36.8171ZM2.09182 36.4473L0.15567 36.2527C0.223775 35.5911 0.31134 34.9198 0.418363 34.2582L2.33506 34.5696C2.23776 35.1922 2.15993 35.8149 2.09182 36.4473ZM61.3731 33.0907C61.2369 32.4777 61.0909 31.8648 60.9158 31.2616L62.7838 30.7264C62.9687 31.3686 63.1341 32.0205 63.2703 32.6723L61.3731 33.0907ZM2.70477 32.721L0.807539 32.2832C0.95348 31.6313 1.12861 30.9794 1.3232 30.3373L3.19124 30.8918C3.00638 31.4951 2.84098 32.108 2.70477 32.721ZM60.3515 29.4519C60.1472 28.8584 59.9137 28.2649 59.6704 27.6909L61.4606 26.932C61.7233 27.5449 61.9666 28.1773 62.1903 28.8098L60.3515 29.4519ZM3.78474 29.1016L1.95561 28.4303C2.18911 27.8076 2.44208 27.1752 2.7145 26.5623L4.49498 27.3503C4.23229 27.9244 3.99878 28.5081 3.78474 29.1016ZM58.8726 25.9882C58.5905 25.4337 58.2888 24.8693 57.9775 24.3342L59.6607 23.3516C60.0012 23.9256 60.3223 24.5191 60.6142 25.1126L58.8726 25.9882ZM5.30252 25.6477L3.57069 24.7526C3.88203 24.1591 4.21283 23.5656 4.55336 23.0013L6.21709 24.0034C5.90575 24.5385 5.59441 25.0931 5.30252 25.6477ZM56.9656 22.7289C56.6154 22.2132 56.2457 21.6976 55.8662 21.1916L57.4132 20.0046C57.8218 20.53 58.211 21.0846 58.5807 21.6392L56.9656 22.7289ZM7.25813 22.4078L5.65278 21.2987C6.03223 20.7538 6.43113 20.209 6.8495 19.6836L8.37701 20.89C7.98784 21.3862 7.60839 21.8922 7.25813 22.4078ZM54.6695 19.742C54.2609 19.2652 53.823 18.8079 53.3852 18.3604L54.7668 16.9885C55.2338 17.4653 55.6911 17.9615 56.1289 18.4577L54.6695 19.742ZM9.59319 19.4403L8.14351 18.1463C8.59106 17.6501 9.05807 17.1637 9.52508 16.6869L10.8872 18.0685C10.4494 18.516 10.0116 18.9733 9.59319 19.4403ZM52.0231 17.0566C51.5561 16.6383 51.0696 16.2296 50.5734 15.8405L51.7799 14.3129C52.3053 14.7216 52.8209 15.1594 53.3171 15.607L52.0231 17.0566ZM12.2785 16.7939L11.004 15.3248C11.5099 14.887 12.0353 14.4589 12.5607 14.0503L13.7476 15.5972C13.2417 15.9767 12.7455 16.3853 12.2785 16.7939ZM49.0556 14.7216C48.54 14.3616 48.0049 14.0211 47.4697 13.7L48.4719 12.0363C49.0459 12.3768 49.6102 12.7465 50.1648 13.126L49.0556 14.7216ZM15.2752 14.4978L14.1952 12.8827C14.7498 12.513 15.3238 12.153 15.8978 11.8125L16.8805 13.4957C16.3259 13.8167 15.7908 14.1475 15.2752 14.4978ZM45.8157 12.7757C45.2612 12.4838 44.6871 12.2114 44.1131 11.9584L44.9012 10.178C45.5141 10.4504 46.1271 10.7423 46.7206 11.0439L45.8157 12.7757ZM18.5248 12.6006L17.6491 10.859C18.2426 10.5574 18.8556 10.2752 19.4685 10.0126L20.2274 11.8028C19.6631 12.046 19.0891 12.3184 18.5248 12.6006ZM42.3618 11.2482C41.7683 11.0341 41.1651 10.8298 40.5716 10.6547L41.1262 8.78665C41.7683 8.98124 42.4105 9.18555 43.0331 9.41906L42.3618 11.2482ZM21.9982 11.1217L21.3463 9.28285C21.9787 9.05907 22.6209 8.85476 23.263 8.6699L23.7884 10.5379C23.1949 10.7228 22.5917 10.9174 21.9982 11.1217ZM38.7425 10.178C38.1295 10.0417 37.5068 9.91526 36.8939 9.81797L37.2052 7.90127C37.8668 8.0083 38.5284 8.13478 39.1803 8.29045L38.7425 10.178ZM25.6272 10.0904L25.2186 8.18343C25.8705 8.04722 26.5321 7.92073 27.1937 7.82344L27.4856 9.74986C26.8629 9.84715 26.2402 9.96391 25.6272 10.0904ZM35.0161 9.565C34.3934 9.50662 33.761 9.45798 33.1286 9.43852L33.1967 7.49264C33.868 7.52183 34.5394 7.56075 35.201 7.62885L35.0161 9.565ZM29.3536 9.53581L29.1882 7.59966C29.8498 7.54129 30.5309 7.50237 31.1925 7.48291L31.2411 9.42879C30.6184 9.43852 29.986 9.47744 29.3536 9.53581Z" fill="#122436"/>
<path id="Vector_2" d="M64 39.4734H62.0541C62.0541 22.9042 48.5692 9.41927 32 9.41927C15.4308 9.41927 1.94588 22.9042 1.94588 39.4734H0C0 30.9212 3.32745 22.8848 9.36941 16.8428C15.4114 10.8008 23.4479 7.47339 32 7.47339C40.5521 7.47339 48.5886 10.8008 54.6306 16.8428C60.6725 22.8945 64 30.931 64 39.4734Z" fill="#122436"/>
<path id="Vector_3" d="M32 64.9255C46.0568 64.9255 57.4521 53.5302 57.4521 39.4734C57.4521 25.4165 46.0568 14.0212 32 14.0212C17.9432 14.0212 6.54785 25.4165 6.54785 39.4734C6.54785 53.5302 17.9432 64.9255 32 64.9255Z" fill="#FFCD35"/>
<path id="Vector_4" d="M6.50903 40.3489H57.4911V42.2948H6.50903V40.3489Z" fill="white"/>
<path id="Vector_5" d="M32 30.5029C23.876 30.5029 16.1216 28.5668 10.7218 25.2004L11.7531 23.5464C16.8513 26.7279 24.2359 28.557 32.0097 28.557C39.7738 28.557 47.1584 26.7279 52.2663 23.5464L53.2977 25.2004C47.8784 28.5668 40.1241 30.5029 32 30.5029Z" fill="white"/>
<path id="Vector_6" d="M32 65.8983C24.9462 65.8983 18.3108 63.1546 13.3196 58.1634C8.32841 53.1722 5.58472 46.5368 5.58472 39.483C5.58472 32.4291 8.32841 25.7937 13.3196 20.8025C18.3108 15.8113 24.9462 13.0676 32 13.0676C39.0539 13.0676 45.6893 15.8113 50.6805 20.8025C55.6717 25.7937 58.4154 32.4291 58.4154 39.483C58.4154 46.5368 55.6717 53.1722 50.6805 58.1634C45.6893 63.1449 39.0539 65.8983 32 65.8983ZM32 14.994C18.5054 14.994 7.52087 25.9785 7.52087 39.4732C7.52087 52.9679 18.5054 63.9524 32 63.9524C45.4947 63.9524 56.4792 52.9679 56.4792 39.4732C56.4792 25.9785 45.4947 14.994 32 14.994Z" fill="#122436"/>
<path id="Vector_7" d="M32.0001 65.9373C28.0986 65.9373 24.489 63.0963 21.8231 57.9494C19.2643 52.9972 17.8535 46.4396 17.8535 39.483C17.8535 32.5265 19.2643 25.9592 21.8231 21.0166C24.489 15.8601 28.0986 13.0288 32.0001 13.0288C35.9016 13.0288 39.5112 15.8698 42.177 21.0166C44.7358 25.9689 46.1466 32.5265 46.1466 39.483C46.1466 46.4396 44.7358 53.0069 42.177 57.9494C39.5112 63.0963 35.9016 65.9373 32.0001 65.9373ZM32.0001 14.9552C28.8672 14.9552 25.8608 17.4168 23.5452 21.8923C21.1226 26.5721 19.7994 32.8184 19.7994 39.4733C19.7994 46.1282 21.1323 52.3745 23.5452 57.0543C25.8608 61.5299 28.8575 63.9914 32.0001 63.9914C35.1427 63.9914 38.1393 61.5299 40.4549 57.0543C42.8775 52.3745 44.2007 46.1282 44.2007 39.4733C44.2007 32.8184 42.8678 26.5721 40.4549 21.8923C38.1393 17.4265 35.1329 14.9552 32.0001 14.9552Z" fill="#122436"/>
<path id="Vector_8" d="M31.0271 13.9822H32.973V64.9642H31.0271V13.9822Z" fill="#122436"/>
<path id="Vector_9" d="M13.3488 56.636L12.3661 54.9528C17.3573 52.0243 24.5084 50.3411 32 50.3411C39.4917 50.3411 46.6525 52.0243 51.6339 54.9528L50.6513 56.6263C45.952 53.8631 39.1609 52.2869 32 52.2869C24.8489 52.2967 18.0481 53.8728 13.3488 56.636Z" fill="#122436"/>
<path id="Vector_10" d="M32 28.6055C24.5084 28.6055 17.3475 26.9223 12.3661 23.9938L13.3488 22.3203C18.0481 25.0835 24.8392 26.6596 32 26.6596C39.1511 26.6596 45.952 25.0737 50.6513 22.3203L51.6339 23.9938C46.6525 26.9223 39.4917 28.6055 32 28.6055Z" fill="#122436"/>
<path id="Vector_11" d="M6.50903 38.5005H57.4911V40.4464H6.50903V38.5005Z" fill="#122436"/>
<path id="Vector_12" d="M32.0001 18.0978C36.5352 18.0978 40.2117 14.4213 40.2117 9.88618C40.2117 5.35103 36.5352 1.67456 32.0001 1.67456C27.4649 1.67456 23.7885 5.35103 23.7885 9.88618C23.7885 14.4213 27.4649 18.0978 32.0001 18.0978Z" fill="#4EA4DB"/>
<path id="Vector_13" d="M32 4.00962C36.1447 4.00962 39.5695 7.07438 40.1338 11.0537C40.1921 10.6743 40.2213 10.2851 40.2213 9.88617C40.2213 5.35227 36.5436 1.67456 32.0097 1.67456C27.4758 1.67456 23.7981 5.35227 23.7981 9.88617C23.7981 10.2851 23.8273 10.6743 23.8857 11.0537C24.4305 7.07438 27.8553 4.00962 32 4.00962Z" fill="white"/>
<path id="Vector_14" d="M32 19.0708C26.931 19.0708 22.8154 14.9455 22.8154 9.88621C22.8154 4.8172 26.9407 0.70166 32 0.70166C37.0593 0.70166 41.1845 4.82693 41.1845 9.88621C41.1845 14.9552 37.069 19.0708 32 19.0708ZM32 2.64754C28.0109 2.64754 24.7613 5.89716 24.7613 9.88621C24.7613 13.8753 28.0109 17.1249 32 17.1249C35.989 17.1249 39.2387 13.8753 39.2387 9.88621C39.2387 5.89716 35.989 2.64754 32 2.64754Z" fill="#122436"/>
<path id="Vector_15" d="M12.259 41.7793L32 30.3765L51.7409 41.7793V64.5753L32 75.9782L12.259 64.5753V41.7793Z" fill="white"/>
<path id="Vector_16" d="M38.2658 56.3247C36.3199 62.425 27.6802 62.425 25.7343 56.3247C22.2025 57.3171 19.6145 60.557 19.6145 64.4098V68.8173L32 75.9684L44.3856 68.8173V64.4098C44.3856 60.5667 41.7975 57.3171 38.2658 56.3247Z" fill="#4EA4DB"/>
<g id="Group_3">
<path id="Vector_17" d="M45.3584 68.8171H43.4125V64.614C43.4125 60.3331 40.1532 56.9862 35.989 56.9862H28.0109C23.9148 56.9862 20.5874 60.3136 20.5874 64.4097V68.8171H18.6415V64.4097C18.6415 59.2434 22.8446 55.0403 28.0109 55.0403H35.989C38.5089 55.0403 40.8634 56.023 42.6245 57.8132C44.3952 59.6131 45.3681 62.026 45.3681 64.614V68.8171H45.3584Z" fill="#122436"/>
<path id="Vector_18" d="M32 52.4717C27.5731 52.4717 23.9733 48.8718 23.9733 44.445C23.9733 40.0181 27.5731 36.4182 32 36.4182C36.4269 36.4182 40.0268 40.0181 40.0268 44.445C40.0268 48.8718 36.4269 52.4717 32 52.4717ZM32 38.3641C28.6434 38.3641 25.9191 41.0883 25.9191 44.445C25.9191 47.8016 28.6434 50.5258 32 50.5258C35.3567 50.5258 38.0809 47.8016 38.0809 44.445C38.0809 41.0981 35.3567 38.3641 32 38.3641Z" fill="#122436"/>
<path id="Vector_19" d="M38.2268 66.813H40.1727V71.8236H38.2268V66.813Z" fill="#122436"/>
<path id="Vector_20" d="M23.8273 66.813H25.7732V71.8236H23.8273V66.813Z" fill="#122436"/>
<path id="Vector_21" d="M32.0097 48.5412C30.2681 48.5412 28.8477 47.1207 28.8477 45.3792H30.3071C30.3071 46.3229 31.0757 47.0818 32.0097 47.0818C32.9535 47.0818 33.7124 46.3132 33.7124 45.3792H35.1718C35.162 47.1304 33.7513 48.5412 32.0097 48.5412Z" fill="#122436"/>
<path id="Vector_22" d="M29.5774 44.299C30.1792 44.299 30.6671 43.8111 30.6671 43.2093C30.6671 42.6075 30.1792 42.1196 29.5774 42.1196C28.9755 42.1196 28.4877 42.6075 28.4877 43.2093C28.4877 43.8111 28.9755 44.299 29.5774 44.299Z" fill="#122436"/>
<path id="Vector_23" d="M34.4421 44.299C35.0439 44.299 35.5318 43.8111 35.5318 43.2093C35.5318 42.6075 35.0439 42.1196 34.4421 42.1196C33.8403 42.1196 33.3524 42.6075 33.3524 43.2093C33.3524 43.8111 33.8403 44.299 34.4421 44.299Z" fill="#122436"/>
<path id="Vector_24" d="M32 77.0968L11.2861 65.1393V41.2147L32 29.2476L52.7139 41.205V65.1296L32 77.0968ZM13.232 64.0107L32 74.8493L50.768 64.0107V42.3336L32 31.4951L13.232 42.3336V64.0107Z" fill="#122436"/>
</g>
<path id="Vector_25" d="M26.0457 63.7581H37.9544V65.7039H26.0457V63.7581Z" fill="white"/>
<path id="Vector_26" d="M26.0457 68.6323H37.9544V70.5782H26.0457V68.6323Z" fill="white"/>
<path id="Vector_27" d="M30.8715 14.0214L27.6608 10.8107L29.1104 9.36098L30.8715 11.122L34.8897 7.10376L36.3394 8.55344L30.8715 14.0214Z" fill="white"/>
</g>
</g>
</g>
</svg>
