<svg width="64" height="65" viewBox="0 0 64 65" fill="none" xmlns="http://www.w3.org/2000/svg">
<g id="&#240;&#159;&#166;&#134; icon &#34;support&#34;">
<path id="Vector" d="M62.6667 4.89909V34.2324C62.6646 34.939 62.3829 35.6161 61.8833 36.1157C61.3836 36.6154 60.7066 36.897 60 36.8991H53.3333L45.3333 44.8991V36.8991H30.6667C29.9601 36.897 29.283 36.6154 28.7834 36.1157C28.2837 35.6161 28.0021 34.939 28 34.2324V4.89909C28.0021 4.19249 28.2837 3.51544 28.7834 3.0158C29.283 2.51616 29.9601 2.23453 30.6667 2.23242H60C60.7066 2.23453 61.3836 2.51616 61.8833 3.0158C62.3829 3.51544 62.6646 4.19249 62.6667 4.89909ZM57.3333 22.2324V16.8991H54.28C54.0993 16.2836 53.8534 15.6891 53.5467 15.1258L55.7067 12.9658L51.9333 9.19242L49.7733 11.3524C49.21 11.0457 48.6155 10.7998 48 10.6191V7.56576H42.6667V10.6191C42.0512 10.7998 41.4567 11.0457 40.8933 11.3524L38.7333 9.19242L34.96 12.9658L37.12 15.1258C36.8132 15.6891 36.5674 16.2836 36.3867 16.8991H33.3333V22.2324H36.3867C36.5674 22.8479 36.8132 23.4424 37.12 24.0058L34.96 26.1658L38.7333 29.9391L40.8933 27.7791C41.4567 28.0858 42.0512 28.3317 42.6667 28.5124V31.5658H48V28.5124C48.6155 28.3317 49.21 28.0858 49.7733 27.7791L51.9333 29.9391L55.7067 26.1658L53.5467 24.0058C53.8534 23.4424 54.0993 22.8479 54.28 22.2324H57.3333Z" fill="#FF8257"/>
<path id="Vector_2" d="M57.3333 16.8993V22.2326H54.2799C54.0992 22.8481 53.8533 23.4425 53.5466 24.0059L55.7066 26.1659L51.9333 29.9393L49.7733 27.7793C49.2099 28.086 48.6154 28.3318 47.9999 28.5126V31.5659H42.6666V28.5126C42.0511 28.3318 41.4566 28.086 40.8933 27.7793L38.7333 29.9393L34.9599 26.1659L37.1199 24.0059C36.8132 23.4425 36.5673 22.8481 36.3866 22.2326H33.3333V16.8993H36.3866C36.5673 16.2838 36.8132 15.6893 37.1199 15.1259L34.9599 12.9659L38.7333 9.19258L40.8933 11.3526C41.4566 11.0458 42.0511 10.8 42.6666 10.6193V7.56592H47.9999V10.6193C48.6154 10.8 49.2099 11.0458 49.7733 11.3526L51.9333 9.19258L55.7066 12.9659L53.5466 15.1259C53.8533 15.6893 54.0992 16.2838 54.2799 16.8993H57.3333Z" fill="#CDD2E1"/>
<path id="Vector_3" d="M11.9999 59.5658V60.8991C11.9978 61.6057 11.7162 62.2827 11.2165 62.7824C10.7169 63.282 10.0398 63.5636 9.33325 63.5658H1.33325V42.2324H9.33325C10.0398 42.2345 10.7169 42.5162 11.2165 43.0158C11.7162 43.5154 11.9978 44.1925 11.9999 44.8991V59.5658Z" fill="#B5EFFF"/>
<path id="Vector_4" d="M32 54.2325L36 58.2325H49.3333C50.0399 58.2346 50.717 58.5162 51.2166 59.0159C51.7163 59.5155 51.9979 60.1926 52 60.8992C51.9948 61.6048 51.7121 62.28 51.2132 62.779C50.7142 63.278 50.039 63.5606 49.3333 63.5658H21.3333L17.3333 59.5658H12V44.8992H24C24.7066 44.9013 25.3836 45.1829 25.8833 45.6826C26.3829 46.1822 26.6646 46.8592 26.6667 47.5658V48.8992H33.3333C34.0399 48.9013 34.717 49.1829 35.2166 49.6826C35.7163 50.1822 35.9979 50.8592 36 51.5658C35.9948 52.2715 35.7121 52.9467 35.2132 53.4457C34.7142 53.9446 34.039 54.2273 33.3333 54.2325H32Z" fill="#FFCDBE"/>
<path id="Vector_5" d="M45.3334 23.5659C47.5425 23.5659 49.3334 21.7751 49.3334 19.5659C49.3334 17.3568 47.5425 15.5659 45.3334 15.5659C43.1242 15.5659 41.3334 17.3568 41.3334 19.5659C41.3334 21.7751 43.1242 23.5659 45.3334 23.5659Z" fill="#F2F6FC"/>
<path id="Vector_6" d="M3.99992 8.89917C3.29267 8.89917 2.6144 9.18012 2.1143 9.68022C1.6142 10.1803 1.33325 10.8586 1.33325 11.5658V27.5658C1.33325 28.2731 1.6142 28.9514 2.1143 29.4515C2.6144 29.9516 3.29267 30.2325 3.99992 30.2325H10.6666L15.9999 35.5658V30.2325H27.9999V8.89917H3.99992Z" fill="#FFDE91"/>
<path id="Vector_7" d="M12 44.8992H16V59.5658H12V44.8992Z" fill="#FFBEAA"/>
<path id="Vector_8" d="M24 8.89917H28V30.2325H24V8.89917Z" fill="#FFAC5A"/>
<g id="Group">
<path id="Vector_9" d="M49.3333 56.8992H36.552L34.9 55.2472C35.3672 55.0511 35.7902 54.7632 36.144 54.4005C36.5228 54.0323 36.8233 53.5915 37.0277 53.1044C37.2321 52.6174 37.336 52.094 37.3333 51.5658C37.3333 50.505 36.9119 49.4876 36.1618 48.7374C35.4116 47.9873 34.3942 47.5658 33.3333 47.5658H28C28 46.505 27.5786 45.4876 26.8284 44.7374C26.0783 43.9873 25.0609 43.5658 24 43.5658H13.088C12.8132 42.7886 12.305 42.1153 11.6329 41.638C10.9608 41.1606 10.1577 40.9026 9.33333 40.8992H1.33333C0.979711 40.8992 0.640573 41.0396 0.390524 41.2897C0.140476 41.5397 0 41.8789 0 42.2325L0 63.5658C0 63.9195 0.140476 64.2586 0.390524 64.5086C0.640573 64.7587 0.979711 64.8992 1.33333 64.8992H9.33333C10.3942 64.8992 11.4116 64.4777 12.1618 63.7276C12.9119 62.9774 13.3333 61.96 13.3333 60.8992H16.7813L20.3907 64.5085C20.6407 64.7586 20.9797 64.8991 21.3333 64.8992H49.3333C50.3926 64.8939 51.4069 64.4708 52.156 63.7218C52.905 62.9728 53.3281 61.9584 53.3333 60.8992C53.3333 59.8383 52.9119 58.8209 52.1618 58.0707C51.4116 57.3206 50.3942 56.8992 49.3333 56.8992ZM10.6667 60.8992C10.6667 61.2528 10.5262 61.5919 10.2761 61.842C10.0261 62.092 9.68696 62.2325 9.33333 62.2325H2.66667V43.5658H9.33333C9.68696 43.5658 10.0261 43.7063 10.2761 43.9564C10.5262 44.2064 10.6667 44.5455 10.6667 44.8992V60.8992ZM50.2587 61.8498C50.1378 61.9722 49.9937 62.0692 49.8348 62.1349C49.6758 62.2006 49.5053 62.2338 49.3333 62.2325H21.8853L18.276 58.6232C18.026 58.3731 17.6869 58.2326 17.3333 58.2325H13.3333V46.2325H24C24.3536 46.2325 24.6928 46.373 24.9428 46.623C25.1929 46.8731 25.3333 47.2122 25.3333 47.5658V48.8992C25.3333 49.2528 25.4738 49.5919 25.7239 49.842C25.9739 50.092 26.313 50.2325 26.6667 50.2325H33.3333C33.687 50.2325 34.0261 50.373 34.2761 50.623C34.5262 50.8731 34.6667 51.2122 34.6667 51.5658C34.6671 51.7437 34.6311 51.9199 34.561 52.0834C34.4908 52.2469 34.3879 52.3943 34.2587 52.5165C34.1378 52.6389 33.9937 52.7358 33.8348 52.8015C33.6758 52.8673 33.5053 52.9005 33.3333 52.8992H25.3333V55.5658H31.448L35.0573 59.1752C35.3073 59.4252 35.6464 59.5658 36 59.5658H49.3333C49.687 59.5658 50.0261 59.7063 50.2761 59.9564C50.5262 60.2064 50.6667 60.5455 50.6667 60.8992C50.6671 61.0771 50.6311 61.2532 50.561 61.4167C50.4908 61.5802 50.3879 61.7276 50.2587 61.8498Z" fill="#190402"/>
<path id="Vector_10" d="M5.33337 46.2327H8.00004V48.8993H5.33337V46.2327Z" fill="#190402"/>
<path id="Vector_11" d="M60 0.89917H30.6666C29.6058 0.89917 28.5883 1.3206 27.8382 2.07074C27.0881 2.82089 26.6666 3.8383 26.6666 4.89917V34.2325C26.6666 35.2934 27.0881 36.3108 27.8382 37.0609C28.5883 37.8111 29.6058 38.2325 30.6666 38.2325H44V44.8992C43.9999 45.1629 44.078 45.4206 44.2244 45.6399C44.3709 45.8592 44.579 46.0302 44.8226 46.1312C44.9844 46.1986 45.158 46.2331 45.3333 46.2325C45.6869 46.2324 46.026 46.0919 46.276 45.8418L53.8853 38.2325H60C61.0608 38.2325 62.0782 37.8111 62.8284 37.0609C63.5785 36.3108 64 35.2934 64 34.2325V4.89917C64 3.8383 63.5785 2.82089 62.8284 2.07074C62.0782 1.3206 61.0608 0.89917 60 0.89917ZM61.3333 34.2325C61.3333 34.5861 61.1928 34.9253 60.9428 35.1753C60.6927 35.4254 60.3536 35.5658 60 35.5658H53.3333C52.9797 35.5659 52.6406 35.7064 52.3906 35.9565L46.6666 41.6805V36.8992C46.6666 36.5455 46.5261 36.2064 46.2761 35.9564C46.0261 35.7063 45.6869 35.5658 45.3333 35.5658H30.6666C30.313 35.5658 29.9739 35.4254 29.7238 35.1753C29.4738 34.9253 29.3333 34.5861 29.3333 34.2325V4.89917C29.3333 4.54555 29.4738 4.20641 29.7238 3.95636C29.9739 3.70631 30.313 3.56584 30.6666 3.56584H60C60.3536 3.56584 60.6927 3.70631 60.9428 3.95636C61.1928 4.20641 61.3333 4.54555 61.3333 4.89917V34.2325Z" fill="#190402"/>
<path id="Vector_12" d="M4 31.5659H10.1147L15.0573 36.5086C15.3073 36.7586 15.6464 36.8992 16 36.8993C16.1753 36.8998 16.3489 36.8654 16.5107 36.7979C16.7542 36.6969 16.9624 36.526 17.1088 36.3067C17.2553 36.0874 17.3334 35.8296 17.3333 35.5659V31.5659H24V28.8993H16C15.6464 28.8993 15.3072 29.0397 15.0572 29.2898C14.8071 29.5398 14.6667 29.879 14.6667 30.2326V32.3472L11.6093 29.2899C11.3593 29.0399 11.0203 28.8993 10.6667 28.8993H4C3.64638 28.8993 3.30724 28.7588 3.05719 28.5087C2.80714 28.2587 2.66667 27.9195 2.66667 27.5659V11.5659C2.66667 11.2123 2.80714 10.8732 3.05719 10.6231C3.30724 10.3731 3.64638 10.2326 4 10.2326H24V7.56592H4C2.93913 7.56592 1.92172 7.98735 1.17157 8.73749C0.421427 9.48764 0 10.5051 0 11.5659L0 27.5659C0 28.6268 0.421427 29.6442 1.17157 30.3943C1.92172 31.1445 2.93913 31.5659 4 31.5659Z" fill="#190402"/>
<path id="Vector_13" d="M57.3333 15.5658H55.2267L55.1587 15.4004L56.6493 13.9084C56.8993 13.6584 57.0397 13.3193 57.0397 12.9658C57.0397 12.6122 56.8993 12.2731 56.6493 12.0231L52.876 8.24976C52.626 7.99979 52.2869 7.85937 51.9333 7.85937C51.5798 7.85937 51.2407 7.99979 50.9907 8.24976L49.5 9.74042L49.3333 9.67242V7.56576C49.3333 7.21213 49.1929 6.87299 48.9428 6.62295C48.6928 6.3729 48.3536 6.23242 48 6.23242H42.6667C42.313 6.23242 41.9739 6.3729 41.7239 6.62295C41.4738 6.87299 41.3333 7.21213 41.3333 7.56576V9.67242L41.1667 9.74042L39.676 8.24976C39.4213 8.00886 39.0839 7.87463 38.7333 7.87463C38.3827 7.87463 38.0454 8.00886 37.7907 8.24976L34.0173 12.0231C33.7674 12.2731 33.627 12.6122 33.627 12.9658C33.627 13.3193 33.7674 13.6584 34.0173 13.9084L35.508 15.4004L35.44 15.5658H33.3333C32.9797 15.5658 32.6406 15.7062 32.3905 15.9563C32.1405 16.2063 32 16.5455 32 16.8991V22.2324C32 22.586 32.1405 22.9252 32.3905 23.1752C32.6406 23.4253 32.9797 23.5658 33.3333 23.5658H35.44L35.508 23.7311L34.0173 25.2231C33.7674 25.4731 33.627 25.8122 33.627 26.1658C33.627 26.5193 33.7674 26.8584 34.0173 27.1084L37.7907 30.8818C38.0407 31.1317 38.3798 31.2721 38.7333 31.2721C39.0869 31.2721 39.426 31.1317 39.676 30.8818L41.1667 29.3911L41.3333 29.4591V31.5658C41.3333 31.9194 41.4738 32.2585 41.7239 32.5086C41.9739 32.7586 42.313 32.8991 42.6667 32.8991H48C48.3536 32.8991 48.6928 32.7586 48.9428 32.5086C49.1929 32.2585 49.3333 31.9194 49.3333 31.5658V29.4591L49.5 29.3911L50.9907 30.8818C51.2454 31.1227 51.5827 31.2569 51.9333 31.2569C52.2839 31.2569 52.6213 31.1227 52.876 30.8818L56.6493 27.1084C56.8993 26.8584 57.0397 26.5193 57.0397 26.1658C57.0397 25.8122 56.8993 25.4731 56.6493 25.2231L55.1587 23.7311L55.2267 23.5658H57.3333C57.687 23.5658 58.0261 23.4253 58.2761 23.1752C58.5262 22.9252 58.6667 22.586 58.6667 22.2324V16.8991C58.6667 16.5455 58.5262 16.2063 58.2761 15.9563C58.0261 15.7062 57.687 15.5658 57.3333 15.5658ZM56 20.8991H54.28C53.9928 20.8989 53.7131 20.9914 53.4827 21.163C53.2523 21.3345 53.0835 21.5758 53.0013 21.8511C52.8481 22.3768 52.6389 22.8846 52.3773 23.3658C52.239 23.6186 52.1863 23.9095 52.2271 24.1948C52.268 24.4802 52.4002 24.7446 52.604 24.9484L53.8213 26.1658L51.9333 28.0538L50.716 26.8364C50.5124 26.6327 50.2483 26.5004 49.9633 26.4593C49.6782 26.4182 49.3875 26.4705 49.1347 26.6084C48.654 26.8713 48.1461 27.081 47.62 27.2338C47.3445 27.3157 47.1029 27.4844 46.9311 27.7148C46.7593 27.9452 46.6665 28.225 46.6667 28.5124V30.2324H44V28.5124C44.0001 28.225 43.9074 27.9452 43.7356 27.7148C43.5638 27.4844 43.3222 27.3157 43.0467 27.2338C42.5205 27.081 42.0126 26.8713 41.532 26.6084C41.2792 26.4705 40.9885 26.4182 40.7034 26.4593C40.4184 26.5004 40.1543 26.6327 39.9507 26.8364L38.7333 28.0538L36.8453 26.1658L38.0627 24.9484C38.2664 24.7446 38.3987 24.4802 38.4395 24.1948C38.4804 23.9095 38.4277 23.6186 38.2893 23.3658C38.0278 22.8846 37.8186 22.3768 37.6653 21.8511C37.5832 21.5758 37.4143 21.3345 37.1839 21.163C36.9535 20.9914 36.6739 20.8989 36.3867 20.8991H34.6667V18.2324H36.3867C36.6739 18.2326 36.9535 18.1401 37.1839 17.9686C37.4143 17.797 37.5832 17.5557 37.6653 17.2804C37.8186 16.7547 38.0278 16.2469 38.2893 15.7658C38.4277 15.5129 38.4804 15.222 38.4395 14.9367C38.3987 14.6514 38.2664 14.3869 38.0627 14.1831L36.8453 12.9658L38.7333 11.0778L39.9507 12.2951C40.1543 12.4988 40.4184 12.6311 40.7034 12.6722C40.9885 12.7133 41.2792 12.661 41.532 12.5231C42.0126 12.2602 42.5205 12.0505 43.0467 11.8978C43.3222 11.8158 43.5638 11.6471 43.7356 11.4167C43.9074 11.1863 44.0001 10.9065 44 10.6191V8.89909H46.6667V10.6191C46.6665 10.9065 46.7593 11.1863 46.9311 11.4167C47.1029 11.6471 47.3445 11.8158 47.62 11.8978C48.1461 12.0505 48.654 12.2602 49.1347 12.5231C49.3875 12.661 49.6782 12.7133 49.9633 12.6722C50.2483 12.6311 50.5124 12.4988 50.716 12.2951L51.9333 11.0778L53.8213 12.9658L52.604 14.1831C52.4002 14.3869 52.268 14.6514 52.2271 14.9367C52.1863 15.222 52.239 15.5129 52.3773 15.7658C52.6389 16.2469 52.8481 16.7547 53.0013 17.2804C53.0835 17.5557 53.2523 17.797 53.4827 17.9686C53.7131 18.1401 53.9928 18.2326 54.28 18.2324H56V20.8991Z" fill="#190402"/>
<path id="Vector_14" d="M45.3333 22.2327C44.6261 22.2327 43.9478 21.9517 43.4477 21.4516C42.9476 20.9515 42.6667 20.2732 42.6667 19.566C42.6667 18.8588 42.9476 18.1805 43.4477 17.6804C43.9478 17.1803 44.6261 16.8993 45.3333 16.8993V14.2327C44.2785 14.2327 43.2474 14.5455 42.3703 15.1315C41.4932 15.7175 40.8096 16.5505 40.406 17.525C40.0023 18.4996 39.8967 19.5719 40.1025 20.6065C40.3083 21.641 40.8162 22.5914 41.5621 23.3372C42.308 24.0831 43.2583 24.5911 44.2929 24.7969C45.3274 25.0026 46.3998 24.897 47.3743 24.4934C48.3489 24.0897 49.1818 23.4061 49.7678 22.529C50.3539 21.652 50.6667 20.6208 50.6667 19.566H48C48 20.2732 47.7191 20.9515 47.219 21.4516C46.7189 21.9517 46.0406 22.2327 45.3333 22.2327Z" fill="#190402"/>
<path id="Vector_15" d="M5.33337 12.8992H8.00004V15.5658H5.33337V12.8992Z" fill="#190402"/>
<path id="Vector_16" d="M10.6666 12.8992H24V15.5658H10.6666V12.8992Z" fill="#190402"/>
<path id="Vector_17" d="M5.33337 18.2324H24V20.8991H5.33337V18.2324Z" fill="#190402"/>
<path id="Vector_18" d="M5.33337 23.5659H24V26.2326H5.33337V23.5659Z" fill="#190402"/>
</g>
</g>
</svg>
