<svg width="64" height="54" viewBox="0 0 64 54" fill="none" xmlns="http://www.w3.org/2000/svg">
<g id="&#240;&#159;&#166;&#134; icon &#34;secure payment&#34;">
<path id="Vector" d="M59.8261 1.85571H9.73915C8.20236 1.85571 6.95654 3.10153 6.95654 4.63832V38.0296C6.95654 39.5664 8.20236 40.8122 9.73915 40.8122H59.8261C61.3629 40.8122 62.6087 39.5664 62.6087 38.0296V4.63832C62.6087 3.10153 61.3629 1.85571 59.8261 1.85571Z" fill="#4AC6B7"/>
<path id="Vector_2" d="M59.8261 1.85571H55.6522C56.3902 1.85571 57.098 2.14888 57.6198 2.67072C58.1417 3.19256 58.4348 3.90033 58.4348 4.63832V38.0296C58.4348 38.7676 58.1417 39.4754 57.6198 39.9972C57.098 40.5191 56.3902 40.8122 55.6522 40.8122H59.8261C60.5641 40.8122 61.2719 40.5191 61.7937 39.9972C62.3156 39.4754 62.6087 38.7676 62.6087 38.0296V4.63832C62.6087 3.90033 62.3156 3.19256 61.7937 2.67072C61.2719 2.14888 60.5641 1.85571 59.8261 1.85571Z" fill="#37B7A4"/>
<path id="Vector_3" d="M6.95654 8.81226H62.6087V18.5514H6.95654V8.81226Z" fill="#29A892"/>
<path id="Vector_4" d="M58.4348 8.81226H62.6087V18.5514H58.4348V8.81226Z" fill="#1B967E"/>
<path id="Vector_5" d="M51.4782 33.8556C53.7834 33.8556 55.6521 31.9869 55.6521 29.6817C55.6521 27.3765 53.7834 25.5078 51.4782 25.5078C49.173 25.5078 47.3043 27.3765 47.3043 29.6817C47.3043 31.9869 49.173 33.8556 51.4782 33.8556Z" fill="#FFBC5A"/>
<path id="Vector_6" d="M44.5217 33.8556C46.8269 33.8556 48.6956 31.9869 48.6956 29.6817C48.6956 27.3765 46.8269 25.5078 44.5217 25.5078C42.2165 25.5078 40.3478 27.3765 40.3478 29.6817C40.3478 31.9869 42.2165 33.8556 44.5217 33.8556Z" fill="#E05555"/>
<path id="Vector_7" d="M12.5254 51.9425C10.0805 51.0467 1.39136 47.3165 1.39136 39.5409V28.2101L12.5218 24.1165L23.6522 28.2101V39.541C23.6522 47.3546 14.9747 51.0546 12.5254 51.9425Z" fill="#D3DBEF"/>
<path id="Vector_8" d="M12.5217 40.8122C12.339 40.8122 12.158 40.7763 11.9893 40.7063C11.8205 40.6364 11.6671 40.5338 11.538 40.4045L8.75542 37.6219C8.50199 37.3595 8.36175 37.0081 8.36492 36.6433C8.36809 36.2785 8.51441 35.9295 8.77237 35.6716C9.03033 35.4136 9.37929 35.2673 9.74408 35.2641C10.1089 35.2609 10.4603 35.4012 10.7227 35.6546L12.3709 37.3028L15.5826 33.0209C15.6922 32.8747 15.8295 32.7516 15.9867 32.6585C16.144 32.5654 16.318 32.5042 16.4988 32.4783C16.6797 32.4525 16.8639 32.4625 17.0409 32.5079C17.2179 32.5532 17.3842 32.633 17.5304 32.7426C17.6765 32.8522 17.7997 32.9896 17.8928 33.1468C17.9859 33.304 18.0471 33.478 18.0729 33.6589C18.0988 33.8398 18.0887 34.024 18.0434 34.201C17.998 34.3779 17.9183 34.5443 17.8086 34.6904L13.6347 40.2557C13.5153 40.4153 13.3629 40.5473 13.1879 40.6427C13.0128 40.7381 12.8193 40.7947 12.6205 40.8087C12.5876 40.8108 12.5542 40.8122 12.5217 40.8122Z" fill="#8491C1"/>
<g id="Group">
<path id="Vector_9" d="M59.8261 0.464355H9.73913C8.63251 0.465571 7.57157 0.905711 6.78907 1.68821C6.00657 2.47071 5.56643 3.53165 5.56522 4.63827V25.1928L0.911026 26.9041C0.643749 27.0025 0.413076 27.1804 0.250157 27.414C0.087239 27.6476 -7.70795e-05 27.9255 5.10559e-08 28.2103V39.5405C5.10559e-08 48.1666 9.22073 52.2145 12.0469 53.2497C12.2002 53.3052 12.362 53.3337 12.5251 53.3339C12.6868 53.334 12.8473 53.3057 12.9992 53.2504C15.5164 52.3365 23.0909 49.0381 24.7174 42.2035H59.8261C60.9327 42.2023 61.9937 41.7621 62.7761 40.9796C63.5586 40.1971 63.9988 39.1362 64 38.0296V4.63827C63.9988 3.53165 63.5586 2.47071 62.7761 1.68821C61.9937 0.905711 60.9327 0.465571 59.8261 0.464355ZM8.34783 10.2035H61.2174V17.16H8.34783V10.2035ZM12.5272 50.4549C9.71325 49.3476 2.78261 45.9617 2.78261 39.5404V29.1809L12.5217 25.5994L22.2609 29.1809V39.5409C22.2609 45.9942 15.339 49.357 12.5272 50.4549ZM61.2174 38.0296C61.217 38.3985 61.0703 38.7521 60.8095 39.013C60.5486 39.2738 60.195 39.4205 59.8261 39.4209H25.0435V28.2103C25.0435 27.9256 24.9561 27.6477 24.7932 27.4142C24.6303 27.1807 24.3997 27.0028 24.1325 26.9046L13.002 22.8108C12.6922 22.6968 12.3519 22.6968 12.042 22.8108L8.34783 24.1694V19.9426H61.2174V38.0296ZM8.34783 7.42088V4.63827C8.34819 4.26938 8.4949 3.91572 8.75574 3.65487C9.01658 3.39403 9.37025 3.24733 9.73913 3.24696H59.8261C60.195 3.24733 60.5486 3.39403 60.8095 3.65487C61.0703 3.91572 61.217 4.26938 61.2174 4.63827V7.42088H8.34783Z" fill="#231F20"/>
<path id="Vector_10" d="M44.5218 35.2469C45.785 35.2415 47.0081 34.8023 47.9861 34.0026C48.8026 34.6654 49.7902 35.0832 50.8345 35.2078C51.8787 35.3323 52.9369 35.1583 53.8864 34.7061C54.8358 34.2539 55.6377 33.542 56.1992 32.6527C56.7606 31.7635 57.0586 30.7333 57.0586 29.6817C57.0586 28.63 56.7606 27.5999 56.1992 26.7106C55.6377 25.8214 54.8358 25.1094 53.8864 24.6572C52.9369 24.205 51.8787 24.0311 50.8345 24.1556C49.7902 24.2801 48.8026 24.6979 47.9861 25.3607C47.0081 24.5611 45.785 24.1218 44.5218 24.1165C43.0458 24.1165 41.6302 24.7028 40.5866 25.7465C39.5429 26.7902 38.9565 28.2057 38.9565 29.6817C38.9565 31.1577 39.5429 32.5732 40.5866 33.6169C41.6302 34.6606 43.0458 35.2469 44.5218 35.2469ZM54.2609 29.6817C54.26 30.4194 53.9666 31.1267 53.4449 31.6483C52.9233 32.17 52.216 32.4634 51.4783 32.4643C50.8124 32.4667 50.1685 32.2264 49.6669 31.7884C49.9442 31.1207 50.087 30.4048 50.087 29.6817C50.087 28.9587 49.9442 28.2428 49.6669 27.5751C50.1684 27.137 50.8124 26.8967 51.4783 26.8991C52.216 26.8999 52.9233 27.1934 53.4449 27.715C53.9666 28.2367 54.26 28.9439 54.2609 29.6817ZM44.5218 26.8991C45.0721 26.8991 45.6101 27.0623 46.0677 27.368C46.5253 27.6738 46.8819 28.1084 47.0926 28.6168C47.3032 29.1253 47.3583 29.6848 47.2509 30.2245C47.1435 30.7643 46.8785 31.2601 46.4894 31.6493C46.1002 32.0384 45.6044 32.3035 45.0646 32.4108C44.5248 32.5182 43.9654 32.4631 43.4569 32.2525C42.9484 32.0419 42.5139 31.6852 42.2081 31.2276C41.9023 30.77 41.7392 30.232 41.7392 29.6817C41.74 28.9439 42.0334 28.2367 42.5551 27.715C43.0768 27.1934 43.784 26.8999 44.5218 26.8991Z" fill="#231F20"/>
<path id="Vector_11" d="M15.5826 33.0209L12.3709 37.3026L10.7227 35.6546C10.4603 35.4012 10.1089 35.2609 9.74408 35.2641C9.37929 35.2673 9.03033 35.4136 8.77237 35.6716C8.51441 35.9295 8.36809 36.2785 8.36492 36.6433C8.36175 37.0081 8.50199 37.3595 8.75542 37.6219L11.538 40.4045C11.6671 40.5338 11.8205 40.6364 11.9893 40.7063C12.158 40.7763 12.339 40.8122 12.5217 40.8122C12.5542 40.8122 12.5876 40.8108 12.6202 40.8081C12.819 40.7943 13.0126 40.7378 13.1877 40.6424C13.3627 40.5471 13.5152 40.4152 13.6347 40.2557L17.8086 34.6904C17.9183 34.5443 17.998 34.3779 18.0434 34.201C18.0887 34.024 18.0988 33.8398 18.0729 33.6589C18.0471 33.478 17.9859 33.304 17.8928 33.1468C17.7997 32.9896 17.6765 32.8522 17.5304 32.7426C17.3842 32.633 17.2179 32.5532 17.0409 32.5079C16.8639 32.4625 16.6797 32.4525 16.4988 32.4783C16.318 32.5042 16.144 32.5654 15.9867 32.6585C15.8295 32.7516 15.6922 32.8747 15.5826 33.0209Z" fill="#231F20"/>
</g>
</g>
</svg>
