<svg width="85" height="73" viewBox="0 0 85 73" fill="none" xmlns="http://www.w3.org/2000/svg">
<path d="M83.9851 7.28584C83.9851 7.28584 83.2076 5.85148 81.9743 3.87085C81.9743 3.87085 78.0131 6.83006 78.0433 6.66585C78.0734 6.50163 83.9851 7.28584 83.9851 7.28584Z" fill="#231F20"/>
<path d="M83.9852 7.45346H83.9617C81.8772 7.1753 78.4756 6.76309 78.1036 6.81336C78.0065 6.85357 77.9763 6.83347 77.9428 6.81336C77.9138 6.79384 77.8912 6.76637 77.8775 6.73426C77.8638 6.70215 77.8597 6.66677 77.8657 6.63239C77.8657 6.58547 77.8858 6.53855 77.9964 6.51174C78.2243 6.42125 80.4898 4.76235 81.8605 3.73685C81.8789 3.72291 81.9001 3.71302 81.9226 3.70782C81.9451 3.70262 81.9685 3.70224 81.9912 3.70669C82.0138 3.71039 82.0354 3.71888 82.0544 3.7316C82.0735 3.74431 82.0896 3.76096 82.1018 3.78042C83.3384 5.74429 84.1125 7.19206 84.1327 7.20546C84.1466 7.23101 84.1537 7.25977 84.1532 7.28889C84.1527 7.31801 84.1446 7.3465 84.1297 7.37153C84.1148 7.39657 84.0936 7.41729 84.0683 7.43166C84.043 7.44602 84.0143 7.45354 83.9852 7.45346ZM78.6231 6.50169C79.3537 6.5419 80.7981 6.69941 83.6668 7.07811C83.3887 6.57877 82.762 5.48289 81.904 4.11555C80.1144 5.45608 79.1593 6.1498 78.6331 6.50169H78.6231Z" fill="#231F20"/>
<path d="M31.4969 67.0566L29.5197 63.7589L32.2577 61.2856L31.4969 67.0566Z" fill="#231F20"/>
<path d="M31.4968 67.2241C31.468 67.2236 31.4398 67.216 31.4146 67.202C31.3895 67.188 31.3682 67.1679 31.3527 67.1436L29.3754 63.8459C29.3555 63.8124 29.348 63.7729 29.3541 63.7343C29.3602 63.6958 29.3796 63.6606 29.4089 63.6348L32.1436 61.1615C32.1692 61.1385 32.2012 61.1239 32.2354 61.1197C32.2696 61.1155 32.3042 61.1219 32.3346 61.1381C32.3646 61.1546 32.3889 61.1797 32.4044 61.2102C32.42 61.2406 32.426 61.2751 32.4218 61.309L31.6644 67.0699C31.6601 67.105 31.6448 67.1378 31.6207 67.1637C31.5966 67.1896 31.565 67.2072 31.5303 67.214L31.4968 67.2241ZM29.734 63.7923L31.4097 66.5572L32.0464 61.7145L29.734 63.7923Z" fill="#231F20"/>
<path d="M32.7804 67.7402L64.6179 72.2745C65.2709 72.361 65.9333 72.2117 66.4861 71.8536C67.039 71.4955 67.446 70.952 67.6341 70.3207L84.1091 8.69005C84.4443 7.4132 83.6299 6.29051 82.2793 6.17991L49.8151 3.56254C49.1734 3.53101 48.5397 3.71609 48.0157 4.08805C47.4918 4.46002 47.1081 4.99728 46.9263 5.61354L31.1182 65.2066C31.0361 65.4832 31.0154 65.7743 31.0574 66.0597C31.0994 66.3451 31.2032 66.6179 31.3614 66.8591C31.5197 67.1003 31.7286 67.3041 31.9737 67.4562C32.2187 67.6084 32.4941 67.7053 32.7804 67.7402Z" fill="#231F20"/>
<path d="M64.9698 72.479C64.8409 72.4783 64.7122 72.4693 64.5844 72.4522L32.7469 67.9145C32.439 67.8766 32.1429 67.7729 31.8786 67.6104C31.6143 67.4479 31.3881 67.2304 31.2154 66.9728C31.0436 66.708 30.9305 66.4095 30.8837 66.0973C30.8369 65.7852 30.8574 65.4666 30.9439 65.1631L46.7521 5.58005C46.9454 4.92548 47.3525 4.35458 47.9083 3.95851C48.4642 3.56244 49.1367 3.36404 49.8185 3.39499L82.2827 6.01237C82.6118 6.03197 82.9325 6.12381 83.2221 6.28136C83.5117 6.4389 83.7631 6.65828 83.9584 6.92392C84.138 7.18515 84.257 7.48316 84.3069 7.79622C84.3567 8.10929 84.3361 8.42954 84.2466 8.73363L67.7715 70.3643C67.5923 70.9702 67.2234 71.5026 66.719 71.8832C66.2147 72.2638 65.6016 72.4727 64.9698 72.479ZM32.7972 67.5827L64.6347 72.1204C65.2485 72.2023 65.8715 72.0627 66.3917 71.7267C66.9119 71.3908 67.2954 70.8804 67.4732 70.2872L83.9349 8.6599C84.0126 8.40311 84.0315 8.13214 83.9903 7.86703C83.9491 7.60193 83.8489 7.34948 83.697 7.12835C83.5292 6.90076 83.3128 6.71346 83.0635 6.58012C82.8142 6.44677 82.5383 6.37073 82.2559 6.35755L49.7917 3.73012C49.1883 3.69842 48.5918 3.87149 48.0991 4.22127C47.6064 4.57105 47.2463 5.07702 47.0772 5.65713L31.2791 65.2502C31.2042 65.5077 31.1855 65.7783 31.2242 66.0437C31.263 66.3091 31.3582 66.5631 31.5036 66.7884C31.6512 67.0059 31.8436 67.1892 32.0678 67.3262C32.2921 67.4632 32.5431 67.5507 32.8039 67.5827H32.7972Z" fill="#231F20"/>
<path d="M30.7093 64.3487L62.5468 68.8831C63.1996 68.9681 63.8613 68.8183 64.4139 68.4604C64.9664 68.1025 65.3737 67.5598 65.5629 66.9293L82.0347 5.2986C82.3698 4.02175 81.5554 2.89906 80.2048 2.78847L47.734 0.17109C47.0919 0.139986 46.4579 0.325178 45.9336 0.697025C45.4092 1.06887 45.0248 1.60588 44.8418 2.22209L29.0437 61.8051C28.9599 62.0825 28.9379 62.375 28.9793 62.6618C29.0207 62.9487 29.1244 63.223 29.2832 63.4654C29.4419 63.7079 29.6519 63.9126 29.8983 64.0652C30.1447 64.2178 30.4215 64.3146 30.7093 64.3487Z" fill="white"/>
<path d="M62.8987 69.0807C62.7698 69.0802 62.641 69.0712 62.5133 69.0539L30.6758 64.5163C30.3679 64.4784 30.0718 64.3747 29.8075 64.2122C29.5432 64.0497 29.317 63.8322 29.1443 63.5745C28.9723 63.3098 28.8591 63.0113 28.8123 62.6991C28.7654 62.3869 28.7861 62.0684 28.8728 61.7648L44.6843 2.18183C44.8778 1.52789 45.2852 0.957807 45.8412 0.562856C46.3971 0.167906 47.0696 -0.0290684 47.7508 0.00347135L80.2082 2.62085C80.5402 2.63826 80.8641 2.72905 81.1568 2.88667C81.4494 3.04429 81.7034 3.26483 81.9006 3.5324C82.0794 3.79404 82.1979 4.09202 82.2477 4.40493C82.2976 4.71784 82.2775 5.0379 82.1889 5.34211L65.7138 66.9728C65.5327 67.5796 65.1612 68.1121 64.6543 68.4916C64.1474 68.8712 63.5319 69.0777 62.8987 69.0807ZM47.5396 0.3319C46.9694 0.347691 46.4188 0.543149 45.9662 0.890391C45.5136 1.23763 45.1823 1.71892 45.0194 2.26561L29.2079 61.8486C29.1331 62.1061 29.1144 62.3768 29.1531 62.6421C29.1919 62.9075 29.2871 63.1615 29.4325 63.3869C29.5801 63.6043 29.7724 63.7877 29.9967 63.9246C30.221 64.0616 30.4719 64.1491 30.7328 64.1811L62.5703 68.7188C63.1825 68.7981 63.8031 68.6574 64.3211 68.3216C64.8392 67.9858 65.2211 67.4769 65.3988 66.8856L81.8638 5.25833C81.9407 5.00145 81.9593 4.73061 81.9181 4.46563C81.877 4.20064 81.7771 3.94821 81.6258 3.72678C81.4578 3.49876 81.2408 3.3112 80.9909 3.17784C80.741 3.04447 80.4644 2.96867 80.1814 2.95598L47.7206 0.338603L47.5396 0.3319Z" fill="#231F20"/>
<path d="M78.881 9.35363L45.646 6.47485L32.8943 54.5528L65.6433 58.9062L78.881 9.35363Z" fill="#68E1FD"/>
<path d="M64.3028 52.2807C64.271 52.2808 64.2397 52.2717 64.213 52.2545C64.1862 52.2372 64.165 52.2126 64.152 52.1835L57.4494 38.0108C57.4398 37.9908 57.4342 37.9691 57.4331 37.9469C57.4319 37.9247 57.4352 37.9026 57.4427 37.8817C57.4502 37.8608 57.4617 37.8416 57.4767 37.8252C57.4916 37.8088 57.5097 37.7956 57.5298 37.7862C57.5699 37.7679 57.6155 37.766 57.6569 37.7811C57.6983 37.7961 57.7321 37.8269 57.751 37.8667L64.4536 52.0427C64.4632 52.0625 64.4687 52.0839 64.4698 52.1059C64.4709 52.1278 64.4676 52.1497 64.4601 52.1703C64.4526 52.1909 64.4411 52.2098 64.4261 52.2259C64.4112 52.242 64.3932 52.2549 64.3732 52.2639C64.3511 52.2742 64.3272 52.2799 64.3028 52.2807Z" fill="white"/>
<path d="M43.8633 63.9901L50.0767 64.8648C50.4713 64.9134 50.8703 64.82 51.2025 64.6015C51.5346 64.3829 51.7782 64.0534 51.8897 63.6717L52.5064 61.356C52.558 61.1801 52.5703 60.9951 52.5422 60.8139C52.5142 60.6328 52.4466 60.4601 52.3442 60.3081C52.2418 60.1561 52.1071 60.0285 51.9498 59.9345C51.7925 59.8405 51.6163 59.7823 51.434 59.7641L45.2139 58.9196C44.823 58.8769 44.4296 58.973 44.1024 59.1911C43.7753 59.4092 43.5352 59.7354 43.4243 60.1127L42.811 62.4083C42.7594 62.5821 42.7466 62.765 42.7735 62.9443C42.8004 63.1236 42.8664 63.2947 42.9668 63.4456C43.0672 63.5965 43.1995 63.7235 43.3545 63.8176C43.5094 63.9117 43.6831 63.9706 43.8633 63.9901Z" fill="white"/>
<path d="M50.2843 65.0591C50.2069 65.0602 50.1295 65.0546 50.053 65.0423L43.8397 64.171C43.6361 64.1475 43.4401 64.0798 43.2654 63.9727C43.0907 63.8656 42.9415 63.7217 42.8282 63.5509C42.7149 63.3802 42.6403 63.1868 42.6095 62.9842C42.5787 62.7816 42.5925 62.5747 42.65 62.378L43.2599 60.0824C43.3819 59.6655 43.6472 59.3052 44.0089 59.0648C44.3707 58.8245 44.8057 58.7196 45.2372 58.7686L51.4572 59.6098C51.6641 59.6343 51.8634 59.7029 52.0414 59.811C52.2195 59.9191 52.3723 60.0642 52.4894 60.2365C52.6013 60.4086 52.675 60.6025 52.7056 60.8054C52.7363 61.0083 52.7231 61.2154 52.6671 61.4128L52.0571 63.7185C51.9458 64.1033 51.713 64.4418 51.3934 64.6834C51.0739 64.925 50.6848 65.0568 50.2843 65.0591ZM43.8866 63.8392L50.0999 64.7105C50.4536 64.7536 50.811 64.6697 51.1086 64.474C51.4063 64.2782 51.6248 63.9832 51.7253 63.6415L52.3453 61.3257C52.3882 61.174 52.3984 61.0149 52.3753 60.8589C52.3522 60.7029 52.2963 60.5536 52.2113 60.4208C52.1198 60.289 52.0015 60.1782 51.8639 60.0955C51.7264 60.0129 51.573 59.9605 51.4137 59.9416L45.1903 59.1004C44.84 59.0602 44.4867 59.1451 44.193 59.3401C43.8992 59.5351 43.6839 59.8277 43.585 60.1661L42.9751 62.4651C42.9292 62.6159 42.9173 62.7749 42.9402 62.9308C42.963 63.0867 43.02 63.2356 43.1071 63.3669C43.1942 63.4982 43.3092 63.6086 43.444 63.6903C43.5788 63.7719 43.7299 63.8228 43.8866 63.8392Z" fill="#E6E7E8"/>
<path d="M69.0484 5.22138L59.5542 4.42712C59.5322 4.42514 59.5108 4.41884 59.4912 4.40859C59.4716 4.39834 59.4543 4.38433 59.4401 4.36737C59.4259 4.35041 59.4153 4.33083 59.4087 4.30974C59.4021 4.28865 59.3997 4.26648 59.4017 4.24447C59.4037 4.22247 59.41 4.20107 59.4202 4.18149C59.4305 4.16192 59.4445 4.14456 59.4614 4.1304C59.4784 4.11624 59.498 4.10556 59.5191 4.09897C59.5401 4.09238 59.5623 4.09001 59.5843 4.09199L69.0752 4.8829C69.1197 4.8829 69.1623 4.90055 69.1937 4.93197C69.2252 4.9634 69.2428 5.00602 69.2428 5.05046C69.2428 5.0949 69.2252 5.13752 69.1937 5.16895C69.1623 5.20037 69.1197 5.21803 69.0752 5.21803L69.0484 5.22138Z" fill="#D1D3D4"/>
<path d="M58.2369 4.31656L56.9768 4.21267C56.9549 4.211 56.9335 4.20495 56.914 4.19489C56.8945 4.18482 56.8772 4.17094 56.8631 4.15406C56.8491 4.13719 56.8385 4.11767 56.8322 4.09665C56.8258 4.07563 56.8237 4.05355 56.826 4.0317C56.8302 3.98755 56.8515 3.94677 56.8853 3.91801C56.919 3.88924 56.9627 3.87473 57.007 3.87754L58.2637 3.98478C58.3081 3.98478 58.3508 4.00244 58.3822 4.03386C58.4136 4.06529 58.4313 4.10791 58.4313 4.15235C58.4313 4.19679 58.4136 4.23941 58.3822 4.27084C58.3508 4.30226 58.3081 4.31992 58.2637 4.31992L58.2369 4.31656Z" fill="#D1D3D4"/>
<path d="M67.5604 35.8825C67.5604 35.8825 71.6423 22.4236 68.1033 19.441L50.7837 17.3564C50.7837 17.3564 47.8145 20.4497 47.3855 22.8258C46.9565 25.2019 43.3639 30.2624 44.7044 33.2819L67.5604 35.8825Z" fill="#231F20"/>
<path d="M67.5602 36.0501H67.5435L44.6842 33.4462C44.6554 33.4426 44.628 33.4319 44.6046 33.4149C44.5811 33.3979 44.5624 33.3752 44.5501 33.349C43.6218 31.251 44.9791 28.2248 46.0716 25.7918C46.6112 24.592 47.077 23.5531 47.2111 22.7957C47.6434 20.3961 50.5289 17.3666 50.6529 17.2392C50.6708 17.2205 50.6929 17.2062 50.7173 17.1975C50.7417 17.1888 50.7679 17.1858 50.7936 17.1889L68.1132 19.2768C68.145 19.2811 68.1751 19.2939 68.2003 19.3137C71.7829 22.3298 67.8652 35.3799 67.711 35.9328C67.7009 35.9654 67.6809 35.9941 67.654 36.0151C67.627 36.036 67.5943 36.0483 67.5602 36.0501ZM44.8316 33.1244L67.4396 35.7016C67.8484 34.3007 71.1964 22.3835 68.0328 19.6153L50.8472 17.5442C50.4384 17.9865 47.9316 20.748 47.5495 22.8694C47.4054 23.667 46.9329 24.7227 46.3866 25.9426C45.3544 28.265 44.0374 31.1639 44.8316 33.1244Z" fill="#231F20"/>
<path d="M40.2505 32.0488L69.1958 36.1106L40.2505 32.0488Z" fill="white"/>
<path d="M69.1958 36.278H69.1723L40.227 32.2162C40.1837 32.2096 40.1447 32.1862 40.1184 32.1511C40.092 32.116 40.0805 32.072 40.0863 32.0286C40.0921 31.9846 40.1152 31.9447 40.1503 31.9177C40.1855 31.8907 40.23 31.8787 40.274 31.8845L69.2193 35.9462C69.2635 35.9529 69.3034 35.9766 69.3303 36.0123C69.3573 36.048 69.3691 36.0929 69.3634 36.1373C69.3563 36.1766 69.3357 36.2123 69.3051 36.238C69.2745 36.2637 69.2358 36.2779 69.1958 36.278Z" fill="#231F20"/>
<path d="M68.1032 19.4412C68.1032 19.4412 66.3471 19.6825 65.2714 23.3354C63.6259 28.9254 61.4576 40.722 60.0869 45.1591C58.0761 51.6138 52.714 52.532 52.714 52.532L30.0424 49.2444C30.0424 49.2444 39.2685 46.0472 40.8269 40.6114C42.4657 34.884 44.7345 24.0626 45.3478 21.6463C46.4303 17.3667 50.7937 17.3667 50.7937 17.3667L68.1032 19.4412Z" fill="white"/>
<path d="M52.704 52.6894H52.6806L30.0089 49.4018C29.9716 49.3961 29.9373 49.3782 29.9112 49.3509C29.8851 49.3236 29.8688 49.2885 29.8648 49.251C29.8612 49.2138 29.8701 49.1764 29.8901 49.1448C29.9101 49.1132 29.9402 49.0893 29.9754 49.0767C30.0692 49.0466 39.1413 45.8427 40.656 40.5543C41.7921 36.583 43.25 30.0882 44.2118 25.7884C44.6441 23.8614 44.9859 22.3366 45.1736 21.5959C46.2762 17.2392 50.7402 17.189 50.7837 17.189L68.1234 19.2768C68.1637 19.2817 68.2009 19.301 68.228 19.3312C68.2551 19.3614 68.2704 19.4005 68.2709 19.441C68.2706 19.4815 68.2559 19.5206 68.2295 19.5513C68.2032 19.5819 68.1667 19.6023 68.1268 19.6086C68.1 19.6086 66.4511 19.9136 65.4457 23.3822C64.6112 26.2107 63.6494 30.621 62.7144 34.8873C61.8028 39.0663 60.9382 43.0142 60.2612 45.2093C59.2156 48.5908 57.2451 50.444 55.7504 51.4025C54.8343 52.0163 53.8112 52.4528 52.7342 52.6894H52.704ZM30.6959 49.1639L52.7007 52.3543C53.0928 52.2739 58.0628 51.1646 59.9261 45.1088C60.5964 42.9271 61.4644 38.9859 62.3759 34.8169C63.3076 30.5439 64.2761 26.1269 65.1106 23.2884C65.8177 20.8922 66.8164 19.937 67.4565 19.5315L50.7636 17.5207C50.6094 17.5207 46.5376 17.5777 45.4987 21.6797C45.3144 22.4137 44.9725 23.9352 44.5402 25.8622C43.575 30.1653 42.1172 36.6668 40.9778 40.6482C40.1567 43.5068 37.2344 45.7355 34.9253 47.0994C33.5693 47.8926 32.1555 48.5827 30.6959 49.1639Z" fill="#231F20"/>
<path d="M57.2048 45.551H57.1847L54.1183 45.2159C54.0743 45.2109 54.0342 45.1887 54.0066 45.1541C53.9789 45.1196 53.9661 45.0756 53.9708 45.0316C53.9729 45.0097 53.9793 44.9884 53.9898 44.969C54.0003 44.9496 54.0145 44.9326 54.0317 44.9188C54.0489 44.905 54.0687 44.8949 54.0899 44.8889C54.1111 44.883 54.1333 44.8813 54.1551 44.8841L57.2249 45.2193C57.2689 45.2243 57.309 45.2465 57.3366 45.2811C57.3642 45.3156 57.3771 45.3596 57.3724 45.4036C57.3668 45.4442 57.3468 45.4814 57.316 45.5085C57.2852 45.5355 57.2458 45.5506 57.2048 45.551Z" fill="#D1D3D4"/>
<path d="M51.6449 44.921H51.6248L42.4455 43.8788C42.4016 43.8737 42.3615 43.8515 42.3338 43.817C42.3062 43.7824 42.2934 43.7384 42.2981 43.6944C42.3001 43.6725 42.3066 43.6512 42.3171 43.6319C42.3275 43.6125 42.3418 43.5954 42.359 43.5816C42.3762 43.5679 42.396 43.5577 42.4172 43.5518C42.4384 43.5458 42.4605 43.5442 42.4824 43.547L51.665 44.5859C51.7094 44.5886 51.751 44.6088 51.7805 44.6421C51.8101 44.6754 51.8252 44.7191 51.8225 44.7635C51.8198 44.808 51.7996 44.8495 51.7663 44.879C51.733 44.9086 51.6893 44.9237 51.6449 44.921Z" fill="#D1D3D4"/>
<path d="M54.4634 49.0533H54.4433L51.6249 48.7182C51.6029 48.7155 51.5816 48.7086 51.5623 48.6977C51.5429 48.6869 51.526 48.6723 51.5123 48.6549C51.4986 48.6374 51.4884 48.6175 51.4825 48.5962C51.4765 48.5748 51.4748 48.5525 51.4774 48.5305C51.48 48.5085 51.487 48.4872 51.4978 48.4679C51.5087 48.4486 51.5233 48.4316 51.5407 48.4179C51.5581 48.4042 51.5781 48.3941 51.5994 48.3881C51.6208 48.3821 51.6431 48.3804 51.6651 48.383L54.4835 48.7182C54.5055 48.7195 54.5271 48.7251 54.5469 48.7348C54.5667 48.7444 54.5844 48.7579 54.5991 48.7744C54.6137 48.7908 54.6249 48.8101 54.6321 48.8309C54.6393 48.8517 54.6424 48.8738 54.641 48.8958C54.6397 48.9178 54.6341 48.9393 54.6244 48.9591C54.6148 48.979 54.6013 48.9967 54.5849 49.0113C54.5684 49.026 54.5491 49.0372 54.5283 49.0444C54.5075 49.0516 54.4854 49.0546 54.4634 49.0533Z" fill="#D1D3D4"/>
<path d="M48.5014 48.3764H48.4813L39.7042 47.3711C39.6598 47.3662 39.6191 47.3438 39.5911 47.3089C39.5632 47.2741 39.5502 47.2295 39.5551 47.1851C39.56 47.1406 39.5823 47.0999 39.6172 47.072C39.6521 47.044 39.6966 47.031 39.7411 47.0359L48.5215 48.0413C48.5655 48.0464 48.6056 48.0686 48.6332 48.1031C48.6608 48.1376 48.6737 48.1817 48.669 48.2256C48.6641 48.2668 48.6444 48.3048 48.6136 48.3326C48.5828 48.3603 48.5429 48.3759 48.5014 48.3764Z" fill="#D1D3D4"/>
<path d="M52.7041 52.5219C51.3778 51.2966 50.3579 49.777 49.7263 48.0855C49.0948 46.3939 48.8692 44.5777 49.0679 42.783L25.2736 38.49C25.2736 38.49 27.3145 46.4561 30.0291 49.2343L52.7041 52.5219Z" fill="white"/>
<path d="M52.7039 52.6894H52.6805L30.0089 49.4018C29.972 49.3955 29.9381 49.3779 29.9117 49.3515C27.1971 46.5733 25.1964 38.8586 25.1126 38.5301C25.1056 38.5031 25.1057 38.4748 25.1127 38.4478C25.1198 38.4209 25.1336 38.3961 25.1528 38.376C25.1718 38.3546 25.1959 38.3385 25.2229 38.3291C25.2499 38.3197 25.2788 38.3174 25.307 38.3224L49.1013 42.6154C49.1424 42.6242 49.1788 42.6479 49.2035 42.6819C49.2283 42.7159 49.2396 42.7579 49.2353 42.7997C49.0474 44.567 49.273 46.3538 49.8941 48.0189C50.5153 49.6841 51.5151 51.1821 52.8145 52.3945C52.8425 52.4157 52.863 52.4453 52.8729 52.479C52.8828 52.5126 52.8817 52.5486 52.8697 52.5815C52.8577 52.6145 52.8355 52.6428 52.8063 52.6622C52.777 52.6816 52.7423 52.6912 52.7073 52.6894H52.7039ZM30.1127 49.0767L52.2046 52.2806C51.006 51.0541 50.0883 49.5818 49.5148 47.9656C48.9414 46.3495 48.7259 44.628 48.8834 42.9204L25.5047 38.7011C25.88 40.0717 27.7501 46.6068 30.1127 49.0767Z" fill="#231F20"/>
<path d="M62.1278 24.6658H62.1111L47.3653 22.9901C47.3431 22.9881 47.3215 22.9815 47.3018 22.9709C47.2822 22.9602 47.265 22.9456 47.2512 22.9281C47.2374 22.9105 47.2273 22.8903 47.2216 22.8687C47.2158 22.8471 47.2146 22.8246 47.2178 22.8025C47.2229 22.7585 47.2451 22.7184 47.2796 22.6908C47.3142 22.6632 47.3582 22.6503 47.4022 22.655L62.1479 24.3307C62.1924 24.3329 62.2341 24.3527 62.264 24.3857C62.2938 24.4187 62.3094 24.4622 62.3071 24.5066C62.3049 24.551 62.2851 24.5928 62.2521 24.6226C62.2191 24.6525 62.1756 24.668 62.1312 24.6658H62.1278Z" fill="#D1D3D4"/>
<path d="M61.5112 28.4595H61.4911L58.7229 28.1444C58.7009 28.1418 58.6796 28.1348 58.6603 28.124C58.641 28.1131 58.624 28.0986 58.6103 28.0811C58.5966 28.0637 58.5865 28.0438 58.5805 28.0224C58.5745 28.0011 58.5728 27.9788 58.5754 27.9568C58.5781 27.9348 58.585 27.9135 58.5959 27.8942C58.6067 27.8749 58.6213 27.8579 58.6387 27.8442C58.6561 27.8305 58.6761 27.8203 58.6974 27.8144C58.7188 27.8084 58.7411 27.8067 58.7631 27.8093L61.5279 28.121C61.5499 28.1221 61.5715 28.1275 61.5914 28.1369C61.6113 28.1464 61.6292 28.1596 61.644 28.176C61.6587 28.1923 61.6702 28.2114 61.6776 28.2322C61.685 28.2529 61.6882 28.2749 61.6871 28.2969C61.686 28.3189 61.6806 28.3405 61.6712 28.3604C61.6617 28.3803 61.6484 28.3982 61.6321 28.413C61.6158 28.4277 61.5967 28.4392 61.5759 28.4466C61.5552 28.454 61.5332 28.4572 61.5112 28.4561V28.4595Z" fill="#D1D3D4"/>
<path d="M55.6431 27.7925L46.7688 26.7871C46.7244 26.7822 46.6837 26.7598 46.6557 26.725C46.6277 26.6901 46.6148 26.6455 46.6197 26.6011C46.6246 26.5566 46.6469 26.516 46.6818 26.488C46.7167 26.46 46.7612 26.4471 46.8057 26.4519L55.6799 27.4573C55.7019 27.4587 55.7235 27.4643 55.7433 27.4739C55.7631 27.4836 55.7809 27.497 55.7955 27.5135C55.8101 27.53 55.8213 27.5492 55.8285 27.5701C55.8357 27.5909 55.8388 27.6129 55.8375 27.635C55.8361 27.657 55.8305 27.6785 55.8208 27.6983C55.8112 27.7181 55.7978 27.7359 55.7813 27.7505C55.7648 27.7651 55.7456 27.7764 55.7247 27.7836C55.7039 27.7908 55.6818 27.7938 55.6598 27.7925H55.6431Z" fill="#D1D3D4"/>
<path d="M60.5997 31.995H60.5796L56.0184 31.4789C55.9742 31.4731 55.9341 31.4502 55.9065 31.4151C55.879 31.38 55.8662 31.3356 55.871 31.2913C55.8768 31.2471 55.8997 31.2069 55.9348 31.1793C55.9699 31.1518 56.0143 31.139 56.0586 31.1438L60.6164 31.6633C60.6384 31.6653 60.6596 31.6718 60.679 31.6822C60.6984 31.6927 60.7155 31.707 60.7292 31.7242C60.743 31.7414 60.7531 31.7611 60.7591 31.7823C60.7651 31.8035 60.7667 31.8257 60.7639 31.8476C60.759 31.8879 60.7397 31.925 60.7095 31.9522C60.6793 31.9793 60.6403 31.9945 60.5997 31.995Z" fill="#D1D3D4"/>
<path d="M51.645 30.9795H51.6249L45.8406 30.3093C45.8186 30.3069 45.7973 30.3001 45.7779 30.2895C45.7584 30.2788 45.7413 30.2644 45.7275 30.2472C45.7136 30.2299 45.7033 30.2101 45.6971 30.1888C45.691 30.1676 45.689 30.1453 45.6914 30.1233C45.6939 30.1013 45.7006 30.08 45.7112 30.0606C45.7219 30.0412 45.7363 30.0241 45.7536 30.0102C45.7708 29.9964 45.7907 29.986 45.8119 29.9799C45.8332 29.9737 45.8554 29.9717 45.8774 29.9742L51.6652 30.6277C51.7094 30.6335 51.7495 30.6564 51.7771 30.6915C51.8046 30.7266 51.8174 30.771 51.8126 30.8153C51.8109 30.8589 51.7926 30.9002 51.7615 30.9307C51.7303 30.9613 51.6887 30.9787 51.645 30.9795Z" fill="#D1D3D4"/>
<path d="M59.8221 35.3431H59.802L55.9983 34.8973C55.9541 34.8915 55.9139 34.8686 55.8864 34.8335C55.8588 34.7984 55.8461 34.754 55.8508 34.7097C55.8575 34.6658 55.8806 34.6262 55.9155 34.5988C55.9503 34.5714 55.9943 34.5583 56.0385 34.5622L59.8389 34.9945C59.8833 34.9967 59.9251 35.0165 59.9549 35.0495C59.9848 35.0825 60.0003 35.126 59.9981 35.1705C59.9959 35.2149 59.9761 35.2566 59.9431 35.2865C59.9101 35.3164 59.8666 35.3319 59.8221 35.3297V35.3431Z" fill="#D1D3D4"/>
<path d="M51.96 34.4515H51.9399L45.0597 33.6706C45.0157 33.6656 44.9756 33.6434 44.948 33.6089C44.9204 33.5743 44.9075 33.5303 44.9122 33.4863C44.9181 33.4421 44.941 33.402 44.976 33.3744C45.0111 33.3469 45.0556 33.3341 45.0999 33.3389L51.9768 34.1197C52.0212 34.1197 52.0638 34.1374 52.0953 34.1688C52.1267 34.2002 52.1443 34.2428 52.1443 34.2873C52.1443 34.3317 52.1267 34.3743 52.0953 34.4058C52.0638 34.4372 52.0212 34.4549 51.9768 34.4549L51.96 34.4515Z" fill="#D1D3D4"/>
<path d="M59.0145 39.0496L55.6397 38.6676C55.5958 38.6625 55.5557 38.6403 55.5281 38.6058C55.5004 38.5713 55.4876 38.5272 55.4923 38.4833C55.4944 38.4613 55.5008 38.44 55.5113 38.4207C55.5217 38.4013 55.536 38.3842 55.5532 38.3705C55.5704 38.3567 55.5902 38.3465 55.6114 38.3406C55.6326 38.3346 55.6548 38.333 55.6766 38.3358L59.0514 38.7178C59.0958 38.7205 59.1374 38.7407 59.1669 38.774C59.1965 38.8073 59.2116 38.851 59.2089 38.8955C59.2062 38.9399 59.186 38.9815 59.1527 39.011C59.1194 39.0406 59.0757 39.0556 59.0313 39.053L59.0145 39.0496Z" fill="#D1D3D4"/>
<path d="M53.535 38.4296H53.5149L44.2552 37.3773C44.2113 37.3722 44.1712 37.35 44.1435 37.3155C44.1159 37.281 44.1031 37.2369 44.1078 37.193C44.1098 37.1711 44.1163 37.1498 44.1268 37.1304C44.1372 37.111 44.1515 37.0939 44.1687 37.0802C44.1859 37.0664 44.2057 37.0563 44.2269 37.0503C44.2481 37.0443 44.2702 37.0427 44.2921 37.0455L53.5518 38.0945C53.5962 38.0967 53.6379 38.1165 53.6678 38.1495C53.6977 38.1825 53.7132 38.226 53.711 38.2704C53.7087 38.3149 53.6889 38.3566 53.656 38.3865C53.623 38.4163 53.5795 38.4318 53.535 38.4296Z" fill="#D1D3D4"/>
<path d="M58.1634 42.0491H58.1433L54.1217 41.5934C54.0778 41.5883 54.0376 41.5661 54.01 41.5316C53.9824 41.497 53.9695 41.453 53.9742 41.409C53.9763 41.3871 53.9828 41.3658 53.9932 41.3464C54.0037 41.3271 54.0179 41.31 54.0351 41.2962C54.0523 41.2825 54.0721 41.2723 54.0933 41.2664C54.1145 41.2604 54.1367 41.2588 54.1585 41.2616L58.1801 41.7174C58.2246 41.72 58.2661 41.7402 58.2957 41.7735C58.3252 41.8069 58.3403 41.8505 58.3376 41.895C58.335 41.9394 58.3148 41.981 58.2814 42.0105C58.2481 42.0401 58.2045 42.0552 58.16 42.0525L58.1634 42.0491Z" fill="#D1D3D4"/>
<path d="M52.3219 41.3889L43.4208 40.3835C43.3763 40.3786 43.3357 40.3563 43.3077 40.3214C43.2797 40.2865 43.2668 40.242 43.2716 40.1975C43.2765 40.1531 43.2989 40.1124 43.3338 40.0844C43.3686 40.0565 43.4132 40.0435 43.4576 40.0484L52.3587 41.0538C52.4032 41.0564 52.4447 41.0766 52.4743 41.11C52.5038 41.1433 52.5189 41.1869 52.5162 41.2314C52.5136 41.2758 52.4934 41.3174 52.4601 41.3469C52.4267 41.3765 52.3831 41.3916 52.3386 41.3889H52.3219Z" fill="#D1D3D4"/>
<path d="M6.03591 19.61L13.7291 36.1458C14.3662 37.5152 15.9928 38.1088 17.3622 37.4717L42.7371 25.6661C44.1065 25.029 44.7001 23.4024 44.063 22.0331L36.3698 5.49723C35.7327 4.12787 34.1062 3.53424 32.7368 4.17133L7.36181 15.9769C5.99244 16.614 5.39882 18.2406 6.03591 19.61Z" fill="white"/>
<path d="M16.2149 37.9136C15.6618 37.9143 15.12 37.757 14.6533 37.4601C14.1866 37.1633 13.8145 36.7392 13.5807 36.238L5.8727 19.7026C5.54854 19.0048 5.51472 18.2069 5.77866 17.4842C6.0426 16.7615 6.5827 16.1732 7.28025 15.8486L32.6564 4.04189C33.3542 3.71773 34.1521 3.68391 34.8748 3.94785C35.5975 4.21179 36.1858 4.75189 36.5104 5.44944L44.2017 21.9848C44.3627 22.33 44.4542 22.7036 44.4708 23.0842C44.4874 23.4648 44.4288 23.8449 44.2984 24.2029C44.168 24.5608 43.9683 24.8895 43.7107 25.1702C43.4532 25.4509 43.1429 25.6781 42.7975 25.8388L17.4213 37.6455C17.0433 37.8211 16.6317 37.9125 16.2149 37.9136ZM33.8897 4.08545C33.517 4.0857 33.1488 4.16689 32.8106 4.3234L7.43441 16.1301C6.81788 16.4175 6.34066 16.9379 6.10753 17.577C5.87441 18.216 5.90446 18.9214 6.19107 19.5384L13.8991 36.0771C14.1872 36.6939 14.7082 37.1711 15.3478 37.4042C15.9874 37.6373 16.6933 37.6072 17.3107 37.3204L42.6735 25.5138C43.29 25.2263 43.7672 24.7059 44.0004 24.0669C44.2335 23.4278 44.2034 22.7224 43.9168 22.1055L36.2088 5.56673C36.0024 5.12543 35.6747 4.75188 35.2641 4.48962C34.8536 4.22736 34.3769 4.0872 33.8897 4.08545Z" fill="#231F20"/>
<path d="M28.2301 12.0871L30.1711 16.259C30.6317 17.2491 31.8078 17.6783 32.7979 17.2177L35.7514 15.8436C36.7415 15.383 37.1707 14.2069 36.71 13.2168L34.7691 9.04484C34.3084 8.05473 33.1323 7.62551 32.1422 8.08616L29.1888 9.46025C28.1987 9.92089 27.7694 11.097 28.2301 12.0871Z" fill="#68E1FD"/>
<path d="M10.0512 18.3626C9.44199 18.646 9.17791 19.3696 9.46132 19.9788C9.74474 20.588 10.4683 20.852 11.0775 20.5686L16.7626 17.9236C17.3718 17.6402 17.6359 16.9166 17.3525 16.3075C17.069 15.6983 16.3455 15.4342 15.7363 15.7176L10.0512 18.3626Z" fill="#D1D3D4"/>
<path d="M34.6016 22.7878L35.1458 23.9576C35.2887 24.2647 35.6535 24.3978 35.9606 24.255L40.2389 22.2645C40.546 22.1216 40.6791 21.7569 40.5362 21.4498L39.992 20.2799C39.8491 19.9728 39.4843 19.8397 39.1772 19.9826L34.8989 21.973C34.5918 22.1159 34.4587 22.4807 34.6016 22.7878Z" fill="#D1D3D4"/>
<path d="M28.0715 25.829L28.6158 26.9989C28.7587 27.306 29.1235 27.4391 29.4306 27.2962L33.7089 25.3058C34.016 25.1629 34.1491 24.7981 34.0062 24.491L33.4619 23.3212C33.3191 23.0141 32.9543 22.8809 32.6472 23.0238L28.3689 25.0143C28.0618 25.1572 27.9287 25.5219 28.0715 25.829Z" fill="#D1D3D4"/>
<path d="M21.537 28.8654L22.0813 30.0353C22.2241 30.3424 22.5889 30.4755 22.896 30.3326L27.1743 28.3422C27.4814 28.1993 27.6145 27.8345 27.4717 27.5274L26.9274 26.3576C26.7845 26.0504 26.4197 25.9173 26.1126 26.0602L21.8344 28.0507C21.5273 28.1935 21.3941 28.5583 21.537 28.8654Z" fill="#D1D3D4"/>
<path d="M15.0068 31.9035L15.5511 33.0733C15.694 33.3804 16.0588 33.5136 16.3659 33.3707L20.6442 31.3802C20.9513 31.2374 21.0844 30.8726 20.9415 30.5655L20.3972 29.3956C20.2544 29.0885 19.8896 28.9554 19.5825 29.0983L15.3042 31.0887C14.9971 31.2316 14.864 31.5964 15.0068 31.9035Z" fill="#D1D3D4"/>
<path d="M62.6574 16.8002C62.6293 16.8005 62.6016 16.7936 62.5769 16.7801C62.5523 16.7666 62.5315 16.747 62.5166 16.7232L58.0225 9.68541C58.0012 9.64814 57.9951 9.60413 58.0053 9.56246C58.0155 9.52079 58.0413 9.48463 58.0774 9.46143C58.1135 9.43823 58.1572 9.42975 58.1993 9.43775C58.2415 9.44576 58.2789 9.46962 58.304 9.50444L62.7981 16.5422C62.8221 16.5795 62.8302 16.6249 62.8208 16.6682C62.8114 16.7116 62.7851 16.7494 62.7479 16.7734C62.7213 16.7918 62.6896 16.8012 62.6574 16.8002Z" fill="white"/>
<path d="M49.0679 14.756C49.0369 14.756 49.0065 14.7476 48.9799 14.7317C48.9534 14.7157 48.9316 14.6929 48.917 14.6655L46.6214 10.2317C46.611 10.2124 46.6045 10.1913 46.6024 10.1694C46.6003 10.1476 46.6026 10.1256 46.6092 10.1046C46.6158 10.0837 46.6264 10.0643 46.6406 10.0476C46.6548 10.0308 46.6722 10.0171 46.6918 10.0072C46.7113 9.99672 46.7328 9.99022 46.7549 9.98808C46.7769 9.98595 46.7992 9.98822 46.8204 9.99477C46.8416 10.0013 46.8613 10.012 46.8784 10.0262C46.8954 10.0404 46.9094 10.0579 46.9197 10.0776L49.2153 14.5114C49.2356 14.551 49.2396 14.5971 49.2264 14.6396C49.2133 14.6822 49.1841 14.7179 49.1449 14.7393C49.1204 14.7493 49.0943 14.755 49.0679 14.756Z" fill="white"/>
<path d="M11.6302 40.7386L10.226 42.3506C9.3312 43.4699 6.48593 42.6857 3.87861 40.5911C1.27129 38.4966 -0.122857 35.9026 0.781998 34.78L2.18955 33.168L11.6302 40.7386Z" fill="white"/>
<path d="M8.89898 43.031C7.55845 43.031 5.62475 42.2032 3.77147 40.7219C2.59522 39.8144 1.60715 38.6863 0.862529 37.4008C0.242536 36.2378 0.165457 35.2727 0.641343 34.6761L2.05225 33.0574C2.08074 33.0249 2.12072 33.0046 2.16382 33.0009C2.20692 32.9971 2.2498 33.0102 2.28349 33.0373L11.7342 40.5946C11.7523 40.6079 11.7674 40.625 11.7784 40.6446C11.7894 40.6643 11.796 40.6861 11.7979 40.7085C11.8015 40.7546 11.7871 40.8002 11.7577 40.8358L10.3501 42.4478C10.1689 42.6495 9.94388 42.807 9.69231 42.9081C9.44075 43.0091 9.16934 43.0512 8.89898 43.031ZM2.19635 33.3993L0.899393 34.8973C0.520695 35.3699 0.614533 36.2378 1.15745 37.2432C1.88024 38.4907 2.83997 39.5847 3.9826 40.4639C6.47263 42.4746 9.27098 43.2756 10.0954 42.2501L11.389 40.7621L2.19635 33.3993Z" fill="#231F20"/>
<path d="M11.629 40.7359C12.5246 39.6177 11.1343 37.0164 8.52372 34.9257C5.91317 32.835 3.07094 32.0466 2.17543 33.1648C1.27991 34.283 2.67022 36.8843 5.28077 38.975C7.89131 41.0657 10.7335 41.8541 11.629 40.7359Z" fill="white"/>
<path d="M10.3032 41.4157C8.96263 41.4157 7.02557 40.5879 5.17899 39.11C4.00089 38.2035 3.01154 37.0753 2.2667 35.7889C1.64671 34.626 1.56963 33.6608 2.04887 33.0642C2.52475 32.4677 3.48658 32.3303 4.75338 32.6822C6.17142 33.1275 7.48865 33.8458 8.63085 34.7969C11.3555 36.9786 12.7295 39.6328 11.761 40.8292C11.5789 41.0319 11.3529 41.1901 11.1002 41.2917C10.8474 41.3934 10.5748 41.4358 10.3032 41.4157ZM3.50334 32.8297C3.28401 32.8089 3.06282 32.8379 2.85625 32.9145C2.64968 32.9911 2.46305 33.1133 2.31027 33.272C1.92487 33.7513 2.01871 34.6126 2.56497 35.6179C3.28678 36.8651 4.24534 37.9591 5.38677 38.8386C7.8768 40.8493 10.6785 41.6503 11.4996 40.6248C12.3206 39.5993 10.9131 37.0423 8.41971 35.0482C7.31373 34.1253 6.03732 33.4284 4.66289 32.9972C4.28581 32.8888 3.89568 32.8324 3.50334 32.8297Z" fill="#231F20"/>
<path d="M4.70649 34.0862L5.31978 34.6694H5.39016C5.58788 34.7062 5.77556 34.733 5.97664 34.7833C6.50502 34.9247 7.00424 35.1584 7.45122 35.4737C7.73068 35.6633 7.98417 35.8886 8.20526 36.1439C8.3442 36.2822 8.43672 36.4602 8.47001 36.6533C8.47686 36.7217 8.46252 36.7905 8.42895 36.8505C8.39538 36.9104 8.3442 36.9586 8.28234 36.9885C8.18515 37.0555 8.07791 37.1158 7.97067 37.1828L9.12352 38.2787C9.32125 38.138 9.23411 37.9 8.96266 37.6085L9.66978 37.4878C9.88487 37.6745 10.0604 37.9024 10.1859 38.1581C10.2392 38.2542 10.2622 38.3641 10.2521 38.4735C10.2419 38.5829 10.199 38.6867 10.1289 38.7714C10.0585 38.8484 9.96135 38.9155 9.87421 38.9925L10.2931 39.3914L9.62287 39.6025L9.1939 39.197C8.98612 39.197 8.79174 39.197 8.57726 39.197C8.16381 39.1575 7.76082 39.044 7.38754 38.8618C6.88114 38.6381 6.42517 38.3144 6.04701 37.9101C5.66161 37.4878 5.57783 37.156 5.81577 36.9315C5.9747 36.7948 6.15926 36.6911 6.35869 36.6265L6.43912 36.5964L5.26951 35.4904H5.236C5.20949 35.5618 5.19149 35.636 5.18237 35.7116C5.22044 35.863 5.30622 35.9981 5.42702 36.097L4.33114 36.164C4.24401 36.0702 4.15687 35.9797 4.07979 35.8892C3.79828 35.5541 3.69104 35.2759 3.77818 35.0581C3.83552 34.9529 3.91833 34.8637 4.01902 34.7987C4.11972 34.7337 4.23509 34.695 4.3546 34.6861C4.39147 34.6861 4.39147 34.666 4.3546 34.6291C4.14347 34.4348 3.93569 34.237 3.72791 34.0393L4.70649 34.0862ZM7.35403 37.471C7.25014 37.5548 7.11608 37.6185 7.14289 37.776C7.16971 37.9335 7.535 38.262 7.87348 38.3759C8.03997 38.4354 8.21625 38.4627 8.39293 38.4563L7.35403 37.471ZM7.08592 36.3484C7.17641 36.2981 7.26689 36.2579 7.2803 36.1674C7.30376 35.9998 6.94517 35.6815 6.57652 35.5474C6.41901 35.4871 6.2682 35.4536 6.09393 35.4033L7.08592 36.3484Z" fill="#D1D3D4"/>
<path d="M22.5254 57.7432L23.3465 59.7171C23.9497 61.0174 21.9825 63.2125 18.9529 64.6268C15.9233 66.041 12.9742 66.1282 12.3676 64.8312L11.5465 62.8539L22.5254 57.7432Z" fill="white"/>
<path d="M14.5661 65.9205C13.3965 65.9205 12.5319 65.5854 12.2202 64.9151L11.3958 62.9345C11.3795 62.8943 11.3791 62.8495 11.3947 62.8091C11.4102 62.7686 11.4406 62.7356 11.4796 62.7167L22.4585 57.6059C22.479 57.5968 22.5013 57.592 22.5238 57.592C22.5463 57.592 22.5686 57.5968 22.5892 57.6059C22.6103 57.6145 22.6294 57.6272 22.6456 57.6434C22.6617 57.6595 22.6744 57.6786 22.683 57.6997L23.5041 59.6737C24.1542 61.0712 22.1904 63.3233 19.0267 64.7978C17.6345 65.4792 16.115 65.8617 14.5661 65.9205ZM11.7644 62.9379L12.5218 64.7643C13.0748 65.9507 15.9871 65.82 18.8893 64.4728C21.7915 63.1255 23.7554 60.9807 23.1991 59.7809L22.4451 57.9612L11.7644 62.9379Z" fill="#231F20"/>
<path d="M18.129 62.6521C21.1609 61.2402 23.1285 59.0429 22.5238 57.7442C21.919 56.4455 18.9709 56.5373 15.939 57.9492C12.9071 59.3611 10.9395 61.5584 11.5442 62.8571C12.149 64.1558 15.0971 64.064 18.129 62.6521Z" fill="white"/>
<path d="M13.7349 63.9398C12.5285 63.9398 11.7007 63.5845 11.389 62.9344C10.7188 61.5335 12.6994 59.2781 15.863 57.8069C19.0267 56.3357 22.016 56.2787 22.6695 57.6829C23.3231 59.0871 21.3592 61.3392 18.1955 62.8137C16.8595 63.4652 15.4092 63.8499 13.926 63.9465L13.7349 63.9398ZM20.3471 57.016C18.841 57.0779 17.3642 57.4522 16.0105 58.1152C13.1183 59.4557 11.1444 61.6073 11.6973 62.807C11.9587 63.3634 12.7765 63.6583 13.9226 63.6248C15.3611 63.5313 16.7672 63.1567 18.0615 62.5222C20.9537 61.1816 22.9276 59.0301 22.3713 57.8303C22.1166 57.2673 21.3659 57.016 20.3471 57.016Z" fill="#231F20"/>
<path d="M13.4902 60.9973L14.2844 60.7057L14.328 60.6488C14.4486 60.4879 14.5525 60.3136 14.6899 60.1729C15.0523 59.7657 15.4833 59.4254 15.9634 59.1675C16.2585 59.002 16.574 58.8758 16.9018 58.7921C17.0881 58.7317 17.2886 58.7317 17.4749 58.7921C17.5361 58.8173 17.5885 58.86 17.6254 58.9148C17.6624 58.9697 17.6823 59.0343 17.6827 59.1005C17.6827 59.2178 17.7061 59.3417 17.7162 59.4657L19.2109 58.9195C19.1706 58.6782 18.9227 58.6514 18.5406 58.7653L18.745 58.0951C19.0119 57.9859 19.2979 57.9312 19.5862 57.9342C19.6974 57.9289 19.8074 57.9583 19.9011 58.0184C19.9947 58.0784 20.0674 58.1661 20.109 58.2693C20.1452 58.379 20.1744 58.491 20.1961 58.6045L20.7391 58.4067L20.6318 59.1005L20.0789 59.3082C19.985 59.4926 19.9046 59.6702 19.7973 59.8579C19.5821 60.2115 19.3052 60.5237 18.9796 60.7795C18.557 61.1348 18.0651 61.3984 17.5352 61.5536C16.9856 61.7145 16.6538 61.6407 16.5566 61.3291C16.5044 61.1267 16.493 60.9159 16.5231 60.7091C16.5231 60.6789 16.5231 60.6488 16.5231 60.6219L15.015 61.1816L14.9882 61.2051C15.0393 61.261 15.098 61.3095 15.1625 61.3492C15.3143 61.3838 15.4734 61.3673 15.6149 61.3023L15.1893 62.3077C15.0653 62.3445 14.948 62.3814 14.834 62.4082C14.4084 62.5154 14.1102 62.4886 13.9527 62.311C13.8855 62.2143 13.8434 62.1025 13.8299 61.9856C13.8165 61.8686 13.8322 61.7502 13.8756 61.6408C13.8756 61.6072 13.8756 61.6005 13.822 61.6206L13.0143 61.9189L13.4902 60.9973ZM17.6994 60.126C17.7296 60.2567 17.7262 60.4041 17.877 60.4611C18.0401 60.4592 18.2011 60.4237 18.3499 60.3568C18.4986 60.2899 18.632 60.1931 18.7417 60.0723C18.8688 59.9487 18.9712 59.802 19.0433 59.64L17.6994 60.126ZM16.5734 59.8679C16.5734 59.7674 16.5734 59.6635 16.4963 59.6132C16.3589 59.5194 15.9165 59.697 15.6283 59.9684C15.5077 60.0824 15.4105 60.203 15.2932 60.3371L16.5734 59.8679Z" fill="#D1D3D4"/>
<path d="M14.499 45.4104C13.3059 47.3977 14.6431 51.8014 14.6431 51.8014L16.4092 53.0883C17.0388 53.467 17.7368 53.718 18.4633 53.8269C19.1899 53.9359 19.9308 53.9007 20.6438 53.7233C21.3567 53.5459 22.0278 53.2298 22.6186 52.7931C23.2094 52.3564 23.7084 51.8076 24.0871 51.178C24.4658 50.5485 24.7168 49.8505 24.8257 49.1239C24.9347 48.3973 24.8995 47.6564 24.7221 46.9435C24.5447 46.2305 24.2286 45.5595 23.7919 44.9687C23.3552 44.3779 22.8064 43.8789 22.1768 43.5002L20.2197 42.5383C20.2197 42.5383 15.692 43.4264 14.499 45.4104Z" fill="white"/>
<path d="M19.2814 54.057C18.2396 54.0551 17.2179 53.7702 16.3256 53.2325L14.5427 51.9389C14.5138 51.917 14.4927 51.8865 14.4823 51.8518C14.4254 51.6675 13.1418 47.351 14.355 45.3234C15.5749 43.3126 19.9919 42.4111 20.1796 42.3743C20.2135 42.3645 20.2495 42.3645 20.2835 42.3743L22.2473 43.3361C23.3285 43.9846 24.1672 44.9697 24.635 46.1405C25.1028 47.3112 25.1739 48.603 24.8374 49.818C24.5008 51.033 23.7752 52.1042 22.7717 52.8674C21.7682 53.6306 20.5422 54.0437 19.2814 54.0436V54.057ZM14.7873 51.711L16.5099 52.9611C17.7432 53.6978 19.2182 53.9153 20.6117 53.566C22.0051 53.2167 23.2032 52.3291 23.9431 51.0977C24.683 49.8646 24.9034 48.3883 24.5559 46.9928C24.2085 45.5973 23.3215 44.3967 22.0898 43.6545L20.1896 42.7262C19.6769 42.8334 15.7156 43.7316 14.6432 45.5078C13.5708 47.2974 14.6432 51.1983 14.7873 51.701V51.711Z" fill="#231F20"/>
<path d="M18.0749 53.1554C21.164 53.1554 23.6683 50.6512 23.6683 47.5621C23.6683 44.473 21.164 41.9688 18.0749 41.9688C14.9858 41.9688 12.4816 44.473 12.4816 47.5621C12.4816 50.6512 14.9858 53.1554 18.0749 53.1554Z" fill="white"/>
<path d="M18.0649 53.3297C17.1778 53.3273 16.3032 53.1201 15.5093 52.7243C14.7155 52.3284 14.0237 51.7545 13.4881 51.0474C12.9524 50.3403 12.5873 49.519 12.4211 48.6476C12.255 47.7762 12.2924 46.8782 12.5303 46.0236C12.7682 45.169 13.2003 44.3809 13.7929 43.7207C14.3854 43.0605 15.1225 42.5461 15.9465 42.2175C16.7705 41.889 17.6593 41.7552 18.5435 41.8265C19.4277 41.8979 20.2835 42.1725 21.0442 42.6289C22.1256 43.2778 22.9643 44.2636 23.4314 45.4351C23.8984 46.6066 23.9682 47.899 23.6299 49.114C23.2917 50.3289 22.5641 51.3993 21.5588 52.1608C20.5535 52.9224 19.3261 53.333 18.0649 53.3297ZM18.085 42.143C16.7723 42.141 15.5034 42.615 14.5135 43.4771C13.5236 44.3391 12.8798 45.5309 12.7014 46.8314C12.523 48.1319 12.8221 49.453 13.5434 50.5498C14.2646 51.6466 15.359 52.4447 16.6237 52.7963C17.8884 53.1479 19.2377 53.029 20.4215 52.4618C21.6053 51.8945 22.5433 50.9173 23.0617 49.7113C23.58 48.5053 23.6436 47.1523 23.2406 45.903C22.8376 44.6537 21.9953 43.5929 20.87 42.9171C20.0294 42.4096 19.0669 42.1398 18.085 42.1363V42.143Z" fill="#231F20"/>
<path d="M14.9381 44.9982L15.6351 45.4204C15.682 45.4472 15.7055 45.4439 15.739 45.4037C16.0126 45.0995 16.3584 44.869 16.7444 44.7334C17.1472 44.5912 17.5881 44.6008 17.9844 44.7602C18.0916 44.8038 18.1955 44.8541 18.3195 44.9043L17.6694 45.9835C17.5058 45.8873 17.3144 45.8494 17.1265 45.8762C16.9821 45.9139 16.84 45.9598 16.7008 46.0136V46.0404L18.0414 46.8515L18.1386 46.7509C18.3721 46.4981 18.6342 46.2732 18.9194 46.0806C19.1295 45.9293 19.3769 45.8381 19.6349 45.8169C19.893 45.7956 20.1519 45.8451 20.3839 45.96C20.8352 46.144 21.1962 46.4978 21.3893 46.9453C21.5484 47.309 21.5883 47.7137 21.5033 48.1015C21.453 48.3428 21.3726 48.5807 21.3022 48.8287L21.825 49.1437L21.2285 50.1491L20.6923 49.814C20.5146 49.9816 20.3571 50.1491 20.1862 50.2966C19.8533 50.5884 19.4319 50.7595 18.9898 50.7825C18.6096 50.7918 18.2352 50.688 17.914 50.4843L18.5508 49.4219C18.7396 49.5259 18.9575 49.5649 19.1707 49.5328C19.3839 49.5007 19.5806 49.3993 19.7304 49.2443L18.286 48.3796C18.1084 48.5439 17.9308 48.7148 17.7498 48.8756C17.5377 49.0794 17.2788 49.2279 16.9958 49.308C16.7051 49.3806 16.399 49.3594 16.1211 49.2476C15.7745 49.1268 15.4682 48.9122 15.2363 48.6276C15.0701 48.4216 14.9512 48.1814 14.8881 47.9243C14.825 47.6672 14.8191 47.3993 14.871 47.1397C14.9112 46.9285 14.995 46.7241 15.0553 46.5197C15.0553 46.4962 15.0553 46.4728 15.0822 46.4459L14.3583 46.0103L14.9381 44.9982ZM20.327 48.2355C20.4045 48.0599 20.4301 47.8656 20.4007 47.6759C20.3707 47.5144 20.2824 47.3696 20.1527 47.2689C20.023 47.1682 19.8608 47.1186 19.6969 47.1296C19.465 47.1934 19.2552 47.3198 19.0903 47.4949L20.327 48.2355ZM15.987 46.9855C15.9632 47.1497 15.952 47.3156 15.9535 47.4815C15.9609 47.5713 15.9879 47.6584 16.0324 47.7367C16.077 47.8151 16.1381 47.8828 16.2114 47.9351C16.2848 47.9874 16.3687 48.0231 16.4573 48.0397C16.5458 48.0563 16.637 48.0533 16.7243 48.0311C16.9007 47.9539 17.0585 47.8396 17.1868 47.696L15.987 46.9855Z" fill="#D1D3D4"/>
</svg>
