<svg width="85" height="107" viewBox="0 0 85 107" fill="none" xmlns="http://www.w3.org/2000/svg">
<path d="M1.17981 6.77292L0.713037 3.97227C0.631705 3.48354 0.65778 2.98296 0.78945 2.50533C0.92112 2.0277 1.15523 1.58447 1.4755 1.20646C1.79577 0.82844 2.19452 0.524706 2.64403 0.316363C3.09354 0.108021 3.58304 6.8338e-05 4.07849 1.19395e-05H81.3531C81.8344 -0.00128187 82.3103 0.102591 82.7473 0.304365C83.1843 0.50614 83.572 0.800944 83.8832 1.16816C84.1944 1.53538 84.4216 1.96615 84.549 2.43035C84.6763 2.89454 84.7008 3.38096 84.6205 3.85557L83.9764 7.68313L1.17981 6.77292Z" fill="#68E1FD"/>
<path d="M31.6882 57.9783C31.6882 57.9783 27.3985 61.6425 30.8013 65.7454C34.2041 69.8484 35.3944 75.7577 40.7063 72.3596C46.0182 68.9615 42.7928 62.0299 42.7928 62.0299L31.6882 57.9783Z" fill="#F4A28C"/>
<path opacity="0.09" d="M31.6882 57.9783C31.6882 57.9783 27.3985 61.6425 30.8013 65.7454C34.2041 69.8484 35.3944 75.7577 40.7063 72.3596C46.0182 68.9615 42.7928 62.0299 42.7928 62.0299L31.6882 57.9783Z" fill="black"/>
<path d="M7.84077 42.4485L1.17989 6.77286C1.10793 6.38749 1.12171 5.99099 1.22026 5.61154C1.31882 5.2321 1.49973 4.87901 1.75013 4.57737C2.00054 4.27572 2.3143 4.03292 2.66912 3.86621C3.02395 3.69951 3.41113 3.61298 3.80317 3.61279H80.5363C81.0412 3.61275 81.54 3.72265 81.9981 3.93484C82.4563 4.14704 82.8627 4.45644 83.1891 4.84155C83.5156 5.22666 83.7543 5.67824 83.8887 6.16492C84.023 6.65159 84.0498 7.16167 83.9671 7.65973L78.0624 43.088L7.84077 42.4485Z" fill="#24285B"/>
<path d="M7.16846 8.8501L11.8689 37.5474H73.0911L77.3901 8.8501H7.16846Z" fill="white"/>
<path d="M7.84069 42.4485L5.62351 79.6365C5.58089 80.356 5.68581 81.0767 5.93185 81.7543C6.17788 82.4318 6.55983 83.0519 7.05424 83.5765C7.54864 84.1011 8.14506 84.519 8.80687 84.8047C9.46868 85.0904 10.1819 85.2377 10.9027 85.2378H74.5055C75.3542 85.2381 76.1939 85.0634 76.9721 84.7245C77.7502 84.3856 78.45 83.8899 79.0279 83.2682C79.6057 82.6466 80.0491 81.9124 80.3303 81.1116C80.6115 80.3108 80.7245 79.4607 80.6623 78.6142L78.0623 43.088L7.84069 42.4485Z" fill="#E6E6E6"/>
<path opacity="0.5" d="M13.7453 47.5317L11.5981 69.0034H74.5708L72.2882 47.5317H13.7453Z" fill="white"/>
<path opacity="0.09" d="M29.149 27.7637H23.6504L12.5645 65.6751L30.5586 69.0032C30.5586 69.0032 28.0567 79.9445 33.5413 85.247H44.3845L47.1198 66.8327L29.149 27.7637Z" fill="black"/>
<path d="M61.1353 23.9458L49.1821 68.6805L20.2804 60.9579L32.2336 16.2232L61.1353 23.9458Z" fill="#FFD200"/>
<path d="M50.4829 43.5505L45.0932 63.6581L40.2984 62.3729L45.6881 42.2653L50.4829 43.5505Z" fill="white"/>
<path opacity="0.46" d="M38.2768 32.3167L40.2271 25.0406C40.4831 24.0854 39.9163 23.1035 38.9611 22.8474L37.6254 22.4894C36.6702 22.2334 35.6883 22.8002 35.4322 23.7554L33.4819 31.0314C33.2259 31.9867 33.7927 32.9686 34.7479 33.2246L36.0836 33.5827C37.0388 33.8387 38.0208 33.2719 38.2768 32.3167Z" fill="white"/>
<path opacity="0.46" d="M31.639 58.1971L36.9963 38.1477C37.2505 37.1963 36.6853 36.219 35.7339 35.9648L34.4036 35.6093C33.4522 35.3551 32.4749 35.9203 32.2206 36.8716L26.8634 56.9211C26.6092 57.8725 27.1744 58.8498 28.1258 59.104L29.4561 59.4595C30.4075 59.7137 31.3848 59.1485 31.639 58.1971Z" fill="white"/>
<path opacity="0.3" d="M51.6942 33.1877C53.5013 33.1877 54.9663 31.7228 54.9663 29.9156C54.9663 28.1085 53.5013 26.6436 51.6942 26.6436C49.8871 26.6436 48.4221 28.1085 48.4221 29.9156C48.4221 31.7228 49.8871 33.1877 51.6942 33.1877Z" fill="white"/>
<path opacity="0.09" d="M35.978 56.5078C35.978 56.5078 31.5436 57.3153 32.7105 64.2796L37.9244 65.6799L35.978 56.5078Z" fill="black"/>
<path opacity="0.3" d="M50.756 37.5474C52.5631 37.5474 54.0281 36.0824 54.0281 34.2753C54.0281 32.4681 52.5631 31.0032 50.756 31.0032C48.9489 31.0032 47.4839 32.4681 47.4839 34.2753C47.4839 36.0824 48.9489 37.5474 50.756 37.5474Z" fill="white"/>
<path d="M39.7867 92.0107L40.0575 85.2984C40.0575 85.2984 35.6418 81.8583 36.9534 72.4341C38.265 63.0099 34.2788 62.9539 35.7398 57.2079C37.2008 51.4619 43.3342 55.915 44.8279 62.6879C46.3216 69.4608 51.9369 59.4204 51.9369 59.4204C51.9369 59.4204 58.3317 62.053 56.2219 75.0154C54.1121 87.9777 54.8449 92.0013 54.8449 92.0013L39.7867 92.0107Z" fill="#F4A28C"/>
<path d="M17.5684 14.1572H67.2659V27.7637H17.5684V14.1572Z" fill="white"/>
<path d="M66.4304 27.7637H18.4039L17.5684 25.8406H67.2659L66.4304 27.7637Z" fill="#E6E6E6"/>
<path d="M36.6268 88.1644L56.6655 86.8574L58.808 106.877H35.4319L36.6268 88.1644Z" fill="#68E1FD"/>
<path opacity="0.09" d="M29.1491 27.7637L27.9495 32.2447L59.2467 31.0031L60.1103 27.7637H29.1491Z" fill="black"/>
<path d="M28.4907 15.3523L29.807 20.1181H53.6126L55.3163 15.3523H28.4907Z" fill="#68E1FD"/>
</svg>
