<svg width="125" height="92" viewBox="0 0 125 92" fill="none" xmlns="http://www.w3.org/2000/svg">
<path d="M89.21 2.21682L6.26919 21.533C2.99093 22.2965 0.952296 25.573 1.71577 28.8512L13.0795 77.6453C13.843 80.9236 17.1194 82.9622 20.3977 82.1987L103.338 62.8825C106.617 62.1191 108.655 58.8426 107.892 55.5643L96.5282 6.77023C95.7647 3.49198 92.4882 1.45334 89.21 2.21682Z" fill="#F56132"/>
<path d="M19.0164 82.9452C17.5087 82.9427 16.0461 82.4315 14.8652 81.4942C13.6843 80.557 12.8543 79.2486 12.5095 77.7809L1.14459 28.9824C0.743389 27.2585 1.04179 25.4458 1.97443 23.9414C2.90707 22.4371 4.39792 21.3637 6.12042 20.9563L89.0785 1.63595C90.8049 1.23528 92.6197 1.53608 94.1246 2.47232C95.6294 3.40855 96.7012 4.90369 97.1046 6.62945L108.47 55.428C108.67 56.2821 108.699 57.1673 108.557 58.0329C108.414 58.8985 108.102 59.7275 107.639 60.4725C107.176 61.2174 106.57 61.8637 105.857 62.3743C105.143 62.8849 104.336 63.2499 103.482 63.4482L20.5356 82.7744C20.0374 82.889 19.5276 82.9463 19.0164 82.9452ZM90.5977 2.63701C90.1773 2.63688 89.7583 2.68629 89.3493 2.78422L6.40307 22.1046C5.69817 22.267 5.03222 22.5668 4.44336 22.9869C3.8545 23.4071 3.3543 23.9392 2.97141 24.5529C2.58852 25.1667 2.33046 25.8499 2.212 26.5635C2.09354 27.2771 2.11702 28.007 2.28108 28.7116L13.6578 77.5218C13.9887 78.9413 14.8684 80.172 16.1044 80.9445C17.3404 81.7169 18.832 81.9684 20.253 81.6438L103.193 62.3235C103.898 62.1604 104.563 61.8601 105.152 61.4398C105.74 61.0195 106.24 60.4874 106.623 59.8738C107.006 59.2603 107.264 58.5774 107.383 57.864C107.502 57.1507 107.479 56.421 107.315 55.7165L95.9563 6.89444C95.6736 5.68475 94.9905 4.60603 94.0179 3.83325C93.0452 3.06046 91.84 2.63893 90.5977 2.63701Z" fill="#093F68"/>
<path d="M3.85669 38.046L98.6691 15.965L101.478 28.0259L6.66556 50.1068L3.85669 38.046Z" fill="#093F68"/>
<path d="M6.66809 50.6936C6.53197 50.6969 6.3989 50.6529 6.29154 50.5692C6.18417 50.4854 6.10915 50.3671 6.07923 50.2342L3.27039 38.1745C3.23494 38.0237 3.26033 37.865 3.34105 37.7328C3.3815 37.6668 3.43457 37.6095 3.49721 37.564C3.55986 37.5185 3.63086 37.4858 3.70614 37.4678L98.512 15.3798C98.5874 15.3624 98.6655 15.36 98.7418 15.3727C98.8182 15.3855 98.8912 15.4132 98.9568 15.4542C99.0225 15.4952 99.0794 15.5488 99.1243 15.6118C99.1692 15.6748 99.2013 15.7461 99.2186 15.8215L102.033 27.8813C102.051 27.9572 102.053 28.0359 102.04 28.1127C102.027 28.1895 101.999 28.263 101.957 28.3288C101.874 28.4599 101.743 28.553 101.592 28.5879L6.78586 50.6759C6.74738 50.6861 6.70788 50.6921 6.66809 50.6936ZM4.56587 38.4807L7.10973 49.3922L100.773 27.6045L98.2293 16.693L4.56587 38.4807Z" fill="#093F68"/>
<path d="M117.65 28.2817H32.4894C29.1235 28.2817 26.3948 31.0103 26.3948 34.3763V84.4762C26.3948 87.8422 29.1235 90.5709 32.4894 90.5709H117.65C121.016 90.5709 123.744 87.8422 123.744 84.4762V34.3763C123.744 31.0103 121.016 28.2817 117.65 28.2817Z" fill="#68E1FD"/>
<path d="M117.65 91.1656H32.4835C30.7125 91.1625 29.0149 90.4572 27.7631 89.2043C26.5113 87.9514 25.8075 86.2532 25.8059 84.4821V34.3763C25.8075 32.6052 26.5113 30.9071 27.7631 29.6542C29.0149 28.4013 30.7125 27.6959 32.4835 27.6928H117.65C119.422 27.6944 121.121 28.399 122.374 29.6521C123.627 30.9052 124.332 32.6042 124.333 34.3763V84.4821C124.332 86.2542 123.627 87.9533 122.374 89.2063C121.121 90.4594 119.422 91.1641 117.65 91.1656ZM32.4835 28.8705C31.0248 28.8736 29.6268 29.4549 28.5959 30.4869C27.5649 31.519 26.9852 32.9176 26.9836 34.3763V84.4821C26.9836 85.9413 27.5629 87.3408 28.5942 88.3732C29.6254 89.4056 31.0243 89.9863 32.4835 89.9879H117.65C119.11 89.9879 120.51 89.4078 121.543 88.3753C122.576 87.3428 123.156 85.9423 123.156 84.4821V34.3763C123.154 32.9166 122.573 31.5171 121.541 30.4849C120.509 29.4527 119.11 28.8721 117.65 28.8705H32.4835Z" fill="#093F68"/>
<path d="M94.0368 55.6164C97.819 55.6164 100.885 52.5503 100.885 48.768C100.885 44.9858 97.819 41.9196 94.0368 41.9196C90.2545 41.9196 87.1884 44.9858 87.1884 48.768C87.1884 52.5503 90.2545 55.6164 94.0368 55.6164Z" fill="#FFBC0E"/>
<path d="M94.0367 56.2053C92.5655 56.2064 91.127 55.7712 89.9031 54.9547C88.6793 54.1382 87.7251 52.9771 87.1613 51.6182C86.5975 50.2593 86.4494 48.7638 86.7357 47.3207C87.022 45.8776 87.7299 44.5519 88.7697 43.5112C89.8096 42.4705 91.1348 41.7615 92.5777 41.4741C94.0205 41.1866 95.5162 41.3336 96.8755 41.8963C98.2348 42.459 99.3967 43.4123 100.214 44.6355C101.032 45.8587 101.468 47.2968 101.468 48.768C101.465 50.7385 100.681 52.6275 99.2883 54.0214C97.8955 55.4153 96.0072 56.2006 94.0367 56.2053ZM94.0367 42.5144C92.7981 42.5132 91.5871 42.8795 90.5568 43.5668C89.5266 44.2542 88.7233 45.2317 88.2488 46.3758C87.7743 47.5198 87.6499 48.7788 87.8912 49.9936C88.1326 51.2084 88.7288 52.3243 89.6046 53.2001C90.4804 54.0758 91.5963 54.6721 92.811 54.9134C94.0258 55.1548 95.2849 55.0303 96.4289 54.5558C97.5729 54.0813 98.5505 53.2781 99.2378 52.2478C99.9252 51.2176 100.291 50.0065 100.29 48.768C100.287 47.1104 99.6273 45.5216 98.4552 44.3494C97.2831 43.1773 95.6943 42.5175 94.0367 42.5144Z" fill="#093F68"/>
<path d="M104.73 55.6164C108.513 55.6164 111.579 52.5503 111.579 48.768C111.579 44.9858 108.513 41.9196 104.73 41.9196C100.948 41.9196 97.8818 44.9858 97.8818 48.768C97.8818 52.5503 100.948 55.6164 104.73 55.6164Z" fill="#F56132"/>
<path d="M104.73 56.2053C103.259 56.2064 101.821 55.7712 100.597 54.9547C99.373 54.1382 98.4189 52.9771 97.8551 51.6182C97.2912 50.2593 97.1431 48.7638 97.4294 47.3207C97.7157 45.8776 98.4236 44.5519 99.4635 43.5112C100.503 42.4705 101.829 41.7615 103.271 41.4741C104.714 41.1866 106.21 41.3336 107.569 41.8963C108.929 42.459 110.09 43.4123 110.908 44.6355C111.725 45.8587 112.162 47.2968 112.162 48.768C112.159 50.7385 111.375 52.6275 109.982 54.0214C108.589 55.4153 106.701 56.2006 104.73 56.2053ZM104.73 42.5144C103.492 42.5132 102.281 42.8795 101.251 43.5668C100.22 44.2542 99.4171 45.2317 98.9426 46.3758C98.4681 47.5198 98.3436 48.7788 98.5849 49.9936C98.8263 51.2084 99.4226 52.3243 100.298 53.2001C101.174 54.0758 102.29 54.6721 103.505 54.9134C104.72 55.1548 105.979 55.0303 107.123 54.5558C108.267 54.0813 109.244 53.2781 109.932 52.2478C110.619 51.2176 110.985 50.0065 110.984 48.768C110.981 47.1104 110.321 45.5216 109.149 44.3494C107.977 43.1773 106.388 42.5175 104.73 42.5144Z" fill="#093F68"/>
<path d="M46.9754 56.17H40.4332C39.3372 56.17 38.2857 55.7366 37.508 54.9644C36.7303 54.1923 36.2895 53.1439 36.2817 52.048V45.4822C36.2817 44.9384 36.3893 44.4 36.5983 43.898C36.8073 43.3959 37.1135 42.9402 37.4994 42.5571C37.8853 42.1739 38.3432 41.8709 38.8467 41.6655C39.3502 41.4601 39.8894 41.3563 40.4332 41.3602H46.9754C48.0686 41.3602 49.117 41.7945 49.8901 42.5675C50.6631 43.3405 51.0974 44.389 51.0974 45.4822V52.0244C51.0958 53.1193 50.6618 54.1693 49.8898 54.9457C49.1178 55.7222 48.0703 56.1622 46.9754 56.17ZM40.4332 42.5144C40.0441 42.5105 39.658 42.5838 39.2974 42.73C38.9368 42.8762 38.6087 43.0925 38.3322 43.3663C38.0557 43.64 37.8362 43.9659 37.6864 44.3251C37.5366 44.6842 37.4594 45.0695 37.4595 45.4587V52.0244C37.4594 52.4135 37.5366 52.7988 37.6864 53.158C37.8362 53.5171 38.0557 53.843 38.3322 54.1168C38.6087 54.3906 38.9368 54.6068 39.2974 54.7531C39.658 54.8993 40.0441 54.9726 40.4332 54.9687H46.9754C47.7562 54.9687 48.5051 54.6585 49.0573 54.1063C49.6094 53.5542 49.9196 52.8053 49.9196 52.0244V45.4822C49.9196 44.7013 49.6094 43.9524 49.0573 43.4003C48.5051 42.8481 47.7562 42.5379 46.9754 42.5379L40.4332 42.5144Z" fill="#093F68"/>
<path d="M53.0465 77.5218H36.8706C36.7144 77.5218 36.5646 77.4598 36.4542 77.3494C36.3438 77.2389 36.2817 77.0891 36.2817 76.933V70.0375C36.2817 69.8813 36.3438 69.7315 36.4542 69.6211C36.5646 69.5106 36.7144 69.4486 36.8706 69.4486H53.0465C53.2026 69.4486 53.3524 69.5106 53.4629 69.6211C53.5733 69.7315 53.6353 69.8813 53.6353 70.0375V76.933C53.6353 77.0891 53.5733 77.2389 53.4629 77.3494C53.3524 77.4598 53.2026 77.5218 53.0465 77.5218ZM37.4595 76.3441H52.4576V70.6263H37.4595V76.3441Z" fill="#093F68"/>
<path d="M73.1206 77.5218H56.9447C56.7885 77.5218 56.6387 77.4598 56.5283 77.3494C56.4179 77.2389 56.3558 77.0891 56.3558 76.933V70.0375C56.3558 69.8813 56.4179 69.7315 56.5283 69.6211C56.6387 69.5106 56.7885 69.4486 56.9447 69.4486H73.1206C73.2767 69.4486 73.4265 69.5106 73.537 69.6211C73.6474 69.7315 73.7094 69.8813 73.7094 70.0375V76.933C73.7094 77.0891 73.6474 77.2389 73.537 77.3494C73.4265 77.4598 73.2767 77.5218 73.1206 77.5218ZM57.5335 76.3441H72.5317V70.6263H57.5335V76.3441Z" fill="#093F68"/>
<path d="M93.1888 77.5218H77.0188C76.8626 77.5218 76.7128 77.4598 76.6024 77.3494C76.492 77.2389 76.4299 77.0891 76.4299 76.933V70.0375C76.4299 69.8813 76.492 69.7315 76.6024 69.6211C76.7128 69.5106 76.8626 69.4486 77.0188 69.4486H93.1888C93.345 69.4486 93.4947 69.5106 93.6052 69.6211C93.7156 69.7315 93.7776 69.8813 93.7776 70.0375V76.933C93.7776 77.0891 93.7156 77.2389 93.6052 77.3494C93.4947 77.4598 93.345 77.5218 93.1888 77.5218ZM77.6076 76.3441H92.5999V70.6263H77.6076V76.3441Z" fill="#093F68"/>
<path d="M113.292 77.5218H97.0929C96.9367 77.5218 96.7869 77.4598 96.6765 77.3494C96.5661 77.2389 96.504 77.0891 96.504 76.933V70.0375C96.504 69.8813 96.5661 69.7315 96.6765 69.6211C96.7869 69.5106 96.9367 69.4486 97.0929 69.4486H113.292C113.448 69.4486 113.598 69.5106 113.709 69.6211C113.819 69.7315 113.881 69.8813 113.881 70.0375V76.933C113.881 77.0891 113.819 77.2389 113.709 77.3494C113.598 77.4598 113.448 77.5218 113.292 77.5218ZM97.7112 76.3441H112.703V70.6263H97.6817L97.7112 76.3441Z" fill="#093F68"/>
</svg>
