<svg width="124" height="95" viewBox="0 0 124 95" fill="none" xmlns="http://www.w3.org/2000/svg">
<path d="M81.0745 7.10663H4.92568C2.61419 7.10663 0.740356 8.98046 0.740356 11.292V30.1763C0.740356 32.4878 2.61419 34.3616 4.92568 34.3616H81.0745C83.386 34.3616 85.2598 32.4878 85.2598 30.1763V11.292C85.2598 8.98046 83.386 7.10663 81.0745 7.10663Z" fill="white"/>
<path d="M85.2599 24.1652V32.7291C85.2599 33.6313 83.4423 34.3616 81.2133 34.3616H4.79189C2.5563 34.3616 0.745361 33.6313 0.745361 32.7291V27.7722C5.89729 29.137 11.763 30.0573 17.7791 30.629C25.0493 31.3197 32.5426 31.5213 40.0045 31.551C48.927 31.5874 57.9982 31.3709 66.397 30.1598C74.0935 29.0527 81.2299 27.0121 85.2599 24.1652Z" fill="#E8F0F9"/>
<path d="M80.9952 35.054H4.84638C3.56176 35.0527 2.33011 34.5419 1.42159 33.6337C0.513072 32.7255 0.00187156 31.494 0.00012207 30.2094L0.00012207 11.3234C0.00187156 10.0387 0.513072 8.80727 1.42159 7.89906C2.33011 6.99085 3.56176 6.48007 4.84638 6.47876H80.9952C82.2801 6.48007 83.512 6.99108 84.4206 7.89964C85.3291 8.80821 85.8401 10.0401 85.8414 11.325V30.211C85.8393 31.4954 85.3279 32.7264 84.4194 33.6343C83.5109 34.5421 82.2795 35.0527 80.9952 35.054ZM4.84638 7.80062C3.9122 7.80149 3.01652 8.17286 2.3558 8.83327C1.69508 9.49368 1.32329 10.3892 1.32198 11.3234V30.2094C1.32285 31.1438 1.69445 32.0398 2.35522 32.7005C3.01598 33.3613 3.91192 33.7329 4.84638 33.7338H80.9952C81.9296 33.7329 82.8256 33.3613 83.4864 32.7005C84.1471 32.0398 84.5187 31.1438 84.5196 30.2094V11.3234C84.5187 10.3889 84.1471 9.49297 83.4864 8.8322C82.8256 8.17144 81.9296 7.79984 80.9952 7.79896L4.84638 7.80062Z" fill="#314E5D"/>
<path d="M119.243 49.406H32.2006C29.8891 49.406 28.0153 51.2798 28.0153 53.5913V72.4757C28.0153 74.7872 29.8891 76.661 32.2006 76.661H119.243C121.555 76.661 123.428 74.7872 123.428 72.4757V53.5913C123.428 51.2798 121.555 49.406 119.243 49.406Z" fill="white"/>
<path d="M123.428 66.4645V75.0285C123.428 75.9307 121.383 76.661 118.86 76.661H32.5839C30.0608 76.661 28.0153 75.9307 28.0153 75.0285V70.0716C33.8314 71.4364 40.4539 72.3567 47.245 72.9284C55.4438 73.6191 63.9102 73.8207 72.3354 73.8504C82.4047 73.8868 92.649 73.6703 102.13 72.4592C110.823 71.3521 118.88 69.3115 123.428 66.4645Z" fill="#E8F0F9"/>
<path d="M62.5107 49.4738C53.5221 50.0124 41.0305 49.4919 33.2795 51.4731C29.5998 52.4116 28.6927 54.2324 28.0995 55.7377L28.1111 51.5226C28.1111 50.9823 28.1623 50.3941 29.1388 49.981C30.3466 49.4721 32.4666 49.4324 34.3337 49.4341C43.5008 49.4374 53.5254 49.0739 62.5107 49.4738Z" fill="#4ED9FF"/>
<path d="M119.154 77.3534H32.1097C30.8251 77.352 29.5934 76.8413 28.6849 75.9331C27.7764 75.0249 27.2652 73.7934 27.2634 72.5088V53.6227C27.2647 52.3378 27.7757 51.1059 28.6843 50.1974C29.5929 49.2888 30.8248 48.7778 32.1097 48.7765H119.154C120.439 48.7778 121.671 49.2888 122.579 50.1974C123.488 51.1059 123.999 52.3378 124 53.6227V72.5088C123.998 73.7934 123.487 75.0249 122.579 75.9331C121.67 76.8413 120.439 77.352 119.154 77.3534ZM32.1097 50.1C31.1755 50.1009 30.2798 50.4722 29.6191 51.1326C28.9584 51.7931 28.5866 52.6886 28.5853 53.6227V72.5088C28.5862 73.4432 28.9578 74.3392 29.6185 74.9999C30.2793 75.6607 31.1752 76.0323 32.1097 76.0332H119.154C120.088 76.0323 120.984 75.6607 121.645 74.9999C122.306 74.3392 122.677 73.4432 122.678 72.5088V53.6227C122.677 52.6883 122.306 51.7923 121.645 51.1316C120.984 50.4708 120.088 50.0992 119.154 50.0983L32.1097 50.1Z" fill="#314E5D"/>
<path d="M107.145 0.558472H20.1138C17.8023 0.558472 15.9285 2.43231 15.9285 4.7438V82.4342C15.9285 84.7457 17.8023 86.6195 20.1138 86.6195H107.145C109.456 86.6195 111.33 84.7457 111.33 82.4342V4.7438C111.33 2.43231 109.456 0.558472 107.145 0.558472Z" fill="#1DCDFF"/>
<path d="M111.33 54.4241V81.4594C111.33 84.3063 109.285 86.613 106.762 86.613H20.489C17.9659 86.613 15.9203 84.2997 15.9203 81.4594V65.8251C21.7365 70.1344 28.3573 73.0425 35.1467 74.8485C43.3455 77.0312 51.8103 77.669 60.2339 77.7615C70.3031 77.8755 80.5442 77.1914 90.0252 73.3663C98.7263 69.8601 106.783 63.4128 111.33 54.4241Z" fill="#1AB5E1"/>
<path d="M50.4205 0.774918C41.4336 2.47846 28.9503 0.834402 21.1927 7.08678C17.5146 10.051 16.6075 15.7995 16.0143 20.5532L16.0275 7.24706C16.0275 5.54351 16.0787 3.68135 17.0552 2.38097C18.2631 0.774918 20.383 0.650994 22.2485 0.650994C31.4122 0.660908 41.4352 -0.465974 50.4205 0.774918Z" fill="#4ED9FF"/>
<path d="M107.056 87.3829H20.023C18.7381 87.3816 17.5062 86.8706 16.5976 85.9621C15.6891 85.0535 15.1781 83.8216 15.1768 82.5367V4.84625C15.1781 3.56135 15.6891 2.32945 16.5976 1.42088C17.5062 0.51232 18.7381 0.00131224 20.023 0L107.056 0C108.341 0.00131224 109.572 0.51232 110.481 1.42088C111.39 2.32945 111.901 3.56135 111.902 4.84625V82.5383C111.9 83.823 111.389 85.0544 110.48 85.9626C109.572 86.8708 108.34 87.3816 107.056 87.3829ZM20.023 1.32186C19.0886 1.32273 18.1926 1.69433 17.5319 2.35509C16.8711 3.01586 16.4995 3.91179 16.4986 4.84625V82.5383C16.4995 83.4728 16.8711 84.3687 17.5319 85.0295C18.1926 85.6903 19.0886 86.0619 20.023 86.0627H107.056C107.99 86.0619 108.886 85.6903 109.547 85.0295C110.208 84.3687 110.579 83.4728 110.58 82.5383V4.84625C110.579 3.91179 110.208 3.01586 109.547 2.35509C108.886 1.69433 107.99 1.32273 107.056 1.32186H20.023Z" fill="#314E5D"/>
<path d="M100.456 6.10699H27.1891C25.7418 6.10699 24.5685 7.28027 24.5685 8.72757V77.588C24.5685 79.0353 25.7418 80.2086 27.1891 80.2086H100.456C101.904 80.2086 103.077 79.0353 103.077 77.588V8.72757C103.077 7.28027 101.904 6.10699 100.456 6.10699Z" fill="white"/>
<path d="M102.951 8.20872V22.5971H24.4379V8.20872C24.4379 7.10497 25.5614 6.20941 26.9477 6.20941H100.441C101.828 6.20941 102.951 7.10497 102.951 8.20872Z" fill="#DCEAEF"/>
<path d="M100.362 81.2809H27.0982C26.2281 81.2801 25.394 80.9341 24.7787 80.3188C24.1635 79.7036 23.8175 78.8695 23.8167 77.9994V8.602C23.818 7.73224 24.1642 6.89851 24.7793 6.28366C25.3945 5.6688 26.2284 5.32302 27.0982 5.32214H100.362C101.232 5.32302 102.066 5.66903 102.681 6.28424C103.297 6.89945 103.643 7.73361 103.644 8.60365V78.0011C103.642 78.8708 103.296 79.7046 102.681 80.3194C102.066 80.9343 101.232 81.2801 100.362 81.2809ZM27.0982 6.644C26.5787 6.64487 26.0808 6.85162 25.7134 7.21893C25.3461 7.58625 25.1394 8.08419 25.1385 8.60365V78.0011C25.1398 78.5203 25.3468 79.0178 25.714 79.3847C26.0813 79.7517 26.579 79.9582 27.0982 79.9591H100.362C100.881 79.9582 101.379 79.7515 101.747 79.3842C102.114 79.0168 102.321 78.5189 102.322 77.9994V8.602C102.32 8.08282 102.113 7.58531 101.746 7.21835C101.379 6.85139 100.881 6.64487 100.362 6.644H27.0982Z" fill="#314E5D"/>
<path d="M33.296 15.7945H66.6878V18.6794H33.296V15.7945Z" fill="white"/>
<path d="M48.5916 29.6971H32.2551V29.0114H48.5916V29.6971Z" fill="#CED5D8"/>
<path d="M67.8113 31.2073H32.255V30.5216H67.8113V31.2073Z" fill="#CED5D8"/>
<path d="M48.5916 32.7175H32.2551V32.0318H48.5916V32.7175Z" fill="#CED5D8"/>
<path d="M67.8113 34.2277H32.255V33.542H67.8113V34.2277Z" fill="#CED5D8"/>
<path d="M48.5916 35.738H32.2551V35.0523H48.5916V35.738Z" fill="#CED5D8"/>
<path d="M67.8113 37.2465H32.255V36.5608H67.8113V37.2465Z" fill="#CED5D8"/>
<path d="M48.5916 43.3436H32.2551V42.6579H48.5916V43.3436Z" fill="#CED5D8"/>
<path d="M67.8113 44.8538H32.255V44.1681H67.8113V44.8538Z" fill="#CED5D8"/>
<path d="M48.5916 46.364H32.2551V45.6783H48.5916V46.364Z" fill="#CED5D8"/>
<path d="M67.8113 47.8743H32.255V47.1886H67.8113V47.8743Z" fill="#CED5D8"/>
<path d="M48.5916 49.3845H32.2551V48.6987H48.5916V49.3845Z" fill="#CED5D8"/>
<path d="M67.8113 50.893H32.255V50.2073H67.8113V50.893Z" fill="#CED5D8"/>
<path d="M48.5916 56.9901H32.2551V56.3044H48.5916V56.9901Z" fill="#CED5D8"/>
<path d="M67.8113 58.5003H32.255V57.8146H67.8113V58.5003Z" fill="#CED5D8"/>
<path d="M48.5916 60.0106H32.2551V59.3248H48.5916V60.0106Z" fill="#CED5D8"/>
<path d="M67.8113 61.5208H32.255V60.835H67.8113V61.5208Z" fill="#CED5D8"/>
<path d="M48.5916 63.0309H32.2551V62.3452H48.5916V63.0309Z" fill="#CED5D8"/>
<path d="M67.8113 64.5396H32.255V63.8538H67.8113V64.5396Z" fill="#CED5D8"/>
<path d="M99.6647 10.7268H87.4012V9.28433H99.6647V10.7268Z" fill="#EEA248"/>
<path d="M85.7092 10.7268H73.4457V9.28433H85.7092V10.7268Z" fill="#EEA248"/>
<path d="M28.339 11.396C29.1074 11.396 29.7303 10.7731 29.7303 10.0048C29.7303 9.23641 29.1074 8.61353 28.339 8.61353C27.5706 8.61353 26.9478 9.23641 26.9478 10.0048C26.9478 10.7731 27.5706 11.396 28.339 11.396Z" fill="#EEA248"/>
<path d="M73.0881 66.3735L77.5242 62.1668L86.5256 71.6588L82.0895 75.8656L73.0881 66.3735Z" fill="#314E5D"/>
<g opacity="0.5">
<path d="M73.6755 62.3168C79.4569 56.8344 79.6992 47.7033 74.2167 41.922C68.7343 36.1406 59.6032 35.8984 53.8219 41.3808C48.0406 46.8632 47.7983 55.9943 53.2807 61.7756C58.7631 67.5569 67.8942 67.7992 73.6755 62.3168Z" fill="#8BDDEB"/>
<path d="M56.1461 60.1856C54.6871 58.648 53.5851 56.8076 52.9185 54.7954C52.252 52.7833 52.0373 50.6489 52.2897 48.5444C52.5422 46.4398 53.2555 44.4167 54.379 42.6193C55.5025 40.8219 57.0085 39.2943 58.7898 38.1453C56.8838 38.8438 55.1468 39.9365 53.6921 41.3522C52.2374 42.7679 51.0978 44.4747 50.3478 46.361C49.5979 48.2472 49.2544 50.2705 49.34 52.2986C49.4255 54.3266 49.938 56.3138 50.844 58.1303C51.7501 59.9467 53.0293 61.5515 54.598 62.8397C56.1667 64.128 57.9896 65.0706 59.9475 65.6062C61.9055 66.1417 63.9544 66.258 65.9604 65.9475C67.9664 65.637 69.8842 64.9066 71.5886 63.8042C68.9425 64.7754 66.0699 64.9503 63.3255 64.3072C60.5811 63.6642 58.0852 62.2313 56.1461 60.1856Z" fill="#62D6F8"/>
</g>
<path d="M79.4932 36.4469C77.9211 34.7851 76.1013 33.3766 74.0984 32.2715C74.0637 32.25 74.029 32.2318 73.991 32.2136C69.3606 29.692 63.9844 28.8993 58.8233 29.9772C53.6622 31.0551 49.0527 33.9334 45.8187 38.0975C42.5846 42.2616 40.9369 47.4401 41.1701 52.7074C41.4032 57.9747 43.502 62.9874 47.0912 66.8496C47.1425 66.9074 47.1953 66.9636 47.2565 67.0148C48.8977 68.7498 50.8088 70.2078 52.9157 71.3323L52.9752 71.3637C57.6313 73.8264 63.0109 74.5548 68.1542 73.4188C73.2976 72.2828 77.87 69.3564 81.0557 65.1617C84.2414 60.967 85.8332 55.7769 85.547 50.5174C85.2608 45.2579 83.1153 40.2711 79.4932 36.4469ZM74.0588 41.9227C76.0222 43.9929 77.3277 46.599 77.8101 49.4112C78.2924 52.2234 77.93 55.1155 76.7687 57.7218C75.6074 60.328 73.6993 62.5314 71.2857 64.0532C68.8722 65.5751 66.0615 66.347 63.2092 66.2714C60.357 66.1959 57.5911 65.2762 55.2615 63.6287C52.9319 61.9812 51.1432 59.6799 50.1215 57.0158C49.0998 54.3517 48.891 51.4445 49.5216 48.6618C50.1522 45.879 51.5938 43.3458 53.6642 41.3824C55.0388 40.0786 56.6568 39.0585 58.4257 38.3801C60.1946 37.7018 62.0799 37.3785 63.9737 37.4289C65.8676 37.4792 67.733 37.9021 69.4634 38.6734C71.1938 39.4448 72.7553 40.5494 74.0588 41.9243V41.9227Z" fill="#E7E7E7"/>
<path d="M81.0513 64.6751C77.2788 68.2529 72.3711 70.3943 67.1825 70.7265C61.9939 71.0587 56.8531 69.5607 52.6552 66.4933C48.4573 63.4259 45.4681 58.9833 44.2081 53.9391C42.948 48.8949 43.497 43.5685 45.7594 38.8873C43.9305 41.3768 42.6408 44.2202 41.9727 47.2361C41.3045 50.252 41.2725 53.3741 41.8788 56.403C42.4851 59.4319 43.7163 62.3012 45.4939 64.8275C47.2714 67.3539 49.5562 69.4818 52.2024 71.0755C54.8485 72.6692 57.7979 73.6935 60.8623 74.0833C63.9266 74.473 67.0386 74.2194 69.9994 73.3388C72.9602 72.4582 75.7049 70.9699 78.0582 68.9689C80.4115 66.9679 82.3217 64.4982 83.6669 61.7174C82.884 62.7785 82.0087 63.7683 81.0513 64.6751Z" fill="#CED0D0"/>
<path d="M63.5582 74.7294C59.7543 74.7313 56.0107 73.778 52.6711 71.9568L52.5884 71.9122C47.7382 69.2438 44.0155 64.9126 42.1061 59.7165C42.0632 59.6041 42.0219 59.4868 41.9839 59.3662C40.4756 55.0264 40.3086 50.333 41.5048 45.8971C42.701 41.4611 45.2049 37.488 48.6906 34.4949C52.1763 31.5018 56.4823 29.6273 61.0482 29.1155C65.614 28.6037 70.2281 29.4783 74.29 31.6254C74.3346 31.6468 74.3792 31.6716 74.4222 31.6964C78.698 33.9951 82.1318 37.5943 84.2271 41.9734C86.3224 46.3525 86.9705 51.2845 86.0777 56.0562C85.1849 60.828 82.7975 65.1921 79.2607 68.5174C75.724 71.8428 71.2211 73.957 66.4035 74.5543C65.4595 74.6707 64.5093 74.7292 63.5582 74.7294ZM63.5962 30.282C60.1551 30.2832 56.7642 31.1077 53.7067 32.6867C50.6493 34.2656 48.0139 36.5532 46.0208 39.3583C44.0277 42.1635 42.7347 45.4047 42.2497 48.8115C41.7647 52.2183 42.1019 55.6916 43.233 58.9415V58.9613C43.2644 59.0605 43.3008 59.1596 43.3371 59.2571C45.1364 64.1584 48.6476 68.2436 53.2229 70.7589L53.2808 70.7903C57.7917 73.2578 63.036 74.0315 68.0673 72.9718C73.0986 71.9121 77.5853 69.0887 80.7177 65.0114C83.85 60.934 85.4217 55.8712 85.149 50.7368C84.8763 45.6023 82.7771 40.7345 79.2305 37.0119C77.6505 35.3412 75.8122 33.9353 73.7861 32.8481L73.7613 32.8332L73.7084 32.8051L73.6836 32.7919C70.5765 31.1447 67.1129 30.2846 63.5962 30.287V30.282ZM63.5962 66.9321C63.4591 66.9321 63.3236 66.9321 63.1864 66.9321C59.208 66.878 55.4123 65.2527 52.6277 62.4107C49.8431 59.5687 48.2955 55.7407 48.3225 51.7619C48.3496 47.7832 49.9491 43.9766 52.7721 41.1727C55.5951 38.3688 59.4125 36.7952 63.3913 36.7952C67.3702 36.7952 71.1875 38.3688 74.0105 41.1727C76.8335 43.9766 78.4331 47.7832 78.4601 51.7619C78.4872 55.7407 76.9395 59.5687 74.1549 62.4107C71.3703 65.2527 67.5747 66.878 63.5962 66.9321ZM63.578 38.0793C60.0549 38.0721 56.6649 39.4252 54.1152 41.8565C51.8048 44.0477 50.3256 46.9723 49.9297 50.1318C49.5337 53.2913 50.2455 56.4904 51.9438 59.184C53.642 61.8775 56.2217 63.8989 59.2432 64.9038C62.2648 65.9086 65.5412 65.8347 68.5144 64.6947C71.4876 63.5547 73.9735 61.419 75.5486 58.6516C77.1237 55.8843 77.6906 52.6563 77.1526 49.5179C76.6147 46.3794 75.0051 43.5245 72.5983 41.4397C70.1915 39.3549 67.1362 38.1691 63.9531 38.0843C63.8308 38.0843 63.7075 38.0843 63.583 38.0843L63.578 38.0793Z" fill="#314E5D"/>
<path d="M81.0701 69.9621L81.0689 69.9633C79.1857 71.7491 79.1068 74.7234 80.8926 76.6066L94.253 90.6954C96.0389 92.5786 99.0132 92.6575 100.896 90.8717L100.898 90.8706C102.781 89.0847 102.86 86.1104 101.074 84.2272L87.7134 70.1384C85.9276 68.2552 82.9532 68.1763 81.0701 69.9621Z" fill="#426372"/>
<path d="M97.4688 92.819H97.3218C96.6181 92.8033 95.9246 92.6481 95.2814 92.3625C94.6381 92.0769 94.0579 91.6665 93.5743 91.1552L80.2153 77.0642C79.7309 76.5534 79.3518 75.9522 79.0997 75.2949C78.8476 74.6376 78.7275 73.9371 78.7461 73.2334C78.7648 72.5297 78.9218 71.8365 79.2084 71.1935C79.4949 70.5505 79.9053 69.9702 80.4161 69.4858C80.9268 69.0014 81.528 68.6223 82.1853 68.3702C82.8426 68.1182 83.5431 67.998 84.2468 68.0167C84.9505 68.0353 85.6437 68.1924 86.2867 68.4789C86.9297 68.7654 87.51 69.1758 87.9944 69.6866L101.355 83.7726C102.33 84.8058 102.856 86.183 102.818 87.603C102.78 89.0229 102.182 90.3702 101.153 91.3501C100.161 92.2966 98.8405 92.8228 97.4688 92.819ZM84.1032 69.3396C83.3146 69.3414 82.5437 69.5739 81.8856 70.0085C81.2275 70.443 80.711 71.0606 80.3995 71.7852C80.0881 72.5097 79.9955 73.3095 80.133 74.086C80.2706 74.8626 80.6323 75.5819 81.1736 76.1554L94.5326 90.2431C95.2716 91.0172 96.2867 91.4676 97.3565 91.4961C98.4263 91.5245 99.464 91.1288 100.243 90.3951C101.017 89.6561 101.468 88.641 101.496 87.5712C101.525 86.5014 101.129 85.4638 100.395 84.6847L87.0361 70.597C86.6586 70.1987 86.2038 69.8817 85.6995 69.6655C85.1951 69.4493 84.6519 69.3384 84.1032 69.3396Z" fill="#314E5D"/>
<g opacity="0.5">
<path d="M85.5737 71.7238C87.226 73.1118 88.5033 74.8385 90.0465 76.3322C90.5059 76.7766 91.2032 76.0761 90.7471 75.6316C89.2039 74.1445 87.9266 72.4112 86.2743 71.0233C85.7885 70.6151 85.0846 71.3124 85.5737 71.7238Z" fill="white"/>
<path d="M82.7219 71.4116C82.9866 71.2476 83.2842 71.144 83.5935 71.108C83.9027 71.072 84.2161 71.1046 84.5114 71.2034C85.1244 71.3819 85.3871 70.4252 84.7758 70.2467C84.3526 70.1133 83.9059 70.0716 83.4654 70.1246C83.0248 70.1776 82.6007 70.324 82.2213 70.5541C81.6744 70.8845 82.1717 71.7388 82.717 71.41L82.7219 71.4116Z" fill="white"/>
</g>
<path d="M69.0754 33.7321C71.7108 34.5335 74.1893 35.8157 76.2481 37.6448C78.8621 39.9581 80.64 42.995 81.7272 46.2931C81.9255 46.8962 82.8838 46.6384 82.6839 46.0287C81.5454 42.5753 79.6882 39.3715 76.9503 36.9409C74.7561 34.9945 72.1355 33.6363 69.3414 32.7738C68.73 32.5871 68.469 33.5438 69.077 33.7305L69.0754 33.7321Z" fill="white"/>
<path d="M59.4473 32.8118C61.1707 32.5838 62.9569 32.668 64.6786 32.8432C65.3131 32.9076 65.3081 31.9162 64.6786 31.8518C62.9569 31.6767 61.1707 31.5924 59.4473 31.8204C58.8244 31.903 58.8162 32.8961 59.4473 32.8118Z" fill="white"/>
</svg>
