<svg width="126" height="49" viewBox="0 0 126 49" fill="none" xmlns="http://www.w3.org/2000/svg">
<path d="M0.676636 0.342773C6.86226 0.342773 12.3977 4.1834 14.5632 9.97758L23.6481 34.2856L18.5052 48.3428L0.676636 0.342773Z" fill="#ABABC4"/>
<ellipse cx="33.5909" cy="1.64007" rx="4.8" ry="1.2973" fill="#ABABC4"/>
<path d="M46.8596 19.6553H52.1721V20.9053H50.6096V28.0928H53.1096C53.219 28.0928 53.3167 28.0511 53.4026 27.9678C53.4885 27.8818 53.5536 27.7725 53.5979 27.6396C53.6448 27.5068 53.6786 27.3727 53.6995 27.2373C53.7229 27.1019 53.7346 26.9704 53.7346 26.8428V25.5928H55.1409V29.3428H46.8596V28.0928H48.1096V20.9053H46.8596V19.6553ZM58.7617 22.292C59.22 22.1123 59.7057 22.0225 60.2187 22.0225C60.7317 22.0225 61.2161 22.1123 61.6718 22.292C62.1301 22.4717 62.5286 22.723 62.8671 23.0459C63.2057 23.3662 63.4726 23.762 63.6679 24.2334C63.8658 24.7048 63.9648 25.2178 63.9648 25.7725C63.9648 26.3271 63.8658 26.8402 63.6679 27.3115C63.4726 27.7829 63.2057 28.18 62.8671 28.5029C62.5286 28.8232 62.1301 29.0732 61.6718 29.2529C61.2161 29.4326 60.7317 29.5225 60.2187 29.5225C59.7057 29.5225 59.22 29.4326 58.7617 29.2529C58.3059 29.0732 57.9088 28.8232 57.5702 28.5029C57.2343 28.18 56.9674 27.7829 56.7695 27.3115C56.5742 26.8402 56.4765 26.3271 56.4765 25.7725C56.4765 25.2178 56.5742 24.7048 56.7695 24.2334C56.9674 23.762 57.2343 23.3662 57.5702 23.0459C57.9088 22.723 58.3059 22.4717 58.7617 22.292ZM60.2187 23.2725C60.0364 23.2725 59.8736 23.2985 59.7304 23.3506C59.5872 23.4027 59.4557 23.4886 59.3359 23.6084C59.2161 23.7282 59.1171 23.8831 59.039 24.0732C58.9635 24.2633 58.9036 24.5003 58.8593 24.7842C58.8176 25.068 58.7968 25.3975 58.7968 25.7725C58.7968 26.1475 58.8176 26.4769 58.8593 26.7607C58.9036 27.0446 58.9635 27.2816 59.039 27.4717C59.1171 27.6618 59.2161 27.8167 59.3359 27.9365C59.4557 28.0563 59.5872 28.1423 59.7304 28.1943C59.8736 28.2464 60.0364 28.2725 60.2187 28.2725C60.4478 28.2725 60.6471 28.2295 60.8163 28.1436C60.9856 28.055 61.1327 27.9144 61.2577 27.7217C61.3853 27.529 61.4804 27.2699 61.5429 26.9443C61.608 26.6188 61.6406 26.2282 61.6406 25.7725C61.6406 25.3167 61.608 24.9261 61.5429 24.6006C61.4804 24.2751 61.3853 24.016 61.2577 23.8232C61.1327 23.6305 60.9856 23.4912 60.8163 23.4053C60.6471 23.3167 60.4478 23.2725 60.2187 23.2725ZM69.8277 20.749C69.8277 20.4027 69.9488 20.1084 70.191 19.8662C70.4358 19.6214 70.7314 19.499 71.0777 19.499C71.208 19.499 71.3356 19.5186 71.4606 19.5576C71.622 19.6071 71.7626 19.6722 71.8824 19.7529C72.0048 19.8337 72.1038 19.9222 72.1793 20.0186C72.2548 20.1149 72.316 20.2269 72.3629 20.3545C72.4098 20.4795 72.441 20.6058 72.4566 20.7334C72.4749 20.8584 72.484 20.9977 72.484 21.1514C72.484 21.3102 72.4527 21.4769 72.3902 21.6514C72.3277 21.8258 72.2444 21.9912 72.1402 22.1475C72.0387 22.3011 71.9267 22.4456 71.8043 22.5811C71.6845 22.7139 71.5608 22.8311 71.4332 22.9326C71.8212 23.3154 72.0152 23.7855 72.0152 24.3428C72.0152 24.7594 71.9241 25.1305 71.7418 25.4561C71.5621 25.779 71.3134 26.0407 70.9957 26.2412C70.678 26.4391 70.3147 26.5889 69.9059 26.6904C69.4996 26.792 69.0569 26.8428 68.5777 26.8428C68.1819 26.8428 67.803 26.7985 67.441 26.71C67.204 26.7464 67.0218 26.8102 66.8941 26.9014C66.7665 26.9925 66.7027 27.0771 66.7027 27.1553C66.7027 27.2334 66.7353 27.305 66.8004 27.3701C66.8655 27.4352 66.9371 27.4678 67.0152 27.4678H69.2027C70.3043 27.4678 71.0999 27.6253 71.5895 27.9404C72.0816 28.2555 72.3277 28.7751 72.3277 29.499C72.3277 29.848 72.2848 30.1644 72.1988 30.4482C72.1129 30.7347 71.9957 30.9782 71.8473 31.1787C71.7014 31.3818 71.5205 31.5602 71.3043 31.7139C71.0882 31.8701 70.8616 31.9951 70.6246 32.0889C70.3876 32.1826 70.1233 32.2581 69.8316 32.3154C69.54 32.3727 69.2574 32.4118 68.984 32.4326C68.7106 32.4561 68.4189 32.4678 68.109 32.4678C67.6142 32.4678 67.1663 32.4131 66.7652 32.3037C66.3668 32.1969 66.0387 32.0498 65.7809 31.8623C65.5257 31.6748 65.329 31.4587 65.191 31.2139C65.053 30.9717 64.984 30.7126 64.984 30.4365C64.984 29.8714 65.3082 29.43 65.9566 29.1123C65.704 28.9847 65.5048 28.8102 65.359 28.5889C65.2132 28.3649 65.1402 28.0954 65.1402 27.7803C65.1402 27.4287 65.2418 27.1097 65.4449 26.8232C65.6481 26.5368 65.9215 26.3285 66.2652 26.1982C65.9606 25.9821 65.7223 25.7191 65.5504 25.4092C65.3811 25.0993 65.2965 24.7438 65.2965 24.3428C65.2965 24.0094 65.3551 23.71 65.4723 23.4443C65.5921 23.1787 65.7522 22.9587 65.9527 22.7842C66.1559 22.6071 66.3981 22.4613 66.6793 22.3467C66.9632 22.2295 67.2613 22.1462 67.5738 22.0967C67.8863 22.0472 68.221 22.0225 68.5777 22.0225C69.4007 22.0225 70.1025 22.1579 70.6832 22.4287C70.816 22.2751 70.9189 22.1305 70.9918 21.9951C70.6663 21.9743 70.3902 21.8441 70.1637 21.6045C69.9397 21.3649 69.8277 21.0798 69.8277 20.749ZM68.6559 23.249C68.2887 23.249 68.0009 23.3545 67.7926 23.5654C67.5869 23.7764 67.484 24.0811 67.484 24.4795C67.484 24.8805 67.5882 25.193 67.7965 25.417C68.0048 25.6383 68.2913 25.749 68.6559 25.749C69.0178 25.749 69.303 25.637 69.5113 25.4131C69.7223 25.1865 69.8277 24.8753 69.8277 24.4795C69.8277 24.0863 69.7236 23.7829 69.5152 23.5693C69.3069 23.3558 69.0205 23.249 68.6559 23.249ZM67.4645 29.3428C67.165 29.5563 67.0152 29.8167 67.0152 30.124C67.0152 30.4339 67.1116 30.641 67.3043 30.7451C67.497 30.8519 67.8694 30.9053 68.4215 30.9053C69.6715 30.9053 70.2965 30.5928 70.2965 29.9678C70.2965 29.8115 70.2314 29.6683 70.1012 29.5381C69.971 29.4079 69.8277 29.3428 69.6715 29.3428H67.4645ZM75.5579 22.292C76.0162 22.1123 76.5019 22.0225 77.0149 22.0225C77.528 22.0225 78.0123 22.1123 78.4681 22.292C78.9264 22.4717 79.3248 22.723 79.6634 23.0459C80.0019 23.3662 80.2688 23.762 80.4641 24.2334C80.6621 24.7048 80.761 25.2178 80.761 25.7725C80.761 26.3271 80.6621 26.8402 80.4641 27.3115C80.2688 27.7829 80.0019 28.18 79.6634 28.5029C79.3248 28.8232 78.9264 29.0732 78.4681 29.2529C78.0123 29.4326 77.528 29.5225 77.0149 29.5225C76.5019 29.5225 76.0162 29.4326 75.5579 29.2529C75.1022 29.0732 74.705 28.8232 74.3665 28.5029C74.0306 28.18 73.7636 27.7829 73.5657 27.3115C73.3704 26.8402 73.2727 26.3271 73.2727 25.7725C73.2727 25.2178 73.3704 24.7048 73.5657 24.2334C73.7636 23.762 74.0306 23.3662 74.3665 23.0459C74.705 22.723 75.1022 22.4717 75.5579 22.292ZM77.0149 23.2725C76.8326 23.2725 76.6699 23.2985 76.5266 23.3506C76.3834 23.4027 76.2519 23.4886 76.1321 23.6084C76.0123 23.7282 75.9134 23.8831 75.8352 24.0732C75.7597 24.2633 75.6998 24.5003 75.6556 24.7842C75.6139 25.068 75.5931 25.3975 75.5931 25.7725C75.5931 26.1475 75.6139 26.4769 75.6556 26.7607C75.6998 27.0446 75.7597 27.2816 75.8352 27.4717C75.9134 27.6618 76.0123 27.8167 76.1321 27.9365C76.2519 28.0563 76.3834 28.1423 76.5266 28.1943C76.6699 28.2464 76.8326 28.2725 77.0149 28.2725C77.2441 28.2725 77.4433 28.2295 77.6126 28.1436C77.7819 28.055 77.929 27.9144 78.054 27.7217C78.1816 27.529 78.2766 27.2699 78.3391 26.9443C78.4043 26.6188 78.4368 26.2282 78.4368 25.7725C78.4368 25.3167 78.4043 24.9261 78.3391 24.6006C78.2766 24.2751 78.1816 24.016 78.054 23.8232C77.929 23.6305 77.7819 23.4912 77.6126 23.4053C77.4433 23.3167 77.2441 23.2725 77.0149 23.2725ZM82.7685 21.3232C82.5263 21.0785 82.4052 20.7829 82.4052 20.4365C82.4052 20.0902 82.5263 19.7959 82.7685 19.5537C83.0133 19.3089 83.3089 19.1865 83.6552 19.1865C84.0016 19.1865 84.2959 19.3089 84.5381 19.5537C84.7828 19.7959 84.9052 20.0902 84.9052 20.4365C84.9052 20.7829 84.7828 21.0785 84.5381 21.3232C84.2959 21.5654 84.0016 21.6865 83.6552 21.6865C83.3089 21.6865 83.0133 21.5654 82.7685 21.3232ZM81.7802 22.1553H84.749V28.0928H85.5302V29.3428H81.7802V28.0928H82.5615V23.4053H81.7802V22.1553ZM91.7213 21.9756C92.3307 21.9756 92.8476 22.1318 93.2721 22.4443C93.6966 22.7568 94.0117 23.193 94.2174 23.7529C94.4258 24.3128 94.5299 24.9795 94.5299 25.7529C94.5299 26.318 94.4557 26.835 94.3073 27.3037C94.1614 27.7725 93.9557 28.1683 93.6901 28.4912C93.4271 28.8115 93.1081 29.0602 92.7331 29.2373C92.3607 29.4118 91.9518 29.499 91.5065 29.499C91.2825 29.499 91.0716 29.4782 90.8737 29.4365C90.6758 29.3975 90.5065 29.348 90.3659 29.2881C90.2278 29.2282 90.0963 29.154 89.9713 29.0654C89.8463 28.9769 89.7448 28.8936 89.6666 28.8154C89.5911 28.7373 89.5169 28.6501 89.444 28.5537V30.5928H90.2252V31.8428H86.4752V30.5928H87.2565V23.4053H86.4752V22.1553H88.7956L89.2682 23.0654C89.3698 22.9222 89.4857 22.792 89.6159 22.6748C90.1315 22.2087 90.8333 21.9756 91.7213 21.9756ZM89.444 27.2295C89.7409 27.7764 90.1445 28.0498 90.6549 28.0498C91.1706 28.0498 91.5534 27.848 91.8034 27.4443C92.056 27.0407 92.1823 26.4678 92.1823 25.7256C92.1823 25.3766 92.1406 25.055 92.0573 24.7607C91.9765 24.4639 91.8672 24.2178 91.7291 24.0225C91.5937 23.8271 91.4375 23.6761 91.2604 23.5693C91.0833 23.46 90.8984 23.4053 90.7057 23.4053C90.4453 23.4053 90.2135 23.4782 90.0104 23.624C89.8099 23.7673 89.6211 23.9808 89.444 24.2646V27.2295ZM97.9359 28.0967C98.0843 28.1982 98.3083 28.249 98.6077 28.249C98.876 28.249 99.0934 28.2334 99.2601 28.2021C99.4294 28.1709 99.557 28.1201 99.6429 28.0498C99.7288 27.9769 99.7861 27.8975 99.8148 27.8115C99.8434 27.723 99.8577 27.6084 99.8577 27.4678C99.8577 27.3011 99.8135 27.1579 99.7249 27.0381C99.6364 26.9183 99.5166 26.8219 99.3656 26.749C99.2145 26.6761 99.0413 26.6123 98.846 26.5576C98.6507 26.5003 98.445 26.4469 98.2288 26.3975C98.0127 26.3454 97.7965 26.2894 97.5804 26.2295C97.3643 26.167 97.1585 26.0863 96.9632 25.9873C96.7679 25.8857 96.5947 25.7673 96.4437 25.6318C96.2926 25.4938 96.1728 25.3154 96.0843 25.0967C95.9958 24.8779 95.9515 24.6266 95.9515 24.3428C95.9515 24.0824 95.9827 23.8454 96.0452 23.6318C96.1077 23.4183 96.1911 23.2373 96.2952 23.0889C96.3994 22.9378 96.5309 22.8063 96.6898 22.6943C96.8486 22.5824 97.014 22.4925 97.1859 22.4248C97.3603 22.3571 97.5557 22.3024 97.7718 22.2607C97.9906 22.2191 98.2015 22.1917 98.4046 22.1787C98.6077 22.1631 98.8291 22.1553 99.0687 22.1553C99.5895 22.1553 100.044 22.2217 100.432 22.3545C100.823 22.4873 101.13 22.6657 101.354 22.8896C101.474 22.9912 101.566 23.1149 101.631 23.2607C101.699 23.404 101.733 23.5563 101.733 23.7178C101.733 24.0199 101.626 24.2777 101.412 24.4912C101.199 24.7048 100.941 24.8115 100.639 24.8115C100.337 24.8115 100.079 24.7048 99.8656 24.4912C99.652 24.2777 99.5452 24.0199 99.5452 23.7178C99.5452 23.6084 99.5609 23.5029 99.5921 23.4014C99.4437 23.2998 99.2197 23.249 98.9202 23.249C98.5531 23.249 98.2783 23.2933 98.096 23.3818C97.9163 23.4704 97.8265 23.6344 97.8265 23.874C97.8265 24.0251 97.8643 24.1592 97.9398 24.2764C98.0153 24.391 98.1182 24.486 98.2484 24.5615C98.3786 24.6344 98.5296 24.7048 98.7015 24.7725C98.876 24.8376 99.0609 24.8936 99.2562 24.9404C99.4515 24.9847 99.652 25.0394 99.8577 25.1045C100.063 25.1696 100.264 25.236 100.459 25.3037C100.655 25.3714 100.838 25.4613 101.01 25.5732C101.185 25.6826 101.337 25.8063 101.467 25.9443C101.597 26.0824 101.7 26.2555 101.776 26.4639C101.851 26.6696 101.889 26.9001 101.889 27.1553C101.889 27.5199 101.828 27.8415 101.705 28.1201C101.586 28.3962 101.424 28.6201 101.221 28.792C101.021 28.9639 100.771 29.1045 100.471 29.2139C100.172 29.3206 99.8603 29.3949 99.5374 29.4365C99.2145 29.4782 98.8551 29.499 98.4593 29.499C97.6598 29.499 97.0153 29.3467 96.5257 29.042C96.0387 28.7373 95.7952 28.3167 95.7952 27.7803C95.7952 27.4782 95.902 27.2204 96.1156 27.0068C96.3291 26.7933 96.5869 26.6865 96.889 26.6865C97.1911 26.6865 97.4489 26.7933 97.6624 27.0068C97.876 27.2204 97.9827 27.4782 97.9827 27.7803C97.9827 27.8896 97.9671 27.9951 97.9359 28.0967ZM102.99 22.1553H105.959V26.5303C105.959 26.9417 105.995 27.262 106.068 27.4912C106.144 27.7204 106.251 27.8779 106.389 27.9639C106.529 28.0498 106.719 28.0928 106.959 28.0928C107.178 28.0928 107.402 28.0003 107.631 27.8154C107.863 27.6305 108.081 27.3727 108.287 27.042L108.303 23.4053H107.521V22.1553H110.49V28.0928H111.271V29.3428H108.846L108.299 28.2803C107.859 29.0928 107.131 29.499 106.115 29.499C105.751 29.499 105.432 29.4495 105.158 29.3506C104.885 29.2516 104.661 29.1162 104.486 28.9443C104.312 28.7699 104.17 28.5498 104.061 28.2842C103.954 28.016 103.878 27.7295 103.834 27.4248C103.792 27.1175 103.771 26.7673 103.771 26.374V23.4053H102.99V22.1553ZM121.904 21.999C122.269 21.999 122.588 22.0485 122.861 22.1475C123.134 22.2464 123.358 22.3831 123.533 22.5576C123.707 22.7295 123.848 22.9495 123.955 23.2178C124.064 23.4834 124.14 23.7699 124.181 24.0771C124.226 24.3818 124.248 24.7308 124.248 25.124V28.0928H125.029V29.3428H121.279V28.0928H122.06V24.9678C122.06 24.5563 122.022 24.236 121.947 24.0068C121.874 23.7777 121.767 23.6201 121.627 23.5342C121.489 23.4482 121.3 23.4053 121.06 23.4053C120.836 23.4053 120.606 23.5029 120.369 23.6982C120.132 23.8936 119.908 24.167 119.697 24.5186C119.71 24.7061 119.716 24.9079 119.716 25.124V28.0928H120.498V29.3428H116.748V28.0928H117.529V24.9678C117.529 24.5563 117.491 24.236 117.416 24.0068C117.343 23.7777 117.236 23.6201 117.095 23.5342C116.957 23.4482 116.769 23.4053 116.529 23.4053C116.31 23.4053 116.086 23.4977 115.857 23.6826C115.628 23.8675 115.411 24.1253 115.205 24.4561L115.185 28.0928H115.966V29.3428H112.216V28.0928H112.998V23.4053H112.216V22.1553H114.642L115.189 23.2139C115.286 23.0394 115.396 22.8831 115.521 22.7451C115.649 22.6045 115.8 22.4769 115.974 22.3623C116.151 22.2451 116.358 22.1553 116.595 22.0928C116.832 22.0303 117.091 21.999 117.373 21.999C117.688 21.999 117.969 22.0355 118.216 22.1084C118.464 22.1787 118.674 22.2842 118.845 22.4248C119.02 22.5628 119.164 22.7282 119.279 22.9209C119.394 23.111 119.485 23.3324 119.552 23.585C119.618 23.4157 119.693 23.2568 119.779 23.1084C119.868 22.96 119.98 22.8167 120.115 22.6787C120.25 22.5381 120.4 22.4196 120.564 22.3232C120.731 22.2243 120.929 22.1462 121.158 22.0889C121.387 22.029 121.636 21.999 121.904 21.999Z" fill="#ABABC4"/>
</svg>
