<svg width="141" height="55" viewBox="0 0 141 55" fill="none" xmlns="http://www.w3.org/2000/svg">
<circle cx="27" cy="27.3428" r="24" stroke="#ABABC4" stroke-width="6"/>
<circle cx="26.9999" cy="27.3427" r="11.58" stroke="#ABABC4" stroke-width="3"/>
<path d="M26.9999 38.9227H27.6898L28.1388 38.3989C29.0579 37.3266 29.4883 36.1908 29.2816 34.9638C29.1021 33.8986 28.4579 32.9955 27.9735 32.3287C27.9108 32.2423 27.848 32.1565 27.7855 32.071C26.7912 30.7105 25.8599 29.4362 25.8599 27.3427C25.8599 25.152 26.8845 23.6233 27.9059 22.0995C27.9395 22.0494 27.973 21.9994 28.0065 21.9493L28.0197 21.9297C28.4844 21.2353 29.1016 20.3132 29.2785 19.3341C29.3792 18.7768 29.3479 18.1775 29.0973 17.5781C28.8545 16.9971 28.4481 16.5169 27.9602 16.1104L27.543 15.7627H26.9999C20.6045 15.7627 15.4199 20.9472 15.4199 27.3427C15.4199 33.7382 20.6045 38.9227 26.9999 38.9227Z" fill="#ABABC4" stroke="#ABABC4" stroke-width="3"/>
<path d="M60.152 33.3428V22.0948H62.328V33.3428H60.152ZM61.752 33.3428V31.4068H67.48V33.3428H61.752ZM72.5675 33.5028C71.7888 33.5028 71.0848 33.3268 70.4555 32.9748C69.8368 32.6121 69.3408 32.1268 68.9675 31.5188C68.6048 30.9001 68.4235 30.2121 68.4235 29.4548C68.4235 28.6974 68.6048 28.0201 68.9675 27.4228C69.3302 26.8148 69.8262 26.3348 70.4555 25.9828C71.0848 25.6201 71.7835 25.4388 72.5515 25.4388C73.3408 25.4388 74.0448 25.6201 74.6635 25.9828C75.2928 26.3348 75.7888 26.8148 76.1515 27.4228C76.5142 28.0201 76.6955 28.6974 76.6955 29.4548C76.6955 30.2121 76.5142 30.9001 76.1515 31.5188C75.7888 32.1268 75.2928 32.6121 74.6635 32.9748C74.0448 33.3268 73.3462 33.5028 72.5675 33.5028ZM72.5515 31.5508C72.9462 31.5508 73.2928 31.4654 73.5915 31.2948C73.9008 31.1134 74.1355 30.8681 74.2955 30.5588C74.4662 30.2388 74.5515 29.8761 74.5515 29.4708C74.5515 29.0654 74.4662 28.7081 74.2955 28.3988C74.1248 28.0894 73.8902 27.8494 73.5915 27.6788C73.2928 27.4974 72.9462 27.4068 72.5515 27.4068C72.1675 27.4068 71.8262 27.4974 71.5275 27.6788C71.2288 27.8494 70.9942 28.0894 70.8235 28.3988C70.6528 28.7081 70.5675 29.0654 70.5675 29.4708C70.5675 29.8761 70.6528 30.2388 70.8235 30.5588C70.9942 30.8681 71.2288 31.1134 71.5275 31.2948C71.8262 31.4654 72.1675 31.5508 72.5515 31.5508ZM81.5969 36.7668C80.7755 36.7668 80.0502 36.6174 79.4209 36.3188C78.7915 36.0308 78.2902 35.6201 77.9169 35.0868L79.2449 33.7588C79.5435 34.1108 79.8742 34.3774 80.2369 34.5588C80.6102 34.7508 81.0582 34.8468 81.5809 34.8468C82.2315 34.8468 82.7435 34.6814 83.1169 34.3508C83.5009 34.0201 83.6929 33.5614 83.6929 32.9748V31.0388L84.0449 29.3428L83.7089 27.6468V25.6148H85.7889V32.9428C85.7889 33.7108 85.6075 34.3774 85.2449 34.9428C84.8929 35.5188 84.4022 35.9668 83.7729 36.2868C83.1435 36.6068 82.4182 36.7668 81.5969 36.7668ZM81.5009 33.1348C80.8075 33.1348 80.1835 32.9694 79.6289 32.6388C79.0742 32.2974 78.6369 31.8334 78.3169 31.2468C78.0075 30.6601 77.8529 30.0041 77.8529 29.2788C77.8529 28.5534 78.0075 27.9028 78.3169 27.3268C78.6369 26.7508 79.0742 26.2974 79.6289 25.9668C80.1835 25.6254 80.8075 25.4548 81.5009 25.4548C82.0769 25.4548 82.5835 25.5668 83.0209 25.7908C83.4689 26.0148 83.8209 26.3241 84.0769 26.7188C84.3329 27.1028 84.4715 27.5561 84.4929 28.0788V30.5108C84.4715 31.0228 84.3275 31.4814 84.0609 31.8868C83.8049 32.2814 83.4529 32.5908 83.0049 32.8148C82.5675 33.0281 82.0662 33.1348 81.5009 33.1348ZM81.9169 31.2308C82.3009 31.2308 82.6315 31.1508 82.9089 30.9908C83.1969 30.8201 83.4209 30.5908 83.5809 30.3028C83.7409 30.0041 83.8209 29.6681 83.8209 29.2948C83.8209 28.9108 83.7409 28.5748 83.5809 28.2868C83.4209 27.9988 83.1969 27.7748 82.9089 27.6148C82.6315 27.4441 82.3009 27.3588 81.9169 27.3588C81.5329 27.3588 81.1969 27.4441 80.9089 27.6148C80.6209 27.7748 80.3969 28.0041 80.2369 28.3028C80.0769 28.5908 79.9969 28.9214 79.9969 29.2948C79.9969 29.6574 80.0769 29.9881 80.2369 30.2868C80.3969 30.5748 80.6209 30.8041 80.9089 30.9748C81.1969 31.1454 81.5329 31.2308 81.9169 31.2308ZM91.5825 33.5028C90.8038 33.5028 90.0998 33.3268 89.4705 32.9748C88.8518 32.6121 88.3558 32.1268 87.9825 31.5188C87.6198 30.9001 87.4385 30.2121 87.4385 29.4548C87.4385 28.6974 87.6198 28.0201 87.9825 27.4228C88.3452 26.8148 88.8412 26.3348 89.4705 25.9828C90.0998 25.6201 90.7985 25.4388 91.5665 25.4388C92.3558 25.4388 93.0598 25.6201 93.6785 25.9828C94.3078 26.3348 94.8038 26.8148 95.1665 27.4228C95.5292 28.0201 95.7105 28.6974 95.7105 29.4548C95.7105 30.2121 95.5292 30.9001 95.1665 31.5188C94.8038 32.1268 94.3078 32.6121 93.6785 32.9748C93.0598 33.3268 92.3612 33.5028 91.5825 33.5028ZM91.5665 31.5508C91.9612 31.5508 92.3078 31.4654 92.6065 31.2948C92.9158 31.1134 93.1505 30.8681 93.3105 30.5588C93.4812 30.2388 93.5665 29.8761 93.5665 29.4708C93.5665 29.0654 93.4812 28.7081 93.3105 28.3988C93.1398 28.0894 92.9052 27.8494 92.6065 27.6788C92.3078 27.4974 91.9612 27.4068 91.5665 27.4068C91.1825 27.4068 90.8412 27.4974 90.5425 27.6788C90.2438 27.8494 90.0092 28.0894 89.8385 28.3988C89.6678 28.7081 89.5825 29.0654 89.5825 29.4708C89.5825 29.8761 89.6678 30.2388 89.8385 30.5588C90.0092 30.8681 90.2438 31.1134 90.5425 31.2948C90.8412 31.4654 91.1825 31.5508 91.5665 31.5508ZM97.3799 33.3428V25.6148H99.4919V33.3428H97.3799ZM98.4359 24.3668C98.0945 24.3668 97.8119 24.2548 97.5879 24.0308C97.3639 23.7961 97.2519 23.5081 97.2519 23.1668C97.2519 22.8361 97.3639 22.5534 97.5879 22.3188C97.8119 22.0841 98.0945 21.9668 98.4359 21.9668C98.7879 21.9668 99.0705 22.0841 99.2839 22.3188C99.5079 22.5534 99.6199 22.8361 99.6199 23.1668C99.6199 23.5081 99.5079 23.7961 99.2839 24.0308C99.0705 24.2548 98.7879 24.3668 98.4359 24.3668ZM105.957 33.5028C105.402 33.5028 104.901 33.3908 104.453 33.1668C104.005 32.9321 103.647 32.6174 103.381 32.2228C103.114 31.8281 102.97 31.3748 102.949 30.8628V28.1268C102.97 27.6148 103.114 27.1614 103.381 26.7668C103.658 26.3614 104.015 26.0414 104.453 25.8068C104.901 25.5721 105.402 25.4548 105.957 25.4548C106.671 25.4548 107.311 25.6308 107.877 25.9828C108.442 26.3348 108.885 26.8148 109.205 27.4228C109.535 28.0308 109.701 28.7188 109.701 29.4868C109.701 30.2441 109.535 30.9268 109.205 31.5348C108.885 32.1428 108.442 32.6228 107.877 32.9748C107.311 33.3268 106.671 33.5028 105.957 33.5028ZM105.589 31.5668C105.973 31.5668 106.314 31.4814 106.613 31.3108C106.911 31.1294 107.141 30.8841 107.301 30.5748C107.471 30.2548 107.557 29.8868 107.557 29.4708C107.557 29.0654 107.471 28.7081 107.301 28.3988C107.141 28.0788 106.911 27.8334 106.613 27.6628C106.314 27.4814 105.973 27.3908 105.589 27.3908C105.215 27.3908 104.879 27.4814 104.581 27.6628C104.282 27.8334 104.047 28.0788 103.877 28.3988C103.717 28.7081 103.637 29.0654 103.637 29.4708C103.637 29.8868 103.717 30.2548 103.877 30.5748C104.047 30.8841 104.277 31.1294 104.565 31.3108C104.863 31.4814 105.205 31.5668 105.589 31.5668ZM101.669 36.5748V25.6148H103.765V27.6468L103.413 29.5188L103.749 31.3908V36.5748H101.669ZM114.051 33.5188C113.614 33.5188 113.182 33.4601 112.755 33.3428C112.339 33.2254 111.955 33.0654 111.603 32.8628C111.251 32.6494 110.947 32.3934 110.691 32.0948L111.939 30.8308C112.206 31.1294 112.515 31.3534 112.867 31.5028C113.219 31.6521 113.608 31.7268 114.035 31.7268C114.376 31.7268 114.632 31.6788 114.803 31.5828C114.984 31.4868 115.075 31.3428 115.075 31.1508C115.075 30.9374 114.979 30.7721 114.787 30.6548C114.606 30.5374 114.366 30.4414 114.067 30.3668C113.768 30.2814 113.454 30.1908 113.123 30.0948C112.803 29.9881 112.494 29.8548 112.195 29.6948C111.896 29.5241 111.651 29.2948 111.459 29.0068C111.278 28.7081 111.187 28.3241 111.187 27.8548C111.187 27.3641 111.304 26.9374 111.539 26.5748C111.784 26.2121 112.131 25.9294 112.579 25.7268C113.027 25.5241 113.555 25.4228 114.163 25.4228C114.803 25.4228 115.379 25.5348 115.891 25.7588C116.414 25.9828 116.846 26.3188 117.187 26.7668L115.923 28.0308C115.688 27.7428 115.422 27.5348 115.123 27.4068C114.835 27.2788 114.52 27.2148 114.179 27.2148C113.87 27.2148 113.63 27.2628 113.459 27.3588C113.299 27.4548 113.219 27.5881 113.219 27.7588C113.219 27.9508 113.31 28.1001 113.491 28.2068C113.683 28.3134 113.928 28.4094 114.227 28.4948C114.526 28.5694 114.835 28.6601 115.155 28.7668C115.486 28.8628 115.795 29.0014 116.083 29.1828C116.382 29.3641 116.622 29.6041 116.803 29.9028C116.995 30.2014 117.091 30.5854 117.091 31.0548C117.091 31.8121 116.819 32.4148 116.275 32.8628C115.731 33.3001 114.99 33.5188 114.051 33.5188ZM122.12 33.5028C121.438 33.5028 120.83 33.3588 120.296 33.0708C119.774 32.7828 119.363 32.3828 119.064 31.8708C118.766 31.3588 118.616 30.7668 118.616 30.0948V25.6148H120.728V30.0468C120.728 30.3668 120.782 30.6441 120.888 30.8788C120.995 31.1028 121.155 31.2734 121.368 31.3908C121.582 31.5081 121.832 31.5668 122.12 31.5668C122.558 31.5668 122.899 31.4334 123.144 31.1668C123.39 30.9001 123.512 30.5268 123.512 30.0468V25.6148H125.608V30.0948C125.608 30.7774 125.459 31.3748 125.16 31.8868C124.872 32.3988 124.462 32.7988 123.928 33.0868C123.406 33.3641 122.803 33.5028 122.12 33.5028ZM127.597 33.3428V25.6148H129.693V33.3428H127.597ZM132.637 33.3428V28.7828C132.637 28.3348 132.493 27.9881 132.205 27.7428C131.928 27.4868 131.581 27.3588 131.165 27.3588C130.888 27.3588 130.637 27.4174 130.413 27.5348C130.189 27.6414 130.013 27.8014 129.885 28.0148C129.757 28.2281 129.693 28.4841 129.693 28.7828L128.877 28.3828C128.877 27.7854 129.005 27.2681 129.261 26.8308C129.528 26.3934 129.885 26.0574 130.333 25.8228C130.781 25.5774 131.288 25.4548 131.853 25.4548C132.387 25.4548 132.872 25.5774 133.309 25.8228C133.747 26.0574 134.093 26.3934 134.349 26.8308C134.605 27.2574 134.733 27.7748 134.733 28.3828V33.3428H132.637ZM137.677 33.3428V28.7828C137.677 28.3348 137.533 27.9881 137.245 27.7428C136.968 27.4868 136.621 27.3588 136.205 27.3588C135.939 27.3588 135.688 27.4174 135.453 27.5348C135.229 27.6414 135.053 27.8014 134.925 28.0148C134.797 28.2281 134.733 28.4841 134.733 28.7828L133.533 28.4948C133.576 27.8761 133.741 27.3428 134.029 26.8948C134.317 26.4361 134.696 26.0841 135.165 25.8388C135.635 25.5828 136.157 25.4548 136.733 25.4548C137.309 25.4548 137.827 25.5774 138.285 25.8228C138.744 26.0574 139.107 26.3988 139.373 26.8468C139.64 27.2948 139.773 27.8281 139.773 28.4468V33.3428H137.677Z" fill="#ABABC4"/>
</svg>
