<svg width="145" height="50" viewBox="0 0 145 50" fill="none" xmlns="http://www.w3.org/2000/svg">
<path fill-rule="evenodd" clip-rule="evenodd" d="M4.65427 28.9313H0.601835C2.33764 40.7221 12.4969 49.7724 24.77 49.7724C37.0431 49.7724 47.2024 40.7221 48.9382 28.9313H44.8857C43.1896 38.5031 34.8287 45.7724 24.77 45.7724C14.7113 45.7724 6.35041 38.5031 4.65427 28.9313ZM44.9601 22.2023H49C47.459 10.1932 37.1983 0.912598 24.77 0.912598C12.3417 0.912598 2.08104 10.1932 0.540039 22.2023H4.57993C6.09055 12.41 14.5547 4.9126 24.77 4.9126C34.9853 4.9126 43.4495 12.41 44.9601 22.2023ZM11.0085 22.2023C12.4361 15.9198 18.0554 11.2304 24.77 11.2304C31.4846 11.2304 37.1039 15.9198 38.5315 22.2023H34.3851C33.0641 18.1548 29.2586 15.2304 24.77 15.2304C20.2814 15.2304 16.4759 18.1548 15.1549 22.2023H11.0085ZM11.1182 28.9313C12.7059 34.9871 18.2162 39.4547 24.77 39.4547C31.3238 39.4547 36.8341 34.9871 38.4218 28.9313H34.2268C32.7789 32.7445 29.091 35.4547 24.77 35.4547C20.449 35.4547 16.7611 32.7445 15.3132 28.9313H11.1182Z" fill="#ABABC4"/>
<circle cx="24.7699" cy="25.3427" r="3.58878" fill="#ABABC4"/>
<path d="M58.056 31.3423V20.1423H60.168V29.4223H65.288V31.3423H58.056ZM70.8879 31.5663C70.0985 31.5663 69.3892 31.4063 68.7599 31.0863C68.1305 30.7663 67.6345 30.3023 67.2719 29.6943C66.9092 29.0863 66.7279 28.3556 66.7279 27.5023V27.2463C66.7279 26.393 66.9092 25.6623 67.2719 25.0543C67.6345 24.4463 68.1305 23.9823 68.7599 23.6623C69.3892 23.3423 70.0985 23.1823 70.8879 23.1823C71.6772 23.1823 72.3865 23.3423 73.0159 23.6623C73.6452 23.9823 74.1412 24.4463 74.5039 25.0543C74.8665 25.6623 75.0479 26.393 75.0479 27.2463V27.5023C75.0479 28.3556 74.8665 29.0863 74.5039 29.6943C74.1412 30.3023 73.6452 30.7663 73.0159 31.0863C72.3865 31.4063 71.6772 31.5663 70.8879 31.5663ZM70.8879 29.7743C71.5065 29.7743 72.0185 29.577 72.4239 29.1823C72.8292 28.777 73.0319 28.201 73.0319 27.4543V27.2943C73.0319 26.5476 72.8292 25.977 72.4239 25.5823C72.0292 25.177 71.5172 24.9743 70.8879 24.9743C70.2692 24.9743 69.7572 25.177 69.3519 25.5823C68.9465 25.977 68.7439 26.5476 68.7439 27.2943V27.4543C68.7439 28.201 68.9465 28.777 69.3519 29.1823C69.7572 29.577 70.2692 29.7743 70.8879 29.7743ZM76.8447 27.4063V27.1503C76.8447 26.3183 77.0101 25.609 77.3407 25.0223C77.6714 24.425 78.1087 23.9716 78.6527 23.6623C79.2074 23.3423 79.8101 23.1823 80.4607 23.1823C81.1861 23.1823 81.7354 23.3103 82.1087 23.5663C82.4821 23.8223 82.7541 24.089 82.9247 24.3663H83.2127V23.4063H85.1967V32.7503C85.1967 33.2943 85.0367 33.7263 84.7168 34.0463C84.3967 34.377 83.9701 34.5423 83.4367 34.5423H78.1247V32.7823H82.7327C83.0314 32.7823 83.1807 32.6223 83.1807 32.3023V30.2383H82.8927C82.7861 30.409 82.6367 30.585 82.4447 30.7663C82.2527 30.937 81.9967 31.081 81.6767 31.1983C81.3567 31.3156 80.9514 31.3743 80.4607 31.3743C79.8101 31.3743 79.2074 31.2196 78.6527 30.9103C78.1087 30.5903 77.6714 30.137 77.3407 29.5503C77.0101 28.953 76.8447 28.2383 76.8447 27.4063ZM81.0367 29.6143C81.6554 29.6143 82.1727 29.417 82.5887 29.0223C83.0047 28.6276 83.2127 28.073 83.2127 27.3583V27.1983C83.2127 26.473 83.0047 25.9183 82.5887 25.5343C82.1834 25.1396 81.6661 24.9423 81.0367 24.9423C80.4181 24.9423 79.9007 25.1396 79.4847 25.5343C79.0687 25.9183 78.8607 26.473 78.8607 27.1983V27.3583C78.8607 28.073 79.0687 28.6276 79.4847 29.0223C79.9007 29.417 80.4181 29.6143 81.0367 29.6143ZM91.5279 31.5663C90.7385 31.5663 90.0292 31.4063 89.3999 31.0863C88.7705 30.7663 88.2745 30.3023 87.9119 29.6943C87.5492 29.0863 87.3679 28.3556 87.3679 27.5023V27.2463C87.3679 26.393 87.5492 25.6623 87.9119 25.0543C88.2745 24.4463 88.7705 23.9823 89.3999 23.6623C90.0292 23.3423 90.7385 23.1823 91.5279 23.1823C92.3172 23.1823 93.0265 23.3423 93.6559 23.6623C94.2852 23.9823 94.7812 24.4463 95.1439 25.0543C95.5065 25.6623 95.6879 26.393 95.6879 27.2463V27.5023C95.6879 28.3556 95.5065 29.0863 95.1439 29.6943C94.7812 30.3023 94.2852 30.7663 93.6559 31.0863C93.0265 31.4063 92.3172 31.5663 91.5279 31.5663ZM91.5279 29.7743C92.1465 29.7743 92.6585 29.577 93.0639 29.1823C93.4692 28.777 93.6719 28.201 93.6719 27.4543V27.2943C93.6719 26.5476 93.4692 25.977 93.0639 25.5823C92.6692 25.177 92.1572 24.9743 91.5279 24.9743C90.9092 24.9743 90.3972 25.177 89.9919 25.5823C89.5865 25.977 89.3839 26.5476 89.3839 27.2943V27.4543C89.3839 28.201 89.5865 28.777 89.9919 29.1823C90.3972 29.577 90.9092 29.7743 91.5279 29.7743ZM97.8687 31.3423V23.4063H99.8847V31.3423H97.8687ZM98.8767 22.4783C98.5141 22.4783 98.2047 22.361 97.9487 22.1263C97.7034 21.8916 97.5807 21.5823 97.5807 21.1983C97.5807 20.8143 97.7034 20.505 97.9487 20.2703C98.2047 20.0356 98.5141 19.9183 98.8767 19.9183C99.2501 19.9183 99.5594 20.0356 99.8047 20.2703C100.05 20.505 100.173 20.8143 100.173 21.1983C100.173 21.5823 100.05 21.8916 99.8047 22.1263C99.5594 22.361 99.2501 22.4783 98.8767 22.4783ZM102.439 34.5423V23.4063H104.423V24.3663H104.711C104.892 24.057 105.175 23.785 105.559 23.5503C105.943 23.305 106.492 23.1823 107.207 23.1823C107.847 23.1823 108.439 23.3423 108.983 23.6623C109.527 23.9716 109.964 24.4303 110.295 25.0383C110.625 25.6463 110.791 26.3823 110.791 27.2463V27.5023C110.791 28.3663 110.625 29.1023 110.295 29.7103C109.964 30.3183 109.527 30.7823 108.983 31.1023C108.439 31.4116 107.847 31.5663 107.207 31.5663C106.727 31.5663 106.321 31.5076 105.991 31.3903C105.671 31.2836 105.409 31.145 105.207 30.9743C105.015 30.793 104.86 30.6116 104.743 30.4303H104.455V34.5423H102.439ZM106.599 29.8063C107.228 29.8063 107.745 29.609 108.151 29.2143C108.567 28.809 108.775 28.2223 108.775 27.4543V27.2943C108.775 26.5263 108.567 25.945 108.151 25.5503C107.735 25.145 107.217 24.9423 106.599 24.9423C105.98 24.9423 105.463 25.145 105.047 25.5503C104.631 25.945 104.423 26.5263 104.423 27.2943V27.4543C104.423 28.2223 104.631 28.809 105.047 29.2143C105.463 29.609 105.98 29.8063 106.599 29.8063ZM116.258 31.5663C115.223 31.5663 114.375 31.3423 113.714 30.8943C113.053 30.4463 112.653 29.8063 112.514 28.9743L114.37 28.4943C114.445 28.8676 114.567 29.161 114.738 29.3743C114.919 29.5876 115.138 29.7423 115.394 29.8383C115.661 29.9236 115.949 29.9663 116.258 29.9663C116.727 29.9663 117.074 29.8863 117.298 29.7263C117.522 29.5556 117.634 29.3476 117.634 29.1023C117.634 28.857 117.527 28.6703 117.314 28.5423C117.101 28.4036 116.759 28.2916 116.29 28.2063L115.842 28.1263C115.287 28.0196 114.781 27.8756 114.322 27.6943C113.863 27.5023 113.495 27.241 113.218 26.9103C112.941 26.5796 112.802 26.153 112.802 25.6303C112.802 24.841 113.09 24.2383 113.666 23.8223C114.242 23.3956 114.999 23.1823 115.938 23.1823C116.823 23.1823 117.559 23.3796 118.146 23.7743C118.733 24.169 119.117 24.6863 119.298 25.3263L117.426 25.9023C117.341 25.497 117.165 25.209 116.898 25.0383C116.642 24.8676 116.322 24.7823 115.938 24.7823C115.554 24.7823 115.261 24.8516 115.058 24.9903C114.855 25.1183 114.754 25.2996 114.754 25.5343C114.754 25.7903 114.861 25.9823 115.074 26.1103C115.287 26.2276 115.575 26.3183 115.938 26.3823L116.386 26.4623C116.983 26.569 117.522 26.713 118.002 26.8943C118.493 27.065 118.877 27.3156 119.154 27.6463C119.442 27.9663 119.586 28.4036 119.586 28.9583C119.586 29.7903 119.282 30.4356 118.674 30.8943C118.077 31.3423 117.271 31.5663 116.258 31.5663ZM124.697 31.4703C124.078 31.4703 123.534 31.3316 123.065 31.0543C122.606 30.7663 122.249 30.3716 121.993 29.8703C121.737 29.369 121.609 28.793 121.609 28.1423V23.4063H123.625V27.9823C123.625 28.5796 123.769 29.0276 124.057 29.3263C124.355 29.625 124.777 29.7743 125.321 29.7743C125.939 29.7743 126.419 29.5716 126.761 29.1663C127.102 28.7503 127.273 28.1743 127.273 27.4383V23.4063H129.289V31.3423H127.305V30.3023H127.017C126.889 30.569 126.649 30.8303 126.297 31.0863C125.945 31.3423 125.411 31.4703 124.697 31.4703ZM131.852 31.3423V23.4063H133.836V24.2703H134.124C134.263 24.0036 134.492 23.7743 134.812 23.5823C135.132 23.3796 135.553 23.2783 136.076 23.2783C136.641 23.2783 137.095 23.3903 137.436 23.6143C137.777 23.8276 138.039 24.1103 138.22 24.4623H138.508C138.689 24.121 138.945 23.8383 139.276 23.6143C139.607 23.3903 140.076 23.2783 140.684 23.2783C141.175 23.2783 141.617 23.385 142.012 23.5983C142.417 23.801 142.737 24.1156 142.972 24.5423C143.217 24.9583 143.34 25.4863 143.34 26.1263V31.3423H141.324V26.2703C141.324 25.833 141.212 25.5076 140.988 25.2943C140.764 25.0703 140.449 24.9583 140.044 24.9583C139.585 24.9583 139.228 25.1076 138.972 25.4063C138.727 25.6943 138.604 26.1103 138.604 26.6543V31.3423H136.588V26.2703C136.588 25.833 136.476 25.5076 136.252 25.2943C136.028 25.0703 135.713 24.9583 135.308 24.9583C134.849 24.9583 134.492 25.1076 134.236 25.4063C133.991 25.6943 133.868 26.1103 133.868 26.6543V31.3423H131.852Z" fill="#ABABC4"/>
</svg>
