<svg width="135" height="50" viewBox="0 0 135 50" fill="none" xmlns="http://www.w3.org/2000/svg">
<ellipse cx="25.0163" cy="45.7752" rx="4.17247" ry="4.00076" fill="#ABABC4"/>
<path fill-rule="evenodd" clip-rule="evenodd" d="M4.06763 24.3423C4.06763 13.7247 13.2616 4.90967 24.8672 4.90967C36.4728 4.90967 45.6668 13.7247 45.6668 24.3423C45.6668 27.2835 44.9613 30.0863 43.6945 32.6018C43.1787 33.6261 41.6199 32.9192 41.6199 31.7723C41.6199 22.8559 34.1061 15.7697 25.0162 15.7697C15.9263 15.7697 8.41257 22.8559 8.41257 31.7723C8.41257 33.042 6.69292 33.8731 6.11229 32.744C4.80001 30.1922 4.06763 27.3391 4.06763 24.3423ZM18.4592 43.5603C18.4592 45.2971 16.8182 46.5718 15.2058 45.9265C6.35214 42.3831 0.067627 34.1131 0.067627 24.3423C0.067627 11.2861 11.2891 0.909668 24.8672 0.909668C38.4454 0.909668 49.6668 11.2861 49.6668 24.3423C49.6668 34.1639 43.3168 42.469 34.3904 45.9813C32.8442 46.5897 31.2747 45.3701 31.2747 43.7085C31.2747 42.7758 31.7968 41.9344 32.5562 41.3928C35.6437 39.1908 37.6199 35.6767 37.6199 31.7723C37.6199 25.2218 32.0571 19.7697 25.0162 19.7697C17.9754 19.7697 12.4126 25.2218 12.4126 31.7723C12.4126 35.552 14.2646 38.966 17.184 41.1779C17.9405 41.7511 18.4592 42.6112 18.4592 43.5603Z" fill="#ABABC4"/>
<path d="M58.5947 28.3428V16.7748H60.6907V28.3428H58.5947ZM66.4999 28.5028C65.7212 28.5028 65.0172 28.3268 64.3879 27.9748C63.7692 27.6121 63.2732 27.1268 62.8999 26.5188C62.5372 25.9001 62.3559 25.2121 62.3559 24.4548C62.3559 23.6974 62.5372 23.0201 62.8999 22.4228C63.2625 21.8148 63.7585 21.3348 64.3879 20.9828C65.0172 20.6201 65.7159 20.4388 66.4839 20.4388C67.2732 20.4388 67.9772 20.6201 68.5959 20.9828C69.2252 21.3348 69.7212 21.8148 70.0839 22.4228C70.4465 23.0201 70.6279 23.6974 70.6279 24.4548C70.6279 25.2121 70.4465 25.9001 70.0839 26.5188C69.7212 27.1268 69.2252 27.6121 68.5959 27.9748C67.9772 28.3268 67.2785 28.5028 66.4999 28.5028ZM66.4839 26.5508C66.8785 26.5508 67.2252 26.4654 67.5239 26.2948C67.8332 26.1134 68.0679 25.8681 68.2279 25.5588C68.3985 25.2388 68.4839 24.8761 68.4839 24.4708C68.4839 24.0654 68.3985 23.7081 68.2279 23.3988C68.0572 23.0894 67.8225 22.8494 67.5239 22.6788C67.2252 22.4974 66.8785 22.4068 66.4839 22.4068C66.0999 22.4068 65.7585 22.4974 65.4599 22.6788C65.1612 22.8494 64.9265 23.0894 64.7559 23.3988C64.5852 23.7081 64.4999 24.0654 64.4999 24.4708C64.4999 24.8761 64.5852 25.2388 64.7559 25.5588C64.9265 25.8681 65.1612 26.1134 65.4599 26.2948C65.7585 26.4654 66.0999 26.5508 66.4839 26.5508ZM75.5292 31.7668C74.7079 31.7668 73.9826 31.6174 73.3532 31.3188C72.7239 31.0308 72.2226 30.6201 71.8492 30.0868L73.1772 28.7588C73.4759 29.1108 73.8066 29.3774 74.1692 29.5588C74.5426 29.7508 74.9906 29.8468 75.5132 29.8468C76.1639 29.8468 76.6759 29.6814 77.0492 29.3508C77.4332 29.0201 77.6252 28.5614 77.6252 27.9748V26.0388L77.9772 24.3428L77.6412 22.6468V20.6148H79.7212V27.9428C79.7212 28.7108 79.5399 29.3774 79.1772 29.9428C78.8252 30.5188 78.3346 30.9668 77.7052 31.2868C77.0759 31.6068 76.3506 31.7668 75.5292 31.7668ZM75.4332 28.1348C74.7399 28.1348 74.1159 27.9694 73.5612 27.6388C73.0066 27.2974 72.5692 26.8334 72.2492 26.2468C71.9399 25.6601 71.7852 25.0041 71.7852 24.2788C71.7852 23.5534 71.9399 22.9028 72.2492 22.3268C72.5692 21.7508 73.0066 21.2974 73.5612 20.9668C74.1159 20.6254 74.7399 20.4548 75.4332 20.4548C76.0092 20.4548 76.5159 20.5668 76.9532 20.7908C77.4012 21.0148 77.7532 21.3241 78.0092 21.7188C78.2652 22.1028 78.4039 22.5561 78.4252 23.0788V25.5108C78.4039 26.0228 78.2599 26.4814 77.9932 26.8868C77.7372 27.2814 77.3852 27.5908 76.9372 27.8148C76.4999 28.0281 75.9986 28.1348 75.4332 28.1348ZM75.8492 26.2308C76.2332 26.2308 76.5639 26.1508 76.8412 25.9908C77.1292 25.8201 77.3532 25.5908 77.5132 25.3028C77.6732 25.0041 77.7532 24.6681 77.7532 24.2948C77.7532 23.9108 77.6732 23.5748 77.5132 23.2868C77.3532 22.9988 77.1292 22.7748 76.8412 22.6148C76.5639 22.4441 76.2332 22.3588 75.8492 22.3588C75.4652 22.3588 75.1292 22.4441 74.8412 22.6148C74.5532 22.7748 74.3292 23.0041 74.1692 23.3028C74.0092 23.5908 73.9292 23.9214 73.9292 24.2948C73.9292 24.6574 74.0092 24.9881 74.1692 25.2868C74.3292 25.5748 74.5532 25.8041 74.8412 25.9748C75.1292 26.1454 75.4652 26.2308 75.8492 26.2308ZM85.5149 28.5028C84.7362 28.5028 84.0322 28.3268 83.4029 27.9748C82.7842 27.6121 82.2882 27.1268 81.9149 26.5188C81.5522 25.9001 81.3709 25.2121 81.3709 24.4548C81.3709 23.6974 81.5522 23.0201 81.9149 22.4228C82.2775 21.8148 82.7735 21.3348 83.4029 20.9828C84.0322 20.6201 84.7309 20.4388 85.4989 20.4388C86.2882 20.4388 86.9922 20.6201 87.6109 20.9828C88.2402 21.3348 88.7362 21.8148 89.0989 22.4228C89.4615 23.0201 89.6429 23.6974 89.6429 24.4548C89.6429 25.2121 89.4615 25.9001 89.0989 26.5188C88.7362 27.1268 88.2402 27.6121 87.6109 27.9748C86.9922 28.3268 86.2935 28.5028 85.5149 28.5028ZM85.4989 26.5508C85.8935 26.5508 86.2402 26.4654 86.5389 26.2948C86.8482 26.1134 87.0829 25.8681 87.2429 25.5588C87.4135 25.2388 87.4989 24.8761 87.4989 24.4708C87.4989 24.0654 87.4135 23.7081 87.2429 23.3988C87.0722 23.0894 86.8375 22.8494 86.5389 22.6788C86.2402 22.4974 85.8935 22.4068 85.4989 22.4068C85.1149 22.4068 84.7735 22.4974 84.4749 22.6788C84.1762 22.8494 83.9415 23.0894 83.7709 23.3988C83.6002 23.7081 83.5149 24.0654 83.5149 24.4708C83.5149 24.8761 83.6002 25.2388 83.7709 25.5588C83.9415 25.8681 84.1762 26.1134 84.4749 26.2948C84.7735 26.4654 85.1149 26.5508 85.4989 26.5508ZM91.3122 28.3428V20.6148H93.4242V28.3428H91.3122ZM92.3682 19.3668C92.0269 19.3668 91.7442 19.2548 91.5202 19.0308C91.2962 18.7961 91.1842 18.5081 91.1842 18.1668C91.1842 17.8361 91.2962 17.5534 91.5202 17.3188C91.7442 17.0841 92.0269 16.9668 92.3682 16.9668C92.7202 16.9668 93.0029 17.0841 93.2162 17.3188C93.4402 17.5534 93.5522 17.8361 93.5522 18.1668C93.5522 18.5081 93.4402 18.7961 93.2162 19.0308C93.0029 19.2548 92.7202 19.3668 92.3682 19.3668ZM99.889 28.5028C99.3343 28.5028 98.833 28.3908 98.385 28.1668C97.937 27.9321 97.5797 27.6174 97.313 27.2228C97.0463 26.8281 96.9023 26.3748 96.881 25.8628V23.1268C96.9023 22.6148 97.0463 22.1614 97.313 21.7668C97.5903 21.3614 97.9477 21.0414 98.385 20.8068C98.833 20.5721 99.3343 20.4548 99.889 20.4548C100.604 20.4548 101.244 20.6308 101.809 20.9828C102.374 21.3348 102.817 21.8148 103.137 22.4228C103.468 23.0308 103.633 23.7188 103.633 24.4868C103.633 25.2441 103.468 25.9268 103.137 26.5348C102.817 27.1428 102.374 27.6228 101.809 27.9748C101.244 28.3268 100.604 28.5028 99.889 28.5028ZM99.521 26.5668C99.905 26.5668 100.246 26.4814 100.545 26.3108C100.844 26.1294 101.073 25.8841 101.233 25.5748C101.404 25.2548 101.489 24.8868 101.489 24.4708C101.489 24.0654 101.404 23.7081 101.233 23.3988C101.073 23.0788 100.844 22.8334 100.545 22.6628C100.246 22.4814 99.905 22.3908 99.521 22.3908C99.1477 22.3908 98.8117 22.4814 98.513 22.6628C98.2143 22.8334 97.9797 23.0788 97.809 23.3988C97.649 23.7081 97.569 24.0654 97.569 24.4708C97.569 24.8868 97.649 25.2548 97.809 25.5748C97.9797 25.8841 98.209 26.1294 98.497 26.3108C98.7957 26.4814 99.137 26.5668 99.521 26.5668ZM95.601 31.5748V20.6148H97.697V22.6468L97.345 24.5188L97.681 26.3908V31.5748H95.601ZM107.983 28.5188C107.546 28.5188 107.114 28.4601 106.687 28.3428C106.271 28.2254 105.887 28.0654 105.535 27.8628C105.183 27.6494 104.879 27.3934 104.623 27.0948L105.871 25.8308C106.138 26.1294 106.447 26.3534 106.799 26.5028C107.151 26.6521 107.541 26.7268 107.967 26.7268C108.309 26.7268 108.565 26.6788 108.735 26.5828C108.917 26.4868 109.007 26.3428 109.007 26.1508C109.007 25.9374 108.911 25.7721 108.719 25.6548C108.538 25.5374 108.298 25.4414 107.999 25.3668C107.701 25.2814 107.386 25.1908 107.055 25.0948C106.735 24.9881 106.426 24.8548 106.127 24.6948C105.829 24.5241 105.583 24.2948 105.391 24.0068C105.21 23.7081 105.119 23.3241 105.119 22.8548C105.119 22.3641 105.237 21.9374 105.471 21.5748C105.717 21.2121 106.063 20.9294 106.511 20.7268C106.959 20.5241 107.487 20.4228 108.095 20.4228C108.735 20.4228 109.311 20.5348 109.823 20.7588C110.346 20.9828 110.778 21.3188 111.119 21.7668L109.855 23.0308C109.621 22.7428 109.354 22.5348 109.055 22.4068C108.767 22.2788 108.453 22.2148 108.111 22.2148C107.802 22.2148 107.562 22.2628 107.391 22.3588C107.231 22.4548 107.151 22.5881 107.151 22.7588C107.151 22.9508 107.242 23.1001 107.423 23.2068C107.615 23.3134 107.861 23.4094 108.159 23.4948C108.458 23.5694 108.767 23.6601 109.087 23.7668C109.418 23.8628 109.727 24.0014 110.015 24.1828C110.314 24.3641 110.554 24.6041 110.735 24.9028C110.927 25.2014 111.023 25.5854 111.023 26.0548C111.023 26.8121 110.751 27.4148 110.207 27.8628C109.663 28.3001 108.922 28.5188 107.983 28.5188ZM116.053 28.5028C115.37 28.5028 114.762 28.3588 114.229 28.0708C113.706 27.7828 113.295 27.3828 112.997 26.8708C112.698 26.3588 112.549 25.7668 112.549 25.0948V20.6148H114.661V25.0468C114.661 25.3668 114.714 25.6441 114.821 25.8788C114.927 26.1028 115.087 26.2734 115.301 26.3908C115.514 26.5081 115.765 26.5668 116.053 26.5668C116.49 26.5668 116.831 26.4334 117.077 26.1668C117.322 25.9001 117.445 25.5268 117.445 25.0468V20.6148H119.541V25.0948C119.541 25.7774 119.391 26.3748 119.093 26.8868C118.805 27.3988 118.394 27.7988 117.861 28.0868C117.338 28.3641 116.735 28.5028 116.053 28.5028ZM121.53 28.3428V20.6148H123.626V28.3428H121.53ZM126.57 28.3428V23.7828C126.57 23.3348 126.426 22.9881 126.138 22.7428C125.86 22.4868 125.514 22.3588 125.098 22.3588C124.82 22.3588 124.57 22.4174 124.346 22.5348C124.122 22.6414 123.946 22.8014 123.818 23.0148C123.69 23.2281 123.626 23.4841 123.626 23.7828L122.81 23.3828C122.81 22.7854 122.938 22.2681 123.194 21.8308C123.46 21.3934 123.818 21.0574 124.266 20.8228C124.714 20.5774 125.22 20.4548 125.786 20.4548C126.319 20.4548 126.804 20.5774 127.242 20.8228C127.679 21.0574 128.026 21.3934 128.282 21.8308C128.538 22.2574 128.666 22.7748 128.666 23.3828V28.3428H126.57ZM131.61 28.3428V23.7828C131.61 23.3348 131.466 22.9881 131.178 22.7428C130.9 22.4868 130.554 22.3588 130.138 22.3588C129.871 22.3588 129.62 22.4174 129.386 22.5348C129.162 22.6414 128.986 22.8014 128.858 23.0148C128.73 23.2281 128.666 23.4841 128.666 23.7828L127.466 23.4948C127.508 22.8761 127.674 22.3428 127.962 21.8948C128.25 21.4361 128.628 21.0841 129.098 20.8388C129.567 20.5828 130.09 20.4548 130.666 20.4548C131.242 20.4548 131.759 20.5774 132.218 20.8228C132.676 21.0574 133.039 21.3988 133.306 21.8468C133.572 22.2948 133.706 22.8281 133.706 23.4468V28.3428H131.61Z" fill="#ABABC4"/>
<path d="M116.797 37.3968C116.642 37.3968 116.509 37.3418 116.397 37.232C116.285 37.1202 116.229 36.9858 116.229 36.8286C116.229 36.6733 116.285 36.5407 116.397 36.4308C116.509 36.3191 116.642 36.2632 116.797 36.2632C116.953 36.2632 117.086 36.3191 117.198 36.4308C117.31 36.5407 117.366 36.6733 117.366 36.8286C117.366 36.9327 117.339 37.0284 117.286 37.1155C117.235 37.2007 117.167 37.2689 117.082 37.32C116.996 37.3712 116.902 37.3968 116.797 37.3968ZM120.341 37.4308C119.919 37.4308 119.555 37.3352 119.251 37.1439C118.948 36.9507 118.715 36.6846 118.552 36.3456C118.389 36.0066 118.307 35.6183 118.307 35.1808C118.307 34.7377 118.391 34.3466 118.557 34.0075C118.724 33.6666 118.959 33.4005 119.262 33.2093C119.565 33.018 119.922 32.9223 120.333 32.9223C120.664 32.9223 120.96 32.9839 121.219 33.107C121.479 33.2282 121.688 33.3986 121.847 33.6183C122.008 33.838 122.104 34.0947 122.134 34.3882H121.307C121.262 34.1837 121.158 34.0075 120.995 33.8598C120.834 33.7121 120.618 33.6382 120.347 33.6382C120.11 33.6382 119.903 33.7007 119.725 33.8257C119.549 33.9488 119.412 34.125 119.313 34.3541C119.215 34.5814 119.165 34.8503 119.165 35.161C119.165 35.4791 119.214 35.7538 119.31 35.9848C119.407 36.2159 119.543 36.3949 119.719 36.5218C119.897 36.6486 120.107 36.7121 120.347 36.7121C120.508 36.7121 120.654 36.6827 120.785 36.624C120.917 36.5634 121.028 36.4772 121.117 36.3655C121.208 36.2538 121.271 36.1193 121.307 35.9621H122.134C122.104 36.2443 122.012 36.4962 121.859 36.7178C121.705 36.9394 121.5 37.1136 121.242 37.2405C120.986 37.3674 120.686 37.4308 120.341 37.4308ZM124.881 37.4308C124.471 37.4308 124.114 37.3371 123.81 37.1496C123.505 36.9621 123.268 36.6998 123.099 36.3627C122.931 36.0255 122.846 35.6316 122.846 35.1808C122.846 34.7282 122.931 34.3324 123.099 33.9933C123.268 33.6543 123.505 33.3911 123.81 33.2036C124.114 33.0161 124.471 32.9223 124.881 32.9223C125.29 32.9223 125.647 33.0161 125.952 33.2036C126.256 33.3911 126.493 33.6543 126.662 33.9933C126.83 34.3324 126.915 34.7282 126.915 35.1808C126.915 35.6316 126.83 36.0255 126.662 36.3627C126.493 36.6998 126.256 36.9621 125.952 37.1496C125.647 37.3371 125.29 37.4308 124.881 37.4308ZM124.883 36.7178C125.149 36.7178 125.368 36.6477 125.542 36.5075C125.717 36.3674 125.845 36.1808 125.929 35.9479C126.014 35.7149 126.057 35.4583 126.057 35.178C126.057 34.8996 126.014 34.6439 125.929 34.411C125.845 34.1761 125.717 33.9877 125.542 33.8456C125.368 33.7036 125.149 33.6325 124.883 33.6325C124.616 33.6325 124.395 33.7036 124.219 33.8456C124.044 33.9877 123.915 34.1761 123.829 34.411C123.746 34.6439 123.704 34.8996 123.704 35.178C123.704 35.4583 123.746 35.7149 123.829 35.9479C123.915 36.1808 124.044 36.3674 124.219 36.5075C124.395 36.6477 124.616 36.7178 124.883 36.7178ZM127.863 37.3428V32.9791H128.678V33.6894H128.732C128.823 33.4488 128.972 33.2613 129.178 33.1269C129.385 32.9905 129.632 32.9223 129.92 32.9223C130.211 32.9223 130.456 32.9905 130.653 33.1269C130.851 33.2632 130.998 33.4507 131.093 33.6894H131.138C131.243 33.4564 131.408 33.2708 131.635 33.1325C131.863 32.9924 132.134 32.9223 132.448 32.9223C132.844 32.9223 133.167 33.0464 133.417 33.2945C133.669 33.5426 133.795 33.9166 133.795 34.4166V37.3428H132.945V34.4962C132.945 34.2007 132.865 33.9867 132.704 33.8541C132.543 33.7216 132.35 33.6553 132.127 33.6553C131.85 33.6553 131.635 33.7405 131.482 33.911C131.329 34.0795 131.252 34.2964 131.252 34.5615V37.3428H130.405V34.4422C130.405 34.2055 130.332 34.0151 130.184 33.8712C130.036 33.7272 129.844 33.6553 129.607 33.6553C129.446 33.6553 129.297 33.6979 129.161 33.7831C129.027 33.8664 128.918 33.9829 128.834 34.1325C128.753 34.2822 128.712 34.4555 128.712 34.6524V37.3428H127.863Z" fill="#ABABC4"/>
</svg>
