<svg width="137" height="55" viewBox="0 0 137 55" fill="none" xmlns="http://www.w3.org/2000/svg">
<path d="M11.487 18.8856H26.0549V35.4571C26.0549 38.108 23.9058 40.2571 21.2549 40.2571H3.26326V3.34277H22.4633C30.4162 3.34277 36.8633 9.78987 36.8633 17.7428V36.9428C36.8633 44.8957 30.4162 51.3428 22.4633 51.3428H1.34326" stroke="#ABABC4" stroke-width="6"/>
<path d="M54.8633 34.4228C54.6179 34.4121 54.2126 34.4014 53.6473 34.3908C53.0819 34.3801 52.3939 34.3694 51.5833 34.3588C50.7833 34.3588 49.8979 34.3534 48.9273 34.3428C47.9673 34.3428 46.9699 34.3428 45.9353 34.3428C45.8393 32.1454 45.7699 30.0548 45.7273 28.0708C45.6846 26.0868 45.6633 24.1561 45.6633 22.2788C45.9086 22.2681 46.3353 22.2628 46.9433 22.2628C47.5513 22.2521 48.2339 22.2468 48.9913 22.2468C48.9913 23.0254 48.9859 23.8841 48.9753 24.8228C48.9753 25.7614 48.9646 26.7214 48.9433 27.7028C48.9326 28.6841 48.9166 29.6441 48.8953 30.5828C48.8846 31.5108 48.8633 32.3694 48.8313 33.1588C49.9406 33.1588 51.0179 33.1481 52.0633 33.1268C53.1086 33.0948 54.0259 33.0574 54.8153 33.0148L54.8633 34.4228ZM59.9253 34.4228C59.0826 34.4228 58.3199 34.2254 57.6373 33.8308C56.9546 33.4361 56.4106 32.9028 56.0053 32.2308C55.6106 31.5588 55.4133 30.8121 55.4133 29.9908C55.4133 29.3401 55.5359 28.7321 55.7813 28.1668C56.0266 27.6014 56.3679 27.1054 56.8053 26.6788C57.2533 26.2414 57.7653 25.9054 58.3413 25.6708C58.9173 25.4254 59.5306 25.3028 60.1813 25.3028C61.0239 25.3028 61.7866 25.5001 62.4693 25.8948C63.1519 26.2894 63.6906 26.8228 64.0853 27.4948C64.4906 28.1561 64.6933 28.9028 64.6933 29.7348C64.6933 30.3854 64.5706 30.9934 64.3253 31.5588C64.0799 32.1241 63.7333 32.6254 63.2853 33.0628C62.8479 33.4894 62.3413 33.8254 61.7653 34.0708C61.1999 34.3054 60.5866 34.4228 59.9253 34.4228ZM60.3893 33.1268C60.9546 33.1268 61.3973 32.8868 61.7173 32.4068C62.0373 31.9161 62.1973 31.2388 62.1973 30.3748C62.1973 29.6494 62.0906 29.0041 61.8773 28.4388C61.6639 27.8734 61.3706 27.4254 60.9973 27.0948C60.6239 26.7641 60.1973 26.5988 59.7173 26.5988C59.1519 26.5988 58.7093 26.8441 58.3893 27.3348C58.0693 27.8148 57.9093 28.4868 57.9093 29.3508C57.9093 30.0654 58.0159 30.7108 58.2293 31.2868C58.4426 31.8521 58.7359 32.3001 59.1093 32.6308C59.4933 32.9614 59.9199 33.1268 60.3893 33.1268ZM67.3917 36.4228L67.3437 35.1428C68.2077 35.1001 68.9277 35.0094 69.5037 34.8708C70.0797 34.7321 70.5437 34.5241 70.8957 34.2468C71.2477 33.9588 71.5143 33.5641 71.6957 33.0628C71.0023 33.5428 70.245 33.7828 69.4237 33.7828C68.741 33.7828 68.1383 33.6174 67.6157 33.2868C67.093 32.9561 66.6877 32.4974 66.3997 31.9108C66.1117 31.3134 65.9677 30.6254 65.9677 29.8468C65.9677 29.0041 66.1277 28.2414 66.4477 27.5588C66.7783 26.8654 67.221 26.3161 67.7757 25.9108C68.3303 25.5054 68.9437 25.3028 69.6157 25.3028C69.957 25.3028 70.3143 25.3561 70.6877 25.4628C71.0717 25.5694 71.4557 25.7134 71.8397 25.8948C71.829 25.7668 71.8183 25.6334 71.8077 25.4948C72.277 25.4734 72.7197 25.4574 73.1357 25.4468C73.5623 25.4361 74.037 25.4308 74.5597 25.4308C74.5917 26.3374 74.6077 27.1481 74.6077 27.8628C74.6077 29.2494 74.5437 30.4388 74.4157 31.4308C74.2877 32.4228 74.069 33.2441 73.7597 33.8948C73.4503 34.5348 73.0183 35.0414 72.4637 35.4148C71.9197 35.7881 71.2317 36.0494 70.3997 36.1988C69.5677 36.3481 68.565 36.4228 67.3917 36.4228ZM68.3837 29.3028C68.3837 30.2094 68.565 30.9294 68.9277 31.4628C69.2903 31.9961 69.7757 32.2628 70.3837 32.2628C71.1837 32.2628 71.733 31.8041 72.0317 30.8868C72.0423 30.6414 72.0477 30.3748 72.0477 30.0868C72.0477 29.7881 72.0423 29.4734 72.0317 29.1428C72.021 28.8121 72.005 28.4388 71.9837 28.0228C71.781 27.6174 71.5037 27.2921 71.1517 27.0468C70.8103 26.7908 70.4477 26.6628 70.0637 26.6628C69.541 26.6628 69.1303 26.8974 68.8317 27.3668C68.533 27.8361 68.3837 28.4814 68.3837 29.3028ZM80.409 34.4228C79.5664 34.4228 78.8037 34.2254 78.121 33.8308C77.4384 33.4361 76.8944 32.9028 76.489 32.2308C76.0944 31.5588 75.897 30.8121 75.897 29.9908C75.897 29.3401 76.0197 28.7321 76.265 28.1668C76.5104 27.6014 76.8517 27.1054 77.289 26.6788C77.737 26.2414 78.249 25.9054 78.825 25.6708C79.401 25.4254 80.0144 25.3028 80.665 25.3028C81.5077 25.3028 82.2704 25.5001 82.953 25.8948C83.6357 26.2894 84.1744 26.8228 84.569 27.4948C84.9744 28.1561 85.177 28.9028 85.177 29.7348C85.177 30.3854 85.0544 30.9934 84.809 31.5588C84.5637 32.1241 84.217 32.6254 83.769 33.0628C83.3317 33.4894 82.825 33.8254 82.249 34.0708C81.6837 34.3054 81.0704 34.4228 80.409 34.4228ZM80.873 33.1268C81.4384 33.1268 81.881 32.8868 82.201 32.4068C82.521 31.9161 82.681 31.2388 82.681 30.3748C82.681 29.6494 82.5744 29.0041 82.361 28.4388C82.1477 27.8734 81.8544 27.4254 81.481 27.0948C81.1077 26.7641 80.681 26.5988 80.201 26.5988C79.6357 26.5988 79.193 26.8441 78.873 27.3348C78.553 27.8148 78.393 28.4868 78.393 29.3508C78.393 30.0654 78.4997 30.7108 78.713 31.2868C78.9264 31.8521 79.2197 32.3001 79.593 32.6308C79.977 32.9614 80.4037 33.1268 80.873 33.1268ZM86.7874 24.3428V22.1828H89.5074V24.3428H86.7874ZM86.8514 34.3748C86.8407 34.0228 86.8301 33.5481 86.8194 32.9508C86.8087 32.3428 86.7981 31.6494 86.7874 30.8708C86.7874 30.0814 86.7821 29.2388 86.7714 28.3428C86.7714 27.4468 86.7714 26.5294 86.7714 25.5908C87.2514 25.5908 87.7527 25.5961 88.2754 25.6068C88.8087 25.6174 89.2247 25.6334 89.5234 25.6548C89.5234 26.4334 89.5181 27.2494 89.5074 28.1028C89.5074 28.9561 89.5021 29.7881 89.4914 30.5988C89.4914 31.3988 89.4861 32.1241 89.4754 32.7748C89.4647 33.4254 89.4541 33.9374 89.4434 34.3108C88.9527 34.3321 88.4834 34.3481 88.0354 34.3588C87.5874 34.3694 87.1927 34.3748 86.8514 34.3748ZM94.4353 36.2148C94.0406 36.2148 93.5926 36.2041 93.0913 36.1828C92.6006 36.1721 92.1846 36.1614 91.8433 36.1508C91.8326 35.8521 91.8219 35.4041 91.8113 34.8068C91.8113 34.2094 91.8059 33.5214 91.7953 32.7428C91.7846 31.9534 91.7739 31.1321 91.7633 30.2788C91.7633 29.4148 91.7633 28.5721 91.7633 27.7508C91.7633 26.9188 91.7633 26.1668 91.7633 25.4948C91.9979 25.4841 92.2806 25.4734 92.6113 25.4628C92.9419 25.4521 93.2779 25.4468 93.6193 25.4468C93.9713 25.4361 94.2699 25.4308 94.5153 25.4308C94.5153 25.6014 94.5153 25.7774 94.5153 25.9588C95.1553 25.5214 95.8273 25.3028 96.5313 25.3028C97.2139 25.3028 97.8219 25.4948 98.3553 25.8788C98.8886 26.2628 99.3099 26.7908 99.6193 27.4628C99.9286 28.1241 100.083 28.8814 100.083 29.7348C100.083 30.5988 99.9179 31.3881 99.5873 32.1028C99.2673 32.8068 98.8299 33.3721 98.2753 33.7988C97.7313 34.2148 97.1179 34.4228 96.4353 34.4228C95.8166 34.4228 95.1606 34.2414 94.4673 33.8788C94.4673 34.4014 94.4619 34.8654 94.4513 35.2708C94.4513 35.6761 94.4459 35.9908 94.4353 36.2148ZM95.7953 26.6148C95.3366 26.6148 94.9099 26.8761 94.5153 27.3988C94.5153 28.1348 94.5099 28.9028 94.4993 29.7028C94.4993 30.4921 94.4939 31.2601 94.4833 32.0068C94.6646 32.3588 94.8939 32.6361 95.1713 32.8388C95.4486 33.0414 95.7473 33.1428 96.0673 33.1428C96.5686 33.1428 96.9579 32.8868 97.2353 32.3748C97.5233 31.8628 97.6673 31.1534 97.6673 30.2468C97.6673 29.5534 97.5819 28.9348 97.4113 28.3908C97.2513 27.8361 97.0326 27.4041 96.7553 27.0948C96.4779 26.7748 96.1579 26.6148 95.7953 26.6148ZM105.933 34.4228C105.496 34.4228 105 34.3908 104.445 34.3268C103.89 34.2521 103.341 34.1614 102.797 34.0548C102.253 33.9374 101.773 33.8148 101.357 33.6868L102.061 31.7508C102.466 31.9854 102.914 32.2094 103.405 32.4228C103.906 32.6254 104.397 32.7908 104.877 32.9188C105.357 33.0468 105.768 33.1108 106.109 33.1108C106.568 33.1108 106.904 33.0094 107.117 32.8068C107.33 32.5934 107.437 32.3694 107.437 32.1348C107.437 31.8574 107.32 31.6281 107.085 31.4468C106.85 31.2548 106.541 31.0894 106.157 30.9508C105.784 30.8014 105.378 30.6628 104.941 30.5348C104.546 30.4174 104.152 30.2894 103.757 30.1508C103.362 30.0121 103 29.8521 102.669 29.6708C102.349 29.4788 102.088 29.2494 101.885 28.9828C101.693 28.7161 101.597 28.3961 101.597 28.0228C101.597 27.5428 101.768 27.1001 102.109 26.6948C102.45 26.2788 102.936 25.9428 103.565 25.6868C104.194 25.4308 104.941 25.3028 105.805 25.3028C106.509 25.3028 107.218 25.3934 107.933 25.5748C108.658 25.7561 109.32 26.0121 109.917 26.3428L109.021 27.8628C108.434 27.4894 107.864 27.1854 107.309 26.9508C106.765 26.7054 106.248 26.5828 105.757 26.5828C105.288 26.5828 104.93 26.6841 104.685 26.8868C104.44 27.0894 104.317 27.2974 104.317 27.5108C104.317 27.7134 104.413 27.8841 104.605 28.0228C104.797 28.1508 105.053 28.2628 105.373 28.3588C105.704 28.4548 106.056 28.5508 106.429 28.6468C106.845 28.7428 107.272 28.8601 107.709 28.9988C108.146 29.1268 108.552 29.2921 108.925 29.4948C109.298 29.6974 109.597 29.9588 109.821 30.2788C110.045 30.5881 110.157 30.9774 110.157 31.4468C110.157 32.0228 109.976 32.5348 109.613 32.9828C109.25 33.4308 108.749 33.7828 108.109 34.0388C107.48 34.2948 106.754 34.4228 105.933 34.4228ZM115.323 34.4228C112.944 34.4228 111.755 32.2521 111.755 27.9108C111.755 27.1854 111.787 26.4068 111.851 25.5748C112.107 25.5534 112.454 25.5374 112.891 25.5268C113.339 25.5161 113.91 25.5108 114.603 25.5108C114.539 26.5774 114.507 27.5268 114.507 28.3588C114.507 30.0014 114.635 31.2121 114.891 31.9908C115.158 32.7588 115.563 33.1428 116.107 33.1428C116.47 33.1428 116.832 32.9934 117.195 32.6948C117.568 32.3961 117.888 32.0014 118.155 31.5108C118.144 30.6681 118.134 29.7241 118.123 28.6788C118.123 27.6228 118.123 26.5401 118.123 25.4308C118.56 25.4308 119.04 25.4361 119.563 25.4468C120.096 25.4574 120.534 25.4734 120.875 25.4948C120.875 26.3588 120.87 27.2334 120.859 28.1188C120.859 29.0041 120.854 29.8521 120.843 30.6628C120.843 31.4734 120.838 32.1988 120.827 32.8388C120.816 33.4681 120.806 33.9588 120.795 34.3108C120.379 34.3321 119.947 34.3481 119.499 34.3588C119.051 34.3694 118.619 34.3748 118.203 34.3748C118.192 34.1188 118.182 33.7881 118.171 33.3828C117.254 34.0761 116.304 34.4228 115.323 34.4228ZM125.386 34.3748C125.151 34.3748 124.863 34.3694 124.522 34.3588C124.181 34.3588 123.85 34.3534 123.53 34.3428C123.221 34.3321 122.975 34.3214 122.794 34.3108C122.794 32.9774 122.794 31.7188 122.794 30.5348C122.805 29.3508 122.815 28.3161 122.826 27.4308C122.847 26.5348 122.863 25.8681 122.874 25.4308C123.215 25.4308 123.615 25.4361 124.074 25.4468C124.533 25.4574 124.943 25.4734 125.306 25.4948C125.317 25.7188 125.327 26.0228 125.338 26.4068C126.213 25.6708 127.087 25.3028 127.962 25.3028C128.41 25.3028 128.799 25.3988 129.13 25.5908C129.461 25.7828 129.738 26.0921 129.962 26.5188C130.805 25.7081 131.722 25.3028 132.714 25.3028C133.855 25.3028 134.698 25.8948 135.242 27.0788C135.797 28.2628 136.074 30.0868 136.074 32.5508C136.074 32.8388 136.069 33.1214 136.058 33.3988C136.058 33.6654 136.047 33.9588 136.026 34.2788C135.727 34.3214 135.327 34.3534 134.826 34.3748C134.325 34.3961 133.807 34.4068 133.274 34.4068C133.306 33.9588 133.327 33.4788 133.338 32.9668C133.359 32.4548 133.37 31.9481 133.37 31.4468C133.37 29.7934 133.269 28.5721 133.066 27.7828C132.874 26.9828 132.575 26.5828 132.17 26.5828C131.893 26.5828 131.589 26.7481 131.258 27.0788C130.938 27.4094 130.682 27.8201 130.49 28.3108C130.575 28.8121 130.634 29.3934 130.666 30.0548C130.709 30.7054 130.73 31.4361 130.73 32.2468C130.73 32.9508 130.714 33.6388 130.682 34.3108C130.469 34.3214 130.197 34.3321 129.866 34.3428C129.546 34.3534 129.21 34.3588 128.858 34.3588C128.517 34.3694 128.207 34.3748 127.93 34.3748C127.962 33.8094 127.983 33.2014 127.994 32.5508C128.015 31.9001 128.026 31.2814 128.026 30.6948C128.026 29.6814 127.994 28.8761 127.93 28.2788C127.877 27.6708 127.781 27.2388 127.642 26.9828C127.514 26.7161 127.333 26.5828 127.098 26.5828C126.81 26.5828 126.501 26.7534 126.17 27.0948C125.85 27.4361 125.578 27.8574 125.354 28.3588C125.365 29.1801 125.37 30.1081 125.37 31.1428C125.381 32.1668 125.386 33.2441 125.386 34.3748Z" fill="#ABABC4"/>
</svg>
