<svg width="64" height="58" viewBox="0 0 64 58" fill="none" xmlns="http://www.w3.org/2000/svg">
<path d="M4.57593 34.5417L17.1875 27.2661L29.7991 34.5417V49.1088L17.1875 56.3923L4.57593 49.1088V34.5417Z" fill="white"/>
<path d="M34.7866 34.5417L47.3982 27.2661L60.0098 34.5417V49.1088L47.3982 56.3923L34.7866 49.1088V34.5417Z" fill="white"/>
<path d="M19.3884 8.89107L32 1.60754L44.6116 8.89107V23.4581L32 30.7337L19.3884 23.4581V8.89107Z" fill="white"/>
<path d="M36.0059 18.1935L32 22.1915L27.9941 18.1855C25.7378 18.8189 24.0831 20.8931 24.0831 23.3473V26.1658L31.9921 30.7338L39.901 26.1658V23.3473C39.909 20.8931 38.2622 18.8268 36.0059 18.1935Z" fill="#FFCD35"/>
<path d="M40.7007 26.1657H39.1173V23.4819C39.1173 20.8456 37.1064 18.7793 34.5414 18.7793H29.4429C26.9253 18.7793 24.8669 20.8298 24.8669 23.3553V26.1737H23.2836V23.3553C23.2836 19.9589 26.0466 17.1959 29.4429 17.1959H34.5414C36.196 17.1959 37.7398 17.8451 38.8956 19.0168C40.0515 20.1964 40.6928 21.7798 40.6928 23.4819V26.1657H40.7007Z" fill="#122436"/>
<path d="M32.0001 15.8976C29.4113 15.8976 27.3054 13.7917 27.3054 11.2029C27.3054 8.61407 29.4113 6.50818 32.0001 6.50818C34.5889 6.50818 36.6948 8.61407 36.6948 11.2029C36.6948 13.7917 34.5889 15.8976 32.0001 15.8976ZM32.0001 8.08364C30.2822 8.08364 28.8888 9.48492 28.8888 11.195C28.8888 12.9129 30.2901 14.3063 32.0001 14.3063C33.7181 14.3063 35.1115 12.905 35.1115 11.195C35.1115 9.48492 33.7181 8.08364 32.0001 8.08364Z" fill="#122436"/>
<path d="M31.1292 24.3053H32.8629V26.0391H31.1292V24.3053Z" fill="#122436"/>
<path d="M26.6086 24.8832H28.192V28.0816H26.6086V24.8832Z" fill="#122436"/>
<path d="M35.8079 24.8832H37.3912V28.0816H35.8079V24.8832Z" fill="#122436"/>
<path d="M21.1935 43.8441C19.9505 47.7471 14.4324 47.7471 13.1895 43.8441C10.9332 44.4775 9.27856 46.5517 9.27856 49.0059V51.8243L17.1875 56.3924L25.0965 51.8243V49.0059C25.1044 46.5438 23.4498 44.4775 21.1935 43.8441Z" fill="#4EA4DB"/>
<path d="M25.8961 51.8164H24.3127V49.1326C24.3127 46.4962 22.3019 44.4299 19.7368 44.4299H14.6383C12.1208 44.4299 10.0624 46.4804 10.0624 49.0059V51.8243H8.479V49.0059C8.479 45.6095 11.242 42.8466 14.6383 42.8466H19.7368C21.3914 42.8466 22.9352 43.4957 24.0911 44.6674C25.2469 45.8471 25.8882 47.4304 25.8882 49.1326V51.8164H25.8961Z" fill="#122436"/>
<path d="M17.1876 41.5482C14.5988 41.5482 12.4929 39.4423 12.4929 36.8535C12.4929 34.2647 14.5988 32.1588 17.1876 32.1588C19.7764 32.1588 21.8823 34.2647 21.8823 36.8535C21.8823 39.4423 19.7764 41.5482 17.1876 41.5482ZM17.1876 33.7343C15.4697 33.7343 14.0763 35.1356 14.0763 36.8456C14.0763 38.5636 15.4776 39.9569 17.1876 39.9569C18.9056 39.9569 20.299 38.5556 20.299 36.8456C20.3069 35.1356 18.9056 33.7343 17.1876 33.7343Z" fill="#122436"/>
<path d="M20.9955 50.5338H22.5789V53.7322H20.9955V50.5338Z" fill="#122436"/>
<path d="M11.8041 50.5338H13.3875V53.7322H11.8041V50.5338Z" fill="#122436"/>
<path d="M51.3963 43.8441L47.3983 47.8421L43.3924 43.8362C41.1361 44.4695 39.4814 46.5437 39.4814 48.998V51.8164L47.3904 56.3844L55.2994 51.8164V48.998C55.3073 46.5437 53.6526 44.4774 51.3963 43.8441Z" fill="#4EA4DB"/>
<path d="M46.6067 46.1716H48.1901V56.0677H46.6067V46.1716Z" fill="white"/>
<path d="M56.0988 51.8164H54.5154V49.1326C54.5154 46.4962 52.5045 44.4299 49.9394 44.4299H44.841C42.3234 44.4299 40.265 46.4804 40.265 49.0059V51.8243H38.6816V49.0059C38.6816 45.6095 41.4446 42.8466 44.841 42.8466H49.9394C51.5941 42.8466 53.1378 43.4957 54.2937 44.6674C55.4496 45.8471 56.0908 47.4304 56.0908 49.1326V51.8164H56.0988Z" fill="#122436"/>
<path d="M47.3983 41.5482C44.8095 41.5482 42.7036 39.4423 42.7036 36.8535C42.7036 34.2647 44.8095 32.1588 47.3983 32.1588C49.9871 32.1588 52.093 34.2647 52.093 36.8535C52.093 39.4423 49.9871 41.5482 47.3983 41.5482ZM47.3983 33.7343C45.6804 33.7343 44.287 35.1356 44.287 36.8456C44.287 38.5636 45.6883 39.9569 47.3983 39.9569C49.1163 39.9569 50.5096 38.5556 50.5096 36.8456C50.5096 35.1356 49.1163 33.7343 47.3983 33.7343Z" fill="#122436"/>
<path d="M42.0068 50.5338H43.5902V53.7322H42.0068V50.5338Z" fill="#122436"/>
<path d="M51.1982 50.5338H52.7816V53.7322H51.1982V50.5338Z" fill="#122436"/>
<path d="M31.9999 31.6521L18.5967 23.9094V8.43193L31.9999 0.697144L45.4032 8.43984V23.9173L31.9999 31.6521ZM20.1801 22.999L31.9999 29.8233L43.8198 22.999V9.35029L31.9999 2.52594L20.1801 9.35029V22.999Z" fill="#122436"/>
<path d="M17.1874 57.3027L3.78418 49.56V34.0905L17.1874 26.3478L30.5907 34.0905V49.568L17.1874 57.3027ZM5.36755 48.6496L17.1874 55.474L29.0073 48.6496V35.0009L17.1874 28.1766L5.36755 35.0009V48.6496Z" fill="#122436"/>
<path d="M47.3981 57.3027L33.9949 49.56V34.0905L47.3981 26.3478L60.8014 34.0905V49.568L47.3981 57.3027ZM35.5782 48.6496L47.3981 55.474L59.218 48.6496V35.0009L47.3981 28.1766L35.5782 35.0009V48.6496Z" fill="#122436"/>
<path d="M44.3502 12.9604C46.7288 12.9604 48.657 11.0321 48.657 8.65358C48.657 6.27501 46.7288 4.3468 44.3502 4.3468C41.9717 4.3468 40.0435 6.27501 40.0435 8.65358C40.0435 11.0321 41.9717 12.9604 44.3502 12.9604Z" fill="#4EA4DB"/>
<path d="M59.6933 39.3473C62.0718 39.3473 64 37.4191 64 35.0405C64 32.662 62.0718 30.7338 59.6933 30.7338C57.3147 30.7338 55.3865 32.662 55.3865 35.0405C55.3865 37.4191 57.3147 39.3473 59.6933 39.3473Z" fill="#FFCD35"/>
<path d="M4.30678 39.3473C6.68535 39.3473 8.61356 37.4191 8.61356 35.0405C8.61356 32.662 6.68535 30.7338 4.30678 30.7338C1.92821 30.7338 0 32.662 0 35.0405C0 37.4191 1.92821 39.3473 4.30678 39.3473Z" fill="#FFCD35"/>
<path d="M58.9489 36.7585C58.6639 36.6002 58.4422 36.3706 58.2839 36.0777C58.1256 35.7847 58.0464 35.4364 58.0464 35.0406C58.0464 34.6447 58.1256 34.3043 58.2839 34.0034C58.4422 33.7105 58.6639 33.4809 58.9489 33.3226C59.2339 33.1643 59.5664 33.0851 59.9544 33.0851C60.4135 33.0851 60.8173 33.2038 61.1577 33.4493C61.2211 33.4888 61.2606 33.5363 61.2923 33.5918C61.3161 33.6393 61.3319 33.7105 61.3319 33.7897C61.3319 33.9005 61.3002 33.9955 61.2369 34.0747C61.1736 34.1539 61.0944 34.1934 61.0073 34.1934C60.9519 34.1934 60.9044 34.1855 60.8648 34.1697C60.8252 34.1539 60.7698 34.1301 60.7144 34.0905C60.5877 34.0114 60.469 33.9639 60.3581 33.9243C60.2473 33.8926 60.1285 33.8768 60.0098 33.8768C59.6852 33.8768 59.4477 33.9718 59.2893 34.1697C59.131 34.3597 59.0518 34.6526 59.0518 35.0485C59.0518 35.4443 59.131 35.7372 59.2893 35.9352C59.4477 36.1252 59.6852 36.2281 60.0098 36.2281C60.1206 36.2281 60.2235 36.2123 60.3264 36.1806C60.4294 36.1489 60.556 36.0935 60.7144 36.0222C60.7935 35.9827 60.849 35.9589 60.8806 35.9431C60.9202 35.9272 60.9598 35.9193 61.0073 35.9193C61.0944 35.9193 61.1736 35.9589 61.2369 36.0381C61.3002 36.1172 61.3319 36.2122 61.3319 36.3231C61.3319 36.4023 61.3161 36.4656 61.2923 36.5131C61.2686 36.5685 61.2211 36.616 61.1577 36.6556C60.8094 36.901 60.4056 37.0198 59.9544 37.0198C59.5743 36.996 59.2339 36.9169 58.9489 36.7585Z" fill="white"/>
<path d="M5.75546 35.3097C5.87422 35.468 5.93755 35.666 5.93755 35.9035C5.93755 36.1093 5.88213 36.2993 5.7713 36.4497C5.66046 36.6081 5.50212 36.7268 5.3042 36.8139C5.09836 36.901 4.86086 36.9406 4.58377 36.9406H3.14289C2.99247 36.9406 2.88164 36.901 2.80247 36.8218C2.7233 36.7427 2.68372 36.6318 2.68372 36.4814V33.5917C2.68372 33.4413 2.7233 33.3305 2.80247 33.2513C2.88164 33.1722 2.99247 33.1326 3.14289 33.1326H4.52835C4.93211 33.1326 5.24878 33.2197 5.48629 33.4017C5.7238 33.5838 5.84255 33.8213 5.84255 34.1222C5.84255 34.3201 5.78713 34.4864 5.68421 34.6368C5.58129 34.7872 5.43087 34.898 5.24878 34.9614C5.46254 35.0405 5.63671 35.1514 5.75546 35.3097ZM3.64957 34.6368H4.36209C4.5521 34.6368 4.68669 34.6051 4.77377 34.5497C4.86086 34.4943 4.90044 34.3993 4.90044 34.2726C4.90044 34.138 4.86086 34.043 4.77377 33.9797C4.68669 33.9163 4.5521 33.8847 4.36209 33.8847H3.64957V34.6368ZM4.88461 36.1014C4.97169 36.0381 5.01128 35.9351 5.01128 35.7926C5.01128 35.6501 4.97169 35.5472 4.88461 35.4839C4.79752 35.4205 4.65502 35.3889 4.4571 35.3889H3.64957V36.2043H4.4571C4.65502 36.1964 4.79752 36.1647 4.88461 36.1014Z" fill="white"/>
<path d="M46.3455 10.1579C46.3455 10.2766 46.298 10.3795 46.203 10.4587C46.108 10.5379 45.9971 10.5854 45.8784 10.5854C45.7992 10.5854 45.72 10.5616 45.6488 10.522C45.5775 10.4825 45.53 10.4112 45.4825 10.3241L45.2371 9.77786H43.4875L43.2421 10.3241C43.2025 10.4112 43.1471 10.4745 43.0758 10.522C43.0045 10.5616 42.9254 10.5854 42.8462 10.5854C42.7275 10.5854 42.6087 10.5458 42.5137 10.4587C42.4108 10.3795 42.3633 10.2766 42.3633 10.1579C42.3633 10.0945 42.3791 10.0233 42.4108 9.95994L43.8358 7.0307C43.8833 6.9357 43.9546 6.85653 44.0417 6.80903C44.1367 6.75361 44.2317 6.72986 44.3504 6.72986C44.4613 6.72986 44.5563 6.75361 44.6513 6.80903C44.7463 6.86445 44.8175 6.9357 44.865 7.0307L46.29 9.95994C46.3217 10.0312 46.3455 10.0945 46.3455 10.1579ZM43.82 9.03367H44.9046L44.3662 7.8303L43.82 9.03367Z" fill="white"/>
<path d="M13.3875 48.42H20.9956V50.0034H13.3875V48.42Z" fill="white"/>
<path d="M13.3875 51.5314H20.9956V53.1147H13.3875V51.5314Z" fill="white"/>
</svg>
