<svg width="84" height="84" viewBox="0 0 84 84" fill="none" xmlns="http://www.w3.org/2000/svg">
<path d="M66.6095 21.3352H12.9481C12.0819 22.838 11.3928 24.4524 10.9007 26.1455C10.2969 28.1602 9.97534 30.2995 9.97534 32.5177C9.97534 35.0376 10.3888 37.4723 11.1631 39.7298C11.6225 41.1014 12.2131 42.4139 12.9088 43.6476H66.6095C67.6989 43.6476 68.5782 42.7682 68.5782 41.6789V23.3039C68.5782 22.2146 67.6989 21.3352 66.6095 21.3352Z" fill="#F6F7F7"/>
<path d="M80.5417 65.7696L61.248 49.6785C60.4015 48.9828 60.1652 47.7819 60.6574 46.8041C61.1824 45.7738 61.6484 44.7172 62.0487 43.6475H52.1262C49.3043 48.635 44.6319 52.4347 39.0406 54.1147C36.98 54.7381 34.7947 55.0794 32.5241 55.0794C30.0566 55.0794 27.6876 54.6791 25.4629 53.9375C20.1079 52.1853 15.6454 48.471 12.9089 43.6475C12.2133 42.4138 11.6226 41.1013 11.1633 39.7298C10.3889 37.4723 9.97545 35.0376 9.97545 32.5176C9.97545 30.2995 10.297 28.1601 10.9008 26.1454C11.3929 24.4523 12.082 22.8379 12.9483 21.3351C15.6782 16.538 20.1342 12.8499 25.4629 11.0977C27.6876 10.3561 30.0566 9.96237 32.5241 9.96237C34.7947 9.96237 36.98 10.2971 39.0406 10.9205C44.6122 12.6005 49.2781 16.3739 52.1065 21.3351H62.029C61.3334 19.478 60.4474 17.6733 59.3843 15.9474C57.7765 13.3355 55.7421 10.9205 53.3009 8.77457C52.0212 7.64582 50.6628 6.6352 49.2519 5.76895C38.9028 -0.708207 25.4957 -0.603207 15.2582 6.1102C14.0967 6.86489 12.9811 7.70488 11.9114 8.63019C9.38483 10.8286 7.28484 13.3158 5.63766 15.9999C3.24892 19.8848 1.77892 24.1898 1.23424 28.5867C0.847053 31.6054 0.912678 34.6832 1.41143 37.6823C2.12017 41.9872 3.70829 46.161 6.20859 49.9147C7.35703 51.6538 8.68921 53.2944 10.2183 54.8234C11.7933 56.3984 13.4929 57.77 15.2779 58.9381C18.9529 61.3465 23.0151 62.9084 27.1954 63.604L27.2085 63.6106C30.4635 64.175 33.7775 64.2209 37.0391 63.7418C40.4122 63.2628 43.7197 62.2325 46.8106 60.6575C47.7884 60.1587 48.9762 60.4081 49.685 61.2547L65.763 80.5549C67.1346 82.2021 69.0377 83.029 70.9999 83.0224C72.7455 83.0158 74.5502 82.353 75.8889 81.0077L81.0077 75.8955C83.8558 73.0474 83.6458 68.3487 80.5417 65.7696Z" fill="#FFA77B"/>
<path d="M72.1614 68.8835C70.358 68.8835 68.8867 70.3548 68.8867 72.1687C68.8867 73.9826 70.3574 75.4539 72.1614 75.4539C73.9746 75.4539 75.4459 73.9826 75.4459 72.1687C75.4459 70.3548 73.9753 68.8835 72.1614 68.8835Z" fill="#F6F7F7"/>
<path d="M39.0405 10.9205C36.9799 10.2971 34.7946 9.9624 32.524 9.9624C30.0565 9.9624 27.6874 10.3562 25.4628 11.0977C20.134 12.8499 15.6781 16.538 12.9481 21.3352H52.1064C49.278 16.3739 44.6121 12.6005 39.0405 10.9205Z" fill="#CFF1FB"/>
<path d="M25.4628 53.9377C27.6875 54.6792 30.0566 55.0795 32.524 55.0795C34.7947 55.0795 36.98 54.7383 39.0406 54.1148C44.6318 52.4349 49.3043 48.6352 52.1262 43.6477H12.9088C15.6454 48.4711 20.1078 52.1855 25.4628 53.9377Z" fill="#CFF1FB"/>
<path d="M72.1607 67.8984C69.8127 67.8984 67.9023 69.8134 67.9023 72.168C67.9023 74.5226 69.8127 76.4375 72.1607 76.4375C74.5147 76.4375 76.4296 74.5219 76.4296 72.168C76.4296 69.814 74.5147 67.8984 72.1607 67.8984ZM72.1607 74.4688C70.8981 74.4688 69.8711 73.4365 69.8711 72.168C69.8711 70.8995 70.8981 69.8672 72.1607 69.8672C73.4293 69.8672 74.4609 70.8995 74.4609 72.168C74.4609 73.4372 73.4293 74.4688 72.1607 74.4688Z" fill="#F98770"/>
<path d="M66.6095 20.3501H12.9481C12.5964 20.3501 12.2709 20.5378 12.095 20.8429C11.1868 22.4192 10.4669 24.1104 9.95762 25.8619C9.31581 28.0026 8.99097 30.2411 8.99097 32.5169C8.99097 35.1137 9.40834 37.6475 10.2293 40.0415C10.6992 41.4445 11.3121 42.82 12.051 44.1299C12.2256 44.4396 12.5531 44.6306 12.9088 44.6306H66.6095C68.2376 44.6306 69.5626 43.3056 69.5626 41.6775V35.4169C69.5626 34.8728 69.1222 34.4325 68.5782 34.4325C68.0342 34.4325 67.5938 34.8728 67.5938 35.4169V41.6775C67.5938 42.2202 67.1522 42.6618 66.6095 42.6618H13.4922C12.9357 41.6125 12.4671 40.5218 12.0944 39.4088C11.3416 37.2143 10.9597 34.8952 10.9597 32.5163C10.9597 30.432 11.257 28.3832 11.8456 26.4191C12.2604 24.993 12.8248 23.6162 13.5256 22.3182H66.6095C67.1522 22.3182 67.5938 22.7598 67.5938 23.3026V30.1695C67.5938 30.7136 68.0342 31.1539 68.5782 31.1539C69.1222 31.1539 69.5626 30.7136 69.5626 30.1695V23.3032C69.5626 21.6751 68.2376 20.3501 66.6095 20.3501Z" fill="#746887"/>
<path d="M50.4403 60.6222C49.4316 59.4167 47.7556 59.0695 46.3643 59.7802C43.3981 61.2916 40.2146 62.2963 36.8973 62.7675C33.7664 63.2269 30.5895 63.1888 27.4546 62.6533C27.4231 62.6448 27.3909 62.6382 27.3581 62.6323C23.227 61.9445 19.3447 60.4247 15.818 58.114C14.0599 56.9636 12.4108 55.6216 10.9152 54.1267C9.46159 52.6731 8.155 51.0732 7.02888 49.3682C4.65326 45.8022 3.09074 41.8168 2.3833 37.5203C1.89571 34.5882 1.83731 31.6246 2.21202 28.7076C2.75277 24.3396 4.18798 20.2374 6.47763 16.5145C7.9555 14.1054 9.80874 11.8768 11.9855 9.89036C12.3871 9.52352 12.4154 8.90139 12.0492 8.49977C11.683 8.0988 11.0602 8.06927 10.6586 8.43612C8.34596 10.5466 6.3746 12.9183 4.80026 15.4836C2.36296 19.4479 0.834559 23.8153 0.259031 28.4608C-0.139312 31.5642 -0.0776243 34.7214 0.441467 37.8412C1.19353 42.414 2.85908 46.6592 5.38826 50.4563C6.5846 52.2682 7.97584 53.9711 9.52327 55.5186C11.1134 57.1093 12.8688 58.5367 14.7391 59.7606C18.4725 62.2071 22.5819 63.8221 26.9552 64.561C26.9834 64.5682 27.0123 64.5748 27.0411 64.58C30.407 65.1634 33.8202 65.2087 37.1782 64.7159C40.7068 64.2145 44.0983 63.1442 47.2581 61.5337C47.8258 61.2443 48.5142 61.3887 48.929 61.8842L61.546 77.0297C61.7402 77.2633 62.0204 77.3841 62.3026 77.3841C62.5244 77.3841 62.7482 77.3093 62.932 77.1557C63.35 76.8079 63.4064 76.1871 63.058 75.7697L50.4403 60.6222Z" fill="#746887"/>
<path d="M81.1729 65.013L61.8733 48.9173C61.391 48.5209 61.2492 47.8174 61.5347 47.2497C62.0761 46.1873 62.5597 45.0907 62.9705 43.9908C63.0834 43.689 63.0414 43.3503 62.8577 43.0852C62.6739 42.8201 62.3714 42.6619 62.0492 42.6619H52.1267C51.7717 42.6619 51.4442 42.8529 51.2696 43.1613C48.5226 48.0169 44.0792 51.5718 38.7557 53.1711C34.5235 54.4514 29.9429 54.3917 25.7692 53.0004C20.6846 51.3369 16.4216 47.8423 13.7664 43.1626C13.0885 41.9611 12.5268 40.7004 12.0943 39.4089C11.3416 37.2144 10.9597 34.8959 10.9597 32.5163C10.9597 30.4334 11.2569 28.3846 11.8463 26.4191C12.3142 24.81 12.9717 23.2646 13.8038 21.8208C16.4465 17.1766 20.6964 13.7004 25.7744 12.0309C29.9114 10.6508 34.5544 10.5911 38.7563 11.8623C44.0647 13.4629 48.5023 17 51.2513 21.8221C51.4265 22.1293 51.7533 22.3189 52.1064 22.3189H62.0288C62.3517 22.3189 62.6542 22.1608 62.838 21.895C63.0217 21.6292 63.0637 21.2912 62.9509 20.9887C62.2349 19.0771 61.3168 17.2067 60.2222 15.4303C58.5455 12.7075 56.4356 10.219 53.9517 8.03503C52.6241 6.86363 51.2158 5.81889 49.7741 4.93295C39.1284 -1.72927 25.4398 -1.63674 14.9024 5.17117C14.4456 5.46583 14.3144 6.07548 14.6097 6.53223C14.9044 6.98832 15.5134 7.11957 15.9708 6.82491C25.8689 0.429783 38.7275 0.343158 48.7378 6.6077C50.091 7.4385 51.4075 8.41566 52.6517 9.51356C54.9893 11.5689 56.9731 13.9071 58.5468 16.4632C59.3192 17.7173 59.9977 19.02 60.572 20.3502H52.6707C49.6533 15.3417 44.9349 11.6693 39.326 9.97818C34.7375 8.58956 29.6706 8.6565 25.1556 10.1626C19.6175 11.9837 14.9779 15.7788 12.0963 20.843C11.188 22.418 10.4681 24.1098 9.95823 25.862C9.31642 28.0033 8.99158 30.2424 8.99158 32.517C8.99158 35.1144 9.40895 37.6482 10.2306 40.0422C10.7004 41.4452 11.3134 42.8201 12.0536 44.1326C14.9523 49.2421 19.6057 53.0562 25.1523 54.8707C29.7001 56.3873 34.7086 56.4543 39.3246 55.0571C44.9506 53.3666 49.6769 49.6752 52.6931 44.6313H60.5923C60.341 45.2134 60.0693 45.7916 59.7792 46.3612C59.0816 47.7478 59.4366 49.4633 60.6185 50.4345L79.9142 66.5264C81.1985 67.5928 81.9479 69.1015 82.0247 70.7736C82.1008 72.4227 81.4774 74.0358 80.3138 75.1987L75.1931 80.3128C74.1084 81.4028 72.5793 82.0315 70.9984 82.0374C70.9918 82.0374 70.9846 82.0374 70.9781 82.0374C69.239 82.0374 67.6568 81.2873 66.5215 79.9243L66.4007 79.7799C66.0523 79.3626 65.4321 79.3061 65.0141 79.6539C64.5967 80.0024 64.5403 80.6232 64.8881 81.0406L65.0082 81.185C66.5241 83.0054 68.6431 84.0068 70.9774 84.0068H71.005C73.103 83.9989 75.138 83.1589 76.5857 81.7047L81.7051 76.5919C83.2597 75.0379 84.0925 72.8841 83.9914 70.6837C83.8897 68.4826 82.862 66.4161 81.1729 65.013Z" fill="#746887"/>
<path d="M39.3268 9.97761C34.737 8.58899 29.6727 8.65593 25.1564 10.1614C19.6177 11.9824 14.9787 15.7782 12.0938 20.847C11.9206 21.1515 11.9219 21.5256 12.0984 21.8288C12.275 22.132 12.5992 22.3183 12.9496 22.3183H52.1079C52.459 22.3183 52.7825 22.132 52.959 21.8281C53.1355 21.5249 53.1369 21.1509 52.963 20.8464C49.9626 15.5839 45.1195 11.7239 39.3268 9.97761ZM14.7221 20.3503C17.3806 16.4436 21.2492 13.5194 25.7753 12.031C29.9149 10.6516 34.5546 10.5919 38.7578 11.863C43.5104 13.2956 47.5647 16.2809 50.3347 20.3509L14.7221 20.3503Z" fill="#746887"/>
<path d="M52.1269 42.6626H12.9096C12.5592 42.6626 12.2356 42.849 12.0591 43.1515C11.8826 43.454 11.8813 43.8281 12.0538 44.1326C14.9525 49.2421 19.6059 53.0562 25.1525 54.8708C27.5262 55.6622 30.0061 56.0632 32.5248 56.0632C34.8296 56.0632 37.1179 55.7245 39.3249 55.0571C45.1346 53.3115 49.9856 49.4311 52.984 44.1319C53.1566 43.8274 53.154 43.4534 52.9774 43.1508C52.8009 42.8483 52.4774 42.6626 52.1269 42.6626ZM38.7565 53.1717C34.5218 54.4521 29.9405 54.3904 25.7694 53.0011C21.2321 51.5167 17.3491 48.5741 14.6788 44.6313H50.361C47.5916 48.7342 43.5275 51.7385 38.7565 53.1717Z" fill="#746887"/>
<path d="M41.2877 26.9206C40.9294 26.5111 40.3079 26.4698 39.8984 26.8281L34.2737 31.7499C34.0598 31.937 33.9377 32.2067 33.9377 32.4908C33.9377 32.775 34.0605 33.0447 34.2737 33.2317L39.8984 38.1536C40.0855 38.317 40.3165 38.3971 40.5462 38.3971C40.8198 38.3971 41.0928 38.2835 41.2871 38.0611C41.6447 37.6516 41.6034 37.0301 41.1945 36.6718L36.4164 32.4908L41.1945 28.3099C41.604 27.9522 41.6454 27.3301 41.2877 26.9206Z" fill="#F98770"/>
<path d="M57.2265 26.8281C56.817 26.4704 56.1955 26.5111 55.8372 26.9206C55.4796 27.3301 55.5209 27.9516 55.9298 28.3099L60.7079 32.4908L55.9298 36.6718C55.5203 37.0294 55.4789 37.6515 55.8372 38.061C56.0315 38.2835 56.3045 38.397 56.5781 38.397C56.8085 38.397 57.0395 38.317 57.2259 38.1536L62.8506 33.2317C63.0645 33.0447 63.1865 32.775 63.1865 32.4908C63.1865 32.2067 63.0638 31.9369 62.8506 31.7499L57.2265 26.8281Z" fill="#F98770"/>
<path d="M52.5934 25.039C52.1025 24.8067 51.5158 25.0154 51.2822 25.5069L45.376 37.9756C45.143 38.4671 45.353 39.0538 45.8439 39.2868C45.9804 39.3511 46.1234 39.3819 46.2652 39.3819C46.634 39.3819 46.9871 39.1739 47.155 38.8189L53.0613 26.3502C53.2942 25.8586 53.0842 25.2713 52.5934 25.039Z" fill="#F98770"/>
<path d="M18.0472 36.7563H14.766C14.222 36.7563 13.7816 37.1967 13.7816 37.7407C13.7816 38.2847 14.222 38.7251 14.766 38.7251H18.0472C18.5913 38.7251 19.0316 38.2847 19.0316 37.7407C19.0316 37.1967 18.5906 36.7563 18.0472 36.7563Z" fill="#F98770"/>
<path d="M25.266 36.7563H21.9847C21.4407 36.7563 21.0004 37.1967 21.0004 37.7407C21.0004 38.2847 21.4407 38.7251 21.9847 38.7251H25.266C25.81 38.7251 26.2503 38.2847 26.2503 37.7407C26.2503 37.1967 25.8093 36.7563 25.266 36.7563Z" fill="#F98770"/>
<path d="M32.4847 36.7563H29.2035C28.6595 36.7563 28.2191 37.1967 28.2191 37.7407C28.2191 38.2847 28.6595 38.7251 29.2035 38.7251H32.4847C33.0288 38.7251 33.4691 38.2847 33.4691 37.7407C33.4691 37.1967 33.0281 36.7563 32.4847 36.7563Z" fill="#F98770"/>
<path d="M72.5157 15.1003H42.3284C41.7843 15.1003 41.344 15.5407 41.344 16.0847C41.344 16.6287 41.7843 17.0691 42.3284 17.0691H72.5157C73.0598 17.0691 73.5001 16.6287 73.5001 16.0847C73.5001 15.5407 73.0591 15.1003 72.5157 15.1003Z" fill="#746887"/>
<path d="M83.0157 47.9126H55.4534C54.9093 47.9126 54.469 48.3529 54.469 48.897C54.469 49.441 54.9093 49.8813 55.4534 49.8813H83.0157C83.5598 49.8813 84.0001 49.441 84.0001 48.897C84.0001 48.3529 83.5591 47.9126 83.0157 47.9126Z" fill="#746887"/>
</svg>
