<svg width="1512" height="300" viewBox="0 0 1512 300" fill="none" xmlns="http://www.w3.org/2000/svg">
<path fill-rule="evenodd" clip-rule="evenodd" d="M893.605 -109.535L757.103 -33.3186L919.429 57.3174L1055.93 -18.8994L893.605 -109.535ZM593.031 57.3174L755.357 -33.3186L618.855 -109.535L456.529 -18.8993L593.031 57.3174ZM592.158 57.8049L443.144 141.008L306.642 64.7915L455.656 -18.4118L592.158 57.8049ZM593.031 58.2925L444.017 141.496L503.385 174.645L502.512 175.132L443.144 141.983L160.141 300L159.268 299.513L442.27 141.496L305.769 65.279L21.1685 224.188L20.2953 223.7L304.896 64.7915L154.816 -19.0067L33.2233 48.8856L129.065 102.4L128.192 102.887L32.3502 49.3731L-103.96 125.483L-104.833 124.995L31.4771 48.8856L-85.3235 -16.3309L-176.375 34.5081L-177.248 34.0206L-86.1966 -16.8184L-184.894 -71.9268L-246.127 -37.7368L-247 -38.2243L-185.767 -72.4143L-246.127 -106.117L-245.254 -106.604L-184.894 -72.9018L-2.0681 -174.984L-1.19498 -174.496L-184.021 -72.4143L-85.3235 -17.306L36.2693 -85.1982L-34.7399 -124.847L-33.8667 -125.334L37.1424 -85.6858L197.072 -174.984L197.945 -174.496L38.0155 -85.1982L154.816 -19.9817L303.83 -103.185L217.646 -151.307L218.519 -151.794L304.703 -103.672L432.42 -174.984L433.293 -174.496L305.577 -103.185L455.656 -19.3868L617.982 -110.023L502.512 -174.496L503.385 -174.984L618.855 -110.51L734.325 -174.984L735.198 -174.496L619.728 -110.023L756.23 -33.8061L892.732 -110.023L777.262 -174.496L778.135 -174.984L893.605 -110.51L1009.07 -174.984L1009.95 -174.496L894.478 -110.023L1056.8 -19.3869L1206.88 -103.185L1079.17 -174.496L1080.04 -174.984L1207.76 -103.672L1293.94 -151.794L1294.81 -151.307L1208.63 -103.185L1357.64 -19.9816L1474.44 -85.1983L1314.52 -174.496L1315.39 -174.984L1475.32 -85.6858L1546.33 -125.334L1547.2 -124.847L1476.19 -85.1983L1597.78 -17.3061L1696.48 -72.4143L1513.66 -174.496L1514.53 -174.984L1697.35 -72.9018L1757.71 -106.604L1758.59 -106.117L1698.23 -72.4143L1759.46 -38.2241L1758.59 -37.7366L1697.35 -71.9268L1598.66 -16.8186L1689.71 34.0206L1688.83 34.5081L1597.78 -16.3311L1480.98 48.8856L1617.29 124.995L1616.42 125.483L1480.11 49.3731L1384.27 102.887L1383.39 102.4L1479.24 48.8857L1357.64 -19.0066L1207.56 64.7914L1492.17 223.7L1491.29 224.188L1206.69 65.2789L1070.19 141.496L1353.19 299.513L1352.32 300L1069.32 141.983L1009.95 175.132L1009.07 174.645L1068.44 141.496L919.429 58.2925L757.103 148.928L932.549 246.89L931.676 247.377L756.23 149.416L580.785 247.377L579.911 246.89L755.357 148.928L593.031 58.2925ZM-84.4504 -16.8184L32.3502 48.3981L153.943 -19.4942L37.1424 -84.7107L-84.4504 -16.8184ZM454.783 -18.8993L305.769 64.304L155.689 -19.4942L304.703 -102.697L454.783 -18.8993ZM756.23 148.441L918.556 57.8049L756.23 -32.8311L593.904 57.8049L756.23 148.441ZM1205.82 64.7914L1069.32 141.008L920.302 57.8049L1056.8 -18.4119L1205.82 64.7914ZM1057.68 -18.8994L1206.69 64.3039L1356.77 -19.4941L1207.76 -102.697L1057.68 -18.8994ZM1480.11 48.3981L1358.52 -19.4941L1475.32 -84.7108L1596.91 -16.8186L1480.11 48.3981Z" fill="url(#paint0_linear_42_93)" fill-opacity="0.5"/>
<defs>
<linearGradient id="paint0_linear_42_93" x1="756.23" y1="-174.984" x2="756.23" y2="300" gradientUnits="userSpaceOnUse">
<stop stop-color="#67728A"/>
<stop offset="1" stop-color="#67728A" stop-opacity="0"/>
</linearGradient>
</defs>
</svg>
