<svg width="144" height="57" viewBox="0 0 144 57" fill="none" xmlns="http://www.w3.org/2000/svg">
<path d="M19.7017 12.6548H49.6504M19.7017 17.2623H36.9798M15.0942 54.9863H36.9798C48.4307 54.9863 57.7135 45.7034 57.7135 34.2525V4.30375C57.7135 3.03142 56.6821 2 55.4098 2H15.0942C13.8218 2 12.7904 3.03142 12.7904 4.30375V52.6825C12.7904 53.9548 13.8218 54.9863 15.0942 54.9863Z" stroke="#191924" stroke-width="2.5"/>
<mask id="path-2-outside-1_362_2008" maskUnits="userSpaceOnUse" x="0" y="14.624" width="95" height="25" fill="black">
<rect fill="white" y="14.624" width="95" height="25"/>
<path d="M2 36.5561V17.0387H6.34026V36.5561H2Z"/>
<path d="M18.5861 36.5561V28.8984C18.5861 28.1981 18.365 27.636 17.9226 27.2121C17.4988 26.7697 16.9551 26.5486 16.2916 26.5486C15.8308 26.5486 15.4254 26.6499 15.0752 26.8527C14.725 27.037 14.4486 27.3134 14.2459 27.682C14.0431 28.0322 13.9418 28.4377 13.9418 28.8984L12.3107 28.0967C12.3107 27.0462 12.5411 26.1247 13.0018 25.3322C13.4626 24.5397 14.0984 23.9315 14.9093 23.5076C15.7387 23.0653 16.6694 22.8441 17.7015 22.8441C18.6967 22.8441 19.5721 23.0837 20.3278 23.5629C21.1018 24.0237 21.71 24.6411 22.1523 25.4151C22.5947 26.1892 22.8158 27.037 22.8158 27.9585V36.5561H18.5861ZM9.71209 36.5561V23.1206H13.9418V36.5561H9.71209Z"/>
<path d="M29.762 36.5561L24.0672 23.1206H28.6286L32.4989 34.3168H30.5085L34.3788 23.1206H38.8572L33.1624 36.5284L29.762 36.5561Z"/>
<path d="M46.4717 36.8602C45.0895 36.8602 43.8362 36.5561 42.712 35.9479C41.6062 35.3213 40.7308 34.4735 40.0857 33.4045C39.4407 32.3356 39.1181 31.1377 39.1181 29.8107C39.1181 28.4837 39.4407 27.295 40.0857 26.2445C40.7308 25.194 41.6062 24.3646 42.712 23.7564C43.8178 23.1298 45.071 22.8165 46.4717 22.8165C47.8724 22.8165 49.1256 23.1206 50.2314 23.7288C51.3372 24.337 52.2127 25.1755 52.8577 26.2445C53.5028 27.295 53.8253 28.4837 53.8253 29.8107C53.8253 31.1377 53.5028 32.3356 52.8577 33.4045C52.2127 34.4735 51.3372 35.3213 50.2314 35.9479C49.1256 36.5561 47.8724 36.8602 46.4717 36.8602ZM46.4717 33.0175C47.0799 33.0175 47.6144 32.8885 48.0751 32.6305C48.5359 32.354 48.886 31.9762 49.1256 31.497C49.3837 30.9994 49.5127 30.4373 49.5127 29.8107C49.5127 29.1841 49.3837 28.6404 49.1256 28.1796C48.8676 27.7005 48.5082 27.3319 48.0475 27.0738C47.6052 26.7974 47.0799 26.6592 46.4717 26.6592C45.882 26.6592 45.3567 26.7974 44.8959 27.0738C44.4352 27.3319 44.0758 27.7005 43.8178 28.1796C43.5598 28.6588 43.4308 29.2117 43.4308 29.8383C43.4308 30.4465 43.5598 30.9994 43.8178 31.497C44.0758 31.9762 44.4352 32.354 44.8959 32.6305C45.3567 32.8885 45.882 33.0175 46.4717 33.0175Z"/>
<path d="M55.931 36.5561V23.1206H60.1607V36.5561H55.931ZM58.0597 21.2684C57.3962 21.2684 56.8433 21.0472 56.401 20.6049C55.9771 20.1442 55.7652 19.5913 55.7652 18.9462C55.7652 18.2827 55.9771 17.7298 56.401 17.2875C56.8433 16.8452 57.3962 16.624 58.0597 16.624C58.7232 16.624 59.2669 16.8452 59.6908 17.2875C60.1147 17.7298 60.3266 18.2827 60.3266 18.9462C60.3266 19.5913 60.1147 20.1442 59.6908 20.6049C59.2669 21.0472 58.7232 21.2684 58.0597 21.2684Z"/>
<path d="M69.6358 36.8602C68.2536 36.8602 67.0003 36.5561 65.8761 35.9479C64.7519 35.3397 63.8672 34.5011 63.2222 33.4322C62.5771 32.3632 62.2546 31.1653 62.2546 29.8383C62.2546 28.4929 62.5771 27.295 63.2222 26.2445C63.8857 25.1755 64.7795 24.337 65.9038 23.7288C67.028 23.1206 68.2904 22.8165 69.6911 22.8165C70.7416 22.8165 71.7 23.0008 72.5662 23.3694C73.4508 23.7196 74.2341 24.254 74.916 24.9728L72.2068 27.682C71.8935 27.3319 71.5249 27.0738 71.101 26.908C70.6956 26.7421 70.2256 26.6592 69.6911 26.6592C69.0829 26.6592 68.5393 26.7974 68.0601 27.0738C67.5993 27.3319 67.2307 27.7005 66.9543 28.1796C66.6963 28.6404 66.5672 29.1841 66.5672 29.8107C66.5672 30.4373 66.6963 30.9902 66.9543 31.4694C67.2307 31.9486 67.6085 32.3264 68.0877 32.6028C68.5669 32.8793 69.1014 33.0175 69.6911 33.0175C70.244 33.0175 70.7324 32.9254 71.1563 32.7411C71.5986 32.5383 71.9764 32.2619 72.2898 31.9117L74.9713 34.6209C74.271 35.3581 73.4785 35.9202 72.5938 36.3073C71.7092 36.6759 70.7232 36.8602 69.6358 36.8602Z"/>
<path d="M83.1646 36.8602C81.7086 36.8602 80.4093 36.5653 79.2667 35.9755C78.1424 35.3673 77.2578 34.5288 76.6127 33.4598C75.9677 32.3909 75.6452 31.1837 75.6452 29.8383C75.6452 28.4929 75.9585 27.295 76.5851 26.2445C77.2301 25.1755 78.0964 24.337 79.1837 23.7288C80.2711 23.1206 81.4967 22.8165 82.8605 22.8165C84.1875 22.8165 85.3578 23.1022 86.3714 23.6735C87.3851 24.2448 88.1776 25.0373 88.7489 26.051C89.3386 27.0646 89.6335 28.2257 89.6335 29.5342C89.6335 29.7738 89.6151 30.0319 89.5782 30.3083C89.5598 30.5663 89.5137 30.8704 89.44 31.2206L77.8568 31.2482V28.3455L87.6431 28.3179L85.8185 29.5342C85.8001 28.7602 85.6803 28.1243 85.4591 27.6267C85.238 27.1107 84.9062 26.7237 84.4639 26.4656C84.04 26.1892 83.5148 26.051 82.8881 26.051C82.2247 26.051 81.6441 26.2076 81.1465 26.5209C80.6673 26.8158 80.2895 27.2397 80.0131 27.7926C79.7551 28.3455 79.626 29.0182 79.626 29.8107C79.626 30.6032 79.7643 31.2851 80.0407 31.8564C80.3356 32.4093 80.7411 32.8424 81.2571 33.1557C81.7916 33.4506 82.4182 33.5981 83.137 33.5981C83.8004 33.5981 84.3994 33.4875 84.9339 33.2663C85.4683 33.0267 85.9383 32.6766 86.3438 32.2158L88.6659 34.538C88.0025 35.312 87.2008 35.8926 86.2608 36.2796C85.3209 36.6667 84.2888 36.8602 83.1646 36.8602Z"/>
</mask>
<path d="M2 36.5561V17.0387H6.34026V36.5561H2Z" fill="#191924"/>
<path d="M18.5861 36.5561V28.8984C18.5861 28.1981 18.365 27.636 17.9226 27.2121C17.4988 26.7697 16.9551 26.5486 16.2916 26.5486C15.8308 26.5486 15.4254 26.6499 15.0752 26.8527C14.725 27.037 14.4486 27.3134 14.2459 27.682C14.0431 28.0322 13.9418 28.4377 13.9418 28.8984L12.3107 28.0967C12.3107 27.0462 12.5411 26.1247 13.0018 25.3322C13.4626 24.5397 14.0984 23.9315 14.9093 23.5076C15.7387 23.0653 16.6694 22.8441 17.7015 22.8441C18.6967 22.8441 19.5721 23.0837 20.3278 23.5629C21.1018 24.0237 21.71 24.6411 22.1523 25.4151C22.5947 26.1892 22.8158 27.037 22.8158 27.9585V36.5561H18.5861ZM9.71209 36.5561V23.1206H13.9418V36.5561H9.71209Z" fill="#191924"/>
<path d="M29.762 36.5561L24.0672 23.1206H28.6286L32.4989 34.3168H30.5085L34.3788 23.1206H38.8572L33.1624 36.5284L29.762 36.5561Z" fill="#191924"/>
<path d="M46.4717 36.8602C45.0895 36.8602 43.8362 36.5561 42.712 35.9479C41.6062 35.3213 40.7308 34.4735 40.0857 33.4045C39.4407 32.3356 39.1181 31.1377 39.1181 29.8107C39.1181 28.4837 39.4407 27.295 40.0857 26.2445C40.7308 25.194 41.6062 24.3646 42.712 23.7564C43.8178 23.1298 45.071 22.8165 46.4717 22.8165C47.8724 22.8165 49.1256 23.1206 50.2314 23.7288C51.3372 24.337 52.2127 25.1755 52.8577 26.2445C53.5028 27.295 53.8253 28.4837 53.8253 29.8107C53.8253 31.1377 53.5028 32.3356 52.8577 33.4045C52.2127 34.4735 51.3372 35.3213 50.2314 35.9479C49.1256 36.5561 47.8724 36.8602 46.4717 36.8602ZM46.4717 33.0175C47.0799 33.0175 47.6144 32.8885 48.0751 32.6305C48.5359 32.354 48.886 31.9762 49.1256 31.497C49.3837 30.9994 49.5127 30.4373 49.5127 29.8107C49.5127 29.1841 49.3837 28.6404 49.1256 28.1796C48.8676 27.7005 48.5082 27.3319 48.0475 27.0738C47.6052 26.7974 47.0799 26.6592 46.4717 26.6592C45.882 26.6592 45.3567 26.7974 44.8959 27.0738C44.4352 27.3319 44.0758 27.7005 43.8178 28.1796C43.5598 28.6588 43.4308 29.2117 43.4308 29.8383C43.4308 30.4465 43.5598 30.9994 43.8178 31.497C44.0758 31.9762 44.4352 32.354 44.8959 32.6305C45.3567 32.8885 45.882 33.0175 46.4717 33.0175Z" fill="#191924"/>
<path d="M55.931 36.5561V23.1206H60.1607V36.5561H55.931ZM58.0597 21.2684C57.3962 21.2684 56.8433 21.0472 56.401 20.6049C55.9771 20.1442 55.7652 19.5913 55.7652 18.9462C55.7652 18.2827 55.9771 17.7298 56.401 17.2875C56.8433 16.8452 57.3962 16.624 58.0597 16.624C58.7232 16.624 59.2669 16.8452 59.6908 17.2875C60.1147 17.7298 60.3266 18.2827 60.3266 18.9462C60.3266 19.5913 60.1147 20.1442 59.6908 20.6049C59.2669 21.0472 58.7232 21.2684 58.0597 21.2684Z" fill="#191924"/>
<path d="M69.6358 36.8602C68.2536 36.8602 67.0003 36.5561 65.8761 35.9479C64.7519 35.3397 63.8672 34.5011 63.2222 33.4322C62.5771 32.3632 62.2546 31.1653 62.2546 29.8383C62.2546 28.4929 62.5771 27.295 63.2222 26.2445C63.8857 25.1755 64.7795 24.337 65.9038 23.7288C67.028 23.1206 68.2904 22.8165 69.6911 22.8165C70.7416 22.8165 71.7 23.0008 72.5662 23.3694C73.4508 23.7196 74.2341 24.254 74.916 24.9728L72.2068 27.682C71.8935 27.3319 71.5249 27.0738 71.101 26.908C70.6956 26.7421 70.2256 26.6592 69.6911 26.6592C69.0829 26.6592 68.5393 26.7974 68.0601 27.0738C67.5993 27.3319 67.2307 27.7005 66.9543 28.1796C66.6963 28.6404 66.5672 29.1841 66.5672 29.8107C66.5672 30.4373 66.6963 30.9902 66.9543 31.4694C67.2307 31.9486 67.6085 32.3264 68.0877 32.6028C68.5669 32.8793 69.1014 33.0175 69.6911 33.0175C70.244 33.0175 70.7324 32.9254 71.1563 32.7411C71.5986 32.5383 71.9764 32.2619 72.2898 31.9117L74.9713 34.6209C74.271 35.3581 73.4785 35.9202 72.5938 36.3073C71.7092 36.6759 70.7232 36.8602 69.6358 36.8602Z" fill="#191924"/>
<path d="M83.1646 36.8602C81.7086 36.8602 80.4093 36.5653 79.2667 35.9755C78.1424 35.3673 77.2578 34.5288 76.6127 33.4598C75.9677 32.3909 75.6452 31.1837 75.6452 29.8383C75.6452 28.4929 75.9585 27.295 76.5851 26.2445C77.2301 25.1755 78.0964 24.337 79.1837 23.7288C80.2711 23.1206 81.4967 22.8165 82.8605 22.8165C84.1875 22.8165 85.3578 23.1022 86.3714 23.6735C87.3851 24.2448 88.1776 25.0373 88.7489 26.051C89.3386 27.0646 89.6335 28.2257 89.6335 29.5342C89.6335 29.7738 89.6151 30.0319 89.5782 30.3083C89.5598 30.5663 89.5137 30.8704 89.44 31.2206L77.8568 31.2482V28.3455L87.6431 28.3179L85.8185 29.5342C85.8001 28.7602 85.6803 28.1243 85.4591 27.6267C85.238 27.1107 84.9062 26.7237 84.4639 26.4656C84.04 26.1892 83.5148 26.051 82.8881 26.051C82.2247 26.051 81.6441 26.2076 81.1465 26.5209C80.6673 26.8158 80.2895 27.2397 80.0131 27.7926C79.7551 28.3455 79.626 29.0182 79.626 29.8107C79.626 30.6032 79.7643 31.2851 80.0407 31.8564C80.3356 32.4093 80.7411 32.8424 81.2571 33.1557C81.7916 33.4506 82.4182 33.5981 83.137 33.5981C83.8004 33.5981 84.3994 33.4875 84.9339 33.2663C85.4683 33.0267 85.9383 32.6766 86.3438 32.2158L88.6659 34.538C88.0025 35.312 87.2008 35.8926 86.2608 36.2796C85.3209 36.6667 84.2888 36.8602 83.1646 36.8602Z" fill="#191924"/>
<path d="M2 36.5561V17.0387H6.34026V36.5561H2Z" stroke="white" stroke-width="4" mask="url(#path-2-outside-1_362_2008)"/>
<path d="M18.5861 36.5561V28.8984C18.5861 28.1981 18.365 27.636 17.9226 27.2121C17.4988 26.7697 16.9551 26.5486 16.2916 26.5486C15.8308 26.5486 15.4254 26.6499 15.0752 26.8527C14.725 27.037 14.4486 27.3134 14.2459 27.682C14.0431 28.0322 13.9418 28.4377 13.9418 28.8984L12.3107 28.0967C12.3107 27.0462 12.5411 26.1247 13.0018 25.3322C13.4626 24.5397 14.0984 23.9315 14.9093 23.5076C15.7387 23.0653 16.6694 22.8441 17.7015 22.8441C18.6967 22.8441 19.5721 23.0837 20.3278 23.5629C21.1018 24.0237 21.71 24.6411 22.1523 25.4151C22.5947 26.1892 22.8158 27.037 22.8158 27.9585V36.5561H18.5861ZM9.71209 36.5561V23.1206H13.9418V36.5561H9.71209Z" stroke="white" stroke-width="4" mask="url(#path-2-outside-1_362_2008)"/>
<path d="M29.762 36.5561L24.0672 23.1206H28.6286L32.4989 34.3168H30.5085L34.3788 23.1206H38.8572L33.1624 36.5284L29.762 36.5561Z" stroke="white" stroke-width="4" mask="url(#path-2-outside-1_362_2008)"/>
<path d="M46.4717 36.8602C45.0895 36.8602 43.8362 36.5561 42.712 35.9479C41.6062 35.3213 40.7308 34.4735 40.0857 33.4045C39.4407 32.3356 39.1181 31.1377 39.1181 29.8107C39.1181 28.4837 39.4407 27.295 40.0857 26.2445C40.7308 25.194 41.6062 24.3646 42.712 23.7564C43.8178 23.1298 45.071 22.8165 46.4717 22.8165C47.8724 22.8165 49.1256 23.1206 50.2314 23.7288C51.3372 24.337 52.2127 25.1755 52.8577 26.2445C53.5028 27.295 53.8253 28.4837 53.8253 29.8107C53.8253 31.1377 53.5028 32.3356 52.8577 33.4045C52.2127 34.4735 51.3372 35.3213 50.2314 35.9479C49.1256 36.5561 47.8724 36.8602 46.4717 36.8602ZM46.4717 33.0175C47.0799 33.0175 47.6144 32.8885 48.0751 32.6305C48.5359 32.354 48.886 31.9762 49.1256 31.497C49.3837 30.9994 49.5127 30.4373 49.5127 29.8107C49.5127 29.1841 49.3837 28.6404 49.1256 28.1796C48.8676 27.7005 48.5082 27.3319 48.0475 27.0738C47.6052 26.7974 47.0799 26.6592 46.4717 26.6592C45.882 26.6592 45.3567 26.7974 44.8959 27.0738C44.4352 27.3319 44.0758 27.7005 43.8178 28.1796C43.5598 28.6588 43.4308 29.2117 43.4308 29.8383C43.4308 30.4465 43.5598 30.9994 43.8178 31.497C44.0758 31.9762 44.4352 32.354 44.8959 32.6305C45.3567 32.8885 45.882 33.0175 46.4717 33.0175Z" stroke="white" stroke-width="4" mask="url(#path-2-outside-1_362_2008)"/>
<path d="M55.931 36.5561V23.1206H60.1607V36.5561H55.931ZM58.0597 21.2684C57.3962 21.2684 56.8433 21.0472 56.401 20.6049C55.9771 20.1442 55.7652 19.5913 55.7652 18.9462C55.7652 18.2827 55.9771 17.7298 56.401 17.2875C56.8433 16.8452 57.3962 16.624 58.0597 16.624C58.7232 16.624 59.2669 16.8452 59.6908 17.2875C60.1147 17.7298 60.3266 18.2827 60.3266 18.9462C60.3266 19.5913 60.1147 20.1442 59.6908 20.6049C59.2669 21.0472 58.7232 21.2684 58.0597 21.2684Z" stroke="white" stroke-width="4" mask="url(#path-2-outside-1_362_2008)"/>
<path d="M69.6358 36.8602C68.2536 36.8602 67.0003 36.5561 65.8761 35.9479C64.7519 35.3397 63.8672 34.5011 63.2222 33.4322C62.5771 32.3632 62.2546 31.1653 62.2546 29.8383C62.2546 28.4929 62.5771 27.295 63.2222 26.2445C63.8857 25.1755 64.7795 24.337 65.9038 23.7288C67.028 23.1206 68.2904 22.8165 69.6911 22.8165C70.7416 22.8165 71.7 23.0008 72.5662 23.3694C73.4508 23.7196 74.2341 24.254 74.916 24.9728L72.2068 27.682C71.8935 27.3319 71.5249 27.0738 71.101 26.908C70.6956 26.7421 70.2256 26.6592 69.6911 26.6592C69.0829 26.6592 68.5393 26.7974 68.0601 27.0738C67.5993 27.3319 67.2307 27.7005 66.9543 28.1796C66.6963 28.6404 66.5672 29.1841 66.5672 29.8107C66.5672 30.4373 66.6963 30.9902 66.9543 31.4694C67.2307 31.9486 67.6085 32.3264 68.0877 32.6028C68.5669 32.8793 69.1014 33.0175 69.6911 33.0175C70.244 33.0175 70.7324 32.9254 71.1563 32.7411C71.5986 32.5383 71.9764 32.2619 72.2898 31.9117L74.9713 34.6209C74.271 35.3581 73.4785 35.9202 72.5938 36.3073C71.7092 36.6759 70.7232 36.8602 69.6358 36.8602Z" stroke="white" stroke-width="4" mask="url(#path-2-outside-1_362_2008)"/>
<path d="M83.1646 36.8602C81.7086 36.8602 80.4093 36.5653 79.2667 35.9755C78.1424 35.3673 77.2578 34.5288 76.6127 33.4598C75.9677 32.3909 75.6452 31.1837 75.6452 29.8383C75.6452 28.4929 75.9585 27.295 76.5851 26.2445C77.2301 25.1755 78.0964 24.337 79.1837 23.7288C80.2711 23.1206 81.4967 22.8165 82.8605 22.8165C84.1875 22.8165 85.3578 23.1022 86.3714 23.6735C87.3851 24.2448 88.1776 25.0373 88.7489 26.051C89.3386 27.0646 89.6335 28.2257 89.6335 29.5342C89.6335 29.7738 89.6151 30.0319 89.5782 30.3083C89.5598 30.5663 89.5137 30.8704 89.44 31.2206L77.8568 31.2482V28.3455L87.6431 28.3179L85.8185 29.5342C85.8001 28.7602 85.6803 28.1243 85.4591 27.6267C85.238 27.1107 84.9062 26.7237 84.4639 26.4656C84.04 26.1892 83.5148 26.051 82.8881 26.051C82.2247 26.051 81.6441 26.2076 81.1465 26.5209C80.6673 26.8158 80.2895 27.2397 80.0131 27.7926C79.7551 28.3455 79.626 29.0182 79.626 29.8107C79.626 30.6032 79.7643 31.2851 80.0407 31.8564C80.3356 32.4093 80.7411 32.8424 81.2571 33.1557C81.7916 33.4506 82.4182 33.5981 83.137 33.5981C83.8004 33.5981 84.3994 33.4875 84.9339 33.2663C85.4683 33.0267 85.9383 32.6766 86.3438 32.2158L88.6659 34.538C88.0025 35.312 87.2008 35.8926 86.2608 36.2796C85.3209 36.6667 84.2888 36.8602 83.1646 36.8602Z" stroke="white" stroke-width="4" mask="url(#path-2-outside-1_362_2008)"/>
<path d="M91.9984 36.5566V37.5566H92.9984H97.3387H98.3387V36.5566V29.4013H104.079V36.5566V37.5566H105.079H109.447H110.447V36.5566V17.0392V16.0392H109.447H105.079H104.079V17.0392V23.6416H98.3387V17.0392V16.0392H97.3387H92.9984H91.9984V17.0392V36.5566ZM115.005 36.9909L115.016 36.9964L115.026 37.0018C116.146 37.5833 117.404 37.8607 118.777 37.8607C120.148 37.8607 121.401 37.5835 122.507 36.9981L122.513 36.9945L122.52 36.9909C123.608 36.3934 124.477 35.5715 125.106 34.5304L125.106 34.5304L125.111 34.5226C125.747 33.4468 126.052 32.2254 126.052 30.8894V23.1211V22.1211H125.052H120.822H119.822V23.1211V30.8617C119.822 31.3763 119.692 31.6637 119.537 31.8391C119.39 31.9895 119.173 32.101 118.777 32.101C118.474 32.101 118.28 32.0388 118.15 31.9626L117.643 32.8245L118.15 31.9626C118.013 31.8818 117.909 31.7753 117.829 31.6234C117.756 31.45 117.703 31.2049 117.703 30.8617V23.1211V22.1211H116.703H112.473H111.473V23.1211V30.917C111.473 32.2377 111.779 33.4493 112.415 34.5226L112.415 34.5226L112.419 34.5304C113.048 35.5715 113.917 36.3934 115.005 36.9909ZM132.882 37.5566V37.341C133.683 37.6716 134.542 37.8331 135.448 37.8331C136.885 37.8331 138.195 37.4875 139.346 36.7718C140.494 36.0692 141.39 35.1075 142.025 33.9044C142.683 32.6913 143 31.3275 143 29.8389C143 28.3503 142.683 26.9865 142.025 25.7733C141.39 24.5702 140.494 23.6085 139.346 22.9058C138.195 22.1902 136.885 21.8447 135.448 21.8447C134.563 21.8447 133.723 21.9919 132.937 22.2942V16.4863V15.4863H131.937H127.708H126.708V16.4863V36.5566V37.5566H127.708H131.882H132.882ZM132.936 28.6409C133.105 28.3306 133.329 28.1068 133.615 27.9469L133.628 27.9396L133.64 27.9319C133.931 27.7576 134.275 27.6597 134.702 27.6597C135.129 27.6597 135.457 27.7578 135.72 27.9224L135.74 27.9351L135.761 27.9469C136.051 28.1091 136.277 28.337 136.448 28.6543C136.616 28.967 136.715 29.3525 136.715 29.8389C136.715 30.3013 136.618 30.6788 136.448 30.9958L137.328 31.4699L136.448 30.9958C136.274 31.3188 136.04 31.5632 135.735 31.7459L135.728 31.7506L135.72 31.7554C135.457 31.92 135.129 32.018 134.702 32.018C134.273 32.018 133.926 31.9279 133.636 31.7701C133.357 31.591 133.131 31.3487 132.956 31.0235C132.788 30.7107 132.688 30.3252 132.688 29.8389C132.688 29.3483 132.78 28.9572 132.936 28.6409Z" fill="#E95F10" stroke="white" stroke-width="2"/>
</svg>
