<svg width="484" height="345" viewBox="0 0 484 345" fill="none" xmlns="http://www.w3.org/2000/svg">
<g clip-path="url(#clip0_636_7353)">
<path d="M444.453 60.1952L36.5975 79.0773C20.1586 79.8379 7.85674 92.9004 9.76341 107.566L30.48 267.005C32.0841 279.339 43.3342 288.857 57.1523 289.567L414.249 307.916C429.09 308.68 442.089 299.08 444.108 285.865L474.151 89.1953C476.578 73.3113 462.295 59.3683 444.453 60.1952Z" fill="#ECF1FE"/>
<path d="M74.4648 90.3569H70.7324V249.181H74.4648V90.3569Z" stroke="#A3BCF8" stroke-width="2" stroke-miterlimit="10" stroke-linecap="round" stroke-linejoin="round"/>
<path d="M81.757 86.7053H63.4396C62.6586 86.7053 62.0254 87.2734 62.0254 87.974V89.0912C62.0254 89.7919 62.6586 90.3599 63.4396 90.3599H81.757C82.5379 90.3599 83.1711 89.7919 83.1711 89.0912V87.974C83.1711 87.2734 82.5379 86.7053 81.757 86.7053Z" stroke="#A3BCF8" stroke-width="2" stroke-miterlimit="10" stroke-linecap="round" stroke-linejoin="round"/>
<path d="M84.2404 86.0616C89.0141 82.8709 92.1027 77.7709 92.1027 72.0207V68.2115C92.1027 58.5479 83.3715 50.7117 72.5963 50.7117C61.8247 50.7117 53.0898 58.5448 53.0898 68.2115V72.0207C53.0898 77.7709 56.182 82.8709 60.9522 86.0616" stroke="#A3BCF8" stroke-width="2" stroke-miterlimit="10" stroke-linecap="round" stroke-linejoin="round"/>
<path d="M24.373 249.181H454.503" stroke="#A3BCF8" stroke-width="2" stroke-miterlimit="10" stroke-linecap="round" stroke-linejoin="round"/>
<path d="M454.503 265.986H24.373" stroke="#A3BCF8" stroke-width="2" stroke-miterlimit="10" stroke-linecap="round" stroke-linejoin="round"/>
<path d="M24.373 258.106H41.1321C43.8302 258.106 46.3279 259.378 47.7139 261.451L50.7252 265.967" stroke="#A3BCF8" stroke-width="2" stroke-miterlimit="10" stroke-linecap="round" stroke-linejoin="round"/>
<path d="M436.289 265.967L433.278 261.451C431.892 259.374 429.394 258.106 426.696 258.106H414.299C411.594 258.106 409.089 259.384 407.707 261.47L404.783 265.882" stroke="#A3BCF8" stroke-width="2" stroke-miterlimit="10" stroke-linecap="round" stroke-linejoin="round"/>
<path d="M67.9415 197.817H24.373" stroke="#A3BCF8" stroke-width="2" stroke-miterlimit="10" stroke-linecap="round" stroke-linejoin="round"/>
<path d="M206.499 249.181V203.078C206.499 200.175 203.874 197.817 200.634 197.817H77.4395" stroke="#A3BCF8" stroke-width="2" stroke-miterlimit="10" stroke-linecap="round" stroke-linejoin="round"/>
<path d="M433.171 197.817H371.281" stroke="#A3BCF8" stroke-width="2" stroke-miterlimit="10" stroke-linecap="round" stroke-linejoin="round"/>
<path d="M484.394 249.181V197.817H442.592" stroke="#A3BCF8" stroke-width="2" stroke-miterlimit="10" stroke-linecap="round" stroke-linejoin="round"/>
<path d="M77.1406 204.511H206.499" stroke="#A3BCF8" stroke-width="2" stroke-miterlimit="10" stroke-linecap="round" stroke-linejoin="round"/>
<path d="M25.957 204.511H67.6435" stroke="#A3BCF8" stroke-width="2" stroke-miterlimit="10" stroke-linecap="round" stroke-linejoin="round"/>
<path d="M443.271 204.511H484.395" stroke="#A3BCF8" stroke-width="2" stroke-miterlimit="10" stroke-linecap="round" stroke-linejoin="round"/>
<path d="M370.943 204.511H432.868" stroke="#A3BCF8" stroke-width="2" stroke-miterlimit="10" stroke-linecap="round" stroke-linejoin="round"/>
<path d="M68.7578 178.411C67.8959 178.377 66.9813 178.421 65.9822 178.554C59.8752 179.355 58.6334 177.667 55.8051 174.504C52.9767 171.342 47.6648 170.241 44.0449 173.125C40.4251 176.01 38.0505 175.704 33.8678 173.981C29.6851 172.257 24.746 173.917 22.3328 177.938C21.5237 179.289 20.4648 180.154 19.2617 180.7" stroke="#A3BCF8" stroke-width="2" stroke-miterlimit="10" stroke-linecap="round" stroke-linejoin="round"/>
<path d="M197.149 197.817C197.149 197.817 197.828 190.761 190.817 189.066C183.806 187.371 184.939 180.674 177.024 180.267C169.109 179.86 169.439 185.134 160.515 181.485C151.59 177.837 153.271 172.999 139.819 174.504C126.367 176.01 125.009 179.254 117.998 175.603C110.987 171.951 99.9057 172.374 95.6104 178.553C91.3151 184.733 88.4868 188.892 81.817 184.531C79.555 183.051 77.7081 181.798 76.0195 180.816" stroke="#A3BCF8" stroke-width="2" stroke-miterlimit="10" stroke-linecap="round" stroke-linejoin="round"/>
<path d="M441.459 173.652C443.253 174.615 444.973 175.224 447.042 174.501C451.453 172.961 451.112 168.398 455.748 165.153C460.385 161.909 468.867 162.313 474.066 167.691C479.269 173.068 480.285 198.124 480.285 198.124" stroke="#A3BCF8" stroke-width="2" stroke-miterlimit="10" stroke-linecap="round" stroke-linejoin="round"/>
<path d="M378.743 197.309C378.743 197.309 377.839 191.831 384.397 190.006C390.954 188.179 394.12 187.655 396.836 183.152C399.548 178.645 404.976 176.026 411.308 178.553C417.64 181.081 421.26 179.052 423.293 175.401C425.33 171.749 429.172 169.313 434.487 170.43" stroke="#A3BCF8" stroke-width="2" stroke-miterlimit="10" stroke-linecap="round" stroke-linejoin="round"/>
<path d="M45.6309 82.4543V169.515" stroke="#A3BCF8" stroke-width="2" stroke-miterlimit="10" stroke-linecap="round" stroke-linejoin="round"/>
<path d="M412.762 176.818V115.242C412.762 111.199 416.417 107.92 420.923 107.92H433.246" stroke="#A3BCF8" stroke-width="2" stroke-miterlimit="10" stroke-linecap="round" stroke-linejoin="round"/>
<path d="M442.293 107.92H468.751" stroke="#A3BCF8" stroke-width="2" stroke-miterlimit="10" stroke-linecap="round" stroke-linejoin="round"/>
<path d="M439.807 90.3569H436.074V249.181H439.807V90.3569Z" stroke="#A3BCF8" stroke-width="2" stroke-miterlimit="10" stroke-linecap="round" stroke-linejoin="round"/>
<path d="M447.099 86.7053H428.781C428 86.7053 427.367 87.2734 427.367 87.974V89.0912C427.367 89.7919 428 90.3599 428.781 90.3599H447.099C447.88 90.3599 448.513 89.7919 448.513 89.0912V87.974C448.513 87.2734 447.88 86.7053 447.099 86.7053Z" stroke="#A3BCF8" stroke-width="2" stroke-miterlimit="10" stroke-linecap="round" stroke-linejoin="round"/>
<path d="M449.582 86.0616C454.356 82.8709 457.445 77.7709 457.445 72.0207V68.2115C457.445 58.5479 448.713 50.7117 437.938 50.7117C427.166 50.7117 418.432 58.5448 418.432 68.2115V72.0207C418.432 77.7709 421.524 82.8709 426.294 86.0616" stroke="#A3BCF8" stroke-width="2" stroke-miterlimit="10" stroke-linecap="round" stroke-linejoin="round"/>
<path d="M131.677 42.1558H98.7007C97.7333 42.1558 96.9453 42.8595 96.9453 43.7306V59.968C96.9453 60.8359 97.7298 61.5428 98.7007 61.5428H128.328L132.025 64.8377C132.546 65.3016 133.432 64.9702 133.432 64.3138V43.7337C133.432 42.8595 132.644 42.1558 131.677 42.1558Z" fill="#F2A4D2"/>
<path d="M115.189 47.6282C112.519 47.6282 110.355 49.5691 110.355 51.9645C110.355 54.3599 112.519 56.3008 115.189 56.3008C117.859 56.3008 120.022 54.3599 120.022 51.9645C120.022 49.5691 117.859 47.6282 115.189 47.6282Z" stroke="white" stroke-width="2" stroke-miterlimit="10" stroke-linecap="round" stroke-linejoin="round"/>
<path d="M115.439 51.5669C114.661 51.2766 114.331 51.0683 114.331 50.6517C114.331 50.3298 114.591 49.9605 115.277 49.9605C115.65 49.9605 115.935 50.0363 116.142 50.1152C116.29 50.172 116.456 50.1089 116.512 49.9763L116.54 49.9132C116.593 49.7901 116.533 49.6513 116.399 49.5976C116.213 49.525 115.988 49.4651 115.706 49.4367C115.569 49.424 115.467 49.3136 115.467 49.1905V48.8907C115.467 48.7518 115.344 48.6414 115.189 48.6414C115.034 48.6414 114.911 48.7518 114.911 48.8907V49.2441C114.911 49.3546 114.834 49.4588 114.711 49.4903C114.004 49.6576 113.56 50.1341 113.56 50.7432C113.56 51.4407 114.123 51.8099 115.034 52.1319C115.696 52.3717 116.044 52.6463 116.044 53.0881C116.044 53.5457 115.615 53.874 114.978 53.874C114.605 53.874 114.253 53.7887 113.965 53.6656C113.814 53.6025 113.638 53.6625 113.582 53.8045L113.553 53.8708C113.508 53.9876 113.56 54.1201 113.687 54.1769C113.94 54.2905 114.267 54.3726 114.602 54.4041C114.742 54.4168 114.844 54.5241 114.844 54.6503V54.9785C114.844 55.1174 114.968 55.2279 115.122 55.2279H115.133C115.288 55.2279 115.411 55.1174 115.411 54.9785V54.5935C115.411 54.483 115.488 54.3821 115.608 54.3568C116.403 54.1706 116.825 53.6183 116.825 53.0313C116.825 52.3212 116.361 51.9046 115.439 51.5669Z" fill="white"/>
<path d="M303.437 322.083H220.328V327.035H303.437V322.083Z" fill="#ECF1FE"/>
<path d="M251.211 39.2649C248.242 39.2649 246.223 41.9696 247.356 44.4312L254.704 60.4004L220.328 114.329V322.083H303.437V114.329L337.814 60.4004L328.087 39.2649H251.211Z" fill="white"/>
<path d="M247.293 44.2671C247.314 44.3207 247.332 44.3775 247.356 44.4312L254.705 60.4004H337.814L330.391 44.2671H247.293Z" fill="#BCE2F0"/>
<path d="M251.211 39.2649C248.309 39.2649 246.321 41.8528 247.292 44.2671H330.387L328.083 39.2649H251.211Z" fill="#ECF1FE"/>
<path d="M303.437 204.817H220.328" stroke="#BCE2F0" stroke-width="2" stroke-miterlimit="10" stroke-linecap="round" stroke-linejoin="round"/>
<path d="M384.512 39.2649H327.759C324.789 39.2649 322.774 41.9696 323.906 44.4312L331.252 60.4004L296.879 114.329V322.083H366.838V153.678L391.509 114.97C392.701 113.099 393.331 110.978 393.331 108.819V47.1769C393.331 42.8059 389.381 39.2649 384.512 39.2649Z" fill="#BCE2F0"/>
<path d="M366.838 322.083H296.879V327.035H366.838V322.083Z" fill="#A3BCF8"/>
<path d="M265.183 121.973H230.202C229.431 121.973 228.809 122.532 228.809 123.223V144.267C228.809 144.958 229.431 145.517 230.202 145.517H265.183C265.954 145.517 266.576 144.958 266.576 144.267V123.223C266.576 122.535 265.95 121.973 265.183 121.973Z" fill="#ECF1FE"/>
<path d="M286.515 213.641H230.202C229.431 213.641 228.809 214.2 228.809 214.891V313.562C228.809 314.254 229.431 314.812 230.202 314.812H286.512C287.282 314.812 287.905 314.254 287.905 313.562V214.891C287.908 214.2 287.286 213.641 286.515 213.641Z" stroke="#BCE2F0" stroke-width="2" stroke-miterlimit="10" stroke-linecap="round" stroke-linejoin="round"/>
<path d="M256.038 131.918H239.195C238.871 131.918 238.607 132.154 238.607 132.445V133.183C238.607 133.474 238.871 133.71 239.195 133.71H256.038C256.362 133.71 256.626 133.474 256.626 133.183V132.445C256.626 132.154 256.362 131.918 256.038 131.918Z" fill="#A3BCF8"/>
<path d="M279.072 268.593C280.275 268.593 281.25 267.718 281.25 266.639C281.25 265.56 280.275 264.686 279.072 264.686C277.869 264.686 276.895 265.56 276.895 266.639C276.895 267.718 277.869 268.593 279.072 268.593Z" fill="#BCE2F0"/>
<path d="M372.035 325.126H218.745C217.06 325.126 215.691 326.353 215.691 327.865V331.984C215.691 333.495 217.06 334.723 218.745 334.723H372.031C373.716 334.723 375.085 333.495 375.085 331.984V327.865C375.088 326.353 373.72 325.126 372.035 325.126Z" fill="#BCE2F0"/>
<path d="M301.91 325.126H218.745C217.06 325.126 215.691 326.353 215.691 327.865V331.984C215.691 333.495 217.06 334.723 218.745 334.723H301.91C303.595 334.723 304.964 333.495 304.964 331.984V327.865C304.964 326.353 303.599 325.126 301.91 325.126Z" fill="white"/>
<path d="M244.231 86.7842L228.809 110.975H291.18L292.274 109.258L296.196 103.104L299.781 97.4766L306.595 86.7842L319.031 67.2772L321.275 63.7551H258.907L244.231 86.7842Z" fill="#BCE2F0"/>
<path d="M258.908 101.264V63.7551L228.812 110.975L258.908 101.264Z" fill="#A3BCF8"/>
<path d="M258.908 101.264H297.369" stroke="#A3BCF8" stroke-width="2" stroke-miterlimit="10" stroke-linecap="round" stroke-linejoin="round"/>
<path d="M263.484 69.4705V95.2863C263.484 96.495 264.578 97.4765 265.926 97.4765H299.782L306.596 86.7841L319.031 67.2739H265.929C264.578 67.2771 263.484 68.2586 263.484 69.4705Z" fill="#212B6C"/>
<path d="M270.68 78.8218H283.78" stroke="#A3BCF8" stroke-width="2" stroke-miterlimit="10" stroke-linecap="round" stroke-linejoin="round"/>
<path d="M270.68 83.0854H283.78" stroke="#A3BCF8" stroke-width="2" stroke-miterlimit="10" stroke-linecap="round" stroke-linejoin="round"/>
<path d="M270.68 87.3491H283.78" stroke="#A3BCF8" stroke-width="2" stroke-miterlimit="10" stroke-linecap="round" stroke-linejoin="round"/>
<path d="M270.68 91.6128H283.78" stroke="#A3BCF8" stroke-width="2" stroke-miterlimit="10" stroke-linecap="round" stroke-linejoin="round"/>
<path d="M291.258 78.8218H316.59" stroke="#A3BCF8" stroke-width="2" stroke-miterlimit="10" stroke-linecap="round" stroke-linejoin="round"/>
<path d="M291.258 83.0854H316.59" stroke="#A3BCF8" stroke-width="2" stroke-miterlimit="10" stroke-linecap="round" stroke-linejoin="round"/>
<path d="M291.258 87.3491H316.59" stroke="#A3BCF8" stroke-width="2" stroke-miterlimit="10" stroke-linecap="round" stroke-linejoin="round"/>
<path d="M291.258 91.6128H316.59" stroke="#A3BCF8" stroke-width="2" stroke-miterlimit="10" stroke-linecap="round" stroke-linejoin="round"/>
<path d="M283.276 71.1685H270.819C270.542 71.1685 270.316 71.3704 270.316 71.6198V73.5733C270.316 73.8226 270.542 74.0246 270.819 74.0246H283.276C283.554 74.0246 283.779 73.8226 283.779 73.5733V71.6198C283.779 71.3704 283.554 71.1685 283.276 71.1685Z" fill="#F59D6B"/>
<path d="M346.514 220.777V322.084" stroke="#A3BCF8" stroke-width="2" stroke-miterlimit="10" stroke-linecap="round" stroke-linejoin="round"/>
<path d="M366.84 153.678L346.514 185.569V202.516" stroke="#A3BCF8" stroke-width="2" stroke-miterlimit="10" stroke-linecap="round" stroke-linejoin="round"/>
<path d="M346.509 204.817C345.735 204.817 345.105 205.382 345.105 206.077V217.624C345.105 218.319 345.735 218.884 346.509 218.884C347.283 218.884 347.913 218.319 347.913 217.624V206.077C347.913 205.379 347.283 204.817 346.509 204.817Z" stroke="#A3BCF8" stroke-width="2" stroke-miterlimit="10" stroke-linecap="round" stroke-linejoin="round"/>
<path d="M286.699 154.625H229.72C229.217 154.625 228.812 154.991 228.812 155.439V157.039C228.812 157.49 229.221 157.853 229.72 157.853H286.699C287.202 157.853 287.606 157.487 287.606 157.039V155.439C287.606 154.991 287.202 154.625 286.699 154.625Z" fill="#ECF1FE"/>
<path d="M233.369 156.241H282.971" stroke="#A3BCF8" stroke-width="2" stroke-miterlimit="10" stroke-linecap="round" stroke-linejoin="round"/>
<path d="M184.585 332.252C183.41 331.829 178.823 329.898 175.284 327.976C174.271 327.426 173.342 326.877 172.607 326.366C169.289 324.069 164.794 321.001 164.72 320.461C164.642 319.918 164.889 313.613 164.889 313.613L150.261 312.496C150.261 312.496 150.307 318.053 150.233 320.824C150.212 321.594 150.184 322.15 150.142 322.311C149.948 323.052 148.787 332.725 149.463 334.957C149.635 335.512 153.537 335.903 156.055 335.97C157.695 336.014 180.209 336.708 181.943 336.099C183.677 335.49 186.101 332.792 184.585 332.252Z" fill="#ED6B8A"/>
<path d="M150.262 312.496C150.262 312.496 150.29 315.854 150.265 318.65C154.951 319.792 160.077 321.209 164.713 320.408C164.653 319.603 164.885 313.613 164.885 313.613L150.262 312.496Z" fill="#25293D"/>
<path d="M184.589 332.252C183.414 331.829 178.827 329.898 175.288 327.976C169.234 326.312 167.436 329.945 165.174 328.626C162.912 327.307 156.017 324.365 155.904 322.352V322.349C155.89 322.099 155.676 321.894 155.398 321.863C153.136 321.597 151.461 321.219 150.237 320.827C150.216 321.597 150.188 322.153 150.146 322.314C149.952 323.056 148.791 332.729 149.467 334.96C149.639 335.515 153.54 335.907 156.059 335.973C157.699 336.017 180.213 336.711 181.947 336.102C183.681 335.493 186.105 332.792 184.589 332.252Z" fill="#212B6C"/>
<path d="M116.149 326.918C114.398 323.927 113.493 320.73 113.493 320.73L114.51 313.039L99.9005 311.82C99.9005 311.82 99.1054 317.204 98.6411 319.859C98.6305 319.931 98.6165 320.001 98.6059 320.07C98.1521 322.642 96.6957 327.919 96.2067 331.163C96.1364 331.63 97.0968 331.905 98.6059 331.905C98.6059 331.905 98.7572 333.259 98.6059 334.982C98.4547 336.708 99.3024 339.751 102.753 340.36C106.201 340.969 120.958 340.918 123.333 340.36C125.707 339.801 125.535 338.027 125.479 337.873C125.422 337.721 117.905 329.91 116.149 326.918Z" fill="#ED6B8A"/>
<path d="M98.9609 317.937C102.887 320.569 108.681 320.648 113.637 319.644L114.51 313.039L99.9002 311.82C99.9002 311.82 99.4007 315.21 98.9609 317.937Z" fill="#25293D"/>
<path d="M116.15 326.918C114.398 323.926 113.494 320.729 113.494 320.729C113.339 321.029 113.117 321.282 112.843 321.496C112.583 321.698 112.484 322.017 112.572 322.314C112.741 322.888 113.044 323.822 113.416 324.633C113.765 325.397 114.845 327.493 115.499 328.645C115.668 328.944 115.362 329.276 115.003 329.187C110.94 328.184 106.761 328.616 104.379 329.03C103.296 329.216 102.24 328.607 101.99 327.641C101.505 325.77 100.752 323.185 100.752 323.008C100.752 322.958 100.805 322.636 100.886 322.156C100.953 321.758 100.738 321.364 100.344 321.168C99.0777 320.54 98.645 319.855 98.645 319.855C98.6344 319.928 98.6204 319.997 98.6098 320.067C98.156 322.639 96.6996 327.916 96.2107 331.16C96.1403 331.627 97.1007 331.902 98.6098 331.902C98.6098 331.902 98.7611 333.255 98.6098 334.979C98.4586 336.705 99.3063 339.747 102.757 340.356C106.205 340.965 120.962 340.915 123.337 340.356C125.711 339.798 125.539 338.024 125.483 337.869C125.423 337.721 117.905 329.91 116.15 326.918Z" fill="#212B6C"/>
<path d="M98.6065 331.905C98.6065 331.905 98.6276 330.756 98.1738 327.919" stroke="#A3BCF8" stroke-width="2" stroke-miterlimit="10" stroke-linecap="round" stroke-linejoin="round"/>
<path d="M146.944 156.607C145.839 155.698 144.176 154.858 142.142 154.114C142.019 154.066 141.892 154.022 141.766 153.975C137.478 152.466 131.663 151.371 125.988 150.942C123.441 150.752 120.923 150.696 118.58 150.793C115.843 150.913 113.345 151.245 111.336 151.829C108.772 152.573 106.999 153.725 106.514 155.363C106.514 155.363 106.401 162.856 106.957 176.092C107.034 177.865 107.119 179.743 107.221 181.722C107.235 182.041 107.252 182.363 107.27 182.688C108.174 199.998 110.584 232.325 110.584 232.325C110.584 232.325 105.159 255.59 102.897 271.414C100.635 287.238 98.7109 315.339 98.7109 315.339C98.7109 315.339 98.9009 315.522 99.2984 315.794C100.297 316.475 102.609 317.706 106.457 317.924C111.519 318.211 113.82 316.56 114.07 316.371C114.084 316.358 114.091 316.352 114.091 316.352C114.091 316.352 122.495 279.664 126.414 268.303C130.336 256.941 136.82 236.655 137.119 234.49C137.277 233.363 138.582 226.035 139.926 217.529C140.077 216.583 140.225 215.62 140.376 214.651C141.46 207.601 142.487 200.146 142.87 194.958C142.87 194.958 145.685 193.724 147.243 191.019C147.261 190.988 147.278 190.953 147.296 190.918C147.328 190.855 147.356 190.786 147.387 190.707C147.401 190.672 147.412 190.638 147.426 190.6C147.475 190.461 147.521 190.303 147.567 190.126C147.609 189.968 147.648 189.798 147.686 189.612C147.69 189.596 147.693 189.583 147.693 189.571C147.707 189.505 147.722 189.435 147.736 189.366C147.743 189.334 147.75 189.303 147.753 189.271C147.795 189.037 147.838 188.785 147.88 188.514C147.943 188.11 147.999 187.668 148.056 187.194C148.07 187.078 148.084 186.958 148.094 186.835C148.126 186.547 148.158 186.251 148.186 185.941C148.196 185.856 148.203 185.768 148.211 185.676C148.246 185.32 148.277 184.95 148.305 184.572C148.316 184.433 148.327 184.294 148.337 184.152C148.365 183.799 148.39 183.432 148.415 183.06C148.425 182.909 148.436 182.754 148.443 182.599C148.453 182.457 148.46 182.312 148.471 182.167C148.548 180.807 148.615 179.355 148.664 177.862C148.675 177.581 148.685 177.3 148.692 177.016C148.7 176.874 148.703 176.732 148.707 176.59C148.721 176.022 148.735 175.451 148.749 174.88C148.749 174.829 148.752 174.776 148.752 174.725C148.766 173.958 148.777 173.191 148.787 172.428C148.847 167.006 148.728 161.779 148.429 158.882C148.348 158.09 147.82 157.329 146.944 156.607Z" fill="#212B6C"/>
<path d="M167.926 180.355C166.93 170.234 166.026 162.947 165.467 158.781C165.467 158.778 165.467 158.778 165.467 158.775C165.101 156.076 164.886 154.688 164.886 154.688C162.375 153.403 159.627 152.709 156.834 152.428C156.662 152.409 156.489 152.393 156.317 152.378C155.072 152.274 153.819 152.248 152.577 152.286C150.829 152.34 149.102 152.517 147.438 152.775C145.584 153.059 143.811 153.444 142.186 153.864C142.045 153.902 141.908 153.937 141.767 153.975C136.701 155.325 133.148 156.989 133.148 156.989C133.148 156.989 133.148 157.011 133.152 157.055C133.173 157.355 133.254 158.655 133.398 160.672C133.602 163.578 133.929 167.981 134.362 173.018C134.703 176.937 135.108 181.245 135.569 185.534C135.748 187.179 135.935 188.823 136.132 190.442C136.652 194.762 137.229 198.906 137.862 202.434C138.569 206.383 139.431 210.492 140.328 214.443C140.342 214.512 140.36 214.582 140.378 214.651C143.153 226.852 146.266 237.532 146.266 237.532C145.813 253.965 148.866 317.365 148.866 317.365C149.348 317.454 149.816 317.532 150.273 317.608C161.038 319.363 164.172 317.529 164.77 317.062C164.851 316.999 164.886 316.961 164.886 316.961C170.613 263.805 171.482 229.333 171.482 229.333C170.596 211.596 169.453 196.706 168.369 185.007C168.221 183.394 168.07 181.845 167.926 180.355Z" fill="#212B6C"/>
<path d="M140.327 214.443L139.926 217.529C140.077 216.583 140.225 215.62 140.376 214.651C143.152 226.852 146.265 237.532 146.265 237.532L142.87 194.958L140.327 214.443Z" fill="#25293D"/>
<path d="M135.602 232.326C136.263 227.621 133.038 223.381 128.399 222.856C123.759 222.331 119.462 225.72 118.801 230.425C118.14 235.13 121.365 239.37 126.004 239.895C130.644 240.42 134.941 237.031 135.602 232.326Z" stroke="#32449E" stroke-width="2" stroke-miterlimit="10" stroke-linecap="round" stroke-linejoin="round"/>
<path d="M170.317 236.876C168.948 238.637 166.94 239.747 164.702 239.747C160.576 239.747 157.23 235.97 157.23 231.308C157.23 226.647 160.576 222.869 164.702 222.869C167.021 222.869 169.096 224.062 170.465 225.937" stroke="#32449E" stroke-width="2" stroke-miterlimit="10" stroke-linecap="round" stroke-linejoin="round"/>
<path d="M148.753 174.725C148.753 174.776 148.749 174.829 148.749 174.88C148.739 175.451 148.725 176.022 148.707 176.59C148.704 176.732 148.7 176.874 148.693 177.016C148.686 177.3 148.676 177.581 148.665 177.862C148.616 179.355 148.549 180.807 148.472 182.167C148.461 182.312 148.454 182.457 148.443 182.599C148.436 182.754 148.426 182.909 148.415 183.06C148.391 183.432 148.366 183.798 148.338 184.152C148.327 184.294 148.317 184.433 148.306 184.572C148.278 184.95 148.246 185.32 148.211 185.676C148.204 185.768 148.197 185.856 148.187 185.941C148.158 186.251 148.127 186.547 148.095 186.835C148.085 186.958 148.07 187.078 148.056 187.194C148 187.668 147.944 188.11 147.881 188.513C147.842 188.785 147.8 189.037 147.754 189.271C147.75 189.302 147.743 189.334 147.736 189.366C147.722 189.435 147.712 189.504 147.694 189.571C147.694 189.583 147.691 189.596 147.687 189.612C147.648 189.798 147.61 189.968 147.567 190.126C147.522 190.303 147.476 190.461 147.427 190.6C147.413 190.637 147.402 190.675 147.388 190.707C147.36 190.786 147.328 190.855 147.297 190.918C147.279 190.953 147.261 190.988 147.244 191.019C145.685 193.724 142.871 194.958 142.871 194.958C142.488 200.146 141.46 207.601 140.377 214.651" stroke="#32449E" stroke-width="2" stroke-miterlimit="10" stroke-linecap="round" stroke-linejoin="round"/>
<path d="M257.53 56.8625C256.341 57.4212 249.727 59.5514 248.485 60.11C247.581 60.514 243.423 62.5401 241.214 63.6163C240.341 64.0424 239.705 64.7651 239.448 65.6203C239.304 66.0969 239.11 66.7123 238.857 67.4918C238.104 69.802 235.314 74.8168 235.314 74.8168C236.387 80.0399 241.84 80.9552 241.84 80.9552C246.389 77.0481 246.565 73.2673 247.958 71.2916C249.354 69.316 250.293 63.4554 250.293 63.4554C250.293 63.4554 251.82 62.1867 255.373 60.413C258.926 58.6394 258.719 56.3071 257.53 56.8625Z" fill="#ED6B8A"/>
<path d="M235.961 74.3466C235.338 74.1225 234.635 74.2077 234.104 74.577C231.958 76.0603 227.736 79.6644 222.252 83.7798C215.92 88.5327 198.619 99.9257 198.619 99.9257C198.619 99.9257 192.741 97.9943 186.859 95.9303C180.977 93.8663 167.194 87.447 167.194 87.447C157.14 84.1995 158.023 105.401 166.712 108.863C172.337 111.104 184.85 114.342 192.984 116.346C197.757 117.523 202.869 116.545 206.693 113.724C211.181 110.41 217.44 105.641 223.04 100.838C231.655 93.4528 239.813 84.6571 242.117 82.1324C242.543 81.6653 242.648 81.0309 242.416 80.4629C240.823 76.5558 237.604 74.9399 235.961 74.3466Z" fill="#F59D6B"/>
<path d="M164.732 87.1377C157.366 87.8951 158.812 105.717 166.713 108.863C168.88 109.728 172.074 110.738 175.645 111.77C175.314 106.717 174.983 101.576 172.876 96.6087C171.191 92.7616 168.3 89.6309 164.732 87.1377Z" fill="#1F296F"/>
<path d="M255.373 61.1736C254.402 61.0726 250.35 62.8462 249.671 63.1461C248.992 63.4459 244.753 65.5856 244.753 65.5856C241.193 67.9684 240.908 77.8655 245.295 75.5963C249.681 73.324 250.448 67.1983 250.448 67.1983C250.448 67.1983 250.8 66.5008 253.428 64.5725C256.056 62.6442 256.344 61.2777 255.373 61.1736Z" fill="#ED6B8A"/>
<path d="M244.752 65.5888C244.752 65.5888 248.991 63.4459 249.67 63.1492C250.349 62.8494 254.401 61.0758 255.372 61.1768C256.343 61.2777 256.058 62.6474 253.43 64.5757C250.803 66.504 250.451 67.2015 250.451 67.2015C250.451 67.2015 249.684 73.3304 245.297 75.5995" stroke="#212B6C" stroke-width="2" stroke-miterlimit="10" stroke-linecap="round" stroke-linejoin="round"/>
<path d="M231.24 76.7514C231.24 76.7514 233.917 76.6315 236.95 79.6359C239.212 81.8767 239.799 84.635 239.799 84.635" stroke="white" stroke-width="2" stroke-miterlimit="10" stroke-linecap="round" stroke-linejoin="round"/>
<path d="M191.798 115.482C191.798 115.482 191.573 111.72 198.731 111.098C205.63 110.501 206.108 113.392 206.108 113.392" stroke="#E95F10" stroke-width="2" stroke-miterlimit="10" stroke-linecap="round" stroke-linejoin="round"/>
<path d="M167.112 93.0143C166.971 89.8425 164.716 87.0716 161.434 86.0175C158.641 85.118 155.246 83.7957 149.241 83.376C136.7 82.4954 125.387 86.9169 121.795 90.4516C118.203 93.9863 117.183 102.283 115.632 124.918C114.08 147.552 108.431 158.737 108.533 166.719C108.533 166.719 122.639 174.211 142.846 172.986C163.052 171.762 166.07 165.321 166.07 165.321C166.07 165.321 163.312 138.754 164.618 129.118C165.74 120.853 167.601 103.915 167.112 93.0143Z" fill="white"/>
<path d="M152.313 98.3982C152.313 98.3982 152.306 109.381 150.529 124.943C148.753 140.505 147.011 161.11 144.035 173.125" stroke="#F7CB71" stroke-width="2" stroke-miterlimit="10" stroke-linecap="round" stroke-linejoin="round"/>
<path d="M156.672 96.208C156.672 96.208 156.763 109.346 155.247 127.054C153.727 144.763 151.406 160.018 150.533 172.172" stroke="#F7CB71" stroke-width="2" stroke-miterlimit="10" stroke-linecap="round" stroke-linejoin="round"/>
<path d="M155.246 171.209C155.246 171.209 156.643 145.877 156.984 141.752C157.325 137.627 163.172 101.03 163.172 101.03" stroke="#F7CB71" stroke-width="2" stroke-miterlimit="10" stroke-linecap="round" stroke-linejoin="round"/>
<path d="M156.488 84.2501C155.436 84.288 145.15 82.0094 144.348 85.3989C143.215 90.1991 145.414 94.3902 147.482 96.4858C149.005 98.029 152.02 100.197 155.689 100.197C161.3 100.197 162.229 94.0336 161.093 90.562C159.956 87.0905 157.54 84.2122 156.488 84.2501Z" fill="#F7CB71"/>
<path d="M169.405 88.1573C168.062 87.0432 160.284 84.7583 160.284 84.7583C157.269 83.8084 158.929 86.3836 158.929 86.8917C158.929 87.3967 160.4 92.522 160.769 101.649C161.138 110.779 155.936 140.079 156.78 151.624C157.49 161.341 156.843 184.84 156.671 188.286C156.646 188.788 157.174 189.17 157.716 189.041C167.748 186.642 170 183.682 170 183.682C170.58 180.463 170.552 168.546 169.458 158.289C169.317 156.967 169.159 155.676 168.98 154.433C168.828 153.366 168.663 152.337 168.484 151.359C166.457 140.366 168.948 127.032 172.42 111.761C176.832 92.3673 169.405 88.1573 169.405 88.1573Z" fill="#E95F10"/>
<path d="M156.671 188.287C156.646 188.788 157.174 189.17 157.716 189.041C167.748 186.642 170 183.682 170 183.682C170.172 182.726 170.292 180.999 170.345 178.781C167.193 181.249 162.134 183.073 156.818 184.086C156.759 186.106 156.706 187.599 156.671 188.287Z" fill="#F59D6B"/>
<path d="M175.826 74.5203C176.03 74.6118 176.248 74.6118 176.248 74.6118C176.108 74.5739 175.967 74.5487 175.826 74.5203Z" fill="#212B6C"/>
<path d="M179.128 50.4087C174.643 49.2189 170.151 47.8902 166.71 46.2775C161.268 43.7244 159.207 47.1896 156.706 46.8393C154.205 46.489 149.357 46.489 147.637 51.5385C145.916 56.5881 148.245 53.2617 143.813 55.7612C139.634 58.1187 139.38 64.2097 142.754 67.6781C145.445 70.4459 145.136 72.087 144.587 75.9436C144.038 79.8002 147.535 82.8173 152.745 81.274C157.863 79.756 167.769 72.8286 175.825 74.5202C175.459 74.353 175.143 73.8764 176.247 72.5067C177.06 71.5 182.699 71.2286 184.592 66.482C186.15 62.5749 184.004 61.7828 184.943 59.8829C187.047 55.6444 185.974 52.2234 179.128 50.4087Z" fill="#212B6C"/>
<path d="M151.071 70.3544C151.071 70.3544 148.528 79.0806 145.981 83.1865C145.981 83.1865 145.101 88.4759 149.46 93.0268C154.054 97.8271 159.018 96.1702 159.598 91.7739C159.616 91.654 159.627 91.5309 159.637 91.4047C159.715 90.3411 160.017 88.9777 160.432 87.5102C161.843 82.5332 164.583 76.3223 164.583 76.3223C164.583 76.3223 162.209 68.8521 151.071 70.3544Z" fill="#ED6B8A"/>
<path d="M152.312 77.2659C152.312 77.2659 151.088 83.0192 154.103 87.4154C155.844 89.956 158.05 91.1868 159.598 91.7738C159.615 91.6539 159.626 91.5308 159.636 91.4046C159.714 90.341 160.016 88.9776 160.431 87.5101C158.493 86.1657 152.949 81.9399 152.312 77.2659Z" fill="#1F296F"/>
<path d="M146.727 81.8579C146.727 81.8579 139.775 82.0441 134.203 83.2623C125.785 85.1022 118.637 88.4255 116.413 95.9335C114.007 104.051 114.799 119.259 112.78 127.244C110.76 135.228 98.884 163.307 100.467 174.725C100.467 174.725 109.402 190.467 137.419 190.455C138.185 190.455 138.815 189.899 138.854 189.211C139.075 185.522 140.06 164.768 142.635 151.359C142.987 149.528 143.367 147.833 143.779 146.341C145.474 140.196 147.177 130.769 148.355 121.513C149.917 109.211 150.561 97.2117 149.038 93.617C145.137 84.4206 146.727 81.8579 146.727 81.8579Z" fill="#E95F10"/>
<path d="M100.485 169.508C100.288 171.474 100.264 173.242 100.471 174.725C100.471 174.725 109.407 190.464 137.423 190.454C138.19 190.454 138.819 189.899 138.858 189.211C138.9 188.523 138.967 187.242 139.065 185.528C123.858 185.989 109.132 180.939 100.485 169.508Z" fill="#F59D6B"/>
<path d="M131.425 153.479L121.42 151.377C120.991 151.286 120.562 151.526 120.46 151.911L119.475 155.682C123.228 156.626 127.105 157.585 131.101 157.857L132.019 154.338C132.121 153.956 131.857 153.568 131.425 153.479Z" fill="#F7CB71"/>
<path d="M129.707 151.725L119.703 149.623C119.274 149.531 118.844 149.771 118.742 150.156L117.043 156.661C116.941 157.046 117.209 157.431 117.638 157.522L127.642 159.624C128.072 159.716 128.501 159.476 128.603 159.091L130.302 152.586C130.404 152.201 130.137 151.816 129.707 151.725Z" fill="white"/>
<path d="M166.039 155.322C165.511 155.433 165.17 155.89 165.258 156.367L165.606 158.238C165.701 158.766 166.278 159.11 166.859 158.98C167.534 158.832 168.466 158.601 169.458 158.289C169.318 156.967 169.159 155.676 168.98 154.432C168.452 154.644 167.358 155.045 166.039 155.322Z" fill="#F59D6B"/>
<path d="M133.084 157.045C124.184 156.38 119.523 155 117.482 154.268C116.782 154.016 115.991 154.36 115.773 155.01L115.245 156.559C115.062 157.096 115.326 157.677 115.885 157.929C121.148 160.28 129.64 160.735 132.718 160.823C133.38 160.842 133.946 160.41 134.037 159.823L134.259 158.361C134.361 157.699 133.823 157.099 133.084 157.045Z" fill="#F59D6B"/>
<path d="M171.623 54.6786C164.597 52.0213 154.779 54.3757 151.279 60.8296C147.779 67.2835 151.307 72.9801 151.307 72.9801C151.223 76.4737 150.304 85.8343 161.481 88.5831C168.713 90.3631 173.086 84.7518 175.091 78.9764C176.836 73.9489 178.774 70.9981 179.415 69.5685C180.867 66.3147 179.939 63.9887 180.189 63.3386C182.218 58.0397 178.12 57.1371 171.623 54.6786Z" fill="#ED6B8A"/>
<path d="M167.05 50.2004C155.117 48.6824 148.008 57.3392 148.346 62.5781C148.683 67.817 150.801 66.5262 152.577 68.9563C154.354 71.3864 155.624 69.4865 157.316 66.6019C157.334 66.5735 157.351 66.5451 157.365 66.5167C158.6 64.418 161.618 63.7773 163.768 65.1597C164.96 65.9297 166.617 66.6651 168.911 67.211C177.628 69.2813 183.214 65.9202 183.214 65.9202C185.202 61.1674 178.986 51.7184 167.05 50.2004Z" fill="#212B6C"/>
<path d="M150.546 65.4184C147.753 64.519 147.373 71.0739 148.728 73.3083C150.082 75.5427 152.58 74.1731 152.58 74.1731L153.086 70.3196C153.086 70.3165 153.339 66.3179 150.546 65.4184Z" fill="#ED6B8A"/>
<path d="M163.686 70.0326C163.043 70.3955 162.853 71.1561 163.257 71.7336C163.662 72.3112 164.51 72.4816 165.153 72.1187C165.797 71.7557 165.987 70.9951 165.583 70.4176C165.178 69.84 164.33 69.6696 163.686 70.0326Z" fill="#1F2970"/>
<path d="M169.84 79.6203C172.918 79.4657 174.065 77.5974 172.373 76.2782L172.795 74.9148" stroke="#1F296F" stroke-width="2" stroke-miterlimit="10" stroke-linecap="round" stroke-linejoin="round"/>
<path d="M165.449 81.858C164.376 81.3215 163.303 80.4188 162.723 78.8914" stroke="#1F296F" stroke-width="2" stroke-miterlimit="10" stroke-linecap="round" stroke-linejoin="round"/>
<path d="M175.201 72.4753C174.56 72.308 173.881 72.671 173.677 73.2895C173.477 73.9081 173.829 74.5456 174.469 74.7129C175.109 74.8801 175.788 74.5172 175.992 73.8986C176.193 73.2801 175.837 72.6426 175.201 72.4753Z" fill="#1F2970"/>
<path d="M168.017 66.684C166.86 66.0086 164.605 65.3269 162.058 66.2926C158.579 67.6087 165.558 67.574 166.828 68.6344C168.094 69.6979 169.435 67.5108 168.017 66.684Z" fill="#1F296F"/>
<path d="M175.816 68.9499C174.916 69.2024 174.075 70.9886 175.341 70.7835C176.608 70.5784 178.835 72.1248 178.138 70.1365C177.948 69.5906 176.805 68.6753 175.816 68.9499Z" fill="#1F296F"/>
<path d="M233.724 132.394C233.587 132.319 233.429 132.278 233.27 132.271L217.324 131.722L214.137 134.326L237.868 134.97C238.026 134.973 238.09 134.787 237.953 134.714L233.724 132.394Z" fill="#212B6C"/>
<path d="M119.695 106.853L142.635 151.358C142.987 149.528 143.367 147.833 143.778 146.34C145.474 140.196 147.177 130.769 148.355 121.512L148.176 120.821L119.695 106.853Z" fill="#212B6C"/>
<path d="M202.657 131.855C191.46 128.882 163.356 121.55 153.295 120.102C153.295 120.102 145.471 105.515 139.42 94.9993C136.258 89.5048 128.554 87.5796 122.686 90.8239C117.258 93.8221 115.446 100.137 118.591 105.111C123.689 113.174 131.21 124.738 136.42 131.255C138.418 133.755 141.324 135.547 144.641 136.32C151.307 137.876 166.36 140.568 199.846 144.232C202.671 144.542 205.281 142.837 205.816 140.328L206.439 137.415C206.956 134.966 205.324 132.562 202.657 131.855Z" fill="#F59D6B"/>
<path d="M222.365 130.586C221.412 130.435 218.2 130.21 215.903 129.936C215.108 129.841 214.302 129.949 213.577 130.255C211.766 131.018 208.385 132.426 207.973 132.502C207.407 132.603 203.112 133.262 203.112 133.262C202.943 135.696 211.593 138.031 213.064 137.371C214.534 136.712 216.061 133.72 216.061 133.72C216.061 133.72 217.349 133.543 220.522 133.092C223.607 132.647 223.645 130.788 222.365 130.586Z" fill="#ED6B8A"/>
<path d="M232.904 134.73C231.715 134.629 223.575 134.528 222.614 134.427C221.654 134.326 215.266 133.31 215.266 133.31C215.266 133.31 210.46 132.65 209.669 132.852C208.877 133.054 203.112 133.259 203.112 133.259C199.555 135.759 199.91 140.152 200.287 142.134C200.403 142.743 200.934 143.222 201.613 143.333L208.255 144.419L217.552 147.303C219.072 147.776 220.754 147.205 221.542 145.946C222.72 144.068 224.296 141.575 224.708 141.02C225.387 140.107 226.122 137.977 226.122 137.977L229.967 137.267C232.964 136.557 234.093 134.831 232.904 134.73Z" fill="#ED6B8A"/>
<path d="M215.266 133.31C215.266 133.31 221.654 134.323 222.614 134.427C223.575 134.528 231.719 134.629 232.904 134.73" stroke="#212B6C" stroke-width="2" stroke-miterlimit="10" stroke-linecap="round" stroke-linejoin="round"/>
<path d="M200.515 131.293C200.515 131.293 196.722 132.309 195.706 136.996C194.612 142.033 197.099 143.866 197.099 143.866" stroke="white" stroke-width="2" stroke-miterlimit="10" stroke-linecap="round" stroke-linejoin="round"/>
<path d="M135.354 128.98C135.354 128.98 139.561 126.95 143.114 129.548C147.057 132.429 147.057 136.081 147.057 136.081" stroke="#E95F10" stroke-width="2" stroke-miterlimit="10" stroke-linecap="round" stroke-linejoin="round"/>
<path d="M226.122 137.977L223.16 138.306L217.918 137.977" stroke="#212B6C" stroke-width="2" stroke-miterlimit="10" stroke-linecap="round" stroke-linejoin="round"/>
<path d="M224.126 141.483C222.877 141.938 221.512 142.077 220.182 141.884L216.914 141.414" stroke="#212B6C" stroke-width="2" stroke-miterlimit="10" stroke-linecap="round" stroke-linejoin="round"/>
<path d="M222.135 144.842L221.854 144.965C221.164 145.261 220.383 145.34 219.637 145.189L216 144.444" stroke="#212B6C" stroke-width="2" stroke-miterlimit="10" stroke-linecap="round" stroke-linejoin="round"/>
<path d="M228.134 153.009H198.134C196.97 153.009 196.023 153.858 196.023 154.903V169.24C196.023 170.285 196.97 171.134 198.134 171.134H228.138C229.302 171.134 230.249 170.285 230.249 169.24V154.903C230.245 153.858 229.302 153.009 228.134 153.009Z" fill="#212B6C"/>
<path d="M230.249 157.169H196.023V161.227H230.249V157.169Z" fill="#ED6B8A"/>
<path d="M225.495 164.471H223.715C222.466 164.471 221.453 165.38 221.453 166.501C221.453 167.621 222.466 168.53 223.715 168.53H225.495C226.744 168.53 227.757 167.621 227.757 166.501C227.757 165.38 226.744 164.471 225.495 164.471Z" fill="#F7CB71"/>
<path d="M186.426 217.997C186.426 218.53 188.832 218.959 191.798 218.959C194.763 218.959 197.169 218.527 197.169 217.997V216.1H186.426V217.997Z" fill="#E9B371"/>
<path d="M191.794 215.137C188.828 215.137 186.422 215.57 186.422 216.1C186.422 216.633 188.828 217.062 191.794 217.062C194.759 217.062 197.165 216.63 197.165 216.1C197.165 215.57 194.763 215.137 191.794 215.137Z" fill="#F7CB71"/>
<path d="M194.106 78.7143C193.688 79.093 195.06 80.9172 197.17 82.7886C199.281 84.6601 201.329 85.8689 201.744 85.4901L203.232 84.1425L195.594 77.3667L194.106 78.7143Z" fill="#E9B371"/>
<path d="M195.595 77.3668C195.176 77.7455 196.548 79.5696 198.659 81.4411C200.769 83.3126 202.817 84.5213 203.232 84.1426C203.651 83.7639 202.279 81.9398 200.168 80.0683C198.057 78.1968 196.01 76.9881 195.595 77.3668Z" fill="#F7CB71"/>
<path d="M99.2306 116.128L91.6777 122.98L93.1799 124.315C93.602 124.691 95.6353 123.46 97.7214 121.566C99.8075 119.673 101.155 117.836 100.733 117.463L99.2306 116.128Z" fill="#E9B371"/>
<path d="M94.6922 118.877C92.6061 120.771 91.2588 122.608 91.6809 122.98C92.103 123.352 94.1363 122.125 96.2224 120.231C98.3085 118.338 99.6558 116.501 99.2337 116.128C98.808 115.756 96.7747 116.987 94.6922 118.877Z" fill="#F7CB71"/>
<path d="M384.002 295.725C372.689 295.725 363.521 296.119 363.521 296.776C363.521 297.432 372.689 298.098 384.002 298.098C395.316 298.098 404.483 297.416 404.483 296.763C404.48 296.11 395.312 295.725 384.002 295.725Z" fill="#A1B8DF"/>
<path d="M406.587 259.99C389.173 277.136 388.02 297.568 388.02 297.568C403.646 288.138 411.923 275.416 416.268 265.39C418.6 260.018 410.914 255.729 406.587 259.99Z" fill="#12AE67"/>
<path d="M368.446 272.046C373.565 286.184 381.754 297.192 381.754 297.192C384.027 284.868 382.373 275.473 379.345 268.505C376.629 262.259 366.139 265.667 368.446 272.046Z" fill="#12AE67"/>
<path d="M381.387 247.836C378.203 258.121 376.708 274.548 385.397 297.192C385.397 297.192 400.046 277.423 392.634 248.111C391.3 242.828 383.002 242.616 381.387 247.836Z" fill="#14C664"/>
<path d="M362.318 268.981C357.382 265.503 350.688 270.556 353.625 275.53C357.541 282.157 365.121 290.416 379.794 297.568C379.794 297.568 377.054 279.364 362.318 268.981Z" fill="#14C664"/>
<path d="M363.518 296.738L367.458 333.35C367.64 335.048 369.231 336.345 371.134 336.345H395.621C397.482 336.345 399.051 335.105 399.283 333.451L404.479 296.741C380.125 298.729 363.518 296.738 363.518 296.738Z" fill="white"/>
<path d="M385.402 297.192C385.402 297.192 386.802 254.479 386.813 247.82" stroke="#32449E" stroke-width="2" stroke-miterlimit="10" stroke-linecap="round" stroke-linejoin="round"/>
<path d="M388.02 297.568C388.02 297.568 404.205 273.848 411.434 263.199" stroke="#32449E" stroke-width="2" stroke-miterlimit="10" stroke-linecap="round" stroke-linejoin="round"/>
<path d="M381.754 297.192C381.754 297.192 378.616 280.658 373.561 268.593" stroke="#32449E" stroke-width="2" stroke-miterlimit="10" stroke-linecap="round" stroke-linejoin="round"/>
<path d="M379.795 297.568C379.795 297.568 366.114 278.613 359.275 272.503" stroke="#32449E" stroke-width="2" stroke-miterlimit="10" stroke-linecap="round" stroke-linejoin="round"/>
</g>
<defs>
<clipPath id="clip0_636_7353">
<rect width="483" height="344" fill="white" transform="translate(0.5 0.986328)"/>
</clipPath>
</defs>
</svg>
