<svg width="728" height="692" viewBox="0 0 728 692" fill="none" xmlns="http://www.w3.org/2000/svg">
<path d="M683.673 114.989L41.4477 144.158C18.0888 145.217 0.625535 167.179 3.70151 191.626L43.7983 510.228C46.378 530.735 62.7396 546.203 82.3462 546.675L642.082 560.169C662.517 560.664 679.981 544.748 682.495 523.355L724.888 162.083C727.909 136.324 708.264 113.867 683.673 114.989Z" fill="#ECF1FE"/>
<path d="M666.286 300.12V440.856" stroke="#A3BCF8" stroke-width="2" stroke-miterlimit="10" stroke-linecap="round" stroke-linejoin="round"/>
<path d="M666.286 115.776V135.869" stroke="#A3BCF8" stroke-width="2" stroke-miterlimit="10" stroke-linecap="round" stroke-linejoin="round"/>
<path d="M58.5508 154.639V328.07H24.895" stroke="#A3BCF8" stroke-width="2" stroke-miterlimit="10" stroke-linecap="round" stroke-linejoin="round"/>
<path d="M48.2813 143.808V317.239H19.5122" stroke="#A3BCF8" stroke-width="2" stroke-miterlimit="10" stroke-linecap="round" stroke-linejoin="round"/>
<path d="M48.2812 463.41H682.282" stroke="#A3BCF8" stroke-width="2" stroke-miterlimit="10" stroke-linecap="round" stroke-linejoin="round"/>
<path d="M39.9204 479.396H679.828" stroke="#A3BCF8" stroke-width="2" stroke-miterlimit="10" stroke-linecap="round" stroke-linejoin="round"/>
<path d="M243.895 119.176C243.633 115.184 240.541 112.061 236.751 111.957L73.2166 107.551C67.8173 107.407 63.5142 112.274 64.0269 117.94L80.6939 302.024C81.2502 308.156 86.6713 312.465 92.4142 311.337L247.942 280.798C251.612 280.079 254.187 276.57 253.93 272.642L243.895 119.176Z" fill="#A3BCF8"/>
<path d="M253.025 117.157C252.758 113.113 249.622 109.938 245.777 109.834L79.8976 105.365C74.422 105.215 70.0589 110.151 70.577 115.903L87.484 302.628C88.0457 308.846 93.5487 313.218 99.3734 312.073L257.132 281.091C260.857 280.361 263.464 276.8 263.207 272.819L253.025 117.157Z" fill="white"/>
<path d="M79.8975 105.364L245.777 109.834C249.622 109.937 252.758 113.107 253.025 117.156L258.037 193.84" stroke="#ECF1FE" stroke-width="2" stroke-miterlimit="10" stroke-linecap="round" stroke-linejoin="round"/>
<path d="M128.862 125.429H95.8554C94.841 125.429 94.0502 126.349 94.1484 127.413L94.9447 136.099C95.0319 137.048 95.8009 137.762 96.7062 137.733L129.582 136.646C130.569 136.611 131.327 135.708 131.235 134.673L130.564 127.074C130.487 126.136 129.746 125.429 128.862 125.429Z" fill="#A1E9FB"/>
<path d="M96.1938 149.651L160.228 145.763" stroke="#A3BCF8" stroke-width="2" stroke-miterlimit="10" stroke-linecap="round" stroke-linejoin="round"/>
<path d="M97.0117 158.533L132.707 155.933" stroke="#A3BCF8" stroke-width="2" stroke-miterlimit="10" stroke-linecap="round" stroke-linejoin="round"/>
<path d="M205.222 201.422C204.235 202.261 203.504 203.395 203.122 204.672L194.358 234.135C193.316 237.638 189.815 239.634 186.466 238.627L171.654 234.187C168.703 233.301 165.572 234.739 164.176 237.615L149.98 266.842C148.491 269.914 145.05 271.312 141.99 270.092L127.87 264.478C125.574 263.564 122.989 264.11 121.2 265.882L110.379 276.604C108.929 278.042 108.192 280.107 108.383 282.201L109.043 289.368L245.079 266.687L238.065 173.5L205.222 201.422Z" fill="#ECF1FE"/>
<path d="M108.078 278.888L99.0625 180.875" stroke="#ECF1FE" stroke-width="2" stroke-miterlimit="10" stroke-linecap="round" stroke-linejoin="round"/>
<path d="M107.396 271.479L120.796 228.475C121.871 225.024 125.328 223.08 128.644 224.063L139.345 227.238C141.417 227.854 143.642 227.336 145.273 225.852L162.627 210.125C163.582 209.263 164.754 208.71 166.003 208.544L180.903 206.542C183.674 206.168 185.899 203.953 186.412 201.054L189.82 181.749C190.36 178.689 192.803 176.411 195.749 176.221L238.071 173.483" stroke="#ED6B8A" stroke-width="4" stroke-miterlimit="10" stroke-linecap="round" stroke-linejoin="round"/>
<path d="M106.605 262.914L121.614 250.604C123.572 248.999 126.228 248.723 128.442 249.897L136.874 254.355C140.124 256.074 144.073 254.613 145.595 251.133L163.571 209.993C163.86 209.326 164.59 209.009 165.245 209.262L181.748 215.728C184.857 216.947 188.331 215.469 189.771 212.323L202.048 185.54C202.446 184.671 203.018 183.901 203.722 183.285L236.314 154.639" stroke="#F59D6B" stroke-width="4" stroke-miterlimit="10" stroke-linecap="round" stroke-linejoin="round"/>
<path d="M171.135 186.817L151.905 188.272C150.962 188.341 150.253 189.215 150.329 190.21L151.142 200.818C151.218 201.83 152.074 202.572 153.029 202.463L160.479 201.589C161.029 201.525 161.575 201.744 161.94 202.181L163.511 204.05C163.702 204.275 164.051 204.217 164.165 203.941L164.989 201.962C165.234 201.376 165.758 200.967 166.363 200.898L172.128 200.225C172.952 200.127 173.557 199.362 173.497 198.488L172.782 188.312C172.722 187.421 171.986 186.753 171.135 186.817Z" fill="#F2A4D2"/>
<path d="M465.747 75.4014H414.623C413.123 75.4014 411.901 76.6841 411.901 78.2718V115.782C411.901 116.979 413.276 117.583 414.083 116.737L419.815 110.732H465.747C467.247 110.732 468.469 109.449 468.469 107.862V78.266C468.469 76.6841 467.253 75.4014 465.747 75.4014Z" fill="#A1E9FB"/>
<path d="M441.399 101.074C445.485 100.374 448.259 96.3144 447.596 92.0057C446.933 87.6969 443.084 84.7709 438.998 85.4702C434.913 86.1694 432.139 90.2293 432.802 94.538C433.465 98.8468 437.314 101.773 441.399 101.074Z" stroke="#F59D6B" stroke-width="2" stroke-miterlimit="10" stroke-linecap="round" stroke-linejoin="round"/>
<path d="M440.578 92.555C439.373 92.0258 438.86 91.6462 438.86 90.8869C438.86 90.3001 439.263 89.6271 440.327 89.6271C440.905 89.6271 441.347 89.7652 441.669 89.909C441.898 90.0125 442.154 89.8975 442.241 89.6559L442.285 89.5408C442.367 89.3165 442.274 89.0634 442.067 88.9656C441.778 88.8333 441.429 88.724 440.992 88.6722C440.78 88.6492 440.621 88.4479 440.621 88.2235V87.6771C440.621 87.424 440.431 87.2227 440.191 87.2227C439.951 87.2227 439.76 87.424 439.76 87.6771V88.3213C439.76 88.5227 439.64 88.7125 439.449 88.77C438.353 89.0749 437.665 89.9435 437.665 91.0537C437.665 92.3249 438.538 92.998 439.951 93.5847C440.976 94.0219 441.516 94.5223 441.516 95.3276C441.516 96.1617 440.851 96.76 439.863 96.76C439.285 96.76 438.74 96.6046 438.293 96.3803C438.058 96.2652 437.785 96.3745 437.698 96.6334L437.655 96.7542C437.584 96.967 437.665 97.2086 437.862 97.3122C438.255 97.5192 438.762 97.6688 439.28 97.7263C439.498 97.7493 439.656 97.9449 439.656 98.175V98.7733C439.656 99.0264 439.847 99.2277 440.087 99.2277H440.103C440.343 99.2277 440.534 99.0264 440.534 98.7733V98.0715C440.534 97.8701 440.654 97.6861 440.84 97.64C442.072 97.3007 442.727 96.294 442.727 95.2241C442.727 93.9298 442.001 93.1705 440.578 92.555Z" fill="#F59D6B"/>
<path d="M705.968 152.849L701.229 148.478L699.811 151.302H538.714C535.028 151.302 531.483 154.454 530.806 158.348L508.756 284.41C508.729 284.565 508.713 284.72 508.696 284.876L505.642 285.612L510.518 290.11H510.523C511.478 290.95 512.738 291.456 514.199 291.456H677.548C681.235 291.456 684.78 288.304 685.456 284.41L707.506 158.348C707.899 156.122 707.266 154.144 705.968 152.849Z" fill="#A3BCF8"/>
<path d="M697.487 147.086H534.139C530.452 147.086 526.907 150.238 526.231 154.132L504.181 280.194C503.499 284.082 505.937 287.24 509.629 287.24H672.978C676.665 287.24 680.21 284.088 680.886 280.194L702.936 154.132C703.612 150.244 701.174 147.086 697.487 147.086Z" fill="white"/>
<path d="M547.452 192.478H541.578C540.351 192.478 539.298 193.404 539.074 194.675L526.334 267.522C526.045 269.173 527.245 270.691 528.837 270.691H534.711C535.938 270.691 536.991 269.765 537.215 268.494L549.955 195.647C550.238 194.002 549.039 192.478 547.452 192.478Z" fill="#BCE2F0"/>
<path d="M570.592 203.981H564.719C563.491 203.981 562.439 204.908 562.215 206.179L551.487 267.521C551.198 269.172 552.398 270.691 553.991 270.691H559.865C561.092 270.691 562.144 269.765 562.368 268.493L573.096 207.151C573.385 205.506 572.185 203.981 570.592 203.981Z" fill="#BCE2F0"/>
<path d="M544.506 163.635H555.55" stroke="#A3BCF8" stroke-width="2" stroke-miterlimit="10" stroke-linecap="round" stroke-linejoin="round"/>
<path d="M569.665 163.635H580.709" stroke="#A3BCF8" stroke-width="2" stroke-miterlimit="10" stroke-linecap="round" stroke-linejoin="round"/>
<path d="M543.825 213.231H537.951C536.724 213.231 535.671 214.158 535.448 215.429L526.334 267.527C526.045 269.178 527.245 270.697 528.837 270.697H534.711C535.938 270.697 536.991 269.771 537.215 268.499L546.328 216.401C546.612 214.75 545.412 213.231 543.825 213.231Z" fill="#A1E9FB"/>
<path d="M566.966 224.736H561.092C559.865 224.736 558.812 225.662 558.588 226.934L551.487 267.528C551.198 269.178 552.398 270.697 553.991 270.697H559.865C561.092 270.697 562.144 269.771 562.368 268.5L569.469 227.906C569.758 226.255 568.553 224.736 566.966 224.736Z" fill="#A1E9FB"/>
<path d="M671.216 203.981H665.343C664.115 203.981 663.063 204.908 662.839 206.179L652.112 267.521C651.822 269.172 653.022 270.691 654.615 270.691H660.489C661.716 270.691 662.768 269.765 662.992 268.493L673.72 207.151C674.009 205.506 672.809 203.981 671.216 203.981Z" fill="#BCE2F0"/>
<path d="M667.59 224.736H661.716C660.489 224.736 659.436 225.662 659.212 226.934L652.112 267.528C651.822 269.178 653.022 270.697 654.615 270.697H660.489C661.716 270.697 662.768 269.771 662.992 268.5L670.093 227.906C670.382 226.255 669.177 224.736 667.59 224.736Z" fill="#F2A4D2"/>
<path d="M600.78 175.221H594.906C593.679 175.221 592.626 176.147 592.402 177.418L576.641 267.522C576.352 269.173 577.552 270.691 579.144 270.691H585.018C586.245 270.691 587.298 269.765 587.521 268.494L603.283 178.39C603.572 176.745 602.372 175.221 600.78 175.221Z" fill="#BCE2F0"/>
<path d="M597.153 195.975H591.279C590.052 195.975 588.999 196.901 588.776 198.172L576.646 267.527C576.357 269.178 577.557 270.697 579.149 270.697H585.023C586.25 270.697 587.303 269.771 587.527 268.499L599.656 199.144C599.94 197.493 598.74 195.975 597.153 195.975Z" fill="#F59D6B"/>
<path d="M624.929 180.973H619.056C617.828 180.973 616.776 181.899 616.552 183.17L601.799 267.522C601.51 269.172 602.71 270.691 604.303 270.691H610.177C611.404 270.691 612.456 269.765 612.68 268.494L627.433 184.142C627.722 182.497 626.522 180.973 624.929 180.973Z" fill="#BCE2F0"/>
<path d="M621.303 201.727H615.429C614.202 201.727 613.149 202.653 612.925 203.924L601.799 267.527C601.51 269.178 602.71 270.696 604.303 270.696H610.177C611.404 270.696 612.456 269.77 612.68 268.499L623.806 204.896C624.089 203.245 622.89 201.727 621.303 201.727Z" fill="#F59D6B"/>
<path d="M652.1 169.468H646.227C645 169.468 643.947 170.394 643.723 171.665L626.958 267.521C626.669 269.172 627.869 270.691 629.461 270.691H635.335C636.562 270.691 637.615 269.765 637.839 268.493L654.604 172.637C654.887 170.992 653.688 169.468 652.1 169.468Z" fill="#BCE2F0"/>
<path d="M644.192 214.67H638.319C637.092 214.67 636.039 215.596 635.815 216.867L626.953 267.528C626.664 269.179 627.864 270.697 629.456 270.697H635.33C636.557 270.697 637.61 269.771 637.833 268.5L646.696 217.839C646.985 216.189 645.785 214.67 644.192 214.67Z" fill="#F59D6B"/>
<path d="M464.378 141.087C464.378 142.059 468.109 142.841 472.706 142.841C477.304 142.841 481.034 142.053 481.034 141.087V137.63H464.378V141.087Z" fill="#E9B371"/>
<path d="M472.706 139.384C477.306 139.384 481.034 138.598 481.034 137.629C481.034 136.66 477.306 135.875 472.706 135.875C468.107 135.875 464.378 136.66 464.378 137.629C464.378 138.598 468.107 139.384 472.706 139.384Z" fill="#F7CB71"/>
<path d="M438.636 168.128C437.987 168.818 440.114 172.143 443.386 175.554C446.659 178.965 449.833 181.169 450.476 180.478L452.783 178.022L440.943 165.672L438.636 168.128Z" fill="#E9B371"/>
<path d="M452.783 178.005C453.429 177.316 451.301 173.993 448.031 170.582C444.76 167.171 441.585 164.965 440.939 165.654C440.293 166.343 442.421 169.666 445.692 173.077C448.962 176.488 452.137 178.694 452.783 178.005Z" fill="#F7CB71"/>
<path d="M665.402 449.231L649.352 453.908L650.224 457.239C650.47 458.176 654.26 457.883 658.694 456.594C663.128 455.306 666.52 453.5 666.275 452.562L665.402 449.231Z" fill="#E9B371"/>
<path d="M656.932 449.875C652.498 451.164 649.106 452.97 649.351 453.908C649.597 454.845 653.387 454.552 657.821 453.263C662.255 451.975 665.648 450.169 665.402 449.231C665.157 448.293 661.366 448.587 656.932 449.875Z" fill="#F7CB71"/>
<path d="M75.2231 373.767L63.5137 386.255L65.8425 388.688C66.4969 389.373 69.6493 387.129 72.8834 383.678C76.1175 380.226 78.2064 376.879 77.5519 376.2L75.2231 373.767Z" fill="#E9B371"/>
<path d="M70.5611 381.229C73.7949 377.779 75.8869 374.43 75.2336 373.749C74.5803 373.068 71.4292 375.312 68.1953 378.762C64.9614 382.211 62.8694 385.56 63.5227 386.241C64.176 386.923 67.3272 384.678 70.5611 381.229Z" fill="#F7CB71"/>
<path d="M376.162 592.239C374.341 591.468 367.229 587.948 361.742 584.444C360.171 583.444 358.732 582.443 357.592 581.511C352.449 577.323 345.479 571.732 345.364 570.748C345.244 569.759 345.626 558.266 345.626 558.266L322.949 556.229C322.949 556.229 323.02 566.359 322.905 571.41C322.872 572.813 322.829 573.826 322.763 574.119C322.463 575.471 320.664 593.102 321.711 597.169C321.978 598.181 328.026 598.894 331.931 599.015C334.473 599.096 369.377 600.361 372.066 599.251C374.755 598.141 378.513 593.222 376.162 592.239Z" fill="#ED6B8A"/>
<path d="M322.96 566.843C329.832 570.432 337.876 571.07 345.342 569.138C345.375 565.721 345.626 558.266 345.626 558.266L322.949 556.229C322.949 556.229 322.987 561.878 322.96 566.843Z" fill="#25293D"/>
<path d="M260.638 582.764C257.922 577.311 256.521 571.484 256.521 571.484L258.097 557.465L235.447 555.245C235.447 555.245 234.214 565.059 233.495 569.896C233.478 570.028 233.456 570.155 233.44 570.282C232.736 574.97 230.479 584.588 229.72 590.501C229.611 591.352 231.1 591.853 233.44 591.853C233.44 591.853 233.675 594.32 233.44 597.461C233.205 600.608 234.52 606.153 239.87 607.263C245.215 608.373 268.094 608.281 271.775 607.263C275.457 606.245 275.189 603.012 275.102 602.73C275.015 602.454 263.36 588.217 260.638 582.764Z" fill="#ED6B8A"/>
<path d="M234.193 564.886C241.436 568.521 249.049 569.407 256.794 569.016L258.092 557.46L235.442 555.239C235.447 555.245 234.815 560.261 234.193 564.886Z" fill="#25293D"/>
<path d="M325.322 322.525C314.921 315.87 241.059 318.643 252.627 344.16C264.195 369.677 286.654 377.857 287.821 382.464C289.926 390.782 314.959 439.13 314.959 439.13C315.483 441.903 321.406 563.138 321.406 563.138C338.907 570.351 347.29 562.706 347.29 562.706C347.29 562.706 354.554 451.923 351.975 433.096C346.472 392.968 325.322 322.525 325.322 322.525Z" fill="#212B6C"/>
<path d="M230.048 310.163L228.93 314.478C224.949 329.859 224.392 345.995 227.299 361.635C230.997 381.532 240.072 406.779 248.766 442.828C248.766 442.828 236.92 512.638 232.148 559.588C232.148 559.588 236.178 564.731 246.699 565.473C257.219 566.215 258.795 561.222 258.795 561.222C258.795 561.222 278.075 484.21 285.688 457.094C287.395 451.008 288.295 444.715 288.361 438.376C288.513 422.822 288.731 393.853 288.339 382.28C288.295 380.974 288.595 379.686 289.222 378.564C290.439 376.401 295.036 376.125 295.751 370.844C296.803 363.067 297.387 330.17 297.387 330.17C297.387 330.17 265.378 304.469 230.048 310.163Z" fill="#212B6C"/>
<path d="M288.339 382.28C288.295 380.974 288.595 379.686 289.222 378.564C290.438 376.401 295.036 376.125 295.75 370.844C296.803 363.067 297.387 330.17 297.387 330.17" stroke="#32449E" stroke-width="2" stroke-miterlimit="10" stroke-linecap="round" stroke-linejoin="round"/>
<path d="M283.505 449.687C285.574 441.879 281.692 433.91 274.835 431.888C267.977 429.867 260.74 434.557 258.671 442.366C256.601 450.174 260.483 458.143 267.341 460.165C274.199 462.186 281.436 457.495 283.505 449.687Z" stroke="#32449E" stroke-width="2" stroke-miterlimit="10" stroke-linecap="round" stroke-linejoin="round"/>
<path d="M352.529 444.545C352.769 436.731 347.721 430.217 341.254 429.997C334.787 429.777 329.351 435.933 329.111 443.747C328.872 451.562 333.92 458.075 340.387 458.296C346.853 458.516 352.29 452.36 352.529 444.545Z" stroke="#32449E" stroke-width="2" stroke-miterlimit="10" stroke-linecap="round" stroke-linejoin="round"/>
<path d="M248.771 336.572C248.771 336.572 248.024 345.575 245.362 350.872C243.164 355.25 239.658 358.391 232.818 360.979" stroke="#32449E" stroke-width="2" stroke-miterlimit="10" stroke-linecap="round" stroke-linejoin="round"/>
<path d="M260.638 582.764C257.922 577.311 256.521 571.484 256.521 571.484C256.281 572.03 255.937 572.491 255.512 572.882C255.108 573.25 254.955 573.831 255.092 574.372C255.354 575.419 255.823 577.121 256.401 578.6C256.941 579.992 258.615 583.811 259.629 585.911C259.891 586.457 259.417 587.061 258.86 586.9C252.561 585.071 246.082 585.859 242.39 586.613C240.71 586.952 239.074 585.842 238.687 584.082C237.934 580.67 236.767 575.959 236.767 575.637C236.767 575.545 236.849 574.958 236.974 574.084C237.078 573.359 236.745 572.64 236.134 572.284C234.171 571.139 233.5 569.891 233.5 569.891C233.484 570.023 233.462 570.15 233.445 570.276C232.742 574.964 230.484 584.582 229.726 590.495C229.617 591.347 231.106 591.847 233.445 591.847C233.445 591.847 233.68 594.315 233.445 597.456C233.211 600.602 234.525 606.147 239.875 607.258C245.22 608.368 268.099 608.276 271.781 607.258C275.462 606.239 275.195 603.007 275.107 602.725C275.015 602.454 263.36 588.217 260.638 582.764Z" fill="#212B6C"/>
<path d="M233.44 591.853C233.44 591.853 233.473 589.759 232.77 584.588" stroke="#A3BCF8" stroke-width="2" stroke-miterlimit="10" stroke-linecap="round" stroke-linejoin="round"/>
<path d="M376.162 592.238C374.341 591.467 367.229 587.947 361.742 584.444C352.356 581.413 349.569 588.033 346.062 585.629C342.555 583.224 331.866 577.863 331.691 574.193V574.188C331.67 573.733 331.337 573.359 330.906 573.302C327.399 572.819 324.803 572.128 322.905 571.415C322.872 572.819 322.829 573.831 322.763 574.124C322.463 575.476 320.664 593.107 321.711 597.174C321.978 598.186 328.026 598.899 331.931 599.02C334.473 599.101 369.377 600.366 372.066 599.256C374.755 598.146 378.513 593.222 376.162 592.238Z" fill="#212B6C"/>
<path d="M437 247.666C434.273 243.904 429.37 242.765 425.4 244.968C410.276 253.36 380.591 268.673 380.591 268.673L380.416 214.964C380.389 206.036 373.812 198.65 365.364 198.064C355.623 197.391 347.551 205.938 348.239 216.212L353.305 292.182C354.2 305.58 368.729 312.689 379.004 304.757L435.135 261.414C439.296 258.198 440.142 251.991 437 247.666Z" fill="#F59D6B"/>
<path d="M380.585 268.673L369.552 273.896" stroke="#212B6C" stroke-width="2" stroke-miterlimit="10" stroke-linecap="round" stroke-linejoin="round"/>
<path d="M455.745 210.845C453.689 211.316 445.105 214.521 441.172 216.01C439.869 216.505 438.707 217.328 437.78 218.415L430.461 226.997C429.081 228.614 428.258 230.679 428.154 232.853C427.838 239.629 425.825 246.101 425.825 246.101C427.32 253.763 431.137 256.529 433.477 257.513C434.54 257.962 435.746 257.714 436.575 256.88L440.316 253.124C447.913 249.552 449.244 237.961 449.244 237.961L455.412 232.094C456.329 231.219 456.487 229.764 455.783 228.694L454.338 226.497L454.66 225.318C454.894 224.443 454.682 223.5 454.093 222.838L449.588 217.765C457.441 213.865 458.434 210.229 455.745 210.845Z" fill="#ED6B8A"/>
<path d="M433.422 226.376C433.422 226.376 442.634 222.373 444.641 221.694C445.006 221.573 445.372 223.512 444.401 224.944C442.765 227.354 438.451 230.719 438.451 230.719C438.451 230.719 443.708 235.252 440.791 243.018" stroke="#212B6C" stroke-width="2" stroke-miterlimit="10" stroke-linecap="round" stroke-linejoin="round"/>
<path d="M454.343 226.503L447.908 234.74C447.324 235.488 447.461 236.604 448.208 237.173C448.819 237.634 449.648 237.588 450.209 237.058L451.469 235.856" stroke="#212B6C" stroke-width="2" stroke-miterlimit="10" stroke-linecap="round" stroke-linejoin="round"/>
<path d="M452.113 229.356L448.377 233.607C447.63 234.458 446.364 234.505 445.563 233.705L445.394 233.538C444.69 232.836 444.565 231.697 445.11 230.852L450.918 221.734C451.453 220.895 451.371 219.773 450.711 219.031L450.553 218.853" stroke="#212B6C" stroke-width="2" stroke-miterlimit="10" stroke-linecap="round" stroke-linejoin="round"/>
<path d="M449.593 217.766L444.641 221.694" stroke="#212B6C" stroke-width="2" stroke-miterlimit="10" stroke-linecap="round" stroke-linejoin="round"/>
<path d="M441.232 227.998L442.252 228.953C442.994 229.644 444.123 229.58 444.788 228.81L450.913 221.729" stroke="#212B6C" stroke-width="2" stroke-miterlimit="10" stroke-linecap="round" stroke-linejoin="round"/>
<path d="M421.326 247.205C421.326 247.205 420.742 252.261 424.773 257.732C428.579 262.897 432.501 263.173 434.311 262.04" stroke="white" stroke-width="2" stroke-miterlimit="10" stroke-linecap="round" stroke-linejoin="round"/>
<path d="M399.614 123.939C394.029 120.218 387.414 122.38 378.311 120.637C369.781 119.004 363.695 116.605 359.735 116.876C351.549 117.433 338.951 128.978 338.302 131.446C337.653 133.914 338.82 138.257 337.391 140.333C335.962 142.404 332.193 144.929 333.753 150.36C335.313 155.79 339.082 156.359 338.558 159.667C338.04 162.974 337.778 168.98 343.494 171.879C349.209 174.778 348.299 176.567 353.758 174.289C359.212 172.011 388.33 167.962 390.408 166.012C390.408 166.012 393.151 166.19 395.644 164.332C398.736 162.025 399.467 158.683 398.594 155.151C398.594 155.151 407.271 148.105 407.277 142.634C407.293 131.578 401.092 124.923 399.614 123.939Z" fill="#212B6C"/>
<path d="M347.819 180.525C326.701 171.793 303.479 179.673 294.551 183.418C291.409 184.735 288.508 186.645 286.076 189.124C269.725 205.823 264.915 242.603 248.422 264.462C235.562 281.506 228.663 297.963 226.007 305.165C225.041 307.782 225.401 310.739 227.01 312.977C234.477 323.388 254.858 336.774 284.303 338.292C308.011 339.518 320.075 332.063 325.087 327.622C326.958 325.965 327.994 323.498 327.967 320.921C327.879 312.896 327.749 293.914 328.479 291.204C329.412 287.753 334.675 281.466 334.675 281.466C358.868 252.624 373.594 230.437 376.386 217.679C379.178 204.931 374.635 191.615 347.819 180.525Z" fill="#E95F10"/>
<path d="M357.107 210.776C357.107 210.776 350.224 211.771 348.664 209.183C347.104 206.594 341.492 199.381 341.492 199.381C341.492 199.381 341.749 242.972 333.382 267.586C333.382 267.586 353.763 246.509 360.603 233.486C367.442 220.463 366.815 216.574 365.375 213.894C363.935 211.213 357.107 210.776 357.107 210.776Z" fill="white"/>
<path d="M368.909 196.741C370.888 209.074 364.704 220.705 364.704 220.705C364.704 220.705 351.413 246.676 334.217 265.429L330.344 273.89C359.212 250.904 370.779 227.389 370.779 227.389C370.779 227.389 370.686 225.341 370.485 223.817C370.277 222.246 369.885 220.705 369.885 220.705L373.67 215.096C374.87 204.311 370.894 193.836 370.894 193.836C366.105 192.818 368.909 196.741 368.909 196.741Z" fill="#F59D6B"/>
<path d="M268.072 222.844C264.805 231.404 261.593 240.285 257.748 248.476L257.743 248.488L303.921 221.688L291.077 217.305L268.072 222.844Z" fill="#212B6C"/>
<path d="M347.126 170.331C347.126 170.331 345.773 183.728 344.017 190.016C342.261 196.303 347.115 211.754 357.232 213.054C365.985 214.175 366.711 202.59 366.711 202.59C366.711 202.59 368.554 187.801 369.492 184.102C370.43 180.398 355.956 165.436 347.126 170.331Z" fill="#ED6B8A"/>
<path d="M350.316 186.726C350.316 186.726 354.352 200.491 366.716 202.585L367.927 195.803C367.927 195.808 356.501 193.669 350.316 186.726Z" fill="#212B6C"/>
<path d="M348.664 215.159L350.562 227.359C350.562 227.359 355.121 228.838 359.326 227.359L362.713 216.021L357.101 210.775L348.664 215.159Z" fill="#E9B371"/>
<path d="M344.448 188.307L345.141 184.873C345.141 184.873 339.578 189.768 340.281 199.11C340.859 206.795 344.601 215.533 345.91 218.392C346.133 218.881 346.733 219.013 347.126 218.662C352.045 214.29 357.112 210.776 357.112 210.776C343.783 200.726 344.448 188.307 344.448 188.307Z" fill="white"/>
<path d="M367.714 195.015L366.716 199.087C364.055 207.664 357.106 210.782 357.106 210.782C358.268 211.702 362.408 217.472 364.038 219.767C364.371 220.233 365.042 220.204 365.331 219.709C366.487 217.736 368.887 212.95 369.536 206.283C370.321 198.213 369.536 192.766 369.536 192.766L367.714 195.015Z" fill="white"/>
<path d="M325.3 196.792C325.3 196.792 329.876 205.777 331.861 210.776C331.861 210.776 328.256 213.197 325.567 214.923C325.567 214.923 329.058 230.632 330.345 251.151C331.075 262.851 330.345 273.895 330.345 273.895C330.345 273.895 336.737 264.197 341.329 237.489C344.721 217.77 340.08 199.052 344.443 188.313C344.443 188.313 345.915 182.825 346.526 175.848C346.526 175.848 335.106 180.829 325.3 196.792Z" fill="#F59D6B"/>
<path d="M331.866 210.776C331.866 210.776 339.513 205.915 342.409 204.805" stroke="#212B6C" stroke-width="2" stroke-miterlimit="10" stroke-linecap="round" stroke-linejoin="round"/>
<path d="M330.345 273.896L322.164 283.818L319.47 286.66C318.684 287.488 318.411 288.713 318.761 289.824C319.121 290.957 318.826 292.205 318.008 293.033C316.568 294.483 314.436 296.749 313.983 297.871C313.279 299.597 311.747 320.092 305.388 336.837" stroke="#212B6C" stroke-width="2" stroke-miterlimit="10" stroke-linecap="round" stroke-linejoin="round"/>
<path d="M369.885 220.71C369.885 220.71 368.75 215.976 367.927 213.899" stroke="#212B6C" stroke-width="2" stroke-miterlimit="10" stroke-linecap="round" stroke-linejoin="round"/>
<path d="M318.455 298.797C317.762 298.797 317.201 299.389 317.201 300.12C317.201 300.85 317.762 301.443 318.455 301.443C319.148 301.443 319.709 300.85 319.709 300.12C319.709 299.389 319.148 298.797 318.455 298.797Z" fill="#212B6C"/>
<path d="M314.687 322.083C315.379 322.083 315.941 321.49 315.941 320.76C315.941 320.029 315.379 319.437 314.687 319.437C313.994 319.437 313.432 320.029 313.432 320.76C313.432 321.49 313.994 322.083 314.687 322.083Z" fill="#212B6C"/>
<path d="M287.646 295.07C275.909 292.43 267.892 287.943 264.805 285.999C264.031 285.515 263.033 285.826 262.645 286.683L262.013 288.087C261.68 288.829 261.926 289.72 262.591 290.146C265.541 292.039 274.011 296.922 286.615 299.729C287.411 299.908 288.202 299.401 288.41 298.573L288.797 297.049C289.015 296.163 288.491 295.26 287.646 295.07Z" fill="#F59D6B"/>
<path d="M182.856 307.024C182.856 307.024 182.327 313.023 183.467 315.387C184.426 317.378 186.292 317.291 186.646 316.285C186.995 315.278 186.526 311.194 188.342 307.444C190.153 303.693 190.529 300.362 190.753 298.884C190.966 297.412 181.536 295.318 182.856 307.024Z" fill="#ED6B8A"/>
<path d="M117.567 339.685L187.764 379.577C198.23 358.685 221.42 325.443 221.42 325.443C200.712 314.237 146.08 291.567 146.08 291.567C128.671 313.092 117.567 339.685 117.567 339.685Z" fill="white"/>
<path d="M311.714 197.506C307.662 186.818 295.805 182.084 286.059 187.267C267.963 196.879 241.954 211.012 235.496 216.183C227.812 222.333 199.485 258.917 186.117 276.404C182.212 281.512 183.019 289.002 187.906 293.057C192.275 296.687 198.508 296.376 202.533 292.321C217.515 277.227 251.465 243.052 253.374 241.327C254.95 239.9 281.592 230.161 300.446 223.374C310.531 219.744 315.674 207.94 311.714 197.506Z" fill="#F59D6B"/>
<path d="M184.884 281.754L180.33 284.837L165.9 289.071C164.405 289.508 163.216 290.704 162.725 292.258C161.084 297.475 157.457 309.457 157.239 314.088C157.135 316.262 158.662 316.291 158.662 316.291C158.662 316.291 156.486 324.493 157.228 325.724C158.248 327.427 160.135 325.489 161.029 324.315C161.029 324.315 162.704 325.96 165.043 323.492C165.49 324.033 166.898 324.81 168.703 323.423C174.135 319.23 183.101 307.156 183.101 307.156C183.101 307.156 187.126 305.154 191.053 300.317C192.46 298.579 194.843 296.871 195.639 294.213C195.639 294.208 196.141 282.559 184.884 281.754Z" fill="#ED6B8A"/>
<path d="M161.029 324.315C160.418 323.86 160.222 323.003 160.56 322.307L169.488 304.078" stroke="#212B6C" stroke-width="2" stroke-miterlimit="10" stroke-linecap="round" stroke-linejoin="round"/>
<path d="M158.662 316.291L163.663 301.162" stroke="#212B6C" stroke-width="2" stroke-miterlimit="10" stroke-linecap="round" stroke-linejoin="round"/>
<path d="M205.626 328.416C204.698 327.887 203.706 327.358 202.997 326.984C202.413 326.679 201.71 326.834 201.295 327.364C198.192 331.304 194.718 336.815 193.191 339.288C192.76 339.99 192.967 340.933 193.649 341.359L196.223 342.975C196.861 343.372 197.679 343.182 198.099 342.532C201.088 337.89 204.491 332.903 206.089 330.579C206.591 329.86 206.373 328.842 205.626 328.416Z" fill="#F59D6B"/>
<path d="M195.53 322.67C195.53 322.67 184.601 338.103 174.097 355.515" stroke="#A3BCF8" stroke-width="2" stroke-miterlimit="10" stroke-linecap="round" stroke-linejoin="round"/>
<path d="M187.906 319.144C187.906 319.144 182.534 326.725 175.706 337.257" stroke="#A3BCF8" stroke-width="2" stroke-miterlimit="10" stroke-linecap="round" stroke-linejoin="round"/>
<path d="M165.043 323.492C164.558 322.992 164.492 322.192 164.885 321.606C166.979 318.482 173.278 309.071 174.784 306.719" stroke="#212B6C" stroke-width="2" stroke-miterlimit="10" stroke-linecap="round" stroke-linejoin="round"/>
<path d="M186.117 276.398C186.117 276.398 191.009 276.11 196.092 280.827C201.175 285.544 201.23 292.418 200.063 294.201" stroke="white" stroke-width="2" stroke-miterlimit="10" stroke-linecap="round" stroke-linejoin="round"/>
<path d="M133.983 330.907C131.916 330.62 129.931 332.282 129.691 334.629C129.457 336.964 131.066 338.857 133.149 338.857C135.091 338.857 136.748 337.195 136.972 335.135C137.201 333.064 135.914 331.178 133.983 330.907Z" fill="#A3BCF8"/>
<path d="M347.584 142.007C343.248 154.743 347.584 165.327 347.306 171.798C347.028 178.269 348.942 190.775 360.417 197.033C372.437 203.591 383.678 196.89 386.808 186.104C390.866 172.12 390.375 172.137 393.598 159.063C397.192 144.486 392.486 140.862 390.102 137.975C379.527 125.124 352.694 126.994 347.584 142.007Z" fill="#ED6B8A"/>
<path d="M374.668 124.077C357.259 120.436 345.648 127.281 343.024 135.3C340.396 143.313 341.923 159.2 344.273 160.075C346.624 160.949 348.282 166.051 350.076 164.515C351.871 162.98 353.943 152.93 353.943 152.93C360.853 150.451 363.891 143.094 363.891 143.094C363.891 143.094 367.071 148.852 378.126 153.954C390.958 159.873 398.163 153.954 398.163 153.954C402.717 137.486 392.077 127.724 374.668 124.077Z" fill="#212B6C"/>
<path d="M342.746 157.308C339.016 156.727 339.239 167.231 343.575 170.717C346.477 173.047 348.413 170.717 348.413 170.717V165.034C348.413 165.034 346.477 157.889 342.746 157.308Z" fill="#ED6B8A"/>
<path d="M350.562 227.365L338.76 310.681C338.634 311.573 338.825 312.487 339.305 313.235L350.502 330.872C351.113 331.832 352.449 331.827 353.054 330.866L362.789 315.375C363.193 314.731 363.395 313.966 363.357 313.189L359.321 227.359C354.592 228.596 350.562 227.365 350.562 227.365Z" fill="#F7CB71"/>
<path d="M359.937 240.365L347.022 252.37" stroke="#ED6B8A" stroke-width="2" stroke-miterlimit="10" stroke-linecap="round" stroke-linejoin="round"/>
<path d="M360.864 260.084L343.668 276.047" stroke="#ED6B8A" stroke-width="2" stroke-miterlimit="10" stroke-linecap="round" stroke-linejoin="round"/>
<path d="M362.026 284.728L339.512 305.367" stroke="#ED6B8A" stroke-width="2" stroke-miterlimit="10" stroke-linecap="round" stroke-linejoin="round"/>
<path d="M363.182 309.341L346.526 324.613" stroke="#ED6B8A" stroke-width="2" stroke-miterlimit="10" stroke-linecap="round" stroke-linejoin="round"/>
<path d="M367.741 161.933C366.836 162.727 366.716 164.142 367.469 165.097C368.221 166.052 369.563 166.178 370.468 165.385C371.374 164.591 371.494 163.176 370.741 162.221C369.988 161.266 368.647 161.139 367.741 161.933Z" fill="#1F2970"/>
<path d="M379.391 177.919C384.086 176.97 385.417 173.351 382.521 171.332L382.859 168.778" stroke="#1F296F" stroke-width="2" stroke-miterlimit="10" stroke-linecap="round" stroke-linejoin="round"/>
<path d="M378.18 183.643C378.18 183.643 371.363 184.655 368.287 178.149" stroke="#1F296F" stroke-width="2" stroke-miterlimit="10" stroke-linecap="round" stroke-linejoin="round"/>
<path d="M385.99 163.855C384.97 163.688 384.005 164.493 383.835 165.655C383.666 166.817 384.359 167.887 385.379 168.054C386.399 168.221 387.364 167.416 387.533 166.254C387.702 165.092 387.015 164.022 385.99 163.855Z" fill="#1F2970"/>
<path d="M373.631 154.944C371.695 153.972 368.079 153.23 364.387 155.525C359.342 158.66 370.059 157.078 372.252 158.729C374.444 160.38 375.998 156.135 373.631 154.944Z" fill="#1F296F"/>
<path d="M386.131 157.355C384.806 158.005 383.923 161.416 385.821 160.766C387.724 160.121 391.498 162.434 389.971 158.988C389.557 158.051 387.588 156.641 386.131 157.355Z" fill="#1F296F"/>
<path d="M382.647 190.343C378.196 193.501 379.391 188.854 370.278 190.343C365.064 191.195 355.776 189.768 352.792 180.921C349.809 172.074 350.927 162.819 351.527 157.158C352.127 151.492 346.608 159.097 348.108 164.055C348.108 164.055 348.38 170.113 348.418 177.918C348.457 185.724 351.849 193.208 360.69 197.476C369.53 201.744 377.433 200.651 383.034 194.105C386.535 190.016 388.073 184.539 389.262 179.868C390.615 174.571 390.25 173.374 390.25 173.374C390.25 173.374 387.283 187.053 382.647 190.343Z" fill="#212B6C"/>
<path d="M406.191 142.985C406.191 142.985 407.277 149.52 401.048 155.151" stroke="#1F296F" stroke-width="2" stroke-miterlimit="10" stroke-linecap="round" stroke-linejoin="round"/>
<path d="M159.355 422.368H153.743V438.641H159.355V422.368Z" fill="#18214C"/>
<path d="M159.355 438.636H153.743V532.565H159.355V438.636Z" fill="#212B6C"/>
<path d="M112.899 421.333C112.899 424.243 132.44 426.602 156.552 426.602C180.658 426.602 200.204 424.243 200.204 421.333V413.4H112.899V421.333Z" fill="#212B6C"/>
<path d="M122.187 579.711V563.627C122.187 543.615 137.572 527.388 156.546 527.388C175.52 527.388 190.905 543.615 190.905 563.627V579.711" stroke="#212B6C" stroke-width="8" stroke-miterlimit="10" stroke-linecap="round" stroke-linejoin="round"/>
<path d="M156.546 527.388V581.649" stroke="#212B6C" stroke-width="8" stroke-miterlimit="10" stroke-linecap="round" stroke-linejoin="round"/>
<path d="M127.632 585.46C130.644 582.284 130.644 577.134 127.632 573.958C124.62 570.781 119.738 570.781 116.726 573.958C113.714 577.134 113.714 582.284 116.726 585.46C119.738 588.637 124.62 588.637 127.632 585.46Z" fill="#212B6C"/>
<path d="M196.35 585.46C199.362 582.284 199.362 577.134 196.35 573.958C193.339 570.781 188.456 570.781 185.444 573.958C182.433 577.134 182.433 582.284 185.444 585.46C188.456 588.637 193.339 588.637 196.35 585.46Z" fill="#212B6C"/>
<path d="M158.337 589.508C162.482 588.476 165.049 584.095 164.07 579.723C163.091 575.352 158.938 572.644 154.793 573.677C150.648 574.709 148.081 579.09 149.06 583.462C150.039 587.833 154.192 590.541 158.337 589.508Z" fill="#212B6C"/>
<path d="M156.546 418.669C180.655 418.669 200.199 416.31 200.199 413.4C200.199 410.49 180.655 408.131 156.546 408.131C132.438 408.131 112.894 410.49 112.894 413.4C112.894 416.31 132.438 418.669 156.546 418.669Z" fill="#32449E"/>
<path d="M159.486 518.695H153.612C152.379 518.695 151.376 519.748 151.376 521.054V533.72C151.376 535.02 152.374 536.079 153.612 536.079H159.486C160.718 536.079 161.722 535.026 161.722 533.72V521.054C161.722 519.754 160.718 518.695 159.486 518.695Z" fill="#212B6C"/>
<path d="M654.233 384.65H296.438C295.467 384.65 294.687 385.479 294.687 386.497V391.122C294.687 392.146 295.472 392.968 296.438 392.968H654.233C655.204 392.968 655.984 392.14 655.984 391.122V386.497C655.984 385.473 655.198 384.65 654.233 384.65Z" fill="#BCE2F0"/>
<path d="M416.755 384.65H296.438C295.467 384.65 294.687 385.479 294.687 386.497V391.122C294.687 392.146 295.472 392.968 296.438 392.968H416.755C417.726 392.968 418.506 392.14 418.506 391.122V386.497C418.512 385.473 417.726 384.65 416.755 384.65Z" fill="white"/>
<path d="M313.214 392.968H307.427V407.573H313.214V392.968Z" fill="#BCE2F0"/>
<path d="M313.214 407.573H307.427V605.412H313.214V407.573Z" fill="white"/>
<path d="M405.771 392.968H399.985V407.573H405.771V392.968Z" fill="#BCE2F0"/>
<path d="M405.771 407.573H399.985V605.412H405.771V407.573Z" fill="white"/>
<path d="M550.691 392.968H544.905V407.573H550.691V392.968Z" fill="#A3BCF8"/>
<path d="M550.691 407.573H544.905V605.412H550.691V407.573Z" fill="#BCE2F0"/>
<path d="M643.249 407.573H637.462V605.412H643.249V407.573Z" fill="#BCE2F0"/>
<path d="M643.249 392.968H637.462V407.573H643.249V392.968Z" fill="#A3BCF8"/>
<path d="M536.997 609.179C536.997 611.94 551.782 614.177 570.02 614.177C588.258 614.177 603.043 611.94 603.043 609.179L613.673 503.152H526.373L536.997 609.179Z" fill="white"/>
<path d="M536.997 609.179C536.997 611.94 551.782 614.177 570.02 614.177C588.257 614.177 603.043 611.94 603.043 609.179L613.673 503.152" stroke="#ECF1FE" stroke-width="2" stroke-miterlimit="10" stroke-linecap="round" stroke-linejoin="round"/>
<path d="M533.184 495.226L526.373 503.158C526.373 506.069 545.914 508.427 570.025 508.427C594.131 508.427 613.678 506.069 613.678 503.158L606.866 495.226H533.184Z" fill="white"/>
<path d="M526.373 503.152C526.373 506.063 545.914 508.421 570.025 508.421C594.137 508.421 613.678 506.063 613.678 503.152" stroke="#ECF1FE" stroke-width="2" stroke-miterlimit="10" stroke-linecap="round" stroke-linejoin="round"/>
<path d="M570.02 499.672C590.364 499.672 606.855 497.682 606.855 495.226C606.855 492.77 590.364 490.779 570.02 490.779C549.676 490.779 533.185 492.77 533.185 495.226C533.185 497.682 549.676 499.672 570.02 499.672Z" fill="#BCE2F0"/>
<path d="M610.749 504.584C610.455 503.56 609.473 502.945 608.475 503.141C604.025 504.021 599.089 504.55 596.215 504.809C595.064 504.912 594.213 506.028 594.415 507.225C594.459 507.495 594.491 507.748 594.513 507.996C594.611 509.106 595.538 509.928 596.597 509.871C602.061 509.549 607.035 508.525 609.419 507.967C610.4 507.737 611.082 506.77 610.978 505.718C610.924 505.303 610.847 504.924 610.749 504.584Z" fill="#BCE2F0"/>
<path d="M620.692 304.446H572.076V384.65H620.692V304.446Z" fill="white"/>
<path d="M629.843 304.446H620.692V384.65H632.379V307.115C632.379 305.643 631.245 304.446 629.843 304.446Z" fill="#A3BCF8"/>
<path d="M612.98 341.508H579.788V375.446H612.98V341.508Z" stroke="#ECF1FE" stroke-width="2" stroke-miterlimit="10" stroke-linecap="round" stroke-linejoin="round"/>
<path d="M612.98 311.924H608.072" stroke="#A3BCF8" stroke-width="2" stroke-miterlimit="10" stroke-linecap="round" stroke-linejoin="round"/>
<path d="M628.169 310.198H624.897V320.673H628.169V310.198Z" fill="white"/>
<path d="M641.531 323.446H632.379V384.645H644.067V326.121C644.067 324.643 642.933 323.446 641.531 323.446Z" fill="#F59D6B"/>
<path d="M639.857 329.198H636.584V339.673H639.857V329.198Z" fill="#BCE2F0"/>
<path d="M625.889 210.845H475.439C473.339 210.845 471.48 212.277 470.841 214.382L437.3 324.654C436.618 326.891 438.2 329.175 440.425 329.175H590.876C592.975 329.175 594.835 327.743 595.473 325.637L629.014 215.366C629.696 213.134 628.114 210.845 625.889 210.845Z" fill="#A3BCF8"/>
<path d="M548.008 289.341C547.888 288.231 546.994 287.396 545.936 287.396H525.222C524.06 287.396 523.122 288.403 523.139 289.628L524.18 366.266C524.224 369.298 523.248 372.093 521.595 374.296H556.844C557.056 373.088 557.105 371.823 556.964 370.534L548.008 289.341Z" fill="#A3BCF8"/>
<path d="M512.182 379.099H472.794C471.343 379.099 470.165 380.341 470.165 381.872C470.165 383.402 471.343 384.644 472.794 384.644H545.041C550.986 384.644 555.823 380.117 556.838 374.29H521.589C519.397 377.218 515.999 379.099 512.182 379.099Z" fill="#85A4D8"/>
<path d="M523.177 289.18L511.009 329.181H523.679L523.139 289.628C523.139 289.473 523.15 289.323 523.177 289.18Z" fill="#85A4D8"/>
<path d="M475.444 210.851C473.345 210.851 471.485 212.277 470.841 214.388L437.3 324.66C436.618 326.897 438.2 329.181 440.425 329.181C442.41 329.181 444.172 327.829 444.777 325.833L478.471 215.222C479.126 213.059 477.599 210.851 475.444 210.851Z" fill="white"/>
<path d="M457.278 320.305H461.837" stroke="#85A4D8" stroke-width="2" stroke-miterlimit="10" stroke-linecap="round" stroke-linejoin="round"/>
<path d="M470.122 320.305H474.676" stroke="#85A4D8" stroke-width="2" stroke-miterlimit="10" stroke-linecap="round" stroke-linejoin="round"/>
<path d="M482.96 320.305H487.519" stroke="#85A4D8" stroke-width="2" stroke-miterlimit="10" stroke-linecap="round" stroke-linejoin="round"/>
<path d="M523.138 289.623C523.122 288.397 524.06 287.391 525.222 287.391H545.936C546.994 287.391 547.883 288.225 548.008 289.335L556.958 370.528" stroke="#85A4D8" stroke-width="2" stroke-miterlimit="10" stroke-linecap="round" stroke-linejoin="round"/>
<path d="M383.874 348.778H362.358C361.186 348.778 360.259 349.814 360.319 351.05L361.966 382.613C362.026 383.752 362.92 384.65 364.005 384.65H382.227C383.312 384.65 384.207 383.758 384.267 382.613L385.914 351.05C385.974 349.814 385.041 348.778 383.874 348.778Z" fill="white"/>
<path d="M360.455 353.708H385.739" stroke="#ECF1FE" stroke-width="2" stroke-miterlimit="10" stroke-linecap="round" stroke-linejoin="round"/>
<path d="M385.668 355.687H390.969C392.698 355.687 394.051 357.268 393.865 359.086L392.698 370.723C392.475 372.938 391.166 374.87 389.246 375.808L384.496 378.138" stroke="white" stroke-width="2" stroke-miterlimit="10" stroke-linecap="round" stroke-linejoin="round"/>
<path d="M414.187 375.653H400.165C395.453 375.653 391.629 379.68 391.629 384.65H422.716C422.716 382.165 421.762 379.916 420.219 378.288C418.675 376.66 416.543 375.653 414.187 375.653Z" fill="#BCE2F0"/>
<path d="M403.142 375.653H400.165C395.453 375.653 391.629 379.68 391.629 384.65H411.672C411.672 382.165 410.718 379.916 409.174 378.288C407.631 376.66 405.499 375.653 403.142 375.653Z" fill="white"/>
</svg>
