<svg width="24" height="25" viewBox="0 0 24 25" fill="none" xmlns="http://www.w3.org/2000/svg">
<path d="M0.5 12.9863C0.5 6.63505 5.64873 1.48633 12 1.48633C18.3513 1.48633 23.5 6.63505 23.5 12.9863C23.5 19.3376 18.3513 24.4863 12 24.4863C5.64873 24.4863 0.5 19.3376 0.5 12.9863Z" stroke="currentColor"/>
<path d="M18.7296 10.6157L18.7296 10.6157C18.9973 10.2906 19.1732 9.83018 19.1732 9.3106C19.1732 8.71776 19.0995 8.28335 18.9053 7.98573C18.7254 7.70989 18.4098 7.48633 17.7107 7.48633C17.0115 7.48633 16.6959 7.7099 16.516 7.9857L18.7296 10.6157ZM18.7296 10.6157C18.4532 10.9516 18.0912 11.1349 17.7107 11.1349C17.3301 11.1349 16.9682 10.9516 16.6917 10.6157L16.6917 10.6157M18.7296 10.6157L16.6917 10.6157M16.6917 10.6157C16.4241 10.2907 16.2482 9.83019 16.2482 9.3106M16.6917 10.6157L16.2482 9.3106M16.2482 9.3106C16.2482 8.71777 16.3219 8.28334 16.516 7.98571L16.2482 9.3106ZM15.1225 12.9869C15.3556 12.6757 15.7665 12.4527 16.7118 12.271C16.7632 12.3163 16.8329 12.3687 16.923 12.4185C17.1095 12.5214 17.3695 12.6051 17.7107 12.6051C18.0519 12.6051 18.3118 12.5214 18.4983 12.4184C18.5884 12.3687 18.6581 12.3163 18.7094 12.271C19.666 12.4548 20.0758 12.6811 20.3076 12.999C20.5594 13.3443 20.6499 13.8629 20.6666 14.9188L20.6666 14.919L20.6674 14.9669L20.6674 14.9669L20.67 15.133C20.537 15.2908 19.8705 15.9265 17.7107 15.9265C17.5158 15.9265 17.2856 15.7707 17.1485 15.4377C17.0511 15.2013 16.9282 14.9716 16.7724 14.758L16.7724 14.758C16.4759 14.3515 16.1008 14.0523 15.6976 13.8277C15.4495 13.6896 15.2402 13.4936 15.138 13.3124C15.0459 13.1491 15.0652 13.0634 15.1225 12.9869ZM16.3057 10.9335L16.308 10.9317L16.3057 10.9335Z" fill="currentColor" stroke="currentColor"/>
<path d="M6.93344 10.6157L6.93346 10.6157C7.20109 10.2906 7.37702 9.83018 7.37702 9.31061C7.37702 8.71776 7.30329 8.28335 7.10916 7.98573C6.92922 7.70989 6.61365 7.48633 5.91451 7.48633C5.21529 7.48633 4.89974 7.7099 4.71984 7.9857L6.93344 10.6157ZM6.93344 10.6157C6.65698 10.9516 6.29503 11.1349 5.91451 11.1349C5.53393 11.1349 5.17202 10.9516 4.89555 10.6157L4.89555 10.6157M6.93344 10.6157L4.89555 10.6157M4.89555 10.6157C4.62793 10.2907 4.452 9.83019 4.452 9.31061M4.89555 10.6157L4.452 9.31061M4.51198 10.9315L4.50953 10.9335L4.51198 10.9315ZM4.51198 10.9315L4.51438 10.9295L4.51198 10.9315ZM4.452 9.31061C4.452 8.71777 4.52572 8.28334 4.71984 7.98571L4.452 9.31061ZM3.32629 12.9869C3.55941 12.6757 3.97029 12.4527 4.91567 12.271C4.96702 12.3163 5.0367 12.3687 5.12687 12.4185C5.31338 12.5214 5.57329 12.605 5.91452 12.605C6.25572 12.605 6.51561 12.5214 6.7021 12.4184C6.79226 12.3687 6.86193 12.3163 6.91327 12.271C7.86981 12.4548 8.27959 12.6811 8.51139 12.999C8.58555 13.1007 8.60465 13.2193 8.49041 13.4332C8.36775 13.6629 8.12795 13.9111 7.8525 14.1222C7.63202 14.2912 7.42849 14.4903 7.25223 14.7255L7.25223 14.7256C7.18787 14.8115 7.12894 14.9 7.07496 14.9906L7.50447 15.2466L7.07496 14.9906C6.722 15.5829 6.33464 15.9265 5.91452 15.9265C3.75286 15.9265 3.08701 15.2898 2.95474 15.1326C2.9556 15.0693 2.95721 14.9846 2.95901 14.89L2.95901 14.8899L2.95901 14.8899L2.95964 14.8564L2.95965 14.8562C2.97885 13.8282 3.07419 13.3234 3.32629 12.9869L2.92614 12.6871L3.32629 12.9869Z" fill="currentColor" stroke="currentColor"/>
<path d="M10.4826 12.557C10.0929 12.0837 9.84144 11.4197 9.84144 10.6766C9.84144 9.86683 9.94039 9.23379 10.233 8.78516L10.233 8.78515C10.5167 8.35028 11.0073 8.02832 11.9997 8.02832C12.992 8.02832 13.4826 8.35027 13.7663 8.78518C14.0589 9.23379 14.1579 9.86685 14.1579 10.6766C14.1579 11.4197 13.9065 12.0836 13.5167 12.557L13.5167 12.557C13.1137 13.0465 12.5758 13.3248 11.9997 13.3248C11.4235 13.3248 10.8856 13.0465 10.4826 12.557ZM10.4826 12.557L10.0966 12.8748L10.4826 12.557ZM8.35203 15.5498C8.71743 15.0621 9.35135 14.746 10.7029 14.4954C10.7191 14.512 10.7384 14.5307 10.761 14.5508C10.8219 14.605 10.9067 14.6693 11.0184 14.731C11.2449 14.8559 11.5675 14.9617 11.9997 14.9617C12.4318 14.9617 12.7543 14.8559 12.9808 14.731C13.0925 14.6693 13.1773 14.605 13.2382 14.5508C13.2608 14.5307 13.2801 14.512 13.2963 14.4954C14.6635 14.7489 15.2969 15.0696 15.6604 15.568C16.0389 16.087 16.1582 16.8452 16.1807 18.2701L16.1807 18.2702L16.1818 18.335L16.1818 18.3352L16.1856 18.5764C16.1859 18.5921 16.184 18.6089 16.1795 18.6267C16.1787 18.63 16.178 18.6327 16.1773 18.6349C16.0447 18.8137 15.1707 19.8151 11.9997 19.8151C8.82848 19.8151 7.95449 18.8137 7.82189 18.6349C7.82126 18.6327 7.82052 18.63 7.81969 18.6267L7.81645 18.6275L7.81969 18.6267C7.81484 18.6075 7.81299 18.5902 7.81318 18.5752C7.8143 18.4875 7.81659 18.3666 7.81915 18.2316L7.81918 18.2303L7.81918 18.2303L7.82004 18.185L7.82004 18.1849C7.84598 16.7963 7.97224 16.0568 8.35203 15.5498Z" fill="currentColor" stroke="currentColor"/>
</svg>
