<svg width="41" height="40" viewBox="0 0 41 40" fill="none" xmlns="http://www.w3.org/2000/svg">
<rect x="0.5" width="40" height="40" rx="8" fill="#0065FF"/>
<path d="M25 20H16V23H25V20ZM29.1719 12.9219L24.5828 8.32812C24.3719 8.11719 24.0859 8 23.7859 8H23.5V14H29.5V13.7141C29.5 13.4188 29.3828 13.1328 29.1719 12.9219ZM22 14.375V8H12.625C12.0016 8 11.5 8.50156 11.5 9.125V30.875C11.5 31.4984 12.0016 32 12.625 32H28.375C28.9984 32 29.5 31.4984 29.5 30.875V15.5H23.125C22.5063 15.5 22 14.9938 22 14.375ZM14.5 11.375C14.5 11.1678 14.6678 11 14.875 11H18.625C18.8322 11 19 11.1678 19 11.375V12.125C19 12.3322 18.8322 12.5 18.625 12.5H14.875C14.6678 12.5 14.5 12.3322 14.5 12.125V11.375ZM14.5 14.375C14.5 14.1678 14.6678 14 14.875 14H18.625C18.8322 14 19 14.1678 19 14.375V15.125C19 15.3322 18.8322 15.5 18.625 15.5H14.875C14.6678 15.5 14.5 15.3322 14.5 15.125V14.375ZM26.5 28.625C26.5 28.8322 26.3322 29 26.125 29H22.375C22.1678 29 22 28.8322 22 28.625V27.875C22 27.6678 22.1678 27.5 22.375 27.5H26.125C26.3322 27.5 26.5 27.6678 26.5 27.875V28.625ZM26.5 19.25V23.75C26.5 24.1644 26.1644 24.5 25.75 24.5H15.25C14.8356 24.5 14.5 24.1644 14.5 23.75V19.25C14.5 18.8356 14.8356 18.5 15.25 18.5H25.75C26.1644 18.5 26.5 18.8356 26.5 19.25Z" fill="white"/>
</svg>
