<svg width="125" height="64" viewBox="0 0 125 64" fill="none" xmlns="http://www.w3.org/2000/svg">
<mask id="mask0_397_7519" style="mask-type:luminance" maskUnits="userSpaceOnUse" x="0" y="0" width="125" height="64">
<path d="M124.334 0H0.333832V64H124.334V0Z" fill="white"/>
</mask>
<g mask="url(#mask0_397_7519)">
<path opacity="0.15" d="M-23.7031 31.3386C-23.7031 31.3386 -17.3035 37.6084 -13.8907 35.0796C-10.4778 32.5508 -9.43885 24.4818 -0.101513 24.4818C9.23582 24.4818 21.9666 40.3865 29.2707 40.3865C36.5749 40.3865 44.175 25.0968 55.0594 32.6907C65.9438 40.2847 63.9148 45.1865 72.5581 45.1865C81.2014 45.1865 88.7254 15.0662 98.526 15.2115C105.834 15.2115 108.639 43.807 111.075 48.2434C113.511 52.6797 120.319 40.3865 132.349 40.3865C142.967 40.3865 153.037 16.7182 163.346 16.7182C173.656 16.7182 177.844 41.8179 186.99 41.8179C196.136 41.8179 196.001 32.6907 203.268 32.6907C203.32 48.3924 203.268 64.104 203.268 64.104H-23.7031V31.3386Z" fill="url(#paint0_linear_397_7519)"/>
<path d="M-23.7031 31.3068C-23.7031 31.3068 -17.3028 37.5643 -13.8896 35.0404C-10.4763 32.5166 -9.43723 24.4635 -0.098831 24.4635C9.23957 24.4635 21.9718 40.3368 29.2768 40.3368C36.5818 40.3368 44.1827 25.0773 55.0683 32.6563C65.954 40.2352 63.9248 45.1274 72.569 45.1274C81.2133 45.1274 88.7381 15.0665 98.5399 15.2115C105.848 15.2115 108.654 43.7507 111.09 48.1783C113.527 52.6059 120.336 40.3368 132.367 40.3368C142.986 40.3368 153.057 16.7152 163.368 16.7152C173.678 16.7152 177.867 41.7654 187.014 41.7654C196.161 41.7654 196.026 32.6563 203.294 32.6563" stroke="#E23738" stroke-width="1.5"/>
</g>
<circle opacity="0.75" cx="2" cy="2" r="4" transform="matrix(-1 0 0 1 74.8613 43.2002)" stroke="#EEF5EC" stroke-width="4"/>
<circle cx="2" cy="2" r="2.5" transform="matrix(-1 0 0 1 74.8613 43.2002)" fill="white" stroke="#E23738"/>
<defs>
<linearGradient id="paint0_linear_397_7519" x1="-131.491" y1="-31.222" x2="-131.491" y2="64.104" gradientUnits="userSpaceOnUse">
<stop offset="0.447917" stop-color="#E23738"/>
<stop offset="1" stop-color="#007DD7" stop-opacity="0"/>
<stop offset="1" stop-color="#E23738" stop-opacity="0"/>
</linearGradient>
</defs>
</svg>
