<svg width="124" height="64" viewBox="0 0 124 64" fill="none" xmlns="http://www.w3.org/2000/svg">
<mask id="mask0_397_7543" style="mask-type:luminance" maskUnits="userSpaceOnUse" x="0" y="0" width="124" height="64">
<path d="M0 0H124V64H0V0Z" fill="white"/>
</mask>
<g mask="url(#mask0_397_7543)">
<path opacity="0.15" d="M148.037 31.3386C148.037 31.3386 141.638 37.6084 138.225 35.0796C134.812 32.5508 133.773 24.4818 124.435 24.4818C115.098 24.4818 102.367 40.3865 95.0632 40.3865C87.7591 40.3865 80.159 25.0968 69.2746 32.6907C58.3902 40.2847 60.4191 45.1865 51.7759 45.1865C43.1326 45.1865 35.6086 15.0662 25.808 15.2115C18.5005 15.2115 15.6954 43.807 13.259 48.2434C10.8226 52.6797 4.01468 40.3865 -8.01523 40.3865C-18.6333 40.3865 -28.7028 16.7182 -39.0123 16.7182C-49.3219 16.7182 -53.5099 41.8179 -62.6562 41.8179C-71.8025 41.8179 -71.6672 32.6907 -78.9342 32.6907C-78.9857 48.3924 -78.9342 64.104 -78.9342 64.104H148.037V31.3386Z" fill="url(#paint0_linear_397_7543)"/>
<path d="M148.037 31.3068C148.037 31.3068 141.637 37.5643 138.224 35.0404C134.81 32.5166 133.771 24.4635 124.433 24.4635C115.094 24.4635 102.362 40.3368 95.0572 40.3368C87.7522 40.3368 80.1513 25.0773 69.2657 32.6563C58.38 40.2352 60.4092 45.1274 51.7649 45.1274C43.1207 45.1274 35.5959 15.0665 25.7941 15.2115C18.4857 15.2115 15.6804 43.7507 13.2437 48.1783C10.807 52.6059 3.99833 40.3368 -8.03295 40.3368C-18.6523 40.3368 -28.7228 16.7152 -39.0336 16.7152C-49.3443 16.7152 -53.5328 41.7654 -62.6801 41.7654C-71.8274 41.7654 -71.6922 32.6563 -78.96 32.6563" stroke="#569E44" stroke-width="1.5"/>
</g>
<circle opacity="0.75" cx="76.4727" cy="30.8008" r="4" stroke="#EEF5EC" stroke-width="4"/>
<circle cx="76.4727" cy="30.8008" r="2.5" fill="white" stroke="#569E44"/>
<defs>
<linearGradient id="paint0_linear_397_7543" x1="255.825" y1="-31.222" x2="255.825" y2="64.104" gradientUnits="userSpaceOnUse">
<stop offset="0.447917" stop-color="#569E44"/>
<stop offset="1" stop-color="#007DD7" stop-opacity="0"/>
<stop offset="1" stop-color="#569E44" stop-opacity="0"/>
</linearGradient>
</defs>
</svg>
