<svg xmlns="http://www.w3.org/2000/svg" width="24" height="25" viewBox="0 0 24 25" fill="none">
  <path d="M12.9268 10.5596C12.9737 10.6064 13 10.67 13 10.7363C13 10.8026 12.9737 10.8662 12.9268 10.9131C12.8799 10.96 12.8163 10.9863 12.75 10.9863H6.75C6.6837 10.9863 6.62011 10.96 6.57322 10.9131C6.52634 10.8662 6.5 10.8026 6.5 10.7363C6.5 10.67 6.52634 10.6064 6.57322 10.5596C6.62011 10.5127 6.6837 10.4863 6.75 10.4863H12.75C12.8163 10.4863 12.8799 10.5127 12.9268 10.5596ZM11.9268 13.5596C11.9737 13.6064 12 13.67 12 13.7363C12 13.8026 11.9737 13.8662 11.9268 13.9131C11.8799 13.96 11.8163 13.9863 11.75 13.9863H6.75C6.6837 13.9863 6.62011 13.96 6.57322 13.9131C6.52634 13.8662 6.5 13.8026 6.5 13.7363C6.5 13.67 6.52634 13.6064 6.57322 13.5596C6.62011 13.5127 6.6837 13.4863 6.75 13.4863H11.75C11.8163 13.4863 11.8799 13.5127 11.9268 13.5596ZM12.75 16.4863C12.8163 16.4863 12.8799 16.5127 12.9268 16.5596C12.9737 16.6064 13 16.67 13 16.7363C13 16.8026 12.9737 16.8662 12.9268 16.9131C12.8799 16.96 12.8163 16.9863 12.75 16.9863H6.75C6.6837 16.9863 6.62011 16.96 6.57322 16.9131C6.52634 16.8662 6.5 16.8026 6.5 16.7363C6.5 16.67 6.52634 16.6064 6.57322 16.5596C6.62011 16.5127 6.6837 16.4863 6.75 16.4863H12.75Z" fill="currentColor" stroke="currentColor"/>
  <path fill-rule="evenodd" clip-rule="evenodd" d="M6 22.7362H19C19.7293 22.7362 20.4288 22.4465 20.9445 21.9307C21.4603 21.415 21.75 20.7155 21.75 19.9862V14.4862C21.75 14.2873 21.671 14.0965 21.5303 13.9559C21.3897 13.8152 21.1989 13.7362 21 13.7362H17.75V5.9292C17.75 4.5062 16.141 3.6782 14.983 4.5052L14.808 4.6302C14.4248 4.90223 13.9663 5.04803 13.4964 5.04731C13.0264 5.0466 12.5684 4.8994 12.186 4.6262C11.5476 4.17187 10.7835 3.92773 10 3.92773C9.21645 3.92773 8.45238 4.17187 7.814 4.6262C7.43162 4.8994 6.97359 5.0466 6.50364 5.04731C6.03369 5.04803 5.57521 4.90223 5.192 4.6302L5.017 4.5052C3.859 3.6782 2.25 4.5052 2.25 5.9292V18.9862C2.25 19.9808 2.64509 20.9346 3.34835 21.6379C4.05161 22.3411 5.00544 22.7362 6 22.7362ZM8.686 5.8462C9.06995 5.57365 9.52915 5.42723 10 5.42723C10.4709 5.42723 10.9301 5.57365 11.314 5.8462C11.9507 6.30132 12.7136 6.54642 13.4962 6.54731C14.2788 6.54821 15.0423 6.30486 15.68 5.8512L15.855 5.7262C15.8923 5.69961 15.9363 5.6838 15.982 5.6805C16.0277 5.67721 16.0735 5.68655 16.1143 5.7075C16.1551 5.72846 16.1893 5.76022 16.2132 5.79932C16.2372 5.83843 16.2499 5.88336 16.25 5.9292V19.9862C16.25 20.4362 16.358 20.8612 16.55 21.2362H6C5.40326 21.2362 4.83097 20.9992 4.40901 20.5772C3.98705 20.1552 3.75 19.5829 3.75 18.9862V5.9292C3.75012 5.88336 3.76284 5.83843 3.78678 5.79932C3.81072 5.76022 3.84495 5.72846 3.88573 5.7075C3.9265 5.68655 3.97226 5.67721 4.01798 5.6805C4.06371 5.6838 4.10765 5.69961 4.145 5.7262L4.32 5.8512C4.95775 6.30486 5.72116 6.54821 6.5038 6.54731C7.28644 6.54642 8.04929 6.30132 8.686 5.8462ZM17.75 19.9862V15.2362H20.25V19.9862C20.25 20.3177 20.1183 20.6357 19.8839 20.8701C19.6495 21.1045 19.3315 21.2362 19 21.2362C18.6685 21.2362 18.3505 21.1045 18.1161 20.8701C17.8817 20.6357 17.75 20.3177 17.75 19.9862Z" fill="currentColor"/>
</svg>