<svg width="34" height="34" viewBox="0 0 34 34" fill="none" xmlns="http://www.w3.org/2000/svg">
<rect width="34" height="34" rx="17" fill="#F0F0F4"/>
<path d="M24.5723 20.7368C23.8931 20.0069 22.6222 18.909 22.6222 15.3125C22.6222 12.5809 20.7069 10.3941 18.1243 9.85766V9.125C18.1243 8.50379 17.6209 8 17 8C16.3792 8 15.8757 8.50379 15.8757 9.125V9.85766C13.2931 10.3941 11.3778 12.5809 11.3778 15.3125C11.3778 18.909 10.1069 20.0069 9.42772 20.7368C9.21678 20.9635 9.12327 21.2346 9.12502 21.5C9.12889 22.0766 9.58135 22.625 10.2535 22.625H23.7465C24.4187 22.625 24.8715 22.0766 24.875 21.5C24.8768 21.2346 24.7833 20.9632 24.5723 20.7368ZM11.4991 20.9375C12.2451 19.9542 13.0608 18.3243 13.0646 15.3329C13.0646 15.3259 13.0625 15.3195 13.0625 15.3125C13.0625 13.1377 14.8253 11.375 17 11.375C19.1748 11.375 20.9375 13.1377 20.9375 15.3125C20.9375 15.3195 20.9354 15.3259 20.9354 15.3329C20.9393 18.3247 21.7549 19.9545 22.5009 20.9375H11.4991ZM17 26C18.2417 26 19.249 24.9928 19.249 23.75H14.7511C14.7511 24.9928 15.7583 26 17 26Z" fill="#2E2E42"/>
</svg>
