<svg width="79" height="79" viewBox="0 0 79 79" fill="none" xmlns="http://www.w3.org/2000/svg">
<rect width="79" height="79" rx="39.5" fill="#191924"/>
<path d="M26 25.4511H52M26 29.538H41M22 63H41C50.9411 63 59 54.7659 59 44.6087V18.0435C59 16.9149 58.1046 16 57 16H22C20.8954 16 20 16.9149 20 18.0435V60.9565C20 62.0851 20.8954 63 22 63Z" stroke="white" stroke-width="2.5"/>
<path d="M32 57V33H37.2773V57H32ZM46.6891 57V33H52V57H46.6891ZM35.1597 46.9717V42.3484H48.437V46.9717H35.1597Z" fill="#E95F10"/>
<path d="M26 57V33H31.5412V57H26Z" fill="#F0F0F4"/>
</svg>
