<svg width="149" height="100" viewBox="0 0 149 100" fill="none" xmlns="http://www.w3.org/2000/svg">
<circle cx="6.5" cy="94" r="6" fill="#FEF5F1"/>
<circle cx="32.5" cy="94" r="6" fill="#FEF5F1"/>
<circle cx="58.5" cy="94" r="6" fill="#FEF5F1"/>
<circle cx="84.5" cy="94" r="6" fill="#FEF5F1"/>
<circle cx="110.5" cy="94" r="6" fill="#FEF5F1"/>
<circle cx="136.5" cy="94" r="6" fill="#FEF5F1"/>
<circle cx="6.5" cy="68" r="6" fill="#FEF5F1"/>
<circle cx="32.5" cy="68" r="6" fill="#FEF5F1"/>
<circle cx="58.5" cy="68" r="6" fill="#FEF5F1"/>
<circle cx="84.5" cy="68" r="6" fill="#FEF5F1"/>
<circle cx="110.5" cy="68" r="6" fill="#FEF5F1"/>
<circle cx="136.5" cy="68" r="6" fill="#FEF5F1"/>
<circle cx="6.5" cy="42" r="6" fill="#FEF5F1"/>
<circle cx="32.5" cy="42" r="6" fill="#FEF5F1"/>
<circle cx="58.5" cy="42" r="6" fill="#FEF5F1"/>
<circle cx="84.5" cy="42" r="6" fill="#FEF5F1"/>
<circle cx="110.5" cy="42" r="6" fill="#FEF5F1"/>
<circle cx="136.5" cy="42" r="6" fill="#FEF5F1"/>
<circle cx="6.5" cy="16" r="6" fill="#FEF5F1"/>
<circle cx="32.5" cy="16" r="6" fill="#FEF5F1"/>
<circle cx="58.5" cy="16" r="6" fill="#FEF5F1"/>
<circle cx="84.5" cy="16" r="6" fill="#FEF5F1"/>
<circle cx="110.5" cy="16" r="6" fill="#FEF5F1"/>
<circle cx="136.5" cy="16" r="6" fill="#FEF5F1"/>
</svg>
