<svg width="25" height="24" viewBox="0 0 25 24" fill="none" xmlns="http://www.w3.org/2000/svg">
<path d="M18.4391 12.5953C18.4297 10.875 19.2078 9.57656 20.7828 8.62031C19.9016 7.35938 18.5703 6.66563 16.8125 6.52969C15.1484 6.39844 13.3297 7.5 12.6641 7.5C11.9609 7.5 10.3484 6.57656 9.08281 6.57656C6.46719 6.61875 3.6875 8.6625 3.6875 12.8203C3.6875 14.0484 3.9125 15.3172 4.3625 16.6266C4.9625 18.3469 7.12812 22.5656 9.3875 22.4953C10.5687 22.4672 11.4031 21.6563 12.9406 21.6563C14.4312 21.6563 15.2047 22.4953 16.5219 22.4953C18.8 22.4625 20.7594 18.6281 21.3312 16.9031C18.275 15.4641 18.4391 12.6844 18.4391 12.5953ZM15.7859 4.89844C17.0656 3.37969 16.9484 1.99688 16.9109 1.5C15.7812 1.56563 14.4734 2.26875 13.7281 3.13594C12.9078 4.06406 12.425 5.2125 12.5281 6.50625C13.7516 6.6 14.8672 5.97188 15.7859 4.89844Z" fill="#0065FF"/>
</svg>
