<svg width="764" height="692" viewBox="0 0 764 692" fill="none" xmlns="http://www.w3.org/2000/svg">
<g clip-path="url(#clip0_202_2771)">
<path d="M747.131 58.2303L11.4117 91.4135C-15.3434 92.6175 -35.3516 117.604 -31.8272 145.405L14.1058 507.824C17.0612 531.15 35.8037 548.742 58.2622 549.283L699.485 564.631C722.895 565.19 742.904 547.094 745.778 522.752L794.341 111.803C797.807 82.4989 775.302 56.9594 747.131 58.2303Z" fill="#ECF1FE"/>
<path d="M687.762 73.9128L673.235 84.5543L675.232 87.5522C675.795 88.3913 679.5 86.6948 683.512 83.7516C687.524 80.8146 690.323 77.7498 689.759 76.9107L687.762 73.9128Z" fill="#E9B371"/>
<path d="M679.482 77.7133C675.47 80.6504 672.671 83.7151 673.235 84.5543C673.798 85.3934 677.502 83.6908 681.514 80.7538C685.526 77.8167 688.325 74.752 687.762 73.9128C687.199 73.0736 683.494 74.7763 679.482 77.7133Z" fill="#F7CB71"/>
<path d="M638.961 161.009C638.27 161.738 640.534 165.253 644.018 168.859C647.501 172.465 650.881 174.794 651.566 174.064L654.022 171.468L641.417 158.412L638.961 161.009Z" fill="#E9B371"/>
<path d="M641.411 158.412C640.72 159.142 642.984 162.656 646.468 166.262C649.952 169.868 653.331 172.197 654.016 171.468C654.701 170.738 652.443 167.223 648.959 163.617C645.481 160.017 642.102 157.682 641.411 158.412Z" fill="#F7CB71"/>
<path d="M614.807 116.418L602.341 129.619L604.82 132.191C605.517 132.915 608.873 130.544 612.316 126.895C615.759 123.246 617.983 119.707 617.286 118.99L614.807 116.418Z" fill="#E9B371"/>
<path d="M607.311 121.714C603.868 125.363 601.644 128.902 602.341 129.619C603.037 130.343 606.393 127.971 609.836 124.323C613.28 120.674 615.503 117.135 614.807 116.418C614.11 115.7 610.754 118.072 607.311 121.714Z" fill="#F7CB71"/>
<path d="M31.5709 308.135H12.5381" stroke="#A3BCF8" stroke-width="2" stroke-miterlimit="10" stroke-linecap="round" stroke-linejoin="round"/>
<path d="M79.1647 99.1482C79.1647 100.158 79.1647 308.135 79.1647 308.135H50.4238" stroke="#A3BCF8" stroke-width="2" stroke-miterlimit="10" stroke-linecap="round" stroke-linejoin="round"/>
<path d="M25.2305 324.37H15.5225" stroke="#A3BCF8" stroke-width="2" stroke-miterlimit="10" stroke-linecap="round" stroke-linejoin="round"/>
<path d="M95.0275 87.6433V324.371H51.7305" stroke="#A3BCF8" stroke-width="2" stroke-miterlimit="10" stroke-linecap="round" stroke-linejoin="round"/>
<path d="M740.204 308.135H758.679" stroke="#A3BCF8" stroke-width="2" stroke-miterlimit="10" stroke-linecap="round" stroke-linejoin="round"/>
<path d="M700.64 71.6323C700.64 72.6417 700.64 308.135 700.64 308.135H717.252" stroke="#A3BCF8" stroke-width="2" stroke-miterlimit="10" stroke-linecap="round" stroke-linejoin="round"/>
<path d="M742.817 324.37H752.705" stroke="#A3BCF8" stroke-width="2" stroke-miterlimit="10" stroke-linecap="round" stroke-linejoin="round"/>
<path d="M699.212 324.37H716.125" stroke="#A3BCF8" stroke-width="2" stroke-miterlimit="10" stroke-linecap="round" stroke-linejoin="round"/>
<path d="M684.777 60.1274V324.37" stroke="#A3BCF8" stroke-width="2" stroke-miterlimit="10" stroke-linecap="round" stroke-linejoin="round"/>
<path d="M377.105 447.289H701.883" stroke="#A3BCF8" stroke-width="2" stroke-miterlimit="10" stroke-linecap="round" stroke-linejoin="round"/>
<path d="M49.1812 447.289H358.816" stroke="#A3BCF8" stroke-width="2" stroke-miterlimit="10" stroke-linecap="round" stroke-linejoin="round"/>
<path d="M377.477 470.742H703.625" stroke="#A3BCF8" stroke-width="2" stroke-miterlimit="10" stroke-linecap="round" stroke-linejoin="round"/>
<path d="M46.1914 470.742H358.445" stroke="#A3BCF8" stroke-width="2" stroke-miterlimit="10" stroke-linecap="round" stroke-linejoin="round"/>
<path d="M40.4836 432.725H1.09998H-16.2258C-19.4831 432.725 -22.032 435.668 -21.7185 439.061L-12.2253 541.736H31.664C34.3987 541.736 36.6864 539.559 36.9476 536.714L45.9763 439.061C46.2957 435.662 43.7467 432.725 40.4836 432.725Z" stroke="#A3BCF8" stroke-width="2" stroke-miterlimit="10" stroke-linecap="round" stroke-linejoin="round"/>
<path d="M34.0155 432.725C34.0155 432.725 66.8497 399.98 70.2057 354.057C70.2057 354.057 46.5337 369.673 34.0155 401.196C34.0155 401.196 53.5941 339.463 45.6628 285.192C45.6628 285.192 18.1355 332.951 15.8943 390.998C15.8943 390.998 18.4258 313.267 -0.339956 279.524C-0.339956 279.524 -15.4594 325.915 -3.70177 390.415C-3.70177 390.415 -14.3388 341.853 -38.9746 314.83C-38.9746 314.83 -36.7334 359.98 -18.8212 400.411C-18.8212 400.411 -35.0554 379.858 -52.416 374.58C-52.416 374.58 -44.4557 406.924 -12.5388 432.725" stroke="#A3BCF8" stroke-width="2" stroke-miterlimit="10" stroke-linecap="round" stroke-linejoin="round"/>
<path d="M767.534 432.725H728.15H710.824C707.567 432.725 705.018 435.668 705.332 439.061L714.36 536.714C714.622 539.566 716.909 541.736 719.644 541.736H763.533L773.027 439.061C773.34 435.662 770.791 432.725 767.534 432.725Z" stroke="#A3BCF8" stroke-width="2" stroke-miterlimit="10" stroke-linecap="round" stroke-linejoin="round"/>
<path d="M761.06 432.725C761.06 432.725 793.894 399.98 797.25 354.057C797.25 354.057 773.578 369.673 761.06 401.196C761.06 401.196 780.639 339.463 772.707 285.192C772.707 285.192 745.18 332.951 742.939 390.998C742.939 390.998 745.47 313.267 726.705 279.524C726.705 279.524 711.585 325.915 723.343 390.415C723.343 390.415 712.706 341.853 688.07 314.83C688.07 314.83 690.311 359.98 708.223 400.411C708.223 400.411 691.989 379.858 674.628 374.58C674.628 374.58 682.589 406.924 714.506 432.725" stroke="#A3BCF8" stroke-width="2" stroke-miterlimit="10" stroke-linecap="round" stroke-linejoin="round"/>
<path d="M316.907 79.9388V106.245H457.487V-16.4182" stroke="#A3BCF8" stroke-width="2" stroke-miterlimit="10" stroke-linecap="round" stroke-linejoin="round"/>
<path d="M365.04 549.271C365.04 550.985 366.364 552.372 368.001 552.372C369.639 552.372 370.962 550.985 370.962 549.271V354.252H365.04V549.271Z" fill="white"/>
<path d="M370.957 354.252H368.106V527.428H370.957V354.252Z" fill="#BCE2F0"/>
<path d="M368.106 528.596V527.422H365.04V549.271C365.04 550.985 366.364 552.372 368.001 552.372C369.639 552.372 370.962 550.985 370.962 549.271V527.422H368.112V528.596H368.106Z" fill="#BCE2F0"/>
<path d="M370.962 336.538H365.04V354.252H370.962V336.538Z" fill="#A3BCF8"/>
<path d="M368.001 317.669C345.677 317.669 325.035 318.46 308.25 319.792H266.166V328.84C266.166 335.012 311.762 340.01 368.001 340.01C424.241 340.01 469.837 335.006 469.837 328.84V319.792H427.753C410.968 318.46 390.326 317.669 368.001 317.669Z" fill="#BCE2F0"/>
<path d="M368.001 308.627C360.082 308.627 352.371 308.725 344.974 308.913C317.319 309.612 293.978 311.552 280.037 314.161C280.031 314.161 280.031 314.167 280.025 314.167C271.212 315.821 266.16 317.742 266.16 319.798C266.16 325.97 311.756 330.968 368.001 330.968C424.241 330.968 469.837 325.97 469.837 319.798C469.837 313.626 424.241 308.627 368.001 308.627Z" fill="white"/>
<path d="M301.851 606.285C301.207 606.96 301.166 608.018 301.706 608.753L363.902 546.218L362.143 543.232L301.851 606.285Z" fill="white"/>
<path d="M301.711 608.753C301.758 608.814 301.799 608.881 301.851 608.936C302.536 609.653 303.639 609.672 304.342 608.972L365.406 548.76L363.908 546.218L301.711 608.753Z" fill="#BCE2F0"/>
<path d="M373.848 543.232L370.585 548.754L431.649 608.966C432.352 609.659 433.455 609.641 434.14 608.93C434.837 608.2 434.837 607.008 434.14 606.279L373.848 543.232Z" fill="white"/>
<path d="M370.585 548.76L431.649 608.972C432.352 609.666 433.455 609.647 434.14 608.936C434.215 608.857 434.279 608.772 434.337 608.687L371.99 546.382L370.585 548.76Z" fill="#BCE2F0"/>
<path d="M365.731 631.678C365.748 632.7 366.544 633.521 367.519 633.521H367.728V548.76H364.349L365.731 631.678Z" fill="white"/>
<path d="M364.529 559.353H367.734V548.76H364.355L364.529 559.353Z" fill="#BCE2F0"/>
<path d="M367.734 633.521H368.466C369.441 633.521 370.237 632.7 370.254 631.678L371.572 548.76H367.74V633.521H367.734Z" fill="#BCE2F0"/>
<path d="M371.067 532.086H364.93C363.391 532.086 362.149 533.388 362.149 534.999V551.472C362.149 553.083 363.391 554.385 364.93 554.385H371.067C372.606 554.385 373.848 553.083 373.848 551.472V534.999C373.848 533.394 372.606 532.086 371.067 532.086Z" fill="white"/>
<path d="M405.016 318.697C405.016 319.548 409.393 320.242 414.793 320.242C420.193 320.242 424.577 319.548 424.577 318.697L425.918 295.219H403.674L405.016 318.697Z" fill="#212B6C"/>
<path d="M424.769 299.883H428.142C429.931 299.883 431.283 301.579 430.958 303.422L429.814 309.916C429.483 311.789 428.218 313.328 426.499 313.948L423.143 315.164" stroke="#212B6C" stroke-width="4" stroke-miterlimit="10" stroke-linecap="round" stroke-linejoin="round"/>
<path d="M414.794 296.97C420.938 296.97 425.918 296.183 425.918 295.213C425.918 294.242 420.938 293.456 414.794 293.456C408.65 293.456 403.669 294.242 403.669 295.213C403.669 296.183 408.65 296.97 414.794 296.97Z" fill="#25293D"/>
<path d="M344.974 308.913C317.319 309.612 293.978 311.552 280.037 314.161C280.031 314.161 280.031 314.167 280.025 314.167C280.025 314.167 319.397 325.721 354.107 325.131C354.107 325.131 374.452 315.164 381.733 312.817L348.696 311.029C348.696 311.029 347.43 310.105 344.974 308.913Z" fill="#A3BCF8"/>
<path d="M312.232 301.896C300.486 307.873 279.909 311.625 279.909 311.625C313.121 324.681 350.774 323.714 350.774 323.714C364.901 319.67 383.603 307.916 383.603 307.916C354.061 309.649 312.232 301.896 312.232 301.896Z" fill="#F7CB71"/>
<path d="M344.248 308.591L316.355 310.999L316.61 314.246L344.504 311.838C345.357 311.765 345.996 310.974 345.926 310.081C345.856 309.187 345.102 308.518 344.248 308.591Z" fill="#212B6C"/>
<path d="M311.101 313.085L316.605 314.246C316.605 314.246 317.412 312.829 316.349 310.999L311.101 313.085Z" fill="#212B6C"/>
<path d="M334.854 309.4C334.854 309.4 335.876 310.756 335.109 312.647" stroke="white" stroke-width="2" stroke-miterlimit="10" stroke-linecap="round" stroke-linejoin="round"/>
<path d="M344.846 310.938L344.939 312.081C344.991 312.714 344.538 313.267 343.935 313.322L334.227 314.161" stroke="#212B6C" stroke-width="2" stroke-miterlimit="10" stroke-linecap="round" stroke-linejoin="round"/>
<path d="M513.128 565.318C512.989 566.662 513.993 567.835 515.288 567.835C516.374 567.835 517.291 566.996 517.436 565.865L538.35 403.871L530.344 399.359L513.128 565.318Z" fill="white"/>
<path d="M528.091 421.098H536.127L538.35 403.878L530.344 399.372L528.091 421.098Z" fill="#A3BCF8"/>
<path d="M513.128 565.318C512.989 566.662 513.993 567.835 515.288 567.835C516.374 567.835 517.291 566.996 517.436 565.865L536.127 421.092H528.091L513.128 565.318Z" fill="white"/>
<path d="M539.999 566.127C539.965 567.477 541.062 568.559 542.345 568.449C543.425 568.358 544.279 567.44 544.331 566.303L552.465 403.063L544.133 399.256L539.999 566.127Z" fill="#BCE2F0"/>
<path d="M581.177 399.98L594.282 566.339C594.386 567.689 595.588 568.638 596.854 568.383C597.922 568.17 598.671 567.16 598.608 566.023L589.846 402.813L581.177 399.98Z" fill="#BCE2F0"/>
<path d="M608.919 403.878L627.232 565.829C627.36 566.972 628.289 567.835 629.386 567.835H629.52C630.797 567.835 631.796 566.686 631.68 565.354L617.559 403.878H608.919Z" fill="white"/>
<path d="M608.919 403.878L610.905 421.488H619.098L617.553 403.878H608.919Z" fill="#A3BCF8"/>
<path d="M678.623 212.246C674.141 211.188 648.622 250.129 632.574 294.228C616.526 338.326 602.533 383.853 566.749 388.146C530.971 392.439 510.69 383.142 510.69 383.142C510.69 383.142 502.735 392.889 516.322 402.09C529.293 410.877 561.488 417.152 588.017 415.674C628.928 413.4 633.253 395.048 638.717 350.05C644.912 298.995 659.317 260.376 671.603 238.448C683.901 216.521 678.623 212.246 678.623 212.246Z" fill="#BCE2F0"/>
<path d="M625.752 211.869C605.953 222.237 596.39 283.738 586.658 316.636C576.927 349.533 575.22 378.849 554.736 383.142C534.251 387.435 515.132 382.041 510.696 383.142C505.04 384.54 531.389 391.223 537.764 391.904C554.486 393.692 574.431 399.949 603.334 387.435C632.237 374.921 621.995 339.524 644.187 284.815C660.032 245.757 675.598 225.101 678.67 214.733C681.741 204.365 645.551 201.501 625.752 211.869Z" fill="white"/>
<path d="M225.018 399.372L217.011 403.884L237.925 565.877C238.07 567.002 238.987 567.847 240.073 567.847C241.362 567.847 242.372 566.674 242.233 565.33L225.018 399.372Z" fill="white"/>
<path d="M156.748 566.029C156.69 567.166 157.439 568.17 158.501 568.389C159.767 568.644 160.969 567.689 161.073 566.345L174.178 399.986L165.504 402.825L156.748 566.029Z" fill="white"/>
<path d="M202.896 403.063L211.03 566.303C211.088 567.44 211.936 568.358 213.016 568.449C214.305 568.559 215.396 567.476 215.361 566.127L211.227 399.256L202.896 403.063Z" fill="#BCE2F0"/>
<path d="M123.681 565.36C123.565 566.692 124.564 567.841 125.841 567.841H125.975C127.072 567.841 128.001 566.978 128.129 565.835L146.441 403.884H137.802L123.681 565.36Z" fill="white"/>
<path d="M136.165 422.661H144.322L146.442 403.878H137.808L136.165 422.661Z" fill="#A3BCF8"/>
<path d="M188.606 388.146C152.828 383.853 138.83 338.326 122.781 294.228C106.733 250.129 81.2144 211.188 76.732 212.246C76.732 212.246 71.4542 216.521 83.746 238.448C96.0377 260.376 110.437 298.995 116.632 350.05C122.096 395.048 126.422 413.4 167.332 415.674C193.861 417.146 226.062 410.871 239.028 402.09C252.614 392.883 244.66 383.142 244.66 383.142C244.66 383.142 224.384 392.44 188.606 388.146Z" fill="#BCE2F0"/>
<path d="M244.666 383.142C240.23 382.041 221.11 387.435 200.625 383.142C180.141 378.849 178.434 349.533 168.703 316.636C158.972 283.738 149.414 222.243 129.609 211.869C109.81 201.501 73.62 204.359 76.6915 214.727C79.763 225.095 95.3295 245.751 111.175 284.808C133.366 339.512 123.124 374.914 152.027 387.429C180.931 399.943 200.875 393.686 217.597 391.898C223.972 391.223 250.327 384.54 244.666 383.142Z" fill="white"/>
<path d="M251.337 607.616C244.108 602.29 239.144 597.966 236.966 595.996C236.177 595.284 235.759 594.232 235.817 593.144L236.072 588.638C236.072 588.638 215.193 585.707 212.313 590.505C212.313 590.505 212.11 600.277 211.901 603.828C211.744 606.558 211.465 615.388 211.343 619.316C211.309 620.496 212.034 621.511 213.045 621.706C214.444 621.973 216.755 622.247 220.25 622.18C226.811 622.064 229.488 626.205 238.842 628.808C248.201 631.411 267.71 626.765 269.586 624.667C270.898 623.202 271.455 621.651 271.333 620.1C271.142 617.656 260.424 614.311 251.337 607.616Z" fill="#212B6C"/>
<path d="M236.966 596.002C236.74 595.795 236.548 595.564 236.386 595.309C236.287 595.151 236.194 594.986 236.118 594.816C236.043 594.646 235.979 594.47 235.933 594.287C235.933 594.281 235.933 594.281 235.933 594.275C235.892 594.111 235.863 593.947 235.84 593.782C235.834 593.746 235.834 593.715 235.828 593.679C235.811 593.503 235.805 593.326 235.817 593.15L236.072 588.644C236.072 588.644 235.12 588.51 233.599 588.352C233.465 588.34 233.331 588.322 233.186 588.31C233.146 588.303 233.099 588.303 233.059 588.297C227.171 587.695 214.513 586.862 212.319 590.517C212.319 590.517 212.243 593.965 212.145 597.51C215.936 598.477 219.774 598.75 223.542 598.471C223.589 601.055 223.792 603.329 224.268 604.545C224.785 605.877 233.988 610.109 237.605 612.244C241.083 614.293 248.503 609.532 254.884 610.03C253.694 609.282 252.504 608.48 251.342 607.622C244.108 602.296 239.143 597.966 236.966 596.002Z" fill="white"/>
<path d="M186.667 625.421C182.637 622.727 166.519 609.41 164.737 608.17C162.96 606.929 163.198 604.071 164.383 596.75C165.567 589.428 144.926 579.869 141.373 591.66L139.596 609.161L137.564 627.507C137.494 628.571 138.086 629.556 139.027 629.951C139.904 630.322 141.251 630.657 143.329 630.76C143.329 630.76 146.366 631.873 151.348 637.09C154.733 640.635 158.698 641.31 171.141 641.189C183.584 641.067 193.681 640.185 195.318 635.91C197.275 630.821 194.621 630.742 186.667 625.421Z" fill="#212B6C"/>
<path d="M163.558 606.054C163.541 605.95 163.529 605.847 163.518 605.737C163.512 605.713 163.512 605.689 163.512 605.658C163.448 605.075 163.448 604.381 163.494 603.566V603.56C163.599 601.882 163.918 599.675 164.389 596.75C164.394 596.732 164.389 596.713 164.394 596.695C164.423 596.519 164.429 596.336 164.435 596.154C164.435 596.087 164.435 596.026 164.429 595.959C164.423 595.765 164.406 595.576 164.371 595.382C164.365 595.339 164.348 595.29 164.342 595.248C164.307 595.084 164.267 594.926 164.214 594.761C164.191 594.695 164.168 594.622 164.145 594.555C164.075 594.366 164 594.178 163.907 593.983C163.878 593.922 163.843 593.868 163.814 593.807C163.738 593.661 163.657 593.515 163.57 593.363C163.529 593.29 163.483 593.223 163.436 593.15C163.32 592.968 163.192 592.785 163.053 592.603C163.001 592.536 162.949 592.469 162.891 592.402C162.786 592.268 162.67 592.135 162.554 592.001C162.49 591.928 162.432 591.855 162.362 591.788C162.2 591.618 162.037 591.441 161.863 591.271C161.787 591.198 161.712 591.131 161.636 591.058C161.509 590.937 161.375 590.821 161.236 590.699C161.155 590.633 161.079 590.56 160.998 590.493C160.806 590.335 160.609 590.177 160.4 590.024C160.307 589.952 160.208 589.885 160.109 589.812C159.964 589.708 159.813 589.599 159.662 589.495C159.569 589.429 159.477 589.368 159.378 589.301C159.163 589.161 158.937 589.021 158.71 588.887C158.594 588.82 158.484 588.754 158.368 588.687C158.211 588.595 158.048 588.504 157.886 588.419C157.735 588.34 157.584 588.261 157.433 588.182C157.241 588.085 157.05 587.993 156.858 587.902C156.73 587.841 156.597 587.781 156.469 587.726C156.301 587.653 156.126 587.58 155.958 587.507C155.778 587.434 155.598 587.361 155.412 587.294C155.238 587.227 155.058 587.16 154.884 587.1C154.744 587.051 154.605 587.002 154.472 586.96C154.286 586.899 154.106 586.844 153.92 586.789C153.734 586.735 153.543 586.686 153.357 586.631C153.188 586.589 153.02 586.546 152.846 586.504C152.706 586.473 152.567 586.443 152.428 586.412C152.219 586.37 152.01 586.333 151.801 586.297C151.632 586.267 151.47 586.248 151.301 586.224C151.133 586.2 150.965 586.181 150.796 586.163C150.663 586.151 150.529 586.139 150.396 586.127C150.146 586.108 149.902 586.096 149.658 586.09C145.931 586.023 142.633 587.537 141.396 591.636L140.055 604.844C142.807 606.041 145.559 606.783 148.3 607.179C148.154 609.757 148.073 611.545 148.114 611.77C148.288 612.676 156.823 621.195 158.298 622.928C159.778 624.661 174.491 619.048 182.057 621.943C175.74 617.011 166.107 609.094 164.76 608.151C164.098 607.72 163.727 607.057 163.558 606.054Z" fill="white"/>
<path d="M236.966 595.996C239.143 597.966 244.108 602.289 251.336 607.616L235.822 593.144C235.758 594.232 236.182 595.284 236.966 595.996Z" fill="white" stroke="#212B6C" stroke-width="2" stroke-miterlimit="10" stroke-linecap="round" stroke-linejoin="round"/>
<path d="M164.743 608.17C166.014 609.058 174.648 616.142 180.924 621.085L164.388 596.75C163.204 604.071 162.966 606.929 164.743 608.17Z" fill="white" stroke="#212B6C" stroke-width="2" stroke-miterlimit="10" stroke-linecap="round" stroke-linejoin="round"/>
<path d="M236.078 588.638C236.078 588.638 215.199 585.707 212.319 590.505C212.319 590.505 212.226 594.871 212.104 598.823C220.157 599.967 228.838 598.896 236.612 595.613C236.06 594.932 235.77 594.05 235.822 593.144L236.078 588.638Z" fill="#25293D"/>
<path d="M141.378 591.66L139.938 605.847C147.185 609.672 155.389 608.03 163.489 605.458C163.349 603.658 163.709 600.933 164.389 596.744C165.573 589.422 144.932 579.869 141.378 591.66Z" fill="#25293D"/>
<path d="M191.684 304.462C177.412 319.774 189.245 348.566 194.116 366.067C194.9 368.876 195.841 372.713 196.88 377.177C202.28 400.478 210.13 440.788 210.13 440.788C207.691 468.858 210.269 590.523 210.269 590.523C210.269 590.523 212.244 595.382 223.264 595.017C234.284 594.652 236.723 590.28 236.723 590.28C236.723 590.28 250.152 460.472 251.894 424.024C253.63 387.569 247.023 308.232 247.023 308.232C241.797 291.948 205.95 289.156 191.684 304.462Z" fill="#212B6C"/>
<path d="M210.13 440.788L212.034 360.229L196.88 377.177C202.28 400.478 210.13 440.788 210.13 440.788Z" fill="#25293D"/>
<path d="M191.683 304.462C183.758 312.963 183.886 325.623 186.4 338.198C206.025 342.048 226.335 342.102 245.269 336.794C246.523 336.417 247.789 336.04 249.055 335.663C247.975 319.579 247.028 308.226 247.028 308.226C241.797 291.948 205.949 289.15 191.683 304.462Z" fill="#25293D"/>
<path d="M149.733 297.536C149.733 297.536 146.488 316.733 149.733 347.472C151.301 362.327 158.437 436.045 158.437 436.045C158.437 436.045 145.832 512.421 139.044 596.373C138.963 597.382 139.433 598.361 140.269 598.866C142.214 600.046 146.302 602.01 152.782 602.666C159.987 603.402 163.639 601.031 164.986 599.833C165.381 599.48 165.654 599.006 165.782 598.477C168.221 588.188 198.616 454.616 201.943 442.68C205.421 430.202 212.034 360.217 212.034 360.217C212.034 360.217 217.568 357.84 218.648 345.27C219.803 331.826 221.231 308.931 217.155 299.032C213.079 289.144 158.089 284.413 149.733 297.536Z" fill="#212B6C"/>
<path d="M149.734 297.536C149.734 297.536 147.974 307.964 148.346 325.751C170.061 335.839 194.865 341.816 219.008 340.843C220.035 327.253 220.814 307.928 217.156 299.05C213.08 289.144 158.089 284.413 149.734 297.536Z" fill="#25293D"/>
<path d="M201.943 442.692C205.421 430.214 212.035 360.229 212.035 360.229C212.035 360.229 217.568 357.852 218.648 345.283" stroke="#32449E" stroke-width="2" stroke-miterlimit="10" stroke-linecap="round" stroke-linejoin="round"/>
<path d="M170.793 316.855C170.793 316.855 169.225 333.255 155.476 340.911" stroke="#32449E" stroke-width="2" stroke-miterlimit="10" stroke-linecap="round" stroke-linejoin="round"/>
<path d="M201.923 438.864C203.014 429.799 197.691 421.629 190.034 420.618C182.376 419.607 175.284 426.136 174.192 435.202C173.101 444.268 178.424 452.437 186.081 453.449C193.739 454.46 200.831 447.93 201.923 438.864Z" stroke="#32449E" stroke-width="2" stroke-miterlimit="10" stroke-linecap="round" stroke-linejoin="round"/>
<path d="M249.136 450.122C247.116 452.032 244.637 453.157 241.96 453.157C235.149 453.157 229.627 445.878 229.627 436.897C229.627 427.915 235.149 420.636 241.96 420.636C245.786 420.636 249.212 422.935 251.47 426.547" stroke="#32449E" stroke-width="2" stroke-miterlimit="10" stroke-linecap="round" stroke-linejoin="round"/>
<path d="M394.077 169.765C396.452 166.463 394.506 166.293 394.506 166.293C395.261 165.095 394.826 162.936 392.794 163.83C390.761 164.724 378.144 172.453 378.144 172.453C378.144 172.453 387.98 162.152 388.195 160.808C388.41 159.464 387.127 158.905 385.948 159.701C384.769 160.498 372.367 169.765 372.367 169.765C372.367 169.765 365.731 171.522 365.516 170.738C365.301 169.954 366.369 167.381 366.584 163.794C366.799 160.206 364.662 158.193 364.122 159.093C363.588 159.987 361.126 167.6 360.273 169.169C359.419 170.738 356.319 175.104 355.889 176.332C355.46 177.567 353.271 186.737 353.271 186.737C350.228 198.004 361.452 200.291 361.452 200.291L370.434 195.365L375.961 192.039C377.901 190.738 378.998 190.209 380.299 188.956C382.72 186.621 385.861 184.037 390.012 179.275C396.289 172.064 395.627 171.115 394.501 171.115C393.374 171.115 391.667 172.781 391.667 172.781C391.667 172.781 392.457 172.021 394.077 169.765Z" fill="#ED6B8A"/>
<path d="M362.026 191.614C359.715 187.308 356.359 186.08 354.565 185.733C353.851 185.593 353.12 185.739 352.51 186.147C351.203 187.022 349.734 187.643 347.238 188.689C348.132 188.926 353.038 190.422 355.761 194.988C359.1 200.577 358.432 204.815 358.374 205.156C359.675 204.213 360.784 203.392 361.695 202.699C363.176 201.574 363.942 199.689 363.71 197.786C363.472 195.858 362.996 193.42 362.026 191.614Z" fill="white"/>
<path d="M347.238 188.689C343.836 190.124 338.529 192.343 329.123 197.062C309.979 206.67 289.094 213.334 289.094 213.334C274.829 180.893 266.694 166.925 266.694 166.925C253.165 152.958 236.85 187.515 247.441 205.374C254.321 216.971 267.397 231.212 275.723 239.774C280.368 244.553 287.231 246.061 293.321 243.66C303.047 239.835 317.87 233.395 328.513 226.037C342.001 216.709 352.272 209.582 358.374 205.156C358.432 204.815 359.1 200.577 355.762 194.988C353.038 190.422 348.132 188.926 347.238 188.689Z" fill="#2B3482"/>
<path d="M254.327 215.402C257.845 220.017 261.793 224.675 265.626 228.956C265.91 213.213 267.733 197.469 265.585 181.726C264.551 194.167 259.848 204.675 254.327 215.402Z" fill="#25293D"/>
<path d="M365.504 170.306C365.504 170.306 365.278 172.508 365.522 172.903C365.713 173.207 369.975 176.728 368.93 183.228" stroke="#212B6C" stroke-width="2" stroke-miterlimit="10" stroke-linecap="round" stroke-linejoin="round"/>
<path d="M375.52 171.127C375.52 171.127 380.763 177.591 382.853 184.049" stroke="#212B6C" stroke-width="2" stroke-miterlimit="10" stroke-linecap="round" stroke-linejoin="round"/>
<path d="M394.506 166.293C394.506 166.293 394.048 165.794 391.592 167.825C388.067 170.744 380.31 176.509 380.31 176.509" stroke="#212B6C" stroke-width="2" stroke-miterlimit="10" stroke-linecap="round" stroke-linejoin="round"/>
<path d="M391.673 172.787C391.673 172.787 385.965 177.798 383.294 180.224" stroke="#212B6C" stroke-width="2" stroke-miterlimit="10" stroke-linecap="round" stroke-linejoin="round"/>
<path d="M289.094 213.334C289.094 213.334 286.313 215.219 285.57 216.91" stroke="#32449E" stroke-width="2" stroke-miterlimit="10" stroke-linecap="round" stroke-linejoin="round"/>
<path d="M268.79 129.43C268.558 129.406 268.32 129.394 268.088 129.376C268.442 129.49 268.79 129.43 268.79 129.43Z" fill="#212B6C"/>
<path d="M278.614 99.0085C280.786 90.3676 278.283 86.3238 266.59 84.7672C258.931 83.7456 251.36 81.9639 245.141 80.3585C232.449 77.081 218.694 85.1137 217.074 95.1471C217.074 95.1471 211.93 101.003 212.034 106.251C212.464 127.935 222.712 136.29 222.956 143.776C223.2 151.261 224.436 153.006 232.466 148.628C240.363 144.323 254.455 128.385 268.082 129.382C267.431 129.169 266.758 128.361 268.163 125.436C269.191 123.295 278.295 121.216 279.979 111.663C281.372 103.794 277.639 102.882 278.614 99.0085Z" fill="#212B6C"/>
<path d="M274.945 238.971C274.945 238.971 277.918 235.615 285.199 236.296C292.48 236.977 294.529 242.711 294.529 242.711" stroke="#212B6C" stroke-width="2" stroke-miterlimit="10" stroke-linecap="round" stroke-linejoin="round"/>
<path d="M230.713 150.756C230.713 150.756 215.164 146.634 196.369 154.168C177.58 161.696 170.386 190.13 164.818 213.213C159.25 236.302 146.221 286.45 146.221 316.855C146.221 316.855 157.984 333.443 213.242 335.036L216.819 325.915L219.664 335.036C219.664 335.036 246.192 335.036 251.18 324.51C251.18 324.51 250.379 311.826 248.765 296.885C248.567 295.055 248.283 293.218 248.184 291.382C247.876 285.745 246.25 272.021 246.163 266.633C245.931 252.051 250.692 240.127 251.65 238.175C253.624 234.161 269.284 208.53 270.213 184.475C271.148 160.413 256.934 155.366 230.713 150.756Z" fill="#212B6C"/>
<path d="M238.325 176.339C231.834 174.143 219.844 183.569 219.844 183.569C219.844 183.569 221.197 204.712 224.21 214.429C227.229 224.146 226.863 239.172 226.863 239.172C226.863 239.172 234.882 223.909 241.495 213.456C248.108 203.009 248.225 188.184 248.225 188.184C248.225 188.184 249.229 184.347 247.58 181.033C245.937 177.713 238.325 176.339 238.325 176.339Z" fill="white"/>
<path d="M222.921 186.421C222.921 186.421 218.886 165.46 220.215 159.568C221.545 153.675 225.296 151.486 225.296 151.486L226.097 148.707C226.097 148.707 220.935 149.936 217.26 152.636C212.743 155.956 207.895 161.635 205.752 164.268C205.096 165.071 205.09 166.251 205.74 167.059C207.575 169.352 211.198 174.107 212.969 178.084L207.18 184.937C206.646 185.569 206.513 186.469 206.838 187.248C209.503 193.511 221.29 221.878 226.091 245.399C226.091 245.399 228.913 224.256 228.303 213.687C227.694 203.119 222.921 186.421 222.921 186.421Z" fill="#2B3482"/>
<path d="M228.303 134.229C228.303 134.229 226.997 146.263 224.216 155.007C224.216 155.007 225.087 174.143 237.442 178.151C249.798 182.158 248.033 162.474 248.033 162.474L252.434 138.68C252.44 138.692 239.446 130.039 228.303 134.229Z" fill="#ED6B8A"/>
<path d="M231.323 142.815C229.982 154.502 240.531 166.348 248.381 166.348C249.067 162.395 248.039 162.486 248.039 162.486L248.887 157.914C241.646 155.123 235.677 149.394 231.323 142.815Z" fill="#1F296F"/>
<path d="M238.325 176.339C233.436 176.101 230.998 177.275 231.445 178.911L233.152 185.15L240.462 185.758L243.388 179.415C243.388 179.409 243.214 176.576 238.325 176.339Z" fill="#8249CB"/>
<path d="M233.152 185.144L226.091 208.591L227.102 236.861L241.507 212.112L240.462 185.746C240.462 185.752 237.326 183.325 233.152 185.144Z" fill="#A36BEB"/>
<path d="M252.44 153.189C250.385 149.224 244.172 150.027 248.039 156.108C251.906 162.182 248.236 188.184 248.236 188.184C240.694 211.024 227.444 233.359 227.444 233.359C227.282 235.11 226.091 246.992 226.091 246.992C242.024 218.296 256.557 197.847 260.11 192.958C260.615 192.258 260.667 191.322 260.249 190.562C258.293 187.041 255.541 182.717 255.541 182.717C257.277 180.2 260.754 176.18 262.282 174.447C262.746 173.918 262.938 173.177 262.769 172.483C259.924 160.893 252.44 153.189 252.44 153.189Z" fill="#2B3482"/>
<path d="M226.091 246.992C226.091 246.992 225.296 256.521 224.106 266.627C221.574 288.135 218.416 314.872 216.819 325.915" stroke="#32449E" stroke-width="2" stroke-miterlimit="10" stroke-linecap="round" stroke-linejoin="round"/>
<path d="M245.031 291.923C244.178 292.021 243.568 292.671 243.62 293.407L243.841 296.308C243.899 297.153 244.816 297.761 245.792 297.597C246.756 297.439 247.911 297.201 248.77 296.879C248.573 295.049 248.376 293.206 248.19 291.376C247.348 291.558 246.152 291.789 245.031 291.923Z" fill="#2B3482"/>
<path d="M224.808 153.098L225.29 151.486C225.29 151.486 218.648 152.459 218.299 163.028C218.026 171.279 221.388 181.982 222.869 186.275C223.142 187.071 224.164 187.217 224.628 186.524C232.467 174.94 238.325 176.332 238.325 176.332C224.419 166.129 224.808 153.098 224.808 153.098Z" fill="white"/>
<path d="M249.391 155.147L248.033 162.486C244.532 174.149 238.325 176.338 238.325 176.338C242.801 177.184 245.704 182.14 247.144 185.369C247.545 186.262 248.788 186.147 249.026 185.192C250.332 179.957 252.666 168.981 251.435 161.41C250.529 155.791 249.391 155.147 249.391 155.147Z" fill="white"/>
<path d="M271.879 106.902C273.621 96.2601 266.677 95.6824 255.366 92.8061C243.139 89.6988 227.839 96.9046 224.042 110.149C220.245 123.393 227.677 133.244 227.677 133.244C228.571 139.908 229.836 157.968 248.858 160.097C261.161 161.471 266.636 149.589 268.192 138.054C269.551 128.008 271.839 121.86 272.454 118.966C273.865 112.374 271.665 108.209 271.879 106.902Z" fill="#ED6B8A"/>
<path d="M246.599 85.5578C226.707 85.9834 217.684 104.414 219.78 114.29C221.882 124.159 224.947 121.119 228.559 125.247C232.17 129.376 233.68 125.412 235.585 119.458C235.602 119.398 235.625 119.337 235.643 119.282C237.036 114.953 241.762 112.891 245.67 114.928C247.841 116.059 250.756 117.002 254.652 117.403C269.464 118.917 277.575 110.976 277.575 110.976C279.404 101.38 266.485 85.1321 246.599 85.5578Z" fill="#212B6C"/>
<path d="M224.204 119.081C219.391 118.145 220.703 130.72 223.571 134.588C226.44 138.461 230.103 135.165 230.103 135.165L229.79 127.698C229.79 127.698 229.023 120.018 224.204 119.081Z" fill="#ED6B8A"/>
<path d="M248.208 124.214C247.267 125.083 247.18 126.585 248.01 127.564C248.84 128.549 250.275 128.64 251.209 127.771C252.144 126.901 252.237 125.399 251.407 124.42C250.582 123.435 249.148 123.344 248.208 124.214Z" fill="#1F2970"/>
<path d="M259.832 140.735C263.913 139.793 265.527 137.008 264.233 134.916C263.513 133.748 263.106 132.398 263.251 131.018L263.257 130.969" stroke="#1F296F" stroke-width="2" stroke-miterlimit="10" stroke-linecap="round" stroke-linejoin="round"/>
<path d="M256.226 146.7C252.44 146.962 247.952 146.737 246.169 143.167C246.169 143.167 246.506 147.278 250.681 148.184C254.124 148.932 254.635 146.767 254.635 146.767" stroke="#1F296F" stroke-width="2" stroke-miterlimit="10" stroke-linecap="round" stroke-linejoin="round"/>
<path d="M267.681 125.661C266.59 125.521 265.585 126.402 265.44 127.631C265.295 128.859 266.061 129.978 267.153 130.118C268.244 130.258 269.249 129.376 269.394 128.148C269.539 126.913 268.773 125.8 267.681 125.661Z" fill="#1F2970"/>
<path d="M253.038 116.637C250.954 115.67 247.081 115.007 243.214 117.543C237.936 121.015 249.293 119.002 251.674 120.674C254.06 122.347 255.593 117.822 253.038 116.637Z" fill="#1F296F"/>
<path d="M266.416 118.789C265.022 119.519 264.18 123.149 266.184 122.408C268.187 121.666 272.274 123.989 270.55 120.401C270.079 119.41 267.943 117.987 266.416 118.789Z" fill="#1F296F"/>
<path d="M248.48 136.527C253.643 136.527 257.828 131.883 257.828 126.153C257.828 120.424 253.643 115.78 248.48 115.78C243.317 115.78 239.132 120.424 239.132 126.153C239.132 131.883 243.317 136.527 248.48 136.527Z" stroke="#1F296F" stroke-width="2" stroke-miterlimit="10" stroke-linecap="round" stroke-linejoin="round"/>
<path d="M275.24 127.817C275.946 122.461 273.917 117.743 270.709 117.28C267.501 116.816 264.328 120.782 263.622 126.138C262.916 131.494 264.945 136.212 268.153 136.676C271.362 137.14 274.535 133.174 275.24 127.817Z" stroke="#1F296F" stroke-width="2" stroke-miterlimit="10" stroke-linecap="round" stroke-linejoin="round"/>
<path d="M263.547 126.98C263.547 126.98 262.676 123.265 257.822 126.147" stroke="#1F296F" stroke-width="2" stroke-miterlimit="10" stroke-linecap="round" stroke-linejoin="round"/>
<path d="M239.132 123.91L228.303 122.505" stroke="#1F296F" stroke-width="2" stroke-miterlimit="10" stroke-linecap="round" stroke-linejoin="round"/>
<path d="M200.671 244.845C207.29 256.855 221.045 262.358 233.628 258.029L250.68 252.161L178.904 205.375L200.671 244.845Z" fill="#25293D"/>
<path d="M331.242 237.293C330.359 237.171 329.465 237.038 328.542 236.892C327.706 237.439 323.827 240.303 323.055 246.627C322.277 253.006 325.308 257.013 325.981 257.816C327.253 257.834 328.426 257.852 329.471 257.864C332.461 257.907 335.08 255.767 335.776 252.72C336.514 249.497 336.781 246.499 336.833 244.067C336.909 240.643 334.482 237.731 331.242 237.293Z" fill="white"/>
<path d="M243.388 221.963C236.804 213.517 222.805 193.207 211.575 176.697C207.331 170.452 200.753 167.302 194.163 167.302C187.95 167.302 181.72 170.106 177.429 175.767C170.711 184.615 171.344 197.311 178.904 205.375C192.955 220.364 210.292 237.494 220.25 247.205C225.563 252.386 232.437 255.456 239.689 255.876C245.077 256.186 252.422 256.514 261.805 256.715C279.108 257.08 310.386 257.591 325.981 257.816C325.308 257.013 322.277 253.006 323.055 246.627C323.827 240.303 327.706 237.439 328.542 236.892C322.056 235.864 314.206 234.186 299.627 232.167C275.032 228.768 243.388 221.963 243.388 221.963Z" fill="#2B3482"/>
<path d="M357.857 242.005C356.232 241.154 352.87 238.606 352.87 238.606C359.832 233.748 358.67 230.829 357.277 231.559C355.883 232.288 349.99 233.577 346.953 235.201C343.121 237.256 336.868 238.606 334.592 239.05C333.994 239.166 333.431 239.458 333.001 239.914C328.495 244.675 329.866 251.37 330.771 254.289C331.05 255.183 331.677 255.906 332.508 256.271L339.063 259.141C339.063 259.141 353.317 266.353 354.827 266.596C356.336 266.84 359.251 265.459 359.251 265.459C359.251 265.459 363.077 265.399 363.85 264.73C364.599 264.079 367.949 261.464 367.949 261.464L369.725 262.34C370.271 262.607 370.922 262.62 371.45 262.322C372.286 261.847 373.07 260.953 372.594 260.114C371.897 258.898 359.483 242.857 357.857 242.005Z" fill="#ED6B8A"/>
<path d="M367.949 261.464L361.051 256.223L356.685 251.875" stroke="#212B6C" stroke-width="2" stroke-miterlimit="10" stroke-linecap="round" stroke-linejoin="round"/>
<path d="M365.179 263.647L359.75 261.379C359.187 261.142 358.659 260.838 358.171 260.467L353.34 256.594" stroke="#212B6C" stroke-width="2" stroke-miterlimit="10" stroke-linecap="round" stroke-linejoin="round"/>
<path d="M359.251 265.459L357.05 264.924C356.354 264.754 355.692 264.48 355.071 264.109L350.025 261.209" stroke="#212B6C" stroke-width="2" stroke-miterlimit="10" stroke-linecap="round" stroke-linejoin="round"/>
<path d="M218.415 245.411C218.415 245.411 224.407 240.619 234.191 243.818C245.054 247.369 246.169 256.016 246.169 256.016" stroke="#32449E" stroke-width="2" stroke-miterlimit="10" stroke-linecap="round" stroke-linejoin="round"/>
<path d="M255.54 182.717L250.866 176.308" stroke="#212B6C" stroke-width="2" stroke-miterlimit="10" stroke-linecap="round" stroke-linejoin="round"/>
<path d="M212.963 178.096L218.99 171.523" stroke="#212B6C" stroke-width="2" stroke-miterlimit="10" stroke-linecap="round" stroke-linejoin="round"/>
<path d="M190.76 281.482L175.577 277.694C174.799 277.5 174.015 278.016 173.847 278.837L171.826 288.579C171.826 288.579 183.77 295.28 189.744 292.124L191.823 283.301C192.009 282.498 191.533 281.677 190.76 281.482Z" fill="white"/>
<path d="M193.025 291.631C180.652 290.391 170.967 286.651 167.39 285.107C166.572 284.754 165.643 285.192 165.358 286.067L164.377 289.071C164.127 289.838 164.464 290.677 165.161 291.035C174.869 296.022 188.026 297.426 192.27 297.761C193.054 297.822 193.751 297.25 193.89 296.441L194.384 293.498C194.535 292.58 193.907 291.717 193.025 291.631Z" fill="#2B3482"/>
<path d="M229.441 272.55C228.617 272.55 227.949 273.249 227.949 274.112C227.949 274.976 228.617 275.675 229.441 275.675C230.266 275.675 230.934 274.976 230.934 274.112C230.934 273.249 230.266 272.55 229.441 272.55Z" fill="#32449E"/>
<path d="M226.457 300.333C225.633 300.333 224.965 301.032 224.965 301.896C224.965 302.759 225.633 303.459 226.457 303.459C227.282 303.459 227.949 302.759 227.949 301.896C227.949 301.032 227.282 300.333 226.457 300.333Z" fill="#32449E"/>
<path d="M508.39 162.346C508.39 162.346 489.885 182.596 464.361 217.834C464.361 217.834 420.007 229.157 381.971 237.621C380.792 237.883 379.811 238.722 379.352 239.889C378.655 241.659 377.854 244.572 378.162 248.147C378.394 250.798 378.963 252.756 379.526 254.112C380.153 255.614 381.611 256.539 383.167 256.417C394.083 255.566 442.03 251.826 454.038 250.695C460.001 250.136 465.186 249.4 469.134 248.749C474.278 247.904 479.092 245.575 483.057 242.042C493.044 233.146 512.942 215.086 519.991 206.226C529.559 194.198 526.372 148.348 508.39 162.346Z" fill="#E95F10"/>
<path d="M359.896 244.036C359.896 244.036 364.895 253.516 365.18 254.976C365.464 256.435 371.688 258.825 371.688 258.825C371.688 258.825 374.702 257.469 377.733 256.587C379.469 256.083 380.874 255.596 381.751 255.274C382.389 255.043 382.848 254.453 382.941 253.747C383.336 250.707 384.114 242.388 381.414 238.965C381.414 238.971 364.86 241.574 359.896 244.036Z" fill="#ED6B8A"/>
<path d="M386.877 236.521C386.877 236.521 390.024 240.607 389.839 246.834C389.618 254.033 387.185 256.137 387.185 256.137" stroke="white" stroke-width="2" stroke-miterlimit="10" stroke-linecap="round" stroke-linejoin="round"/>
<path d="M464.837 249.412C464.837 249.412 464.228 242.997 472.153 240.291C479.963 237.627 483.76 241.416 483.76 241.416" stroke="#E95F10" stroke-width="2" stroke-miterlimit="10" stroke-linecap="round" stroke-linejoin="round"/>
<path d="M364.761 232.744C363.368 231.832 357.277 234.569 355.367 235.481C353.451 236.393 349.973 240.583 347.97 242.407C345.967 244.231 349.276 244.87 352.057 243.775C354.839 242.68 356.685 241.312 356.685 241.312C356.685 241.312 360.958 245.873 364.384 245.782C367.81 245.69 379.643 243.866 379.643 243.866L381.414 238.977L374.249 238.4C374.249 238.393 366.155 233.656 364.761 232.744Z" fill="#ED6B8A"/>
<path d="M364.761 232.744C363.368 231.832 357.277 234.569 355.367 235.481C353.451 236.393 349.973 240.583 347.97 242.407" stroke="#212B6C" stroke-width="2" stroke-miterlimit="10" stroke-linecap="round" stroke-linejoin="round"/>
<path d="M347.97 242.401C345.967 244.225 349.276 244.863 352.057 243.769C354.844 242.674 356.685 241.306 356.685 241.306C356.685 241.306 360.958 245.867 364.384 245.776" stroke="#212B6C" stroke-width="2" stroke-miterlimit="10" stroke-linecap="round" stroke-linejoin="round"/>
<path d="M359.896 244.036C363.908 248.585 372.037 259.135 372.594 260.108C373.07 260.941 372.292 261.835 371.45 262.315" stroke="#212B6C" stroke-width="2" stroke-miterlimit="10" stroke-linecap="round" stroke-linejoin="round"/>
<path d="M628.451 617.333C618 614.554 609.198 620.605 607.108 617.692C605.023 614.773 599.687 607.969 598.875 606.266C598.346 605.159 597.324 596.367 596.686 590.395C594.462 591.672 592.284 593.727 590.403 596.914C590.403 596.914 590.984 601.651 590.868 605.293C590.752 608.942 589.823 619.51 590.403 619.997C590.984 620.483 593.539 620.97 595.159 620.97C596.784 620.97 598.178 621.821 600.03 627.652C601.888 633.484 604.791 636.281 609.662 636.768C614.534 637.254 634.606 636.403 637.736 635.916C640.871 635.43 641.864 632.335 641.626 631.058C641.301 629.319 633.735 622.684 628.451 617.333Z" fill="#212B6C"/>
<path d="M624.973 613.557C617.669 604.569 612.722 598.975 612.351 598.008C611.985 597.035 611.404 590.109 611.404 590.109C611.404 590.109 603.798 586.303 596.686 590.395C597.324 596.366 598.346 605.159 598.875 606.266C599.687 607.969 605.023 614.773 607.108 617.692C609.198 620.605 618 614.554 628.451 617.333C627.087 615.953 625.873 614.658 624.973 613.557Z" fill="white" stroke="#212B6C" stroke-width="2" stroke-miterlimit="10" stroke-linecap="round" stroke-linejoin="round"/>
<path d="M611.404 590.109C611.404 590.109 603.798 586.303 596.686 590.395C594.462 591.672 592.285 593.727 590.403 596.914C590.403 596.914 590.572 598.294 590.711 600.13C598.422 602.484 606.063 601.851 612.473 598.239C612.415 598.148 612.374 598.069 612.351 598.008C611.985 597.035 611.404 590.109 611.404 590.109Z" fill="#25293D"/>
<path d="M530.425 583.019C530.425 583.019 526.204 582.04 521.234 582.052C521.141 585.476 520.723 599.772 520.485 601.73C520.212 603.961 513.442 607.762 510.074 610.79C508.448 612.25 502.125 606.266 491.558 607.847C484.712 614.287 473.692 620.97 472.647 623.645C471.602 626.315 475.318 629.233 476.712 629.598C478.099 629.963 488.312 631.295 497.242 631.903C506.178 632.511 510.237 629.841 513.953 625.463C517.663 621.091 519.289 620.24 519.289 620.24C519.289 620.24 524.195 617.741 527.406 616.962C529.583 616.433 530.704 615.43 531.267 614.652C531.638 614.141 531.813 613.502 531.789 612.858C531.667 609.89 531.191 598.44 530.889 595.698C530.541 592.536 530.425 583.019 530.425 583.019Z" fill="#212B6C"/>
<path d="M506.527 588.771V593.144C506.527 593.144 498.404 601.407 491.558 607.847C502.125 606.266 508.448 612.25 510.074 610.79C513.442 607.762 520.212 603.961 520.485 601.73C520.723 599.772 521.141 585.476 521.234 582.052C515.596 582.064 508.994 583.347 506.527 588.771Z" fill="white" stroke="#212B6C" stroke-width="2" stroke-miterlimit="10" stroke-linecap="round" stroke-linejoin="round"/>
<path d="M521.234 582.052C515.596 582.064 508.994 583.347 506.526 588.771V593.144C506.526 593.144 506.161 593.521 505.516 594.165C513.32 598.598 522.337 597.826 530.872 595.564C530.535 592.28 530.419 583.019 530.419 583.019C530.419 583.019 526.204 582.04 521.234 582.052Z" fill="#25293D"/>
<path d="M485.363 294.988C485.363 294.988 478.593 333.273 484.155 412.5C484.155 412.5 496.731 541.992 505.917 590.055C506.161 591.344 506.939 592.457 508.065 593.04C509.859 593.971 513.163 594.95 518.766 594.427C525.606 593.788 529.02 590.45 530.442 588.522C530.994 587.774 531.296 586.862 531.313 585.92C531.476 576.172 529.27 496.373 529.908 471.77C530.495 449.338 527.928 427.885 528.085 417.201C528.114 415.212 528.236 413.595 528.492 412.415C528.492 412.415 537.66 378.709 542.496 353.382C543.837 346.328 544.848 339.925 545.225 335.079C546.967 312.847 513.552 277.852 485.363 294.988Z" fill="#3B7BED"/>
<path d="M520.026 347.617L527.684 417.547L528.085 417.201C528.114 415.212 528.236 413.595 528.491 412.415C528.491 412.415 537.659 378.709 542.496 353.382C535.354 354.61 527.208 353.802 520.026 347.617Z" fill="#2351A5"/>
<path d="M485.363 294.982C485.363 294.982 484.463 300.09 483.586 310.421C500.825 322.212 522.284 325.854 542.635 321.354C534.356 301.354 508.152 281.129 485.363 294.982Z" fill="#2351A5"/>
<path d="M588.592 432.548C586.502 419.791 580.904 345.562 578.849 323.197C576.794 300.831 568.061 282.005 568.061 282.005C568.061 282.005 523.161 283.343 516.896 301.993C516.896 301.993 517.942 338.502 520.032 347.617C522.122 356.732 526.645 359.28 527.69 362.929C528.735 366.571 546.137 430.001 548.575 437.285C548.575 437.285 561.802 498.161 569.112 526.589C575.237 550.413 586.13 588.455 588.429 595.545C588.905 597.017 590.067 598.112 591.507 598.476C594.119 599.133 598.66 599.662 604.089 597.668C607.468 596.427 609.488 595.15 610.696 594.104C611.846 593.107 612.403 591.55 612.188 590.006C609.947 574.044 590.537 444.418 588.592 432.548Z" fill="#3B7BED"/>
<path d="M585.88 406.693C570.825 405.683 555.746 406.413 540.719 409.916C544.377 423.002 547.617 434.434 548.569 437.286C548.569 437.286 548.627 437.553 548.738 438.052C562.771 438.727 577.014 440.971 590.548 445.677C589.602 439.146 588.911 434.476 588.597 432.542C587.953 428.632 586.977 418.915 585.88 406.693Z" fill="#2351A5"/>
<path d="M516.896 301.993C516.896 301.993 517.181 311.984 517.756 322.814C527.33 323.793 537.131 322.984 546.613 320.369C556.977 317.329 566.755 312.744 576.991 310.585C573.71 294.185 568.061 281.999 568.061 281.999C568.061 281.999 523.161 283.343 516.896 301.993Z" fill="#2351A5"/>
<path d="M518.098 328.84C518.592 336.721 519.236 344.151 520.026 347.617C522.116 356.733 526.639 359.281 527.684 362.929" stroke="#32449E" stroke-width="2" stroke-miterlimit="10" stroke-linecap="round" stroke-linejoin="round"/>
<path d="M500.209 449.32C507.892 449.32 514.121 442.206 514.121 433.43C514.121 424.655 507.892 417.541 500.209 417.541C492.526 417.541 486.297 424.655 486.297 433.43C486.297 442.206 492.526 449.32 500.209 449.32Z" stroke="#32449E" stroke-width="2" stroke-miterlimit="10" stroke-linecap="round" stroke-linejoin="round"/>
<path d="M569.079 449.182C576.705 448.204 582.061 440.349 581.043 431.639C580.024 422.928 573.015 416.66 565.389 417.639C557.762 418.617 552.406 426.472 553.425 435.182C554.444 443.893 561.452 450.161 569.079 449.182Z" stroke="#32449E" stroke-width="2" stroke-miterlimit="10" stroke-linecap="round" stroke-linejoin="round"/>
<path d="M555.49 155.56C539.686 154.344 527.522 155.402 520.38 156.43C513.552 157.409 507.49 161.653 504.186 167.989C495.5 184.651 498.27 211.388 497.712 219.537C497.016 229.74 493.712 253.802 493.712 253.802C484.84 276.867 482.546 301.433 482.349 305.252C482.326 305.757 482.517 306.243 482.877 306.572C494.014 316.587 522.081 325.088 543.634 315.176C558.968 308.122 568.781 303.622 573.292 301.555C575.005 300.771 575.911 298.794 575.423 296.909C573.431 289.278 568.885 275.286 568.885 270.938C568.885 265.836 570.627 257.086 578.628 234.854C586.635 212.617 592.725 177.81 589.764 172.343C586.815 166.858 581.595 157.567 555.49 155.56Z" fill="#E95F10"/>
<path d="M496.702 230.05C497.155 226.031 497.532 222.279 497.718 219.525C498.101 213.924 496.911 199.537 498.949 185.672" stroke="#212B6C" stroke-width="2" stroke-miterlimit="10" stroke-linecap="round" stroke-linejoin="round"/>
<path d="M574.401 293.17C551.379 300.941 542.136 311.491 519.898 311.418C498.125 311.345 486.088 300.746 483.098 297.724C482.622 301.519 482.407 304.182 482.355 305.246C482.326 305.745 482.518 306.237 482.883 306.566C494.02 316.581 522.087 325.082 543.64 315.17C558.98 308.116 568.786 303.616 573.298 301.543C575.011 300.758 575.922 298.782 575.429 296.897C575.133 295.778 574.784 294.52 574.401 293.17Z" fill="white"/>
<path d="M560.664 87.8925C554.219 83.9278 541.927 79.7867 530.332 79.9448C520.055 80.0847 523.504 85.9406 523.504 85.9406C523.504 85.9406 516.751 84.5541 515.062 90.8721C513.819 95.5179 518.371 102.754 518.371 102.754C518.371 102.754 515.038 107.442 519.503 117.914C522.592 125.156 552.93 152.55 552.93 152.55C552.93 152.55 559.601 145.885 565.825 138.327C572.044 130.769 577.583 120.06 577.647 112.137C577.717 103.952 567.41 92.0396 560.664 87.8925Z" fill="#212B6C"/>
<path d="M558.219 155.378C557.755 155.195 539.186 153.219 531.65 154.496C531.65 154.496 525.147 155.001 523.765 155.992C521.82 157.384 514.342 178.181 528.956 182.261C543.431 186.299 555.612 173.359 557.929 165.223C560.246 157.08 558.684 155.56 558.219 155.378Z" fill="white"/>
<path d="M532.172 134.6C531.65 136.789 528.172 157.561 528.172 157.561C528.172 157.561 521.396 172.24 532.172 174.143C542.397 175.949 548.749 167.12 551.466 162.128C552.442 160.34 553.081 158.382 553.411 156.351C555.316 144.584 557.923 130.951 557.923 130.951C553.586 123.125 532.695 132.41 532.172 134.6Z" fill="#ED6B8A"/>
<path d="M528.677 154.551C528.369 156.375 528.172 157.561 528.172 157.561C528.172 157.561 526.784 160.577 526.268 164.049C535.325 163.587 544.093 159.47 548.064 150.75C541.59 151.17 535.499 156.071 528.677 154.551Z" fill="#212B6C"/>
<path d="M545.37 91.1458C533.833 89.5101 527.168 87.4061 525.095 97.9868C524.839 99.282 521.344 102.329 520.363 109.005C519.933 111.936 519.927 118.54 517.703 128.409C515.149 139.75 516.118 152.903 528.056 156.308C546.514 161.574 553.963 145.235 557.116 139.361C557.116 139.361 567.457 133.012 568.525 119.233C569.594 105.448 557.842 92.9093 545.37 91.1458Z" fill="#ED6B8A"/>
<path d="M554.556 111.905C554.66 111.778 554.712 111.705 554.712 111.705C554.707 111.705 554.649 111.772 554.556 111.905Z" fill="#212B6C"/>
<path d="M556.06 87.7284C541.317 81.3374 527.034 86.6338 521.118 93.9491C518.836 96.7645 518.824 100.912 521.118 103.715C521.118 103.715 524.613 98.5887 530.82 105.107C545.962 120.997 553.418 113.292 554.556 111.9C554.649 111.772 554.712 111.705 554.712 111.699C554.712 111.699 554.66 111.772 554.556 111.9C553.952 112.733 551.891 116.241 554.55 123.496C556.704 129.358 554.283 134.034 559.085 131.565C563.886 129.096 565.68 133.098 571.069 124.706C576.445 116.314 574.442 95.7003 556.06 87.7284Z" fill="#212B6C"/>
<path d="M565.274 127.491C560.46 126.53 557.081 133.389 557.081 133.389L554.195 140.23C554.195 140.23 556.466 144.694 560.478 142.182C564.496 139.659 570.087 128.452 565.274 127.491Z" fill="#ED6B8A"/>
<path d="M537.508 124.304C537.688 123.751 538.06 123.265 538.588 122.967C539.691 122.352 541.068 122.79 541.654 123.946C541.95 124.523 541.991 125.174 541.822 125.758" stroke="#1F296F" stroke-width="2" stroke-miterlimit="10" stroke-linecap="round" stroke-linejoin="round"/>
<path d="M524.096 134.715C519.822 131.814 519.886 127.71 523.515 126.95L524.154 124.311" stroke="#1F296F" stroke-width="2" stroke-miterlimit="10" stroke-linecap="round" stroke-linejoin="round"/>
<path d="M526.68 142.067C528.991 142.468 532.091 142.249 534.965 139.598" stroke="#1F296F" stroke-width="2" stroke-miterlimit="10" stroke-linecap="round" stroke-linejoin="round"/>
<path d="M520.496 119.866C520.769 118.662 521.861 117.895 522.929 118.163C523.997 118.43 524.642 119.622 524.369 120.832" stroke="#1F296F" stroke-width="2" stroke-miterlimit="10" stroke-linecap="round" stroke-linejoin="round"/>
<path d="M538.507 114.63C535.72 114.8 535.644 119.604 538.431 118.917C541.218 118.223 551.188 124.268 547.402 119.081C544.638 115.28 540.783 114.49 538.507 114.63Z" fill="#1F296F"/>
<path d="M520.85 111.729C518.034 114.46 522.639 113.779 524.27 115.214C525.902 116.643 526.325 112.933 525.263 111.741C524.096 110.428 521.622 110.981 520.85 111.729Z" fill="#1F296F"/>
<path d="M567.306 342.959C567.306 342.959 563.439 346.146 560.582 348.511C557.726 350.877 555.467 354.434 553.638 357.9C551.809 361.36 554.596 361.178 558.422 357.9C562.249 354.623 566.778 354.531 568.601 350.609C570.424 346.687 568.659 341.847 567.306 342.959Z" fill="#ED6B8A"/>
<path d="M561.123 190.245C561.453 191.638 561.79 193.03 562.232 194.307C561.75 192.106 561.239 189.771 560.693 187.229C560.78 188.287 560.745 189.455 561.123 190.245Z" fill="#212B6C"/>
<path d="M560.699 187.229C560.652 186.651 560.571 186.11 560.368 185.678C560.478 186.201 560.588 186.718 560.699 187.229Z" fill="#212B6C"/>
<path d="M562.231 194.307C564.676 205.411 566.528 213.103 569.344 226.852C569.925 229.892 571.887 250.829 572.311 253.735C573.774 248.822 575.812 242.668 578.634 234.836C579.871 231.394 581.067 227.654 582.187 223.763C576.404 214.496 568.636 206.894 563.445 196.928C562.951 196.156 562.562 195.262 562.231 194.307Z" fill="#212B6C"/>
<path d="M518.795 408C539.152 412.889 594.055 418.173 594.055 418.173C600.965 397.444 603.392 362.625 603.392 362.625C580.608 359.694 532.985 349.715 532.985 349.715C529.629 389.423 518.795 408 518.795 408Z" fill="#F7CB71"/>
<path d="M594.055 418.173C595.82 412.883 597.289 406.675 598.503 400.369C577.862 407.453 556.205 410.384 534.379 410.931C558.864 414.786 594.055 418.173 594.055 418.173Z" fill="#E9B371"/>
<path d="M571.132 333.297C571.132 333.297 569.216 340.345 568.868 340.831C568.519 341.318 563.416 347.514 561.325 355.778C559.235 364.042 553.203 380.199 553.086 381.78C552.97 383.361 553.33 383.421 553.33 383.421C553.33 383.421 551.676 386.158 552.593 387.885C553.505 389.618 567.196 375.948 567.196 375.948C567.196 375.948 563.021 385.173 562.498 386.815C561.976 388.456 564.327 389.861 567.196 387.702C570.064 385.544 579.534 373.881 580.265 372.944C580.997 372.008 583.569 352.439 583.569 349.527C583.569 346.608 587.483 334.124 587.483 334.124C587.483 334.124 576.178 326.827 571.132 333.297Z" fill="#ED6B8A"/>
<path d="M571.132 333.297C571.132 333.297 570.708 334.866 570.221 336.569C574.465 340.789 579.58 342.254 584.98 342.728C586.101 338.533 587.488 334.118 587.488 334.118C587.488 334.118 576.178 326.827 571.132 333.297Z" fill="#212B6C"/>
<path d="M561.326 355.772C559.235 364.036 553.203 380.192 553.087 381.774C552.97 383.355 553.33 383.415 553.33 383.415" stroke="#212B6C" stroke-width="2" stroke-miterlimit="10" stroke-linecap="round" stroke-linejoin="round"/>
<path d="M552.599 387.879C553.51 389.612 567.201 375.942 567.201 375.942C567.201 375.942 563.027 385.167 562.504 386.808" stroke="#212B6C" stroke-width="2" stroke-miterlimit="10" stroke-linecap="round" stroke-linejoin="round"/>
<path d="M553.336 383.415C553.336 383.415 554.596 385.179 556.57 382.26C558.544 379.341 564.112 368.712 564.461 368.165C564.809 367.617 566.086 366.584 566.377 366.158" stroke="#212B6C" stroke-width="2" stroke-miterlimit="10" stroke-linecap="round" stroke-linejoin="round"/>
<path d="M567.196 375.942C567.196 375.942 569.35 372.531 570.482 370.791C570.807 370.299 571.173 369.837 571.574 369.411" stroke="#212B6C" stroke-width="2" stroke-miterlimit="10" stroke-linecap="round" stroke-linejoin="round"/>
<path d="M562.829 388.225C562.829 388.225 563.514 389.758 566.528 384.96C569.547 380.162 575.307 373.272 575.591 372.908C575.882 372.543 576.462 372.117 576.462 372.117" stroke="#212B6C" stroke-width="2" stroke-miterlimit="10" stroke-linecap="round" stroke-linejoin="round"/>
<path d="M592.47 176.046C588.087 164.894 575.116 160.644 565.454 167.211C557.859 172.367 554.98 182.547 558.661 191.212C568.746 214.909 581.63 242.905 581.63 242.905C581.63 242.905 578.385 259.184 576.294 279.597C574.494 297.183 570.929 324.741 569.977 332.032C569.785 333.492 570.273 334.963 571.324 335.948C572.578 337.128 574.721 338.484 578.268 339.135C582.658 339.937 585.805 338.764 587.529 337.785C588.476 337.25 589.178 336.337 589.515 335.267C597.754 308.901 607.236 265.848 611.027 248.062C612.171 242.699 612.02 237.128 610.603 231.838C604.147 207.752 597.551 188.993 592.47 176.046Z" fill="#E95F10"/>
<path d="M569.35 215.706C565.878 207.898 562.104 199.3 558.66 191.206C556.64 186.457 556.593 181.252 558.213 176.667" stroke="#212B6C" stroke-width="2" stroke-miterlimit="10" stroke-linecap="round" stroke-linejoin="round"/>
<path d="M570.575 327.435C570.575 327.435 573.937 332.105 580.381 333.042C587.842 334.124 590.792 331.065 590.792 331.065" stroke="white" stroke-width="2" stroke-miterlimit="10" stroke-linecap="round" stroke-linejoin="round"/>
<path d="M609.198 256.502C609.198 256.502 600.872 256.168 599.844 245.088C598.973 235.699 606.283 232.331 606.283 232.331" stroke="#E95F10" stroke-width="2" stroke-miterlimit="10" stroke-linecap="round" stroke-linejoin="round"/>
<path d="M201.694 45.7402H147.266C145.669 45.7402 144.369 47.0963 144.369 48.7746V80.0605C144.369 81.7327 145.663 83.0949 147.266 83.0949H196.166L202.268 89.4433C203.128 90.3372 204.591 89.6986 204.591 88.4338V48.7807C204.591 47.1023 203.29 45.7402 201.694 45.7402Z" fill="#F2A4D2"/>
<path d="M158.216 62.3774H191.846L175.031 51.821L158.216 62.3774Z" stroke="white" stroke-width="2" stroke-miterlimit="10" stroke-linecap="round" stroke-linejoin="round"/>
<path d="M162.153 62.3774V73.5176" stroke="white" stroke-width="2" stroke-miterlimit="10" stroke-linecap="round" stroke-linejoin="round"/>
<path d="M170.607 62.3774V73.5176" stroke="white" stroke-width="2" stroke-miterlimit="10" stroke-linecap="round" stroke-linejoin="round"/>
<path d="M179.061 62.3774V73.5176" stroke="white" stroke-width="2" stroke-miterlimit="10" stroke-linecap="round" stroke-linejoin="round"/>
<path d="M187.515 62.3774V73.5176" stroke="white" stroke-width="2" stroke-miterlimit="10" stroke-linecap="round" stroke-linejoin="round"/>
<path d="M160.498 73.5176H189.564" stroke="white" stroke-width="2" stroke-miterlimit="10" stroke-linecap="round" stroke-linejoin="round"/>
<path d="M158.692 76.6187H191.062" stroke="white" stroke-width="2" stroke-miterlimit="10" stroke-linecap="round" stroke-linejoin="round"/>
<path d="M175.031 56.8743C174.387 56.8743 173.87 57.4215 173.87 58.0904C173.87 58.7654 174.393 59.3066 175.031 59.3066C175.67 59.3066 176.193 58.7593 176.193 58.0904C176.193 57.4155 175.676 56.8743 175.031 56.8743Z" stroke="white" stroke-width="2" stroke-miterlimit="10" stroke-linecap="round" stroke-linejoin="round"/>
<path d="M643.594 45.7402H589.166C587.57 45.7402 586.269 47.0963 586.269 48.7746V88.4277C586.269 89.6926 587.732 90.3311 588.592 89.4372L594.694 83.0888H643.594C645.191 83.0888 646.491 81.7328 646.491 80.0545V48.7685C646.491 47.1024 645.191 45.7402 643.594 45.7402Z" fill="#F7CB71"/>
<path d="M597.806 68.2879L605.981 59.726C607.055 58.6011 608.803 58.6011 609.877 59.726L619.73 70.0453C620.805 71.1702 622.552 71.1702 623.626 70.0453L631.418 61.8848" stroke="white" stroke-width="2" stroke-linecap="round" stroke-linejoin="round"/>
<path d="M633.154 65.2111L634.954 58.1816L628.242 60.0667L633.154 65.2111Z" fill="white"/>
</g>
<defs>
<clipPath id="clip0_202_2771">
<rect width="839" height="692" fill="white" transform="translate(-37.5)"/>
</clipPath>
</defs>
</svg>
